0,0,Header,1,4,15360,
1,0,Start_track,,,,
1,0,Title_t,Transport,,,
1,0,Instrument_name_t,Hardware Interface II,,,
1,0,MIDI_port,0,,,
1,0,Tempo,468749,,,
1,0,Time_signature,4,2,24,8
1,6451200,End_track,,,,
2,0,Start_track,,,,
2,0,Title_t," Hip Hop Kit 03",,,
2,0,Instrument_name_t," Hip Hop Kit 03",,,
2,0,MIDI_port,239,,,
2,15360,Note_on_c,0,36,100,
2,30720,Note_off_c,0,36,0,
2,30720,Note_on_c,0,36,100,
2,46080,Note_off_c,0,36,0,
2,46080,Note_on_c,0,36,100,
2,61440,Note_off_c,0,36,0,
2,61440,Note_on_c,0,36,100,
2,76800,Note_off_c,0,36,0,
2,76800,Note_on_c,0,36,100,
2,92160,Note_off_c,0,36,0,
2,92160,Note_on_c,0,36,100,
2,107520,Note_off_c,0,36,0,
2,107520,Note_on_c,0,36,100,
2,122880,Note_off_c,0,36,0,
2,122880,Note_on_c,0,36,100,
2,138240,Note_off_c,0,36,0,
2,138240,Note_on_c,0,36,100,
2,153600,Note_off_c,0,36,0,
2,153600,Note_on_c,0,36,100,
2,168960,Note_off_c,0,36,0,
2,168960,Note_on_c,0,36,100,
2,184320,Note_off_c,0,36,0,
2,184320,Note_on_c,0,36,100,
2,199680,Note_off_c,0,36,0,
2,199680,Note_on_c,0,36,100,
2,215040,Note_off_c,0,36,0,
2,215040,Note_on_c,0,36,100,
2,230400,Note_off_c,0,36,0,
2,230400,Note_on_c,0,36,100,
2,245760,Note_off_c,0,36,0,
2,245760,Note_on_c,0,36,100,
2,261120,Note_off_c,0,36,0,
2,261120,Note_on_c,0,36,100,
2,276480,Note_off_c,0,36,0,
2,276480,Note_on_c,0,36,100,
2,291840,Note_off_c,0,36,0,
2,291840,Note_on_c,0,36,100,
2,307200,Note_off_c,0,36,0,
2,307200,Note_on_c,0,36,100,
2,322560,Note_off_c,0,36,0,
2,322560,Note_on_c,0,36,100,
2,337920,Note_off_c,0,36,0,
2,337920,Note_on_c,0,36,100,
2,353280,Note_off_c,0,36,0,
2,353280,Note_on_c,0,36,100,
2,368640,Note_off_c,0,36,0,
2,368640,Note_on_c,0,36,100,
2,384000,Note_off_c,0,36,0,
2,384000,Note_on_c,0,36,100,
2,399360,Note_off_c,0,36,0,
2,399360,Note_on_c,0,36,100,
2,414720,Note_off_c,0,36,0,
2,414720,Note_on_c,0,36,100,
2,430080,Note_off_c,0,36,0,
2,430080,Note_on_c,0,36,100,
2,445440,Note_off_c,0,36,0,
2,445440,Note_on_c,0,36,100,
2,460800,Note_off_c,0,36,0,
2,460800,Note_on_c,0,36,100,
2,476160,Note_off_c,0,36,0,
2,476160,Note_on_c,0,36,100,
2,491520,Note_off_c,0,36,0,
2,491520,Note_on_c,0,36,100,
2,506880,Note_off_c,0,36,0,
2,506880,Note_on_c,0,36,100,
2,522240,Note_off_c,0,36,0,
2,522240,Note_on_c,0,36,100,
2,537600,Note_off_c,0,36,0,
2,537600,Note_on_c,0,36,100,
2,552960,Note_off_c,0,36,0,
2,552960,Note_on_c,0,36,100,
2,568320,Note_off_c,0,36,0,
2,568320,Note_on_c,0,36,100,
2,583680,Note_off_c,0,36,0,
2,583680,Note_on_c,0,36,100,
2,599040,Note_off_c,0,36,0,
2,599040,Note_on_c,0,36,100,
2,614400,Note_off_c,0,36,0,
2,614400,Note_on_c,0,36,100,
2,629760,Note_off_c,0,36,0,
2,629760,Note_on_c,0,36,100,
2,645120,Note_off_c,0,36,0,
2,645120,Note_on_c,0,36,100,
2,660480,Note_off_c,0,36,0,
2,660480,Note_on_c,0,36,100,
2,675840,Note_off_c,0,36,0,
2,675840,Note_on_c,0,36,100,
2,691200,Note_off_c,0,36,0,
2,691200,Note_on_c,0,36,100,
2,706560,Note_off_c,0,36,0,
2,706560,Note_on_c,0,36,100,
2,721920,Note_off_c,0,36,0,
2,721920,Note_on_c,0,36,100,
2,737280,Note_off_c,0,36,0,
2,737280,Note_on_c,0,36,100,
2,752640,Note_off_c,0,36,0,
2,752640,Note_on_c,0,36,100,
2,768000,Note_off_c,0,36,0,
2,768000,Note_on_c,0,36,100,
2,783360,Note_off_c,0,36,0,
2,783360,Note_on_c,0,36,100,
2,798720,Note_off_c,0,36,0,
2,798720,Note_on_c,0,36,100,
2,814080,Note_off_c,0,36,0,
2,814080,Note_on_c,0,36,100,
2,829440,Note_off_c,0,36,0,
2,829440,Note_on_c,0,36,100,
2,844800,Note_off_c,0,36,0,
2,844800,Note_on_c,0,36,100,
2,860160,Note_off_c,0,36,0,
2,860160,Note_on_c,0,36,100,
2,875520,Note_off_c,0,36,0,
2,875520,Note_on_c,0,36,100,
2,890880,Note_off_c,0,36,0,
2,890880,Note_on_c,0,36,100,
2,906240,Note_off_c,0,36,0,
2,906240,Note_on_c,0,36,100,
2,921600,Note_off_c,0,36,0,
2,921600,Note_on_c,0,36,100,
2,936960,Note_off_c,0,36,0,
2,936960,Note_on_c,0,36,100,
2,952320,Note_off_c,0,36,0,
2,952320,Note_on_c,0,36,100,
2,967680,Note_off_c,0,36,0,
2,967680,Note_on_c,0,36,100,
2,983040,Note_off_c,0,36,0,
2,983040,Note_on_c,0,36,100,
2,998400,Note_off_c,0,36,0,
2,998400,Note_on_c,0,36,100,
2,1013760,Note_off_c,0,36,0,
2,1013760,Note_on_c,0,36,100,
2,1029120,Note_off_c,0,36,0,
2,1029120,Note_on_c,0,36,100,
2,1044480,Note_off_c,0,36,0,
2,1044480,Note_on_c,0,36,100,
2,1059840,Note_off_c,0,36,0,
2,1059840,Note_on_c,0,36,100,
2,1075200,Note_off_c,0,36,0,
2,1075200,Note_on_c,0,36,100,
2,1090560,Note_off_c,0,36,0,
2,1090560,Note_on_c,0,36,100,
2,1105920,Note_off_c,0,36,0,
2,1105920,Note_on_c,0,36,100,
2,1121280,Note_off_c,0,36,0,
2,1121280,Note_on_c,0,36,100,
2,1136640,Note_off_c,0,36,0,
2,1136640,Note_on_c,0,36,100,
2,1152000,Note_off_c,0,36,0,
2,1152000,Note_on_c,0,36,100,
2,1167360,Note_off_c,0,36,0,
2,1167360,Note_on_c,0,36,100,
2,1182720,Note_off_c,0,36,0,
2,1182720,Note_on_c,0,36,100,
2,1198080,Note_off_c,0,36,0,
2,1198080,Note_on_c,0,36,100,
2,1213440,Note_off_c,0,36,0,
2,1213440,Note_on_c,0,36,100,
2,1228800,Note_off_c,0,36,0,
2,1228800,Note_on_c,0,36,100,
2,1244160,Note_off_c,0,36,0,
2,1244160,Note_on_c,0,36,100,
2,1259520,Note_off_c,0,36,0,
2,1259520,Note_on_c,0,36,100,
2,1274880,Note_off_c,0,36,0,
2,1274880,Note_on_c,0,36,100,
2,1290240,Note_off_c,0,36,0,
2,1290240,Note_on_c,0,36,100,
2,1305600,Note_off_c,0,36,0,
2,1305600,Note_on_c,0,36,100,
2,1320960,Note_off_c,0,36,0,
2,1320960,Note_on_c,0,36,100,
2,1336320,Note_off_c,0,36,0,
2,1336320,Note_on_c,0,36,100,
2,1351680,Note_off_c,0,36,0,
2,1351680,Note_on_c,0,36,100,
2,1367040,Note_off_c,0,36,0,
2,1367040,Note_on_c,0,36,100,
2,1382400,Note_off_c,0,36,0,
2,1382400,Note_on_c,0,36,100,
2,1397760,Note_off_c,0,36,0,
2,1397760,Note_on_c,0,36,100,
2,1413120,Note_off_c,0,36,0,
2,1413120,Note_on_c,0,36,100,
2,1428480,Note_off_c,0,36,0,
2,1428480,Note_on_c,0,36,100,
2,1443840,Note_off_c,0,36,0,
2,1443840,Note_on_c,0,36,100,
2,1459200,Note_off_c,0,36,0,
2,1459200,Note_on_c,0,36,100,
2,1474560,Note_off_c,0,36,0,
2,1474560,Note_on_c,0,36,100,
2,1489920,Note_off_c,0,36,0,
2,1489920,Note_on_c,0,36,100,
2,1505280,Note_off_c,0,36,0,
2,1505280,Note_on_c,0,36,100,
2,1520640,Note_off_c,0,36,0,
2,1520640,Note_on_c,0,36,100,
2,1536000,Note_off_c,0,36,0,
2,1536000,Note_on_c,0,36,100,
2,1551360,Note_off_c,0,36,0,
2,1551360,Note_on_c,0,36,100,
2,1566720,Note_off_c,0,36,0,
2,1566720,Note_on_c,0,36,100,
2,1582080,Note_off_c,0,36,0,
2,1582080,Note_on_c,0,36,100,
2,1597440,Note_off_c,0,36,0,
2,1597440,Note_on_c,0,36,100,
2,1612800,Note_off_c,0,36,0,
2,1612800,Note_on_c,0,36,100,
2,1628160,Note_off_c,0,36,0,
2,1628160,Note_on_c,0,36,100,
2,1643520,Note_off_c,0,36,0,
2,1643520,Note_on_c,0,36,100,
2,1658880,Note_off_c,0,36,0,
2,1658880,Note_on_c,0,36,100,
2,1674240,Note_off_c,0,36,0,
2,1735680,Note_on_c,0,36,100,
2,1743360,Note_on_c,0,37,100,
2,1747200,Note_off_c,0,37,0,
2,1751040,Note_off_c,0,36,0,
2,1751040,Note_on_c,0,36,100,
2,1751040,Note_on_c,0,42,100,
2,1766400,Note_off_c,0,36,0,
2,1766400,Note_off_c,0,42,0,
2,1766400,Note_on_c,0,36,100,
2,1774080,Note_on_c,0,37,100,
2,1777920,Note_off_c,0,37,0,
2,1781760,Note_off_c,0,36,0,
2,1781760,Note_on_c,0,36,100,
2,1781760,Note_on_c,0,42,100,
2,1797120,Note_off_c,0,36,0,
2,1797120,Note_off_c,0,42,0,
2,1797120,Note_on_c,0,36,100,
2,1804800,Note_on_c,0,37,100,
2,1808640,Note_off_c,0,37,0,
2,1812480,Note_off_c,0,36,0,
2,1812480,Note_on_c,0,36,100,
2,1812480,Note_on_c,0,42,100,
2,1827840,Note_off_c,0,36,0,
2,1827840,Note_off_c,0,42,0,
2,1827840,Note_on_c,0,36,100,
2,1835520,Note_on_c,0,37,100,
2,1839360,Note_off_c,0,37,0,
2,1843200,Note_off_c,0,36,0,
2,1843200,Note_on_c,0,36,100,
2,1843200,Note_on_c,0,42,100,
2,1858560,Note_off_c,0,36,0,
2,1858560,Note_off_c,0,42,0,
2,1858560,Note_on_c,0,36,100,
2,1866240,Note_on_c,0,37,100,
2,1870080,Note_off_c,0,37,0,
2,1873920,Note_off_c,0,36,0,
2,1873920,Note_on_c,0,36,100,
2,1873920,Note_on_c,0,42,100,
2,1889280,Note_off_c,0,36,0,
2,1889280,Note_off_c,0,42,0,
2,1889280,Note_on_c,0,36,100,
2,1896960,Note_on_c,0,37,100,
2,1900800,Note_off_c,0,37,0,
2,1904640,Note_off_c,0,36,0,
2,1904640,Note_on_c,0,36,100,
2,1904640,Note_on_c,0,42,100,
2,1920000,Note_off_c,0,36,0,
2,1920000,Note_off_c,0,42,0,
2,1920000,Note_on_c,0,36,100,
2,1927680,Note_on_c,0,37,100,
2,1931520,Note_off_c,0,37,0,
2,1935360,Note_off_c,0,36,0,
2,1935360,Note_on_c,0,36,100,
2,1935360,Note_on_c,0,42,100,
2,1950720,Note_off_c,0,36,0,
2,1950720,Note_off_c,0,42,0,
2,1950720,Note_on_c,0,36,100,
2,1958400,Note_on_c,0,37,100,
2,1962240,Note_off_c,0,37,0,
2,1966080,Note_off_c,0,36,0,
2,1966080,Note_on_c,0,36,100,
2,1966080,Note_on_c,0,42,100,
2,1981440,Note_off_c,0,36,0,
2,1981440,Note_off_c,0,42,0,
2,1981440,Note_on_c,0,36,100,
2,1989120,Note_on_c,0,37,100,
2,1992960,Note_off_c,0,37,0,
2,1996800,Note_off_c,0,36,0,
2,1996800,Note_on_c,0,36,100,
2,1996800,Note_on_c,0,42,100,
2,2012160,Note_off_c,0,36,0,
2,2012160,Note_off_c,0,42,0,
2,2012160,Note_on_c,0,36,100,
2,2019840,Note_on_c,0,37,100,
2,2023680,Note_off_c,0,37,0,
2,2027520,Note_off_c,0,36,0,
2,2027520,Note_on_c,0,36,100,
2,2027520,Note_on_c,0,42,100,
2,2042880,Note_off_c,0,36,0,
2,2042880,Note_off_c,0,42,0,
2,2042880,Note_on_c,0,36,100,
2,2050560,Note_on_c,0,37,100,
2,2054400,Note_off_c,0,37,0,
2,2058240,Note_off_c,0,36,0,
2,2058240,Note_on_c,0,36,100,
2,2058240,Note_on_c,0,42,100,
2,2073600,Note_off_c,0,36,0,
2,2073600,Note_off_c,0,42,0,
2,2073600,Note_on_c,0,36,100,
2,2081280,Note_on_c,0,37,100,
2,2085120,Note_off_c,0,37,0,
2,2088960,Note_off_c,0,36,0,
2,2088960,Note_on_c,0,36,100,
2,2088960,Note_on_c,0,42,100,
2,2104320,Note_off_c,0,36,0,
2,2104320,Note_off_c,0,42,0,
2,2104320,Note_on_c,0,36,100,
2,2112000,Note_on_c,0,37,100,
2,2115840,Note_off_c,0,37,0,
2,2119680,Note_off_c,0,36,0,
2,2119680,Note_on_c,0,36,100,
2,2119680,Note_on_c,0,42,100,
2,2135040,Note_off_c,0,36,0,
2,2135040,Note_off_c,0,42,0,
2,2135040,Note_on_c,0,36,100,
2,2142720,Note_on_c,0,37,100,
2,2146560,Note_off_c,0,37,0,
2,2150400,Note_off_c,0,36,0,
2,2150400,Note_on_c,0,36,100,
2,2150400,Note_on_c,0,42,100,
2,2165760,Note_off_c,0,36,0,
2,2165760,Note_off_c,0,42,0,
2,2165760,Note_on_c,0,36,100,
2,2173440,Note_on_c,0,37,100,
2,2177280,Note_off_c,0,37,0,
2,2181120,Note_off_c,0,36,0,
2,2181120,Note_on_c,0,36,100,
2,2181120,Note_on_c,0,42,100,
2,2196480,Note_off_c,0,36,0,
2,2196480,Note_off_c,0,42,0,
2,2196480,Note_on_c,0,36,100,
2,2204160,Note_on_c,0,37,100,
2,2208000,Note_off_c,0,37,0,
2,2211840,Note_off_c,0,36,0,
2,2211840,Note_on_c,0,36,100,
2,2211840,Note_on_c,0,42,100,
2,2227200,Note_off_c,0,36,0,
2,2227200,Note_off_c,0,42,0,
2,2227200,Note_on_c,0,36,100,
2,2234880,Note_on_c,0,37,100,
2,2238720,Note_off_c,0,37,0,
2,2242560,Note_off_c,0,36,0,
2,2242560,Note_on_c,0,36,100,
2,2242560,Note_on_c,0,42,100,
2,2257920,Note_off_c,0,36,0,
2,2257920,Note_off_c,0,42,0,
2,2257920,Note_on_c,0,36,100,
2,2265600,Note_on_c,0,37,100,
2,2269440,Note_off_c,0,37,0,
2,2273280,Note_off_c,0,36,0,
2,2273280,Note_on_c,0,36,100,
2,2273280,Note_on_c,0,42,100,
2,2288640,Note_off_c,0,36,0,
2,2288640,Note_off_c,0,42,0,
2,2288640,Note_on_c,0,36,100,
2,2296320,Note_on_c,0,37,100,
2,2300160,Note_off_c,0,37,0,
2,2304000,Note_off_c,0,36,0,
2,2304000,Note_on_c,0,36,100,
2,2304000,Note_on_c,0,42,100,
2,2319360,Note_off_c,0,36,0,
2,2319360,Note_off_c,0,42,0,
2,2319360,Note_on_c,0,36,100,
2,2327040,Note_on_c,0,37,100,
2,2330880,Note_off_c,0,37,0,
2,2334720,Note_off_c,0,36,0,
2,2334720,Note_on_c,0,36,100,
2,2334720,Note_on_c,0,42,100,
2,2350080,Note_off_c,0,36,0,
2,2350080,Note_off_c,0,42,0,
2,2350080,Note_on_c,0,36,100,
2,2357760,Note_on_c,0,37,100,
2,2361600,Note_off_c,0,37,0,
2,2365440,Note_off_c,0,36,0,
2,2365440,Note_on_c,0,36,100,
2,2365440,Note_on_c,0,42,100,
2,2380800,Note_off_c,0,36,0,
2,2380800,Note_off_c,0,42,0,
2,2380800,Note_on_c,0,36,100,
2,2388480,Note_on_c,0,37,100,
2,2392320,Note_off_c,0,37,0,
2,2396160,Note_off_c,0,36,0,
2,2396160,Note_on_c,0,36,100,
2,2396160,Note_on_c,0,42,100,
2,2411520,Note_off_c,0,36,0,
2,2411520,Note_off_c,0,42,0,
2,2411520,Note_on_c,0,36,100,
2,2419200,Note_on_c,0,37,100,
2,2423040,Note_off_c,0,37,0,
2,2426880,Note_off_c,0,36,0,
2,2426880,Note_on_c,0,36,100,
2,2426880,Note_on_c,0,42,100,
2,2442240,Note_off_c,0,36,0,
2,2442240,Note_off_c,0,42,0,
2,2442240,Note_on_c,0,36,100,
2,2449920,Note_on_c,0,37,100,
2,2453760,Note_off_c,0,37,0,
2,2457600,Note_off_c,0,36,0,
2,2457600,Note_on_c,0,36,100,
2,2457600,Note_on_c,0,42,100,
2,2472960,Note_off_c,0,36,0,
2,2472960,Note_off_c,0,42,0,
2,2472960,Note_on_c,0,36,100,
2,2480640,Note_on_c,0,37,100,
2,2484480,Note_off_c,0,37,0,
2,2488320,Note_off_c,0,36,0,
2,2488320,Note_on_c,0,36,100,
2,2488320,Note_on_c,0,42,100,
2,2503680,Note_off_c,0,36,0,
2,2503680,Note_off_c,0,42,0,
2,2503680,Note_on_c,0,36,100,
2,2511360,Note_on_c,0,37,100,
2,2515200,Note_off_c,0,37,0,
2,2519040,Note_off_c,0,36,0,
2,2519040,Note_on_c,0,36,100,
2,2519040,Note_on_c,0,42,100,
2,2534400,Note_off_c,0,36,0,
2,2534400,Note_off_c,0,42,0,
2,2534400,Note_on_c,0,36,100,
2,2542080,Note_on_c,0,37,100,
2,2545920,Note_off_c,0,37,0,
2,2549760,Note_off_c,0,36,0,
2,2549760,Note_on_c,0,36,100,
2,2549760,Note_on_c,0,42,100,
2,2565120,Note_off_c,0,36,0,
2,2565120,Note_off_c,0,42,0,
2,2565120,Note_on_c,0,36,100,
2,2580480,Note_off_c,0,36,0,
2,2580480,Note_on_c,0,36,100,
2,2580480,Note_on_c,0,42,100,
2,2595840,Note_off_c,0,36,0,
2,2595840,Note_off_c,0,42,0,
2,2595840,Note_on_c,0,36,100,
2,2611200,Note_off_c,0,36,0,
2,2611200,Note_on_c,0,36,100,
2,2611200,Note_on_c,0,42,100,
2,2626560,Note_off_c,0,36,0,
2,2626560,Note_off_c,0,42,0,
2,2626560,Note_on_c,0,36,100,
2,2641920,Note_off_c,0,36,0,
2,2641920,Note_on_c,0,36,100,
2,2641920,Note_on_c,0,42,100,
2,2657280,Note_off_c,0,36,0,
2,2657280,Note_off_c,0,42,0,
2,2718720,Note_on_c,0,36,100,
2,2734080,Note_off_c,0,36,0,
2,2734080,Note_on_c,0,36,100,
2,2749440,Note_off_c,0,36,0,
2,2749440,Note_on_c,0,36,100,
2,2764800,Note_off_c,0,36,0,
2,2764800,Note_on_c,0,36,100,
2,2780160,Note_off_c,0,36,0,
2,2780160,Note_on_c,0,36,100,
2,2795520,Note_off_c,0,36,0,
2,2795520,Note_on_c,0,36,100,
2,2795520,Note_on_c,0,42,100,
2,2810880,Note_off_c,0,36,0,
2,2810880,Note_off_c,0,42,0,
2,2810880,Note_on_c,0,36,100,
2,2826240,Note_off_c,0,36,0,
2,2826240,Note_on_c,0,36,100,
2,2826240,Note_on_c,0,42,100,
2,2841600,Note_off_c,0,36,0,
2,2841600,Note_off_c,0,42,0,
2,2841600,Note_on_c,0,36,100,
2,2856960,Note_off_c,0,36,0,
2,2856960,Note_on_c,0,36,100,
2,2856960,Note_on_c,0,42,100,
2,2872320,Note_off_c,0,36,0,
2,2872320,Note_off_c,0,42,0,
2,2872320,Note_on_c,0,36,100,
2,2887680,Note_off_c,0,36,0,
2,2887680,Note_on_c,0,36,100,
2,2887680,Note_on_c,0,42,100,
2,2903040,Note_off_c,0,36,0,
2,2903040,Note_off_c,0,42,0,
2,2903040,Note_on_c,0,36,100,
2,2918400,Note_off_c,0,36,0,
2,2918400,Note_on_c,0,36,100,
2,2918400,Note_on_c,0,42,100,
2,2933760,Note_off_c,0,36,0,
2,2933760,Note_off_c,0,42,0,
2,2933760,Note_on_c,0,36,100,
2,2949120,Note_off_c,0,36,0,
2,2949120,Note_on_c,0,36,100,
2,2949120,Note_on_c,0,42,100,
2,2964480,Note_off_c,0,36,0,
2,2964480,Note_off_c,0,42,0,
2,2964480,Note_on_c,0,36,100,
2,2979840,Note_off_c,0,36,0,
2,2979840,Note_on_c,0,36,100,
2,2979840,Note_on_c,0,42,100,
2,2995200,Note_off_c,0,36,0,
2,2995200,Note_off_c,0,42,0,
2,2995200,Note_on_c,0,36,100,
2,3010560,Note_off_c,0,36,0,
2,3010560,Note_on_c,0,36,100,
2,3010560,Note_on_c,0,42,100,
2,3025920,Note_off_c,0,36,0,
2,3025920,Note_off_c,0,42,0,
2,3025920,Note_on_c,0,36,100,
2,3041280,Note_off_c,0,36,0,
2,3041280,Note_on_c,0,36,100,
2,3041280,Note_on_c,0,42,100,
2,3056640,Note_off_c,0,36,0,
2,3056640,Note_off_c,0,42,0,
2,3056640,Note_on_c,0,36,100,
2,3072000,Note_off_c,0,36,0,
2,3072000,Note_on_c,0,36,100,
2,3072000,Note_on_c,0,42,100,
2,3087360,Note_off_c,0,36,0,
2,3087360,Note_off_c,0,42,0,
2,3087360,Note_on_c,0,36,100,
2,3102720,Note_off_c,0,36,0,
2,3102720,Note_on_c,0,36,100,
2,3102720,Note_on_c,0,42,100,
2,3118080,Note_off_c,0,36,0,
2,3118080,Note_off_c,0,42,0,
2,3118080,Note_on_c,0,36,100,
2,3133440,Note_off_c,0,36,0,
2,3133440,Note_on_c,0,36,100,
2,3133440,Note_on_c,0,42,100,
2,3148800,Note_off_c,0,36,0,
2,3148800,Note_off_c,0,42,0,
2,3148800,Note_on_c,0,36,100,
2,3164160,Note_off_c,0,36,0,
2,3164160,Note_on_c,0,36,100,
2,3164160,Note_on_c,0,42,100,
2,3179520,Note_off_c,0,36,0,
2,3179520,Note_off_c,0,42,0,
2,3179520,Note_on_c,0,36,100,
2,3194880,Note_off_c,0,36,0,
2,3194880,Note_on_c,0,36,100,
2,3194880,Note_on_c,0,42,100,
2,3210240,Note_off_c,0,36,0,
2,3210240,Note_off_c,0,42,0,
2,3210240,Note_on_c,0,36,100,
2,3210240,Note_on_c,0,41,100,
2,3217920,Note_off_c,0,41,0,
2,3217920,Note_on_c,0,41,100,
2,3225600,Note_off_c,0,36,0,
2,3225600,Note_off_c,0,41,0,
2,3225600,Note_on_c,0,36,100,
2,3225600,Note_on_c,0,41,100,
2,3225600,Note_on_c,0,42,100,
2,3233280,Note_off_c,0,41,0,
2,3233280,Note_on_c,0,41,100,
2,3240960,Note_off_c,0,36,0,
2,3240960,Note_off_c,0,42,0,
2,3240960,Note_off_c,0,41,0,
2,3240960,Note_on_c,0,36,100,
2,3240960,Note_on_c,0,41,100,
2,3248640,Note_off_c,0,41,0,
2,3248640,Note_on_c,0,41,100,
2,3256320,Note_off_c,0,36,0,
2,3256320,Note_off_c,0,41,0,
2,3256320,Note_on_c,0,36,100,
2,3256320,Note_on_c,0,41,100,
2,3256320,Note_on_c,0,42,100,
2,3264000,Note_off_c,0,41,0,
2,3264000,Note_on_c,0,41,100,
2,3271680,Note_off_c,0,36,0,
2,3271680,Note_off_c,0,42,0,
2,3271680,Note_off_c,0,41,0,
2,3271680,Note_on_c,0,36,100,
2,3271680,Note_on_c,0,41,100,
2,3279360,Note_off_c,0,41,0,
2,3279360,Note_on_c,0,41,100,
2,3287040,Note_off_c,0,36,0,
2,3287040,Note_off_c,0,41,0,
2,3287040,Note_on_c,0,36,100,
2,3287040,Note_on_c,0,41,100,
2,3287040,Note_on_c,0,42,100,
2,3294720,Note_off_c,0,41,0,
2,3294720,Note_on_c,0,41,100,
2,3302400,Note_off_c,0,36,0,
2,3302400,Note_off_c,0,42,0,
2,3302400,Note_off_c,0,41,0,
2,3302400,Note_on_c,0,36,100,
2,3302400,Note_on_c,0,41,100,
2,3310080,Note_off_c,0,41,0,
2,3310080,Note_on_c,0,41,100,
2,3317760,Note_off_c,0,36,0,
2,3317760,Note_off_c,0,41,0,
2,3317760,Note_on_c,0,36,100,
2,3317760,Note_on_c,0,41,100,
2,3317760,Note_on_c,0,42,100,
2,3325440,Note_off_c,0,41,0,
2,3325440,Note_on_c,0,41,100,
2,3333120,Note_off_c,0,36,0,
2,3333120,Note_off_c,0,42,0,
2,3333120,Note_off_c,0,41,0,
2,3333120,Note_on_c,0,36,100,
2,3333120,Note_on_c,0,41,100,
2,3340800,Note_off_c,0,41,0,
2,3340800,Note_on_c,0,41,100,
2,3348480,Note_off_c,0,36,0,
2,3348480,Note_off_c,0,41,0,
2,3348480,Note_on_c,0,36,100,
2,3348480,Note_on_c,0,41,100,
2,3348480,Note_on_c,0,42,100,
2,3356160,Note_off_c,0,41,0,
2,3356160,Note_on_c,0,41,100,
2,3363840,Note_off_c,0,36,0,
2,3363840,Note_off_c,0,42,0,
2,3363840,Note_off_c,0,41,0,
2,3363840,Note_on_c,0,36,100,
2,3363840,Note_on_c,0,41,100,
2,3371520,Note_off_c,0,41,0,
2,3371520,Note_on_c,0,41,100,
2,3379200,Note_off_c,0,36,0,
2,3379200,Note_off_c,0,41,0,
2,3379200,Note_on_c,0,36,100,
2,3379200,Note_on_c,0,41,100,
2,3379200,Note_on_c,0,42,100,
2,3386880,Note_off_c,0,41,0,
2,3386880,Note_on_c,0,41,100,
2,3394560,Note_off_c,0,36,0,
2,3394560,Note_off_c,0,42,0,
2,3394560,Note_off_c,0,41,0,
2,3394560,Note_on_c,0,36,100,
2,3394560,Note_on_c,0,41,100,
2,3402240,Note_off_c,0,41,0,
2,3402240,Note_on_c,0,41,100,
2,3409920,Note_off_c,0,36,0,
2,3409920,Note_off_c,0,41,0,
2,3409920,Note_on_c,0,36,100,
2,3409920,Note_on_c,0,41,100,
2,3409920,Note_on_c,0,42,100,
2,3417600,Note_off_c,0,41,0,
2,3417600,Note_on_c,0,41,100,
2,3425280,Note_off_c,0,36,0,
2,3425280,Note_off_c,0,42,0,
2,3425280,Note_off_c,0,41,0,
2,3425280,Note_on_c,0,36,100,
2,3425280,Note_on_c,0,41,100,
2,3432960,Note_off_c,0,41,0,
2,3432960,Note_on_c,0,41,100,
2,3440640,Note_off_c,0,36,0,
2,3440640,Note_off_c,0,41,0,
2,3440640,Note_on_c,0,36,100,
2,3440640,Note_on_c,0,41,100,
2,3440640,Note_on_c,0,42,100,
2,3448320,Note_off_c,0,41,0,
2,3448320,Note_on_c,0,41,100,
2,3456000,Note_off_c,0,36,0,
2,3456000,Note_off_c,0,42,0,
2,3456000,Note_off_c,0,41,0,
2,3456000,Note_on_c,0,36,100,
2,3456000,Note_on_c,0,41,100,
2,3463680,Note_off_c,0,41,0,
2,3463680,Note_on_c,0,41,100,
2,3471360,Note_off_c,0,36,0,
2,3471360,Note_off_c,0,41,0,
2,3471360,Note_on_c,0,36,100,
2,3471360,Note_on_c,0,41,100,
2,3471360,Note_on_c,0,42,100,
2,3479040,Note_off_c,0,41,0,
2,3479040,Note_on_c,0,41,100,
2,3486720,Note_off_c,0,36,0,
2,3486720,Note_off_c,0,42,0,
2,3486720,Note_off_c,0,41,0,
2,3486720,Note_on_c,0,36,100,
2,3486720,Note_on_c,0,41,100,
2,3494400,Note_off_c,0,41,0,
2,3494400,Note_on_c,0,41,100,
2,3502080,Note_off_c,0,36,0,
2,3502080,Note_off_c,0,41,0,
2,3502080,Note_on_c,0,36,100,
2,3502080,Note_on_c,0,41,100,
2,3502080,Note_on_c,0,42,100,
2,3509760,Note_off_c,0,41,0,
2,3509760,Note_on_c,0,41,100,
2,3517440,Note_off_c,0,36,0,
2,3517440,Note_off_c,0,42,0,
2,3517440,Note_off_c,0,41,0,
2,3517440,Note_on_c,0,36,100,
2,3517440,Note_on_c,0,41,100,
2,3525120,Note_off_c,0,41,0,
2,3525120,Note_on_c,0,41,100,
2,3532800,Note_off_c,0,36,0,
2,3532800,Note_off_c,0,41,0,
2,3532800,Note_on_c,0,36,100,
2,3532800,Note_on_c,0,41,100,
2,3540480,Note_off_c,0,41,0,
2,3540480,Note_on_c,0,41,100,
2,3548160,Note_off_c,0,36,0,
2,3548160,Note_off_c,0,41,0,
2,3548160,Note_on_c,0,36,100,
2,3548160,Note_on_c,0,41,100,
2,3555840,Note_off_c,0,41,0,
2,3555840,Note_on_c,0,41,100,
2,3563520,Note_off_c,0,36,0,
2,3563520,Note_off_c,0,41,0,
2,3563520,Note_on_c,0,36,100,
2,3563520,Note_on_c,0,41,100,
2,3571200,Note_off_c,0,41,0,
2,3571200,Note_on_c,0,41,100,
2,3578880,Note_off_c,0,36,0,
2,3578880,Note_off_c,0,41,0,
2,3578880,Note_on_c,0,36,100,
2,3578880,Note_on_c,0,41,100,
2,3586560,Note_off_c,0,41,0,
2,3586560,Note_on_c,0,41,100,
2,3594240,Note_off_c,0,36,0,
2,3594240,Note_off_c,0,41,0,
2,3594240,Note_on_c,0,36,100,
2,3594240,Note_on_c,0,41,100,
2,3601920,Note_off_c,0,41,0,
2,3601920,Note_on_c,0,41,100,
2,3609600,Note_off_c,0,36,0,
2,3609600,Note_off_c,0,41,0,
2,3609600,Note_on_c,0,36,100,
2,3609600,Note_on_c,0,41,100,
2,3617280,Note_off_c,0,41,0,
2,3617280,Note_on_c,0,41,100,
2,3624960,Note_off_c,0,36,0,
2,3624960,Note_off_c,0,41,0,
2,3624960,Note_on_c,0,36,100,
2,3624960,Note_on_c,0,41,100,
2,3632640,Note_off_c,0,41,0,
2,3632640,Note_on_c,0,41,100,
2,3640320,Note_off_c,0,36,0,
2,3640320,Note_off_c,0,41,0,
2,3640320,Note_on_c,0,36,100,
2,3640320,Note_on_c,0,41,100,
2,3648000,Note_off_c,0,41,0,
2,3648000,Note_on_c,0,41,100,
2,3655680,Note_off_c,0,36,0,
2,3655680,Note_off_c,0,41,0,
2,3655680,Note_on_c,0,36,100,
2,3655680,Note_on_c,0,41,100,
2,3663360,Note_off_c,0,41,0,
2,3663360,Note_on_c,0,41,100,
2,3671040,Note_off_c,0,36,0,
2,3671040,Note_off_c,0,41,0,
2,3671040,Note_on_c,0,36,100,
2,3671040,Note_on_c,0,41,100,
2,3678720,Note_off_c,0,41,0,
2,3678720,Note_on_c,0,41,100,
2,3686400,Note_off_c,0,36,0,
2,3686400,Note_off_c,0,41,0,
2,3686400,Note_on_c,0,36,100,
2,3686400,Note_on_c,0,41,100,
2,3694080,Note_off_c,0,41,0,
2,3694080,Note_on_c,0,41,100,
2,3701760,Note_off_c,0,36,0,
2,3701760,Note_off_c,0,41,0,
2,3701760,Note_on_c,0,36,100,
2,3701760,Note_on_c,0,41,100,
2,3709440,Note_off_c,0,41,0,
2,3709440,Note_on_c,0,41,100,
2,3717120,Note_off_c,0,36,0,
2,3717120,Note_off_c,0,41,0,
2,3717120,Note_on_c,0,36,100,
2,3717120,Note_on_c,0,41,100,
2,3724800,Note_off_c,0,41,0,
2,3724800,Note_on_c,0,41,100,
2,3732480,Note_off_c,0,36,0,
2,3732480,Note_off_c,0,41,0,
2,3732480,Note_on_c,0,36,100,
2,3732480,Note_on_c,0,41,100,
2,3740160,Note_off_c,0,41,0,
2,3740160,Note_on_c,0,41,100,
2,3747840,Note_off_c,0,36,0,
2,3747840,Note_off_c,0,41,0,
2,3747840,Note_on_c,0,36,100,
2,3747840,Note_on_c,0,41,100,
2,3755520,Note_off_c,0,41,0,
2,3755520,Note_on_c,0,41,100,
2,3763200,Note_off_c,0,36,0,
2,3763200,Note_off_c,0,41,0,
2,3763200,Note_on_c,0,36,100,
2,3763200,Note_on_c,0,37,100,
2,3767040,Note_off_c,0,36,0,
2,3767040,Note_off_c,0,37,0,
2,3778560,Note_on_c,0,36,100,
2,3778560,Note_on_c,0,37,100,
2,3782400,Note_off_c,0,36,0,
2,3782400,Note_off_c,0,37,0,
2,3793920,Note_on_c,0,36,100,
2,3793920,Note_on_c,0,37,100,
2,3797760,Note_off_c,0,36,0,
2,3797760,Note_off_c,0,37,0,
2,3809280,Note_on_c,0,36,100,
2,3809280,Note_on_c,0,37,100,
2,3813120,Note_off_c,0,36,0,
2,3813120,Note_off_c,0,37,0,
2,3824640,Note_on_c,0,36,100,
2,3824640,Note_on_c,0,37,100,
2,3828480,Note_off_c,0,36,0,
2,3828480,Note_off_c,0,37,0,
2,3840000,Note_on_c,0,36,100,
2,3840000,Note_on_c,0,37,100,
2,3843840,Note_off_c,0,36,0,
2,3843840,Note_off_c,0,37,0,
2,3855360,Note_on_c,0,36,100,
2,3855360,Note_on_c,0,37,100,
2,3859200,Note_off_c,0,36,0,
2,3859200,Note_off_c,0,37,0,
2,3870720,Note_on_c,0,36,100,
2,3870720,Note_on_c,0,37,100,
2,3874560,Note_off_c,0,36,0,
2,3874560,Note_off_c,0,37,0,
2,3886080,Note_on_c,0,36,100,
2,3886080,Note_on_c,0,37,100,
2,3889920,Note_off_c,0,36,0,
2,3889920,Note_off_c,0,37,0,
2,3901440,Note_on_c,0,36,100,
2,3901440,Note_on_c,0,37,100,
2,3905280,Note_off_c,0,36,0,
2,3905280,Note_off_c,0,37,0,
2,3916800,Note_on_c,0,36,100,
2,3916800,Note_on_c,0,37,100,
2,3920640,Note_off_c,0,36,0,
2,3920640,Note_off_c,0,37,0,
2,3932160,Note_on_c,0,36,100,
2,3932160,Note_on_c,0,37,100,
2,3936000,Note_off_c,0,36,0,
2,3936000,Note_off_c,0,37,0,
2,3947520,Note_on_c,0,36,100,
2,3947520,Note_on_c,0,37,100,
2,3951360,Note_off_c,0,36,0,
2,3951360,Note_off_c,0,37,0,
2,3962880,Note_on_c,0,36,100,
2,3962880,Note_on_c,0,37,100,
2,3966720,Note_off_c,0,36,0,
2,3966720,Note_off_c,0,37,0,
2,3978240,Note_on_c,0,36,100,
2,3978240,Note_on_c,0,37,100,
2,3982080,Note_off_c,0,36,0,
2,3982080,Note_off_c,0,37,0,
2,3993600,Note_on_c,0,36,100,
2,3993600,Note_on_c,0,37,100,
2,3997440,Note_off_c,0,36,0,
2,3997440,Note_off_c,0,37,0,
2,4008960,Note_on_c,0,36,100,
2,4008960,Note_on_c,0,37,100,
2,4012800,Note_off_c,0,36,0,
2,4012800,Note_off_c,0,37,0,
2,4024320,Note_on_c,0,36,100,
2,4024320,Note_on_c,0,37,100,
2,4028160,Note_off_c,0,36,0,
2,4028160,Note_off_c,0,37,0,
2,4039680,Note_on_c,0,36,100,
2,4039680,Note_on_c,0,37,100,
2,4043520,Note_off_c,0,36,0,
2,4043520,Note_off_c,0,37,0,
2,4055040,Note_on_c,0,36,100,
2,4055040,Note_on_c,0,37,100,
2,4058880,Note_off_c,0,36,0,
2,4058880,Note_off_c,0,37,0,
2,4070400,Note_on_c,0,36,100,
2,4070400,Note_on_c,0,37,100,
2,4074240,Note_off_c,0,36,0,
2,4074240,Note_off_c,0,37,0,
2,4085760,Note_on_c,0,36,100,
2,4085760,Note_on_c,0,37,100,
2,4089600,Note_off_c,0,36,0,
2,4089600,Note_off_c,0,37,0,
2,4101120,Note_on_c,0,36,100,
2,4101120,Note_on_c,0,37,100,
2,4104960,Note_off_c,0,36,0,
2,4104960,Note_off_c,0,37,0,
2,4116480,Note_on_c,0,36,100,
2,4116480,Note_on_c,0,37,100,
2,4120320,Note_off_c,0,36,0,
2,4120320,Note_off_c,0,37,0,
2,4131840,Note_on_c,0,36,100,
2,4131840,Note_on_c,0,37,100,
2,4135680,Note_off_c,0,36,0,
2,4135680,Note_off_c,0,37,0,
2,4147200,Note_on_c,0,36,100,
2,4147200,Note_on_c,0,37,100,
2,4151040,Note_off_c,0,36,0,
2,4151040,Note_off_c,0,37,0,
2,4162560,Note_on_c,0,36,100,
2,4162560,Note_on_c,0,37,100,
2,4166400,Note_off_c,0,36,0,
2,4166400,Note_off_c,0,37,0,
2,4177920,Note_on_c,0,36,100,
2,4177920,Note_on_c,0,37,100,
2,4181760,Note_off_c,0,36,0,
2,4181760,Note_off_c,0,37,0,
2,4193280,Note_on_c,0,36,100,
2,4193280,Note_on_c,0,37,100,
2,4197120,Note_off_c,0,36,0,
2,4197120,Note_off_c,0,37,0,
2,4208640,Note_on_c,0,36,100,
2,4208640,Note_on_c,0,37,100,
2,4212480,Note_off_c,0,36,0,
2,4212480,Note_off_c,0,37,0,
2,4224000,Note_on_c,0,36,100,
2,4224000,Note_on_c,0,37,100,
2,4227840,Note_off_c,0,36,0,
2,4227840,Note_off_c,0,37,0,
2,4239360,Note_on_c,0,36,100,
2,4239360,Note_on_c,0,37,100,
2,4243200,Note_off_c,0,36,0,
2,4243200,Note_off_c,0,37,0,
2,4254720,Note_on_c,0,36,100,
2,4254720,Note_on_c,0,37,100,
2,4258560,Note_off_c,0,36,0,
2,4258560,Note_off_c,0,37,0,
2,4270080,Note_on_c,0,36,100,
2,4270080,Note_on_c,0,37,100,
2,4273920,Note_off_c,0,36,0,
2,4273920,Note_off_c,0,37,0,
2,4285440,Note_on_c,0,36,100,
2,4285440,Note_on_c,0,37,100,
2,4289280,Note_off_c,0,36,0,
2,4289280,Note_off_c,0,37,0,
2,4300800,Note_on_c,0,36,100,
2,4300800,Note_on_c,0,37,100,
2,4304640,Note_off_c,0,36,0,
2,4304640,Note_off_c,0,37,0,
2,4316160,Note_on_c,0,36,100,
2,4316160,Note_on_c,0,37,100,
2,4320000,Note_off_c,0,36,0,
2,4320000,Note_off_c,0,37,0,
2,4331520,Note_on_c,0,36,100,
2,4331520,Note_on_c,0,37,100,
2,4335360,Note_off_c,0,36,0,
2,4335360,Note_off_c,0,37,0,
2,4346880,Note_on_c,0,36,100,
2,4346880,Note_on_c,0,37,100,
2,4350720,Note_off_c,0,36,0,
2,4350720,Note_off_c,0,37,0,
2,4362240,Note_on_c,0,36,100,
2,4362240,Note_on_c,0,37,100,
2,4366080,Note_off_c,0,36,0,
2,4366080,Note_off_c,0,37,0,
2,4377600,Note_on_c,0,36,100,
2,4377600,Note_on_c,0,37,100,
2,4381440,Note_off_c,0,36,0,
2,4381440,Note_off_c,0,37,0,
2,4392960,Note_on_c,0,36,100,
2,4392960,Note_on_c,0,37,100,
2,4396800,Note_off_c,0,36,0,
2,4396800,Note_off_c,0,37,0,
2,4408320,Note_on_c,0,36,100,
2,4408320,Note_on_c,0,37,100,
2,4412160,Note_off_c,0,36,0,
2,4412160,Note_off_c,0,37,0,
2,4423680,Note_on_c,0,36,100,
2,4423680,Note_on_c,0,37,100,
2,4427520,Note_off_c,0,36,0,
2,4427520,Note_off_c,0,37,0,
2,4439040,Note_on_c,0,36,100,
2,4439040,Note_on_c,0,37,100,
2,4442880,Note_off_c,0,36,0,
2,4442880,Note_off_c,0,37,0,
2,4454400,Note_on_c,0,36,100,
2,4454400,Note_on_c,0,37,100,
2,4458240,Note_off_c,0,36,0,
2,4458240,Note_off_c,0,37,0,
2,4469760,Note_on_c,0,36,100,
2,4469760,Note_on_c,0,37,100,
2,4473600,Note_off_c,0,36,0,
2,4473600,Note_off_c,0,37,0,
2,4485120,Note_on_c,0,36,100,
2,4485120,Note_on_c,0,37,100,
2,4488960,Note_off_c,0,36,0,
2,4488960,Note_off_c,0,37,0,
2,4500480,Note_on_c,0,36,100,
2,4500480,Note_on_c,0,37,100,
2,4504320,Note_off_c,0,36,0,
2,4504320,Note_off_c,0,37,0,
2,4515840,Note_on_c,0,36,100,
2,4515840,Note_on_c,0,37,100,
2,4519680,Note_off_c,0,36,0,
2,4519680,Note_off_c,0,37,0,
2,4531200,Note_on_c,0,36,100,
2,4531200,Note_on_c,0,37,100,
2,4535040,Note_off_c,0,36,0,
2,4535040,Note_off_c,0,37,0,
2,4546560,Note_on_c,0,36,100,
2,4546560,Note_on_c,0,37,100,
2,4550400,Note_off_c,0,36,0,
2,4550400,Note_off_c,0,37,0,
2,4561920,Note_on_c,0,36,100,
2,4561920,Note_on_c,0,37,100,
2,4565760,Note_off_c,0,36,0,
2,4565760,Note_off_c,0,37,0,
2,4577280,Note_on_c,0,36,100,
2,4577280,Note_on_c,0,37,100,
2,4581120,Note_off_c,0,36,0,
2,4581120,Note_off_c,0,37,0,
2,4592640,Note_on_c,0,36,100,
2,4592640,Note_on_c,0,37,100,
2,4596480,Note_off_c,0,36,0,
2,4596480,Note_off_c,0,37,0,
2,4608000,Note_on_c,0,36,100,
2,4608000,Note_on_c,0,37,100,
2,4611840,Note_off_c,0,36,0,
2,4611840,Note_off_c,0,37,0,
2,4623360,Note_on_c,0,36,100,
2,4623360,Note_on_c,0,37,100,
2,4627200,Note_off_c,0,36,0,
2,4627200,Note_off_c,0,37,0,
2,4638720,Note_on_c,0,36,100,
2,4638720,Note_on_c,0,37,100,
2,4642560,Note_off_c,0,36,0,
2,4642560,Note_off_c,0,37,0,
2,4654080,Note_on_c,0,36,100,
2,4654080,Note_on_c,0,37,100,
2,4657920,Note_off_c,0,36,0,
2,4657920,Note_off_c,0,37,0,
2,4669440,Note_on_c,0,36,100,
2,4669440,Note_on_c,0,37,100,
2,4673280,Note_off_c,0,36,0,
2,4673280,Note_off_c,0,37,0,
2,4684800,Note_on_c,0,36,100,
2,4684800,Note_on_c,0,37,100,
2,4688640,Note_off_c,0,36,0,
2,4688640,Note_off_c,0,37,0,
2,4700160,Note_on_c,0,36,100,
2,4700160,Note_on_c,0,37,100,
2,4704000,Note_off_c,0,36,0,
2,4704000,Note_off_c,0,37,0,
2,4715520,Note_on_c,0,36,100,
2,4715520,Note_on_c,0,37,100,
2,4719360,Note_off_c,0,36,0,
2,4719360,Note_off_c,0,37,0,
2,4730880,Note_on_c,0,36,100,
2,4730880,Note_on_c,0,37,100,
2,4734720,Note_off_c,0,36,0,
2,4734720,Note_off_c,0,37,0,
2,4746240,Note_on_c,0,36,100,
2,4746240,Note_on_c,0,37,100,
2,4750080,Note_off_c,0,36,0,
2,4750080,Note_off_c,0,37,0,
2,4761600,Note_on_c,0,36,100,
2,4761600,Note_on_c,0,37,100,
2,4765440,Note_off_c,0,36,0,
2,4765440,Note_off_c,0,37,0,
2,4776960,Note_on_c,0,36,100,
2,4776960,Note_on_c,0,37,100,
2,4780800,Note_off_c,0,36,0,
2,4780800,Note_off_c,0,37,0,
2,4792320,Note_on_c,0,36,100,
2,4792320,Note_on_c,0,37,100,
2,4796160,Note_off_c,0,36,0,
2,4796160,Note_off_c,0,37,0,
2,4807680,Note_on_c,0,36,100,
2,4807680,Note_on_c,0,37,100,
2,4811520,Note_off_c,0,36,0,
2,4811520,Note_off_c,0,37,0,
2,4823040,Note_on_c,0,36,100,
2,4823040,Note_on_c,0,37,100,
2,4826880,Note_off_c,0,36,0,
2,4826880,Note_off_c,0,37,0,
2,4838400,Note_on_c,0,36,100,
2,4838400,Note_on_c,0,37,100,
2,4842240,Note_off_c,0,36,0,
2,4842240,Note_off_c,0,37,0,
2,4853760,Note_on_c,0,36,100,
2,4853760,Note_on_c,0,37,100,
2,4857600,Note_off_c,0,36,0,
2,4857600,Note_off_c,0,37,0,
2,4869120,Note_on_c,0,36,100,
2,4869120,Note_on_c,0,37,100,
2,4872960,Note_off_c,0,36,0,
2,4872960,Note_off_c,0,37,0,
2,4884480,Note_on_c,0,36,100,
2,4884480,Note_on_c,0,37,100,
2,4888320,Note_off_c,0,36,0,
2,4888320,Note_off_c,0,37,0,
2,4899840,Note_on_c,0,36,100,
2,4899840,Note_on_c,0,37,100,
2,4903680,Note_off_c,0,36,0,
2,4903680,Note_off_c,0,37,0,
2,4915200,Note_on_c,0,36,100,
2,4915200,Note_on_c,0,37,100,
2,4919040,Note_off_c,0,36,0,
2,4919040,Note_off_c,0,37,0,
2,4930560,Note_on_c,0,36,100,
2,4930560,Note_on_c,0,37,100,
2,4934400,Note_off_c,0,36,0,
2,4934400,Note_off_c,0,37,0,
2,4945920,Note_on_c,0,36,100,
2,4945920,Note_on_c,0,37,100,
2,4949760,Note_off_c,0,36,0,
2,4949760,Note_off_c,0,37,0,
2,4961280,Note_on_c,0,36,100,
2,4961280,Note_on_c,0,37,100,
2,4965120,Note_off_c,0,36,0,
2,4965120,Note_off_c,0,37,0,
2,4976640,Note_on_c,0,36,100,
2,4976640,Note_on_c,0,37,100,
2,4980480,Note_off_c,0,36,0,
2,4980480,Note_off_c,0,37,0,
2,4992000,Note_on_c,0,36,100,
2,4992000,Note_on_c,0,37,100,
2,4995840,Note_off_c,0,36,0,
2,4995840,Note_off_c,0,37,0,
2,5007360,Note_on_c,0,36,100,
2,5007360,Note_on_c,0,37,100,
2,5011200,Note_off_c,0,36,0,
2,5011200,Note_off_c,0,37,0,
2,5022720,Note_on_c,0,36,100,
2,5022720,Note_on_c,0,37,100,
2,5026560,Note_off_c,0,36,0,
2,5026560,Note_off_c,0,37,0,
2,5038080,Note_on_c,0,36,100,
2,5038080,Note_on_c,0,37,100,
2,5041920,Note_off_c,0,36,0,
2,5041920,Note_off_c,0,37,0,
2,5053440,Note_on_c,0,36,100,
2,5053440,Note_on_c,0,37,100,
2,5057280,Note_off_c,0,36,0,
2,5057280,Note_off_c,0,37,0,
2,5068800,Note_on_c,0,36,100,
2,5068800,Note_on_c,0,37,100,
2,5072640,Note_off_c,0,36,0,
2,5072640,Note_off_c,0,37,0,
2,5084160,Note_on_c,0,36,100,
2,5084160,Note_on_c,0,37,100,
2,5088000,Note_off_c,0,36,0,
2,5088000,Note_off_c,0,37,0,
2,5099520,Note_on_c,0,36,100,
2,5099520,Note_on_c,0,37,100,
2,5103360,Note_off_c,0,36,0,
2,5103360,Note_off_c,0,37,0,
2,5114880,Note_on_c,0,36,100,
2,5114880,Note_on_c,0,37,100,
2,5118720,Note_off_c,0,36,0,
2,5118720,Note_off_c,0,37,0,
2,5130240,Note_on_c,0,36,100,
2,5130240,Note_on_c,0,37,100,
2,5134080,Note_off_c,0,36,0,
2,5134080,Note_off_c,0,37,0,
2,5145600,Note_on_c,0,36,100,
2,5145600,Note_on_c,0,37,100,
2,5149440,Note_off_c,0,36,0,
2,5149440,Note_off_c,0,37,0,
2,5160960,Note_on_c,0,36,100,
2,5160960,Note_on_c,0,37,100,
2,5164800,Note_off_c,0,36,0,
2,5164800,Note_off_c,0,37,0,
2,5176320,Note_on_c,0,36,100,
2,5176320,Note_on_c,0,37,100,
2,5180160,Note_off_c,0,36,0,
2,5180160,Note_off_c,0,37,0,
2,5191680,Note_on_c,0,36,100,
2,5191680,Note_on_c,0,37,100,
2,5195520,Note_off_c,0,36,0,
2,5195520,Note_off_c,0,37,0,
2,5207040,Note_on_c,0,36,100,
2,5207040,Note_on_c,0,37,100,
2,5210880,Note_off_c,0,36,0,
2,5210880,Note_off_c,0,37,0,
2,5222400,Note_on_c,0,36,100,
2,5222400,Note_on_c,0,37,100,
2,5226240,Note_off_c,0,36,0,
2,5226240,Note_off_c,0,37,0,
2,5237760,Note_on_c,0,36,100,
2,5237760,Note_on_c,0,37,100,
2,5241600,Note_off_c,0,36,0,
2,5241600,Note_off_c,0,37,0,
2,5253120,Note_on_c,0,36,100,
2,5253120,Note_on_c,0,37,100,
2,5256960,Note_off_c,0,36,0,
2,5256960,Note_off_c,0,37,0,
2,5268480,Note_on_c,0,36,100,
2,5268480,Note_on_c,0,37,100,
2,5272320,Note_off_c,0,36,0,
2,5272320,Note_off_c,0,37,0,
2,5283840,Note_on_c,0,36,100,
2,5283840,Note_on_c,0,37,100,
2,5287680,Note_off_c,0,36,0,
2,5287680,Note_off_c,0,37,0,
2,5299200,Note_on_c,0,36,100,
2,5299200,Note_on_c,0,37,100,
2,5303040,Note_off_c,0,36,0,
2,5303040,Note_off_c,0,37,0,
2,5314560,Note_on_c,0,36,100,
2,5314560,Note_on_c,0,37,100,
2,5318400,Note_off_c,0,36,0,
2,5318400,Note_off_c,0,37,0,
2,5329920,Note_on_c,0,36,100,
2,5329920,Note_on_c,0,37,100,
2,5333760,Note_off_c,0,36,0,
2,5333760,Note_off_c,0,37,0,
2,5345280,Note_on_c,0,36,100,
2,5345280,Note_on_c,0,37,100,
2,5349120,Note_off_c,0,36,0,
2,5349120,Note_off_c,0,37,0,
2,5360640,Note_on_c,0,36,100,
2,5360640,Note_on_c,0,37,100,
2,5364480,Note_off_c,0,36,0,
2,5364480,Note_off_c,0,37,0,
2,5376000,Note_on_c,0,36,100,
2,5376000,Note_on_c,0,37,100,
2,5379840,Note_off_c,0,36,0,
2,5379840,Note_off_c,0,37,0,
2,5391360,Note_on_c,0,36,100,
2,5391360,Note_on_c,0,37,100,
2,5395200,Note_off_c,0,36,0,
2,5395200,Note_off_c,0,37,0,
2,5406720,Note_on_c,0,36,100,
2,5406720,Note_on_c,0,37,100,
2,5410560,Note_off_c,0,36,0,
2,5410560,Note_off_c,0,37,0,
2,5422080,Note_on_c,0,36,100,
2,5422080,Note_on_c,0,37,100,
2,5425920,Note_off_c,0,36,0,
2,5425920,Note_off_c,0,37,0,
2,5437440,Note_on_c,0,36,100,
2,5437440,Note_on_c,0,37,100,
2,5441280,Note_off_c,0,36,0,
2,5441280,Note_off_c,0,37,0,
2,5452800,Note_on_c,0,36,100,
2,5452800,Note_on_c,0,37,100,
2,5456640,Note_off_c,0,36,0,
2,5456640,Note_off_c,0,37,0,
2,5468160,Note_on_c,0,36,100,
2,5468160,Note_on_c,0,37,100,
2,5472000,Note_off_c,0,36,0,
2,5472000,Note_off_c,0,37,0,
2,5483520,Note_on_c,0,36,100,
2,5483520,Note_on_c,0,37,100,
2,5487360,Note_off_c,0,36,0,
2,5487360,Note_off_c,0,37,0,
2,5498880,Note_on_c,0,36,100,
2,5498880,Note_on_c,0,37,100,
2,5502720,Note_off_c,0,36,0,
2,5502720,Note_off_c,0,37,0,
2,5514240,Note_on_c,0,36,100,
2,5514240,Note_on_c,0,37,100,
2,5518080,Note_off_c,0,36,0,
2,5518080,Note_off_c,0,37,0,
2,5529600,Note_on_c,0,36,100,
2,5529600,Note_on_c,0,37,100,
2,5533440,Note_off_c,0,36,0,
2,5533440,Note_off_c,0,37,0,
2,5544960,Note_on_c,0,36,100,
2,5544960,Note_on_c,0,37,100,
2,5548800,Note_off_c,0,36,0,
2,5548800,Note_off_c,0,37,0,
2,5560320,Note_on_c,0,36,100,
2,5560320,Note_on_c,0,37,100,
2,5564160,Note_off_c,0,36,0,
2,5564160,Note_off_c,0,37,0,
2,5575680,Note_on_c,0,36,100,
2,5575680,Note_on_c,0,37,100,
2,5579520,Note_off_c,0,36,0,
2,5579520,Note_off_c,0,37,0,
2,5591040,Note_on_c,0,36,100,
2,5591040,Note_on_c,0,37,100,
2,5594880,Note_off_c,0,36,0,
2,5594880,Note_off_c,0,37,0,
2,5606400,Note_on_c,0,36,100,
2,5606400,Note_on_c,0,37,100,
2,5610240,Note_off_c,0,36,0,
2,5610240,Note_off_c,0,37,0,
2,5621760,Note_on_c,0,36,100,
2,5621760,Note_on_c,0,37,100,
2,5625600,Note_off_c,0,36,0,
2,5625600,Note_off_c,0,37,0,
2,5637120,Note_on_c,0,36,100,
2,5637120,Note_on_c,0,37,100,
2,5640960,Note_off_c,0,36,0,
2,5640960,Note_off_c,0,37,0,
2,5652480,Note_on_c,0,36,100,
2,5652480,Note_on_c,0,37,100,
2,5656320,Note_off_c,0,36,0,
2,5656320,Note_off_c,0,37,0,
2,5667840,Note_on_c,0,36,100,
2,5667840,Note_on_c,0,37,100,
2,5671680,Note_off_c,0,36,0,
2,5671680,Note_off_c,0,37,0,
2,5683200,Note_on_c,0,36,100,
2,5683200,Note_on_c,0,37,100,
2,5687040,Note_off_c,0,36,0,
2,5687040,Note_off_c,0,37,0,
2,5698560,Note_on_c,0,36,100,
2,5698560,Note_on_c,0,37,100,
2,5702400,Note_off_c,0,36,0,
2,5702400,Note_off_c,0,37,0,
2,5713920,Note_on_c,0,36,100,
2,5713920,Note_on_c,0,37,100,
2,5717760,Note_off_c,0,36,0,
2,5717760,Note_off_c,0,37,0,
2,5729280,Note_on_c,0,36,100,
2,5729280,Note_on_c,0,37,100,
2,5733120,Note_off_c,0,36,0,
2,5733120,Note_off_c,0,37,0,
2,5744640,Note_on_c,0,36,100,
2,5744640,Note_on_c,0,37,100,
2,5748480,Note_off_c,0,36,0,
2,5748480,Note_off_c,0,37,0,
2,5760000,Note_on_c,0,36,100,
2,5760000,Note_on_c,0,37,100,
2,5763840,Note_off_c,0,36,0,
2,5763840,Note_off_c,0,37,0,
2,5775360,Note_on_c,0,36,100,
2,5775360,Note_on_c,0,37,100,
2,5779200,Note_off_c,0,36,0,
2,5779200,Note_off_c,0,37,0,
2,5790720,Note_on_c,0,36,100,
2,5790720,Note_on_c,0,37,100,
2,5794560,Note_off_c,0,36,0,
2,5794560,Note_off_c,0,37,0,
2,5806080,Note_on_c,0,36,100,
2,5806080,Note_on_c,0,37,100,
2,5809920,Note_off_c,0,36,0,
2,5809920,Note_off_c,0,37,0,
2,5821440,Note_on_c,0,36,100,
2,5821440,Note_on_c,0,37,100,
2,5825280,Note_off_c,0,36,0,
2,5825280,Note_off_c,0,37,0,
2,5836800,Note_on_c,0,36,100,
2,5836800,Note_on_c,0,37,100,
2,5840640,Note_off_c,0,36,0,
2,5840640,Note_off_c,0,37,0,
2,5852160,Note_on_c,0,36,100,
2,5852160,Note_on_c,0,37,100,
2,5856000,Note_off_c,0,36,0,
2,5856000,Note_off_c,0,37,0,
2,5867520,Note_on_c,0,36,100,
2,5867520,Note_on_c,0,37,100,
2,5871360,Note_off_c,0,36,0,
2,5871360,Note_off_c,0,37,0,
2,5882880,Note_on_c,0,36,100,
2,5882880,Note_on_c,0,37,100,
2,5886720,Note_off_c,0,36,0,
2,5886720,Note_off_c,0,37,0,
2,5898240,Note_on_c,0,36,100,
2,5898240,Note_on_c,0,37,100,
2,5902080,Note_off_c,0,36,0,
2,5902080,Note_off_c,0,37,0,
2,5913600,Note_on_c,0,36,100,
2,5913600,Note_on_c,0,37,100,
2,5917440,Note_off_c,0,36,0,
2,5917440,Note_off_c,0,37,0,
2,5928960,Note_on_c,0,36,100,
2,5928960,Note_on_c,0,37,100,
2,5932800,Note_off_c,0,36,0,
2,5932800,Note_off_c,0,37,0,
2,5944320,Note_on_c,0,36,100,
2,5944320,Note_on_c,0,37,100,
2,5948160,Note_off_c,0,36,0,
2,5948160,Note_off_c,0,37,0,
2,5959680,Note_on_c,0,36,100,
2,5959680,Note_on_c,0,37,100,
2,5963520,Note_off_c,0,36,0,
2,5963520,Note_off_c,0,37,0,
2,5975040,Note_on_c,0,36,100,
2,5975040,Note_on_c,0,37,100,
2,5978880,Note_off_c,0,36,0,
2,5978880,Note_off_c,0,37,0,
2,5990400,Note_on_c,0,36,100,
2,5990400,Note_on_c,0,37,100,
2,5994240,Note_off_c,0,36,0,
2,5994240,Note_off_c,0,37,0,
2,6005760,Note_on_c,0,36,100,
2,6005760,Note_on_c,0,37,100,
2,6009600,Note_off_c,0,36,0,
2,6009600,Note_off_c,0,37,0,
2,6021120,Note_on_c,0,36,100,
2,6021120,Note_on_c,0,37,100,
2,6024960,Note_off_c,0,36,0,
2,6024960,Note_off_c,0,37,0,
2,6036480,Note_on_c,0,36,100,
2,6036480,Note_on_c,0,37,100,
2,6040320,Note_off_c,0,36,0,
2,6040320,Note_off_c,0,37,0,
2,6051840,Note_on_c,0,36,100,
2,6051840,Note_on_c,0,37,100,
2,6055680,Note_off_c,0,36,0,
2,6055680,Note_off_c,0,37,0,
2,6067200,Note_on_c,0,36,100,
2,6067200,Note_on_c,0,37,100,
2,6071040,Note_off_c,0,36,0,
2,6071040,Note_off_c,0,37,0,
2,6082560,Note_on_c,0,36,100,
2,6082560,Note_on_c,0,37,100,
2,6086400,Note_off_c,0,36,0,
2,6086400,Note_off_c,0,37,0,
2,6097920,Note_on_c,0,36,100,
2,6097920,Note_on_c,0,37,100,
2,6101760,Note_off_c,0,36,0,
2,6101760,Note_off_c,0,37,0,
2,6113280,Note_on_c,0,36,100,
2,6113280,Note_on_c,0,37,100,
2,6117120,Note_off_c,0,36,0,
2,6117120,Note_off_c,0,37,0,
2,6128640,Note_on_c,0,36,100,
2,6128640,Note_on_c,0,37,100,
2,6132480,Note_off_c,0,36,0,
2,6132480,Note_off_c,0,37,0,
2,6144000,Note_on_c,0,36,100,
2,6144000,Note_on_c,0,37,100,
2,6147840,Note_off_c,0,36,0,
2,6147840,Note_off_c,0,37,0,
2,6159360,Note_on_c,0,36,100,
2,6159360,Note_on_c,0,37,100,
2,6163200,Note_off_c,0,36,0,
2,6163200,Note_off_c,0,37,0,
2,6174720,Note_on_c,0,36,100,
2,6174720,Note_on_c,0,37,100,
2,6178560,Note_off_c,0,36,0,
2,6178560,Note_off_c,0,37,0,
2,6190080,Note_on_c,0,36,100,
2,6190080,Note_on_c,0,37,100,
2,6193920,Note_off_c,0,36,0,
2,6193920,Note_off_c,0,37,0,
2,6205440,Note_on_c,0,36,100,
2,6205440,Note_on_c,0,37,100,
2,6209280,Note_off_c,0,36,0,
2,6209280,Note_off_c,0,37,0,
2,6451200,End_track,,,,
3,0,Start_track,,,,
3,0,Title_t," Bass Guitar",,,
3,0,Instrument_name_t," Bass Guitar",,,
3,0,MIDI_port,2,,,
3,0,Control_c,0,71,0,
3,0,Control_c,0,74,51,
3,0,Pitch_bend_c,0,8192,,
3,15360,Control_c,0,74,51,
3,15360,Pitch_bend_c,0,8192,,
3,76349,Control_c,0,74,51,
3,76800,Note_on_c,0,52,26,
3,76800,Note_on_c,0,64,44,
3,84480,Note_on_c,0,66,18,
3,86506,Note_off_c,0,64,0,
3,92027,Control_c,0,74,51,
3,92160,Note_on_c,0,68,38,
3,92507,Control_c,0,74,51,
3,92987,Control_c,0,74,51,
3,93124,Note_off_c,0,66,0,
3,93467,Control_c,0,74,51,
3,93947,Control_c,0,74,51,
3,94427,Control_c,0,74,51,
3,94907,Control_c,0,74,51,
3,95387,Control_c,0,74,51,
3,95867,Control_c,0,74,51,
3,96347,Control_c,0,74,51,
3,96827,Control_c,0,74,51,
3,97307,Control_c,0,74,51,
3,97787,Control_c,0,74,51,
3,98267,Control_c,0,74,51,
3,98747,Control_c,0,74,51,
3,99227,Control_c,0,74,51,
3,99707,Control_c,0,74,51,
3,99840,Note_off_c,0,68,0,
3,99840,Note_on_c,0,71,41,
3,100187,Control_c,0,74,51,
3,100667,Control_c,0,74,51,
3,101147,Control_c,0,74,51,
3,101627,Control_c,0,74,51,
3,102107,Control_c,0,74,51,
3,102587,Control_c,0,74,51,
3,103067,Control_c,0,74,51,
3,103547,Control_c,0,74,51,
3,104027,Control_c,0,74,51,
3,104507,Control_c,0,74,51,
3,104987,Control_c,0,74,51,
3,105467,Control_c,0,74,51,
3,105947,Control_c,0,74,51,
3,106427,Control_c,0,74,51,
3,106907,Control_c,0,74,51,
3,107387,Control_c,0,74,51,
3,107520,Note_off_c,0,71,0,
3,107520,Note_on_c,0,64,50,
3,107867,Control_c,0,74,51,
3,108347,Control_c,0,74,51,
3,108827,Control_c,0,74,51,
3,109307,Control_c,0,74,51,
3,109787,Control_c,0,74,51,
3,110267,Control_c,0,74,51,
3,110747,Control_c,0,74,51,
3,111227,Control_c,0,74,51,
3,111707,Control_c,0,74,51,
3,112187,Control_c,0,74,51,
3,112667,Control_c,0,74,51,
3,113147,Control_c,0,74,51,
3,113627,Control_c,0,74,51,
3,114107,Control_c,0,74,51,
3,114587,Control_c,0,74,51,
3,115067,Control_c,0,74,51,
3,115200,Note_off_c,0,64,0,
3,115200,Note_on_c,0,66,40,
3,115547,Control_c,0,74,51,
3,116027,Control_c,0,74,51,
3,116507,Control_c,0,74,51,
3,116987,Control_c,0,74,51,
3,117467,Control_c,0,74,51,
3,117947,Control_c,0,74,51,
3,118427,Control_c,0,74,51,
3,118551,Control_c,0,74,52,
3,119031,Control_c,0,74,52,
3,119511,Control_c,0,74,52,
3,119991,Control_c,0,74,52,
3,120471,Control_c,0,74,52,
3,120951,Control_c,0,74,52,
3,121431,Control_c,0,74,52,
3,121911,Control_c,0,74,52,
3,122391,Control_c,0,74,52,
3,122871,Control_c,0,74,52,
3,122880,Note_off_c,0,66,0,
3,122880,Note_on_c,0,68,34,
3,123351,Control_c,0,74,52,
3,123831,Control_c,0,74,52,
3,124311,Control_c,0,74,52,
3,124791,Control_c,0,74,52,
3,125271,Control_c,0,74,52,
3,125751,Control_c,0,74,52,
3,126231,Control_c,0,74,52,
3,126711,Control_c,0,74,52,
3,127191,Control_c,0,74,52,
3,127671,Control_c,0,74,52,
3,128151,Control_c,0,74,52,
3,128631,Control_c,0,74,52,
3,129111,Control_c,0,74,52,
3,129591,Control_c,0,74,52,
3,130071,Control_c,0,74,52,
3,130551,Control_c,0,74,52,
3,130560,Note_off_c,0,68,0,
3,130560,Note_on_c,0,71,32,
3,131031,Control_c,0,74,52,
3,131511,Control_c,0,74,52,
3,131991,Control_c,0,74,52,
3,132471,Control_c,0,74,52,
3,132951,Control_c,0,74,52,
3,133431,Control_c,0,74,52,
3,133911,Control_c,0,74,52,
3,134391,Control_c,0,74,52,
3,134871,Control_c,0,74,52,
3,135351,Control_c,0,74,52,
3,135831,Control_c,0,74,52,
3,136311,Control_c,0,74,52,
3,136791,Control_c,0,74,52,
3,137271,Control_c,0,74,52,
3,137751,Control_c,0,74,52,
3,138231,Control_c,0,74,52,
3,138240,Note_off_c,0,52,0,
3,138240,Note_off_c,0,71,0,
3,138240,Note_on_c,0,52,26,
3,138240,Note_on_c,0,64,50,
3,138711,Control_c,0,74,52,
3,139191,Control_c,0,74,52,
3,139671,Control_c,0,74,52,
3,140151,Control_c,0,74,52,
3,140631,Control_c,0,74,52,
3,141111,Control_c,0,74,52,
3,141591,Control_c,0,74,52,
3,142071,Control_c,0,74,52,
3,142551,Control_c,0,74,52,
3,143031,Control_c,0,74,52,
3,143511,Control_c,0,74,52,
3,143991,Control_c,0,74,52,
3,144471,Control_c,0,74,52,
3,144951,Control_c,0,74,52,
3,145431,Control_c,0,74,52,
3,145911,Control_c,0,74,52,
3,145920,Note_off_c,0,64,0,
3,145920,Note_on_c,0,66,55,
3,146391,Control_c,0,74,52,
3,146871,Control_c,0,74,52,
3,147351,Control_c,0,74,52,
3,147831,Control_c,0,74,52,
3,148311,Control_c,0,74,52,
3,148791,Control_c,0,74,52,
3,149271,Control_c,0,74,52,
3,149751,Control_c,0,74,52,
3,150231,Control_c,0,74,52,
3,150711,Control_c,0,74,52,
3,151191,Control_c,0,74,52,
3,151666,Control_c,0,74,53,
3,152146,Control_c,0,74,53,
3,152626,Control_c,0,74,53,
3,153106,Control_c,0,74,53,
3,153586,Control_c,0,74,53,
3,153600,Note_off_c,0,66,0,
3,153600,Note_on_c,0,68,15,
3,154066,Control_c,0,74,53,
3,154546,Control_c,0,74,53,
3,155026,Control_c,0,74,53,
3,155506,Control_c,0,74,53,
3,155986,Control_c,0,74,53,
3,156466,Control_c,0,74,53,
3,156946,Control_c,0,74,53,
3,157426,Control_c,0,74,53,
3,157906,Control_c,0,74,53,
3,158386,Control_c,0,74,53,
3,158866,Control_c,0,74,53,
3,159346,Control_c,0,74,53,
3,159826,Control_c,0,74,53,
3,160306,Control_c,0,74,53,
3,160786,Control_c,0,74,53,
3,161266,Control_c,0,74,53,
3,161280,Note_off_c,0,68,0,
3,161280,Note_on_c,0,71,43,
3,161746,Control_c,0,74,53,
3,162226,Control_c,0,74,53,
3,162706,Control_c,0,74,53,
3,163186,Control_c,0,74,53,
3,163666,Control_c,0,74,53,
3,164146,Control_c,0,74,53,
3,164626,Control_c,0,74,53,
3,165106,Control_c,0,74,53,
3,165586,Control_c,0,74,53,
3,166066,Control_c,0,74,53,
3,166546,Control_c,0,74,53,
3,167026,Control_c,0,74,53,
3,167506,Control_c,0,74,53,
3,167986,Control_c,0,74,53,
3,168466,Control_c,0,74,53,
3,168946,Control_c,0,74,53,
3,168960,Note_off_c,0,71,0,
3,168960,Note_on_c,0,64,52,
3,169426,Control_c,0,74,53,
3,169906,Control_c,0,74,53,
3,170386,Control_c,0,74,53,
3,170866,Control_c,0,74,54,
3,171346,Control_c,0,74,54,
3,171826,Control_c,0,74,54,
3,172306,Control_c,0,74,54,
3,172786,Control_c,0,74,54,
3,173266,Control_c,0,74,54,
3,173746,Control_c,0,74,54,
3,174226,Control_c,0,74,54,
3,174706,Control_c,0,74,54,
3,175186,Control_c,0,74,54,
3,175666,Control_c,0,74,54,
3,176146,Control_c,0,74,54,
3,176626,Control_c,0,74,54,
3,176640,Note_off_c,0,64,0,
3,176640,Note_on_c,0,66,56,
3,177106,Control_c,0,74,54,
3,177586,Control_c,0,74,54,
3,178066,Control_c,0,74,54,
3,178546,Control_c,0,74,54,
3,179026,Control_c,0,74,54,
3,179506,Control_c,0,74,54,
3,179986,Control_c,0,74,54,
3,180466,Control_c,0,74,54,
3,180946,Control_c,0,74,54,
3,181426,Control_c,0,74,54,
3,181906,Control_c,0,74,54,
3,182386,Control_c,0,74,54,
3,182866,Control_c,0,74,54,
3,183346,Control_c,0,74,54,
3,183826,Control_c,0,74,54,
3,184306,Control_c,0,74,54,
3,184320,Note_off_c,0,66,0,
3,184320,Note_on_c,0,68,16,
3,184786,Control_c,0,74,54,
3,185266,Control_c,0,74,54,
3,185746,Control_c,0,74,54,
3,186226,Control_c,0,74,54,
3,186706,Control_c,0,74,54,
3,187186,Control_c,0,74,54,
3,187666,Control_c,0,74,54,
3,188146,Control_c,0,74,54,
3,188626,Control_c,0,74,54,
3,189106,Control_c,0,74,54,
3,189586,Control_c,0,74,54,
3,189949,Control_c,0,74,55,
3,190429,Control_c,0,74,55,
3,190909,Control_c,0,74,55,
3,191389,Control_c,0,74,55,
3,191869,Control_c,0,74,55,
3,192000,Note_off_c,0,68,0,
3,192000,Note_on_c,0,73,54,
3,192349,Control_c,0,74,55,
3,192829,Control_c,0,74,55,
3,193309,Control_c,0,74,55,
3,193789,Control_c,0,74,55,
3,194269,Control_c,0,74,55,
3,194749,Control_c,0,74,55,
3,195229,Control_c,0,74,55,
3,195709,Control_c,0,74,55,
3,196189,Control_c,0,74,55,
3,196669,Control_c,0,74,55,
3,197149,Control_c,0,74,55,
3,197629,Control_c,0,74,55,
3,198109,Control_c,0,74,55,
3,198589,Control_c,0,74,55,
3,199069,Control_c,0,74,55,
3,199549,Control_c,0,74,55,
3,199680,Note_off_c,0,73,0,
3,199680,Note_on_c,0,64,47,
3,200029,Control_c,0,74,55,
3,200509,Control_c,0,74,55,
3,200989,Control_c,0,74,55,
3,201469,Control_c,0,74,55,
3,201949,Control_c,0,74,55,
3,202429,Control_c,0,74,55,
3,202909,Control_c,0,74,55,
3,203389,Control_c,0,74,55,
3,203869,Control_c,0,74,55,
3,204349,Control_c,0,74,56,
3,204829,Control_c,0,74,56,
3,205309,Control_c,0,74,56,
3,205789,Control_c,0,74,56,
3,206269,Control_c,0,74,56,
3,206749,Control_c,0,74,56,
3,207229,Control_c,0,74,56,
3,207360,Note_off_c,0,64,0,
3,207360,Note_on_c,0,66,48,
3,207709,Control_c,0,74,56,
3,208189,Control_c,0,74,56,
3,208669,Control_c,0,74,56,
3,209149,Control_c,0,74,56,
3,209629,Control_c,0,74,56,
3,210109,Control_c,0,74,56,
3,210589,Control_c,0,74,56,
3,211069,Control_c,0,74,56,
3,211549,Control_c,0,74,56,
3,212029,Control_c,0,74,56,
3,212509,Control_c,0,74,56,
3,212989,Control_c,0,74,56,
3,213469,Control_c,0,74,56,
3,213949,Control_c,0,74,56,
3,214429,Control_c,0,74,56,
3,214909,Control_c,0,74,56,
3,215040,Note_off_c,0,66,0,
3,215040,Note_on_c,0,68,30,
3,215389,Control_c,0,74,56,
3,215869,Control_c,0,74,56,
3,216349,Control_c,0,74,56,
3,216829,Control_c,0,74,56,
3,217309,Control_c,0,74,56,
3,217789,Control_c,0,74,56,
3,218269,Control_c,0,74,56,
3,218749,Control_c,0,74,57,
3,219229,Control_c,0,74,57,
3,219709,Control_c,0,74,57,
3,220189,Control_c,0,74,57,
3,220669,Control_c,0,74,57,
3,221149,Control_c,0,74,57,
3,221629,Control_c,0,74,57,
3,222109,Control_c,0,74,57,
3,222589,Control_c,0,74,57,
3,222720,Note_off_c,0,68,0,
3,222720,Note_on_c,0,71,38,
3,223069,Control_c,0,74,57,
3,223549,Control_c,0,74,57,
3,224029,Control_c,0,74,57,
3,224509,Control_c,0,74,57,
3,224989,Control_c,0,74,57,
3,225469,Control_c,0,74,57,
3,225949,Control_c,0,74,57,
3,226429,Control_c,0,74,57,
3,226909,Control_c,0,74,57,
3,227389,Control_c,0,74,57,
3,227869,Control_c,0,74,57,
3,228349,Control_c,0,74,57,
3,228829,Control_c,0,74,57,
3,229309,Control_c,0,74,57,
3,229789,Control_c,0,74,57,
3,230269,Control_c,0,74,57,
3,230400,Note_off_c,0,71,0,
3,230400,Note_on_c,0,64,58,
3,230749,Control_c,0,74,57,
3,231229,Control_c,0,74,57,
3,231709,Control_c,0,74,57,
3,232189,Control_c,0,74,57,
3,232599,Control_c,0,74,58,
3,233079,Control_c,0,74,58,
3,233559,Control_c,0,74,58,
3,234039,Control_c,0,74,58,
3,234519,Control_c,0,74,58,
3,234999,Control_c,0,74,58,
3,235479,Control_c,0,74,58,
3,235959,Control_c,0,74,58,
3,236439,Control_c,0,74,58,
3,236919,Control_c,0,74,58,
3,237399,Control_c,0,74,58,
3,237879,Control_c,0,74,58,
3,238080,Note_off_c,0,64,0,
3,238080,Note_on_c,0,66,62,
3,238359,Control_c,0,74,58,
3,238839,Control_c,0,74,58,
3,239319,Control_c,0,74,58,
3,239799,Control_c,0,74,58,
3,240279,Control_c,0,74,58,
3,240759,Control_c,0,74,58,
3,241239,Control_c,0,74,58,
3,241719,Control_c,0,74,58,
3,242199,Control_c,0,74,58,
3,242679,Control_c,0,74,58,
3,243159,Control_c,0,74,58,
3,243639,Control_c,0,74,58,
3,244119,Control_c,0,74,58,
3,244599,Control_c,0,74,59,
3,245079,Control_c,0,74,59,
3,245559,Control_c,0,74,59,
3,245760,Note_off_c,0,66,0,
3,245760,Note_on_c,0,68,43,
3,246039,Control_c,0,74,59,
3,246519,Control_c,0,74,59,
3,246999,Control_c,0,74,59,
3,247479,Control_c,0,74,59,
3,247959,Control_c,0,74,59,
3,248439,Control_c,0,74,59,
3,248919,Control_c,0,74,59,
3,249399,Control_c,0,74,59,
3,249879,Control_c,0,74,59,
3,250359,Control_c,0,74,59,
3,250839,Control_c,0,74,59,
3,251319,Control_c,0,74,59,
3,251799,Control_c,0,74,59,
3,252279,Control_c,0,74,59,
3,252759,Control_c,0,74,59,
3,253239,Control_c,0,74,59,
3,253440,Note_off_c,0,68,0,
3,253440,Note_on_c,0,71,36,
3,253719,Control_c,0,74,59,
3,254199,Control_c,0,74,59,
3,254679,Control_c,0,74,59,
3,255159,Control_c,0,74,59,
3,255639,Control_c,0,74,59,
3,256119,Control_c,0,74,60,
3,256599,Control_c,0,74,60,
3,257079,Control_c,0,74,60,
3,257559,Control_c,0,74,60,
3,258039,Control_c,0,74,60,
3,258519,Control_c,0,74,60,
3,258999,Control_c,0,74,60,
3,259479,Control_c,0,74,60,
3,259959,Control_c,0,74,60,
3,260439,Control_c,0,74,60,
3,260919,Control_c,0,74,60,
3,261120,Note_off_c,0,52,0,
3,261120,Note_off_c,0,71,0,
3,261120,Note_on_c,0,54,44,
3,261120,Note_on_c,0,66,45,
3,261399,Control_c,0,74,60,
3,261879,Control_c,0,74,60,
3,262359,Control_c,0,74,60,
3,262839,Control_c,0,74,60,
3,263319,Control_c,0,74,60,
3,263799,Control_c,0,74,60,
3,264279,Control_c,0,74,60,
3,264759,Control_c,0,74,60,
3,265239,Control_c,0,74,60,
3,265719,Control_c,0,74,60,
3,266199,Control_c,0,74,60,
3,266679,Control_c,0,74,60,
3,267159,Control_c,0,74,60,
3,267639,Control_c,0,74,61,
3,268119,Control_c,0,74,61,
3,268599,Control_c,0,74,61,
3,268800,Note_off_c,0,66,0,
3,268800,Note_on_c,0,68,48,
3,269079,Control_c,0,74,61,
3,269559,Control_c,0,74,61,
3,270039,Control_c,0,74,61,
3,270519,Control_c,0,74,61,
3,270999,Control_c,0,74,61,
3,271479,Control_c,0,74,61,
3,271959,Control_c,0,74,61,
3,272439,Control_c,0,74,61,
3,272919,Control_c,0,74,61,
3,273399,Control_c,0,74,61,
3,273879,Control_c,0,74,61,
3,274359,Control_c,0,74,61,
3,274839,Control_c,0,74,61,
3,275319,Control_c,0,74,61,
3,275799,Control_c,0,74,61,
3,276279,Control_c,0,74,61,
3,276480,Note_off_c,0,68,0,
3,276480,Note_on_c,0,69,36,
3,276759,Control_c,0,74,61,
3,277239,Control_c,0,74,61,
3,277719,Control_c,0,74,61,
3,278199,Control_c,0,74,61,
3,278679,Control_c,0,74,61,
3,279087,Control_c,0,74,62,
3,279567,Control_c,0,74,62,
3,280047,Control_c,0,74,62,
3,280527,Control_c,0,74,62,
3,281007,Control_c,0,74,62,
3,281487,Control_c,0,74,62,
3,281967,Control_c,0,74,62,
3,282447,Control_c,0,74,62,
3,282927,Control_c,0,74,62,
3,283407,Control_c,0,74,62,
3,283887,Control_c,0,74,62,
3,284160,Note_off_c,0,69,0,
3,284160,Note_on_c,0,71,45,
3,284367,Control_c,0,74,62,
3,284847,Control_c,0,74,62,
3,285327,Control_c,0,74,62,
3,285807,Control_c,0,74,62,
3,286287,Control_c,0,74,62,
3,286767,Control_c,0,74,62,
3,287247,Control_c,0,74,62,
3,287727,Control_c,0,74,62,
3,288207,Control_c,0,74,62,
3,288687,Control_c,0,74,62,
3,289167,Control_c,0,74,63,
3,289647,Control_c,0,74,63,
3,290127,Control_c,0,74,63,
3,290607,Control_c,0,74,63,
3,291087,Control_c,0,74,63,
3,291567,Control_c,0,74,63,
3,291840,Note_off_c,0,71,0,
3,291840,Note_on_c,0,66,65,
3,292047,Control_c,0,74,63,
3,292527,Control_c,0,74,63,
3,293007,Control_c,0,74,63,
3,293487,Control_c,0,74,63,
3,293967,Control_c,0,74,63,
3,294447,Control_c,0,74,63,
3,294927,Control_c,0,74,63,
3,295407,Control_c,0,74,63,
3,295887,Control_c,0,74,63,
3,296367,Control_c,0,74,63,
3,296847,Control_c,0,74,63,
3,297327,Control_c,0,74,63,
3,297807,Control_c,0,74,63,
3,298287,Control_c,0,74,63,
3,298767,Control_c,0,74,63,
3,299247,Control_c,0,74,64,
3,299520,Note_off_c,0,66,0,
3,299520,Note_on_c,0,68,34,
3,299727,Control_c,0,74,64,
3,300207,Control_c,0,74,64,
3,300687,Control_c,0,74,64,
3,301167,Control_c,0,74,64,
3,301647,Control_c,0,74,64,
3,302127,Control_c,0,74,64,
3,302607,Control_c,0,74,64,
3,303087,Control_c,0,74,64,
3,303567,Control_c,0,74,64,
3,304047,Control_c,0,74,64,
3,304527,Control_c,0,74,64,
3,305007,Control_c,0,74,64,
3,305487,Control_c,0,74,64,
3,305967,Control_c,0,74,64,
3,306447,Control_c,0,74,64,
3,306927,Control_c,0,74,64,
3,307200,Note_off_c,0,68,0,
3,307200,Note_on_c,0,69,46,
3,307407,Control_c,0,74,64,
3,307887,Control_c,0,74,64,
3,308367,Control_c,0,74,64,
3,308847,Control_c,0,74,64,
3,309327,Control_c,0,74,65,
3,309807,Control_c,0,74,65,
3,310287,Control_c,0,74,65,
3,310767,Control_c,0,74,65,
3,311247,Control_c,0,74,65,
3,311727,Control_c,0,74,65,
3,312207,Control_c,0,74,65,
3,312687,Control_c,0,74,65,
3,313167,Control_c,0,74,65,
3,313647,Control_c,0,74,65,
3,314127,Control_c,0,74,65,
3,314607,Control_c,0,74,65,
3,314880,Note_off_c,0,69,0,
3,314880,Note_on_c,0,71,56,
3,315087,Control_c,0,74,65,
3,315567,Control_c,0,74,65,
3,316047,Control_c,0,74,65,
3,316527,Control_c,0,74,65,
3,317007,Control_c,0,74,65,
3,317487,Control_c,0,74,65,
3,317967,Control_c,0,74,65,
3,318447,Control_c,0,74,65,
3,318927,Control_c,0,74,65,
3,319407,Control_c,0,74,66,
3,319887,Control_c,0,74,66,
3,320367,Control_c,0,74,66,
3,320847,Control_c,0,74,66,
3,321327,Control_c,0,74,66,
3,321807,Control_c,0,74,66,
3,322287,Control_c,0,74,66,
3,322560,Note_off_c,0,71,0,
3,322560,Note_on_c,0,66,56,
3,322767,Control_c,0,74,66,
3,323247,Control_c,0,74,66,
3,323727,Control_c,0,74,66,
3,324207,Control_c,0,74,66,
3,324687,Control_c,0,74,66,
3,325167,Control_c,0,74,66,
3,325647,Control_c,0,74,66,
3,326127,Control_c,0,74,66,
3,326607,Control_c,0,74,66,
3,327087,Control_c,0,74,66,
3,327567,Control_c,0,74,66,
3,328047,Control_c,0,74,66,
3,328527,Control_c,0,74,66,
3,329007,Control_c,0,74,66,
3,329031,Control_c,0,74,67,
3,329511,Control_c,0,74,67,
3,329991,Control_c,0,74,67,
3,330240,Note_off_c,0,66,0,
3,330240,Note_on_c,0,68,48,
3,330471,Control_c,0,74,67,
3,330951,Control_c,0,74,67,
3,331431,Control_c,0,74,67,
3,331911,Control_c,0,74,67,
3,332391,Control_c,0,74,67,
3,332871,Control_c,0,74,67,
3,333351,Control_c,0,74,67,
3,333831,Control_c,0,74,67,
3,334311,Control_c,0,74,67,
3,334791,Control_c,0,74,67,
3,335271,Control_c,0,74,67,
3,335751,Control_c,0,74,67,
3,336231,Control_c,0,74,67,
3,336711,Control_c,0,74,67,
3,337191,Control_c,0,74,67,
3,337671,Control_c,0,74,67,
3,337920,Note_off_c,0,68,0,
3,337920,Note_on_c,0,69,58,
3,338151,Control_c,0,74,68,
3,338631,Control_c,0,74,68,
3,339111,Control_c,0,74,68,
3,339591,Control_c,0,74,68,
3,340071,Control_c,0,74,68,
3,340551,Control_c,0,74,68,
3,341031,Control_c,0,74,68,
3,341511,Control_c,0,74,68,
3,341991,Control_c,0,74,68,
3,342471,Control_c,0,74,68,
3,342951,Control_c,0,74,68,
3,343431,Control_c,0,74,68,
3,343911,Control_c,0,74,68,
3,344391,Control_c,0,74,68,
3,344871,Control_c,0,74,68,
3,345351,Control_c,0,74,68,
3,345600,Note_off_c,0,69,0,
3,345600,Note_on_c,0,73,44,
3,345831,Control_c,0,74,68,
3,346311,Control_c,0,74,68,
3,346791,Control_c,0,74,69,
3,347271,Control_c,0,74,69,
3,347751,Control_c,0,74,69,
3,348231,Control_c,0,74,69,
3,348711,Control_c,0,74,69,
3,349191,Control_c,0,74,69,
3,349671,Control_c,0,74,69,
3,350151,Control_c,0,74,69,
3,350631,Control_c,0,74,69,
3,351111,Control_c,0,74,69,
3,351591,Control_c,0,74,69,
3,352071,Control_c,0,74,69,
3,352551,Control_c,0,74,69,
3,353031,Control_c,0,74,69,
3,353280,Note_off_c,0,73,0,
3,353280,Note_on_c,0,66,58,
3,353511,Control_c,0,74,69,
3,353991,Control_c,0,74,69,
3,354471,Control_c,0,74,69,
3,354951,Control_c,0,74,69,
3,355431,Control_c,0,74,69,
3,355911,Control_c,0,74,70,
3,356391,Control_c,0,74,70,
3,356871,Control_c,0,74,70,
3,357351,Control_c,0,74,70,
3,357831,Control_c,0,74,70,
3,358311,Control_c,0,74,70,
3,358791,Control_c,0,74,70,
3,359271,Control_c,0,74,70,
3,359751,Control_c,0,74,70,
3,360231,Control_c,0,74,70,
3,360711,Control_c,0,74,70,
3,360960,Note_off_c,0,66,0,
3,360960,Note_on_c,0,68,39,
3,361191,Control_c,0,74,70,
3,361671,Control_c,0,74,70,
3,362151,Control_c,0,74,70,
3,362631,Control_c,0,74,70,
3,363111,Control_c,0,74,70,
3,363591,Control_c,0,74,70,
3,364071,Control_c,0,74,70,
3,364551,Control_c,0,74,71,
3,365031,Control_c,0,74,71,
3,365511,Control_c,0,74,71,
3,365991,Control_c,0,74,71,
3,366471,Control_c,0,74,71,
3,366951,Control_c,0,74,71,
3,367431,Control_c,0,74,71,
3,367911,Control_c,0,74,71,
3,368391,Control_c,0,74,71,
3,368640,Note_off_c,0,68,0,
3,368640,Note_on_c,0,69,73,
3,368871,Control_c,0,74,71,
3,369351,Control_c,0,74,71,
3,369831,Control_c,0,74,71,
3,370311,Control_c,0,74,71,
3,370791,Control_c,0,74,71,
3,371271,Control_c,0,74,71,
3,371751,Control_c,0,74,71,
3,372231,Control_c,0,74,71,
3,372711,Control_c,0,74,71,
3,373191,Control_c,0,74,71,
3,373671,Control_c,0,74,72,
3,374151,Control_c,0,74,72,
3,374631,Control_c,0,74,72,
3,375111,Control_c,0,74,72,
3,375591,Control_c,0,74,72,
3,376071,Control_c,0,74,72,
3,376320,Note_off_c,0,69,0,
3,376320,Note_on_c,0,71,85,
3,376551,Control_c,0,74,72,
3,377031,Control_c,0,74,72,
3,377511,Control_c,0,74,72,
3,377991,Control_c,0,74,72,
3,378471,Control_c,0,74,72,
3,378951,Control_c,0,74,72,
3,379431,Control_c,0,74,72,
3,379911,Control_c,0,74,72,
3,380391,Control_c,0,74,72,
3,380871,Control_c,0,74,72,
3,381351,Control_c,0,74,72,
3,381831,Control_c,0,74,72,
3,382136,Control_c,0,74,73,
3,382616,Control_c,0,74,73,
3,383096,Control_c,0,74,73,
3,383576,Control_c,0,74,73,
3,384000,Note_off_c,0,54,0,
3,384000,Note_off_c,0,71,0,
3,384000,Note_on_c,0,56,59,
3,384000,Note_on_c,0,68,44,
3,384056,Control_c,0,74,73,
3,384536,Control_c,0,74,73,
3,385016,Control_c,0,74,73,
3,385496,Control_c,0,74,73,
3,385976,Control_c,0,74,73,
3,386456,Control_c,0,74,73,
3,386936,Control_c,0,74,73,
3,387416,Control_c,0,74,73,
3,387896,Control_c,0,74,73,
3,388376,Control_c,0,74,73,
3,388856,Control_c,0,74,73,
3,389336,Control_c,0,74,73,
3,389816,Control_c,0,74,73,
3,390296,Control_c,0,74,74,
3,390776,Control_c,0,74,74,
3,391256,Control_c,0,74,74,
3,391680,Note_off_c,0,68,0,
3,391680,Note_on_c,0,69,20,
3,391736,Control_c,0,74,74,
3,392216,Control_c,0,74,74,
3,392696,Control_c,0,74,74,
3,393176,Control_c,0,74,74,
3,393656,Control_c,0,74,74,
3,394136,Control_c,0,74,74,
3,394616,Control_c,0,74,74,
3,395096,Control_c,0,74,74,
3,395576,Control_c,0,74,74,
3,396056,Control_c,0,74,74,
3,396536,Control_c,0,74,74,
3,397016,Control_c,0,74,74,
3,397496,Control_c,0,74,74,
3,397976,Control_c,0,74,74,
3,398456,Control_c,0,74,75,
3,398936,Control_c,0,74,75,
3,399360,Note_off_c,0,69,0,
3,399360,Note_on_c,0,71,54,
3,399416,Control_c,0,74,75,
3,399896,Control_c,0,74,75,
3,400376,Control_c,0,74,75,
3,400856,Control_c,0,74,75,
3,401336,Control_c,0,74,75,
3,401816,Control_c,0,74,75,
3,402296,Control_c,0,74,75,
3,402776,Control_c,0,74,75,
3,403256,Control_c,0,74,75,
3,403736,Control_c,0,74,75,
3,404216,Control_c,0,74,75,
3,404696,Control_c,0,74,75,
3,405176,Control_c,0,74,75,
3,405656,Control_c,0,74,75,
3,406136,Control_c,0,74,75,
3,406616,Control_c,0,74,76,
3,407040,Note_off_c,0,71,0,
3,407040,Note_on_c,0,73,34,
3,407096,Control_c,0,74,76,
3,407576,Control_c,0,74,76,
3,408056,Control_c,0,74,76,
3,408536,Control_c,0,74,76,
3,409016,Control_c,0,74,76,
3,409496,Control_c,0,74,76,
3,409976,Control_c,0,74,76,
3,410456,Control_c,0,74,76,
3,410936,Control_c,0,74,76,
3,411416,Control_c,0,74,76,
3,411896,Control_c,0,74,76,
3,412376,Control_c,0,74,76,
3,412856,Control_c,0,74,76,
3,413336,Control_c,0,74,76,
3,413816,Control_c,0,74,76,
3,414296,Control_c,0,74,77,
3,414720,Note_off_c,0,73,0,
3,414720,Note_on_c,0,68,76,
3,414776,Control_c,0,74,77,
3,415256,Control_c,0,74,77,
3,415736,Control_c,0,74,77,
3,416216,Control_c,0,74,77,
3,416696,Control_c,0,74,77,
3,417176,Control_c,0,74,77,
3,417656,Control_c,0,74,77,
3,418136,Control_c,0,74,77,
3,418616,Control_c,0,74,77,
3,419096,Control_c,0,74,77,
3,419576,Control_c,0,74,77,
3,420056,Control_c,0,74,77,
3,420536,Control_c,0,74,77,
3,421016,Control_c,0,74,77,
3,421496,Control_c,0,74,77,
3,421976,Control_c,0,74,77,
3,422400,Note_off_c,0,68,0,
3,422400,Note_on_c,0,69,47,
3,422456,Control_c,0,74,78,
3,422936,Control_c,0,74,78,
3,423416,Control_c,0,74,78,
3,423896,Control_c,0,74,78,
3,424376,Control_c,0,74,78,
3,424856,Control_c,0,74,78,
3,425336,Control_c,0,74,78,
3,425816,Control_c,0,74,78,
3,426296,Control_c,0,74,78,
3,426776,Control_c,0,74,78,
3,427256,Control_c,0,74,78,
3,427736,Control_c,0,74,78,
3,428216,Control_c,0,74,78,
3,428696,Control_c,0,74,78,
3,429176,Control_c,0,74,78,
3,429656,Control_c,0,74,78,
3,430080,Note_off_c,0,69,0,
3,430080,Note_on_c,0,71,50,
3,430136,Control_c,0,74,78,
3,430616,Control_c,0,74,79,
3,431096,Control_c,0,74,79,
3,431576,Control_c,0,74,79,
3,432056,Control_c,0,74,79,
3,432536,Control_c,0,74,79,
3,433016,Control_c,0,74,79,
3,433496,Control_c,0,74,79,
3,433976,Control_c,0,74,79,
3,434456,Control_c,0,74,79,
3,434936,Control_c,0,74,79,
3,435416,Control_c,0,74,79,
3,435896,Control_c,0,74,79,
3,436376,Control_c,0,74,79,
3,436856,Control_c,0,74,79,
3,437336,Control_c,0,74,79,
3,437760,Note_off_c,0,71,0,
3,437760,Note_on_c,0,73,54,
3,437816,Control_c,0,74,79,
3,438171,Control_c,0,74,80,
3,438651,Control_c,0,74,80,
3,439131,Control_c,0,74,80,
3,439611,Control_c,0,74,80,
3,440091,Control_c,0,74,80,
3,440571,Control_c,0,74,80,
3,441051,Control_c,0,74,80,
3,441531,Control_c,0,74,80,
3,442011,Control_c,0,74,80,
3,442491,Control_c,0,74,80,
3,442971,Control_c,0,74,80,
3,443451,Control_c,0,74,80,
3,443931,Control_c,0,74,80,
3,444411,Control_c,0,74,80,
3,444891,Control_c,0,74,80,
3,445371,Control_c,0,74,80,
3,445440,Note_off_c,0,73,0,
3,445440,Note_on_c,0,68,85,
3,445851,Control_c,0,74,81,
3,446331,Control_c,0,74,81,
3,446811,Control_c,0,74,81,
3,447291,Control_c,0,74,81,
3,447771,Control_c,0,74,81,
3,448251,Control_c,0,74,81,
3,448731,Control_c,0,74,81,
3,449211,Control_c,0,74,81,
3,449691,Control_c,0,74,81,
3,450171,Control_c,0,74,81,
3,450651,Control_c,0,74,81,
3,451131,Control_c,0,74,81,
3,451611,Control_c,0,74,81,
3,452091,Control_c,0,74,81,
3,452571,Control_c,0,74,81,
3,453051,Control_c,0,74,82,
3,453120,Note_off_c,0,68,0,
3,453120,Note_on_c,0,69,50,
3,453531,Control_c,0,74,82,
3,454011,Control_c,0,74,82,
3,454491,Control_c,0,74,82,
3,454971,Control_c,0,74,82,
3,455451,Control_c,0,74,82,
3,455931,Control_c,0,74,82,
3,456411,Control_c,0,74,82,
3,456891,Control_c,0,74,82,
3,457371,Control_c,0,74,82,
3,457851,Control_c,0,74,82,
3,458331,Control_c,0,74,82,
3,458811,Control_c,0,74,82,
3,459291,Control_c,0,74,82,
3,459771,Control_c,0,74,82,
3,460251,Control_c,0,74,83,
3,460731,Control_c,0,74,83,
3,460800,Note_off_c,0,69,0,
3,460800,Note_on_c,0,71,45,
3,461211,Control_c,0,74,83,
3,461691,Control_c,0,74,83,
3,462171,Control_c,0,74,83,
3,462651,Control_c,0,74,83,
3,463131,Control_c,0,74,83,
3,463611,Control_c,0,74,83,
3,464091,Control_c,0,74,83,
3,464571,Control_c,0,74,83,
3,465051,Control_c,0,74,83,
3,465531,Control_c,0,74,83,
3,466011,Control_c,0,74,83,
3,466491,Control_c,0,74,83,
3,466971,Control_c,0,74,83,
3,467451,Control_c,0,74,83,
3,467931,Control_c,0,74,84,
3,468411,Control_c,0,74,84,
3,468480,Note_off_c,0,71,0,
3,468480,Note_on_c,0,75,61,
3,468891,Control_c,0,74,84,
3,469371,Control_c,0,74,84,
3,469851,Control_c,0,74,84,
3,470331,Control_c,0,74,84,
3,470811,Control_c,0,74,84,
3,471291,Control_c,0,74,84,
3,471771,Control_c,0,74,84,
3,472251,Control_c,0,74,84,
3,472731,Control_c,0,74,84,
3,473211,Control_c,0,74,84,
3,473691,Control_c,0,74,84,
3,474171,Control_c,0,74,84,
3,474651,Control_c,0,74,84,
3,475131,Control_c,0,74,85,
3,475611,Control_c,0,74,85,
3,476091,Control_c,0,74,85,
3,476160,Note_off_c,0,75,0,
3,476160,Note_on_c,0,68,48,
3,476571,Control_c,0,74,85,
3,477051,Control_c,0,74,85,
3,477531,Control_c,0,74,85,
3,478011,Control_c,0,74,85,
3,478491,Control_c,0,74,85,
3,478971,Control_c,0,74,85,
3,479451,Control_c,0,74,85,
3,479931,Control_c,0,74,85,
3,480411,Control_c,0,74,85,
3,480891,Control_c,0,74,85,
3,481371,Control_c,0,74,85,
3,481851,Control_c,0,74,85,
3,482331,Control_c,0,74,86,
3,482811,Control_c,0,74,86,
3,483291,Control_c,0,74,86,
3,483771,Control_c,0,74,86,
3,483840,Note_off_c,0,68,0,
3,483840,Note_on_c,0,69,44,
3,484251,Control_c,0,74,86,
3,484731,Control_c,0,74,86,
3,485211,Control_c,0,74,86,
3,485691,Control_c,0,74,86,
3,486171,Control_c,0,74,86,
3,486651,Control_c,0,74,86,
3,487131,Control_c,0,74,86,
3,487611,Control_c,0,74,86,
3,488091,Control_c,0,74,86,
3,488571,Control_c,0,74,86,
3,489051,Control_c,0,74,86,
3,489531,Control_c,0,74,86,
3,490011,Control_c,0,74,87,
3,490491,Control_c,0,74,87,
3,490971,Control_c,0,74,87,
3,491451,Control_c,0,74,87,
3,491520,Note_off_c,0,69,0,
3,491520,Note_on_c,0,71,58,
3,491931,Control_c,0,74,87,
3,492411,Control_c,0,74,87,
3,492891,Control_c,0,74,87,
3,493371,Control_c,0,74,87,
3,493851,Control_c,0,74,87,
3,494331,Control_c,0,74,87,
3,494811,Control_c,0,74,87,
3,495291,Control_c,0,74,87,
3,495771,Control_c,0,74,87,
3,496251,Control_c,0,74,87,
3,496731,Control_c,0,74,87,
3,496942,Control_c,0,74,88,
3,497422,Control_c,0,74,88,
3,497902,Control_c,0,74,88,
3,498382,Control_c,0,74,88,
3,498862,Control_c,0,74,88,
3,499200,Note_off_c,0,71,0,
3,499200,Note_on_c,0,73,69,
3,499342,Control_c,0,74,88,
3,499822,Control_c,0,74,88,
3,500302,Control_c,0,74,88,
3,500782,Control_c,0,74,88,
3,501262,Control_c,0,74,88,
3,501742,Control_c,0,74,88,
3,502222,Control_c,0,74,88,
3,502702,Control_c,0,74,88,
3,503182,Control_c,0,74,89,
3,503662,Control_c,0,74,89,
3,504142,Control_c,0,74,89,
3,504622,Control_c,0,74,89,
3,505102,Control_c,0,74,89,
3,505582,Control_c,0,74,89,
3,506062,Control_c,0,74,89,
3,506542,Control_c,0,74,89,
3,506880,Note_off_c,0,56,0,
3,506880,Note_off_c,0,73,0,
3,506880,Note_on_c,0,57,35,
3,506880,Note_on_c,0,69,61,
3,507022,Control_c,0,74,89,
3,507502,Control_c,0,74,89,
3,507982,Control_c,0,74,89,
3,508462,Control_c,0,74,89,
3,508942,Control_c,0,74,89,
3,509422,Control_c,0,74,90,
3,509902,Control_c,0,74,90,
3,510382,Control_c,0,74,90,
3,510862,Control_c,0,74,90,
3,511342,Control_c,0,74,90,
3,511822,Control_c,0,74,90,
3,512302,Control_c,0,74,90,
3,512782,Control_c,0,74,90,
3,513262,Control_c,0,74,90,
3,513742,Control_c,0,74,90,
3,514222,Control_c,0,74,90,
3,514560,Note_off_c,0,69,0,
3,514560,Note_on_c,0,71,38,
3,514702,Control_c,0,74,90,
3,515182,Control_c,0,74,90,
3,515662,Control_c,0,74,91,
3,516142,Control_c,0,74,91,
3,516622,Control_c,0,74,91,
3,517102,Control_c,0,74,91,
3,517582,Control_c,0,74,91,
3,518062,Control_c,0,74,91,
3,518542,Control_c,0,74,91,
3,519022,Control_c,0,74,91,
3,519502,Control_c,0,74,91,
3,519982,Control_c,0,74,91,
3,520462,Control_c,0,74,91,
3,520942,Control_c,0,74,91,
3,521422,Control_c,0,74,91,
3,521902,Control_c,0,74,92,
3,522240,Note_off_c,0,71,0,
3,522240,Note_on_c,0,73,47,
3,522382,Control_c,0,74,92,
3,522862,Control_c,0,74,92,
3,523342,Control_c,0,74,92,
3,523822,Control_c,0,74,92,
3,524302,Control_c,0,74,92,
3,524782,Control_c,0,74,92,
3,525262,Control_c,0,74,92,
3,525742,Control_c,0,74,92,
3,526222,Control_c,0,74,92,
3,526702,Control_c,0,74,92,
3,527182,Control_c,0,74,92,
3,527662,Control_c,0,74,93,
3,528142,Control_c,0,74,93,
3,528622,Control_c,0,74,93,
3,529102,Control_c,0,74,93,
3,529582,Control_c,0,74,93,
3,529920,Note_off_c,0,73,0,
3,529920,Note_on_c,0,76,49,
3,530062,Control_c,0,74,93,
3,530542,Control_c,0,74,93,
3,531022,Control_c,0,74,93,
3,531502,Control_c,0,74,93,
3,531982,Control_c,0,74,93,
3,532462,Control_c,0,74,93,
3,532942,Control_c,0,74,93,
3,533422,Control_c,0,74,93,
3,533902,Control_c,0,74,94,
3,534382,Control_c,0,74,94,
3,534862,Control_c,0,74,94,
3,535342,Control_c,0,74,94,
3,535822,Control_c,0,74,94,
3,536302,Control_c,0,74,94,
3,536782,Control_c,0,74,94,
3,537262,Control_c,0,74,94,
3,537600,Note_off_c,0,76,0,
3,537600,Note_on_c,0,69,60,
3,537742,Control_c,0,74,94,
3,538222,Control_c,0,74,94,
3,538702,Control_c,0,74,94,
3,539182,Control_c,0,74,94,
3,539662,Control_c,0,74,94,
3,540142,Control_c,0,74,95,
3,540622,Control_c,0,74,95,
3,541102,Control_c,0,74,95,
3,541582,Control_c,0,74,95,
3,542062,Control_c,0,74,95,
3,542542,Control_c,0,74,95,
3,543022,Control_c,0,74,95,
3,543502,Control_c,0,74,95,
3,543982,Control_c,0,74,95,
3,544462,Control_c,0,74,95,
3,544942,Control_c,0,74,95,
3,545280,Note_off_c,0,69,0,
3,545280,Note_on_c,0,71,36,
3,545422,Control_c,0,74,95,
3,545902,Control_c,0,74,95,
3,546382,Control_c,0,74,96,
3,546862,Control_c,0,74,96,
3,547342,Control_c,0,74,96,
3,547822,Control_c,0,74,96,
3,548302,Control_c,0,74,96,
3,548782,Control_c,0,74,96,
3,549262,Control_c,0,74,96,
3,549742,Control_c,0,74,96,
3,550222,Control_c,0,74,96,
3,550702,Control_c,0,74,96,
3,551182,Control_c,0,74,96,
3,551662,Control_c,0,74,96,
3,552142,Control_c,0,74,96,
3,552622,Control_c,0,74,97,
3,552960,Note_off_c,0,71,0,
3,552960,Note_on_c,0,73,47,
3,553102,Control_c,0,74,97,
3,553582,Control_c,0,74,97,
3,554062,Control_c,0,74,97,
3,554542,Control_c,0,74,97,
3,555022,Control_c,0,74,97,
3,555502,Control_c,0,74,97,
3,555982,Control_c,0,74,97,
3,556462,Control_c,0,74,97,
3,556942,Control_c,0,74,97,
3,557422,Control_c,0,74,97,
3,557902,Control_c,0,74,97,
3,558291,Control_c,0,74,98,
3,558771,Control_c,0,74,98,
3,559251,Control_c,0,74,98,
3,559731,Control_c,0,74,98,
3,560211,Control_c,0,74,98,
3,560640,Note_off_c,0,73,0,
3,560640,Note_on_c,0,76,75,
3,560691,Control_c,0,74,98,
3,561171,Control_c,0,74,98,
3,561651,Control_c,0,74,98,
3,562131,Control_c,0,74,98,
3,562611,Control_c,0,74,98,
3,563091,Control_c,0,74,98,
3,563571,Control_c,0,74,98,
3,564051,Control_c,0,74,98,
3,564531,Control_c,0,74,99,
3,565011,Control_c,0,74,99,
3,565491,Control_c,0,74,99,
3,565971,Control_c,0,74,99,
3,566451,Control_c,0,74,99,
3,566931,Control_c,0,74,99,
3,567411,Control_c,0,74,99,
3,567891,Control_c,0,74,99,
3,568320,Note_off_c,0,76,0,
3,568320,Note_on_c,0,69,79,
3,568371,Control_c,0,74,99,
3,568851,Control_c,0,74,99,
3,569331,Control_c,0,74,99,
3,569811,Control_c,0,74,99,
3,570291,Control_c,0,74,100,
3,570771,Control_c,0,74,100,
3,571251,Control_c,0,74,100,
3,571731,Control_c,0,74,100,
3,572211,Control_c,0,74,100,
3,572691,Control_c,0,74,100,
3,573171,Control_c,0,74,100,
3,573651,Control_c,0,74,100,
3,574131,Control_c,0,74,100,
3,574611,Control_c,0,74,100,
3,575091,Control_c,0,74,100,
3,575571,Control_c,0,74,100,
3,576000,Note_off_c,0,69,0,
3,576000,Note_on_c,0,71,51,
3,576051,Control_c,0,74,101,
3,576531,Control_c,0,74,101,
3,577011,Control_c,0,74,101,
3,577491,Control_c,0,74,101,
3,577971,Control_c,0,74,101,
3,578451,Control_c,0,74,101,
3,578931,Control_c,0,74,101,
3,579411,Control_c,0,74,101,
3,579891,Control_c,0,74,101,
3,580371,Control_c,0,74,101,
3,580851,Control_c,0,74,101,
3,581331,Control_c,0,74,101,
3,581811,Control_c,0,74,102,
3,582291,Control_c,0,74,102,
3,582771,Control_c,0,74,102,
3,583251,Control_c,0,74,102,
3,583680,Note_off_c,0,71,0,
3,583680,Note_on_c,0,73,56,
3,583731,Control_c,0,74,102,
3,584211,Control_c,0,74,102,
3,584691,Control_c,0,74,102,
3,585171,Control_c,0,74,102,
3,585651,Control_c,0,74,102,
3,586131,Control_c,0,74,102,
3,586611,Control_c,0,74,102,
3,587091,Control_c,0,74,102,
3,587571,Control_c,0,74,103,
3,588051,Control_c,0,74,103,
3,588531,Control_c,0,74,103,
3,589011,Control_c,0,74,103,
3,589491,Control_c,0,74,103,
3,589971,Control_c,0,74,103,
3,590451,Control_c,0,74,103,
3,590931,Control_c,0,74,103,
3,591360,Note_off_c,0,73,0,
3,591360,Note_on_c,0,76,57,
3,591411,Control_c,0,74,103,
3,591891,Control_c,0,74,103,
3,592371,Control_c,0,74,103,
3,592851,Control_c,0,74,103,
3,593331,Control_c,0,74,104,
3,593811,Control_c,0,74,104,
3,594291,Control_c,0,74,104,
3,594771,Control_c,0,74,104,
3,595251,Control_c,0,74,104,
3,595731,Control_c,0,74,104,
3,596211,Control_c,0,74,104,
3,596691,Control_c,0,74,104,
3,597171,Control_c,0,74,104,
3,597651,Control_c,0,74,104,
3,598131,Control_c,0,74,104,
3,598611,Control_c,0,74,104,
3,599040,Note_off_c,0,76,0,
3,599040,Note_on_c,0,69,77,
3,599091,Control_c,0,74,105,
3,599571,Control_c,0,74,105,
3,600051,Control_c,0,74,105,
3,600531,Control_c,0,74,105,
3,601011,Control_c,0,74,105,
3,601491,Control_c,0,74,105,
3,601971,Control_c,0,74,105,
3,602451,Control_c,0,74,105,
3,602931,Control_c,0,74,105,
3,603411,Control_c,0,74,105,
3,603891,Control_c,0,74,105,
3,604371,Control_c,0,74,105,
3,604851,Control_c,0,74,106,
3,605331,Control_c,0,74,106,
3,605811,Control_c,0,74,106,
3,606291,Control_c,0,74,106,
3,606720,Note_off_c,0,69,0,
3,606720,Note_on_c,0,71,51,
3,606771,Control_c,0,74,106,
3,607251,Control_c,0,74,106,
3,607731,Control_c,0,74,106,
3,608211,Control_c,0,74,106,
3,608691,Control_c,0,74,106,
3,609171,Control_c,0,74,106,
3,609651,Control_c,0,74,106,
3,610131,Control_c,0,74,106,
3,610611,Control_c,0,74,107,
3,611091,Control_c,0,74,107,
3,611571,Control_c,0,74,107,
3,612051,Control_c,0,74,107,
3,612531,Control_c,0,74,107,
3,613011,Control_c,0,74,107,
3,613491,Control_c,0,74,107,
3,613971,Control_c,0,74,107,
3,614400,Note_off_c,0,71,0,
3,614400,Note_on_c,0,73,50,
3,614451,Control_c,0,74,107,
3,614931,Control_c,0,74,107,
3,615411,Control_c,0,74,107,
3,615891,Control_c,0,74,107,
3,616371,Control_c,0,74,108,
3,616851,Control_c,0,74,108,
3,617331,Control_c,0,74,108,
3,617811,Control_c,0,74,108,
3,618291,Control_c,0,74,108,
3,618771,Control_c,0,74,108,
3,619251,Control_c,0,74,108,
3,619731,Control_c,0,74,108,
3,620211,Control_c,0,74,108,
3,620691,Control_c,0,74,108,
3,621171,Control_c,0,74,108,
3,621651,Control_c,0,74,108,
3,622080,Note_off_c,0,73,0,
3,622080,Note_on_c,0,76,50,
3,622080,Control_c,0,74,109,
3,622080,Control_c,0,74,109,
3,622560,Control_c,0,74,105,
3,623040,Control_c,0,74,102,
3,623520,Control_c,0,74,98,
3,624000,Control_c,0,74,95,
3,624480,Control_c,0,74,92,
3,624490,Control_c,0,74,92,
3,624970,Control_c,0,74,88,
3,625450,Control_c,0,74,85,
3,625930,Control_c,0,74,81,
3,626410,Control_c,0,74,78,
3,626890,Control_c,0,74,74,
3,627370,Control_c,0,74,71,
3,627850,Control_c,0,74,67,
3,628330,Control_c,0,74,64,
3,628810,Control_c,0,74,60,
3,629290,Control_c,0,74,57,
3,629470,Control_c,0,74,56,
3,629760,Note_off_c,0,57,0,
3,629760,Note_off_c,0,76,0,
3,629760,Note_on_c,0,52,26,
3,629760,Note_on_c,0,64,50,
3,629950,Control_c,0,74,54,
3,630430,Control_c,0,74,52,
3,630910,Control_c,0,74,51,
3,631390,Control_c,0,74,49,
3,631870,Control_c,0,74,47,
3,632350,Control_c,0,74,46,
3,632830,Control_c,0,74,44,
3,633310,Control_c,0,74,43,
3,633790,Control_c,0,74,41,
3,634270,Control_c,0,74,39,
3,634750,Control_c,0,74,38,
3,635143,Control_c,0,74,37,
3,635623,Control_c,0,74,36,
3,636103,Control_c,0,74,36,
3,636583,Control_c,0,74,36,
3,637063,Control_c,0,74,36,
3,637440,Note_off_c,0,64,0,
3,637440,Note_on_c,0,66,55,
3,637543,Control_c,0,74,36,
3,638023,Control_c,0,74,36,
3,638503,Control_c,0,74,36,
3,638983,Control_c,0,74,36,
3,639463,Control_c,0,74,36,
3,639943,Control_c,0,74,35,
3,640423,Control_c,0,74,35,
3,640903,Control_c,0,74,35,
3,641383,Control_c,0,74,35,
3,641863,Control_c,0,74,35,
3,642343,Control_c,0,74,35,
3,642823,Control_c,0,74,35,
3,643303,Control_c,0,74,35,
3,643783,Control_c,0,74,35,
3,644263,Control_c,0,74,35,
3,644743,Control_c,0,74,34,
3,645120,Note_off_c,0,66,0,
3,645120,Note_on_c,0,68,15,
3,645223,Control_c,0,74,34,
3,645703,Control_c,0,74,34,
3,646183,Control_c,0,74,34,
3,646663,Control_c,0,74,34,
3,647143,Control_c,0,74,34,
3,647623,Control_c,0,74,34,
3,648103,Control_c,0,74,34,
3,648583,Control_c,0,74,34,
3,649063,Control_c,0,74,34,
3,649543,Control_c,0,74,33,
3,650023,Control_c,0,74,33,
3,650503,Control_c,0,74,33,
3,650983,Control_c,0,74,33,
3,651463,Control_c,0,74,33,
3,651943,Control_c,0,74,33,
3,652423,Control_c,0,74,33,
3,652800,Note_off_c,0,68,0,
3,652800,Note_on_c,0,71,43,
3,652903,Control_c,0,74,33,
3,653383,Control_c,0,74,33,
3,653863,Control_c,0,74,33,
3,654046,Control_c,0,74,33,
3,660480,Note_off_c,0,71,0,
3,660480,Note_on_c,0,64,52,
3,660607,Control_c,0,74,33,
3,661087,Control_c,0,74,33,
3,661567,Control_c,0,74,33,
3,662047,Control_c,0,74,33,
3,662527,Control_c,0,74,33,
3,663007,Control_c,0,74,33,
3,663487,Control_c,0,74,33,
3,663967,Control_c,0,74,33,
3,664447,Control_c,0,74,33,
3,664927,Control_c,0,74,33,
3,665407,Control_c,0,74,33,
3,665887,Control_c,0,74,33,
3,666367,Control_c,0,74,33,
3,666847,Control_c,0,74,33,
3,667327,Control_c,0,74,33,
3,667515,Control_c,0,74,34,
3,667995,Control_c,0,74,34,
3,668160,Note_off_c,0,64,0,
3,668160,Note_on_c,0,66,56,
3,668475,Control_c,0,74,34,
3,668955,Control_c,0,74,34,
3,669435,Control_c,0,74,34,
3,669915,Control_c,0,74,34,
3,670395,Control_c,0,74,34,
3,670875,Control_c,0,74,34,
3,671355,Control_c,0,74,34,
3,671835,Control_c,0,74,34,
3,672315,Control_c,0,74,34,
3,672795,Control_c,0,74,35,
3,673275,Control_c,0,74,35,
3,673755,Control_c,0,74,35,
3,674235,Control_c,0,74,35,
3,674715,Control_c,0,74,35,
3,675195,Control_c,0,74,35,
3,675675,Control_c,0,74,35,
3,675840,Note_off_c,0,66,0,
3,675840,Note_on_c,0,68,16,
3,676155,Control_c,0,74,35,
3,676635,Control_c,0,74,35,
3,677115,Control_c,0,74,35,
3,677575,Control_c,0,74,36,
3,678055,Control_c,0,74,36,
3,678535,Control_c,0,74,36,
3,679015,Control_c,0,74,36,
3,679495,Control_c,0,74,36,
3,679975,Control_c,0,74,36,
3,680455,Control_c,0,74,36,
3,680935,Control_c,0,74,36,
3,681415,Control_c,0,74,36,
3,681895,Control_c,0,74,36,
3,682375,Control_c,0,74,37,
3,682855,Control_c,0,74,37,
3,683335,Control_c,0,74,37,
3,683520,Note_off_c,0,68,0,
3,683520,Note_on_c,0,73,54,
3,683815,Control_c,0,74,37,
3,684295,Control_c,0,74,37,
3,684775,Control_c,0,74,37,
3,685255,Control_c,0,74,37,
3,685735,Control_c,0,74,37,
3,686215,Control_c,0,74,37,
3,686695,Control_c,0,74,38,
3,687175,Control_c,0,74,38,
3,687655,Control_c,0,74,38,
3,688135,Control_c,0,74,38,
3,688615,Control_c,0,74,38,
3,689095,Control_c,0,74,38,
3,689575,Control_c,0,74,38,
3,690055,Control_c,0,74,38,
3,690535,Control_c,0,74,38,
3,691015,Control_c,0,74,38,
3,691161,Control_c,0,74,39,
3,691200,Note_off_c,0,73,0,
3,691200,Note_on_c,0,64,47,
3,691641,Control_c,0,74,39,
3,692121,Control_c,0,74,39,
3,692601,Control_c,0,74,39,
3,693081,Control_c,0,74,39,
3,693561,Control_c,0,74,39,
3,694041,Control_c,0,74,39,
3,694521,Control_c,0,74,39,
3,695001,Control_c,0,74,39,
3,695481,Control_c,0,74,39,
3,695961,Control_c,0,74,40,
3,696441,Control_c,0,74,40,
3,696921,Control_c,0,74,40,
3,697401,Control_c,0,74,40,
3,697881,Control_c,0,74,40,
3,698361,Control_c,0,74,40,
3,698841,Control_c,0,74,40,
3,698880,Note_off_c,0,64,0,
3,698880,Note_on_c,0,66,48,
3,699321,Control_c,0,74,40,
3,699801,Control_c,0,74,40,
3,700281,Control_c,0,74,41,
3,700761,Control_c,0,74,41,
3,701241,Control_c,0,74,41,
3,701721,Control_c,0,74,41,
3,702201,Control_c,0,74,41,
3,702681,Control_c,0,74,41,
3,703161,Control_c,0,74,41,
3,703641,Control_c,0,74,41,
3,704121,Control_c,0,74,41,
3,704601,Control_c,0,74,42,
3,705081,Control_c,0,74,42,
3,705561,Control_c,0,74,42,
3,706041,Control_c,0,74,42,
3,706521,Control_c,0,74,42,
3,706560,Note_off_c,0,66,0,
3,706560,Note_on_c,0,68,30,
3,707001,Control_c,0,74,42,
3,707481,Control_c,0,74,42,
3,707961,Control_c,0,74,42,
3,708441,Control_c,0,74,42,
3,708611,Control_c,0,74,43,
3,709091,Control_c,0,74,43,
3,709571,Control_c,0,74,43,
3,710051,Control_c,0,74,43,
3,710531,Control_c,0,74,43,
3,711011,Control_c,0,74,43,
3,711491,Control_c,0,74,43,
3,711971,Control_c,0,74,43,
3,712451,Control_c,0,74,43,
3,712931,Control_c,0,74,43,
3,713411,Control_c,0,74,44,
3,713891,Control_c,0,74,44,
3,714240,Note_off_c,0,68,0,
3,714240,Note_on_c,0,71,38,
3,714371,Control_c,0,74,44,
3,714851,Control_c,0,74,44,
3,715331,Control_c,0,74,44,
3,715811,Control_c,0,74,44,
3,716291,Control_c,0,74,44,
3,716771,Control_c,0,74,44,
3,717251,Control_c,0,74,44,
3,717731,Control_c,0,74,45,
3,718211,Control_c,0,74,45,
3,718691,Control_c,0,74,45,
3,719171,Control_c,0,74,45,
3,719651,Control_c,0,74,45,
3,720131,Control_c,0,74,45,
3,720611,Control_c,0,74,45,
3,721091,Control_c,0,74,45,
3,721571,Control_c,0,74,45,
3,721920,Note_off_c,0,71,0,
3,721920,Note_on_c,0,64,58,
3,722051,Control_c,0,74,46,
3,722531,Control_c,0,74,46,
3,723011,Control_c,0,74,46,
3,723491,Control_c,0,74,46,
3,723971,Control_c,0,74,46,
3,724451,Control_c,0,74,46,
3,724931,Control_c,0,74,46,
3,725411,Control_c,0,74,46,
3,725891,Control_c,0,74,46,
3,726371,Control_c,0,74,47,
3,726851,Control_c,0,74,47,
3,727331,Control_c,0,74,47,
3,727811,Control_c,0,74,47,
3,728291,Control_c,0,74,47,
3,728771,Control_c,0,74,47,
3,729251,Control_c,0,74,47,
3,729600,Note_off_c,0,64,0,
3,729600,Note_on_c,0,66,62,
3,729731,Control_c,0,74,47,
3,730211,Control_c,0,74,47,
3,730236,Control_c,0,74,48,
3,730716,Control_c,0,74,48,
3,731196,Control_c,0,74,48,
3,731676,Control_c,0,74,48,
3,732156,Control_c,0,74,48,
3,732636,Control_c,0,74,48,
3,733116,Control_c,0,74,48,
3,733596,Control_c,0,74,49,
3,734076,Control_c,0,74,49,
3,734556,Control_c,0,74,49,
3,735036,Control_c,0,74,49,
3,735516,Control_c,0,74,49,
3,735996,Control_c,0,74,49,
3,736476,Control_c,0,74,49,
3,736956,Control_c,0,74,50,
3,737280,Note_off_c,0,66,0,
3,737280,Note_on_c,0,68,43,
3,737436,Control_c,0,74,50,
3,737916,Control_c,0,74,50,
3,738396,Control_c,0,74,50,
3,738876,Control_c,0,74,50,
3,739356,Control_c,0,74,50,
3,739836,Control_c,0,74,50,
3,740316,Control_c,0,74,51,
3,740796,Control_c,0,74,51,
3,741276,Control_c,0,74,51,
3,741756,Control_c,0,74,51,
3,742236,Control_c,0,74,51,
3,742716,Control_c,0,74,51,
3,743196,Control_c,0,74,51,
3,743676,Control_c,0,74,52,
3,744156,Control_c,0,74,52,
3,744636,Control_c,0,74,52,
3,744960,Note_off_c,0,68,0,
3,744960,Note_on_c,0,71,36,
3,745116,Control_c,0,74,52,
3,745596,Control_c,0,74,52,
3,746076,Control_c,0,74,52,
3,746556,Control_c,0,74,53,
3,747036,Control_c,0,74,53,
3,747516,Control_c,0,74,53,
3,747996,Control_c,0,74,53,
3,748476,Control_c,0,74,53,
3,748956,Control_c,0,74,53,
3,749436,Control_c,0,74,53,
3,749916,Control_c,0,74,54,
3,750396,Control_c,0,74,54,
3,750876,Control_c,0,74,54,
3,751356,Control_c,0,74,54,
3,751836,Control_c,0,74,54,
3,752316,Control_c,0,74,54,
3,752640,Note_off_c,0,52,0,
3,752640,Note_off_c,0,71,0,
3,752640,Note_on_c,0,54,44,
3,752640,Note_on_c,0,66,45,
3,752796,Control_c,0,74,54,
3,753276,Control_c,0,74,55,
3,753756,Control_c,0,74,55,
3,754236,Control_c,0,74,55,
3,754716,Control_c,0,74,55,
3,755196,Control_c,0,74,55,
3,755676,Control_c,0,74,55,
3,756156,Control_c,0,74,55,
3,756323,Control_c,0,74,56,
3,756803,Control_c,0,74,56,
3,757283,Control_c,0,74,56,
3,757763,Control_c,0,74,56,
3,758243,Control_c,0,74,56,
3,758723,Control_c,0,74,56,
3,759203,Control_c,0,74,56,
3,759683,Control_c,0,74,57,
3,760163,Control_c,0,74,57,
3,760320,Note_off_c,0,66,0,
3,760320,Note_on_c,0,68,48,
3,760643,Control_c,0,74,57,
3,761123,Control_c,0,74,57,
3,761603,Control_c,0,74,57,
3,762083,Control_c,0,74,57,
3,762563,Control_c,0,74,58,
3,763043,Control_c,0,74,58,
3,763523,Control_c,0,74,58,
3,764003,Control_c,0,74,58,
3,764483,Control_c,0,74,58,
3,764963,Control_c,0,74,58,
3,765443,Control_c,0,74,58,
3,765923,Control_c,0,74,59,
3,766403,Control_c,0,74,59,
3,766883,Control_c,0,74,59,
3,767363,Control_c,0,74,59,
3,767843,Control_c,0,74,59,
3,768000,Note_off_c,0,68,0,
3,768000,Note_on_c,0,69,36,
3,768323,Control_c,0,74,59,
3,768803,Control_c,0,74,60,
3,769283,Control_c,0,74,60,
3,769763,Control_c,0,74,60,
3,770243,Control_c,0,74,60,
3,770723,Control_c,0,74,60,
3,771203,Control_c,0,74,60,
3,771683,Control_c,0,74,60,
3,772163,Control_c,0,74,61,
3,772643,Control_c,0,74,61,
3,773123,Control_c,0,74,61,
3,773603,Control_c,0,74,61,
3,774083,Control_c,0,74,61,
3,774563,Control_c,0,74,61,
3,775043,Control_c,0,74,62,
3,775523,Control_c,0,74,62,
3,775680,Note_off_c,0,69,0,
3,775680,Note_on_c,0,71,45,
3,776003,Control_c,0,74,62,
3,776483,Control_c,0,74,62,
3,776963,Control_c,0,74,62,
3,777443,Control_c,0,74,62,
3,777923,Control_c,0,74,63,
3,778403,Control_c,0,74,63,
3,778883,Control_c,0,74,63,
3,779363,Control_c,0,74,63,
3,779843,Control_c,0,74,63,
3,780323,Control_c,0,74,63,
3,780803,Control_c,0,74,63,
3,781283,Control_c,0,74,64,
3,781763,Control_c,0,74,64,
3,782243,Control_c,0,74,64,
3,782723,Control_c,0,74,64,
3,783203,Control_c,0,74,64,
3,783360,Note_off_c,0,71,0,
3,783360,Note_on_c,0,66,65,
3,783683,Control_c,0,74,64,
3,784163,Control_c,0,74,65,
3,784643,Control_c,0,74,65,
3,785123,Control_c,0,74,65,
3,785603,Control_c,0,74,65,
3,786083,Control_c,0,74,65,
3,786563,Control_c,0,74,65,
3,787043,Control_c,0,74,65,
3,787144,Control_c,0,74,66,
3,787624,Control_c,0,74,66,
3,788104,Control_c,0,74,66,
3,788584,Control_c,0,74,66,
3,789064,Control_c,0,74,66,
3,789544,Control_c,0,74,66,
3,790024,Control_c,0,74,67,
3,790504,Control_c,0,74,67,
3,790984,Control_c,0,74,67,
3,791040,Note_off_c,0,66,0,
3,791040,Note_on_c,0,68,34,
3,791464,Control_c,0,74,67,
3,791944,Control_c,0,74,67,
3,792424,Control_c,0,74,67,
3,792904,Control_c,0,74,68,
3,793384,Control_c,0,74,68,
3,793864,Control_c,0,74,68,
3,794344,Control_c,0,74,68,
3,794824,Control_c,0,74,68,
3,795304,Control_c,0,74,68,
3,795784,Control_c,0,74,69,
3,796264,Control_c,0,74,69,
3,796744,Control_c,0,74,69,
3,797224,Control_c,0,74,69,
3,797704,Control_c,0,74,69,
3,798184,Control_c,0,74,70,
3,798664,Control_c,0,74,70,
3,798720,Note_off_c,0,68,0,
3,798720,Note_on_c,0,69,46,
3,799144,Control_c,0,74,70,
3,799624,Control_c,0,74,70,
3,800104,Control_c,0,74,70,
3,800584,Control_c,0,74,70,
3,801064,Control_c,0,74,71,
3,801544,Control_c,0,74,71,
3,802024,Control_c,0,74,71,
3,802504,Control_c,0,74,71,
3,802984,Control_c,0,74,71,
3,803464,Control_c,0,74,71,
3,803944,Control_c,0,74,72,
3,804424,Control_c,0,74,72,
3,804904,Control_c,0,74,72,
3,805384,Control_c,0,74,72,
3,805864,Control_c,0,74,72,
3,806344,Control_c,0,74,72,
3,806400,Note_off_c,0,69,0,
3,806400,Note_on_c,0,73,56,
3,806824,Control_c,0,74,73,
3,807304,Control_c,0,74,73,
3,807784,Control_c,0,74,73,
3,808264,Control_c,0,74,73,
3,808744,Control_c,0,74,73,
3,809224,Control_c,0,74,74,
3,809704,Control_c,0,74,74,
3,810184,Control_c,0,74,74,
3,810664,Control_c,0,74,74,
3,811144,Control_c,0,74,74,
3,811624,Control_c,0,74,74,
3,812104,Control_c,0,74,75,
3,812584,Control_c,0,74,75,
3,813064,Control_c,0,74,75,
3,813544,Control_c,0,74,75,
3,814024,Control_c,0,74,75,
3,814080,Note_off_c,0,73,0,
3,814080,Note_on_c,0,66,56,
3,814504,Control_c,0,74,75,
3,814984,Control_c,0,74,76,
3,815464,Control_c,0,74,76,
3,815944,Control_c,0,74,76,
3,816424,Control_c,0,74,76,
3,816904,Control_c,0,74,76,
3,817384,Control_c,0,74,76,
3,817864,Control_c,0,74,77,
3,818344,Control_c,0,74,77,
3,818824,Control_c,0,74,77,
3,819304,Control_c,0,74,77,
3,819784,Control_c,0,74,77,
3,820264,Control_c,0,74,78,
3,820744,Control_c,0,74,78,
3,821224,Control_c,0,74,78,
3,821704,Control_c,0,74,78,
3,821760,Note_off_c,0,66,0,
3,821760,Note_on_c,0,68,48,
3,822184,Control_c,0,74,78,
3,822664,Control_c,0,74,78,
3,822955,Control_c,0,74,79,
3,823435,Control_c,0,74,79,
3,823915,Control_c,0,74,79,
3,824395,Control_c,0,74,79,
3,824875,Control_c,0,74,79,
3,825355,Control_c,0,74,79,
3,825835,Control_c,0,74,80,
3,826315,Control_c,0,74,80,
3,826795,Control_c,0,74,80,
3,827275,Control_c,0,74,80,
3,827755,Control_c,0,74,80,
3,828235,Control_c,0,74,81,
3,828715,Control_c,0,74,81,
3,829195,Control_c,0,74,81,
3,829440,Note_off_c,0,68,0,
3,829440,Note_on_c,0,69,58,
3,829675,Control_c,0,74,81,
3,830155,Control_c,0,74,81,
3,830635,Control_c,0,74,82,
3,831115,Control_c,0,74,82,
3,831595,Control_c,0,74,82,
3,832075,Control_c,0,74,82,
3,832555,Control_c,0,74,82,
3,833035,Control_c,0,74,83,
3,833515,Control_c,0,74,83,
3,833995,Control_c,0,74,83,
3,834475,Control_c,0,74,83,
3,834955,Control_c,0,74,83,
3,835435,Control_c,0,74,84,
3,835915,Control_c,0,74,84,
3,836395,Control_c,0,74,84,
3,836875,Control_c,0,74,84,
3,837120,Note_off_c,0,69,0,
3,837120,Note_on_c,0,71,44,
3,837355,Control_c,0,74,84,
3,837835,Control_c,0,74,85,
3,838315,Control_c,0,74,85,
3,838795,Control_c,0,74,85,
3,839275,Control_c,0,74,85,
3,839755,Control_c,0,74,85,
3,840235,Control_c,0,74,86,
3,840715,Control_c,0,74,86,
3,841195,Control_c,0,74,86,
3,841675,Control_c,0,74,86,
3,842155,Control_c,0,74,86,
3,842635,Control_c,0,74,87,
3,843115,Control_c,0,74,87,
3,843595,Control_c,0,74,87,
3,844075,Control_c,0,74,87,
3,844555,Control_c,0,74,87,
3,844800,Note_off_c,0,71,0,
3,844800,Note_on_c,0,66,58,
3,845035,Control_c,0,74,88,
3,845515,Control_c,0,74,88,
3,845995,Control_c,0,74,88,
3,846475,Control_c,0,74,88,
3,846955,Control_c,0,74,88,
3,847435,Control_c,0,74,89,
3,847915,Control_c,0,74,89,
3,848395,Control_c,0,74,89,
3,848875,Control_c,0,74,89,
3,849355,Control_c,0,74,89,
3,849835,Control_c,0,74,90,
3,850315,Control_c,0,74,90,
3,850795,Control_c,0,74,90,
3,851275,Control_c,0,74,90,
3,851755,Control_c,0,74,90,
3,852235,Control_c,0,74,91,
3,852480,Note_off_c,0,66,0,
3,852480,Note_on_c,0,68,39,
3,852715,Control_c,0,74,91,
3,853195,Control_c,0,74,91,
3,853675,Control_c,0,74,91,
3,854155,Control_c,0,74,91,
3,854635,Control_c,0,74,92,
3,855115,Control_c,0,74,92,
3,855595,Control_c,0,74,92,
3,856075,Control_c,0,74,92,
3,856555,Control_c,0,74,92,
3,857035,Control_c,0,74,93,
3,857515,Control_c,0,74,93,
3,857995,Control_c,0,74,93,
3,858475,Control_c,0,74,93,
3,858955,Control_c,0,74,93,
3,859435,Control_c,0,74,94,
3,859915,Control_c,0,74,94,
3,860160,Note_off_c,0,68,0,
3,860160,Note_on_c,0,69,73,
3,860395,Control_c,0,74,94,
3,860875,Control_c,0,74,94,
3,861355,Control_c,0,74,94,
3,861835,Control_c,0,74,95,
3,862315,Control_c,0,74,95,
3,862795,Control_c,0,74,95,
3,863275,Control_c,0,74,95,
3,863755,Control_c,0,74,95,
3,864000,Control_c,0,74,96,
3,864000,Control_c,0,74,96,
3,864480,Control_c,0,74,93,
3,864960,Control_c,0,74,91,
3,865440,Control_c,0,74,89,
3,865920,Control_c,0,74,87,
3,866400,Control_c,0,74,85,
3,866880,Control_c,0,74,83,
3,867360,Control_c,0,74,81,
3,867840,Note_off_c,0,69,0,
3,867840,Note_on_c,0,71,85,
3,867840,Control_c,0,74,79,
3,868320,Control_c,0,74,77,
3,868800,Control_c,0,74,75,
3,869280,Control_c,0,74,73,
3,869760,Control_c,0,74,71,
3,870240,Control_c,0,74,69,
3,870720,Control_c,0,74,67,
3,871200,Control_c,0,74,65,
3,871680,Control_c,0,74,63,
3,872160,Control_c,0,74,61,
3,872640,Control_c,0,74,59,
3,873120,Control_c,0,74,57,
3,873600,Control_c,0,74,55,
3,874080,Control_c,0,74,53,
3,874560,Control_c,0,74,51,
3,875040,Control_c,0,74,49,
3,875520,Note_off_c,0,54,0,
3,875520,Note_off_c,0,71,0,
3,875520,Note_on_c,0,56,59,
3,875520,Note_on_c,0,68,44,
3,875520,Control_c,0,74,47,
3,883200,Note_off_c,0,68,0,
3,883200,Note_on_c,0,69,20,
3,890880,Note_off_c,0,69,0,
3,890880,Note_on_c,0,71,54,
3,894861,Control_c,0,74,47,
3,895341,Control_c,0,74,47,
3,895821,Control_c,0,74,47,
3,896301,Control_c,0,74,47,
3,896781,Control_c,0,74,47,
3,897261,Control_c,0,74,47,
3,897741,Control_c,0,74,47,
3,898221,Control_c,0,74,47,
3,898560,Note_off_c,0,71,0,
3,898560,Note_on_c,0,73,34,
3,898701,Control_c,0,74,47,
3,899181,Control_c,0,74,47,
3,899661,Control_c,0,74,47,
3,900141,Control_c,0,74,47,
3,900621,Control_c,0,74,47,
3,901101,Control_c,0,74,47,
3,901581,Control_c,0,74,47,
3,902061,Control_c,0,74,47,
3,902541,Control_c,0,74,47,
3,903021,Control_c,0,74,47,
3,903501,Control_c,0,74,47,
3,903981,Control_c,0,74,47,
3,904461,Control_c,0,74,47,
3,904941,Control_c,0,74,48,
3,905421,Control_c,0,74,48,
3,905901,Control_c,0,74,48,
3,906240,Note_off_c,0,73,0,
3,906240,Note_on_c,0,68,76,
3,906381,Control_c,0,74,48,
3,906861,Control_c,0,74,48,
3,907341,Control_c,0,74,48,
3,907821,Control_c,0,74,48,
3,908301,Control_c,0,74,48,
3,908781,Control_c,0,74,48,
3,909261,Control_c,0,74,48,
3,909741,Control_c,0,74,48,
3,910221,Control_c,0,74,48,
3,910701,Control_c,0,74,48,
3,911181,Control_c,0,74,48,
3,911661,Control_c,0,74,48,
3,912141,Control_c,0,74,48,
3,912621,Control_c,0,74,48,
3,913101,Control_c,0,74,48,
3,913581,Control_c,0,74,48,
3,913920,Note_off_c,0,68,0,
3,913920,Note_on_c,0,69,47,
3,914061,Control_c,0,74,48,
3,914202,Control_c,0,74,49,
3,914682,Control_c,0,74,49,
3,915162,Control_c,0,74,49,
3,915642,Control_c,0,74,49,
3,916122,Control_c,0,74,49,
3,916602,Control_c,0,74,49,
3,917082,Control_c,0,74,49,
3,917562,Control_c,0,74,49,
3,918042,Control_c,0,74,49,
3,918522,Control_c,0,74,49,
3,919002,Control_c,0,74,49,
3,919482,Control_c,0,74,49,
3,919962,Control_c,0,74,49,
3,920442,Control_c,0,74,49,
3,920922,Control_c,0,74,49,
3,921402,Control_c,0,74,49,
3,921600,Note_off_c,0,69,0,
3,921600,Note_on_c,0,71,50,
3,921882,Control_c,0,74,49,
3,922362,Control_c,0,74,49,
3,922842,Control_c,0,74,49,
3,923322,Control_c,0,74,49,
3,923802,Control_c,0,74,49,
3,924282,Control_c,0,74,50,
3,924762,Control_c,0,74,50,
3,925242,Control_c,0,74,50,
3,925722,Control_c,0,74,50,
3,926202,Control_c,0,74,50,
3,926682,Control_c,0,74,50,
3,927162,Control_c,0,74,50,
3,927642,Control_c,0,74,50,
3,928122,Control_c,0,74,50,
3,928602,Control_c,0,74,50,
3,929082,Control_c,0,74,50,
3,929280,Note_off_c,0,71,0,
3,929280,Note_on_c,0,75,54,
3,929562,Control_c,0,74,50,
3,930042,Control_c,0,74,50,
3,930522,Control_c,0,74,50,
3,931002,Control_c,0,74,50,
3,931482,Control_c,0,74,50,
3,931962,Control_c,0,74,50,
3,932442,Control_c,0,74,50,
3,932922,Control_c,0,74,50,
3,933402,Control_c,0,74,50,
3,933543,Control_c,0,74,51,
3,934023,Control_c,0,74,51,
3,934503,Control_c,0,74,51,
3,934983,Control_c,0,74,51,
3,935463,Control_c,0,74,51,
3,935943,Control_c,0,74,51,
3,936423,Control_c,0,74,51,
3,936903,Control_c,0,74,51,
3,936960,Note_off_c,0,75,0,
3,936960,Note_on_c,0,68,85,
3,937383,Control_c,0,74,51,
3,937863,Control_c,0,74,51,
3,938343,Control_c,0,74,51,
3,938823,Control_c,0,74,51,
3,939303,Control_c,0,74,51,
3,939783,Control_c,0,74,51,
3,940263,Control_c,0,74,52,
3,940743,Control_c,0,74,52,
3,941223,Control_c,0,74,52,
3,941703,Control_c,0,74,52,
3,942183,Control_c,0,74,52,
3,942663,Control_c,0,74,52,
3,943143,Control_c,0,74,52,
3,943623,Control_c,0,74,52,
3,944103,Control_c,0,74,52,
3,944583,Control_c,0,74,52,
3,944640,Note_off_c,0,68,0,
3,944640,Note_on_c,0,69,50,
3,945063,Control_c,0,74,52,
3,945543,Control_c,0,74,52,
3,946023,Control_c,0,74,52,
3,946503,Control_c,0,74,53,
3,946983,Control_c,0,74,53,
3,947463,Control_c,0,74,53,
3,947943,Control_c,0,74,53,
3,948423,Control_c,0,74,53,
3,948903,Control_c,0,74,53,
3,949383,Control_c,0,74,53,
3,949863,Control_c,0,74,53,
3,950343,Control_c,0,74,53,
3,950823,Control_c,0,74,53,
3,951303,Control_c,0,74,53,
3,951783,Control_c,0,74,53,
3,952263,Control_c,0,74,53,
3,952320,Note_off_c,0,69,0,
3,952320,Note_on_c,0,71,45,
3,952743,Control_c,0,74,53,
3,952884,Control_c,0,74,54,
3,953364,Control_c,0,74,54,
3,953844,Control_c,0,74,54,
3,954324,Control_c,0,74,54,
3,954804,Control_c,0,74,54,
3,955284,Control_c,0,74,54,
3,955764,Control_c,0,74,54,
3,956244,Control_c,0,74,54,
3,956724,Control_c,0,74,54,
3,957204,Control_c,0,74,54,
3,957684,Control_c,0,74,54,
3,958164,Control_c,0,74,55,
3,958644,Control_c,0,74,55,
3,959124,Control_c,0,74,55,
3,959604,Control_c,0,74,55,
3,960000,Note_off_c,0,71,0,
3,960000,Note_on_c,0,73,61,
3,960084,Control_c,0,74,55,
3,960564,Control_c,0,74,55,
3,961044,Control_c,0,74,55,
3,961524,Control_c,0,74,55,
3,962004,Control_c,0,74,55,
3,962484,Control_c,0,74,55,
3,962964,Control_c,0,74,56,
3,963444,Control_c,0,74,56,
3,963924,Control_c,0,74,56,
3,964404,Control_c,0,74,56,
3,964884,Control_c,0,74,56,
3,965364,Control_c,0,74,56,
3,965844,Control_c,0,74,56,
3,966324,Control_c,0,74,56,
3,966804,Control_c,0,74,56,
3,967284,Control_c,0,74,56,
3,967680,Note_off_c,0,73,0,
3,967680,Note_on_c,0,68,48,
3,967764,Control_c,0,74,57,
3,968244,Control_c,0,74,57,
3,968724,Control_c,0,74,57,
3,969204,Control_c,0,74,57,
3,969684,Control_c,0,74,57,
3,970164,Control_c,0,74,57,
3,970644,Control_c,0,74,57,
3,971124,Control_c,0,74,57,
3,971604,Control_c,0,74,57,
3,972084,Control_c,0,74,57,
3,972225,Control_c,0,74,58,
3,972705,Control_c,0,74,58,
3,973185,Control_c,0,74,58,
3,973665,Control_c,0,74,58,
3,974145,Control_c,0,74,58,
3,974625,Control_c,0,74,58,
3,975105,Control_c,0,74,58,
3,975360,Note_off_c,0,68,0,
3,975360,Note_on_c,0,69,44,
3,975585,Control_c,0,74,59,
3,976065,Control_c,0,74,59,
3,976545,Control_c,0,74,59,
3,977025,Control_c,0,74,59,
3,977505,Control_c,0,74,59,
3,977985,Control_c,0,74,59,
3,978465,Control_c,0,74,59,
3,978945,Control_c,0,74,60,
3,979425,Control_c,0,74,60,
3,979905,Control_c,0,74,60,
3,980385,Control_c,0,74,60,
3,980865,Control_c,0,74,60,
3,981345,Control_c,0,74,60,
3,981825,Control_c,0,74,60,
3,982305,Control_c,0,74,61,
3,982785,Control_c,0,74,61,
3,983040,Note_off_c,0,69,0,
3,983040,Note_on_c,0,71,58,
3,983265,Control_c,0,74,61,
3,983745,Control_c,0,74,61,
3,984225,Control_c,0,74,61,
3,984705,Control_c,0,74,61,
3,985185,Control_c,0,74,62,
3,985665,Control_c,0,74,62,
3,986145,Control_c,0,74,62,
3,986625,Control_c,0,74,62,
3,987105,Control_c,0,74,62,
3,987585,Control_c,0,74,62,
3,988065,Control_c,0,74,62,
3,988545,Control_c,0,74,63,
3,989025,Control_c,0,74,63,
3,989505,Control_c,0,74,63,
3,989985,Control_c,0,74,63,
3,990465,Control_c,0,74,63,
3,990720,Note_off_c,0,71,0,
3,990720,Note_on_c,0,73,69,
3,990945,Control_c,0,74,63,
3,991425,Control_c,0,74,63,
3,991566,Control_c,0,74,64,
3,992046,Control_c,0,74,64,
3,992526,Control_c,0,74,64,
3,993006,Control_c,0,74,64,
3,993486,Control_c,0,74,64,
3,993966,Control_c,0,74,64,
3,994446,Control_c,0,74,64,
3,994926,Control_c,0,74,64,
3,995406,Control_c,0,74,64,
3,995886,Control_c,0,74,65,
3,996366,Control_c,0,74,65,
3,996846,Control_c,0,74,65,
3,997326,Control_c,0,74,65,
3,997806,Control_c,0,74,65,
3,998286,Control_c,0,74,65,
3,998400,Note_off_c,0,56,0,
3,998400,Note_off_c,0,73,0,
3,998400,Note_on_c,0,57,35,
3,998400,Note_on_c,0,69,61,
3,998766,Control_c,0,74,65,
3,999246,Control_c,0,74,65,
3,999726,Control_c,0,74,66,
3,1000206,Control_c,0,74,66,
3,1000686,Control_c,0,74,66,
3,1001166,Control_c,0,74,66,
3,1001646,Control_c,0,74,66,
3,1002126,Control_c,0,74,66,
3,1002606,Control_c,0,74,66,
3,1003086,Control_c,0,74,66,
3,1003566,Control_c,0,74,67,
3,1004046,Control_c,0,74,67,
3,1004526,Control_c,0,74,67,
3,1005006,Control_c,0,74,67,
3,1005486,Control_c,0,74,67,
3,1005966,Control_c,0,74,67,
3,1006080,Note_off_c,0,69,0,
3,1006080,Note_on_c,0,71,38,
3,1006446,Control_c,0,74,67,
3,1006926,Control_c,0,74,67,
3,1007406,Control_c,0,74,68,
3,1007886,Control_c,0,74,68,
3,1008366,Control_c,0,74,68,
3,1008846,Control_c,0,74,68,
3,1009326,Control_c,0,74,68,
3,1009806,Control_c,0,74,68,
3,1010286,Control_c,0,74,68,
3,1010766,Control_c,0,74,68,
3,1010906,Control_c,0,74,69,
3,1011386,Control_c,0,74,69,
3,1011866,Control_c,0,74,69,
3,1012346,Control_c,0,74,69,
3,1012826,Control_c,0,74,69,
3,1013306,Control_c,0,74,69,
3,1013760,Note_off_c,0,71,0,
3,1013760,Note_on_c,0,73,47,
3,1013786,Control_c,0,74,70,
3,1014266,Control_c,0,74,70,
3,1014746,Control_c,0,74,70,
3,1015226,Control_c,0,74,70,
3,1015706,Control_c,0,74,70,
3,1016186,Control_c,0,74,70,
3,1016666,Control_c,0,74,71,
3,1017146,Control_c,0,74,71,
3,1017626,Control_c,0,74,71,
3,1018106,Control_c,0,74,71,
3,1018586,Control_c,0,74,71,
3,1019066,Control_c,0,74,71,
3,1019546,Control_c,0,74,72,
3,1020026,Control_c,0,74,72,
3,1020506,Control_c,0,74,72,
3,1020986,Control_c,0,74,72,
3,1021440,Note_off_c,0,73,0,
3,1021440,Note_on_c,0,76,49,
3,1021466,Control_c,0,74,72,
3,1021946,Control_c,0,74,72,
3,1022426,Control_c,0,74,73,
3,1022906,Control_c,0,74,73,
3,1023386,Control_c,0,74,73,
3,1023866,Control_c,0,74,73,
3,1024346,Control_c,0,74,73,
3,1024826,Control_c,0,74,74,
3,1025306,Control_c,0,74,74,
3,1025786,Control_c,0,74,74,
3,1026266,Control_c,0,74,74,
3,1026746,Control_c,0,74,74,
3,1027226,Control_c,0,74,74,
3,1027706,Control_c,0,74,75,
3,1028186,Control_c,0,74,75,
3,1028666,Control_c,0,74,75,
3,1029120,Note_off_c,0,76,0,
3,1029120,Note_on_c,0,69,60,
3,1029146,Control_c,0,74,75,
3,1029626,Control_c,0,74,75,
3,1030106,Control_c,0,74,75,
3,1030247,Control_c,0,74,76,
3,1030727,Control_c,0,74,76,
3,1031207,Control_c,0,74,76,
3,1031687,Control_c,0,74,76,
3,1032167,Control_c,0,74,76,
3,1032647,Control_c,0,74,76,
3,1033127,Control_c,0,74,77,
3,1033607,Control_c,0,74,77,
3,1034087,Control_c,0,74,77,
3,1034567,Control_c,0,74,77,
3,1035047,Control_c,0,74,77,
3,1035527,Control_c,0,74,78,
3,1036007,Control_c,0,74,78,
3,1036487,Control_c,0,74,78,
3,1036800,Note_off_c,0,69,0,
3,1036800,Note_on_c,0,71,36,
3,1036967,Control_c,0,74,78,
3,1037447,Control_c,0,74,78,
3,1037927,Control_c,0,74,79,
3,1038407,Control_c,0,74,79,
3,1038887,Control_c,0,74,79,
3,1039367,Control_c,0,74,79,
3,1039847,Control_c,0,74,79,
3,1040327,Control_c,0,74,80,
3,1040807,Control_c,0,74,80,
3,1041287,Control_c,0,74,80,
3,1041767,Control_c,0,74,80,
3,1042247,Control_c,0,74,80,
3,1042727,Control_c,0,74,81,
3,1043207,Control_c,0,74,81,
3,1043687,Control_c,0,74,81,
3,1044167,Control_c,0,74,81,
3,1044480,Note_off_c,0,71,0,
3,1044480,Note_on_c,0,73,47,
3,1044647,Control_c,0,74,81,
3,1045127,Control_c,0,74,82,
3,1045607,Control_c,0,74,82,
3,1046087,Control_c,0,74,82,
3,1046567,Control_c,0,74,82,
3,1047047,Control_c,0,74,82,
3,1047527,Control_c,0,74,83,
3,1048007,Control_c,0,74,83,
3,1048487,Control_c,0,74,83,
3,1048967,Control_c,0,74,83,
3,1049447,Control_c,0,74,83,
3,1049588,Control_c,0,74,84,
3,1050068,Control_c,0,74,84,
3,1050548,Control_c,0,74,84,
3,1051028,Control_c,0,74,84,
3,1051508,Control_c,0,74,84,
3,1051988,Control_c,0,74,85,
3,1052160,Note_off_c,0,73,0,
3,1052160,Note_on_c,0,76,75,
3,1052468,Control_c,0,74,85,
3,1052948,Control_c,0,74,85,
3,1053428,Control_c,0,74,85,
3,1053908,Control_c,0,74,86,
3,1054388,Control_c,0,74,86,
3,1054868,Control_c,0,74,86,
3,1055348,Control_c,0,74,86,
3,1055828,Control_c,0,74,86,
3,1056308,Control_c,0,74,87,
3,1056788,Control_c,0,74,87,
3,1057268,Control_c,0,74,87,
3,1057748,Control_c,0,74,87,
3,1058228,Control_c,0,74,88,
3,1058708,Control_c,0,74,88,
3,1059188,Control_c,0,74,88,
3,1059668,Control_c,0,74,88,
3,1059840,Note_off_c,0,76,0,
3,1059840,Note_on_c,0,69,79,
3,1060148,Control_c,0,74,88,
3,1060628,Control_c,0,74,89,
3,1061108,Control_c,0,74,89,
3,1061588,Control_c,0,74,89,
3,1062068,Control_c,0,74,89,
3,1062548,Control_c,0,74,90,
3,1063028,Control_c,0,74,90,
3,1063508,Control_c,0,74,90,
3,1063988,Control_c,0,74,90,
3,1064468,Control_c,0,74,90,
3,1064948,Control_c,0,74,91,
3,1065428,Control_c,0,74,91,
3,1065908,Control_c,0,74,91,
3,1066388,Control_c,0,74,91,
3,1066868,Control_c,0,74,92,
3,1067348,Control_c,0,74,92,
3,1067520,Note_off_c,0,69,0,
3,1067520,Note_on_c,0,71,51,
3,1067828,Control_c,0,74,92,
3,1068308,Control_c,0,74,92,
3,1068788,Control_c,0,74,92,
3,1068929,Control_c,0,74,93,
3,1069409,Control_c,0,74,93,
3,1069889,Control_c,0,74,93,
3,1070369,Control_c,0,74,93,
3,1070849,Control_c,0,74,93,
3,1071329,Control_c,0,74,94,
3,1071809,Control_c,0,74,94,
3,1072289,Control_c,0,74,94,
3,1072769,Control_c,0,74,94,
3,1073249,Control_c,0,74,95,
3,1073729,Control_c,0,74,95,
3,1074209,Control_c,0,74,95,
3,1074689,Control_c,0,74,95,
3,1075169,Control_c,0,74,95,
3,1075200,Note_off_c,0,71,0,
3,1075200,Note_on_c,0,73,56,
3,1075649,Control_c,0,74,96,
3,1076129,Control_c,0,74,96,
3,1076609,Control_c,0,74,96,
3,1077089,Control_c,0,74,96,
3,1077569,Control_c,0,74,97,
3,1078049,Control_c,0,74,97,
3,1078529,Control_c,0,74,97,
3,1079009,Control_c,0,74,97,
3,1079489,Control_c,0,74,97,
3,1079969,Control_c,0,74,98,
3,1080449,Control_c,0,74,98,
3,1080929,Control_c,0,74,98,
3,1081409,Control_c,0,74,98,
3,1081889,Control_c,0,74,99,
3,1082369,Control_c,0,74,99,
3,1082849,Control_c,0,74,99,
3,1082880,Note_off_c,0,73,0,
3,1082880,Note_on_c,0,76,57,
3,1083329,Control_c,0,74,99,
3,1083809,Control_c,0,74,99,
3,1084289,Control_c,0,74,100,
3,1084769,Control_c,0,74,100,
3,1085249,Control_c,0,74,100,
3,1085729,Control_c,0,74,100,
3,1086209,Control_c,0,74,101,
3,1086689,Control_c,0,74,101,
3,1087169,Control_c,0,74,101,
3,1087649,Control_c,0,74,101,
3,1088129,Control_c,0,74,101,
3,1088270,Control_c,0,74,102,
3,1088750,Control_c,0,74,102,
3,1089230,Control_c,0,74,102,
3,1089710,Control_c,0,74,102,
3,1090190,Control_c,0,74,103,
3,1090560,Note_off_c,0,76,0,
3,1090560,Note_on_c,0,69,77,
3,1090670,Control_c,0,74,103,
3,1091150,Control_c,0,74,103,
3,1091630,Control_c,0,74,103,
3,1092110,Control_c,0,74,104,
3,1092590,Control_c,0,74,104,
3,1093070,Control_c,0,74,104,
3,1093550,Control_c,0,74,105,
3,1094030,Control_c,0,74,105,
3,1094510,Control_c,0,74,105,
3,1094990,Control_c,0,74,105,
3,1095470,Control_c,0,74,106,
3,1095950,Control_c,0,74,106,
3,1096430,Control_c,0,74,106,
3,1096910,Control_c,0,74,106,
3,1097390,Control_c,0,74,107,
3,1097870,Control_c,0,74,107,
3,1098240,Note_off_c,0,69,0,
3,1098240,Note_on_c,0,71,51,
3,1098350,Control_c,0,74,107,
3,1098830,Control_c,0,74,108,
3,1099310,Control_c,0,74,108,
3,1099790,Control_c,0,74,108,
3,1100270,Control_c,0,74,108,
3,1100750,Control_c,0,74,109,
3,1101230,Control_c,0,74,109,
3,1101710,Control_c,0,74,109,
3,1102190,Control_c,0,74,109,
3,1102670,Control_c,0,74,110,
3,1103150,Control_c,0,74,110,
3,1103630,Control_c,0,74,110,
3,1104110,Control_c,0,74,111,
3,1104590,Control_c,0,74,111,
3,1105070,Control_c,0,74,111,
3,1105550,Control_c,0,74,111,
3,1105920,Note_off_c,0,71,0,
3,1105920,Note_on_c,0,73,50,
3,1106030,Control_c,0,74,112,
3,1106510,Control_c,0,74,112,
3,1106990,Control_c,0,74,112,
3,1107470,Control_c,0,74,112,
3,1107611,Control_c,0,74,113,
3,1107611,Control_c,0,74,113,
3,1108091,Control_c,0,74,112,
3,1108571,Control_c,0,74,112,
3,1109051,Control_c,0,74,111,
3,1109531,Control_c,0,74,111,
3,1110011,Control_c,0,74,111,
3,1110491,Control_c,0,74,110,
3,1110971,Control_c,0,74,110,
3,1111451,Control_c,0,74,110,
3,1111931,Control_c,0,74,109,
3,1112411,Control_c,0,74,109,
3,1112891,Control_c,0,74,109,
3,1113371,Control_c,0,74,108,
3,1113600,Note_off_c,0,73,0,
3,1113600,Note_on_c,0,76,50,
3,1113851,Control_c,0,74,108,
3,1114331,Control_c,0,74,108,
3,1114558,Control_c,0,74,108,
3,1115038,Control_c,0,74,103,
3,1115518,Control_c,0,74,98,
3,1115998,Control_c,0,74,93,
3,1116478,Control_c,0,74,88,
3,1116958,Control_c,0,74,83,
3,1117254,Control_c,0,74,80,
3,1117734,Control_c,0,74,76,
3,1118214,Control_c,0,74,73,
3,1118694,Control_c,0,74,70,
3,1119174,Control_c,0,74,66,
3,1119654,Control_c,0,74,63,
3,1120134,Control_c,0,74,60,
3,1120614,Control_c,0,74,57,
3,1121094,Control_c,0,74,53,
3,1121241,Control_c,0,74,53,
3,1121280,Note_off_c,0,57,0,
3,1121280,Note_off_c,0,76,0,
3,1121280,Note_on_c,0,52,26,
3,1121280,Note_on_c,0,64,50,
3,1121721,Control_c,0,74,52,
3,1122201,Control_c,0,74,51,
3,1122681,Control_c,0,74,50,
3,1123161,Control_c,0,74,49,
3,1123641,Control_c,0,74,48,
3,1124121,Control_c,0,74,47,
3,1124601,Control_c,0,74,47,
3,1125081,Control_c,0,74,46,
3,1125210,Control_c,0,74,46,
3,1125690,Control_c,0,74,46,
3,1126170,Control_c,0,74,46,
3,1126650,Control_c,0,74,46,
3,1127130,Control_c,0,74,46,
3,1127610,Control_c,0,74,46,
3,1128090,Control_c,0,74,46,
3,1128570,Control_c,0,74,46,
3,1128960,Note_off_c,0,64,0,
3,1128960,Note_on_c,0,66,55,
3,1129050,Control_c,0,74,47,
3,1129530,Control_c,0,74,47,
3,1130010,Control_c,0,74,47,
3,1130490,Control_c,0,74,47,
3,1130970,Control_c,0,74,47,
3,1131450,Control_c,0,74,47,
3,1131930,Control_c,0,74,47,
3,1132410,Control_c,0,74,47,
3,1132800,Control_c,0,74,48,
3,1133280,Control_c,0,74,49,
3,1133760,Control_c,0,74,50,
3,1134240,Control_c,0,74,52,
3,1134720,Control_c,0,74,53,
3,1135200,Control_c,0,74,55,
3,1135680,Control_c,0,74,56,
3,1136160,Control_c,0,74,57,
3,1136640,Note_off_c,0,66,0,
3,1136640,Note_on_c,0,68,15,
3,1136640,Control_c,0,74,59,
3,1137120,Control_c,0,74,60,
3,1137600,Control_c,0,74,62,
3,1138080,Control_c,0,74,63,
3,1138560,Control_c,0,74,65,
3,1139040,Control_c,0,74,66,
3,1139520,Control_c,0,74,67,
3,1140000,Control_c,0,74,69,
3,1140480,Control_c,0,74,70,
3,1140960,Control_c,0,74,72,
3,1141440,Control_c,0,74,73,
3,1141920,Control_c,0,74,74,
3,1142400,Control_c,0,74,76,
3,1142880,Control_c,0,74,77,
3,1143360,Control_c,0,74,79,
3,1143840,Control_c,0,74,80,
3,1144320,Note_off_c,0,68,0,
3,1144320,Note_on_c,0,73,43,
3,1144320,Control_c,0,74,82,
3,1144800,Control_c,0,74,80,
3,1145280,Control_c,0,74,79,
3,1145760,Control_c,0,74,77,
3,1146240,Control_c,0,74,76,
3,1146720,Control_c,0,74,74,
3,1147200,Control_c,0,74,73,
3,1147680,Control_c,0,74,72,
3,1148160,Control_c,0,74,70,
3,1148640,Control_c,0,74,69,
3,1149120,Control_c,0,74,67,
3,1149600,Control_c,0,74,66,
3,1150080,Control_c,0,74,65,
3,1150560,Control_c,0,74,63,
3,1151040,Control_c,0,74,62,
3,1151520,Control_c,0,74,60,
3,1152000,Note_off_c,0,73,0,
3,1152000,Note_on_c,0,64,52,
3,1152000,Control_c,0,74,59,
3,1152480,Control_c,0,74,57,
3,1152960,Control_c,0,74,56,
3,1153440,Control_c,0,74,55,
3,1153920,Control_c,0,74,53,
3,1154400,Control_c,0,74,52,
3,1154880,Control_c,0,74,50,
3,1155360,Control_c,0,74,49,
3,1155840,Control_c,0,74,48,
3,1156320,Control_c,0,74,48,
3,1156800,Control_c,0,74,48,
3,1157280,Control_c,0,74,48,
3,1157760,Control_c,0,74,48,
3,1158240,Control_c,0,74,48,
3,1158720,Control_c,0,74,48,
3,1159200,Control_c,0,74,48,
3,1159680,Note_off_c,0,64,0,
3,1159680,Note_on_c,0,66,56,
3,1159680,Control_c,0,74,48,
3,1160160,Control_c,0,74,48,
3,1160640,Control_c,0,74,49,
3,1161120,Control_c,0,74,49,
3,1161600,Control_c,0,74,49,
3,1162080,Control_c,0,74,49,
3,1162560,Control_c,0,74,49,
3,1163040,Control_c,0,74,49,
3,1163520,Control_c,0,74,49,
3,1164000,Control_c,0,74,49,
3,1164480,Control_c,0,74,49,
3,1164960,Control_c,0,74,49,
3,1165440,Control_c,0,74,50,
3,1165920,Control_c,0,74,50,
3,1166400,Control_c,0,74,50,
3,1166880,Control_c,0,74,50,
3,1167360,Note_off_c,0,66,0,
3,1167360,Note_on_c,0,68,16,
3,1167360,Control_c,0,74,50,
3,1167840,Control_c,0,74,50,
3,1168320,Control_c,0,74,50,
3,1168800,Control_c,0,74,50,
3,1169280,Control_c,0,74,50,
3,1169760,Control_c,0,74,51,
3,1170240,Control_c,0,74,51,
3,1170720,Control_c,0,74,51,
3,1171200,Control_c,0,74,51,
3,1171680,Control_c,0,74,51,
3,1172160,Control_c,0,74,51,
3,1172640,Control_c,0,74,51,
3,1173120,Control_c,0,74,51,
3,1173600,Control_c,0,74,51,
3,1174080,Control_c,0,74,51,
3,1174560,Control_c,0,74,52,
3,1175040,Note_off_c,0,68,0,
3,1175040,Note_on_c,0,71,54,
3,1175040,Control_c,0,74,52,
3,1175520,Control_c,0,74,52,
3,1176000,Control_c,0,74,52,
3,1176480,Control_c,0,74,52,
3,1176960,Control_c,0,74,52,
3,1177440,Control_c,0,74,52,
3,1177920,Control_c,0,74,52,
3,1178400,Control_c,0,74,52,
3,1178880,Control_c,0,74,53,
3,1179360,Control_c,0,74,53,
3,1179840,Control_c,0,74,53,
3,1180320,Control_c,0,74,53,
3,1180800,Control_c,0,74,53,
3,1181280,Control_c,0,74,53,
3,1181760,Control_c,0,74,53,
3,1182240,Control_c,0,74,53,
3,1182720,Note_off_c,0,71,0,
3,1182720,Note_on_c,0,64,47,
3,1182720,Control_c,0,74,54,
3,1183200,Control_c,0,74,54,
3,1183680,Control_c,0,74,54,
3,1184160,Control_c,0,74,54,
3,1184640,Control_c,0,74,54,
3,1185120,Control_c,0,74,54,
3,1185600,Control_c,0,74,54,
3,1186080,Control_c,0,74,55,
3,1186560,Control_c,0,74,55,
3,1187040,Control_c,0,74,55,
3,1187520,Control_c,0,74,55,
3,1188000,Control_c,0,74,55,
3,1188480,Control_c,0,74,55,
3,1188960,Control_c,0,74,55,
3,1188972,Control_c,0,74,56,
3,1189452,Control_c,0,74,56,
3,1189932,Control_c,0,74,56,
3,1190400,Note_off_c,0,64,0,
3,1190400,Note_on_c,0,66,48,
3,1190412,Control_c,0,74,56,
3,1190892,Control_c,0,74,56,
3,1191372,Control_c,0,74,56,
3,1191852,Control_c,0,74,56,
3,1192332,Control_c,0,74,56,
3,1192812,Control_c,0,74,56,
3,1193275,Control_c,0,74,57,
3,1193755,Control_c,0,74,57,
3,1194235,Control_c,0,74,58,
3,1194715,Control_c,0,74,59,
3,1195195,Control_c,0,74,60,
3,1195675,Control_c,0,74,61,
3,1196155,Control_c,0,74,62,
3,1196635,Control_c,0,74,63,
3,1197115,Control_c,0,74,64,
3,1197595,Control_c,0,74,65,
3,1198075,Control_c,0,74,66,
3,1198080,Note_off_c,0,66,0,
3,1198080,Note_on_c,0,68,30,
3,1198555,Control_c,0,74,67,
3,1199035,Control_c,0,74,68,
3,1199515,Control_c,0,74,69,
3,1199995,Control_c,0,74,70,
3,1200475,Control_c,0,74,71,
3,1200955,Control_c,0,74,72,
3,1201435,Control_c,0,74,73,
3,1201915,Control_c,0,74,74,
3,1202395,Control_c,0,74,75,
3,1202875,Control_c,0,74,76,
3,1203355,Control_c,0,74,77,
3,1203835,Control_c,0,74,78,
3,1204315,Control_c,0,74,79,
3,1204795,Control_c,0,74,80,
3,1205275,Control_c,0,74,81,
3,1205755,Control_c,0,74,82,
3,1205760,Note_off_c,0,68,0,
3,1205760,Note_on_c,0,73,38,
3,1206235,Control_c,0,74,83,
3,1206715,Control_c,0,74,84,
3,1207195,Control_c,0,74,85,
3,1207675,Control_c,0,74,86,
3,1207895,Control_c,0,74,87,
3,1208375,Control_c,0,74,86,
3,1208855,Control_c,0,74,86,
3,1209335,Control_c,0,74,86,
3,1209815,Control_c,0,74,86,
3,1210295,Control_c,0,74,86,
3,1210775,Control_c,0,74,86,
3,1210873,Control_c,0,74,86,
3,1211353,Control_c,0,74,84,
3,1211833,Control_c,0,74,82,
3,1212313,Control_c,0,74,80,
3,1212793,Control_c,0,74,78,
3,1213273,Control_c,0,74,77,
3,1213440,Note_off_c,0,73,0,
3,1213440,Note_on_c,0,64,58,
3,1213753,Control_c,0,74,75,
3,1214233,Control_c,0,74,73,
3,1214713,Control_c,0,74,71,
3,1215176,Control_c,0,74,70,
3,1215656,Control_c,0,74,69,
3,1216136,Control_c,0,74,68,
3,1216616,Control_c,0,74,67,
3,1217096,Control_c,0,74,66,
3,1217576,Control_c,0,74,66,
3,1218056,Control_c,0,74,65,
3,1218536,Control_c,0,74,64,
3,1219016,Control_c,0,74,63,
3,1219496,Control_c,0,74,63,
3,1219976,Control_c,0,74,62,
3,1220456,Control_c,0,74,61,
3,1220936,Control_c,0,74,60,
3,1221120,Note_off_c,0,64,0,
3,1221120,Note_on_c,0,66,62,
3,1221416,Control_c,0,74,60,
3,1221896,Control_c,0,74,59,
3,1222376,Control_c,0,74,58,
3,1222856,Control_c,0,74,57,
3,1223336,Control_c,0,74,57,
3,1223816,Control_c,0,74,56,
3,1224123,Control_c,0,74,56,
3,1224603,Control_c,0,74,56,
3,1225083,Control_c,0,74,56,
3,1225563,Control_c,0,74,56,
3,1226043,Control_c,0,74,57,
3,1226523,Control_c,0,74,57,
3,1227003,Control_c,0,74,57,
3,1227483,Control_c,0,74,58,
3,1227963,Control_c,0,74,58,
3,1228443,Control_c,0,74,58,
3,1228800,Note_off_c,0,66,0,
3,1228800,Note_on_c,0,68,43,
3,1228923,Control_c,0,74,59,
3,1229403,Control_c,0,74,59,
3,1229883,Control_c,0,74,59,
3,1230363,Control_c,0,74,59,
3,1230843,Control_c,0,74,60,
3,1231323,Control_c,0,74,60,
3,1231803,Control_c,0,74,60,
3,1232283,Control_c,0,74,61,
3,1232763,Control_c,0,74,61,
3,1233243,Control_c,0,74,61,
3,1233723,Control_c,0,74,62,
3,1234203,Control_c,0,74,62,
3,1234683,Control_c,0,74,62,
3,1235163,Control_c,0,74,63,
3,1235643,Control_c,0,74,63,
3,1236123,Control_c,0,74,63,
3,1236480,Note_off_c,0,68,0,
3,1236480,Note_on_c,0,71,36,
3,1236603,Control_c,0,74,63,
3,1237083,Control_c,0,74,64,
3,1237563,Control_c,0,74,64,
3,1238043,Control_c,0,74,64,
3,1238523,Control_c,0,74,65,
3,1239003,Control_c,0,74,65,
3,1239483,Control_c,0,74,65,
3,1239963,Control_c,0,74,66,
3,1240443,Control_c,0,74,66,
3,1240923,Control_c,0,74,66,
3,1241403,Control_c,0,74,67,
3,1241883,Control_c,0,74,67,
3,1242363,Control_c,0,74,67,
3,1242843,Control_c,0,74,67,
3,1243323,Control_c,0,74,68,
3,1243803,Control_c,0,74,68,
3,1244160,Note_off_c,0,52,0,
3,1244160,Note_off_c,0,71,0,
3,1244160,Note_on_c,0,54,44,
3,1244160,Note_on_c,0,66,45,
3,1244283,Control_c,0,74,68,
3,1244763,Control_c,0,74,69,
3,1245243,Control_c,0,74,69,
3,1245723,Control_c,0,74,69,
3,1246203,Control_c,0,74,70,
3,1246683,Control_c,0,74,70,
3,1247163,Control_c,0,74,70,
3,1247643,Control_c,0,74,71,
3,1248123,Control_c,0,74,71,
3,1248603,Control_c,0,74,71,
3,1249083,Control_c,0,74,71,
3,1249563,Control_c,0,74,72,
3,1250043,Control_c,0,74,72,
3,1250523,Control_c,0,74,72,
3,1250721,Control_c,0,74,73,
3,1251201,Control_c,0,74,73,
3,1251681,Control_c,0,74,73,
3,1251840,Note_off_c,0,66,0,
3,1251840,Note_on_c,0,68,48,
3,1252161,Control_c,0,74,73,
3,1252641,Control_c,0,74,73,
3,1253121,Control_c,0,74,73,
3,1253601,Control_c,0,74,73,
3,1254081,Control_c,0,74,73,
3,1254561,Control_c,0,74,73,
3,1254722,Control_c,0,74,74,
3,1255202,Control_c,0,74,74,
3,1255682,Control_c,0,74,75,
3,1256162,Control_c,0,74,76,
3,1256642,Control_c,0,74,77,
3,1257122,Control_c,0,74,77,
3,1257602,Control_c,0,74,78,
3,1258082,Control_c,0,74,79,
3,1258562,Control_c,0,74,80,
3,1259042,Control_c,0,74,81,
3,1259520,Note_off_c,0,68,0,
3,1259520,Note_on_c,0,69,36,
3,1259522,Control_c,0,74,81,
3,1260002,Control_c,0,74,82,
3,1260482,Control_c,0,74,83,
3,1260962,Control_c,0,74,84,
3,1261442,Control_c,0,74,85,
3,1261922,Control_c,0,74,85,
3,1262402,Control_c,0,74,86,
3,1262882,Control_c,0,74,87,
3,1263362,Control_c,0,74,88,
3,1263842,Control_c,0,74,89,
3,1264322,Control_c,0,74,89,
3,1264802,Control_c,0,74,90,
3,1265282,Control_c,0,74,91,
3,1265762,Control_c,0,74,92,
3,1266242,Control_c,0,74,92,
3,1266722,Control_c,0,74,93,
3,1267200,Note_off_c,0,69,0,
3,1267200,Note_on_c,0,73,45,
3,1267202,Control_c,0,74,94,
3,1267682,Control_c,0,74,95,
3,1268162,Control_c,0,74,96,
3,1268642,Control_c,0,74,96,
3,1269122,Control_c,0,74,97,
3,1269296,Control_c,0,74,98,
3,1269776,Control_c,0,74,97,
3,1270256,Control_c,0,74,96,
3,1270736,Control_c,0,74,95,
3,1271216,Control_c,0,74,94,
3,1271696,Control_c,0,74,93,
3,1272176,Control_c,0,74,92,
3,1272656,Control_c,0,74,91,
3,1273136,Control_c,0,74,90,
3,1273616,Control_c,0,74,90,
3,1274096,Control_c,0,74,89,
3,1274576,Control_c,0,74,88,
3,1274880,Note_off_c,0,73,0,
3,1274880,Note_on_c,0,66,65,
3,1275056,Control_c,0,74,87,
3,1275536,Control_c,0,74,86,
3,1276016,Control_c,0,74,85,
3,1276496,Control_c,0,74,84,
3,1276976,Control_c,0,74,83,
3,1277456,Control_c,0,74,83,
3,1277936,Control_c,0,74,82,
3,1278416,Control_c,0,74,81,
3,1278896,Control_c,0,74,80,
3,1279376,Control_c,0,74,79,
3,1279856,Control_c,0,74,78,
3,1280336,Control_c,0,74,77,
3,1280816,Control_c,0,74,76,
3,1281296,Control_c,0,74,75,
3,1281776,Control_c,0,74,75,
3,1282256,Control_c,0,74,74,
3,1282560,Note_off_c,0,66,0,
3,1282560,Note_on_c,0,68,34,
3,1282736,Control_c,0,74,73,
3,1282927,Control_c,0,74,73,
3,1283407,Control_c,0,74,72,
3,1283887,Control_c,0,74,72,
3,1284367,Control_c,0,74,72,
3,1284847,Control_c,0,74,72,
3,1285327,Control_c,0,74,72,
3,1285807,Control_c,0,74,71,
3,1286287,Control_c,0,74,71,
3,1286767,Control_c,0,74,71,
3,1287247,Control_c,0,74,71,
3,1287727,Control_c,0,74,71,
3,1288207,Control_c,0,74,71,
3,1288687,Control_c,0,74,70,
3,1289167,Control_c,0,74,70,
3,1289647,Control_c,0,74,70,
3,1290127,Control_c,0,74,70,
3,1290240,Note_off_c,0,68,0,
3,1290240,Note_on_c,0,69,46,
3,1290607,Control_c,0,74,70,
3,1291087,Control_c,0,74,70,
3,1291567,Control_c,0,74,69,
3,1292047,Control_c,0,74,69,
3,1292527,Control_c,0,74,69,
3,1293007,Control_c,0,74,69,
3,1293487,Control_c,0,74,69,
3,1293967,Control_c,0,74,68,
3,1294447,Control_c,0,74,68,
3,1294927,Control_c,0,74,68,
3,1295407,Control_c,0,74,68,
3,1295887,Control_c,0,74,68,
3,1296367,Control_c,0,74,68,
3,1296847,Control_c,0,74,67,
3,1297327,Control_c,0,74,67,
3,1297807,Control_c,0,74,67,
3,1297920,Note_off_c,0,69,0,
3,1297920,Note_on_c,0,71,56,
3,1298287,Control_c,0,74,67,
3,1298767,Control_c,0,74,67,
3,1299247,Control_c,0,74,67,
3,1299727,Control_c,0,74,66,
3,1300207,Control_c,0,74,66,
3,1300687,Control_c,0,74,66,
3,1301167,Control_c,0,74,66,
3,1301647,Control_c,0,74,66,
3,1302127,Control_c,0,74,65,
3,1302607,Control_c,0,74,65,
3,1303087,Control_c,0,74,65,
3,1303567,Control_c,0,74,65,
3,1304047,Control_c,0,74,65,
3,1304527,Control_c,0,74,65,
3,1305007,Control_c,0,74,64,
3,1305487,Control_c,0,74,64,
3,1305600,Note_off_c,0,71,0,
3,1305600,Note_on_c,0,66,56,
3,1305967,Control_c,0,74,64,
3,1306447,Control_c,0,74,64,
3,1306927,Control_c,0,74,64,
3,1307407,Control_c,0,74,64,
3,1307504,Control_c,0,74,64,
3,1307984,Control_c,0,74,64,
3,1308464,Control_c,0,74,65,
3,1308944,Control_c,0,74,65,
3,1309424,Control_c,0,74,66,
3,1309904,Control_c,0,74,66,
3,1310384,Control_c,0,74,67,
3,1310864,Control_c,0,74,68,
3,1311344,Control_c,0,74,68,
3,1311824,Control_c,0,74,69,
3,1312304,Control_c,0,74,69,
3,1312784,Control_c,0,74,70,
3,1313264,Control_c,0,74,70,
3,1313280,Note_off_c,0,66,0,
3,1313280,Note_on_c,0,68,48,
3,1313744,Control_c,0,74,71,
3,1314224,Control_c,0,74,72,
3,1314704,Control_c,0,74,72,
3,1315184,Control_c,0,74,73,
3,1315664,Control_c,0,74,73,
3,1316144,Control_c,0,74,74,
3,1316624,Control_c,0,74,74,
3,1317104,Control_c,0,74,75,
3,1317584,Control_c,0,74,76,
3,1318064,Control_c,0,74,76,
3,1318544,Control_c,0,74,77,
3,1319024,Control_c,0,74,77,
3,1319504,Control_c,0,74,78,
3,1319984,Control_c,0,74,79,
3,1320464,Control_c,0,74,79,
3,1320944,Control_c,0,74,80,
3,1320960,Note_off_c,0,68,0,
3,1320960,Note_on_c,0,69,58,
3,1321424,Control_c,0,74,80,
3,1321904,Control_c,0,74,81,
3,1322384,Control_c,0,74,81,
3,1322439,Control_c,0,74,82,
3,1322919,Control_c,0,74,83,
3,1323399,Control_c,0,74,84,
3,1323879,Control_c,0,74,85,
3,1324359,Control_c,0,74,86,
3,1324839,Control_c,0,74,87,
3,1325319,Control_c,0,74,88,
3,1325799,Control_c,0,74,89,
3,1326279,Control_c,0,74,91,
3,1326759,Control_c,0,74,92,
3,1327239,Control_c,0,74,93,
3,1327719,Control_c,0,74,94,
3,1328199,Control_c,0,74,95,
3,1328640,Note_off_c,0,69,0,
3,1328640,Note_on_c,0,73,44,
3,1328679,Control_c,0,74,96,
3,1329159,Control_c,0,74,97,
3,1329639,Control_c,0,74,99,
3,1330048,Control_c,0,74,100,
3,1330528,Control_c,0,74,99,
3,1331008,Control_c,0,74,98,
3,1331488,Control_c,0,74,97,
3,1331968,Control_c,0,74,96,
3,1332448,Control_c,0,74,95,
3,1332928,Control_c,0,74,94,
3,1333408,Control_c,0,74,93,
3,1333888,Control_c,0,74,92,
3,1334368,Control_c,0,74,91,
3,1334848,Control_c,0,74,91,
3,1335328,Control_c,0,74,90,
3,1335808,Control_c,0,74,89,
3,1336288,Control_c,0,74,88,
3,1336320,Note_off_c,0,73,0,
3,1336320,Note_on_c,0,66,58,
3,1336768,Control_c,0,74,87,
3,1337248,Control_c,0,74,86,
3,1337728,Control_c,0,74,85,
3,1338208,Control_c,0,74,84,
3,1338688,Control_c,0,74,83,
3,1339168,Control_c,0,74,82,
3,1339648,Control_c,0,74,82,
3,1340128,Control_c,0,74,81,
3,1340608,Control_c,0,74,80,
3,1341088,Control_c,0,74,79,
3,1341568,Control_c,0,74,78,
3,1342048,Control_c,0,74,77,
3,1342373,Control_c,0,74,77,
3,1342853,Control_c,0,74,76,
3,1343333,Control_c,0,74,76,
3,1343813,Control_c,0,74,75,
3,1344000,Note_off_c,0,66,0,
3,1344000,Note_on_c,0,68,39,
3,1344293,Control_c,0,74,75,
3,1344773,Control_c,0,74,75,
3,1345253,Control_c,0,74,74,
3,1345733,Control_c,0,74,74,
3,1346213,Control_c,0,74,73,
3,1346693,Control_c,0,74,73,
3,1347173,Control_c,0,74,73,
3,1347653,Control_c,0,74,72,
3,1348133,Control_c,0,74,72,
3,1348613,Control_c,0,74,72,
3,1349093,Control_c,0,74,71,
3,1349573,Control_c,0,74,71,
3,1350053,Control_c,0,74,70,
3,1350533,Control_c,0,74,70,
3,1351013,Control_c,0,74,70,
3,1351493,Control_c,0,74,69,
3,1351680,Note_off_c,0,68,0,
3,1351680,Note_on_c,0,69,73,
3,1351973,Control_c,0,74,69,
3,1352453,Control_c,0,74,68,
3,1352933,Control_c,0,74,68,
3,1353413,Control_c,0,74,68,
3,1353893,Control_c,0,74,67,
3,1354373,Control_c,0,74,67,
3,1354853,Control_c,0,74,67,
3,1355333,Control_c,0,74,66,
3,1355813,Control_c,0,74,66,
3,1356293,Control_c,0,74,65,
3,1356773,Control_c,0,74,65,
3,1357253,Control_c,0,74,65,
3,1357733,Control_c,0,74,64,
3,1358213,Control_c,0,74,64,
3,1358613,Control_c,0,74,64,
3,1359093,Control_c,0,74,64,
3,1359360,Note_off_c,0,69,0,
3,1359360,Note_on_c,0,71,85,
3,1359573,Control_c,0,74,64,
3,1360053,Control_c,0,74,64,
3,1360533,Control_c,0,74,64,
3,1361013,Control_c,0,74,64,
3,1361493,Control_c,0,74,64,
3,1361973,Control_c,0,74,64,
3,1362453,Control_c,0,74,64,
3,1362933,Control_c,0,74,64,
3,1363413,Control_c,0,74,64,
3,1363893,Control_c,0,74,64,
3,1364373,Control_c,0,74,64,
3,1364853,Control_c,0,74,64,
3,1364917,Control_c,0,74,65,
3,1365397,Control_c,0,74,65,
3,1365877,Control_c,0,74,66,
3,1366357,Control_c,0,74,66,
3,1366837,Control_c,0,74,67,
3,1367040,Note_off_c,0,54,0,
3,1367040,Note_off_c,0,71,0,
3,1367040,Note_on_c,0,56,59,
3,1367040,Note_on_c,0,68,44,
3,1367317,Control_c,0,74,67,
3,1367797,Control_c,0,74,68,
3,1368277,Control_c,0,74,68,
3,1368757,Control_c,0,74,69,
3,1369237,Control_c,0,74,70,
3,1369717,Control_c,0,74,70,
3,1370197,Control_c,0,74,71,
3,1370677,Control_c,0,74,71,
3,1371157,Control_c,0,74,72,
3,1371637,Control_c,0,74,72,
3,1372117,Control_c,0,74,73,
3,1372597,Control_c,0,74,74,
3,1373077,Control_c,0,74,74,
3,1373557,Control_c,0,74,75,
3,1374037,Control_c,0,74,75,
3,1374517,Control_c,0,74,76,
3,1374720,Note_off_c,0,68,0,
3,1374720,Note_on_c,0,69,20,
3,1374997,Control_c,0,74,76,
3,1375477,Control_c,0,74,77,
3,1375957,Control_c,0,74,77,
3,1376437,Control_c,0,74,78,
3,1376917,Control_c,0,74,79,
3,1377397,Control_c,0,74,79,
3,1377877,Control_c,0,74,80,
3,1378357,Control_c,0,74,80,
3,1378837,Control_c,0,74,81,
3,1379317,Control_c,0,74,81,
3,1379797,Control_c,0,74,82,
3,1380277,Control_c,0,74,83,
3,1380757,Control_c,0,74,83,
3,1381237,Control_c,0,74,84,
3,1381717,Control_c,0,74,84,
3,1382197,Control_c,0,74,85,
3,1382400,Note_off_c,0,69,0,
3,1382400,Note_on_c,0,71,54,
3,1382677,Control_c,0,74,85,
3,1383157,Control_c,0,74,86,
3,1383637,Control_c,0,74,86,
3,1384117,Control_c,0,74,87,
3,1384597,Control_c,0,74,88,
3,1385077,Control_c,0,74,88,
3,1385557,Control_c,0,74,89,
3,1386037,Control_c,0,74,89,
3,1386517,Control_c,0,74,90,
3,1386997,Control_c,0,74,90,
3,1387477,Control_c,0,74,91,
3,1387957,Control_c,0,74,92,
3,1388437,Control_c,0,74,92,
3,1388917,Control_c,0,74,93,
3,1389397,Control_c,0,74,93,
3,1389877,Control_c,0,74,94,
3,1390080,Note_off_c,0,71,0,
3,1390080,Note_on_c,0,75,34,
3,1390357,Control_c,0,74,94,
3,1390837,Control_c,0,74,95,
3,1391317,Control_c,0,74,95,
3,1391797,Control_c,0,74,96,
3,1392177,Control_c,0,74,97,
3,1392657,Control_c,0,74,96,
3,1393137,Control_c,0,74,96,
3,1393617,Control_c,0,74,96,
3,1394097,Control_c,0,74,96,
3,1394577,Control_c,0,74,96,
3,1395057,Control_c,0,74,96,
3,1395537,Control_c,0,74,95,
3,1396017,Control_c,0,74,95,
3,1396497,Control_c,0,74,95,
3,1396977,Control_c,0,74,95,
3,1397457,Control_c,0,74,95,
3,1397760,Note_off_c,0,75,0,
3,1397760,Note_on_c,0,68,76,
3,1397937,Control_c,0,74,95,
3,1398146,Control_c,0,74,95,
3,1398626,Control_c,0,74,93,
3,1399106,Control_c,0,74,92,
3,1399586,Control_c,0,74,91,
3,1400066,Control_c,0,74,90,
3,1400546,Control_c,0,74,89,
3,1401026,Control_c,0,74,88,
3,1401506,Control_c,0,74,87,
3,1401986,Control_c,0,74,86,
3,1402466,Control_c,0,74,85,
3,1402946,Control_c,0,74,84,
3,1403426,Control_c,0,74,83,
3,1403906,Control_c,0,74,82,
3,1404386,Control_c,0,74,81,
3,1404866,Control_c,0,74,80,
3,1405346,Control_c,0,74,79,
3,1405440,Note_off_c,0,68,0,
3,1405440,Note_on_c,0,69,47,
3,1405826,Control_c,0,74,78,
3,1406306,Control_c,0,74,77,
3,1406786,Control_c,0,74,76,
3,1407266,Control_c,0,74,75,
3,1407746,Control_c,0,74,74,
3,1407755,Control_c,0,74,74,
3,1408235,Control_c,0,74,73,
3,1408715,Control_c,0,74,73,
3,1409195,Control_c,0,74,73,
3,1409675,Control_c,0,74,73,
3,1410155,Control_c,0,74,72,
3,1410635,Control_c,0,74,72,
3,1411115,Control_c,0,74,72,
3,1411595,Control_c,0,74,72,
3,1412075,Control_c,0,74,71,
3,1412555,Control_c,0,74,71,
3,1413035,Control_c,0,74,71,
3,1413120,Note_off_c,0,69,0,
3,1413120,Note_on_c,0,71,50,
3,1413515,Control_c,0,74,71,
3,1413995,Control_c,0,74,70,
3,1414475,Control_c,0,74,70,
3,1414955,Control_c,0,74,70,
3,1415435,Control_c,0,74,70,
3,1415915,Control_c,0,74,69,
3,1416395,Control_c,0,74,69,
3,1416875,Control_c,0,74,69,
3,1417355,Control_c,0,74,69,
3,1417835,Control_c,0,74,68,
3,1418315,Control_c,0,74,68,
3,1418795,Control_c,0,74,68,
3,1419275,Control_c,0,74,68,
3,1419755,Control_c,0,74,67,
3,1420235,Control_c,0,74,67,
3,1420715,Control_c,0,74,67,
3,1420800,Note_off_c,0,71,0,
3,1420800,Note_on_c,0,73,54,
3,1421195,Control_c,0,74,67,
3,1421675,Control_c,0,74,67,
3,1422155,Control_c,0,74,66,
3,1422635,Control_c,0,74,66,
3,1423115,Control_c,0,74,66,
3,1423595,Control_c,0,74,66,
3,1424075,Control_c,0,74,65,
3,1424555,Control_c,0,74,65,
3,1425035,Control_c,0,74,65,
3,1425515,Control_c,0,74,65,
3,1425995,Control_c,0,74,64,
3,1426475,Control_c,0,74,64,
3,1426955,Control_c,0,74,64,
3,1427435,Control_c,0,74,64,
3,1427656,Control_c,0,74,64,
3,1428136,Control_c,0,74,64,
3,1428480,Note_off_c,0,73,0,
3,1428480,Note_on_c,0,68,85,
3,1428616,Control_c,0,74,64,
3,1429096,Control_c,0,74,64,
3,1429576,Control_c,0,74,64,
3,1430056,Control_c,0,74,64,
3,1430536,Control_c,0,74,64,
3,1431016,Control_c,0,74,65,
3,1431496,Control_c,0,74,65,
3,1431976,Control_c,0,74,65,
3,1432456,Control_c,0,74,65,
3,1432936,Control_c,0,74,65,
3,1433416,Control_c,0,74,65,
3,1433896,Control_c,0,74,65,
3,1433992,Control_c,0,74,66,
3,1434472,Control_c,0,74,66,
3,1434952,Control_c,0,74,67,
3,1435432,Control_c,0,74,68,
3,1435912,Control_c,0,74,69,
3,1436160,Note_off_c,0,68,0,
3,1436160,Note_on_c,0,69,50,
3,1436392,Control_c,0,74,70,
3,1436872,Control_c,0,74,70,
3,1437352,Control_c,0,74,71,
3,1437832,Control_c,0,74,72,
3,1438312,Control_c,0,74,73,
3,1438792,Control_c,0,74,74,
3,1439272,Control_c,0,74,75,
3,1439752,Control_c,0,74,75,
3,1440232,Control_c,0,74,76,
3,1440712,Control_c,0,74,77,
3,1441192,Control_c,0,74,78,
3,1441672,Control_c,0,74,79,
3,1442152,Control_c,0,74,80,
3,1442632,Control_c,0,74,80,
3,1443112,Control_c,0,74,81,
3,1443592,Control_c,0,74,82,
3,1443840,Note_off_c,0,69,0,
3,1443840,Note_on_c,0,71,45,
3,1444072,Control_c,0,74,83,
3,1444552,Control_c,0,74,84,
3,1445032,Control_c,0,74,85,
3,1445512,Control_c,0,74,85,
3,1445992,Control_c,0,74,86,
3,1446472,Control_c,0,74,87,
3,1446952,Control_c,0,74,88,
3,1447432,Control_c,0,74,89,
3,1447912,Control_c,0,74,89,
3,1448392,Control_c,0,74,90,
3,1448872,Control_c,0,74,91,
3,1449352,Control_c,0,74,92,
3,1449832,Control_c,0,74,93,
3,1450253,Control_c,0,74,94,
3,1450733,Control_c,0,74,93,
3,1451213,Control_c,0,74,93,
3,1451520,Note_off_c,0,71,0,
3,1451520,Note_on_c,0,75,61,
3,1451693,Control_c,0,74,93,
3,1452173,Control_c,0,74,93,
3,1452653,Control_c,0,74,93,
3,1453133,Control_c,0,74,93,
3,1453613,Control_c,0,74,93,
3,1454093,Control_c,0,74,93,
3,1454573,Control_c,0,74,93,
3,1454929,Control_c,0,74,93,
3,1455409,Control_c,0,74,91,
3,1455889,Control_c,0,74,89,
3,1456369,Control_c,0,74,87,
3,1456849,Control_c,0,74,85,
3,1457329,Control_c,0,74,83,
3,1457809,Control_c,0,74,82,
3,1458289,Control_c,0,74,80,
3,1458769,Control_c,0,74,78,
3,1459200,Note_off_c,0,75,0,
3,1459200,Note_on_c,0,68,48,
3,1459249,Control_c,0,74,76,
3,1459729,Control_c,0,74,74,
3,1459915,Control_c,0,74,74,
3,1460395,Control_c,0,74,73,
3,1460875,Control_c,0,74,72,
3,1461355,Control_c,0,74,72,
3,1461835,Control_c,0,74,71,
3,1462315,Control_c,0,74,71,
3,1462795,Control_c,0,74,70,
3,1463275,Control_c,0,74,70,
3,1463755,Control_c,0,74,69,
3,1464235,Control_c,0,74,69,
3,1464715,Control_c,0,74,68,
3,1465195,Control_c,0,74,68,
3,1465675,Control_c,0,74,67,
3,1466155,Control_c,0,74,67,
3,1466635,Control_c,0,74,66,
3,1466880,Note_off_c,0,68,0,
3,1466880,Note_on_c,0,69,44,
3,1467115,Control_c,0,74,66,
3,1467595,Control_c,0,74,65,
3,1468075,Control_c,0,74,65,
3,1468555,Control_c,0,74,64,
3,1469035,Control_c,0,74,64,
3,1469189,Control_c,0,74,64,
3,1469669,Control_c,0,74,63,
3,1470149,Control_c,0,74,63,
3,1470629,Control_c,0,74,63,
3,1471109,Control_c,0,74,63,
3,1471589,Control_c,0,74,63,
3,1472069,Control_c,0,74,63,
3,1472549,Control_c,0,74,63,
3,1473029,Control_c,0,74,63,
3,1473509,Control_c,0,74,63,
3,1473989,Control_c,0,74,63,
3,1474469,Control_c,0,74,63,
3,1474560,Note_off_c,0,69,0,
3,1474560,Note_on_c,0,71,58,
3,1474949,Control_c,0,74,63,
3,1475429,Control_c,0,74,63,
3,1475909,Control_c,0,74,63,
3,1476389,Control_c,0,74,62,
3,1476869,Control_c,0,74,62,
3,1477349,Control_c,0,74,62,
3,1477829,Control_c,0,74,62,
3,1478309,Control_c,0,74,62,
3,1478789,Control_c,0,74,62,
3,1479269,Control_c,0,74,62,
3,1479749,Control_c,0,74,62,
3,1480229,Control_c,0,74,62,
3,1480709,Control_c,0,74,62,
3,1481189,Control_c,0,74,62,
3,1481669,Control_c,0,74,62,
3,1482149,Control_c,0,74,62,
3,1482240,Note_off_c,0,71,0,
3,1482240,Note_on_c,0,73,69,
3,1482629,Control_c,0,74,62,
3,1482820,Control_c,0,74,62,
3,1483300,Control_c,0,74,62,
3,1483780,Control_c,0,74,63,
3,1484260,Control_c,0,74,63,
3,1484740,Control_c,0,74,64,
3,1485220,Control_c,0,74,64,
3,1485700,Control_c,0,74,65,
3,1486180,Control_c,0,74,66,
3,1486660,Control_c,0,74,66,
3,1487140,Control_c,0,74,67,
3,1487620,Control_c,0,74,67,
3,1488100,Control_c,0,74,68,
3,1488580,Control_c,0,74,68,
3,1489060,Control_c,0,74,69,
3,1489540,Control_c,0,74,70,
3,1489920,Note_off_c,0,56,0,
3,1489920,Note_off_c,0,73,0,
3,1489920,Note_on_c,0,57,35,
3,1489920,Note_on_c,0,69,61,
3,1490020,Control_c,0,74,70,
3,1490500,Control_c,0,74,71,
3,1490980,Control_c,0,74,71,
3,1491460,Control_c,0,74,72,
3,1491940,Control_c,0,74,73,
3,1492420,Control_c,0,74,73,
3,1492900,Control_c,0,74,74,
3,1493380,Control_c,0,74,74,
3,1493860,Control_c,0,74,75,
3,1494340,Control_c,0,74,75,
3,1494820,Control_c,0,74,76,
3,1495300,Control_c,0,74,77,
3,1495780,Control_c,0,74,77,
3,1496260,Control_c,0,74,78,
3,1496740,Control_c,0,74,78,
3,1497220,Control_c,0,74,79,
3,1497600,Note_off_c,0,69,0,
3,1497600,Note_on_c,0,71,38,
3,1497700,Control_c,0,74,80,
3,1498180,Control_c,0,74,80,
3,1498660,Control_c,0,74,81,
3,1499140,Control_c,0,74,81,
3,1499620,Control_c,0,74,82,
3,1500100,Control_c,0,74,82,
3,1500580,Control_c,0,74,83,
3,1501060,Control_c,0,74,84,
3,1501540,Control_c,0,74,84,
3,1502020,Control_c,0,74,85,
3,1502500,Control_c,0,74,85,
3,1502980,Control_c,0,74,86,
3,1503460,Control_c,0,74,87,
3,1503940,Control_c,0,74,87,
3,1504420,Control_c,0,74,88,
3,1504900,Control_c,0,74,88,
3,1505280,Note_off_c,0,71,0,
3,1505280,Note_on_c,0,73,47,
3,1505380,Control_c,0,74,89,
3,1505860,Control_c,0,74,89,
3,1506340,Control_c,0,74,90,
3,1506820,Control_c,0,74,91,
3,1507300,Control_c,0,74,91,
3,1507780,Control_c,0,74,92,
3,1508260,Control_c,0,74,92,
3,1508740,Control_c,0,74,93,
3,1509220,Control_c,0,74,94,
3,1509700,Control_c,0,74,94,
3,1510027,Control_c,0,74,95,
3,1510507,Control_c,0,74,95,
3,1510987,Control_c,0,74,95,
3,1511467,Control_c,0,74,96,
3,1511947,Control_c,0,74,96,
3,1512427,Control_c,0,74,96,
3,1512907,Control_c,0,74,97,
3,1512960,Note_off_c,0,73,0,
3,1512960,Note_on_c,0,76,49,
3,1513387,Control_c,0,74,97,
3,1513700,Control_c,0,74,98,
3,1514180,Control_c,0,74,95,
3,1514660,Control_c,0,74,92,
3,1515140,Control_c,0,74,89,
3,1515620,Control_c,0,74,86,
3,1516100,Control_c,0,74,84,
3,1516580,Control_c,0,74,81,
3,1517060,Control_c,0,74,78,
3,1517308,Control_c,0,74,77,
3,1517788,Control_c,0,74,76,
3,1518268,Control_c,0,74,75,
3,1518748,Control_c,0,74,74,
3,1519228,Control_c,0,74,73,
3,1519708,Control_c,0,74,72,
3,1520188,Control_c,0,74,72,
3,1520640,Note_off_c,0,76,0,
3,1520640,Note_on_c,0,69,60,
3,1520668,Control_c,0,74,71,
3,1521148,Control_c,0,74,70,
3,1521628,Control_c,0,74,69,
3,1522108,Control_c,0,74,68,
3,1522588,Control_c,0,74,67,
3,1523068,Control_c,0,74,67,
3,1523548,Control_c,0,74,66,
3,1524028,Control_c,0,74,65,
3,1524254,Control_c,0,74,65,
3,1524734,Control_c,0,74,65,
3,1525214,Control_c,0,74,66,
3,1525694,Control_c,0,74,67,
3,1526174,Control_c,0,74,67,
3,1526654,Control_c,0,74,68,
3,1527134,Control_c,0,74,69,
3,1527614,Control_c,0,74,70,
3,1528094,Control_c,0,74,70,
3,1528320,Note_off_c,0,69,0,
3,1528320,Note_on_c,0,71,36,
3,1528574,Control_c,0,74,71,
3,1529054,Control_c,0,74,72,
3,1529534,Control_c,0,74,72,
3,1530014,Control_c,0,74,73,
3,1530494,Control_c,0,74,74,
3,1530974,Control_c,0,74,75,
3,1531454,Control_c,0,74,75,
3,1531934,Control_c,0,74,76,
3,1532414,Control_c,0,74,77,
3,1532894,Control_c,0,74,77,
3,1533374,Control_c,0,74,78,
3,1533854,Control_c,0,74,79,
3,1534334,Control_c,0,74,80,
3,1534814,Control_c,0,74,80,
3,1535294,Control_c,0,74,81,
3,1535774,Control_c,0,74,82,
3,1536000,Note_off_c,0,71,0,
3,1536000,Note_on_c,0,73,47,
3,1536254,Control_c,0,74,83,
3,1536734,Control_c,0,74,83,
3,1537214,Control_c,0,74,84,
3,1537694,Control_c,0,74,85,
3,1538174,Control_c,0,74,85,
3,1538654,Control_c,0,74,86,
3,1539134,Control_c,0,74,87,
3,1539614,Control_c,0,74,88,
3,1540094,Control_c,0,74,88,
3,1540574,Control_c,0,74,89,
3,1541054,Control_c,0,74,90,
3,1541534,Control_c,0,74,90,
3,1542014,Control_c,0,74,91,
3,1542494,Control_c,0,74,92,
3,1542974,Control_c,0,74,93,
3,1543454,Control_c,0,74,93,
3,1543680,Note_off_c,0,73,0,
3,1543680,Note_on_c,0,76,75,
3,1543934,Control_c,0,74,94,
3,1544414,Control_c,0,74,95,
3,1544894,Control_c,0,74,95,
3,1545374,Control_c,0,74,96,
3,1545854,Control_c,0,74,97,
3,1546334,Control_c,0,74,98,
3,1546814,Control_c,0,74,98,
3,1547294,Control_c,0,74,99,
3,1547559,Control_c,0,74,100,
3,1548039,Control_c,0,74,98,
3,1548519,Control_c,0,74,97,
3,1548999,Control_c,0,74,96,
3,1549479,Control_c,0,74,95,
3,1549959,Control_c,0,74,94,
3,1550439,Control_c,0,74,93,
3,1550919,Control_c,0,74,91,
3,1551360,Note_off_c,0,76,0,
3,1551360,Note_on_c,0,69,79,
3,1551399,Control_c,0,74,90,
3,1551879,Control_c,0,74,89,
3,1552359,Control_c,0,74,88,
3,1552839,Control_c,0,74,87,
3,1553319,Control_c,0,74,86,
3,1553799,Control_c,0,74,85,
3,1554279,Control_c,0,74,83,
3,1554759,Control_c,0,74,82,
3,1555239,Control_c,0,74,81,
3,1555719,Control_c,0,74,80,
3,1556199,Control_c,0,74,79,
3,1556679,Control_c,0,74,78,
3,1557159,Control_c,0,74,77,
3,1557639,Control_c,0,74,75,
3,1558119,Control_c,0,74,74,
3,1558599,Control_c,0,74,73,
3,1559040,Note_off_c,0,69,0,
3,1559040,Note_on_c,0,71,51,
3,1559079,Control_c,0,74,72,
3,1559559,Control_c,0,74,71,
3,1560039,Control_c,0,74,70,
3,1560146,Control_c,0,74,70,
3,1560626,Control_c,0,74,70,
3,1561106,Control_c,0,74,70,
3,1561586,Control_c,0,74,70,
3,1562066,Control_c,0,74,70,
3,1562546,Control_c,0,74,70,
3,1563026,Control_c,0,74,70,
3,1563506,Control_c,0,74,70,
3,1563986,Control_c,0,74,70,
3,1564462,Control_c,0,74,71,
3,1564942,Control_c,0,74,72,
3,1565422,Control_c,0,74,73,
3,1565902,Control_c,0,74,75,
3,1566382,Control_c,0,74,76,
3,1566720,Note_off_c,0,71,0,
3,1566720,Note_on_c,0,73,56,
3,1566862,Control_c,0,74,78,
3,1567342,Control_c,0,74,79,
3,1567822,Control_c,0,74,80,
3,1568302,Control_c,0,74,82,
3,1568782,Control_c,0,74,83,
3,1569262,Control_c,0,74,85,
3,1569742,Control_c,0,74,86,
3,1570222,Control_c,0,74,87,
3,1570702,Control_c,0,74,89,
3,1571182,Control_c,0,74,90,
3,1571662,Control_c,0,74,92,
3,1572142,Control_c,0,74,93,
3,1572622,Control_c,0,74,94,
3,1573102,Control_c,0,74,96,
3,1573582,Control_c,0,74,97,
3,1574062,Control_c,0,74,99,
3,1574400,Note_off_c,0,73,0,
3,1574400,Note_on_c,0,76,57,
3,1574542,Control_c,0,74,100,
3,1575022,Control_c,0,74,101,
3,1575502,Control_c,0,74,103,
3,1575982,Control_c,0,74,104,
3,1576092,Control_c,0,74,105,
3,1576572,Control_c,0,74,104,
3,1577052,Control_c,0,74,104,
3,1577532,Control_c,0,74,104,
3,1578012,Control_c,0,74,104,
3,1578492,Control_c,0,74,104,
3,1578972,Control_c,0,74,104,
3,1579452,Control_c,0,74,104,
3,1579932,Control_c,0,74,104,
3,1580412,Control_c,0,74,104,
3,1580892,Control_c,0,74,104,
3,1581070,Control_c,0,74,104,
3,1581550,Control_c,0,74,102,
3,1582030,Control_c,0,74,101,
3,1582080,Note_off_c,0,76,0,
3,1582080,Note_on_c,0,69,77,
3,1582510,Control_c,0,74,99,
3,1582990,Control_c,0,74,98,
3,1583470,Control_c,0,74,96,
3,1583950,Control_c,0,74,95,
3,1584430,Control_c,0,74,93,
3,1584910,Control_c,0,74,92,
3,1585390,Control_c,0,74,90,
3,1585870,Control_c,0,74,89,
3,1586350,Control_c,0,74,87,
3,1586830,Control_c,0,74,86,
3,1587310,Control_c,0,74,84,
3,1587790,Control_c,0,74,83,
3,1588270,Control_c,0,74,81,
3,1588750,Control_c,0,74,80,
3,1589230,Control_c,0,74,78,
3,1589710,Control_c,0,74,77,
3,1589760,Note_off_c,0,69,0,
3,1589760,Note_on_c,0,71,51,
3,1590190,Control_c,0,74,75,
3,1590670,Control_c,0,74,74,
3,1591150,Control_c,0,74,72,
3,1591630,Control_c,0,74,71,
3,1592005,Control_c,0,74,70,
3,1592485,Control_c,0,74,70,
3,1592965,Control_c,0,74,71,
3,1593445,Control_c,0,74,72,
3,1593925,Control_c,0,74,73,
3,1594405,Control_c,0,74,74,
3,1594885,Control_c,0,74,75,
3,1595365,Control_c,0,74,76,
3,1595845,Control_c,0,74,77,
3,1596325,Control_c,0,74,77,
3,1596805,Control_c,0,74,78,
3,1597285,Control_c,0,74,79,
3,1597440,Note_off_c,0,71,0,
3,1597440,Note_on_c,0,73,50,
3,1597765,Control_c,0,74,80,
3,1598245,Control_c,0,74,81,
3,1598725,Control_c,0,74,82,
3,1599205,Control_c,0,74,83,
3,1599685,Control_c,0,74,84,
3,1600165,Control_c,0,74,84,
3,1600645,Control_c,0,74,85,
3,1601125,Control_c,0,74,86,
3,1601605,Control_c,0,74,87,
3,1602085,Control_c,0,74,88,
3,1602565,Control_c,0,74,89,
3,1603045,Control_c,0,74,90,
3,1603525,Control_c,0,74,91,
3,1604005,Control_c,0,74,91,
3,1604485,Control_c,0,74,92,
3,1604965,Control_c,0,74,93,
3,1605120,Note_off_c,0,73,0,
3,1605120,Note_on_c,0,76,50,
3,1605445,Control_c,0,74,94,
3,1605925,Control_c,0,74,95,
3,1606405,Control_c,0,74,96,
3,1606885,Control_c,0,74,97,
3,1607365,Control_c,0,74,98,
3,1607845,Control_c,0,74,98,
3,1608325,Control_c,0,74,99,
3,1608805,Control_c,0,74,100,
3,1609285,Control_c,0,74,101,
3,1609765,Control_c,0,74,102,
3,1610245,Control_c,0,74,103,
3,1610725,Control_c,0,74,104,
3,1611205,Control_c,0,74,105,
3,1611685,Control_c,0,74,105,
3,1612165,Control_c,0,74,106,
3,1612645,Control_c,0,74,107,
3,1612800,Note_off_c,0,57,0,
3,1612800,Note_off_c,0,76,0,
3,1612800,Note_on_c,0,57,35,
3,1612800,Note_on_c,0,69,80,
3,1612800,Note_on_c,0,88,100,
3,1612800,Control_c,0,74,108,
3,1620480,Note_off_c,0,69,0,
3,1620480,Note_on_c,0,71,48,
3,1628160,Note_off_c,0,71,0,
3,1628160,Note_on_c,0,73,50,
3,1628713,Control_c,0,74,108,
3,1629193,Control_c,0,74,105,
3,1629673,Control_c,0,74,103,
3,1630153,Control_c,0,74,101,
3,1630633,Control_c,0,74,99,
3,1631113,Control_c,0,74,97,
3,1631222,Control_c,0,74,97,
3,1631702,Control_c,0,74,96,
3,1632182,Control_c,0,74,96,
3,1632662,Control_c,0,74,96,
3,1633142,Control_c,0,74,96,
3,1633622,Control_c,0,74,96,
3,1634102,Control_c,0,74,96,
3,1634582,Control_c,0,74,96,
3,1635062,Control_c,0,74,96,
3,1635542,Control_c,0,74,96,
3,1635840,Note_off_c,0,73,0,
3,1635840,Note_on_c,0,76,57,
3,1636022,Control_c,0,74,96,
3,1636502,Control_c,0,74,96,
3,1636982,Control_c,0,74,96,
3,1637462,Control_c,0,74,96,
3,1637942,Control_c,0,74,96,
3,1638422,Control_c,0,74,96,
3,1638902,Control_c,0,74,96,
3,1639382,Control_c,0,74,96,
3,1639862,Control_c,0,74,96,
3,1640342,Control_c,0,74,96,
3,1640822,Control_c,0,74,96,
3,1641302,Control_c,0,74,96,
3,1641782,Control_c,0,74,96,
3,1642262,Control_c,0,74,96,
3,1642742,Control_c,0,74,96,
3,1643222,Control_c,0,74,96,
3,1643520,Note_off_c,0,76,0,
3,1643520,Note_on_c,0,69,79,
3,1643702,Control_c,0,74,96,
3,1644182,Control_c,0,74,96,
3,1644662,Control_c,0,74,96,
3,1645142,Control_c,0,74,96,
3,1645622,Control_c,0,74,96,
3,1646102,Control_c,0,74,96,
3,1646582,Control_c,0,74,96,
3,1647062,Control_c,0,74,96,
3,1647542,Control_c,0,74,96,
3,1648022,Control_c,0,74,96,
3,1648502,Control_c,0,74,96,
3,1648982,Control_c,0,74,96,
3,1649462,Control_c,0,74,96,
3,1649942,Control_c,0,74,96,
3,1650422,Control_c,0,74,96,
3,1650902,Control_c,0,74,96,
3,1651200,Note_off_c,0,69,0,
3,1651200,Note_on_c,0,71,47,
3,1651382,Control_c,0,74,96,
3,1651862,Control_c,0,74,96,
3,1652342,Control_c,0,74,96,
3,1652822,Control_c,0,74,96,
3,1653302,Control_c,0,74,96,
3,1653782,Control_c,0,74,96,
3,1654262,Control_c,0,74,96,
3,1654742,Control_c,0,74,96,
3,1655222,Control_c,0,74,96,
3,1655702,Control_c,0,74,96,
3,1656182,Control_c,0,74,96,
3,1656662,Control_c,0,74,96,
3,1657142,Control_c,0,74,96,
3,1657622,Control_c,0,74,96,
3,1658102,Control_c,0,74,96,
3,1658582,Control_c,0,74,96,
3,1658880,Note_off_c,0,71,0,
3,1658880,Note_on_c,0,73,45,
3,1659062,Control_c,0,74,96,
3,1659542,Control_c,0,74,96,
3,1660022,Control_c,0,74,96,
3,1660502,Control_c,0,74,96,
3,1660982,Control_c,0,74,96,
3,1661462,Control_c,0,74,96,
3,1661942,Control_c,0,74,96,
3,1662103,Control_c,0,74,96,
3,1662583,Control_c,0,74,95,
3,1663063,Control_c,0,74,95,
3,1663543,Control_c,0,74,95,
3,1664023,Control_c,0,74,95,
3,1664503,Control_c,0,74,95,
3,1664983,Control_c,0,74,94,
3,1665463,Control_c,0,74,94,
3,1665943,Control_c,0,74,94,
3,1666423,Control_c,0,74,94,
3,1666560,Note_off_c,0,73,0,
3,1666560,Note_on_c,0,76,61,
3,1666903,Control_c,0,74,94,
3,1667383,Control_c,0,74,93,
3,1667863,Control_c,0,74,93,
3,1668343,Control_c,0,74,93,
3,1668823,Control_c,0,74,93,
3,1669303,Control_c,0,74,93,
3,1669783,Control_c,0,74,92,
3,1670263,Control_c,0,74,92,
3,1670743,Control_c,0,74,92,
3,1671223,Control_c,0,74,92,
3,1671703,Control_c,0,74,92,
3,1672183,Control_c,0,74,91,
3,1672663,Control_c,0,74,91,
3,1673143,Control_c,0,74,91,
3,1673623,Control_c,0,74,91,
3,1674103,Control_c,0,74,91,
3,1674240,Note_off_c,0,57,0,
3,1674240,Note_off_c,0,88,0,
3,1674240,Note_off_c,0,76,0,
3,1674240,Note_on_c,0,87,100,
3,1674583,Control_c,0,74,91,
3,1675063,Control_c,0,74,90,
3,1675543,Control_c,0,74,90,
3,1676023,Control_c,0,74,90,
3,1676503,Control_c,0,74,90,
3,1676983,Control_c,0,74,90,
3,1677463,Control_c,0,74,89,
3,1677943,Control_c,0,74,89,
3,1678423,Control_c,0,74,89,
3,1678903,Control_c,0,74,89,
3,1679383,Control_c,0,74,89,
3,1679863,Control_c,0,74,88,
3,1680343,Control_c,0,74,88,
3,1680823,Control_c,0,74,88,
3,1681303,Control_c,0,74,88,
3,1681783,Control_c,0,74,88,
3,1682263,Control_c,0,74,87,
3,1682743,Control_c,0,74,87,
3,1683223,Control_c,0,74,87,
3,1683703,Control_c,0,74,87,
3,1684183,Control_c,0,74,87,
3,1684663,Control_c,0,74,87,
3,1685143,Control_c,0,74,86,
3,1685623,Control_c,0,74,86,
3,1686103,Control_c,0,74,86,
3,1686583,Control_c,0,74,86,
3,1687063,Control_c,0,74,86,
3,1687543,Control_c,0,74,85,
3,1688023,Control_c,0,74,85,
3,1688503,Control_c,0,74,85,
3,1688983,Control_c,0,74,85,
3,1689463,Control_c,0,74,85,
3,1689943,Control_c,0,74,84,
3,1690423,Control_c,0,74,84,
3,1690903,Control_c,0,74,84,
3,1691383,Control_c,0,74,84,
3,1691863,Control_c,0,74,84,
3,1692343,Control_c,0,74,83,
3,1692823,Control_c,0,74,83,
3,1693303,Control_c,0,74,83,
3,1693783,Control_c,0,74,83,
3,1694263,Control_c,0,74,83,
3,1694743,Control_c,0,74,82,
3,1695223,Control_c,0,74,82,
3,1695703,Control_c,0,74,82,
3,1696183,Control_c,0,74,82,
3,1696663,Control_c,0,74,82,
3,1697143,Control_c,0,74,82,
3,1697280,Note_off_c,0,87,0,
3,1697280,Note_on_c,0,83,100,
3,1697623,Control_c,0,74,81,
3,1698103,Control_c,0,74,81,
3,1698583,Control_c,0,74,81,
3,1699063,Control_c,0,74,81,
3,1699543,Control_c,0,74,81,
3,1700023,Control_c,0,74,80,
3,1700503,Control_c,0,74,80,
3,1700983,Control_c,0,74,80,
3,1701463,Control_c,0,74,80,
3,1701943,Control_c,0,74,80,
3,1702423,Control_c,0,74,79,
3,1702903,Control_c,0,74,79,
3,1703383,Control_c,0,74,79,
3,1703863,Control_c,0,74,79,
3,1704343,Control_c,0,74,79,
3,1704823,Control_c,0,74,78,
3,1705303,Control_c,0,74,78,
3,1705783,Control_c,0,74,78,
3,1706263,Control_c,0,74,78,
3,1706743,Control_c,0,74,78,
3,1707223,Control_c,0,74,78,
3,1707703,Control_c,0,74,77,
3,1708183,Control_c,0,74,77,
3,1708663,Control_c,0,74,77,
3,1709143,Control_c,0,74,77,
3,1709623,Control_c,0,74,77,
3,1710103,Control_c,0,74,76,
3,1710583,Control_c,0,74,76,
3,1711063,Control_c,0,74,76,
3,1711543,Control_c,0,74,76,
3,1712023,Control_c,0,74,76,
3,1712503,Control_c,0,74,75,
3,1712983,Control_c,0,74,75,
3,1713463,Control_c,0,74,75,
3,1713943,Control_c,0,74,75,
3,1714423,Control_c,0,74,75,
3,1714903,Control_c,0,74,74,
3,1715383,Control_c,0,74,74,
3,1715863,Control_c,0,74,74,
3,1716343,Control_c,0,74,74,
3,1716823,Control_c,0,74,74,
3,1717303,Control_c,0,74,74,
3,1717783,Control_c,0,74,73,
3,1718263,Control_c,0,74,73,
3,1718743,Control_c,0,74,73,
3,1719223,Control_c,0,74,73,
3,1719703,Control_c,0,74,73,
3,1720183,Control_c,0,74,72,
3,1720663,Control_c,0,74,72,
3,1721143,Control_c,0,74,72,
3,1721623,Control_c,0,74,72,
3,1722103,Control_c,0,74,72,
3,1722583,Control_c,0,74,71,
3,1723063,Control_c,0,74,71,
3,1723543,Control_c,0,74,71,
3,1724023,Control_c,0,74,71,
3,1724503,Control_c,0,74,71,
3,1724983,Control_c,0,74,70,
3,1725463,Control_c,0,74,70,
3,1725943,Control_c,0,74,70,
3,1726423,Control_c,0,74,70,
3,1726903,Control_c,0,74,70,
3,1727383,Control_c,0,74,69,
3,1727863,Control_c,0,74,69,
3,1728000,Note_off_c,0,83,0,
3,1728343,Control_c,0,74,69,
3,1728823,Control_c,0,74,69,
3,1729303,Control_c,0,74,69,
3,1729783,Control_c,0,74,69,
3,1730263,Control_c,0,74,68,
3,1730743,Control_c,0,74,68,
3,1731223,Control_c,0,74,68,
3,1731703,Control_c,0,74,68,
3,1732183,Control_c,0,74,68,
3,1732663,Control_c,0,74,67,
3,1733143,Control_c,0,74,67,
3,1733623,Control_c,0,74,67,
3,1734103,Control_c,0,74,67,
3,1734549,Pitch_bend_c,0,8192,,
3,1734583,Control_c,0,74,67,
3,1735063,Control_c,0,74,66,
3,1735543,Control_c,0,74,66,
3,1735680,Note_on_c,0,52,32,
3,1735680,Note_on_c,0,64,59,
3,1736023,Control_c,0,74,66,
3,1736503,Control_c,0,74,66,
3,1736983,Control_c,0,74,66,
3,1737463,Control_c,0,74,65,
3,1737943,Control_c,0,74,65,
3,1738423,Control_c,0,74,65,
3,1738903,Control_c,0,74,65,
3,1739383,Control_c,0,74,65,
3,1739863,Control_c,0,74,65,
3,1740343,Control_c,0,74,64,
3,1740823,Control_c,0,74,64,
3,1741303,Control_c,0,74,64,
3,1741783,Control_c,0,74,64,
3,1742263,Control_c,0,74,64,
3,1742408,Control_c,0,74,64,
3,1742888,Control_c,0,74,63,
3,1743368,Control_c,0,74,63,
3,1743848,Control_c,0,74,63,
3,1744328,Control_c,0,74,63,
3,1744808,Control_c,0,74,63,
3,1745288,Control_c,0,74,63,
3,1745768,Control_c,0,74,63,
3,1746248,Control_c,0,74,63,
3,1746546,Note_off_c,0,52,0,
3,1746728,Control_c,0,74,63,
3,1747200,Note_off_c,0,64,0,
3,1747200,Note_on_c,0,52,54,
3,1747208,Control_c,0,74,63,
3,1747688,Control_c,0,74,63,
3,1748168,Control_c,0,74,63,
3,1748648,Control_c,0,74,63,
3,1749128,Control_c,0,74,63,
3,1749608,Control_c,0,74,63,
3,1750088,Control_c,0,74,63,
3,1750568,Control_c,0,74,63,
3,1751040,Note_on_c,0,68,51,
3,1751048,Control_c,0,74,63,
3,1751238,Note_off_c,0,52,0,
3,1751528,Control_c,0,74,63,
3,1752008,Control_c,0,74,63,
3,1752488,Control_c,0,74,63,
3,1752968,Control_c,0,74,63,
3,1753448,Control_c,0,74,63,
3,1753928,Control_c,0,74,62,
3,1754408,Control_c,0,74,62,
3,1754880,Note_off_c,0,68,0,
3,1754888,Control_c,0,74,62,
3,1755368,Control_c,0,74,62,
3,1755848,Control_c,0,74,62,
3,1756328,Control_c,0,74,62,
3,1756808,Control_c,0,74,62,
3,1757288,Control_c,0,74,62,
3,1757768,Control_c,0,74,62,
3,1758248,Control_c,0,74,62,
3,1758720,Note_on_c,0,52,54,
3,1758720,Note_on_c,0,64,51,
3,1758728,Control_c,0,74,62,
3,1759208,Control_c,0,74,62,
3,1759688,Control_c,0,74,62,
3,1760168,Control_c,0,74,62,
3,1760442,Note_off_c,0,64,0,
3,1760640,Note_off_c,0,52,0,
3,1760648,Control_c,0,74,62,
3,1761128,Control_c,0,74,62,
3,1761608,Control_c,0,74,62,
3,1762088,Control_c,0,74,62,
3,1762568,Control_c,0,74,62,
3,1763048,Control_c,0,74,62,
3,1763528,Control_c,0,74,62,
3,1764008,Control_c,0,74,62,
3,1764488,Control_c,0,74,62,
3,1764968,Control_c,0,74,61,
3,1765448,Control_c,0,74,61,
3,1765928,Control_c,0,74,61,
3,1766400,Note_on_c,0,50,86,
3,1766400,Note_on_c,0,66,86,
3,1766408,Control_c,0,74,61,
3,1766888,Control_c,0,74,61,
3,1767368,Control_c,0,74,61,
3,1767848,Control_c,0,74,61,
3,1768328,Control_c,0,74,61,
3,1768808,Control_c,0,74,61,
3,1769288,Control_c,0,74,61,
3,1769768,Control_c,0,74,61,
3,1770240,Note_off_c,0,50,0,
3,1770240,Note_off_c,0,66,0,
3,1770248,Control_c,0,74,61,
3,1770728,Control_c,0,74,61,
3,1771208,Control_c,0,74,61,
3,1771688,Control_c,0,74,61,
3,1772168,Control_c,0,74,61,
3,1772648,Control_c,0,74,61,
3,1773128,Control_c,0,74,61,
3,1773608,Control_c,0,74,61,
3,1774080,Note_on_c,0,52,63,
3,1774080,Note_on_c,0,59,63,
3,1774080,Note_on_c,0,64,57,
3,1774088,Control_c,0,74,61,
3,1774568,Control_c,0,74,61,
3,1775048,Control_c,0,74,61,
3,1775528,Control_c,0,74,61,
3,1776008,Control_c,0,74,60,
3,1776488,Control_c,0,74,60,
3,1776968,Control_c,0,74,60,
3,1777448,Control_c,0,74,60,
3,1777928,Control_c,0,74,60,
3,1778408,Control_c,0,74,60,
3,1778888,Control_c,0,74,60,
3,1779368,Control_c,0,74,60,
3,1779848,Control_c,0,74,60,
3,1780328,Control_c,0,74,60,
3,1780808,Control_c,0,74,60,
3,1781288,Control_c,0,74,60,
3,1781768,Control_c,0,74,60,
3,1782248,Control_c,0,74,60,
3,1782728,Control_c,0,74,60,
3,1783208,Control_c,0,74,60,
3,1783688,Control_c,0,74,60,
3,1784168,Control_c,0,74,60,
3,1784648,Control_c,0,74,60,
3,1785128,Control_c,0,74,60,
3,1785608,Control_c,0,74,60,
3,1786088,Control_c,0,74,60,
3,1786568,Control_c,0,74,60,
3,1787048,Control_c,0,74,59,
3,1787306,Note_off_c,0,64,0,
3,1787480,Note_off_c,0,52,0,
3,1787480,Note_off_c,0,59,0,
3,1787528,Control_c,0,74,59,
3,1788008,Control_c,0,74,59,
3,1788488,Control_c,0,74,59,
3,1788968,Control_c,0,74,59,
3,1789448,Control_c,0,74,59,
3,1789928,Control_c,0,74,59,
3,1790408,Control_c,0,74,59,
3,1790888,Control_c,0,74,59,
3,1791368,Control_c,0,74,59,
3,1791848,Control_c,0,74,59,
3,1792328,Control_c,0,74,59,
3,1792808,Control_c,0,74,59,
3,1793288,Control_c,0,74,59,
3,1793768,Control_c,0,74,59,
3,1794248,Control_c,0,74,59,
3,1794728,Control_c,0,74,59,
3,1795208,Control_c,0,74,59,
3,1795688,Control_c,0,74,59,
3,1796168,Control_c,0,74,59,
3,1796648,Control_c,0,74,59,
3,1797120,Note_on_c,0,52,32,
3,1797120,Note_on_c,0,64,59,
3,1797128,Control_c,0,74,59,
3,1797608,Control_c,0,74,59,
3,1798088,Control_c,0,74,58,
3,1798568,Control_c,0,74,58,
3,1799048,Control_c,0,74,58,
3,1799528,Control_c,0,74,58,
3,1800008,Control_c,0,74,58,
3,1800488,Control_c,0,74,58,
3,1800968,Control_c,0,74,58,
3,1801448,Control_c,0,74,58,
3,1801928,Control_c,0,74,58,
3,1802408,Control_c,0,74,58,
3,1802888,Control_c,0,74,58,
3,1803368,Control_c,0,74,58,
3,1803848,Control_c,0,74,58,
3,1804328,Control_c,0,74,58,
3,1804808,Control_c,0,74,58,
3,1805288,Control_c,0,74,58,
3,1805768,Control_c,0,74,58,
3,1806248,Control_c,0,74,58,
3,1806728,Control_c,0,74,58,
3,1807208,Control_c,0,74,58,
3,1807688,Control_c,0,74,58,
3,1807986,Note_off_c,0,52,0,
3,1808168,Control_c,0,74,58,
3,1808640,Note_off_c,0,64,0,
3,1808640,Note_on_c,0,52,54,
3,1808648,Control_c,0,74,58,
3,1809128,Control_c,0,74,58,
3,1809167,Control_c,0,74,58,
3,1812480,Note_on_c,0,68,51,
3,1812678,Note_off_c,0,52,0,
3,1816320,Note_off_c,0,68,0,
3,1820160,Note_on_c,0,52,54,
3,1820160,Note_on_c,0,64,51,
3,1821882,Note_off_c,0,64,0,
3,1822080,Note_off_c,0,52,0,
3,1826234,Control_c,0,74,62,
3,1826714,Control_c,0,74,62,
3,1827194,Control_c,0,74,62,
3,1827674,Control_c,0,74,62,
3,1827840,Note_on_c,0,52,86,
3,1827840,Note_on_c,0,66,86,
3,1828154,Control_c,0,74,62,
3,1828634,Control_c,0,74,62,
3,1829114,Control_c,0,74,62,
3,1829594,Control_c,0,74,62,
3,1830074,Control_c,0,74,62,
3,1830554,Control_c,0,74,62,
3,1831034,Control_c,0,74,62,
3,1831514,Control_c,0,74,62,
3,1831680,Note_off_c,0,52,0,
3,1831680,Note_off_c,0,66,0,
3,1831994,Control_c,0,74,62,
3,1832474,Control_c,0,74,62,
3,1832954,Control_c,0,74,62,
3,1833434,Control_c,0,74,62,
3,1833914,Control_c,0,74,62,
3,1834394,Control_c,0,74,62,
3,1834874,Control_c,0,74,62,
3,1835354,Control_c,0,74,62,
3,1835520,Note_on_c,0,50,63,
3,1835520,Note_on_c,0,57,54,
3,1835520,Note_on_c,0,62,57,
3,1835834,Control_c,0,74,62,
3,1836314,Control_c,0,74,62,
3,1836794,Control_c,0,74,62,
3,1837274,Control_c,0,74,62,
3,1837440,Note_off_c,0,57,0,
3,1837754,Control_c,0,74,62,
3,1838234,Control_c,0,74,62,
3,1838714,Control_c,0,74,62,
3,1839194,Control_c,0,74,62,
3,1839674,Control_c,0,74,62,
3,1840154,Control_c,0,74,62,
3,1840634,Control_c,0,74,62,
3,1841114,Control_c,0,74,62,
3,1841594,Control_c,0,74,62,
3,1842074,Control_c,0,74,62,
3,1842554,Control_c,0,74,62,
3,1843034,Control_c,0,74,62,
3,1843200,Note_on_c,0,59,100,
3,1843514,Control_c,0,74,62,
3,1843994,Control_c,0,74,62,
3,1844474,Control_c,0,74,62,
3,1844954,Control_c,0,74,62,
3,1845434,Control_c,0,74,62,
3,1845914,Control_c,0,74,62,
3,1846394,Control_c,0,74,62,
3,1846874,Control_c,0,74,62,
3,1847354,Control_c,0,74,62,
3,1847834,Control_c,0,74,62,
3,1848314,Control_c,0,74,62,
3,1848746,Note_off_c,0,62,0,
3,1848794,Control_c,0,74,62,
3,1848920,Note_off_c,0,50,0,
3,1849274,Control_c,0,74,62,
3,1849754,Control_c,0,74,62,
3,1850234,Control_c,0,74,62,
3,1850714,Control_c,0,74,62,
3,1851194,Control_c,0,74,62,
3,1851674,Control_c,0,74,62,
3,1852154,Control_c,0,74,62,
3,1852634,Control_c,0,74,62,
3,1853114,Control_c,0,74,62,
3,1853594,Control_c,0,74,62,
3,1854074,Control_c,0,74,62,
3,1854554,Control_c,0,74,62,
3,1855034,Control_c,0,74,62,
3,1855514,Control_c,0,74,62,
3,1855994,Control_c,0,74,62,
3,1856474,Control_c,0,74,62,
3,1856954,Control_c,0,74,62,
3,1857434,Control_c,0,74,62,
3,1857914,Control_c,0,74,62,
3,1858394,Control_c,0,74,62,
3,1858560,Note_off_c,0,59,0,
3,1858560,Note_on_c,0,52,32,
3,1858560,Note_on_c,0,64,59,
3,1858874,Control_c,0,74,62,
3,1859354,Control_c,0,74,62,
3,1859834,Control_c,0,74,62,
3,1860314,Control_c,0,74,62,
3,1860794,Control_c,0,74,62,
3,1861274,Control_c,0,74,62,
3,1861754,Control_c,0,74,62,
3,1862234,Control_c,0,74,62,
3,1862714,Control_c,0,74,62,
3,1863194,Control_c,0,74,62,
3,1863674,Control_c,0,74,62,
3,1864154,Control_c,0,74,62,
3,1864634,Control_c,0,74,62,
3,1865114,Control_c,0,74,62,
3,1865594,Control_c,0,74,63,
3,1866074,Control_c,0,74,63,
3,1866554,Control_c,0,74,63,
3,1867034,Control_c,0,74,63,
3,1867514,Control_c,0,74,63,
3,1867994,Control_c,0,74,63,
3,1868474,Control_c,0,74,63,
3,1868954,Control_c,0,74,63,
3,1869426,Note_off_c,0,52,0,
3,1869434,Control_c,0,74,63,
3,1869914,Control_c,0,74,63,
3,1870080,Note_off_c,0,64,0,
3,1870080,Note_on_c,0,52,54,
3,1870394,Control_c,0,74,63,
3,1870874,Control_c,0,74,63,
3,1871354,Control_c,0,74,63,
3,1871834,Control_c,0,74,63,
3,1872314,Control_c,0,74,63,
3,1872794,Control_c,0,74,63,
3,1873274,Control_c,0,74,63,
3,1873754,Control_c,0,74,63,
3,1873920,Note_on_c,0,68,51,
3,1874118,Note_off_c,0,52,0,
3,1874234,Control_c,0,74,63,
3,1874714,Control_c,0,74,63,
3,1875194,Control_c,0,74,63,
3,1875674,Control_c,0,74,63,
3,1876154,Control_c,0,74,63,
3,1876634,Control_c,0,74,63,
3,1877114,Control_c,0,74,63,
3,1877594,Control_c,0,74,63,
3,1877760,Note_off_c,0,68,0,
3,1878074,Control_c,0,74,63,
3,1878554,Control_c,0,74,63,
3,1879034,Control_c,0,74,63,
3,1879514,Control_c,0,74,63,
3,1879994,Control_c,0,74,63,
3,1880474,Control_c,0,74,63,
3,1880954,Control_c,0,74,63,
3,1881434,Control_c,0,74,63,
3,1881600,Note_on_c,0,52,54,
3,1881600,Note_on_c,0,64,51,
3,1881914,Control_c,0,74,63,
3,1882394,Control_c,0,74,63,
3,1882874,Control_c,0,74,63,
3,1883322,Note_off_c,0,64,0,
3,1883354,Control_c,0,74,63,
3,1883520,Note_off_c,0,52,0,
3,1883834,Control_c,0,74,63,
3,1884314,Control_c,0,74,63,
3,1884794,Control_c,0,74,63,
3,1885274,Control_c,0,74,63,
3,1885754,Control_c,0,74,63,
3,1886234,Control_c,0,74,63,
3,1886714,Control_c,0,74,63,
3,1887194,Control_c,0,74,63,
3,1887674,Control_c,0,74,63,
3,1888154,Control_c,0,74,63,
3,1888634,Control_c,0,74,63,
3,1889114,Control_c,0,74,63,
3,1889280,Note_on_c,0,50,86,
3,1889280,Note_on_c,0,66,86,
3,1889594,Control_c,0,74,63,
3,1890074,Control_c,0,74,63,
3,1890554,Control_c,0,74,63,
3,1891034,Control_c,0,74,63,
3,1891514,Control_c,0,74,63,
3,1891994,Control_c,0,74,63,
3,1892474,Control_c,0,74,63,
3,1892954,Control_c,0,74,63,
3,1893120,Note_off_c,0,50,0,
3,1893120,Note_off_c,0,66,0,
3,1893434,Control_c,0,74,63,
3,1893914,Control_c,0,74,63,
3,1894394,Control_c,0,74,63,
3,1894874,Control_c,0,74,63,
3,1895354,Control_c,0,74,63,
3,1895834,Control_c,0,74,63,
3,1896314,Control_c,0,74,63,
3,1896794,Control_c,0,74,63,
3,1896960,Note_on_c,0,52,63,
3,1896960,Note_on_c,0,59,63,
3,1896960,Note_on_c,0,64,57,
3,1897274,Control_c,0,74,63,
3,1897754,Control_c,0,74,63,
3,1898234,Control_c,0,74,63,
3,1898714,Control_c,0,74,63,
3,1899194,Control_c,0,74,63,
3,1899674,Control_c,0,74,63,
3,1900154,Control_c,0,74,63,
3,1900634,Control_c,0,74,63,
3,1901114,Control_c,0,74,63,
3,1901594,Control_c,0,74,63,
3,1902074,Control_c,0,74,63,
3,1902554,Control_c,0,74,63,
3,1903034,Control_c,0,74,63,
3,1903514,Control_c,0,74,63,
3,1903994,Control_c,0,74,63,
3,1904474,Control_c,0,74,63,
3,1904745,Control_c,0,74,64,
3,1905225,Control_c,0,74,64,
3,1905705,Control_c,0,74,64,
3,1906185,Control_c,0,74,64,
3,1906665,Control_c,0,74,64,
3,1907145,Control_c,0,74,64,
3,1907625,Control_c,0,74,64,
3,1908105,Control_c,0,74,64,
3,1908585,Control_c,0,74,64,
3,1909065,Control_c,0,74,64,
3,1909545,Control_c,0,74,64,
3,1910025,Control_c,0,74,65,
3,1910186,Note_off_c,0,64,0,
3,1910360,Note_off_c,0,52,0,
3,1910360,Note_off_c,0,59,0,
3,1910505,Control_c,0,74,65,
3,1910985,Control_c,0,74,65,
3,1911465,Control_c,0,74,65,
3,1911945,Control_c,0,74,65,
3,1912425,Control_c,0,74,65,
3,1912905,Control_c,0,74,65,
3,1913385,Control_c,0,74,65,
3,1913865,Control_c,0,74,65,
3,1914345,Control_c,0,74,65,
3,1914825,Control_c,0,74,66,
3,1915305,Control_c,0,74,66,
3,1915785,Control_c,0,74,66,
3,1916265,Control_c,0,74,66,
3,1916745,Control_c,0,74,66,
3,1917225,Control_c,0,74,66,
3,1917705,Control_c,0,74,66,
3,1918185,Control_c,0,74,66,
3,1918665,Control_c,0,74,66,
3,1919145,Control_c,0,74,66,
3,1919625,Control_c,0,74,67,
3,1920000,Note_on_c,0,52,32,
3,1920000,Note_on_c,0,64,59,
3,1920105,Control_c,0,74,67,
3,1920585,Control_c,0,74,67,
3,1921065,Control_c,0,74,67,
3,1921545,Control_c,0,74,67,
3,1922025,Control_c,0,74,67,
3,1922505,Control_c,0,74,67,
3,1922985,Control_c,0,74,67,
3,1923465,Control_c,0,74,67,
3,1923945,Control_c,0,74,67,
3,1924425,Control_c,0,74,68,
3,1924905,Control_c,0,74,68,
3,1925385,Control_c,0,74,68,
3,1925865,Control_c,0,74,68,
3,1926345,Control_c,0,74,68,
3,1926825,Control_c,0,74,68,
3,1927305,Control_c,0,74,68,
3,1927785,Control_c,0,74,68,
3,1928265,Control_c,0,74,68,
3,1928745,Control_c,0,74,68,
3,1929225,Control_c,0,74,69,
3,1929705,Control_c,0,74,69,
3,1930185,Control_c,0,74,69,
3,1930665,Control_c,0,74,69,
3,1930866,Note_off_c,0,52,0,
3,1931145,Control_c,0,74,69,
3,1931520,Note_off_c,0,64,0,
3,1931520,Note_on_c,0,52,54,
3,1931625,Control_c,0,74,69,
3,1932105,Control_c,0,74,69,
3,1932585,Control_c,0,74,69,
3,1933065,Control_c,0,74,69,
3,1933545,Control_c,0,74,69,
3,1934025,Control_c,0,74,70,
3,1934505,Control_c,0,74,70,
3,1934985,Control_c,0,74,70,
3,1935360,Note_on_c,0,68,51,
3,1935465,Control_c,0,74,70,
3,1935558,Note_off_c,0,52,0,
3,1935945,Control_c,0,74,70,
3,1936425,Control_c,0,74,70,
3,1936905,Control_c,0,74,70,
3,1937385,Control_c,0,74,70,
3,1937865,Control_c,0,74,70,
3,1938345,Control_c,0,74,70,
3,1938825,Control_c,0,74,70,
3,1939200,Note_off_c,0,68,0,
3,1939305,Control_c,0,74,71,
3,1939785,Control_c,0,74,71,
3,1940265,Control_c,0,74,71,
3,1940745,Control_c,0,74,71,
3,1941225,Control_c,0,74,71,
3,1941705,Control_c,0,74,71,
3,1942185,Control_c,0,74,71,
3,1942665,Control_c,0,74,71,
3,1943040,Note_on_c,0,52,54,
3,1943040,Note_on_c,0,64,51,
3,1943145,Control_c,0,74,71,
3,1943625,Control_c,0,74,71,
3,1944105,Control_c,0,74,72,
3,1944585,Control_c,0,74,72,
3,1944762,Note_off_c,0,64,0,
3,1944960,Note_off_c,0,52,0,
3,1945065,Control_c,0,74,72,
3,1945545,Control_c,0,74,72,
3,1946025,Control_c,0,74,72,
3,1946505,Control_c,0,74,72,
3,1946985,Control_c,0,74,72,
3,1947465,Control_c,0,74,72,
3,1947945,Control_c,0,74,72,
3,1948425,Control_c,0,74,72,
3,1948905,Control_c,0,74,73,
3,1949385,Control_c,0,74,73,
3,1949865,Control_c,0,74,73,
3,1950345,Control_c,0,74,73,
3,1950720,Note_on_c,0,52,86,
3,1950720,Note_on_c,0,66,86,
3,1950825,Control_c,0,74,73,
3,1951305,Control_c,0,74,73,
3,1951785,Control_c,0,74,73,
3,1952265,Control_c,0,74,73,
3,1952745,Control_c,0,74,73,
3,1953225,Control_c,0,74,73,
3,1953705,Control_c,0,74,74,
3,1954185,Control_c,0,74,74,
3,1954560,Note_off_c,0,52,0,
3,1954560,Note_off_c,0,66,0,
3,1954665,Control_c,0,74,74,
3,1955145,Control_c,0,74,74,
3,1955625,Control_c,0,74,74,
3,1956105,Control_c,0,74,74,
3,1956585,Control_c,0,74,74,
3,1957065,Control_c,0,74,74,
3,1957545,Control_c,0,74,74,
3,1958025,Control_c,0,74,74,
3,1958400,Note_on_c,0,50,63,
3,1958400,Note_on_c,0,57,86,
3,1958400,Note_on_c,0,62,57,
3,1958505,Control_c,0,74,75,
3,1958985,Control_c,0,74,75,
3,1959465,Control_c,0,74,75,
3,1959945,Control_c,0,74,75,
3,1960425,Control_c,0,74,75,
3,1960905,Control_c,0,74,75,
3,1961385,Control_c,0,74,75,
3,1961865,Control_c,0,74,75,
3,1962240,Note_off_c,0,57,0,
3,1962345,Control_c,0,74,75,
3,1962825,Control_c,0,74,75,
3,1963305,Control_c,0,74,76,
3,1963785,Control_c,0,74,76,
3,1964265,Control_c,0,74,76,
3,1964745,Control_c,0,74,76,
3,1965225,Control_c,0,74,76,
3,1965705,Control_c,0,74,76,
3,1966080,Note_on_c,0,59,100,
3,1966185,Control_c,0,74,76,
3,1966665,Control_c,0,74,76,
3,1967145,Control_c,0,74,76,
3,1967625,Control_c,0,74,76,
3,1968105,Control_c,0,74,76,
3,1968179,Control_c,0,74,77,
3,1968659,Control_c,0,74,77,
3,1969139,Control_c,0,74,77,
3,1969619,Control_c,0,74,77,
3,1970099,Control_c,0,74,77,
3,1970579,Control_c,0,74,77,
3,1971059,Control_c,0,74,77,
3,1971539,Control_c,0,74,77,
3,1971626,Note_off_c,0,62,0,
3,1971800,Note_off_c,0,50,0,
3,1972019,Control_c,0,74,77,
3,1972499,Control_c,0,74,77,
3,1972979,Control_c,0,74,77,
3,1973459,Control_c,0,74,77,
3,1973939,Control_c,0,74,77,
3,1974419,Control_c,0,74,77,
3,1974899,Control_c,0,74,77,
3,1975379,Control_c,0,74,77,
3,1975859,Control_c,0,74,77,
3,1976339,Control_c,0,74,77,
3,1976819,Control_c,0,74,77,
3,1977299,Control_c,0,74,77,
3,1977779,Control_c,0,74,77,
3,1978259,Control_c,0,74,77,
3,1978739,Control_c,0,74,77,
3,1979219,Control_c,0,74,77,
3,1979699,Control_c,0,74,77,
3,1980179,Control_c,0,74,77,
3,1980659,Control_c,0,74,77,
3,1981139,Control_c,0,74,77,
3,1981440,Note_off_c,0,59,0,
3,1981440,Note_on_c,0,52,32,
3,1981440,Note_on_c,0,64,59,
3,1981440,Control_c,0,74,78,
3,1981440,Pitch_bend_c,0,8192,,
3,1985280,Control_c,0,74,78,
3,1985760,Control_c,0,74,78,
3,1986240,Control_c,0,74,78,
3,1986720,Control_c,0,74,78,
3,1987200,Control_c,0,74,78,
3,1987680,Control_c,0,74,78,
3,1988160,Control_c,0,74,78,
3,1988640,Control_c,0,74,78,
3,1989120,Control_c,0,74,79,
3,1989600,Control_c,0,74,79,
3,1990080,Control_c,0,74,79,
3,1990560,Control_c,0,74,79,
3,1991040,Control_c,0,74,79,
3,1991520,Control_c,0,74,79,
3,1992000,Control_c,0,74,79,
3,1992306,Note_off_c,0,52,0,
3,1992480,Control_c,0,74,80,
3,1992960,Note_off_c,0,64,0,
3,1992960,Note_on_c,0,52,54,
3,1992960,Control_c,0,74,80,
3,1993440,Control_c,0,74,80,
3,1993920,Control_c,0,74,80,
3,1994400,Control_c,0,74,80,
3,1994880,Control_c,0,74,80,
3,1995360,Control_c,0,74,80,
3,1995840,Control_c,0,74,81,
3,1996320,Control_c,0,74,81,
3,1996800,Note_on_c,0,68,51,
3,1996800,Control_c,0,74,81,
3,1996998,Note_off_c,0,52,0,
3,1997280,Control_c,0,74,81,
3,1997760,Control_c,0,74,81,
3,1998240,Control_c,0,74,81,
3,1998720,Control_c,0,74,81,
3,1999200,Control_c,0,74,82,
3,1999680,Control_c,0,74,82,
3,2000160,Control_c,0,74,82,
3,2000640,Note_off_c,0,68,0,
3,2000640,Control_c,0,74,82,
3,2001120,Control_c,0,74,82,
3,2001600,Control_c,0,74,82,
3,2002080,Control_c,0,74,82,
3,2002560,Control_c,0,74,83,
3,2003040,Control_c,0,74,83,
3,2003520,Control_c,0,74,83,
3,2004000,Control_c,0,74,83,
3,2004480,Note_on_c,0,52,54,
3,2004480,Note_on_c,0,64,51,
3,2004480,Control_c,0,74,83,
3,2004960,Control_c,0,74,83,
3,2005440,Control_c,0,74,83,
3,2005920,Control_c,0,74,83,
3,2006202,Note_off_c,0,64,0,
3,2006400,Note_off_c,0,52,0,
3,2006400,Control_c,0,74,84,
3,2006880,Control_c,0,74,84,
3,2007360,Control_c,0,74,84,
3,2007840,Control_c,0,74,84,
3,2008320,Control_c,0,74,84,
3,2008800,Control_c,0,74,84,
3,2009280,Control_c,0,74,84,
3,2009760,Control_c,0,74,85,
3,2010240,Control_c,0,74,85,
3,2010720,Control_c,0,74,85,
3,2011200,Control_c,0,74,85,
3,2011680,Control_c,0,74,85,
3,2012160,Note_on_c,0,50,86,
3,2012160,Note_on_c,0,66,86,
3,2012160,Control_c,0,74,85,
3,2012640,Control_c,0,74,85,
3,2013120,Control_c,0,74,86,
3,2013600,Control_c,0,74,86,
3,2014080,Control_c,0,74,86,
3,2014560,Control_c,0,74,86,
3,2015040,Control_c,0,74,86,
3,2015520,Control_c,0,74,86,
3,2016000,Note_off_c,0,50,0,
3,2016000,Note_off_c,0,66,0,
3,2016000,Control_c,0,74,86,
3,2016480,Control_c,0,74,87,
3,2016960,Control_c,0,74,87,
3,2017440,Control_c,0,74,87,
3,2017920,Control_c,0,74,87,
3,2018400,Control_c,0,74,87,
3,2018880,Control_c,0,74,87,
3,2019360,Control_c,0,74,87,
3,2019840,Note_on_c,0,52,63,
3,2019840,Note_on_c,0,59,63,
3,2019840,Note_on_c,0,64,57,
3,2019840,Control_c,0,74,88,
3,2020320,Control_c,0,74,88,
3,2020800,Control_c,0,74,88,
3,2021280,Control_c,0,74,88,
3,2021760,Control_c,0,74,88,
3,2022240,Control_c,0,74,88,
3,2022720,Control_c,0,74,88,
3,2023200,Control_c,0,74,88,
3,2023680,Control_c,0,74,89,
3,2024160,Control_c,0,74,89,
3,2024640,Control_c,0,74,89,
3,2025120,Control_c,0,74,89,
3,2025600,Control_c,0,74,89,
3,2026080,Control_c,0,74,89,
3,2026560,Control_c,0,74,89,
3,2027040,Control_c,0,74,90,
3,2027520,Control_c,0,74,90,
3,2028000,Control_c,0,74,90,
3,2028480,Control_c,0,74,90,
3,2028960,Control_c,0,74,90,
3,2029440,Control_c,0,74,90,
3,2029920,Control_c,0,74,90,
3,2030400,Control_c,0,74,91,
3,2030880,Control_c,0,74,91,
3,2031360,Control_c,0,74,91,
3,2031840,Control_c,0,74,91,
3,2032320,Control_c,0,74,91,
3,2032800,Control_c,0,74,91,
3,2033066,Note_off_c,0,64,0,
3,2033240,Note_off_c,0,52,0,
3,2033240,Note_off_c,0,59,0,
3,2033280,Control_c,0,74,91,
3,2033760,Control_c,0,74,92,
3,2034240,Control_c,0,74,92,
3,2034720,Control_c,0,74,92,
3,2035200,Control_c,0,74,92,
3,2035680,Control_c,0,74,92,
3,2036160,Control_c,0,74,92,
3,2036640,Control_c,0,74,92,
3,2037120,Control_c,0,74,93,
3,2037600,Control_c,0,74,93,
3,2038080,Control_c,0,74,93,
3,2038560,Control_c,0,74,93,
3,2039040,Control_c,0,74,93,
3,2039520,Control_c,0,74,93,
3,2040000,Control_c,0,74,93,
3,2040480,Control_c,0,74,93,
3,2040960,Control_c,0,74,94,
3,2041440,Control_c,0,74,94,
3,2041920,Control_c,0,74,94,
3,2042400,Control_c,0,74,94,
3,2042880,Note_on_c,0,52,32,
3,2042880,Note_on_c,0,64,59,
3,2042880,Control_c,0,74,94,
3,2043360,Control_c,0,74,94,
3,2043840,Control_c,0,74,94,
3,2044320,Control_c,0,74,95,
3,2044800,Control_c,0,74,95,
3,2045280,Control_c,0,74,95,
3,2045760,Control_c,0,74,95,
3,2046240,Control_c,0,74,95,
3,2046720,Control_c,0,74,95,
3,2047200,Control_c,0,74,95,
3,2047680,Control_c,0,74,96,
3,2048160,Control_c,0,74,96,
3,2048640,Control_c,0,74,96,
3,2049120,Control_c,0,74,96,
3,2049600,Control_c,0,74,96,
3,2050080,Control_c,0,74,96,
3,2050560,Control_c,0,74,96,
3,2051040,Control_c,0,74,97,
3,2051520,Control_c,0,74,97,
3,2052000,Control_c,0,74,97,
3,2052480,Control_c,0,74,97,
3,2052960,Control_c,0,74,97,
3,2053440,Control_c,0,74,97,
3,2053746,Note_off_c,0,52,0,
3,2053920,Control_c,0,74,97,
3,2054400,Note_off_c,0,64,0,
3,2054400,Note_on_c,0,52,54,
3,2054400,Control_c,0,74,98,
3,2054880,Control_c,0,74,98,
3,2055360,Control_c,0,74,98,
3,2055840,Control_c,0,74,98,
3,2056320,Control_c,0,74,98,
3,2056800,Control_c,0,74,98,
3,2057280,Control_c,0,74,98,
3,2057760,Control_c,0,74,98,
3,2058240,Note_on_c,0,68,51,
3,2058240,Control_c,0,74,98,
3,2058438,Note_off_c,0,52,0,
3,2058720,Control_c,0,74,98,
3,2059200,Control_c,0,74,98,
3,2059680,Control_c,0,74,98,
3,2060160,Control_c,0,74,98,
3,2060640,Control_c,0,74,98,
3,2061120,Control_c,0,74,98,
3,2061600,Control_c,0,74,98,
3,2062080,Note_off_c,0,68,0,
3,2062080,Control_c,0,74,98,
3,2062560,Control_c,0,74,99,
3,2063040,Control_c,0,74,99,
3,2063520,Control_c,0,74,99,
3,2064000,Control_c,0,74,99,
3,2064480,Control_c,0,74,99,
3,2064960,Control_c,0,74,99,
3,2065440,Control_c,0,74,99,
3,2065920,Note_on_c,0,52,54,
3,2065920,Note_on_c,0,64,51,
3,2065920,Control_c,0,74,99,
3,2066400,Control_c,0,74,99,
3,2066880,Control_c,0,74,99,
3,2067360,Control_c,0,74,99,
3,2067642,Note_off_c,0,64,0,
3,2067840,Note_off_c,0,52,0,
3,2067840,Control_c,0,74,99,
3,2068320,Control_c,0,74,99,
3,2068800,Control_c,0,74,99,
3,2069280,Control_c,0,74,99,
3,2069760,Control_c,0,74,99,
3,2070240,Control_c,0,74,99,
3,2070720,Control_c,0,74,100,
3,2071200,Control_c,0,74,100,
3,2071680,Control_c,0,74,100,
3,2072160,Control_c,0,74,100,
3,2072640,Control_c,0,74,100,
3,2073120,Control_c,0,74,100,
3,2073600,Note_on_c,0,52,86,
3,2073600,Note_on_c,0,66,86,
3,2073600,Control_c,0,74,100,
3,2074080,Control_c,0,74,100,
3,2074560,Control_c,0,74,100,
3,2075040,Control_c,0,74,100,
3,2075520,Control_c,0,74,100,
3,2076000,Control_c,0,74,100,
3,2076480,Control_c,0,74,100,
3,2076960,Control_c,0,74,100,
3,2077440,Note_off_c,0,52,0,
3,2077440,Note_off_c,0,66,0,
3,2077440,Control_c,0,74,100,
3,2077920,Control_c,0,74,100,
3,2078400,Control_c,0,74,100,
3,2078880,Control_c,0,74,101,
3,2079360,Control_c,0,74,101,
3,2079840,Control_c,0,74,101,
3,2080320,Control_c,0,74,101,
3,2080800,Control_c,0,74,101,
3,2081280,Note_on_c,0,50,63,
3,2081280,Note_on_c,0,57,54,
3,2081280,Note_on_c,0,62,57,
3,2081280,Control_c,0,74,101,
3,2081760,Control_c,0,74,101,
3,2082240,Control_c,0,74,101,
3,2082720,Control_c,0,74,101,
3,2083200,Note_off_c,0,57,0,
3,2083200,Control_c,0,74,101,
3,2083680,Control_c,0,74,101,
3,2084160,Control_c,0,74,101,
3,2084640,Control_c,0,74,101,
3,2085120,Control_c,0,74,101,
3,2085600,Control_c,0,74,101,
3,2086080,Control_c,0,74,101,
3,2086560,Control_c,0,74,102,
3,2087040,Control_c,0,74,102,
3,2087520,Control_c,0,74,102,
3,2088000,Control_c,0,74,102,
3,2088480,Control_c,0,74,102,
3,2088960,Note_on_c,0,59,100,
3,2088960,Control_c,0,74,102,
3,2089440,Control_c,0,74,102,
3,2089920,Control_c,0,74,102,
3,2090400,Control_c,0,74,102,
3,2090880,Control_c,0,74,102,
3,2091360,Control_c,0,74,102,
3,2091840,Control_c,0,74,102,
3,2092320,Control_c,0,74,102,
3,2092800,Control_c,0,74,102,
3,2093280,Control_c,0,74,102,
3,2093760,Control_c,0,74,102,
3,2094240,Control_c,0,74,102,
3,2094506,Note_off_c,0,62,0,
3,2094680,Note_off_c,0,50,0,
3,2094720,Control_c,0,74,103,
3,2095200,Control_c,0,74,103,
3,2095680,Control_c,0,74,103,
3,2096160,Control_c,0,74,103,
3,2096640,Control_c,0,74,103,
3,2097120,Control_c,0,74,103,
3,2097600,Control_c,0,74,103,
3,2098080,Control_c,0,74,103,
3,2098560,Control_c,0,74,103,
3,2099040,Control_c,0,74,103,
3,2099520,Control_c,0,74,103,
3,2100000,Control_c,0,74,103,
3,2100480,Control_c,0,74,103,
3,2100960,Control_c,0,74,103,
3,2101440,Control_c,0,74,103,
3,2101920,Control_c,0,74,103,
3,2102400,Control_c,0,74,103,
3,2102880,Control_c,0,74,104,
3,2103360,Control_c,0,74,104,
3,2103840,Control_c,0,74,104,
3,2104320,Note_off_c,0,59,0,
3,2104320,Note_on_c,0,52,32,
3,2104320,Note_on_c,0,64,59,
3,2104320,Control_c,0,74,104,
3,2104800,Control_c,0,74,104,
3,2105280,Control_c,0,74,104,
3,2105760,Control_c,0,74,104,
3,2106240,Control_c,0,74,104,
3,2106720,Control_c,0,74,104,
3,2107200,Control_c,0,74,104,
3,2107680,Control_c,0,74,104,
3,2108160,Control_c,0,74,104,
3,2108640,Control_c,0,74,104,
3,2109120,Control_c,0,74,104,
3,2109600,Control_c,0,74,104,
3,2110080,Control_c,0,74,104,
3,2110560,Control_c,0,74,105,
3,2111040,Control_c,0,74,105,
3,2111520,Control_c,0,74,105,
3,2112000,Control_c,0,74,105,
3,2112480,Control_c,0,74,105,
3,2112960,Control_c,0,74,105,
3,2113440,Control_c,0,74,105,
3,2113920,Control_c,0,74,105,
3,2114400,Control_c,0,74,105,
3,2114880,Control_c,0,74,105,
3,2115186,Note_off_c,0,52,0,
3,2115360,Control_c,0,74,105,
3,2115840,Note_off_c,0,64,0,
3,2115840,Note_on_c,0,52,54,
3,2115840,Control_c,0,74,105,
3,2116320,Control_c,0,74,105,
3,2116800,Control_c,0,74,105,
3,2117280,Control_c,0,74,105,
3,2117760,Control_c,0,74,105,
3,2118240,Control_c,0,74,105,
3,2118720,Control_c,0,74,106,
3,2119200,Control_c,0,74,106,
3,2119680,Note_on_c,0,68,51,
3,2119680,Control_c,0,74,106,
3,2119878,Note_off_c,0,52,0,
3,2120160,Control_c,0,74,106,
3,2120640,Control_c,0,74,106,
3,2121120,Control_c,0,74,106,
3,2121600,Control_c,0,74,106,
3,2122080,Control_c,0,74,106,
3,2122560,Control_c,0,74,106,
3,2123040,Control_c,0,74,106,
3,2123520,Note_off_c,0,68,0,
3,2123520,Control_c,0,74,106,
3,2124000,Control_c,0,74,106,
3,2124480,Control_c,0,74,106,
3,2124960,Control_c,0,74,106,
3,2125440,Control_c,0,74,106,
3,2125920,Control_c,0,74,106,
3,2126400,Control_c,0,74,106,
3,2126880,Control_c,0,74,107,
3,2127360,Note_on_c,0,52,54,
3,2127360,Note_on_c,0,64,51,
3,2127360,Control_c,0,74,107,
3,2127840,Control_c,0,74,107,
3,2128320,Control_c,0,74,107,
3,2128800,Control_c,0,74,107,
3,2129082,Note_off_c,0,64,0,
3,2129280,Note_off_c,0,52,0,
3,2129280,Control_c,0,74,107,
3,2129760,Control_c,0,74,107,
3,2130240,Control_c,0,74,107,
3,2130720,Control_c,0,74,107,
3,2131200,Control_c,0,74,107,
3,2131680,Control_c,0,74,107,
3,2132160,Control_c,0,74,107,
3,2132640,Control_c,0,74,107,
3,2133120,Control_c,0,74,107,
3,2133600,Control_c,0,74,107,
3,2134080,Control_c,0,74,107,
3,2134560,Control_c,0,74,108,
3,2135040,Note_on_c,0,50,86,
3,2135040,Note_on_c,0,66,86,
3,2135040,Control_c,0,74,108,
3,2135520,Control_c,0,74,108,
3,2136000,Control_c,0,74,108,
3,2136480,Control_c,0,74,108,
3,2136960,Control_c,0,74,108,
3,2137440,Control_c,0,74,108,
3,2137920,Control_c,0,74,108,
3,2138400,Control_c,0,74,108,
3,2138880,Note_off_c,0,50,0,
3,2138880,Note_off_c,0,66,0,
3,2138880,Control_c,0,74,108,
3,2139360,Control_c,0,74,108,
3,2139840,Control_c,0,74,108,
3,2140320,Control_c,0,74,108,
3,2140800,Control_c,0,74,108,
3,2141280,Control_c,0,74,108,
3,2141760,Control_c,0,74,108,
3,2142240,Control_c,0,74,108,
3,2142720,Note_on_c,0,52,63,
3,2142720,Note_on_c,0,59,63,
3,2142720,Note_on_c,0,64,57,
3,2142720,Control_c,0,74,109,
3,2143200,Control_c,0,74,109,
3,2143680,Control_c,0,74,109,
3,2144160,Control_c,0,74,109,
3,2144640,Control_c,0,74,109,
3,2145120,Control_c,0,74,109,
3,2145600,Control_c,0,74,109,
3,2146080,Control_c,0,74,109,
3,2146560,Control_c,0,74,109,
3,2147040,Control_c,0,74,109,
3,2147520,Control_c,0,74,109,
3,2148000,Control_c,0,74,109,
3,2148480,Control_c,0,74,109,
3,2148960,Control_c,0,74,109,
3,2149440,Control_c,0,74,109,
3,2149920,Control_c,0,74,109,
3,2150400,Control_c,0,74,109,
3,2150505,Control_c,0,74,110,
3,2150985,Control_c,0,74,110,
3,2151465,Control_c,0,74,110,
3,2151945,Control_c,0,74,110,
3,2152425,Control_c,0,74,110,
3,2152905,Control_c,0,74,110,
3,2153385,Control_c,0,74,110,
3,2153865,Control_c,0,74,110,
3,2154345,Control_c,0,74,110,
3,2154825,Control_c,0,74,110,
3,2155305,Control_c,0,74,110,
3,2155785,Control_c,0,74,110,
3,2155946,Note_off_c,0,64,0,
3,2156120,Note_off_c,0,52,0,
3,2156120,Note_off_c,0,59,0,
3,2156265,Control_c,0,74,110,
3,2156745,Control_c,0,74,110,
3,2157225,Control_c,0,74,110,
3,2157705,Control_c,0,74,110,
3,2158185,Control_c,0,74,110,
3,2158665,Control_c,0,74,110,
3,2159145,Control_c,0,74,110,
3,2159625,Control_c,0,74,110,
3,2160105,Control_c,0,74,110,
3,2160585,Control_c,0,74,110,
3,2161065,Control_c,0,74,110,
3,2161545,Control_c,0,74,110,
3,2162025,Control_c,0,74,111,
3,2162505,Control_c,0,74,111,
3,2162985,Control_c,0,74,111,
3,2163465,Control_c,0,74,111,
3,2163945,Control_c,0,74,111,
3,2164425,Control_c,0,74,111,
3,2164905,Control_c,0,74,111,
3,2165385,Control_c,0,74,111,
3,2165760,Note_on_c,0,52,32,
3,2165760,Note_on_c,0,64,59,
3,2165865,Control_c,0,74,111,
3,2166345,Control_c,0,74,111,
3,2166825,Control_c,0,74,111,
3,2167305,Control_c,0,74,111,
3,2167785,Control_c,0,74,111,
3,2168265,Control_c,0,74,111,
3,2168745,Control_c,0,74,111,
3,2169225,Control_c,0,74,111,
3,2169705,Control_c,0,74,111,
3,2170185,Control_c,0,74,111,
3,2170665,Control_c,0,74,111,
3,2171145,Control_c,0,74,111,
3,2171625,Control_c,0,74,111,
3,2172105,Control_c,0,74,111,
3,2172585,Control_c,0,74,111,
3,2173065,Control_c,0,74,111,
3,2173545,Control_c,0,74,112,
3,2174025,Control_c,0,74,112,
3,2174505,Control_c,0,74,112,
3,2174985,Control_c,0,74,112,
3,2175465,Control_c,0,74,112,
3,2175945,Control_c,0,74,112,
3,2176425,Control_c,0,74,112,
3,2176626,Note_off_c,0,52,0,
3,2176905,Control_c,0,74,112,
3,2177280,Note_off_c,0,64,0,
3,2177280,Note_on_c,0,52,54,
3,2177385,Control_c,0,74,112,
3,2177865,Control_c,0,74,112,
3,2178345,Control_c,0,74,112,
3,2178825,Control_c,0,74,112,
3,2179305,Control_c,0,74,112,
3,2179785,Control_c,0,74,112,
3,2180265,Control_c,0,74,112,
3,2180745,Control_c,0,74,112,
3,2181120,Note_on_c,0,68,51,
3,2181225,Control_c,0,74,112,
3,2181318,Note_off_c,0,52,0,
3,2181705,Control_c,0,74,112,
3,2182185,Control_c,0,74,112,
3,2182665,Control_c,0,74,112,
3,2183145,Control_c,0,74,112,
3,2183625,Control_c,0,74,112,
3,2184105,Control_c,0,74,112,
3,2184585,Control_c,0,74,112,
3,2184960,Note_off_c,0,68,0,
3,2185065,Control_c,0,74,113,
3,2185545,Control_c,0,74,113,
3,2186025,Control_c,0,74,113,
3,2186505,Control_c,0,74,113,
3,2186985,Control_c,0,74,113,
3,2187465,Control_c,0,74,113,
3,2187945,Control_c,0,74,113,
3,2188425,Control_c,0,74,113,
3,2188800,Note_on_c,0,52,54,
3,2188800,Note_on_c,0,64,51,
3,2188905,Control_c,0,74,113,
3,2189385,Control_c,0,74,113,
3,2189865,Control_c,0,74,113,
3,2190345,Control_c,0,74,113,
3,2190522,Note_off_c,0,64,0,
3,2190720,Note_off_c,0,52,0,
3,2190825,Control_c,0,74,113,
3,2191305,Control_c,0,74,113,
3,2191785,Control_c,0,74,113,
3,2192265,Control_c,0,74,113,
3,2192745,Control_c,0,74,113,
3,2193225,Control_c,0,74,113,
3,2193705,Control_c,0,74,113,
3,2194185,Control_c,0,74,113,
3,2194665,Control_c,0,74,113,
3,2195145,Control_c,0,74,113,
3,2195625,Control_c,0,74,113,
3,2196105,Control_c,0,74,113,
3,2196480,Note_on_c,0,52,86,
3,2196480,Note_on_c,0,66,86,
3,2196585,Control_c,0,74,114,
3,2197065,Control_c,0,74,114,
3,2197545,Control_c,0,74,114,
3,2198025,Control_c,0,74,114,
3,2198505,Control_c,0,74,114,
3,2198985,Control_c,0,74,114,
3,2199465,Control_c,0,74,114,
3,2199945,Control_c,0,74,114,
3,2200320,Note_off_c,0,52,0,
3,2200320,Note_off_c,0,66,0,
3,2200425,Control_c,0,74,114,
3,2200905,Control_c,0,74,114,
3,2201385,Control_c,0,74,114,
3,2201865,Control_c,0,74,114,
3,2202345,Control_c,0,74,114,
3,2202825,Control_c,0,74,114,
3,2203305,Control_c,0,74,114,
3,2203785,Control_c,0,74,114,
3,2204160,Note_on_c,0,50,63,
3,2204160,Note_on_c,0,57,86,
3,2204160,Note_on_c,0,62,57,
3,2204265,Control_c,0,74,114,
3,2204745,Control_c,0,74,114,
3,2205225,Control_c,0,74,114,
3,2205705,Control_c,0,74,114,
3,2206185,Control_c,0,74,114,
3,2206665,Control_c,0,74,114,
3,2207145,Control_c,0,74,114,
3,2207625,Control_c,0,74,114,
3,2208000,Note_off_c,0,57,0,
3,2208000,Control_c,0,74,115,
3,2208480,Control_c,0,74,111,
3,2208960,Control_c,0,74,108,
3,2209440,Control_c,0,74,105,
3,2209920,Control_c,0,74,101,
3,2210400,Control_c,0,74,98,
3,2210880,Control_c,0,74,95,
3,2211360,Control_c,0,74,91,
3,2211840,Note_on_c,0,59,100,
3,2211840,Control_c,0,74,88,
3,2212320,Control_c,0,74,85,
3,2212800,Control_c,0,74,81,
3,2213280,Control_c,0,74,78,
3,2213760,Control_c,0,74,75,
3,2214240,Control_c,0,74,71,
3,2214720,Control_c,0,74,68,
3,2215200,Control_c,0,74,65,
3,2215680,Control_c,0,74,62,
3,2217386,Note_off_c,0,62,0,
3,2217560,Note_off_c,0,50,0,
3,2227200,Note_off_c,0,59,0,
3,2227200,Note_on_c,0,52,32,
3,2227200,Note_on_c,0,64,59,
3,2227200,Control_c,0,74,58,
3,2227200,Pitch_bend_c,0,8192,,
3,2227200,Pitch_bend_c,0,16383,,
3,2238066,Note_off_c,0,52,0,
3,2238720,Note_off_c,0,64,0,
3,2238720,Note_on_c,0,52,54,
3,2242560,Note_on_c,0,64,51,
3,2242758,Note_off_c,0,52,0,
3,2246400,Note_off_c,0,64,0,
3,2250240,Note_on_c,0,52,54,
3,2250240,Note_on_c,0,64,51,
3,2251962,Note_off_c,0,64,0,
3,2252160,Note_off_c,0,52,0,
3,2257920,Note_on_c,0,52,86,
3,2257920,Note_on_c,0,64,86,
3,2261760,Note_off_c,0,52,0,
3,2261760,Note_off_c,0,64,0,
3,2265600,Note_on_c,0,52,86,
3,2265600,Note_on_c,0,64,86,
3,2269440,Note_off_c,0,52,0,
3,2269440,Note_off_c,0,64,0,
3,2273280,Note_on_c,0,52,63,
3,2273280,Note_on_c,0,59,63,
3,2273280,Note_on_c,0,64,57,
3,2280786,Note_off_c,0,64,0,
3,2280960,Note_off_c,0,52,0,
3,2280960,Note_off_c,0,59,0,
3,2287873,Pitch_bend_c,0,16383,,
3,2288353,Pitch_bend_c,0,16118,,
3,2288640,Note_on_c,0,52,32,
3,2288640,Note_on_c,0,64,59,
3,2288833,Pitch_bend_c,0,15854,,
3,2289313,Pitch_bend_c,0,15589,,
3,2289793,Pitch_bend_c,0,15325,,
3,2290273,Pitch_bend_c,0,15060,,
3,2290753,Pitch_bend_c,0,14796,,
3,2291233,Pitch_bend_c,0,14532,,
3,2291713,Pitch_bend_c,0,14267,,
3,2292193,Pitch_bend_c,0,14003,,
3,2292480,Note_off_c,0,52,0,
3,2292480,Note_on_c,0,52,32,
3,2292480,Note_on_c,0,64,59,
3,2292673,Pitch_bend_c,0,13738,,
3,2293134,Note_off_c,0,64,0,
3,2293153,Pitch_bend_c,0,13474,,
3,2293448,Pitch_bend_c,0,13312,,
3,2293928,Pitch_bend_c,0,13234,,
3,2294408,Pitch_bend_c,0,13157,,
3,2294888,Pitch_bend_c,0,13080,,
3,2295368,Pitch_bend_c,0,13003,,
3,2295848,Pitch_bend_c,0,12926,,
3,2296320,Control_c,0,74,58,
3,2296328,Pitch_bend_c,0,12849,,
3,2296800,Control_c,0,74,58,
3,2296808,Pitch_bend_c,0,12772,,
3,2297280,Control_c,0,74,59,
3,2297288,Pitch_bend_c,0,12695,,
3,2297760,Control_c,0,74,59,
3,2297768,Pitch_bend_c,0,12618,,
3,2298240,Control_c,0,74,60,
3,2298248,Pitch_bend_c,0,12541,,
3,2298720,Control_c,0,74,61,
3,2298728,Pitch_bend_c,0,12464,,
3,2299200,Control_c,0,74,61,
3,2299208,Pitch_bend_c,0,12387,,
3,2299680,Control_c,0,74,62,
3,2299688,Pitch_bend_c,0,12310,,
3,2300160,Note_off_c,0,52,0,
3,2300160,Note_on_c,0,52,54,
3,2300160,Control_c,0,74,62,
3,2300168,Pitch_bend_c,0,12233,,
3,2300640,Control_c,0,74,63,
3,2300648,Pitch_bend_c,0,12156,,
3,2300814,Note_off_c,0,64,0,
3,2301120,Control_c,0,74,64,
3,2301128,Pitch_bend_c,0,12079,,
3,2301600,Control_c,0,74,64,
3,2301608,Pitch_bend_c,0,12002,,
3,2302080,Control_c,0,74,65,
3,2302088,Pitch_bend_c,0,11925,,
3,2302560,Control_c,0,74,65,
3,2302568,Pitch_bend_c,0,11848,,
3,2303040,Control_c,0,74,66,
3,2303048,Pitch_bend_c,0,11771,,
3,2303520,Control_c,0,74,67,
3,2303528,Pitch_bend_c,0,11694,,
3,2304000,Note_on_c,0,64,51,
3,2304000,Control_c,0,74,67,
3,2304008,Pitch_bend_c,0,11617,,
3,2304198,Note_off_c,0,52,0,
3,2304480,Control_c,0,74,68,
3,2304488,Pitch_bend_c,0,11540,,
3,2304960,Control_c,0,74,68,
3,2304968,Pitch_bend_c,0,11463,,
3,2305440,Control_c,0,74,69,
3,2305448,Pitch_bend_c,0,11386,,
3,2305920,Control_c,0,74,70,
3,2305928,Pitch_bend_c,0,11309,,
3,2306400,Control_c,0,74,70,
3,2306408,Pitch_bend_c,0,11232,,
3,2306880,Control_c,0,74,71,
3,2306888,Pitch_bend_c,0,11155,,
3,2307360,Control_c,0,74,71,
3,2307368,Pitch_bend_c,0,11078,,
3,2307840,Note_off_c,0,64,0,
3,2307840,Control_c,0,74,72,
3,2307848,Pitch_bend_c,0,11001,,
3,2308320,Control_c,0,74,73,
3,2308328,Pitch_bend_c,0,10924,,
3,2308800,Control_c,0,74,73,
3,2308808,Pitch_bend_c,0,10847,,
3,2309280,Control_c,0,74,74,
3,2309288,Pitch_bend_c,0,10770,,
3,2309760,Control_c,0,74,74,
3,2309768,Pitch_bend_c,0,10693,,
3,2310240,Control_c,0,74,75,
3,2310248,Pitch_bend_c,0,10616,,
3,2310720,Control_c,0,74,76,
3,2310728,Pitch_bend_c,0,10539,,
3,2311200,Control_c,0,74,76,
3,2311208,Pitch_bend_c,0,10462,,
3,2311680,Note_on_c,0,52,54,
3,2311680,Note_on_c,0,64,51,
3,2311680,Control_c,0,74,77,
3,2311688,Pitch_bend_c,0,10385,,
3,2312160,Control_c,0,74,77,
3,2312168,Pitch_bend_c,0,10308,,
3,2312640,Control_c,0,74,78,
3,2312648,Pitch_bend_c,0,10231,,
3,2313120,Control_c,0,74,79,
3,2313128,Pitch_bend_c,0,10154,,
3,2313395,Pitch_bend_c,0,10112,,
3,2313402,Note_off_c,0,64,0,
3,2313600,Note_off_c,0,52,0,
3,2313600,Control_c,0,74,79,
3,2313875,Pitch_bend_c,0,9861,,
3,2314080,Control_c,0,74,80,
3,2314355,Pitch_bend_c,0,9610,,
3,2314560,Control_c,0,74,80,
3,2314835,Pitch_bend_c,0,9359,,
3,2315040,Control_c,0,74,81,
3,2315315,Pitch_bend_c,0,9108,,
3,2315520,Control_c,0,74,82,
3,2315795,Pitch_bend_c,0,8857,,
3,2316000,Control_c,0,74,82,
3,2316275,Pitch_bend_c,0,8606,,
3,2316480,Control_c,0,74,83,
3,2316755,Pitch_bend_c,0,8356,,
3,2316960,Control_c,0,74,83,
3,2317069,Pitch_bend_c,0,8192,,
3,2317440,Control_c,0,74,84,
3,2317920,Control_c,0,74,85,
3,2318400,Control_c,0,74,85,
3,2318880,Control_c,0,74,86,
3,2319360,Note_on_c,0,52,86,
3,2319360,Note_on_c,0,64,86,
3,2319360,Control_c,0,74,87,
3,2319840,Control_c,0,74,87,
3,2320320,Control_c,0,74,88,
3,2320800,Control_c,0,74,88,
3,2321280,Control_c,0,74,89,
3,2321760,Control_c,0,74,90,
3,2322240,Control_c,0,74,90,
3,2322720,Control_c,0,74,91,
3,2323200,Note_off_c,0,52,0,
3,2323200,Note_off_c,0,64,0,
3,2323200,Control_c,0,74,91,
3,2323680,Control_c,0,74,92,
3,2324160,Control_c,0,74,93,
3,2324640,Control_c,0,74,93,
3,2325120,Control_c,0,74,94,
3,2325600,Control_c,0,74,94,
3,2326080,Control_c,0,74,95,
3,2326560,Control_c,0,74,96,
3,2327040,Note_on_c,0,52,63,
3,2327040,Note_on_c,0,59,100,
3,2327040,Note_on_c,0,64,57,
3,2327040,Control_c,0,74,96,
3,2327520,Control_c,0,74,97,
3,2328000,Control_c,0,74,97,
3,2328480,Control_c,0,74,98,
3,2328960,Control_c,0,74,99,
3,2329440,Control_c,0,74,99,
3,2329920,Control_c,0,74,100,
3,2330400,Control_c,0,74,100,
3,2330880,Control_c,0,74,101,
3,2331360,Control_c,0,74,102,
3,2331840,Control_c,0,74,102,
3,2332320,Control_c,0,74,103,
3,2332800,Control_c,0,74,103,
3,2333280,Control_c,0,74,104,
3,2333760,Control_c,0,74,105,
3,2334240,Control_c,0,74,105,
3,2334720,Control_c,0,74,106,
3,2335200,Control_c,0,74,106,
3,2335680,Control_c,0,74,107,
3,2336160,Control_c,0,74,108,
3,2336640,Control_c,0,74,108,
3,2337120,Control_c,0,74,109,
3,2337600,Control_c,0,74,109,
3,2338080,Control_c,0,74,110,
3,2338560,Control_c,0,74,111,
3,2339040,Control_c,0,74,111,
3,2339520,Control_c,0,74,112,
3,2340000,Control_c,0,74,112,
3,2340266,Note_off_c,0,64,0,
3,2340440,Note_off_c,0,52,0,
3,2340480,Control_c,0,74,113,
3,2340960,Control_c,0,74,114,
3,2341440,Control_c,0,74,114,
3,2341920,Control_c,0,74,115,
3,2342400,Note_off_c,0,59,0,
3,2342400,Control_c,0,74,116,
3,2342880,Control_c,0,74,115,
3,2343360,Control_c,0,74,115,
3,2343840,Control_c,0,74,115,
3,2344320,Control_c,0,74,115,
3,2344800,Control_c,0,74,114,
3,2345280,Control_c,0,74,114,
3,2345760,Control_c,0,74,114,
3,2346240,Control_c,0,74,114,
3,2346243,Pitch_bend_c,0,8192,,
3,2346720,Control_c,0,74,114,
3,2346723,Pitch_bend_c,0,9650,,
3,2347200,Control_c,0,74,113,
3,2347203,Pitch_bend_c,0,11108,,
3,2347680,Control_c,0,74,113,
3,2347683,Pitch_bend_c,0,12567,,
3,2348160,Control_c,0,74,113,
3,2348163,Pitch_bend_c,0,14025,,
3,2348640,Control_c,0,74,113,
3,2348643,Pitch_bend_c,0,15483,,
3,2348939,Pitch_bend_c,0,16383,,
3,2349120,Control_c,0,74,113,
3,2349532,Control_c,0,74,113,
3,2350012,Control_c,0,74,106,
3,2350080,Note_on_c,0,52,32,
3,2350080,Note_on_c,0,64,59,
3,2350492,Control_c,0,74,100,
3,2350972,Control_c,0,74,93,
3,2351452,Control_c,0,74,87,
3,2351932,Control_c,0,74,81,
3,2352412,Control_c,0,74,74,
3,2352892,Control_c,0,74,68,
3,2353009,Control_c,0,74,67,
3,2353489,Control_c,0,74,65,
3,2353969,Control_c,0,74,63,
3,2354449,Control_c,0,74,61,
3,2354929,Control_c,0,74,59,
3,2355409,Control_c,0,74,57,
3,2355889,Control_c,0,74,56,
3,2356369,Control_c,0,74,54,
3,2356849,Control_c,0,74,52,
3,2356990,Control_c,0,74,52,
3,2357470,Control_c,0,74,52,
3,2357950,Control_c,0,74,52,
3,2358430,Control_c,0,74,53,
3,2358910,Control_c,0,74,53,
3,2359390,Control_c,0,74,54,
3,2359870,Control_c,0,74,54,
3,2360350,Control_c,0,74,55,
3,2360830,Control_c,0,74,55,
3,2360946,Note_off_c,0,52,0,
3,2361310,Control_c,0,74,56,
3,2361600,Note_off_c,0,64,0,
3,2361600,Note_on_c,0,52,54,
3,2361790,Control_c,0,74,56,
3,2362270,Control_c,0,74,57,
3,2362750,Control_c,0,74,57,
3,2363230,Control_c,0,74,58,
3,2363710,Control_c,0,74,58,
3,2364190,Control_c,0,74,59,
3,2364670,Control_c,0,74,59,
3,2365150,Control_c,0,74,60,
3,2365440,Note_on_c,0,64,51,
3,2365630,Control_c,0,74,60,
3,2365638,Note_off_c,0,52,0,
3,2366110,Control_c,0,74,61,
3,2366590,Control_c,0,74,61,
3,2367070,Control_c,0,74,62,
3,2367550,Control_c,0,74,62,
3,2368030,Control_c,0,74,63,
3,2368510,Control_c,0,74,63,
3,2368990,Control_c,0,74,64,
3,2369280,Note_off_c,0,64,0,
3,2369470,Control_c,0,74,64,
3,2369610,Control_c,0,74,65,
3,2370090,Control_c,0,74,64,
3,2370570,Control_c,0,74,63,
3,2371050,Control_c,0,74,63,
3,2371530,Control_c,0,74,62,
3,2372010,Control_c,0,74,62,
3,2372490,Control_c,0,74,61,
3,2372970,Control_c,0,74,61,
3,2373120,Note_on_c,0,52,54,
3,2373120,Note_on_c,0,64,51,
3,2373450,Control_c,0,74,60,
3,2373930,Control_c,0,74,60,
3,2374410,Control_c,0,74,59,
3,2374842,Note_off_c,0,64,0,
3,2374890,Control_c,0,74,59,
3,2375040,Note_off_c,0,52,0,
3,2375370,Control_c,0,74,58,
3,2375850,Control_c,0,74,58,
3,2376330,Control_c,0,74,57,
3,2376810,Control_c,0,74,57,
3,2377290,Control_c,0,74,56,
3,2377770,Control_c,0,74,56,
3,2378250,Control_c,0,74,55,
3,2378730,Control_c,0,74,55,
3,2379210,Control_c,0,74,54,
3,2379690,Control_c,0,74,54,
3,2379914,Control_c,0,74,54,
3,2380394,Control_c,0,74,53,
3,2380800,Note_on_c,0,52,86,
3,2380800,Note_on_c,0,64,86,
3,2380874,Control_c,0,74,53,
3,2381354,Control_c,0,74,53,
3,2381834,Control_c,0,74,53,
3,2382314,Control_c,0,74,53,
3,2382794,Control_c,0,74,53,
3,2383274,Control_c,0,74,53,
3,2383754,Control_c,0,74,53,
3,2384234,Control_c,0,74,53,
3,2384640,Note_off_c,0,52,0,
3,2384640,Note_off_c,0,64,0,
3,2384714,Control_c,0,74,53,
3,2385194,Control_c,0,74,53,
3,2385674,Control_c,0,74,53,
3,2386154,Control_c,0,74,53,
3,2386634,Control_c,0,74,53,
3,2387114,Control_c,0,74,53,
3,2387594,Control_c,0,74,53,
3,2388074,Control_c,0,74,53,
3,2388480,Note_on_c,0,52,86,
3,2388480,Note_on_c,0,64,86,
3,2388554,Control_c,0,74,53,
3,2389034,Control_c,0,74,53,
3,2389514,Control_c,0,74,53,
3,2389994,Control_c,0,74,52,
3,2390474,Control_c,0,74,52,
3,2390954,Control_c,0,74,52,
3,2391434,Control_c,0,74,52,
3,2391914,Control_c,0,74,52,
3,2392320,Note_off_c,0,52,0,
3,2392320,Note_off_c,0,64,0,
3,2392394,Control_c,0,74,52,
3,2392874,Control_c,0,74,52,
3,2393354,Control_c,0,74,52,
3,2393834,Control_c,0,74,52,
3,2394314,Control_c,0,74,52,
3,2394794,Control_c,0,74,52,
3,2395274,Control_c,0,74,52,
3,2395754,Control_c,0,74,52,
3,2396160,Note_on_c,0,52,63,
3,2396160,Note_on_c,0,59,63,
3,2396160,Note_on_c,0,64,57,
3,2396234,Control_c,0,74,52,
3,2396714,Control_c,0,74,52,
3,2397194,Control_c,0,74,52,
3,2397674,Control_c,0,74,52,
3,2398154,Control_c,0,74,52,
3,2398634,Control_c,0,74,52,
3,2399114,Control_c,0,74,52,
3,2399153,Control_c,0,74,52,
3,2399633,Control_c,0,74,52,
3,2400113,Control_c,0,74,52,
3,2400593,Control_c,0,74,52,
3,2401073,Control_c,0,74,52,
3,2401553,Control_c,0,74,53,
3,2402033,Control_c,0,74,53,
3,2402513,Control_c,0,74,53,
3,2402993,Control_c,0,74,53,
3,2403473,Control_c,0,74,53,
3,2403666,Note_off_c,0,64,0,
3,2403840,Note_off_c,0,52,0,
3,2403840,Note_off_c,0,59,0,
3,2403953,Control_c,0,74,54,
3,2404433,Control_c,0,74,54,
3,2404913,Control_c,0,74,54,
3,2405393,Control_c,0,74,54,
3,2405873,Control_c,0,74,55,
3,2406353,Control_c,0,74,55,
3,2406833,Control_c,0,74,55,
3,2407313,Control_c,0,74,55,
3,2407793,Control_c,0,74,55,
3,2408273,Control_c,0,74,56,
3,2408753,Control_c,0,74,56,
3,2409233,Control_c,0,74,56,
3,2409713,Control_c,0,74,56,
3,2410193,Control_c,0,74,57,
3,2410374,Pitch_bend_c,0,16383,,
3,2410673,Control_c,0,74,57,
3,2410854,Pitch_bend_c,0,15905,,
3,2411153,Control_c,0,74,57,
3,2411334,Pitch_bend_c,0,15427,,
3,2411520,Note_on_c,0,52,32,
3,2411520,Note_on_c,0,64,59,
3,2411633,Control_c,0,74,57,
3,2411814,Pitch_bend_c,0,14950,,
3,2412113,Control_c,0,74,57,
3,2412294,Pitch_bend_c,0,14472,,
3,2412593,Control_c,0,74,58,
3,2412689,Pitch_bend_c,0,14080,,
3,2413073,Control_c,0,74,58,
3,2413169,Pitch_bend_c,0,13874,,
3,2413553,Control_c,0,74,58,
3,2413649,Pitch_bend_c,0,13669,,
3,2414033,Control_c,0,74,58,
3,2414129,Pitch_bend_c,0,13464,,
3,2414513,Control_c,0,74,59,
3,2414609,Pitch_bend_c,0,13259,,
3,2414993,Control_c,0,74,59,
3,2415089,Pitch_bend_c,0,13053,,
3,2415360,Note_off_c,0,52,0,
3,2415360,Note_on_c,0,52,32,
3,2415360,Note_on_c,0,64,59,
3,2415473,Control_c,0,74,59,
3,2415569,Pitch_bend_c,0,12848,,
3,2415953,Control_c,0,74,59,
3,2415982,Pitch_bend_c,0,12672,,
3,2416014,Note_off_c,0,64,0,
3,2416433,Control_c,0,74,59,
3,2416462,Pitch_bend_c,0,12639,,
3,2416913,Control_c,0,74,60,
3,2416942,Pitch_bend_c,0,12606,,
3,2417393,Control_c,0,74,60,
3,2417422,Pitch_bend_c,0,12573,,
3,2417873,Control_c,0,74,60,
3,2417902,Pitch_bend_c,0,12540,,
3,2418353,Control_c,0,74,60,
3,2418382,Pitch_bend_c,0,12507,,
3,2418833,Control_c,0,74,61,
3,2418862,Pitch_bend_c,0,12474,,
3,2419313,Control_c,0,74,61,
3,2419342,Pitch_bend_c,0,12441,,
3,2419793,Control_c,0,74,61,
3,2419822,Pitch_bend_c,0,12408,,
3,2420273,Control_c,0,74,61,
3,2420302,Pitch_bend_c,0,12375,,
3,2420753,Control_c,0,74,61,
3,2420782,Pitch_bend_c,0,12342,,
3,2421233,Control_c,0,74,62,
3,2421262,Pitch_bend_c,0,12309,,
3,2421713,Control_c,0,74,62,
3,2421742,Pitch_bend_c,0,12277,,
3,2422193,Control_c,0,74,62,
3,2422222,Pitch_bend_c,0,12244,,
3,2422673,Control_c,0,74,62,
3,2422702,Pitch_bend_c,0,12211,,
3,2423040,Note_off_c,0,52,0,
3,2423040,Note_on_c,0,52,54,
3,2423040,Control_c,0,74,63,
3,2423182,Pitch_bend_c,0,12178,,
3,2423520,Control_c,0,74,63,
3,2423662,Pitch_bend_c,0,12145,,
3,2423694,Note_off_c,0,64,0,
3,2424000,Control_c,0,74,64,
3,2424142,Pitch_bend_c,0,12112,,
3,2424480,Control_c,0,74,65,
3,2424622,Pitch_bend_c,0,12079,,
3,2424960,Control_c,0,74,66,
3,2425102,Pitch_bend_c,0,12046,,
3,2425440,Control_c,0,74,67,
3,2425582,Pitch_bend_c,0,12013,,
3,2425920,Control_c,0,74,68,
3,2426062,Pitch_bend_c,0,11980,,
3,2426400,Control_c,0,74,68,
3,2426542,Pitch_bend_c,0,11947,,
3,2426880,Note_on_c,0,64,51,
3,2426880,Control_c,0,74,69,
3,2427022,Pitch_bend_c,0,11915,,
3,2427078,Note_off_c,0,52,0,
3,2427360,Control_c,0,74,70,
3,2427502,Pitch_bend_c,0,11882,,
3,2427840,Control_c,0,74,71,
3,2427982,Pitch_bend_c,0,11849,,
3,2428320,Control_c,0,74,72,
3,2428462,Pitch_bend_c,0,11816,,
3,2428800,Control_c,0,74,73,
3,2428942,Pitch_bend_c,0,11783,,
3,2429280,Control_c,0,74,73,
3,2429422,Pitch_bend_c,0,11750,,
3,2429760,Control_c,0,74,74,
3,2429902,Pitch_bend_c,0,11717,,
3,2430240,Control_c,0,74,75,
3,2430382,Pitch_bend_c,0,11684,,
3,2430720,Note_off_c,0,64,0,
3,2430720,Control_c,0,74,76,
3,2430862,Pitch_bend_c,0,11651,,
3,2430917,Pitch_bend_c,0,11648,,
3,2431200,Control_c,0,74,77,
3,2431397,Pitch_bend_c,0,11523,,
3,2431680,Control_c,0,74,78,
3,2431877,Pitch_bend_c,0,11398,,
3,2432160,Control_c,0,74,78,
3,2432357,Pitch_bend_c,0,11274,,
3,2432640,Control_c,0,74,79,
3,2432837,Pitch_bend_c,0,11149,,
3,2433120,Control_c,0,74,80,
3,2433317,Pitch_bend_c,0,11025,,
3,2433600,Control_c,0,74,81,
3,2433797,Pitch_bend_c,0,10900,,
3,2434080,Control_c,0,74,82,
3,2434277,Pitch_bend_c,0,10775,,
3,2434560,Note_on_c,0,52,54,
3,2434560,Note_on_c,0,64,51,
3,2434560,Control_c,0,74,83,
3,2434757,Pitch_bend_c,0,10651,,
3,2435040,Control_c,0,74,84,
3,2435237,Pitch_bend_c,0,10526,,
3,2435520,Control_c,0,74,84,
3,2435717,Pitch_bend_c,0,10402,,
3,2436000,Control_c,0,74,85,
3,2436197,Pitch_bend_c,0,10277,,
3,2436282,Note_off_c,0,64,0,
3,2436480,Note_off_c,0,52,0,
3,2436480,Control_c,0,74,86,
3,2436677,Pitch_bend_c,0,10152,,
3,2436960,Control_c,0,74,87,
3,2437157,Pitch_bend_c,0,10028,,
3,2437440,Control_c,0,74,88,
3,2437637,Pitch_bend_c,0,9903,,
3,2437920,Control_c,0,74,89,
3,2438117,Pitch_bend_c,0,9779,,
3,2438400,Control_c,0,74,89,
3,2438597,Pitch_bend_c,0,9654,,
3,2438880,Control_c,0,74,90,
3,2439077,Pitch_bend_c,0,9530,,
3,2439360,Control_c,0,74,91,
3,2439557,Pitch_bend_c,0,9405,,
3,2439840,Control_c,0,74,92,
3,2440037,Pitch_bend_c,0,9280,,
3,2440320,Control_c,0,74,93,
3,2440517,Pitch_bend_c,0,9156,,
3,2440800,Control_c,0,74,94,
3,2440997,Pitch_bend_c,0,9031,,
3,2441280,Control_c,0,74,94,
3,2441477,Pitch_bend_c,0,8907,,
3,2441760,Control_c,0,74,95,
3,2441957,Pitch_bend_c,0,8782,,
3,2442240,Note_on_c,0,52,86,
3,2442240,Note_on_c,0,64,86,
3,2442240,Control_c,0,74,96,
3,2442437,Pitch_bend_c,0,8657,,
3,2442720,Control_c,0,74,97,
3,2442917,Pitch_bend_c,0,8533,,
3,2443001,Control_c,0,74,98,
3,2443397,Pitch_bend_c,0,8408,,
3,2443481,Control_c,0,74,98,
3,2443877,Pitch_bend_c,0,8284,,
3,2443961,Control_c,0,74,99,
3,2444232,Pitch_bend_c,0,8192,,
3,2444441,Control_c,0,74,99,
3,2444921,Control_c,0,74,100,
3,2445401,Control_c,0,74,101,
3,2445881,Control_c,0,74,101,
3,2446080,Note_off_c,0,52,0,
3,2446080,Note_off_c,0,64,0,
3,2446361,Control_c,0,74,102,
3,2446841,Control_c,0,74,103,
3,2447321,Control_c,0,74,103,
3,2447801,Control_c,0,74,104,
3,2448281,Control_c,0,74,104,
3,2448761,Control_c,0,74,105,
3,2449241,Control_c,0,74,106,
3,2449721,Control_c,0,74,106,
3,2449920,Note_on_c,0,52,63,
3,2449920,Note_on_c,0,59,100,
3,2449920,Note_on_c,0,64,57,
3,2450201,Control_c,0,74,107,
3,2450681,Control_c,0,74,108,
3,2451161,Control_c,0,74,108,
3,2451641,Control_c,0,74,109,
3,2452121,Control_c,0,74,110,
3,2452601,Control_c,0,74,110,
3,2453081,Control_c,0,74,111,
3,2453561,Control_c,0,74,111,
3,2454041,Control_c,0,74,112,
3,2454521,Control_c,0,74,113,
3,2455001,Control_c,0,74,113,
3,2455481,Control_c,0,74,114,
3,2455961,Control_c,0,74,115,
3,2456441,Control_c,0,74,115,
3,2456921,Control_c,0,74,116,
3,2457401,Control_c,0,74,117,
3,2457881,Control_c,0,74,117,
3,2458361,Control_c,0,74,118,
3,2458841,Control_c,0,74,118,
3,2458901,Control_c,0,74,119,
3,2459381,Control_c,0,74,120,
3,2459861,Control_c,0,74,122,
3,2460341,Control_c,0,74,124,
3,2460821,Control_c,0,74,126,
3,2460902,Control_c,0,74,127,
3,2463146,Note_off_c,0,64,0,
3,2463320,Note_off_c,0,52,0,
3,2465280,Note_off_c,0,59,0,
3,2470229,Control_c,0,74,127,
3,2470450,Pitch_bend_c,0,8192,,
3,2470709,Control_c,0,74,121,
3,2470930,Pitch_bend_c,0,9541,,
3,2471189,Control_c,0,74,116,
3,2471410,Pitch_bend_c,0,10890,,
3,2471669,Control_c,0,74,111,
3,2471849,Control_c,0,74,109,
3,2471890,Pitch_bend_c,0,12239,,
3,2472135,Pitch_bend_c,0,12928,,
3,2472329,Control_c,0,74,97,
3,2472450,Pitch_bend_c,0,15104,,
3,2472544,Control_c,0,74,93,
3,2472930,Pitch_bend_c,0,15986,,
3,2472960,Note_on_c,0,52,32,
3,2472960,Note_on_c,0,64,59,
3,2473024,Control_c,0,74,86,
3,2473146,Pitch_bend_c,0,16383,,
3,2473504,Control_c,0,74,80,
3,2473984,Control_c,0,74,74,
3,2474230,Control_c,0,74,71,
3,2474710,Control_c,0,74,66,
3,2475190,Control_c,0,74,61,
3,2475670,Control_c,0,74,57,
3,2476150,Control_c,0,74,52,
3,2476630,Control_c,0,74,48,
3,2477110,Control_c,0,74,43,
3,2477195,Control_c,0,74,43,
3,2477675,Control_c,0,74,41,
3,2478155,Control_c,0,74,39,
3,2478635,Control_c,0,74,37,
3,2479115,Control_c,0,74,35,
3,2479208,Control_c,0,74,35,
3,2483826,Note_off_c,0,52,0,
3,2484480,Note_off_c,0,64,0,
3,2484480,Note_on_c,0,52,54,
3,2488320,Note_on_c,0,64,51,
3,2488490,Control_c,0,74,35,
3,2488518,Note_off_c,0,52,0,
3,2488970,Control_c,0,74,37,
3,2489450,Control_c,0,74,39,
3,2489930,Control_c,0,74,41,
3,2490410,Control_c,0,74,43,
3,2490890,Control_c,0,74,46,
3,2491370,Control_c,0,74,48,
3,2491850,Control_c,0,74,50,
3,2492160,Note_off_c,0,64,0,
3,2492330,Control_c,0,74,52,
3,2492773,Control_c,0,74,55,
3,2493253,Control_c,0,74,55,
3,2493733,Control_c,0,74,55,
3,2494213,Control_c,0,74,56,
3,2494693,Control_c,0,74,56,
3,2495173,Control_c,0,74,57,
3,2495653,Control_c,0,74,57,
3,2496000,Note_on_c,0,52,54,
3,2496000,Note_on_c,0,64,51,
3,2496133,Control_c,0,74,58,
3,2496613,Control_c,0,74,58,
3,2497093,Control_c,0,74,59,
3,2497573,Control_c,0,74,59,
3,2497722,Note_off_c,0,64,0,
3,2497920,Note_off_c,0,52,0,
3,2498053,Control_c,0,74,60,
3,2498533,Control_c,0,74,60,
3,2499013,Control_c,0,74,60,
3,2499493,Control_c,0,74,61,
3,2499973,Control_c,0,74,61,
3,2500099,Control_c,0,74,62,
3,2500579,Control_c,0,74,61,
3,2501059,Control_c,0,74,61,
3,2501539,Control_c,0,74,60,
3,2502019,Control_c,0,74,60,
3,2502499,Control_c,0,74,60,
3,2502730,Control_c,0,74,60,
3,2503210,Control_c,0,74,57,
3,2503680,Note_on_c,0,52,86,
3,2503680,Note_on_c,0,64,86,
3,2503690,Control_c,0,74,55,
3,2504170,Control_c,0,74,53,
3,2504650,Control_c,0,74,51,
3,2505130,Control_c,0,74,49,
3,2505610,Control_c,0,74,47,
3,2506088,Control_c,0,74,46,
3,2507520,Note_off_c,0,52,0,
3,2507520,Note_off_c,0,64,0,
3,2508403,Control_c,0,74,46,
3,2508883,Control_c,0,74,47,
3,2509363,Control_c,0,74,49,
3,2509843,Control_c,0,74,50,
3,2510323,Control_c,0,74,52,
3,2510803,Control_c,0,74,54,
3,2511283,Control_c,0,74,55,
3,2511360,Note_on_c,0,52,86,
3,2511360,Note_on_c,0,64,86,
3,2511763,Control_c,0,74,57,
3,2512243,Control_c,0,74,58,
3,2512723,Control_c,0,74,60,
3,2513203,Control_c,0,74,62,
3,2513683,Control_c,0,74,63,
3,2514077,Control_c,0,74,65,
3,2514557,Control_c,0,74,63,
3,2515037,Control_c,0,74,61,
3,2515200,Note_off_c,0,52,0,
3,2515200,Note_off_c,0,64,0,
3,2515517,Control_c,0,74,59,
3,2515997,Control_c,0,74,57,
3,2516477,Control_c,0,74,55,
3,2516957,Control_c,0,74,53,
3,2517437,Control_c,0,74,51,
3,2517917,Control_c,0,74,49,
3,2518397,Control_c,0,74,47,
3,2518877,Control_c,0,74,45,
3,2519040,Note_on_c,0,52,63,
3,2519040,Note_on_c,0,59,63,
3,2519040,Note_on_c,0,64,57,
3,2519357,Control_c,0,74,43,
3,2519837,Control_c,0,74,41,
3,2520317,Control_c,0,74,39,
3,2520643,Control_c,0,74,38,
3,2521123,Control_c,0,74,37,
3,2521603,Control_c,0,74,36,
3,2522083,Control_c,0,74,35,
3,2522563,Control_c,0,74,34,
3,2523043,Control_c,0,74,33,
3,2523523,Control_c,0,74,32,
3,2524003,Control_c,0,74,31,
3,2524483,Control_c,0,74,30,
3,2524963,Control_c,0,74,29,
3,2525443,Control_c,0,74,28,
3,2525923,Control_c,0,74,27,
3,2526337,Control_c,0,74,27,
3,2526546,Note_off_c,0,64,0,
3,2526720,Note_off_c,0,52,0,
3,2526720,Note_off_c,0,59,0,
3,2526817,Control_c,0,74,27,
3,2527297,Control_c,0,74,27,
3,2527777,Control_c,0,74,27,
3,2528257,Control_c,0,74,27,
3,2528737,Control_c,0,74,27,
3,2529012,Control_c,0,74,28,
3,2529492,Control_c,0,74,29,
3,2529972,Control_c,0,74,31,
3,2530452,Control_c,0,74,32,
3,2530932,Control_c,0,74,34,
3,2531412,Control_c,0,74,36,
3,2531892,Control_c,0,74,37,
3,2532372,Control_c,0,74,39,
3,2532852,Control_c,0,74,41,
3,2533332,Control_c,0,74,42,
3,2533812,Control_c,0,74,44,
3,2534292,Control_c,0,74,45,
3,2534400,Note_on_c,0,52,32,
3,2534400,Note_on_c,0,64,59,
3,2534400,Pitch_bend_c,0,16383,,
3,2534772,Control_c,0,74,47,
3,2534880,Pitch_bend_c,0,16280,,
3,2535252,Control_c,0,74,49,
3,2535360,Pitch_bend_c,0,16178,,
3,2535732,Control_c,0,74,50,
3,2535840,Pitch_bend_c,0,16075,,
3,2536212,Control_c,0,74,52,
3,2536320,Pitch_bend_c,0,15973,,
3,2536692,Control_c,0,74,54,
3,2536800,Pitch_bend_c,0,15871,,
3,2537172,Control_c,0,74,55,
3,2537280,Pitch_bend_c,0,15768,,
3,2537652,Control_c,0,74,57,
3,2537760,Pitch_bend_c,0,15666,,
3,2538132,Control_c,0,74,59,
3,2538240,Note_off_c,0,52,0,
3,2538240,Note_on_c,0,52,32,
3,2538240,Note_on_c,0,64,59,
3,2538240,Pitch_bend_c,0,15563,,
3,2538612,Control_c,0,74,60,
3,2538720,Pitch_bend_c,0,15461,,
3,2538894,Note_off_c,0,64,0,
3,2539092,Control_c,0,74,62,
3,2539200,Pitch_bend_c,0,15359,,
3,2539572,Control_c,0,74,63,
3,2539587,Control_c,0,74,64,
3,2539680,Pitch_bend_c,0,15256,,
3,2540067,Control_c,0,74,62,
3,2540160,Pitch_bend_c,0,15154,,
3,2540547,Control_c,0,74,60,
3,2540640,Pitch_bend_c,0,15051,,
3,2541027,Control_c,0,74,59,
3,2541120,Pitch_bend_c,0,14949,,
3,2541507,Control_c,0,74,57,
3,2541600,Pitch_bend_c,0,14847,,
3,2541987,Control_c,0,74,56,
3,2542080,Pitch_bend_c,0,14744,,
3,2542467,Control_c,0,74,54,
3,2542560,Pitch_bend_c,0,14642,,
3,2542947,Control_c,0,74,53,
3,2543040,Pitch_bend_c,0,14540,,
3,2543427,Control_c,0,74,51,
3,2543520,Pitch_bend_c,0,14437,,
3,2543907,Control_c,0,74,50,
3,2544000,Pitch_bend_c,0,14335,,
3,2544250,Control_c,0,74,49,
3,2544480,Pitch_bend_c,0,14232,,
3,2544730,Control_c,0,74,49,
3,2544960,Pitch_bend_c,0,14130,,
3,2545210,Control_c,0,74,49,
3,2545440,Pitch_bend_c,0,14028,,
3,2545690,Control_c,0,74,49,
3,2545903,Control_c,0,74,50,
3,2545920,Note_off_c,0,52,0,
3,2545920,Note_on_c,0,52,54,
3,2545920,Pitch_bend_c,0,13925,,
3,2546383,Control_c,0,74,51,
3,2546400,Pitch_bend_c,0,13823,,
3,2546574,Note_off_c,0,64,0,
3,2546863,Control_c,0,74,53,
3,2546880,Pitch_bend_c,0,13720,,
3,2547343,Control_c,0,74,55,
3,2547360,Pitch_bend_c,0,13618,,
3,2547823,Control_c,0,74,57,
3,2547840,Pitch_bend_c,0,13516,,
3,2548303,Control_c,0,74,58,
3,2548320,Pitch_bend_c,0,13413,,
3,2548783,Control_c,0,74,60,
3,2548800,Pitch_bend_c,0,13311,,
3,2549263,Control_c,0,74,62,
3,2549280,Pitch_bend_c,0,13208,,
3,2549743,Control_c,0,74,64,
3,2549760,Note_on_c,0,64,51,
3,2549760,Pitch_bend_c,0,13106,,
3,2549958,Note_off_c,0,52,0,
3,2550223,Control_c,0,74,66,
3,2550240,Pitch_bend_c,0,13004,,
3,2550703,Control_c,0,74,67,
3,2550720,Pitch_bend_c,0,12901,,
3,2551183,Control_c,0,74,69,
3,2551200,Pitch_bend_c,0,12799,,
3,2551663,Control_c,0,74,71,
3,2551680,Pitch_bend_c,0,12697,,
3,2552143,Control_c,0,74,73,
3,2552160,Pitch_bend_c,0,12594,,
3,2552623,Control_c,0,74,75,
3,2552640,Pitch_bend_c,0,12492,,
3,2552882,Control_c,0,74,76,
3,2553120,Pitch_bend_c,0,12389,,
3,2553362,Control_c,0,74,75,
3,2553600,Note_off_c,0,64,0,
3,2553600,Pitch_bend_c,0,12287,,
3,2553842,Control_c,0,74,75,
3,2554080,Pitch_bend_c,0,12185,,
3,2554322,Control_c,0,74,75,
3,2554560,Pitch_bend_c,0,12082,,
3,2554802,Control_c,0,74,75,
3,2554882,Control_c,0,74,75,
3,2555040,Pitch_bend_c,0,11980,,
3,2555362,Control_c,0,74,72,
3,2555520,Pitch_bend_c,0,11877,,
3,2555842,Control_c,0,74,69,
3,2556000,Pitch_bend_c,0,11775,,
3,2556322,Control_c,0,74,66,
3,2556480,Pitch_bend_c,0,11673,,
3,2556802,Control_c,0,74,63,
3,2556960,Pitch_bend_c,0,11570,,
3,2557282,Control_c,0,74,60,
3,2557440,Note_on_c,0,52,54,
3,2557440,Note_on_c,0,64,51,
3,2557440,Pitch_bend_c,0,11468,,
3,2557762,Control_c,0,74,57,
3,2557880,Control_c,0,74,57,
3,2557920,Pitch_bend_c,0,11366,,
3,2558360,Control_c,0,74,57,
3,2558400,Pitch_bend_c,0,11263,,
3,2558840,Control_c,0,74,57,
3,2558880,Pitch_bend_c,0,11161,,
3,2559162,Note_off_c,0,64,0,
3,2559320,Control_c,0,74,57,
3,2559360,Note_off_c,0,52,0,
3,2559360,Pitch_bend_c,0,11058,,
3,2559800,Control_c,0,74,57,
3,2559840,Pitch_bend_c,0,10956,,
3,2559860,Control_c,0,74,58,
3,2560320,Pitch_bend_c,0,10854,,
3,2560340,Control_c,0,74,59,
3,2560800,Pitch_bend_c,0,10751,,
3,2560820,Control_c,0,74,61,
3,2561280,Pitch_bend_c,0,10649,,
3,2561300,Control_c,0,74,63,
3,2561760,Pitch_bend_c,0,10546,,
3,2561780,Control_c,0,74,65,
3,2562240,Pitch_bend_c,0,10444,,
3,2562260,Control_c,0,74,67,
3,2562720,Pitch_bend_c,0,10342,,
3,2562740,Control_c,0,74,68,
3,2563200,Pitch_bend_c,0,10239,,
3,2563220,Control_c,0,74,70,
3,2563680,Pitch_bend_c,0,10137,,
3,2563700,Control_c,0,74,72,
3,2564160,Pitch_bend_c,0,10034,,
3,2564180,Control_c,0,74,74,
3,2564640,Pitch_bend_c,0,9932,,
3,2564660,Control_c,0,74,76,
3,2565120,Note_on_c,0,52,86,
3,2565120,Note_on_c,0,64,86,
3,2565120,Pitch_bend_c,0,9830,,
3,2565140,Control_c,0,74,78,
3,2565600,Pitch_bend_c,0,9727,,
3,2565620,Control_c,0,74,79,
3,2566080,Pitch_bend_c,0,9625,,
3,2566100,Control_c,0,74,81,
3,2566560,Pitch_bend_c,0,9523,,
3,2566580,Control_c,0,74,83,
3,2567040,Pitch_bend_c,0,9420,,
3,2567060,Control_c,0,74,85,
3,2567489,Control_c,0,74,87,
3,2567520,Pitch_bend_c,0,9318,,
3,2567969,Control_c,0,74,88,
3,2568000,Pitch_bend_c,0,9215,,
3,2568449,Control_c,0,74,89,
3,2568480,Pitch_bend_c,0,9113,,
3,2568929,Control_c,0,74,90,
3,2568960,Note_off_c,0,52,0,
3,2568960,Note_off_c,0,64,0,
3,2568960,Pitch_bend_c,0,9011,,
3,2569409,Control_c,0,74,91,
3,2569440,Pitch_bend_c,0,8908,,
3,2569889,Control_c,0,74,92,
3,2569920,Pitch_bend_c,0,8806,,
3,2570369,Control_c,0,74,93,
3,2570400,Pitch_bend_c,0,8703,,
3,2570849,Control_c,0,74,94,
3,2570880,Pitch_bend_c,0,8601,,
3,2571329,Control_c,0,74,96,
3,2571360,Pitch_bend_c,0,8499,,
3,2571809,Control_c,0,74,97,
3,2571840,Pitch_bend_c,0,8396,,
3,2572289,Control_c,0,74,98,
3,2572320,Pitch_bend_c,0,8294,,
3,2572769,Control_c,0,74,99,
3,2572800,Note_on_c,0,52,63,
3,2572800,Note_on_c,0,59,100,
3,2572800,Note_on_c,0,64,57,
3,2572800,Pitch_bend_c,0,8192,,
3,2573249,Control_c,0,74,100,
3,2573729,Control_c,0,74,101,
3,2574209,Control_c,0,74,102,
3,2574689,Control_c,0,74,104,
3,2575169,Control_c,0,74,105,
3,2575649,Control_c,0,74,106,
3,2576129,Control_c,0,74,107,
3,2576609,Control_c,0,74,108,
3,2577089,Control_c,0,74,109,
3,2577569,Control_c,0,74,110,
3,2578049,Control_c,0,74,112,
3,2578529,Control_c,0,74,113,
3,2579009,Control_c,0,74,114,
3,2579489,Control_c,0,74,115,
3,2579969,Control_c,0,74,116,
3,2580142,Control_c,0,74,117,
3,2580622,Control_c,0,74,115,
3,2581102,Control_c,0,74,114,
3,2581582,Control_c,0,74,112,
3,2582062,Control_c,0,74,111,
3,2582542,Control_c,0,74,109,
3,2583022,Control_c,0,74,108,
3,2583447,Control_c,0,74,107,
3,2583927,Control_c,0,74,98,
3,2584407,Control_c,0,74,89,
3,2584793,Control_c,0,74,83,
3,2585273,Control_c,0,74,79,
3,2585753,Control_c,0,74,75,
3,2586026,Note_off_c,0,64,0,
3,2586200,Note_off_c,0,52,0,
3,2586233,Control_c,0,74,71,
3,2586413,Control_c,0,74,70,
3,2586893,Control_c,0,74,68,
3,2587373,Control_c,0,74,67,
3,2587853,Control_c,0,74,65,
3,2588160,Note_off_c,0,59,0,
3,2588333,Control_c,0,74,64,
3,2588813,Control_c,0,74,62,
3,2589293,Control_c,0,74,61,
3,2589773,Control_c,0,74,59,
3,2590253,Control_c,0,74,58,
3,2590733,Control_c,0,74,56,
3,2591213,Control_c,0,74,55,
3,2591693,Control_c,0,74,53,
3,2592173,Control_c,0,74,52,
3,2592653,Control_c,0,74,50,
3,2593133,Control_c,0,74,49,
3,2593613,Control_c,0,74,47,
3,2593993,Pitch_bend_c,0,8192,,
3,2594093,Control_c,0,74,46,
3,2594473,Pitch_bend_c,0,9940,,
3,2594573,Control_c,0,74,44,
3,2594953,Pitch_bend_c,0,11688,,
3,2595053,Control_c,0,74,43,
3,2595077,Control_c,0,74,43,
3,2595433,Pitch_bend_c,0,13436,,
3,2595557,Control_c,0,74,43,
3,2595840,Note_on_c,0,52,32,
3,2595840,Note_on_c,0,64,59,
3,2595913,Pitch_bend_c,0,15185,,
3,2595961,Pitch_bend_c,0,15360,,
3,2596037,Control_c,0,74,44,
3,2596441,Pitch_bend_c,0,16066,,
3,2596517,Control_c,0,74,45,
3,2596656,Pitch_bend_c,0,16383,,
3,2596997,Control_c,0,74,46,
3,2597045,Control_c,0,74,47,
3,2597525,Control_c,0,74,50,
3,2598005,Control_c,0,74,53,
3,2598485,Control_c,0,74,56,
3,2598965,Control_c,0,74,59,
3,2599445,Control_c,0,74,62,
3,2599925,Control_c,0,74,65,
3,2600405,Control_c,0,74,68,
3,2600885,Control_c,0,74,71,
3,2601348,Control_c,0,74,74,
3,2601828,Control_c,0,74,73,
3,2602308,Control_c,0,74,73,
3,2602788,Control_c,0,74,73,
3,2603268,Control_c,0,74,73,
3,2603315,Control_c,0,74,73,
3,2603795,Control_c,0,74,71,
3,2604275,Control_c,0,74,69,
3,2604755,Control_c,0,74,67,
3,2605235,Control_c,0,74,65,
3,2605715,Control_c,0,74,63,
3,2606195,Control_c,0,74,61,
3,2606675,Control_c,0,74,59,
3,2606706,Note_off_c,0,52,0,
3,2606989,Control_c,0,74,58,
3,2607360,Note_off_c,0,64,0,
3,2607360,Note_on_c,0,52,54,
3,2607469,Control_c,0,74,58,
3,2607949,Control_c,0,74,58,
3,2608429,Control_c,0,74,59,
3,2608909,Control_c,0,74,59,
3,2609389,Control_c,0,74,59,
3,2609697,Control_c,0,74,60,
3,2610177,Control_c,0,74,62,
3,2610657,Control_c,0,74,64,
3,2611137,Control_c,0,74,66,
3,2611200,Note_on_c,0,64,51,
3,2611398,Note_off_c,0,52,0,
3,2611617,Control_c,0,74,68,
3,2612097,Control_c,0,74,71,
3,2612577,Control_c,0,74,73,
3,2613057,Control_c,0,74,75,
3,2613537,Control_c,0,74,77,
3,2613968,Control_c,0,74,80,
3,2615040,Note_off_c,0,64,0,
3,2616946,Control_c,0,74,80,
3,2617426,Control_c,0,74,77,
3,2617906,Control_c,0,74,74,
3,2618386,Control_c,0,74,71,
3,2618866,Control_c,0,74,69,
3,2618880,Note_on_c,0,52,54,
3,2618880,Note_on_c,0,64,51,
3,2619346,Control_c,0,74,66,
3,2619826,Control_c,0,74,63,
3,2619957,Control_c,0,74,63,
3,2620437,Control_c,0,74,62,
3,2620602,Note_off_c,0,64,0,
3,2620800,Note_off_c,0,52,0,
3,2620917,Control_c,0,74,62,
3,2621397,Control_c,0,74,62,
3,2621877,Control_c,0,74,62,
3,2622357,Control_c,0,74,62,
3,2622837,Control_c,0,74,62,
3,2623317,Control_c,0,74,62,
3,2623797,Control_c,0,74,61,
3,2624277,Control_c,0,74,61,
3,2624757,Control_c,0,74,61,
3,2625237,Control_c,0,74,61,
3,2625717,Control_c,0,74,61,
3,2626197,Control_c,0,74,61,
3,2626560,Note_on_c,0,52,86,
3,2626560,Note_on_c,0,64,86,
3,2626677,Control_c,0,74,61,
3,2626936,Control_c,0,74,61,
3,2627416,Control_c,0,74,62,
3,2627896,Control_c,0,74,63,
3,2628376,Control_c,0,74,64,
3,2628856,Control_c,0,74,65,
3,2629336,Control_c,0,74,66,
3,2629816,Control_c,0,74,68,
3,2630296,Control_c,0,74,69,
3,2630400,Note_off_c,0,52,0,
3,2630400,Note_off_c,0,64,0,
3,2630776,Control_c,0,74,70,
3,2631256,Control_c,0,74,71,
3,2631736,Control_c,0,74,72,
3,2632216,Control_c,0,74,73,
3,2632696,Control_c,0,74,75,
3,2633176,Control_c,0,74,76,
3,2633656,Control_c,0,74,77,
3,2634136,Control_c,0,74,78,
3,2634240,Note_on_c,0,52,86,
3,2634240,Note_on_c,0,64,86,
3,2634616,Control_c,0,74,79,
3,2635096,Control_c,0,74,80,
3,2635576,Control_c,0,74,82,
3,2636056,Control_c,0,74,83,
3,2636536,Control_c,0,74,84,
3,2637016,Control_c,0,74,85,
3,2637496,Control_c,0,74,86,
3,2637976,Control_c,0,74,87,
3,2638080,Note_off_c,0,52,0,
3,2638080,Note_off_c,0,64,0,
3,2638456,Control_c,0,74,89,
3,2638936,Control_c,0,74,90,
3,2639416,Control_c,0,74,91,
3,2639896,Control_c,0,74,92,
3,2640376,Control_c,0,74,93,
3,2640856,Control_c,0,74,94,
3,2641336,Control_c,0,74,96,
3,2641816,Control_c,0,74,97,
3,2641920,Note_on_c,0,52,63,
3,2641920,Note_on_c,0,59,63,
3,2641920,Note_on_c,0,64,57,
3,2642296,Control_c,0,74,98,
3,2642566,Control_c,0,74,99,
3,2643046,Control_c,0,74,98,
3,2643526,Control_c,0,74,98,
3,2644006,Control_c,0,74,98,
3,2644486,Control_c,0,74,98,
3,2644966,Control_c,0,74,98,
3,2645446,Control_c,0,74,98,
3,2645926,Control_c,0,74,98,
3,2646406,Control_c,0,74,98,
3,2646886,Control_c,0,74,98,
3,2647164,Control_c,0,74,98,
3,2647644,Control_c,0,74,93,
3,2648124,Control_c,0,74,88,
3,2648604,Control_c,0,74,83,
3,2649084,Control_c,0,74,79,
3,2649426,Note_off_c,0,64,0,
3,2649564,Control_c,0,74,74,
3,2649600,Note_off_c,0,52,0,
3,2649600,Note_off_c,0,59,0,
3,2650044,Control_c,0,74,69,
3,2650143,Control_c,0,74,69,
3,2650623,Control_c,0,74,67,
3,2651103,Control_c,0,74,65,
3,2651583,Control_c,0,74,63,
3,2651815,Control_c,0,74,63,
3,2652295,Control_c,0,74,62,
3,2652775,Control_c,0,74,62,
3,2653255,Control_c,0,74,62,
3,2653735,Control_c,0,74,62,
3,2654215,Control_c,0,74,62,
3,2654695,Control_c,0,74,62,
3,2655175,Control_c,0,74,62,
3,2655655,Control_c,0,74,62,
3,2656135,Control_c,0,74,62,
3,2656615,Control_c,0,74,62,
3,2657095,Control_c,0,74,62,
3,2657280,Note_on_c,0,52,32,
3,2657280,Note_on_c,0,64,59,
3,2657575,Control_c,0,74,62,
3,2657722,Pitch_bend_c,0,16383,,
3,2658055,Control_c,0,74,62,
3,2658202,Pitch_bend_c,0,16270,,
3,2658535,Control_c,0,74,62,
3,2658682,Pitch_bend_c,0,16158,,
3,2659015,Control_c,0,74,62,
3,2659162,Pitch_bend_c,0,16046,,
3,2659495,Control_c,0,74,62,
3,2659642,Pitch_bend_c,0,15933,,
3,2659975,Control_c,0,74,62,
3,2660122,Pitch_bend_c,0,15821,,
3,2660455,Control_c,0,74,62,
3,2660602,Pitch_bend_c,0,15709,,
3,2660795,Control_c,0,74,62,
3,2661082,Pitch_bend_c,0,15596,,
3,2661120,Note_off_c,0,52,0,
3,2661120,Note_on_c,0,52,32,
3,2661120,Note_on_c,0,64,59,
3,2661275,Control_c,0,74,63,
3,2661562,Pitch_bend_c,0,15484,,
3,2661755,Control_c,0,74,65,
3,2661774,Note_off_c,0,64,0,
3,2662042,Pitch_bend_c,0,15372,,
3,2662235,Control_c,0,74,67,
3,2662522,Pitch_bend_c,0,15259,,
3,2662715,Control_c,0,74,69,
3,2663002,Pitch_bend_c,0,15147,,
3,2663195,Control_c,0,74,71,
3,2663482,Pitch_bend_c,0,15035,,
3,2663675,Control_c,0,74,73,
3,2663962,Pitch_bend_c,0,14923,,
3,2664155,Control_c,0,74,74,
3,2664442,Pitch_bend_c,0,14810,,
3,2664635,Control_c,0,74,76,
3,2664922,Pitch_bend_c,0,14698,,
3,2665115,Control_c,0,74,78,
3,2665402,Pitch_bend_c,0,14586,,
3,2665595,Control_c,0,74,80,
3,2665882,Pitch_bend_c,0,14473,,
3,2666075,Control_c,0,74,82,
3,2666362,Pitch_bend_c,0,14361,,
3,2666555,Control_c,0,74,84,
3,2666783,Control_c,0,74,85,
3,2666842,Pitch_bend_c,0,14249,,
3,2667263,Control_c,0,74,86,
3,2667322,Pitch_bend_c,0,14136,,
3,2667743,Control_c,0,74,87,
3,2667802,Pitch_bend_c,0,14024,,
3,2668223,Control_c,0,74,88,
3,2668282,Pitch_bend_c,0,13912,,
3,2668703,Control_c,0,74,89,
3,2668762,Pitch_bend_c,0,13800,,
3,2668800,Note_off_c,0,52,0,
3,2668800,Note_on_c,0,52,54,
3,2669183,Control_c,0,74,90,
3,2669242,Pitch_bend_c,0,13687,,
3,2669454,Note_off_c,0,64,0,
3,2669663,Control_c,0,74,91,
3,2669722,Pitch_bend_c,0,13575,,
3,2670143,Control_c,0,74,93,
3,2670202,Pitch_bend_c,0,13463,,
3,2670623,Control_c,0,74,94,
3,2670682,Pitch_bend_c,0,13350,,
3,2671103,Control_c,0,74,95,
3,2671162,Pitch_bend_c,0,13238,,
3,2671583,Control_c,0,74,96,
3,2671642,Pitch_bend_c,0,13126,,
3,2672063,Control_c,0,74,97,
3,2672122,Pitch_bend_c,0,13013,,
3,2672543,Control_c,0,74,98,
3,2672602,Pitch_bend_c,0,12901,,
3,2672640,Note_on_c,0,64,51,
3,2672838,Note_off_c,0,52,0,
3,2673023,Control_c,0,74,99,
3,2673082,Pitch_bend_c,0,12789,,
3,2673503,Control_c,0,74,101,
3,2673562,Pitch_bend_c,0,12677,,
3,2673983,Control_c,0,74,102,
3,2674042,Pitch_bend_c,0,12564,,
3,2674463,Control_c,0,74,103,
3,2674522,Pitch_bend_c,0,12452,,
3,2674678,Pitch_bend_c,0,12416,,
3,2674943,Control_c,0,74,104,
3,2675423,Control_c,0,74,105,
3,2675903,Control_c,0,74,106,
3,2676383,Control_c,0,74,107,
3,2676425,Control_c,0,74,108,
3,2676480,Note_off_c,0,64,0,
3,2676905,Control_c,0,74,107,
3,2677385,Control_c,0,74,107,
3,2677865,Control_c,0,74,107,
3,2678345,Control_c,0,74,107,
3,2678825,Control_c,0,74,107,
3,2679305,Control_c,0,74,107,
3,2679785,Control_c,0,74,107,
3,2680265,Control_c,0,74,107,
3,2680320,Note_on_c,0,52,54,
3,2680320,Note_on_c,0,64,51,
3,2680745,Control_c,0,74,107,
3,2681225,Control_c,0,74,107,
3,2681657,Pitch_bend_c,0,12416,,
3,2681705,Control_c,0,74,106,
3,2682042,Note_off_c,0,64,0,
3,2682137,Pitch_bend_c,0,12270,,
3,2682185,Control_c,0,74,106,
3,2682240,Note_off_c,0,52,0,
3,2682617,Pitch_bend_c,0,12125,,
3,2682665,Control_c,0,74,106,
3,2683097,Pitch_bend_c,0,11979,,
3,2683145,Control_c,0,74,106,
3,2683577,Pitch_bend_c,0,11834,,
3,2683625,Control_c,0,74,106,
3,2684057,Pitch_bend_c,0,11689,,
3,2684105,Control_c,0,74,106,
3,2684537,Pitch_bend_c,0,11543,,
3,2684585,Control_c,0,74,106,
3,2685017,Pitch_bend_c,0,11398,,
3,2685065,Control_c,0,74,106,
3,2685497,Pitch_bend_c,0,11253,,
3,2685545,Control_c,0,74,106,
3,2685977,Pitch_bend_c,0,11107,,
3,2686025,Control_c,0,74,106,
3,2686457,Pitch_bend_c,0,10962,,
3,2686505,Control_c,0,74,106,
3,2686937,Pitch_bend_c,0,10817,,
3,2686985,Control_c,0,74,105,
3,2687417,Pitch_bend_c,0,10671,,
3,2687465,Control_c,0,74,105,
3,2687897,Pitch_bend_c,0,10526,,
3,2687945,Control_c,0,74,105,
3,2688000,Note_on_c,0,52,86,
3,2688000,Note_on_c,0,64,86,
3,2688377,Pitch_bend_c,0,10381,,
3,2688425,Control_c,0,74,105,
3,2688857,Pitch_bend_c,0,10235,,
3,2688905,Control_c,0,74,105,
3,2689266,Pitch_bend_c,0,10112,,
3,2689385,Control_c,0,74,105,
3,2689746,Pitch_bend_c,0,9805,,
3,2689865,Control_c,0,74,105,
3,2690226,Pitch_bend_c,0,9499,,
3,2690345,Control_c,0,74,105,
3,2690706,Pitch_bend_c,0,9193,,
3,2690825,Control_c,0,74,105,
3,2691186,Pitch_bend_c,0,8887,,
3,2691305,Control_c,0,74,105,
3,2691666,Pitch_bend_c,0,8581,,
3,2691785,Control_c,0,74,105,
3,2691840,Note_off_c,0,52,0,
3,2691840,Note_off_c,0,64,0,
3,2691840,Control_c,0,74,105,
3,2692146,Pitch_bend_c,0,8275,,
3,2692277,Pitch_bend_c,0,8192,,
3,2692320,Control_c,0,74,105,
3,2692757,Pitch_bend_c,0,8192,,
3,2692800,Control_c,0,74,106,
3,2693237,Pitch_bend_c,0,8192,,
3,2693280,Control_c,0,74,106,
3,2693717,Pitch_bend_c,0,8192,,
3,2693760,Control_c,0,74,107,
3,2694197,Pitch_bend_c,0,8192,,
3,2694240,Control_c,0,74,107,
3,2694677,Pitch_bend_c,0,8192,,
3,2694720,Control_c,0,74,108,
3,2695157,Pitch_bend_c,0,8192,,
3,2695200,Control_c,0,74,109,
3,2695637,Pitch_bend_c,0,8192,,
3,2695680,Note_on_c,0,52,85,
3,2695680,Note_on_c,0,59,100,
3,2695680,Note_on_c,0,64,57,
3,2695680,Control_c,0,74,109,
3,2696117,Pitch_bend_c,0,8192,,
3,2696160,Control_c,0,74,110,
3,2696597,Pitch_bend_c,0,8192,,
3,2696640,Control_c,0,74,110,
3,2697077,Pitch_bend_c,0,8192,,
3,2697120,Control_c,0,74,111,
3,2697557,Pitch_bend_c,0,8192,,
3,2697600,Control_c,0,74,112,
3,2698037,Pitch_bend_c,0,8192,,
3,2698080,Control_c,0,74,112,
3,2698517,Pitch_bend_c,0,8192,,
3,2698560,Control_c,0,74,113,
3,2698997,Pitch_bend_c,0,8192,,
3,2699040,Control_c,0,74,113,
3,2699477,Pitch_bend_c,0,8192,,
3,2699520,Control_c,0,74,114,
3,2699957,Pitch_bend_c,0,8192,,
3,2700000,Control_c,0,74,114,
3,2700437,Pitch_bend_c,0,8192,,
3,2700480,Control_c,0,74,115,
3,2700917,Pitch_bend_c,0,8192,,
3,2700960,Control_c,0,74,116,
3,2701397,Pitch_bend_c,0,8192,,
3,2701440,Control_c,0,74,116,
3,2701877,Pitch_bend_c,0,8192,,
3,2701920,Control_c,0,74,117,
3,2702357,Pitch_bend_c,0,8192,,
3,2702400,Control_c,0,74,117,
3,2702837,Pitch_bend_c,0,8192,,
3,2702880,Control_c,0,74,118,
3,2703317,Pitch_bend_c,0,8192,,
3,2703360,Control_c,0,74,119,
3,2703797,Pitch_bend_c,0,8192,,
3,2703840,Control_c,0,74,119,
3,2704277,Pitch_bend_c,0,8192,,
3,2704320,Control_c,0,74,119,
3,2704757,Pitch_bend_c,0,8192,,
3,2704800,Control_c,0,74,119,
3,2705237,Pitch_bend_c,0,8192,,
3,2705280,Control_c,0,74,120,
3,2705717,Pitch_bend_c,0,8192,,
3,2705760,Control_c,0,74,120,
3,2706197,Pitch_bend_c,0,8192,,
3,2706240,Control_c,0,74,120,
3,2706677,Pitch_bend_c,0,8192,,
3,2706720,Control_c,0,74,120,
3,2707157,Pitch_bend_c,0,8192,,
3,2707200,Control_c,0,74,121,
3,2707637,Pitch_bend_c,0,8192,,
3,2707680,Control_c,0,74,121,
3,2708117,Pitch_bend_c,0,8192,,
3,2708160,Control_c,0,74,121,
3,2708597,Pitch_bend_c,0,8192,,
3,2708640,Control_c,0,74,122,
3,2709077,Pitch_bend_c,0,8192,,
3,2709120,Control_c,0,74,122,
3,2709557,Pitch_bend_c,0,8192,,
3,2709600,Control_c,0,74,122,
3,2710037,Pitch_bend_c,0,8192,,
3,2710080,Control_c,0,74,122,
3,2710517,Pitch_bend_c,0,8192,,
3,2710560,Control_c,0,74,123,
3,2710997,Pitch_bend_c,0,8192,,
3,2711040,Control_c,0,74,123,
3,2711477,Pitch_bend_c,0,8192,,
3,2711520,Control_c,0,74,123,
3,2711957,Pitch_bend_c,0,8192,,
3,2712000,Control_c,0,74,123,
3,2712437,Pitch_bend_c,0,8192,,
3,2712480,Control_c,0,74,124,
3,2712917,Pitch_bend_c,0,8192,,
3,2712960,Control_c,0,74,124,
3,2713397,Pitch_bend_c,0,8192,,
3,2713440,Control_c,0,74,124,
3,2713877,Pitch_bend_c,0,8192,,
3,2713920,Control_c,0,74,125,
3,2714357,Pitch_bend_c,0,8192,,
3,2714400,Control_c,0,74,125,
3,2714837,Pitch_bend_c,0,8192,,
3,2714880,Pitch_bend_c,0,8191,,
3,2714880,Control_c,0,74,125,
3,2715360,Control_c,0,74,125,
3,2715840,Control_c,0,74,126,
3,2716320,Control_c,0,74,126,
3,2716800,Control_c,0,74,126,
3,2717263,Control_c,0,74,127,
3,2718720,Note_off_c,0,52,0,
3,2718720,Note_off_c,0,59,0,
3,2718720,Note_off_c,0,64,0,
3,2718720,Pitch_bend_c,0,8191,,
3,2718720,Pitch_bend_c,0,8192,,
3,2722560,Control_c,0,74,127,
3,2723040,Control_c,0,74,125,
3,2723520,Control_c,0,74,124,
3,2724000,Control_c,0,74,123,
3,2724480,Control_c,0,74,122,
3,2724960,Control_c,0,74,121,
3,2725440,Control_c,0,74,120,
3,2725920,Control_c,0,74,119,
3,2726400,Control_c,0,74,118,
3,2726880,Control_c,0,74,117,
3,2727360,Control_c,0,74,116,
3,2727840,Control_c,0,74,115,
3,2728320,Control_c,0,74,114,
3,2728800,Control_c,0,74,113,
3,2729280,Control_c,0,74,112,
3,2729760,Control_c,0,74,111,
3,2730240,Control_c,0,74,110,
3,2730720,Control_c,0,74,108,
3,2731200,Control_c,0,74,107,
3,2731680,Control_c,0,74,106,
3,2732160,Control_c,0,74,105,
3,2732640,Control_c,0,74,104,
3,2733120,Control_c,0,74,103,
3,2733600,Control_c,0,74,102,
3,2734080,Control_c,0,74,101,
3,2734560,Control_c,0,74,100,
3,2735040,Control_c,0,74,99,
3,2735520,Control_c,0,74,98,
3,2736000,Control_c,0,74,97,
3,2736480,Control_c,0,74,96,
3,2736960,Control_c,0,74,95,
3,2737440,Control_c,0,74,94,
3,2737920,Control_c,0,74,93,
3,2738400,Control_c,0,74,91,
3,2738880,Control_c,0,74,90,
3,2739360,Control_c,0,74,89,
3,2739840,Control_c,0,74,88,
3,2740320,Control_c,0,74,87,
3,2740800,Control_c,0,74,86,
3,2741280,Control_c,0,74,85,
3,2741760,Control_c,0,74,84,
3,2742240,Control_c,0,74,83,
3,2742720,Control_c,0,74,82,
3,2743200,Control_c,0,74,81,
3,2743680,Control_c,0,74,80,
3,2744160,Control_c,0,74,79,
3,2744640,Control_c,0,74,78,
3,2745120,Control_c,0,74,77,
3,2745600,Control_c,0,74,76,
3,2746080,Control_c,0,74,74,
3,2746560,Control_c,0,74,73,
3,2747040,Control_c,0,74,72,
3,2747520,Control_c,0,74,71,
3,2748000,Control_c,0,74,70,
3,2748480,Control_c,0,74,69,
3,2748960,Control_c,0,74,68,
3,2749440,Control_c,0,74,67,
3,2749920,Control_c,0,74,66,
3,2750400,Control_c,0,74,65,
3,2750880,Control_c,0,74,64,
3,2751360,Control_c,0,74,63,
3,2751840,Control_c,0,74,62,
3,2752320,Control_c,0,74,61,
3,2752800,Control_c,0,74,60,
3,2753280,Control_c,0,74,59,
3,2753760,Control_c,0,74,57,
3,2754240,Control_c,0,74,56,
3,2754720,Control_c,0,74,55,
3,2755200,Control_c,0,74,54,
3,2755680,Control_c,0,74,53,
3,2756160,Control_c,0,74,52,
3,2756640,Control_c,0,74,51,
3,2757120,Control_c,0,74,50,
3,2757600,Control_c,0,74,49,
3,2758080,Control_c,0,74,48,
3,2758560,Control_c,0,74,47,
3,2759040,Control_c,0,74,46,
3,2759520,Control_c,0,74,45,
3,2760000,Control_c,0,74,44,
3,2760480,Control_c,0,74,43,
3,2760960,Control_c,0,74,42,
3,2761440,Control_c,0,74,42,
3,2761920,Control_c,0,74,42,
3,2762400,Control_c,0,74,42,
3,2762880,Control_c,0,74,42,
3,2763360,Control_c,0,74,42,
3,2763840,Control_c,0,74,42,
3,2764320,Control_c,0,74,42,
3,2764800,Control_c,0,74,42,
3,2765280,Control_c,0,74,42,
3,2765760,Control_c,0,74,42,
3,2766240,Control_c,0,74,42,
3,2766720,Control_c,0,74,42,
3,2767200,Control_c,0,74,42,
3,2767680,Control_c,0,74,42,
3,2768160,Control_c,0,74,42,
3,2768640,Control_c,0,74,42,
3,2769120,Control_c,0,74,42,
3,2769600,Control_c,0,74,42,
3,2770080,Control_c,0,74,42,
3,2770560,Control_c,0,74,42,
3,2771040,Control_c,0,74,42,
3,2771520,Control_c,0,74,42,
3,2772000,Control_c,0,74,42,
3,2772480,Control_c,0,74,42,
3,2772960,Control_c,0,74,42,
3,2773440,Control_c,0,74,42,
3,2773920,Control_c,0,74,42,
3,2774400,Control_c,0,74,42,
3,2774880,Control_c,0,74,42,
3,2775360,Control_c,0,74,42,
3,2775840,Control_c,0,74,42,
3,2776320,Control_c,0,74,42,
3,2776800,Control_c,0,74,42,
3,2777280,Control_c,0,74,42,
3,2777760,Control_c,0,74,42,
3,2778240,Control_c,0,74,42,
3,2778720,Control_c,0,74,42,
3,2779200,Control_c,0,74,42,
3,2779680,Control_c,0,74,42,
3,2780160,Note_on_c,0,54,26,
3,2780160,Note_on_c,0,66,44,
3,2780160,Pitch_bend_c,0,8192,,
3,2780160,Control_c,0,74,42,
3,2780640,Control_c,0,74,42,
3,2781120,Control_c,0,74,42,
3,2781600,Control_c,0,74,42,
3,2782080,Control_c,0,74,42,
3,2782560,Control_c,0,74,42,
3,2783040,Control_c,0,74,42,
3,2783520,Control_c,0,74,42,
3,2784000,Control_c,0,74,42,
3,2784480,Control_c,0,74,42,
3,2784960,Control_c,0,74,42,
3,2785440,Control_c,0,74,42,
3,2785920,Control_c,0,74,42,
3,2786400,Control_c,0,74,42,
3,2786880,Control_c,0,74,42,
3,2787360,Control_c,0,74,42,
3,2787840,Note_on_c,0,68,18,
3,2787840,Control_c,0,74,42,
3,2788320,Control_c,0,74,42,
3,2788800,Control_c,0,74,42,
3,2789280,Control_c,0,74,42,
3,2789760,Control_c,0,74,42,
3,2789866,Note_off_c,0,66,0,
3,2790240,Control_c,0,74,42,
3,2790720,Control_c,0,74,42,
3,2791200,Control_c,0,74,42,
3,2791680,Control_c,0,74,42,
3,2792160,Control_c,0,74,42,
3,2792640,Control_c,0,74,42,
3,2793120,Control_c,0,74,42,
3,2793600,Control_c,0,74,42,
3,2794080,Control_c,0,74,42,
3,2794560,Control_c,0,74,42,
3,2795040,Control_c,0,74,42,
3,2795520,Note_on_c,0,70,38,
3,2795520,Control_c,0,74,42,
3,2796000,Control_c,0,74,42,
3,2796480,Control_c,0,74,42,
3,2796484,Note_off_c,0,68,0,
3,2796960,Control_c,0,74,42,
3,2797440,Control_c,0,74,42,
3,2797920,Control_c,0,74,42,
3,2798400,Control_c,0,74,43,
3,2798880,Control_c,0,74,43,
3,2799360,Control_c,0,74,43,
3,2799840,Control_c,0,74,43,
3,2800320,Control_c,0,74,43,
3,2800800,Control_c,0,74,43,
3,2801280,Control_c,0,74,43,
3,2801760,Control_c,0,74,43,
3,2802240,Control_c,0,74,43,
3,2802720,Control_c,0,74,43,
3,2803200,Note_off_c,0,70,0,
3,2803200,Note_on_c,0,73,41,
3,2803200,Control_c,0,74,43,
3,2803680,Control_c,0,74,43,
3,2804160,Control_c,0,74,43,
3,2804640,Control_c,0,74,43,
3,2805120,Control_c,0,74,43,
3,2805600,Control_c,0,74,43,
3,2806080,Control_c,0,74,43,
3,2806560,Control_c,0,74,43,
3,2807040,Control_c,0,74,43,
3,2807520,Control_c,0,74,43,
3,2808000,Control_c,0,74,43,
3,2808480,Control_c,0,74,43,
3,2808960,Control_c,0,74,43,
3,2809440,Control_c,0,74,43,
3,2809920,Control_c,0,74,43,
3,2810400,Control_c,0,74,43,
3,2810880,Note_off_c,0,73,0,
3,2810880,Note_on_c,0,66,50,
3,2810880,Control_c,0,74,43,
3,2811360,Control_c,0,74,43,
3,2811840,Control_c,0,74,43,
3,2812320,Control_c,0,74,43,
3,2812800,Control_c,0,74,43,
3,2813280,Control_c,0,74,43,
3,2813760,Control_c,0,74,43,
3,2814240,Control_c,0,74,43,
3,2814720,Control_c,0,74,43,
3,2815200,Control_c,0,74,43,
3,2815680,Control_c,0,74,43,
3,2816160,Control_c,0,74,43,
3,2816640,Control_c,0,74,43,
3,2817120,Control_c,0,74,43,
3,2817600,Control_c,0,74,43,
3,2818080,Control_c,0,74,43,
3,2818560,Note_off_c,0,66,0,
3,2818560,Note_on_c,0,68,40,
3,2818560,Control_c,0,74,43,
3,2819040,Control_c,0,74,43,
3,2819520,Control_c,0,74,43,
3,2820000,Control_c,0,74,43,
3,2820480,Control_c,0,74,43,
3,2820960,Control_c,0,74,43,
3,2821440,Control_c,0,74,43,
3,2821920,Control_c,0,74,43,
3,2822400,Control_c,0,74,43,
3,2822880,Control_c,0,74,43,
3,2823360,Control_c,0,74,43,
3,2823840,Control_c,0,74,43,
3,2824320,Control_c,0,74,43,
3,2824800,Control_c,0,74,43,
3,2825280,Control_c,0,74,43,
3,2825760,Control_c,0,74,43,
3,2826240,Note_off_c,0,68,0,
3,2826240,Note_on_c,0,70,34,
3,2826240,Control_c,0,74,43,
3,2826720,Control_c,0,74,43,
3,2827200,Control_c,0,74,43,
3,2827680,Control_c,0,74,43,
3,2828160,Control_c,0,74,43,
3,2828640,Control_c,0,74,43,
3,2829120,Control_c,0,74,43,
3,2829600,Control_c,0,74,43,
3,2830080,Control_c,0,74,43,
3,2830560,Control_c,0,74,43,
3,2831040,Control_c,0,74,43,
3,2831520,Control_c,0,74,43,
3,2832000,Control_c,0,74,43,
3,2832480,Control_c,0,74,43,
3,2832960,Control_c,0,74,43,
3,2833440,Control_c,0,74,43,
3,2833920,Note_off_c,0,70,0,
3,2833920,Note_on_c,0,73,32,
3,2833920,Control_c,0,74,43,
3,2834400,Control_c,0,74,43,
3,2834880,Control_c,0,74,43,
3,2834905,Control_c,0,74,44,
3,2835385,Control_c,0,74,44,
3,2835865,Control_c,0,74,44,
3,2836345,Control_c,0,74,44,
3,2836825,Control_c,0,74,44,
3,2837305,Control_c,0,74,44,
3,2837785,Control_c,0,74,44,
3,2838265,Control_c,0,74,44,
3,2838745,Control_c,0,74,44,
3,2839225,Control_c,0,74,44,
3,2839705,Control_c,0,74,44,
3,2840185,Control_c,0,74,44,
3,2840665,Control_c,0,74,44,
3,2841145,Control_c,0,74,44,
3,2841600,Note_off_c,0,54,0,
3,2841600,Note_off_c,0,73,0,
3,2841600,Note_on_c,0,52,26,
3,2841600,Note_on_c,0,64,44,
3,2841625,Control_c,0,74,44,
3,2842105,Control_c,0,74,44,
3,2842585,Control_c,0,74,44,
3,2843065,Control_c,0,74,44,
3,2843545,Control_c,0,74,44,
3,2844025,Control_c,0,74,44,
3,2844505,Control_c,0,74,44,
3,2844985,Control_c,0,74,44,
3,2845465,Control_c,0,74,44,
3,2845945,Control_c,0,74,44,
3,2846425,Control_c,0,74,44,
3,2846905,Control_c,0,74,44,
3,2847385,Control_c,0,74,44,
3,2847865,Control_c,0,74,44,
3,2848345,Control_c,0,74,44,
3,2848825,Control_c,0,74,44,
3,2849280,Note_on_c,0,66,18,
3,2849305,Control_c,0,74,44,
3,2849785,Control_c,0,74,44,
3,2850265,Control_c,0,74,44,
3,2850745,Control_c,0,74,44,
3,2851225,Control_c,0,74,44,
3,2851306,Note_off_c,0,64,0,
3,2851705,Control_c,0,74,44,
3,2852185,Control_c,0,74,44,
3,2852665,Control_c,0,74,44,
3,2853145,Control_c,0,74,44,
3,2853625,Control_c,0,74,44,
3,2854105,Control_c,0,74,44,
3,2854585,Control_c,0,74,44,
3,2855065,Control_c,0,74,44,
3,2855545,Control_c,0,74,44,
3,2856025,Control_c,0,74,44,
3,2856505,Control_c,0,74,44,
3,2856960,Note_on_c,0,68,38,
3,2856985,Control_c,0,74,45,
3,2857465,Control_c,0,74,45,
3,2857924,Note_off_c,0,66,0,
3,2857945,Control_c,0,74,45,
3,2858425,Control_c,0,74,45,
3,2858905,Control_c,0,74,45,
3,2859385,Control_c,0,74,45,
3,2859865,Control_c,0,74,45,
3,2860345,Control_c,0,74,45,
3,2860825,Control_c,0,74,45,
3,2861305,Control_c,0,74,45,
3,2861785,Control_c,0,74,45,
3,2862265,Control_c,0,74,45,
3,2862745,Control_c,0,74,45,
3,2863225,Control_c,0,74,45,
3,2863705,Control_c,0,74,45,
3,2864185,Control_c,0,74,45,
3,2864640,Note_off_c,0,68,0,
3,2864640,Note_on_c,0,71,41,
3,2864665,Control_c,0,74,45,
3,2865145,Control_c,0,74,45,
3,2865625,Control_c,0,74,45,
3,2866105,Control_c,0,74,45,
3,2866585,Control_c,0,74,45,
3,2867065,Control_c,0,74,45,
3,2867545,Control_c,0,74,45,
3,2868025,Control_c,0,74,45,
3,2868505,Control_c,0,74,45,
3,2868985,Control_c,0,74,45,
3,2869465,Control_c,0,74,45,
3,2869945,Control_c,0,74,45,
3,2870425,Control_c,0,74,45,
3,2870905,Control_c,0,74,45,
3,2871385,Control_c,0,74,45,
3,2871865,Control_c,0,74,45,
3,2872320,Note_off_c,0,71,0,
3,2872320,Note_on_c,0,64,50,
3,2872345,Control_c,0,74,45,
3,2872825,Control_c,0,74,45,
3,2873305,Control_c,0,74,45,
3,2873785,Control_c,0,74,45,
3,2874265,Control_c,0,74,45,
3,2874745,Control_c,0,74,45,
3,2875225,Control_c,0,74,45,
3,2875705,Control_c,0,74,45,
3,2876185,Control_c,0,74,45,
3,2876665,Control_c,0,74,45,
3,2877145,Control_c,0,74,45,
3,2877625,Control_c,0,74,45,
3,2878105,Control_c,0,74,45,
3,2878585,Control_c,0,74,45,
3,2879065,Control_c,0,74,46,
3,2879545,Control_c,0,74,46,
3,2880000,Note_off_c,0,64,0,
3,2880000,Note_on_c,0,66,40,
3,2880025,Control_c,0,74,46,
3,2880505,Control_c,0,74,46,
3,2880985,Control_c,0,74,46,
3,2881465,Control_c,0,74,46,
3,2881945,Control_c,0,74,46,
3,2882425,Control_c,0,74,46,
3,2882905,Control_c,0,74,46,
3,2883385,Control_c,0,74,46,
3,2883865,Control_c,0,74,46,
3,2884345,Control_c,0,74,46,
3,2884825,Control_c,0,74,46,
3,2885305,Control_c,0,74,46,
3,2885785,Control_c,0,74,46,
3,2886265,Control_c,0,74,46,
3,2886745,Control_c,0,74,46,
3,2887225,Control_c,0,74,46,
3,2887680,Note_off_c,0,66,0,
3,2887680,Note_on_c,0,68,34,
3,2887705,Control_c,0,74,46,
3,2888185,Control_c,0,74,46,
3,2888665,Control_c,0,74,46,
3,2889145,Control_c,0,74,46,
3,2889625,Control_c,0,74,46,
3,2890105,Control_c,0,74,46,
3,2890585,Control_c,0,74,46,
3,2891065,Control_c,0,74,46,
3,2891545,Control_c,0,74,46,
3,2892025,Control_c,0,74,46,
3,2892505,Control_c,0,74,46,
3,2892985,Control_c,0,74,46,
3,2893465,Control_c,0,74,46,
3,2893945,Control_c,0,74,46,
3,2894425,Control_c,0,74,46,
3,2894905,Control_c,0,74,46,
3,2895360,Note_off_c,0,68,0,
3,2895360,Note_on_c,0,71,32,
3,2895385,Control_c,0,74,46,
3,2895865,Control_c,0,74,46,
3,2896345,Control_c,0,74,46,
3,2896825,Control_c,0,74,46,
3,2897305,Control_c,0,74,46,
3,2897785,Control_c,0,74,46,
3,2898265,Control_c,0,74,46,
3,2898745,Control_c,0,74,46,
3,2899225,Control_c,0,74,46,
3,2899705,Control_c,0,74,46,
3,2900185,Control_c,0,74,46,
3,2900665,Control_c,0,74,46,
3,2901145,Control_c,0,74,47,
3,2901625,Control_c,0,74,47,
3,2902105,Control_c,0,74,47,
3,2902585,Control_c,0,74,47,
3,2903040,Note_off_c,0,52,0,
3,2903040,Note_off_c,0,71,0,
3,2903040,Note_on_c,0,47,26,
3,2903040,Note_on_c,0,59,44,
3,2903065,Control_c,0,74,47,
3,2903545,Control_c,0,74,47,
3,2904025,Control_c,0,74,47,
3,2904505,Control_c,0,74,47,
3,2904985,Control_c,0,74,47,
3,2905465,Control_c,0,74,47,
3,2905945,Control_c,0,74,47,
3,2906425,Control_c,0,74,47,
3,2906905,Control_c,0,74,47,
3,2907385,Control_c,0,74,47,
3,2907865,Control_c,0,74,47,
3,2908345,Control_c,0,74,47,
3,2908825,Control_c,0,74,47,
3,2909305,Control_c,0,74,47,
3,2909785,Control_c,0,74,47,
3,2910265,Control_c,0,74,47,
3,2910720,Note_on_c,0,61,18,
3,2910745,Control_c,0,74,47,
3,2911225,Control_c,0,74,47,
3,2911705,Control_c,0,74,47,
3,2912185,Control_c,0,74,47,
3,2912665,Control_c,0,74,47,
3,2912746,Note_off_c,0,59,0,
3,2913145,Control_c,0,74,47,
3,2913625,Control_c,0,74,47,
3,2914105,Control_c,0,74,47,
3,2914585,Control_c,0,74,47,
3,2915065,Control_c,0,74,47,
3,2915545,Control_c,0,74,47,
3,2916025,Control_c,0,74,47,
3,2916505,Control_c,0,74,47,
3,2916985,Control_c,0,74,47,
3,2917465,Control_c,0,74,47,
3,2917945,Control_c,0,74,47,
3,2918400,Note_on_c,0,63,38,
3,2918425,Control_c,0,74,47,
3,2918905,Control_c,0,74,47,
3,2919364,Note_off_c,0,61,0,
3,2919385,Control_c,0,74,47,
3,2919865,Control_c,0,74,47,
3,2920345,Control_c,0,74,47,
3,2920825,Control_c,0,74,47,
3,2921305,Control_c,0,74,47,
3,2921785,Control_c,0,74,47,
3,2922265,Control_c,0,74,47,
3,2922745,Control_c,0,74,47,
3,2923225,Control_c,0,74,48,
3,2923705,Control_c,0,74,48,
3,2924185,Control_c,0,74,48,
3,2924665,Control_c,0,74,48,
3,2925145,Control_c,0,74,48,
3,2925625,Control_c,0,74,48,
3,2926080,Note_off_c,0,63,0,
3,2926080,Note_on_c,0,66,41,
3,2926105,Control_c,0,74,48,
3,2926585,Control_c,0,74,48,
3,2927065,Control_c,0,74,48,
3,2927545,Control_c,0,74,48,
3,2928025,Control_c,0,74,48,
3,2928505,Control_c,0,74,48,
3,2928985,Control_c,0,74,48,
3,2929465,Control_c,0,74,48,
3,2929945,Control_c,0,74,48,
3,2930425,Control_c,0,74,48,
3,2930905,Control_c,0,74,48,
3,2931385,Control_c,0,74,48,
3,2931865,Control_c,0,74,48,
3,2932345,Control_c,0,74,48,
3,2932825,Control_c,0,74,48,
3,2933305,Control_c,0,74,48,
3,2933760,Note_off_c,0,66,0,
3,2933760,Note_on_c,0,59,50,
3,2933785,Control_c,0,74,48,
3,2934265,Control_c,0,74,48,
3,2934745,Control_c,0,74,48,
3,2935225,Control_c,0,74,48,
3,2935705,Control_c,0,74,48,
3,2936185,Control_c,0,74,48,
3,2936665,Control_c,0,74,48,
3,2937145,Control_c,0,74,48,
3,2937625,Control_c,0,74,48,
3,2938105,Control_c,0,74,48,
3,2938585,Control_c,0,74,48,
3,2939065,Control_c,0,74,48,
3,2939545,Control_c,0,74,48,
3,2940025,Control_c,0,74,48,
3,2940505,Control_c,0,74,48,
3,2940985,Control_c,0,74,48,
3,2941440,Note_off_c,0,59,0,
3,2941440,Note_on_c,0,61,40,
3,2941465,Control_c,0,74,48,
3,2941945,Control_c,0,74,48,
3,2942425,Control_c,0,74,48,
3,2942905,Control_c,0,74,48,
3,2943385,Control_c,0,74,48,
3,2943865,Control_c,0,74,48,
3,2944345,Control_c,0,74,48,
3,2944825,Control_c,0,74,48,
3,2945305,Control_c,0,74,49,
3,2945785,Control_c,0,74,49,
3,2946265,Control_c,0,74,49,
3,2946745,Control_c,0,74,49,
3,2947225,Control_c,0,74,49,
3,2947705,Control_c,0,74,49,
3,2948185,Control_c,0,74,49,
3,2948665,Control_c,0,74,49,
3,2949120,Note_off_c,0,61,0,
3,2949120,Note_on_c,0,63,34,
3,2949145,Control_c,0,74,49,
3,2949625,Control_c,0,74,49,
3,2950105,Control_c,0,74,49,
3,2950585,Control_c,0,74,49,
3,2951065,Control_c,0,74,49,
3,2951545,Control_c,0,74,49,
3,2952025,Control_c,0,74,49,
3,2952505,Control_c,0,74,49,
3,2952985,Control_c,0,74,49,
3,2953465,Control_c,0,74,49,
3,2953945,Control_c,0,74,49,
3,2954425,Control_c,0,74,49,
3,2954905,Control_c,0,74,49,
3,2955385,Control_c,0,74,49,
3,2955865,Control_c,0,74,49,
3,2956345,Control_c,0,74,49,
3,2956800,Note_off_c,0,63,0,
3,2956800,Note_on_c,0,66,32,
3,2956825,Control_c,0,74,49,
3,2957305,Control_c,0,74,49,
3,2957785,Control_c,0,74,49,
3,2958265,Control_c,0,74,49,
3,2958745,Control_c,0,74,49,
3,2959225,Control_c,0,74,49,
3,2959705,Control_c,0,74,49,
3,2960185,Control_c,0,74,49,
3,2960665,Control_c,0,74,49,
3,2961145,Control_c,0,74,49,
3,2961625,Control_c,0,74,49,
3,2962105,Control_c,0,74,49,
3,2962585,Control_c,0,74,49,
3,2963065,Control_c,0,74,49,
3,2963545,Control_c,0,74,49,
3,2964025,Control_c,0,74,49,
3,2964480,Note_off_c,0,47,0,
3,2964480,Note_off_c,0,66,0,
3,2964480,Note_on_c,0,47,26,
3,2964480,Note_on_c,0,59,44,
3,2964505,Control_c,0,74,49,
3,2964985,Control_c,0,74,49,
3,2965465,Control_c,0,74,49,
3,2965945,Control_c,0,74,49,
3,2966425,Control_c,0,74,49,
3,2966905,Control_c,0,74,49,
3,2967079,Control_c,0,74,50,
3,2967559,Control_c,0,74,50,
3,2968039,Control_c,0,74,50,
3,2968519,Control_c,0,74,50,
3,2968999,Control_c,0,74,50,
3,2969479,Control_c,0,74,50,
3,2969959,Control_c,0,74,50,
3,2970439,Control_c,0,74,50,
3,2970919,Control_c,0,74,50,
3,2971399,Control_c,0,74,50,
3,2971879,Control_c,0,74,50,
3,2972160,Note_on_c,0,61,18,
3,2972359,Control_c,0,74,50,
3,2972839,Control_c,0,74,50,
3,2973319,Control_c,0,74,50,
3,2973799,Control_c,0,74,50,
3,2974186,Note_off_c,0,59,0,
3,2974279,Control_c,0,74,50,
3,2974759,Control_c,0,74,50,
3,2975239,Control_c,0,74,50,
3,2975719,Control_c,0,74,50,
3,2976199,Control_c,0,74,50,
3,2976679,Control_c,0,74,51,
3,2977159,Control_c,0,74,51,
3,2977639,Control_c,0,74,51,
3,2978119,Control_c,0,74,51,
3,2978599,Control_c,0,74,51,
3,2979079,Control_c,0,74,51,
3,2979559,Control_c,0,74,51,
3,2979840,Note_on_c,0,63,38,
3,2980039,Control_c,0,74,51,
3,2980519,Control_c,0,74,51,
3,2980804,Note_off_c,0,61,0,
3,2980999,Control_c,0,74,51,
3,2981479,Control_c,0,74,51,
3,2981959,Control_c,0,74,51,
3,2982439,Control_c,0,74,51,
3,2982919,Control_c,0,74,51,
3,2983399,Control_c,0,74,51,
3,2983879,Control_c,0,74,51,
3,2984359,Control_c,0,74,51,
3,2984839,Control_c,0,74,51,
3,2985319,Control_c,0,74,51,
3,2985799,Control_c,0,74,51,
3,2986279,Control_c,0,74,52,
3,2986759,Control_c,0,74,52,
3,2987239,Control_c,0,74,52,
3,2987520,Note_off_c,0,63,0,
3,2987520,Note_on_c,0,66,41,
3,2987719,Control_c,0,74,52,
3,2988199,Control_c,0,74,52,
3,2988679,Control_c,0,74,52,
3,2989159,Control_c,0,74,52,
3,2989639,Control_c,0,74,52,
3,2990119,Control_c,0,74,52,
3,2990599,Control_c,0,74,52,
3,2991079,Control_c,0,74,52,
3,2991559,Control_c,0,74,52,
3,2992039,Control_c,0,74,52,
3,2992519,Control_c,0,74,52,
3,2992999,Control_c,0,74,52,
3,2993479,Control_c,0,74,52,
3,2993959,Control_c,0,74,52,
3,2994439,Control_c,0,74,52,
3,2994919,Control_c,0,74,52,
3,2995200,Note_off_c,0,66,0,
3,2995200,Note_on_c,0,59,50,
3,2995399,Control_c,0,74,53,
3,2995879,Control_c,0,74,53,
3,2996359,Control_c,0,74,53,
3,2996839,Control_c,0,74,53,
3,2997319,Control_c,0,74,53,
3,2997799,Control_c,0,74,53,
3,2998279,Control_c,0,74,53,
3,2998759,Control_c,0,74,53,
3,2999239,Control_c,0,74,53,
3,2999719,Control_c,0,74,53,
3,3000199,Control_c,0,74,53,
3,3000679,Control_c,0,74,53,
3,3001159,Control_c,0,74,53,
3,3001639,Control_c,0,74,53,
3,3002119,Control_c,0,74,53,
3,3002599,Control_c,0,74,53,
3,3002880,Note_off_c,0,59,0,
3,3002880,Note_on_c,0,61,40,
3,3003079,Control_c,0,74,53,
3,3003559,Control_c,0,74,53,
3,3004039,Control_c,0,74,53,
3,3004519,Control_c,0,74,53,
3,3004999,Control_c,0,74,54,
3,3005479,Control_c,0,74,54,
3,3005959,Control_c,0,74,54,
3,3006439,Control_c,0,74,54,
3,3006919,Control_c,0,74,54,
3,3007399,Control_c,0,74,54,
3,3007879,Control_c,0,74,54,
3,3008359,Control_c,0,74,54,
3,3008839,Control_c,0,74,54,
3,3009319,Control_c,0,74,54,
3,3009799,Control_c,0,74,54,
3,3010279,Control_c,0,74,54,
3,3010560,Note_off_c,0,61,0,
3,3010560,Note_on_c,0,63,34,
3,3010759,Control_c,0,74,54,
3,3011239,Control_c,0,74,54,
3,3011719,Control_c,0,74,54,
3,3012199,Control_c,0,74,54,
3,3012679,Control_c,0,74,54,
3,3013159,Control_c,0,74,54,
3,3013639,Control_c,0,74,54,
3,3014119,Control_c,0,74,55,
3,3014599,Control_c,0,74,55,
3,3015079,Control_c,0,74,55,
3,3015559,Control_c,0,74,55,
3,3016039,Control_c,0,74,55,
3,3016519,Control_c,0,74,55,
3,3016999,Control_c,0,74,55,
3,3017479,Control_c,0,74,55,
3,3017959,Control_c,0,74,55,
3,3018240,Note_off_c,0,63,0,
3,3018240,Note_on_c,0,66,32,
3,3018439,Control_c,0,74,55,
3,3018919,Control_c,0,74,55,
3,3019399,Control_c,0,74,55,
3,3019879,Control_c,0,74,55,
3,3020359,Control_c,0,74,55,
3,3020839,Control_c,0,74,55,
3,3021319,Control_c,0,74,55,
3,3021799,Control_c,0,74,55,
3,3022279,Control_c,0,74,55,
3,3022759,Control_c,0,74,55,
3,3023239,Control_c,0,74,55,
3,3023719,Control_c,0,74,56,
3,3024199,Control_c,0,74,56,
3,3024679,Control_c,0,74,56,
3,3025159,Control_c,0,74,56,
3,3025639,Control_c,0,74,56,
3,3025920,Note_off_c,0,47,0,
3,3025920,Note_off_c,0,66,0,
3,3025920,Note_on_c,0,54,26,
3,3025920,Note_on_c,0,66,44,
3,3026119,Control_c,0,74,56,
3,3026599,Control_c,0,74,56,
3,3027079,Control_c,0,74,56,
3,3027559,Control_c,0,74,56,
3,3028039,Control_c,0,74,56,
3,3028519,Control_c,0,74,56,
3,3028999,Control_c,0,74,56,
3,3029479,Control_c,0,74,56,
3,3029959,Control_c,0,74,56,
3,3030439,Control_c,0,74,56,
3,3030919,Control_c,0,74,56,
3,3031399,Control_c,0,74,56,
3,3031879,Control_c,0,74,56,
3,3032359,Control_c,0,74,56,
3,3032839,Control_c,0,74,57,
3,3033319,Control_c,0,74,57,
3,3033600,Note_on_c,0,68,18,
3,3033799,Control_c,0,74,57,
3,3034279,Control_c,0,74,57,
3,3034759,Control_c,0,74,57,
3,3035239,Control_c,0,74,57,
3,3035626,Note_off_c,0,66,0,
3,3035719,Control_c,0,74,57,
3,3036199,Control_c,0,74,57,
3,3036679,Control_c,0,74,57,
3,3037159,Control_c,0,74,57,
3,3037639,Control_c,0,74,57,
3,3038119,Control_c,0,74,57,
3,3038599,Control_c,0,74,57,
3,3039079,Control_c,0,74,57,
3,3039559,Control_c,0,74,57,
3,3040039,Control_c,0,74,57,
3,3040519,Control_c,0,74,57,
3,3040999,Control_c,0,74,57,
3,3041280,Note_on_c,0,70,38,
3,3041479,Control_c,0,74,57,
3,3041959,Control_c,0,74,57,
3,3042244,Note_off_c,0,68,0,
3,3042439,Control_c,0,74,58,
3,3042919,Control_c,0,74,58,
3,3043399,Control_c,0,74,58,
3,3043879,Control_c,0,74,58,
3,3044359,Control_c,0,74,58,
3,3044839,Control_c,0,74,58,
3,3045319,Control_c,0,74,58,
3,3045799,Control_c,0,74,58,
3,3046279,Control_c,0,74,58,
3,3046759,Control_c,0,74,58,
3,3047239,Control_c,0,74,58,
3,3047719,Control_c,0,74,58,
3,3048199,Control_c,0,74,58,
3,3048679,Control_c,0,74,58,
3,3048960,Note_off_c,0,70,0,
3,3048960,Note_on_c,0,73,41,
3,3049159,Control_c,0,74,58,
3,3049639,Control_c,0,74,58,
3,3050119,Control_c,0,74,58,
3,3050599,Control_c,0,74,58,
3,3051079,Control_c,0,74,58,
3,3051559,Control_c,0,74,59,
3,3052039,Control_c,0,74,59,
3,3052519,Control_c,0,74,59,
3,3052999,Control_c,0,74,59,
3,3053479,Control_c,0,74,59,
3,3053959,Control_c,0,74,59,
3,3054439,Control_c,0,74,59,
3,3054919,Control_c,0,74,59,
3,3055399,Control_c,0,74,59,
3,3055879,Control_c,0,74,59,
3,3056359,Control_c,0,74,59,
3,3056640,Note_off_c,0,73,0,
3,3056640,Note_on_c,0,66,50,
3,3056839,Control_c,0,74,59,
3,3057319,Control_c,0,74,59,
3,3057799,Control_c,0,74,59,
3,3058279,Control_c,0,74,59,
3,3058759,Control_c,0,74,59,
3,3059239,Control_c,0,74,59,
3,3059719,Control_c,0,74,59,
3,3060199,Control_c,0,74,59,
3,3060679,Control_c,0,74,59,
3,3061159,Control_c,0,74,60,
3,3061639,Control_c,0,74,60,
3,3062119,Control_c,0,74,60,
3,3062599,Control_c,0,74,60,
3,3063079,Control_c,0,74,60,
3,3063559,Control_c,0,74,60,
3,3064039,Control_c,0,74,60,
3,3064320,Note_off_c,0,66,0,
3,3064320,Note_on_c,0,68,40,
3,3064519,Control_c,0,74,60,
3,3064999,Control_c,0,74,60,
3,3065479,Control_c,0,74,60,
3,3065959,Control_c,0,74,60,
3,3066439,Control_c,0,74,60,
3,3066919,Control_c,0,74,60,
3,3067399,Control_c,0,74,60,
3,3067879,Control_c,0,74,60,
3,3068359,Control_c,0,74,60,
3,3068839,Control_c,0,74,60,
3,3069319,Control_c,0,74,60,
3,3069799,Control_c,0,74,60,
3,3070279,Control_c,0,74,61,
3,3070759,Control_c,0,74,61,
3,3071239,Control_c,0,74,61,
3,3071719,Control_c,0,74,61,
3,3072000,Note_off_c,0,68,0,
3,3072000,Note_on_c,0,70,34,
3,3072199,Control_c,0,74,61,
3,3072679,Control_c,0,74,61,
3,3073159,Control_c,0,74,61,
3,3073639,Control_c,0,74,61,
3,3074119,Control_c,0,74,61,
3,3074599,Control_c,0,74,61,
3,3075079,Control_c,0,74,61,
3,3075559,Control_c,0,74,61,
3,3076039,Control_c,0,74,61,
3,3076519,Control_c,0,74,61,
3,3076999,Control_c,0,74,61,
3,3077479,Control_c,0,74,61,
3,3077959,Control_c,0,74,61,
3,3078439,Control_c,0,74,61,
3,3078919,Control_c,0,74,61,
3,3079399,Control_c,0,74,61,
3,3079680,Note_off_c,0,70,0,
3,3079680,Note_on_c,0,73,32,
3,3079879,Control_c,0,74,62,
3,3080359,Control_c,0,74,62,
3,3080839,Control_c,0,74,62,
3,3081319,Control_c,0,74,62,
3,3081799,Control_c,0,74,62,
3,3082279,Control_c,0,74,62,
3,3082759,Control_c,0,74,62,
3,3083239,Control_c,0,74,62,
3,3083719,Control_c,0,74,62,
3,3084199,Control_c,0,74,62,
3,3084679,Control_c,0,74,62,
3,3085159,Control_c,0,74,62,
3,3085639,Control_c,0,74,62,
3,3086119,Control_c,0,74,62,
3,3086599,Control_c,0,74,62,
3,3087079,Control_c,0,74,62,
3,3087360,Note_off_c,0,54,0,
3,3087360,Note_off_c,0,73,0,
3,3087360,Note_on_c,0,52,26,
3,3087360,Note_on_c,0,64,44,
3,3087559,Control_c,0,74,62,
3,3088039,Control_c,0,74,62,
3,3088519,Control_c,0,74,62,
3,3088999,Control_c,0,74,63,
3,3089479,Control_c,0,74,63,
3,3089959,Control_c,0,74,63,
3,3090439,Control_c,0,74,63,
3,3090919,Control_c,0,74,63,
3,3091399,Control_c,0,74,63,
3,3091879,Control_c,0,74,63,
3,3092359,Control_c,0,74,63,
3,3092839,Control_c,0,74,63,
3,3093319,Control_c,0,74,63,
3,3093799,Control_c,0,74,63,
3,3094279,Control_c,0,74,63,
3,3094759,Control_c,0,74,63,
3,3095040,Note_on_c,0,66,18,
3,3095239,Control_c,0,74,63,
3,3095719,Control_c,0,74,63,
3,3096199,Control_c,0,74,63,
3,3096679,Control_c,0,74,63,
3,3097066,Note_off_c,0,64,0,
3,3097159,Control_c,0,74,63,
3,3097639,Control_c,0,74,63,
3,3098119,Control_c,0,74,63,
3,3098599,Control_c,0,74,64,
3,3099079,Control_c,0,74,64,
3,3099559,Control_c,0,74,64,
3,3100039,Control_c,0,74,64,
3,3100519,Control_c,0,74,64,
3,3100999,Control_c,0,74,64,
3,3101479,Control_c,0,74,64,
3,3101959,Control_c,0,74,64,
3,3102439,Control_c,0,74,64,
3,3102720,Note_on_c,0,68,38,
3,3102919,Control_c,0,74,64,
3,3103399,Control_c,0,74,64,
3,3103684,Note_off_c,0,66,0,
3,3103879,Control_c,0,74,64,
3,3104359,Control_c,0,74,64,
3,3104839,Control_c,0,74,64,
3,3105319,Control_c,0,74,64,
3,3105799,Control_c,0,74,64,
3,3106279,Control_c,0,74,64,
3,3106759,Control_c,0,74,64,
3,3107239,Control_c,0,74,64,
3,3107719,Control_c,0,74,65,
3,3108199,Control_c,0,74,65,
3,3108679,Control_c,0,74,65,
3,3109159,Control_c,0,74,65,
3,3109639,Control_c,0,74,65,
3,3110119,Control_c,0,74,65,
3,3110400,Note_off_c,0,68,0,
3,3110400,Note_on_c,0,71,41,
3,3110599,Control_c,0,74,65,
3,3111079,Control_c,0,74,65,
3,3111559,Control_c,0,74,65,
3,3112039,Control_c,0,74,65,
3,3112519,Control_c,0,74,65,
3,3112999,Control_c,0,74,65,
3,3113479,Control_c,0,74,65,
3,3113959,Control_c,0,74,65,
3,3114439,Control_c,0,74,65,
3,3114919,Control_c,0,74,65,
3,3115399,Control_c,0,74,65,
3,3115879,Control_c,0,74,65,
3,3116359,Control_c,0,74,65,
3,3116839,Control_c,0,74,65,
3,3117319,Control_c,0,74,66,
3,3117799,Control_c,0,74,66,
3,3118080,Note_off_c,0,71,0,
3,3118080,Note_on_c,0,64,50,
3,3118279,Control_c,0,74,66,
3,3118759,Control_c,0,74,66,
3,3119239,Control_c,0,74,66,
3,3119719,Control_c,0,74,66,
3,3120199,Control_c,0,74,66,
3,3120679,Control_c,0,74,66,
3,3121159,Control_c,0,74,66,
3,3121639,Control_c,0,74,66,
3,3122119,Control_c,0,74,66,
3,3122599,Control_c,0,74,66,
3,3123079,Control_c,0,74,66,
3,3123559,Control_c,0,74,66,
3,3124039,Control_c,0,74,66,
3,3124519,Control_c,0,74,66,
3,3124999,Control_c,0,74,66,
3,3125479,Control_c,0,74,66,
3,3125760,Note_off_c,0,64,0,
3,3125760,Note_on_c,0,66,40,
3,3125959,Control_c,0,74,66,
3,3126439,Control_c,0,74,67,
3,3126919,Control_c,0,74,67,
3,3127399,Control_c,0,74,67,
3,3127879,Control_c,0,74,67,
3,3128359,Control_c,0,74,67,
3,3128839,Control_c,0,74,67,
3,3129319,Control_c,0,74,67,
3,3129799,Control_c,0,74,67,
3,3130279,Control_c,0,74,67,
3,3130759,Control_c,0,74,67,
3,3131239,Control_c,0,74,67,
3,3131719,Control_c,0,74,67,
3,3132199,Control_c,0,74,67,
3,3132679,Control_c,0,74,67,
3,3133159,Control_c,0,74,67,
3,3133440,Note_off_c,0,66,0,
3,3133440,Note_on_c,0,68,34,
3,3133639,Control_c,0,74,67,
3,3134119,Control_c,0,74,67,
3,3134599,Control_c,0,74,67,
3,3135079,Control_c,0,74,67,
3,3135559,Control_c,0,74,67,
3,3136039,Control_c,0,74,68,
3,3136519,Control_c,0,74,68,
3,3136999,Control_c,0,74,68,
3,3137479,Control_c,0,74,68,
3,3137959,Control_c,0,74,68,
3,3138439,Control_c,0,74,68,
3,3138919,Control_c,0,74,68,
3,3139399,Control_c,0,74,68,
3,3139879,Control_c,0,74,68,
3,3140359,Control_c,0,74,68,
3,3140839,Control_c,0,74,68,
3,3141120,Note_off_c,0,68,0,
3,3141120,Note_on_c,0,71,32,
3,3141319,Control_c,0,74,68,
3,3141799,Control_c,0,74,68,
3,3142279,Control_c,0,74,68,
3,3142759,Control_c,0,74,68,
3,3143239,Control_c,0,74,68,
3,3143719,Control_c,0,74,68,
3,3144199,Control_c,0,74,68,
3,3144679,Control_c,0,74,68,
3,3145159,Control_c,0,74,69,
3,3145639,Control_c,0,74,69,
3,3146119,Control_c,0,74,69,
3,3146599,Control_c,0,74,69,
3,3147079,Control_c,0,74,69,
3,3147559,Control_c,0,74,69,
3,3148039,Control_c,0,74,69,
3,3148519,Control_c,0,74,69,
3,3148800,Note_off_c,0,52,0,
3,3148800,Note_off_c,0,71,0,
3,3148800,Note_on_c,0,47,26,
3,3148800,Note_on_c,0,59,44,
3,3148999,Control_c,0,74,69,
3,3149479,Control_c,0,74,69,
3,3149959,Control_c,0,74,69,
3,3150439,Control_c,0,74,69,
3,3150919,Control_c,0,74,69,
3,3151399,Control_c,0,74,69,
3,3151879,Control_c,0,74,69,
3,3152359,Control_c,0,74,69,
3,3152839,Control_c,0,74,69,
3,3153319,Control_c,0,74,69,
3,3153799,Control_c,0,74,69,
3,3154279,Control_c,0,74,69,
3,3154759,Control_c,0,74,70,
3,3155239,Control_c,0,74,70,
3,3155719,Control_c,0,74,70,
3,3156199,Control_c,0,74,70,
3,3156480,Note_on_c,0,61,18,
3,3156679,Control_c,0,74,70,
3,3157159,Control_c,0,74,70,
3,3157639,Control_c,0,74,70,
3,3158119,Control_c,0,74,70,
3,3158506,Note_off_c,0,59,0,
3,3158599,Control_c,0,74,70,
3,3159079,Control_c,0,74,70,
3,3159559,Control_c,0,74,70,
3,3160039,Control_c,0,74,70,
3,3160519,Control_c,0,74,70,
3,3160999,Control_c,0,74,70,
3,3161479,Control_c,0,74,70,
3,3161959,Control_c,0,74,70,
3,3162439,Control_c,0,74,70,
3,3162919,Control_c,0,74,70,
3,3163399,Control_c,0,74,70,
3,3163879,Control_c,0,74,71,
3,3164160,Note_on_c,0,63,38,
3,3164359,Control_c,0,74,71,
3,3164839,Control_c,0,74,71,
3,3165124,Note_off_c,0,61,0,
3,3165319,Control_c,0,74,71,
3,3165799,Control_c,0,74,71,
3,3166279,Control_c,0,74,71,
3,3166759,Control_c,0,74,71,
3,3167239,Control_c,0,74,71,
3,3167719,Control_c,0,74,71,
3,3168199,Control_c,0,74,71,
3,3168679,Control_c,0,74,71,
3,3169159,Control_c,0,74,71,
3,3169639,Control_c,0,74,71,
3,3170119,Control_c,0,74,71,
3,3170599,Control_c,0,74,71,
3,3171079,Control_c,0,74,71,
3,3171559,Control_c,0,74,71,
3,3171840,Note_off_c,0,63,0,
3,3171840,Note_on_c,0,66,41,
3,3172039,Control_c,0,74,71,
3,3172519,Control_c,0,74,71,
3,3172999,Control_c,0,74,71,
3,3173479,Control_c,0,74,72,
3,3173959,Control_c,0,74,72,
3,3174439,Control_c,0,74,72,
3,3174919,Control_c,0,74,72,
3,3175399,Control_c,0,74,72,
3,3175879,Control_c,0,74,72,
3,3176359,Control_c,0,74,72,
3,3176839,Control_c,0,74,72,
3,3177319,Control_c,0,74,72,
3,3177799,Control_c,0,74,72,
3,3178279,Control_c,0,74,72,
3,3178759,Control_c,0,74,72,
3,3179239,Control_c,0,74,72,
3,3179520,Note_off_c,0,66,0,
3,3179520,Note_on_c,0,59,50,
3,3179719,Control_c,0,74,72,
3,3180199,Control_c,0,74,72,
3,3180679,Control_c,0,74,72,
3,3181159,Control_c,0,74,72,
3,3181639,Control_c,0,74,72,
3,3182119,Control_c,0,74,72,
3,3182599,Control_c,0,74,73,
3,3183079,Control_c,0,74,73,
3,3183559,Control_c,0,74,73,
3,3184039,Control_c,0,74,73,
3,3184519,Control_c,0,74,73,
3,3184999,Control_c,0,74,73,
3,3185479,Control_c,0,74,73,
3,3185959,Control_c,0,74,73,
3,3186439,Control_c,0,74,73,
3,3186919,Control_c,0,74,73,
3,3187200,Note_off_c,0,59,0,
3,3187200,Note_on_c,0,61,40,
3,3187399,Control_c,0,74,73,
3,3187879,Control_c,0,74,73,
3,3188359,Control_c,0,74,73,
3,3188839,Control_c,0,74,73,
3,3189319,Control_c,0,74,73,
3,3189799,Control_c,0,74,73,
3,3190279,Control_c,0,74,73,
3,3190759,Control_c,0,74,73,
3,3191239,Control_c,0,74,73,
3,3191719,Control_c,0,74,73,
3,3192199,Control_c,0,74,74,
3,3192679,Control_c,0,74,74,
3,3193159,Control_c,0,74,74,
3,3193639,Control_c,0,74,74,
3,3194119,Control_c,0,74,74,
3,3194599,Control_c,0,74,74,
3,3194880,Note_off_c,0,61,0,
3,3194880,Note_on_c,0,63,34,
3,3195079,Control_c,0,74,74,
3,3195559,Control_c,0,74,74,
3,3196039,Control_c,0,74,74,
3,3196519,Control_c,0,74,74,
3,3196999,Control_c,0,74,74,
3,3197479,Control_c,0,74,74,
3,3197959,Control_c,0,74,74,
3,3198439,Control_c,0,74,74,
3,3198919,Control_c,0,74,74,
3,3199399,Control_c,0,74,74,
3,3199879,Control_c,0,74,74,
3,3200359,Control_c,0,74,74,
3,3200839,Control_c,0,74,74,
3,3201319,Control_c,0,74,75,
3,3201799,Control_c,0,74,75,
3,3202279,Control_c,0,74,75,
3,3202560,Note_off_c,0,63,0,
3,3202560,Note_on_c,0,66,32,
3,3202759,Control_c,0,74,75,
3,3203239,Control_c,0,74,75,
3,3203719,Control_c,0,74,75,
3,3204199,Control_c,0,74,75,
3,3204679,Control_c,0,74,75,
3,3205159,Control_c,0,74,75,
3,3205639,Control_c,0,74,75,
3,3206119,Control_c,0,74,75,
3,3206599,Control_c,0,74,75,
3,3207079,Control_c,0,74,75,
3,3207559,Control_c,0,74,75,
3,3208039,Control_c,0,74,75,
3,3208519,Control_c,0,74,75,
3,3208999,Control_c,0,74,75,
3,3209479,Control_c,0,74,75,
3,3209959,Control_c,0,74,75,
3,3210240,Note_off_c,0,47,0,
3,3210240,Note_off_c,0,66,0,
3,3210240,Note_on_c,0,47,26,
3,3210240,Note_on_c,0,59,44,
3,3210439,Control_c,0,74,75,
3,3210919,Control_c,0,74,76,
3,3211399,Control_c,0,74,76,
3,3211879,Control_c,0,74,76,
3,3212359,Control_c,0,74,76,
3,3212839,Control_c,0,74,76,
3,3213319,Control_c,0,74,76,
3,3213799,Control_c,0,74,76,
3,3214279,Control_c,0,74,76,
3,3214759,Control_c,0,74,76,
3,3215239,Control_c,0,74,76,
3,3215719,Control_c,0,74,76,
3,3216199,Control_c,0,74,76,
3,3216679,Control_c,0,74,76,
3,3217159,Control_c,0,74,76,
3,3217639,Control_c,0,74,76,
3,3217920,Note_on_c,0,61,18,
3,3218119,Control_c,0,74,76,
3,3218599,Control_c,0,74,76,
3,3219079,Control_c,0,74,76,
3,3219559,Control_c,0,74,76,
3,3219946,Note_off_c,0,59,0,
3,3220039,Control_c,0,74,77,
3,3220519,Control_c,0,74,77,
3,3220999,Control_c,0,74,77,
3,3221479,Control_c,0,74,77,
3,3221959,Control_c,0,74,77,
3,3222439,Control_c,0,74,77,
3,3222919,Control_c,0,74,77,
3,3223399,Control_c,0,74,77,
3,3223879,Control_c,0,74,77,
3,3224359,Control_c,0,74,77,
3,3224839,Control_c,0,74,77,
3,3225319,Control_c,0,74,77,
3,3225600,Note_on_c,0,63,38,
3,3225799,Control_c,0,74,77,
3,3226279,Control_c,0,74,77,
3,3226564,Note_off_c,0,61,0,
3,3226759,Control_c,0,74,77,
3,3227239,Control_c,0,74,77,
3,3227719,Control_c,0,74,77,
3,3228199,Control_c,0,74,77,
3,3228679,Control_c,0,74,77,
3,3229159,Control_c,0,74,77,
3,3229639,Control_c,0,74,78,
3,3230119,Control_c,0,74,78,
3,3230599,Control_c,0,74,78,
3,3231079,Control_c,0,74,78,
3,3231559,Control_c,0,74,78,
3,3232039,Control_c,0,74,78,
3,3232519,Control_c,0,74,78,
3,3232999,Control_c,0,74,78,
3,3233280,Note_off_c,0,63,0,
3,3233280,Note_on_c,0,66,41,
3,3233479,Control_c,0,74,78,
3,3233959,Control_c,0,74,78,
3,3234439,Control_c,0,74,78,
3,3234919,Control_c,0,74,78,
3,3235399,Control_c,0,74,78,
3,3235879,Control_c,0,74,78,
3,3236359,Control_c,0,74,78,
3,3236839,Control_c,0,74,78,
3,3237319,Control_c,0,74,78,
3,3237799,Control_c,0,74,78,
3,3238279,Control_c,0,74,78,
3,3238759,Control_c,0,74,79,
3,3239239,Control_c,0,74,79,
3,3239719,Control_c,0,74,79,
3,3240199,Control_c,0,74,79,
3,3240679,Control_c,0,74,79,
3,3240960,Note_off_c,0,66,0,
3,3240960,Note_on_c,0,59,50,
3,3241159,Control_c,0,74,79,
3,3241639,Control_c,0,74,79,
3,3242119,Control_c,0,74,79,
3,3242599,Control_c,0,74,79,
3,3243079,Control_c,0,74,79,
3,3243559,Control_c,0,74,79,
3,3244039,Control_c,0,74,79,
3,3244519,Control_c,0,74,79,
3,3244999,Control_c,0,74,79,
3,3245479,Control_c,0,74,79,
3,3245959,Control_c,0,74,79,
3,3246439,Control_c,0,74,79,
3,3246919,Control_c,0,74,79,
3,3247399,Control_c,0,74,79,
3,3247879,Control_c,0,74,79,
3,3248359,Control_c,0,74,80,
3,3248640,Note_off_c,0,59,0,
3,3248640,Note_on_c,0,61,40,
3,3248839,Control_c,0,74,80,
3,3249319,Control_c,0,74,80,
3,3249799,Control_c,0,74,80,
3,3250279,Control_c,0,74,80,
3,3250759,Control_c,0,74,80,
3,3251239,Control_c,0,74,80,
3,3251719,Control_c,0,74,80,
3,3252199,Control_c,0,74,80,
3,3252679,Control_c,0,74,80,
3,3253159,Control_c,0,74,80,
3,3253639,Control_c,0,74,80,
3,3254119,Control_c,0,74,80,
3,3254599,Control_c,0,74,80,
3,3255079,Control_c,0,74,80,
3,3255559,Control_c,0,74,80,
3,3256039,Control_c,0,74,80,
3,3256320,Note_off_c,0,61,0,
3,3256320,Note_on_c,0,63,34,
3,3256519,Control_c,0,74,80,
3,3256999,Control_c,0,74,80,
3,3257479,Control_c,0,74,80,
3,3257959,Control_c,0,74,81,
3,3258439,Control_c,0,74,81,
3,3258919,Control_c,0,74,81,
3,3259399,Control_c,0,74,81,
3,3259879,Control_c,0,74,81,
3,3260359,Control_c,0,74,81,
3,3260839,Control_c,0,74,81,
3,3261319,Control_c,0,74,81,
3,3261799,Control_c,0,74,81,
3,3262279,Control_c,0,74,81,
3,3262759,Control_c,0,74,81,
3,3263239,Control_c,0,74,81,
3,3263719,Control_c,0,74,81,
3,3264000,Note_off_c,0,63,0,
3,3264000,Note_on_c,0,66,32,
3,3264199,Control_c,0,74,81,
3,3264679,Control_c,0,74,81,
3,3265159,Control_c,0,74,81,
3,3265639,Control_c,0,74,81,
3,3266119,Control_c,0,74,81,
3,3266599,Control_c,0,74,81,
3,3267079,Control_c,0,74,82,
3,3267559,Control_c,0,74,82,
3,3268039,Control_c,0,74,82,
3,3268519,Control_c,0,74,82,
3,3268999,Control_c,0,74,82,
3,3269479,Control_c,0,74,82,
3,3269959,Control_c,0,74,82,
3,3270439,Control_c,0,74,82,
3,3270919,Control_c,0,74,82,
3,3271399,Control_c,0,74,82,
3,3271680,Note_off_c,0,47,0,
3,3271680,Note_off_c,0,66,0,
3,3271680,Note_on_c,0,54,26,
3,3271680,Note_on_c,0,66,44,
3,3271879,Control_c,0,74,82,
3,3272359,Control_c,0,74,82,
3,3272839,Control_c,0,74,82,
3,3273319,Control_c,0,74,82,
3,3273799,Control_c,0,74,82,
3,3274279,Control_c,0,74,82,
3,3274759,Control_c,0,74,82,
3,3275239,Control_c,0,74,82,
3,3275719,Control_c,0,74,82,
3,3276199,Control_c,0,74,82,
3,3276679,Control_c,0,74,83,
3,3277159,Control_c,0,74,83,
3,3277639,Control_c,0,74,83,
3,3278119,Control_c,0,74,83,
3,3278599,Control_c,0,74,83,
3,3279079,Control_c,0,74,83,
3,3279360,Note_on_c,0,68,18,
3,3279559,Control_c,0,74,83,
3,3280039,Control_c,0,74,83,
3,3280519,Control_c,0,74,83,
3,3280999,Control_c,0,74,83,
3,3281386,Note_off_c,0,66,0,
3,3281479,Control_c,0,74,83,
3,3281959,Control_c,0,74,83,
3,3282439,Control_c,0,74,83,
3,3282919,Control_c,0,74,83,
3,3283399,Control_c,0,74,83,
3,3283879,Control_c,0,74,83,
3,3284359,Control_c,0,74,83,
3,3284839,Control_c,0,74,83,
3,3285319,Control_c,0,74,83,
3,3285799,Control_c,0,74,84,
3,3286279,Control_c,0,74,84,
3,3286759,Control_c,0,74,84,
3,3287040,Note_on_c,0,70,38,
3,3287239,Control_c,0,74,84,
3,3287719,Control_c,0,74,84,
3,3288004,Note_off_c,0,68,0,
3,3288199,Control_c,0,74,84,
3,3288679,Control_c,0,74,84,
3,3289159,Control_c,0,74,84,
3,3289639,Control_c,0,74,84,
3,3290119,Control_c,0,74,84,
3,3290599,Control_c,0,74,84,
3,3291079,Control_c,0,74,84,
3,3291559,Control_c,0,74,84,
3,3292039,Control_c,0,74,84,
3,3292519,Control_c,0,74,84,
3,3292999,Control_c,0,74,84,
3,3293479,Control_c,0,74,84,
3,3293959,Control_c,0,74,84,
3,3294439,Control_c,0,74,84,
3,3294720,Note_off_c,0,70,0,
3,3294720,Note_on_c,0,73,41,
3,3294919,Control_c,0,74,84,
3,3295399,Control_c,0,74,85,
3,3295879,Control_c,0,74,85,
3,3296359,Control_c,0,74,85,
3,3296839,Control_c,0,74,85,
3,3297319,Control_c,0,74,85,
3,3297799,Control_c,0,74,85,
3,3298279,Control_c,0,74,85,
3,3298759,Control_c,0,74,85,
3,3299239,Control_c,0,74,85,
3,3299719,Control_c,0,74,85,
3,3300199,Control_c,0,74,85,
3,3300679,Control_c,0,74,85,
3,3301159,Control_c,0,74,85,
3,3301639,Control_c,0,74,85,
3,3302119,Control_c,0,74,85,
3,3302400,Note_off_c,0,73,0,
3,3302400,Note_on_c,0,66,50,
3,3302599,Control_c,0,74,85,
3,3303079,Control_c,0,74,85,
3,3303559,Control_c,0,74,85,
3,3304039,Control_c,0,74,85,
3,3304519,Control_c,0,74,86,
3,3304999,Control_c,0,74,86,
3,3305479,Control_c,0,74,86,
3,3305959,Control_c,0,74,86,
3,3306439,Control_c,0,74,86,
3,3306919,Control_c,0,74,86,
3,3307399,Control_c,0,74,86,
3,3307879,Control_c,0,74,86,
3,3308359,Control_c,0,74,86,
3,3308839,Control_c,0,74,86,
3,3309319,Control_c,0,74,86,
3,3309799,Control_c,0,74,86,
3,3310080,Note_off_c,0,66,0,
3,3310080,Note_on_c,0,68,40,
3,3310279,Control_c,0,74,86,
3,3310759,Control_c,0,74,86,
3,3311239,Control_c,0,74,86,
3,3311719,Control_c,0,74,86,
3,3312199,Control_c,0,74,86,
3,3312679,Control_c,0,74,86,
3,3313159,Control_c,0,74,86,
3,3313639,Control_c,0,74,86,
3,3313689,Control_c,0,74,87,
3,3314169,Control_c,0,74,87,
3,3314649,Control_c,0,74,87,
3,3315129,Control_c,0,74,87,
3,3315609,Control_c,0,74,87,
3,3316089,Control_c,0,74,87,
3,3316569,Control_c,0,74,87,
3,3317049,Control_c,0,74,87,
3,3317529,Control_c,0,74,87,
3,3317760,Note_off_c,0,68,0,
3,3317760,Note_on_c,0,70,34,
3,3318009,Control_c,0,74,87,
3,3318489,Control_c,0,74,87,
3,3318969,Control_c,0,74,87,
3,3319449,Control_c,0,74,88,
3,3319929,Control_c,0,74,88,
3,3320409,Control_c,0,74,88,
3,3320889,Control_c,0,74,88,
3,3321369,Control_c,0,74,88,
3,3321849,Control_c,0,74,88,
3,3322329,Control_c,0,74,88,
3,3322809,Control_c,0,74,88,
3,3323289,Control_c,0,74,88,
3,3323769,Control_c,0,74,88,
3,3324249,Control_c,0,74,88,
3,3324729,Control_c,0,74,88,
3,3325209,Control_c,0,74,89,
3,3325440,Note_off_c,0,70,0,
3,3325440,Note_on_c,0,73,32,
3,3325689,Control_c,0,74,89,
3,3326169,Control_c,0,74,89,
3,3326649,Control_c,0,74,89,
3,3327129,Control_c,0,74,89,
3,3327609,Control_c,0,74,89,
3,3328089,Control_c,0,74,89,
3,3328569,Control_c,0,74,89,
3,3329049,Control_c,0,74,89,
3,3329529,Control_c,0,74,89,
3,3330009,Control_c,0,74,89,
3,3330489,Control_c,0,74,89,
3,3330969,Control_c,0,74,90,
3,3331449,Control_c,0,74,90,
3,3331929,Control_c,0,74,90,
3,3332409,Control_c,0,74,90,
3,3332889,Control_c,0,74,90,
3,3333120,Note_off_c,0,54,0,
3,3333120,Note_off_c,0,73,0,
3,3333120,Note_on_c,0,52,26,
3,3333120,Note_on_c,0,64,44,
3,3333369,Control_c,0,74,90,
3,3333849,Control_c,0,74,90,
3,3334329,Control_c,0,74,90,
3,3334809,Control_c,0,74,90,
3,3335289,Control_c,0,74,90,
3,3335769,Control_c,0,74,90,
3,3336249,Control_c,0,74,90,
3,3336729,Control_c,0,74,91,
3,3337209,Control_c,0,74,91,
3,3337689,Control_c,0,74,91,
3,3338169,Control_c,0,74,91,
3,3338649,Control_c,0,74,91,
3,3339129,Control_c,0,74,91,
3,3339609,Control_c,0,74,91,
3,3340089,Control_c,0,74,91,
3,3340569,Control_c,0,74,91,
3,3340800,Note_on_c,0,66,18,
3,3341049,Control_c,0,74,91,
3,3341529,Control_c,0,74,91,
3,3342009,Control_c,0,74,92,
3,3342489,Control_c,0,74,92,
3,3342826,Note_off_c,0,64,0,
3,3342969,Control_c,0,74,92,
3,3343449,Control_c,0,74,92,
3,3343929,Control_c,0,74,92,
3,3344409,Control_c,0,74,92,
3,3344889,Control_c,0,74,92,
3,3345369,Control_c,0,74,92,
3,3345849,Control_c,0,74,92,
3,3346329,Control_c,0,74,92,
3,3346809,Control_c,0,74,92,
3,3347289,Control_c,0,74,92,
3,3347769,Control_c,0,74,93,
3,3348249,Control_c,0,74,93,
3,3348480,Note_on_c,0,68,38,
3,3348729,Control_c,0,74,93,
3,3349209,Control_c,0,74,93,
3,3349444,Note_off_c,0,66,0,
3,3349689,Control_c,0,74,93,
3,3350169,Control_c,0,74,93,
3,3350649,Control_c,0,74,93,
3,3351129,Control_c,0,74,93,
3,3351609,Control_c,0,74,93,
3,3352089,Control_c,0,74,93,
3,3352569,Control_c,0,74,93,
3,3353049,Control_c,0,74,93,
3,3353529,Control_c,0,74,94,
3,3354009,Control_c,0,74,94,
3,3354489,Control_c,0,74,94,
3,3354969,Control_c,0,74,94,
3,3355449,Control_c,0,74,94,
3,3355929,Control_c,0,74,94,
3,3356160,Note_off_c,0,68,0,
3,3356160,Note_on_c,0,71,41,
3,3356409,Control_c,0,74,94,
3,3356889,Control_c,0,74,94,
3,3357369,Control_c,0,74,94,
3,3357849,Control_c,0,74,94,
3,3358329,Control_c,0,74,94,
3,3358809,Control_c,0,74,94,
3,3359289,Control_c,0,74,95,
3,3359769,Control_c,0,74,95,
3,3360249,Control_c,0,74,95,
3,3360729,Control_c,0,74,95,
3,3361209,Control_c,0,74,95,
3,3361689,Control_c,0,74,95,
3,3362169,Control_c,0,74,95,
3,3362649,Control_c,0,74,95,
3,3363129,Control_c,0,74,95,
3,3363609,Control_c,0,74,95,
3,3363840,Note_off_c,0,71,0,
3,3363840,Note_on_c,0,64,50,
3,3364089,Control_c,0,74,95,
3,3364569,Control_c,0,74,95,
3,3365049,Control_c,0,74,96,
3,3365529,Control_c,0,74,96,
3,3366009,Control_c,0,74,96,
3,3366489,Control_c,0,74,96,
3,3366969,Control_c,0,74,96,
3,3367449,Control_c,0,74,96,
3,3367929,Control_c,0,74,96,
3,3368409,Control_c,0,74,96,
3,3368889,Control_c,0,74,96,
3,3369369,Control_c,0,74,96,
3,3369849,Control_c,0,74,96,
3,3370329,Control_c,0,74,97,
3,3370809,Control_c,0,74,97,
3,3371289,Control_c,0,74,97,
3,3371520,Note_off_c,0,64,0,
3,3371520,Note_on_c,0,66,40,
3,3371769,Control_c,0,74,97,
3,3372249,Control_c,0,74,97,
3,3372729,Control_c,0,74,97,
3,3373209,Control_c,0,74,97,
3,3373689,Control_c,0,74,97,
3,3374169,Control_c,0,74,97,
3,3374649,Control_c,0,74,97,
3,3375129,Control_c,0,74,97,
3,3375609,Control_c,0,74,97,
3,3376089,Control_c,0,74,98,
3,3376569,Control_c,0,74,98,
3,3377049,Control_c,0,74,98,
3,3377529,Control_c,0,74,98,
3,3378009,Control_c,0,74,98,
3,3378489,Control_c,0,74,98,
3,3378969,Control_c,0,74,98,
3,3379200,Note_off_c,0,66,0,
3,3379200,Note_on_c,0,68,34,
3,3379449,Control_c,0,74,98,
3,3379929,Control_c,0,74,98,
3,3380409,Control_c,0,74,98,
3,3380889,Control_c,0,74,98,
3,3381369,Control_c,0,74,98,
3,3381849,Control_c,0,74,99,
3,3382329,Control_c,0,74,99,
3,3382809,Control_c,0,74,99,
3,3383289,Control_c,0,74,99,
3,3383769,Control_c,0,74,99,
3,3384249,Control_c,0,74,99,
3,3384729,Control_c,0,74,99,
3,3385209,Control_c,0,74,99,
3,3385689,Control_c,0,74,99,
3,3386169,Control_c,0,74,99,
3,3386649,Control_c,0,74,99,
3,3386880,Note_off_c,0,68,0,
3,3386880,Note_on_c,0,71,32,
3,3387129,Control_c,0,74,99,
3,3387609,Control_c,0,74,100,
3,3388089,Control_c,0,74,100,
3,3388569,Control_c,0,74,100,
3,3389049,Control_c,0,74,100,
3,3389529,Control_c,0,74,100,
3,3390009,Control_c,0,74,100,
3,3390489,Control_c,0,74,100,
3,3390969,Control_c,0,74,100,
3,3391449,Control_c,0,74,100,
3,3391929,Control_c,0,74,100,
3,3392409,Control_c,0,74,100,
3,3392889,Control_c,0,74,100,
3,3393369,Control_c,0,74,101,
3,3393849,Control_c,0,74,101,
3,3394329,Control_c,0,74,101,
3,3394560,Note_off_c,0,52,0,
3,3394560,Note_off_c,0,71,0,
3,3394560,Note_on_c,0,47,26,
3,3394560,Note_on_c,0,59,44,
3,3394809,Control_c,0,74,101,
3,3395289,Control_c,0,74,101,
3,3395769,Control_c,0,74,101,
3,3396249,Control_c,0,74,101,
3,3396729,Control_c,0,74,101,
3,3397209,Control_c,0,74,101,
3,3397689,Control_c,0,74,101,
3,3398169,Control_c,0,74,101,
3,3398649,Control_c,0,74,102,
3,3399129,Control_c,0,74,102,
3,3399609,Control_c,0,74,102,
3,3400089,Control_c,0,74,102,
3,3400569,Control_c,0,74,102,
3,3401049,Control_c,0,74,102,
3,3401529,Control_c,0,74,102,
3,3402009,Control_c,0,74,102,
3,3402240,Note_on_c,0,61,18,
3,3402489,Control_c,0,74,102,
3,3402969,Control_c,0,74,102,
3,3403449,Control_c,0,74,102,
3,3403929,Control_c,0,74,102,
3,3404266,Note_off_c,0,59,0,
3,3404409,Control_c,0,74,103,
3,3404889,Control_c,0,74,103,
3,3405369,Control_c,0,74,103,
3,3405849,Control_c,0,74,103,
3,3406329,Control_c,0,74,103,
3,3406809,Control_c,0,74,103,
3,3407289,Control_c,0,74,103,
3,3407769,Control_c,0,74,103,
3,3408249,Control_c,0,74,103,
3,3408729,Control_c,0,74,103,
3,3409209,Control_c,0,74,103,
3,3409689,Control_c,0,74,103,
3,3409920,Note_on_c,0,63,38,
3,3410169,Control_c,0,74,104,
3,3410649,Control_c,0,74,104,
3,3410884,Note_off_c,0,61,0,
3,3411129,Control_c,0,74,104,
3,3411609,Control_c,0,74,104,
3,3412089,Control_c,0,74,104,
3,3412569,Control_c,0,74,104,
3,3413049,Control_c,0,74,104,
3,3413529,Control_c,0,74,104,
3,3414009,Control_c,0,74,104,
3,3414489,Control_c,0,74,104,
3,3414969,Control_c,0,74,104,
3,3415449,Control_c,0,74,104,
3,3415929,Control_c,0,74,105,
3,3416409,Control_c,0,74,105,
3,3416889,Control_c,0,74,105,
3,3417369,Control_c,0,74,105,
3,3417600,Note_off_c,0,63,0,
3,3417600,Note_on_c,0,66,41,
3,3417849,Control_c,0,74,105,
3,3418329,Control_c,0,74,105,
3,3418809,Control_c,0,74,105,
3,3419289,Control_c,0,74,105,
3,3419769,Control_c,0,74,105,
3,3420249,Control_c,0,74,105,
3,3420729,Control_c,0,74,105,
3,3421209,Control_c,0,74,105,
3,3421689,Control_c,0,74,106,
3,3422169,Control_c,0,74,106,
3,3422649,Control_c,0,74,106,
3,3423129,Control_c,0,74,106,
3,3423609,Control_c,0,74,106,
3,3424089,Control_c,0,74,106,
3,3424569,Control_c,0,74,106,
3,3425049,Control_c,0,74,106,
3,3425280,Note_off_c,0,66,0,
3,3425280,Note_on_c,0,59,50,
3,3425529,Control_c,0,74,106,
3,3426009,Control_c,0,74,106,
3,3426489,Control_c,0,74,106,
3,3426969,Control_c,0,74,107,
3,3427449,Control_c,0,74,107,
3,3427929,Control_c,0,74,107,
3,3428409,Control_c,0,74,107,
3,3428889,Control_c,0,74,107,
3,3429369,Control_c,0,74,107,
3,3429849,Control_c,0,74,107,
3,3430329,Control_c,0,74,107,
3,3430809,Control_c,0,74,107,
3,3431289,Control_c,0,74,107,
3,3431769,Control_c,0,74,107,
3,3432249,Control_c,0,74,107,
3,3432729,Control_c,0,74,108,
3,3432960,Note_off_c,0,59,0,
3,3432960,Note_on_c,0,61,40,
3,3433209,Control_c,0,74,108,
3,3433689,Control_c,0,74,108,
3,3434169,Control_c,0,74,108,
3,3434649,Control_c,0,74,108,
3,3435129,Control_c,0,74,108,
3,3435609,Control_c,0,74,108,
3,3436089,Control_c,0,74,108,
3,3436569,Control_c,0,74,108,
3,3437049,Control_c,0,74,108,
3,3437529,Control_c,0,74,108,
3,3438009,Control_c,0,74,108,
3,3438489,Control_c,0,74,109,
3,3438969,Control_c,0,74,109,
3,3439449,Control_c,0,74,109,
3,3439929,Control_c,0,74,109,
3,3440409,Control_c,0,74,109,
3,3440640,Note_off_c,0,61,0,
3,3440640,Note_on_c,0,63,34,
3,3440889,Control_c,0,74,109,
3,3441369,Control_c,0,74,109,
3,3441849,Control_c,0,74,109,
3,3442329,Control_c,0,74,109,
3,3442809,Control_c,0,74,109,
3,3443289,Control_c,0,74,109,
3,3443769,Control_c,0,74,109,
3,3444249,Control_c,0,74,110,
3,3444729,Control_c,0,74,110,
3,3445209,Control_c,0,74,110,
3,3445689,Control_c,0,74,110,
3,3446169,Control_c,0,74,110,
3,3446649,Control_c,0,74,110,
3,3447129,Control_c,0,74,110,
3,3447609,Control_c,0,74,110,
3,3448089,Control_c,0,74,110,
3,3448320,Note_off_c,0,63,0,
3,3448320,Note_on_c,0,66,32,
3,3448569,Control_c,0,74,110,
3,3449049,Control_c,0,74,110,
3,3449529,Control_c,0,74,111,
3,3450009,Control_c,0,74,111,
3,3450489,Control_c,0,74,111,
3,3450969,Control_c,0,74,111,
3,3451449,Control_c,0,74,111,
3,3451929,Control_c,0,74,111,
3,3452409,Control_c,0,74,111,
3,3452889,Control_c,0,74,111,
3,3453369,Control_c,0,74,111,
3,3453849,Control_c,0,74,111,
3,3454329,Control_c,0,74,111,
3,3454809,Control_c,0,74,111,
3,3455289,Control_c,0,74,112,
3,3455769,Control_c,0,74,112,
3,3456000,Note_off_c,0,47,0,
3,3456000,Note_off_c,0,66,0,
3,3456000,Note_on_c,0,47,26,
3,3456000,Note_on_c,0,59,44,
3,3456249,Control_c,0,74,112,
3,3456729,Control_c,0,74,112,
3,3457209,Control_c,0,74,112,
3,3457689,Control_c,0,74,112,
3,3458169,Control_c,0,74,112,
3,3458649,Control_c,0,74,112,
3,3459129,Control_c,0,74,112,
3,3459609,Control_c,0,74,112,
3,3460089,Control_c,0,74,112,
3,3460569,Control_c,0,74,112,
3,3461049,Control_c,0,74,113,
3,3461529,Control_c,0,74,113,
3,3462009,Control_c,0,74,113,
3,3462489,Control_c,0,74,113,
3,3462969,Control_c,0,74,113,
3,3463449,Control_c,0,74,113,
3,3463680,Note_on_c,0,61,18,
3,3463929,Control_c,0,74,113,
3,3464409,Control_c,0,74,113,
3,3464889,Control_c,0,74,113,
3,3465369,Control_c,0,74,113,
3,3465706,Note_off_c,0,59,0,
3,3465849,Control_c,0,74,113,
3,3466329,Control_c,0,74,113,
3,3466809,Control_c,0,74,114,
3,3467289,Control_c,0,74,114,
3,3467769,Control_c,0,74,114,
3,3468249,Control_c,0,74,114,
3,3468729,Control_c,0,74,114,
3,3469209,Control_c,0,74,114,
3,3469689,Control_c,0,74,114,
3,3470169,Control_c,0,74,114,
3,3470649,Control_c,0,74,114,
3,3471129,Control_c,0,74,114,
3,3471360,Note_on_c,0,63,38,
3,3471609,Control_c,0,74,114,
3,3472089,Control_c,0,74,114,
3,3472324,Note_off_c,0,61,0,
3,3472569,Control_c,0,74,115,
3,3473049,Control_c,0,74,115,
3,3473529,Control_c,0,74,115,
3,3474009,Control_c,0,74,115,
3,3474489,Control_c,0,74,115,
3,3474969,Control_c,0,74,115,
3,3475449,Control_c,0,74,115,
3,3475929,Control_c,0,74,115,
3,3476409,Control_c,0,74,115,
3,3476889,Control_c,0,74,115,
3,3477369,Control_c,0,74,115,
3,3477849,Control_c,0,74,116,
3,3478329,Control_c,0,74,116,
3,3478809,Control_c,0,74,116,
3,3479040,Note_off_c,0,63,0,
3,3479040,Note_on_c,0,66,41,
3,3479289,Control_c,0,74,116,
3,3479769,Control_c,0,74,116,
3,3480249,Control_c,0,74,116,
3,3480729,Control_c,0,74,116,
3,3481209,Control_c,0,74,116,
3,3481689,Control_c,0,74,116,
3,3482169,Control_c,0,74,116,
3,3482649,Control_c,0,74,116,
3,3483129,Control_c,0,74,116,
3,3483609,Control_c,0,74,117,
3,3484089,Control_c,0,74,117,
3,3484569,Control_c,0,74,117,
3,3485049,Control_c,0,74,117,
3,3485529,Control_c,0,74,117,
3,3486009,Control_c,0,74,117,
3,3486489,Control_c,0,74,117,
3,3486720,Note_off_c,0,66,0,
3,3486720,Note_on_c,0,59,50,
3,3486969,Control_c,0,74,117,
3,3487449,Control_c,0,74,117,
3,3487929,Control_c,0,74,117,
3,3488409,Control_c,0,74,117,
3,3488889,Control_c,0,74,117,
3,3489369,Control_c,0,74,118,
3,3489849,Control_c,0,74,118,
3,3490329,Control_c,0,74,118,
3,3490809,Control_c,0,74,118,
3,3491289,Control_c,0,74,118,
3,3491769,Control_c,0,74,118,
3,3492249,Control_c,0,74,118,
3,3492729,Control_c,0,74,118,
3,3493209,Control_c,0,74,118,
3,3493689,Control_c,0,74,118,
3,3494169,Control_c,0,74,118,
3,3494400,Note_off_c,0,59,0,
3,3494400,Note_on_c,0,61,40,
3,3494649,Control_c,0,74,118,
3,3495129,Control_c,0,74,119,
3,3495609,Control_c,0,74,119,
3,3496089,Control_c,0,74,119,
3,3496569,Control_c,0,74,119,
3,3497049,Control_c,0,74,119,
3,3497529,Control_c,0,74,119,
3,3498009,Control_c,0,74,119,
3,3498489,Control_c,0,74,119,
3,3498969,Control_c,0,74,119,
3,3499449,Control_c,0,74,119,
3,3499929,Control_c,0,74,119,
3,3500409,Control_c,0,74,119,
3,3500889,Control_c,0,74,120,
3,3501369,Control_c,0,74,120,
3,3501849,Control_c,0,74,120,
3,3502080,Note_off_c,0,61,0,
3,3502080,Note_on_c,0,63,34,
3,3502329,Control_c,0,74,120,
3,3502809,Control_c,0,74,120,
3,3503289,Control_c,0,74,120,
3,3503769,Control_c,0,74,120,
3,3504249,Control_c,0,74,120,
3,3504729,Control_c,0,74,120,
3,3505209,Control_c,0,74,120,
3,3505689,Control_c,0,74,120,
3,3506169,Control_c,0,74,121,
3,3506649,Control_c,0,74,121,
3,3507129,Control_c,0,74,121,
3,3507609,Control_c,0,74,121,
3,3508089,Control_c,0,74,121,
3,3508569,Control_c,0,74,121,
3,3509049,Control_c,0,74,121,
3,3509529,Control_c,0,74,121,
3,3509760,Note_off_c,0,63,0,
3,3509760,Note_on_c,0,66,32,
3,3510009,Control_c,0,74,121,
3,3510489,Control_c,0,74,121,
3,3510969,Control_c,0,74,121,
3,3511449,Control_c,0,74,121,
3,3511929,Control_c,0,74,122,
3,3512409,Control_c,0,74,122,
3,3512889,Control_c,0,74,122,
3,3513369,Control_c,0,74,122,
3,3513849,Control_c,0,74,122,
3,3514329,Control_c,0,74,122,
3,3514809,Control_c,0,74,122,
3,3515289,Control_c,0,74,122,
3,3515769,Control_c,0,74,122,
3,3516249,Control_c,0,74,122,
3,3516729,Control_c,0,74,122,
3,3517209,Control_c,0,74,122,
3,3517440,Note_off_c,0,47,0,
3,3517440,Note_off_c,0,66,0,
3,3517440,Note_on_c,0,54,26,
3,3517440,Note_on_c,0,66,44,
3,3517440,Control_c,0,74,123,
3,3517920,Control_c,0,74,122,
3,3518400,Control_c,0,74,122,
3,3518880,Control_c,0,74,122,
3,3519360,Control_c,0,74,122,
3,3519840,Control_c,0,74,122,
3,3520320,Control_c,0,74,122,
3,3520800,Control_c,0,74,122,
3,3521280,Control_c,0,74,122,
3,3521760,Control_c,0,74,122,
3,3522240,Control_c,0,74,122,
3,3522720,Control_c,0,74,122,
3,3523200,Control_c,0,74,122,
3,3523680,Control_c,0,74,122,
3,3524160,Control_c,0,74,122,
3,3524640,Control_c,0,74,122,
3,3525120,Note_on_c,0,68,18,
3,3525120,Control_c,0,74,122,
3,3525600,Control_c,0,74,122,
3,3526080,Control_c,0,74,122,
3,3526560,Control_c,0,74,122,
3,3527040,Control_c,0,74,122,
3,3527146,Note_off_c,0,66,0,
3,3527520,Control_c,0,74,122,
3,3528000,Control_c,0,74,122,
3,3528480,Control_c,0,74,122,
3,3528960,Control_c,0,74,122,
3,3529440,Control_c,0,74,122,
3,3529920,Control_c,0,74,122,
3,3530400,Control_c,0,74,122,
3,3530880,Control_c,0,74,122,
3,3531360,Control_c,0,74,122,
3,3531840,Control_c,0,74,122,
3,3532320,Control_c,0,74,122,
3,3532800,Note_on_c,0,70,38,
3,3532800,Control_c,0,74,122,
3,3533280,Control_c,0,74,122,
3,3533760,Control_c,0,74,122,
3,3533764,Note_off_c,0,68,0,
3,3534240,Control_c,0,74,122,
3,3534720,Control_c,0,74,122,
3,3535200,Control_c,0,74,122,
3,3535680,Control_c,0,74,122,
3,3536160,Control_c,0,74,122,
3,3536640,Control_c,0,74,122,
3,3537120,Control_c,0,74,122,
3,3537600,Control_c,0,74,122,
3,3538080,Control_c,0,74,122,
3,3538560,Control_c,0,74,122,
3,3539040,Control_c,0,74,122,
3,3539520,Control_c,0,74,122,
3,3540000,Control_c,0,74,122,
3,3540480,Note_off_c,0,70,0,
3,3540480,Note_on_c,0,73,41,
3,3540480,Control_c,0,74,122,
3,3540960,Control_c,0,74,122,
3,3541440,Control_c,0,74,122,
3,3541920,Control_c,0,74,122,
3,3542400,Control_c,0,74,122,
3,3542880,Control_c,0,74,122,
3,3543360,Control_c,0,74,122,
3,3543840,Control_c,0,74,122,
3,3544320,Control_c,0,74,122,
3,3544800,Control_c,0,74,122,
3,3545280,Control_c,0,74,122,
3,3545760,Control_c,0,74,122,
3,3546240,Control_c,0,74,122,
3,3546720,Control_c,0,74,122,
3,3547200,Control_c,0,74,122,
3,3547680,Control_c,0,74,122,
3,3548160,Note_off_c,0,73,0,
3,3548160,Note_on_c,0,66,50,
3,3548160,Control_c,0,74,122,
3,3548640,Control_c,0,74,122,
3,3549120,Control_c,0,74,122,
3,3549600,Control_c,0,74,122,
3,3550080,Control_c,0,74,122,
3,3550560,Control_c,0,74,122,
3,3551040,Control_c,0,74,122,
3,3551520,Control_c,0,74,122,
3,3552000,Control_c,0,74,122,
3,3552480,Control_c,0,74,122,
3,3552960,Control_c,0,74,122,
3,3553440,Control_c,0,74,122,
3,3553920,Control_c,0,74,122,
3,3554400,Control_c,0,74,122,
3,3554880,Control_c,0,74,122,
3,3555360,Control_c,0,74,122,
3,3555840,Note_off_c,0,66,0,
3,3555840,Note_on_c,0,68,40,
3,3555840,Control_c,0,74,122,
3,3556320,Control_c,0,74,122,
3,3556800,Control_c,0,74,122,
3,3557280,Control_c,0,74,122,
3,3557760,Control_c,0,74,122,
3,3558240,Control_c,0,74,122,
3,3558720,Control_c,0,74,122,
3,3559200,Control_c,0,74,122,
3,3559680,Control_c,0,74,122,
3,3560160,Control_c,0,74,122,
3,3560640,Control_c,0,74,122,
3,3561120,Control_c,0,74,122,
3,3561600,Control_c,0,74,122,
3,3562080,Control_c,0,74,122,
3,3562560,Control_c,0,74,122,
3,3563040,Control_c,0,74,122,
3,3563520,Note_off_c,0,68,0,
3,3563520,Note_on_c,0,70,34,
3,3563520,Control_c,0,74,122,
3,3564000,Control_c,0,74,122,
3,3564480,Control_c,0,74,122,
3,3564960,Control_c,0,74,122,
3,3565440,Control_c,0,74,122,
3,3565920,Control_c,0,74,122,
3,3566400,Control_c,0,74,122,
3,3566880,Control_c,0,74,122,
3,3567360,Control_c,0,74,122,
3,3567840,Control_c,0,74,122,
3,3568320,Control_c,0,74,122,
3,3568800,Control_c,0,74,122,
3,3569280,Control_c,0,74,122,
3,3569760,Control_c,0,74,122,
3,3570240,Control_c,0,74,122,
3,3570720,Control_c,0,74,122,
3,3571200,Note_off_c,0,70,0,
3,3571200,Note_on_c,0,73,32,
3,3571200,Control_c,0,74,122,
3,3571680,Control_c,0,74,122,
3,3572160,Control_c,0,74,122,
3,3572640,Control_c,0,74,122,
3,3573120,Control_c,0,74,122,
3,3573600,Control_c,0,74,122,
3,3574080,Control_c,0,74,122,
3,3574560,Control_c,0,74,122,
3,3575040,Control_c,0,74,122,
3,3575520,Control_c,0,74,122,
3,3576000,Control_c,0,74,122,
3,3576480,Control_c,0,74,122,
3,3576960,Control_c,0,74,122,
3,3577440,Control_c,0,74,122,
3,3577920,Control_c,0,74,122,
3,3578400,Control_c,0,74,122,
3,3578880,Note_off_c,0,54,0,
3,3578880,Note_off_c,0,73,0,
3,3578880,Note_on_c,0,52,26,
3,3578880,Note_on_c,0,64,44,
3,3578880,Control_c,0,74,122,
3,3579360,Control_c,0,74,122,
3,3579840,Control_c,0,74,122,
3,3580320,Control_c,0,74,122,
3,3580800,Control_c,0,74,122,
3,3581280,Control_c,0,74,122,
3,3581760,Control_c,0,74,122,
3,3582240,Control_c,0,74,122,
3,3582720,Control_c,0,74,122,
3,3583200,Control_c,0,74,122,
3,3583680,Control_c,0,74,122,
3,3584160,Control_c,0,74,122,
3,3584640,Control_c,0,74,122,
3,3585120,Control_c,0,74,122,
3,3585600,Control_c,0,74,122,
3,3586080,Control_c,0,74,122,
3,3586560,Note_on_c,0,66,18,
3,3586560,Control_c,0,74,122,
3,3587040,Control_c,0,74,122,
3,3587520,Control_c,0,74,122,
3,3588000,Control_c,0,74,122,
3,3588480,Control_c,0,74,122,
3,3588586,Note_off_c,0,64,0,
3,3588960,Control_c,0,74,122,
3,3589440,Control_c,0,74,122,
3,3589920,Control_c,0,74,122,
3,3590400,Control_c,0,74,122,
3,3590880,Control_c,0,74,122,
3,3591360,Control_c,0,74,122,
3,3591840,Control_c,0,74,122,
3,3592320,Control_c,0,74,122,
3,3592800,Control_c,0,74,122,
3,3593280,Control_c,0,74,122,
3,3593760,Control_c,0,74,122,
3,3594240,Note_on_c,0,68,38,
3,3594240,Control_c,0,74,122,
3,3594720,Control_c,0,74,122,
3,3595200,Control_c,0,74,122,
3,3595204,Note_off_c,0,66,0,
3,3595680,Control_c,0,74,122,
3,3596160,Control_c,0,74,122,
3,3596640,Control_c,0,74,122,
3,3597120,Control_c,0,74,122,
3,3597600,Control_c,0,74,122,
3,3598080,Control_c,0,74,122,
3,3598560,Control_c,0,74,122,
3,3599040,Control_c,0,74,122,
3,3599520,Control_c,0,74,122,
3,3600000,Control_c,0,74,122,
3,3600480,Control_c,0,74,122,
3,3600960,Control_c,0,74,122,
3,3601440,Control_c,0,74,122,
3,3601920,Note_off_c,0,68,0,
3,3601920,Note_on_c,0,71,41,
3,3601920,Control_c,0,74,122,
3,3602400,Control_c,0,74,122,
3,3602880,Control_c,0,74,122,
3,3603360,Control_c,0,74,122,
3,3603840,Control_c,0,74,122,
3,3604320,Control_c,0,74,122,
3,3604800,Control_c,0,74,122,
3,3605280,Control_c,0,74,122,
3,3605760,Control_c,0,74,122,
3,3606240,Control_c,0,74,122,
3,3606720,Control_c,0,74,122,
3,3607200,Control_c,0,74,122,
3,3607680,Control_c,0,74,122,
3,3608160,Control_c,0,74,122,
3,3608640,Control_c,0,74,122,
3,3609120,Control_c,0,74,122,
3,3609600,Note_off_c,0,71,0,
3,3609600,Note_on_c,0,64,50,
3,3609600,Control_c,0,74,122,
3,3610080,Control_c,0,74,122,
3,3610560,Control_c,0,74,122,
3,3611040,Control_c,0,74,122,
3,3611520,Control_c,0,74,122,
3,3612000,Control_c,0,74,122,
3,3612480,Control_c,0,74,122,
3,3612960,Control_c,0,74,122,
3,3613440,Control_c,0,74,122,
3,3613920,Control_c,0,74,122,
3,3614400,Control_c,0,74,122,
3,3614880,Control_c,0,74,122,
3,3615360,Control_c,0,74,122,
3,3615840,Control_c,0,74,122,
3,3616320,Control_c,0,74,122,
3,3616800,Control_c,0,74,122,
3,3617280,Note_off_c,0,64,0,
3,3617280,Note_on_c,0,66,40,
3,3617280,Control_c,0,74,122,
3,3617760,Control_c,0,74,122,
3,3618240,Control_c,0,74,122,
3,3618720,Control_c,0,74,122,
3,3619200,Control_c,0,74,122,
3,3619680,Control_c,0,74,122,
3,3620160,Control_c,0,74,122,
3,3620640,Control_c,0,74,122,
3,3621120,Control_c,0,74,122,
3,3621600,Control_c,0,74,122,
3,3622080,Control_c,0,74,122,
3,3622560,Control_c,0,74,122,
3,3623040,Control_c,0,74,122,
3,3623520,Control_c,0,74,122,
3,3624000,Control_c,0,74,122,
3,3624480,Control_c,0,74,122,
3,3624960,Note_off_c,0,66,0,
3,3624960,Note_on_c,0,68,34,
3,3624960,Control_c,0,74,122,
3,3625440,Control_c,0,74,122,
3,3625920,Control_c,0,74,122,
3,3626400,Control_c,0,74,122,
3,3626880,Control_c,0,74,122,
3,3627360,Control_c,0,74,122,
3,3627840,Control_c,0,74,122,
3,3628320,Control_c,0,74,122,
3,3628800,Control_c,0,74,122,
3,3629280,Control_c,0,74,122,
3,3629760,Control_c,0,74,122,
3,3630240,Control_c,0,74,122,
3,3630720,Control_c,0,74,122,
3,3631200,Control_c,0,74,122,
3,3631680,Control_c,0,74,122,
3,3632160,Control_c,0,74,122,
3,3632640,Note_off_c,0,68,0,
3,3632640,Note_on_c,0,71,32,
3,3632640,Control_c,0,74,122,
3,3633120,Control_c,0,74,122,
3,3633600,Control_c,0,74,122,
3,3634080,Control_c,0,74,122,
3,3634560,Control_c,0,74,122,
3,3635040,Control_c,0,74,122,
3,3635520,Control_c,0,74,122,
3,3636000,Control_c,0,74,122,
3,3636480,Control_c,0,74,122,
3,3636960,Control_c,0,74,122,
3,3637440,Control_c,0,74,122,
3,3637920,Control_c,0,74,122,
3,3638400,Control_c,0,74,122,
3,3638880,Control_c,0,74,122,
3,3639360,Control_c,0,74,122,
3,3639840,Control_c,0,74,122,
3,3640320,Note_off_c,0,52,0,
3,3640320,Note_off_c,0,71,0,
3,3640320,Note_on_c,0,47,26,
3,3640320,Note_on_c,0,59,44,
3,3640320,Control_c,0,74,122,
3,3640800,Control_c,0,74,121,
3,3641280,Control_c,0,74,121,
3,3641760,Control_c,0,74,121,
3,3642240,Control_c,0,74,121,
3,3642720,Control_c,0,74,121,
3,3643200,Control_c,0,74,120,
3,3643680,Control_c,0,74,120,
3,3644160,Control_c,0,74,120,
3,3644640,Control_c,0,74,120,
3,3645120,Control_c,0,74,120,
3,3645600,Control_c,0,74,119,
3,3646080,Control_c,0,74,119,
3,3646560,Control_c,0,74,119,
3,3647040,Control_c,0,74,119,
3,3647520,Control_c,0,74,119,
3,3648000,Note_on_c,0,61,18,
3,3648000,Control_c,0,74,119,
3,3648480,Control_c,0,74,118,
3,3648960,Control_c,0,74,118,
3,3649440,Control_c,0,74,118,
3,3649920,Control_c,0,74,118,
3,3650026,Note_off_c,0,59,0,
3,3650400,Control_c,0,74,118,
3,3650880,Control_c,0,74,117,
3,3651360,Control_c,0,74,117,
3,3651840,Control_c,0,74,117,
3,3652320,Control_c,0,74,117,
3,3652800,Control_c,0,74,117,
3,3653280,Control_c,0,74,117,
3,3653760,Control_c,0,74,116,
3,3654240,Control_c,0,74,116,
3,3654720,Control_c,0,74,116,
3,3655200,Control_c,0,74,116,
3,3655680,Note_on_c,0,63,38,
3,3655680,Control_c,0,74,116,
3,3656160,Control_c,0,74,115,
3,3656640,Control_c,0,74,115,
3,3656644,Note_off_c,0,61,0,
3,3657120,Control_c,0,74,115,
3,3657600,Control_c,0,74,115,
3,3658080,Control_c,0,74,115,
3,3658560,Control_c,0,74,115,
3,3659040,Control_c,0,74,114,
3,3659520,Control_c,0,74,114,
3,3660000,Control_c,0,74,114,
3,3660480,Control_c,0,74,114,
3,3660960,Control_c,0,74,114,
3,3661440,Control_c,0,74,113,
3,3661920,Control_c,0,74,113,
3,3662400,Control_c,0,74,113,
3,3662880,Control_c,0,74,113,
3,3663360,Note_off_c,0,63,0,
3,3663360,Note_on_c,0,66,41,
3,3663360,Control_c,0,74,113,
3,3663840,Control_c,0,74,113,
3,3664320,Control_c,0,74,112,
3,3664800,Control_c,0,74,112,
3,3665280,Control_c,0,74,112,
3,3665760,Control_c,0,74,112,
3,3666240,Control_c,0,74,112,
3,3666720,Control_c,0,74,111,
3,3667200,Control_c,0,74,111,
3,3667680,Control_c,0,74,111,
3,3668160,Control_c,0,74,111,
3,3668640,Control_c,0,74,111,
3,3669120,Control_c,0,74,111,
3,3669600,Control_c,0,74,110,
3,3670080,Control_c,0,74,110,
3,3670560,Control_c,0,74,110,
3,3671040,Note_off_c,0,66,0,
3,3671040,Note_on_c,0,59,50,
3,3671040,Control_c,0,74,110,
3,3671520,Control_c,0,74,110,
3,3672000,Control_c,0,74,109,
3,3672480,Control_c,0,74,109,
3,3672960,Control_c,0,74,109,
3,3673440,Control_c,0,74,109,
3,3673920,Control_c,0,74,109,
3,3674400,Control_c,0,74,109,
3,3674880,Control_c,0,74,108,
3,3675360,Control_c,0,74,108,
3,3675840,Control_c,0,74,108,
3,3676320,Control_c,0,74,108,
3,3676800,Control_c,0,74,108,
3,3677280,Control_c,0,74,107,
3,3677760,Control_c,0,74,107,
3,3678240,Control_c,0,74,107,
3,3678720,Note_off_c,0,59,0,
3,3678720,Note_on_c,0,61,40,
3,3678720,Control_c,0,74,107,
3,3679200,Control_c,0,74,107,
3,3679680,Control_c,0,74,107,
3,3680160,Control_c,0,74,106,
3,3680640,Control_c,0,74,106,
3,3681120,Control_c,0,74,106,
3,3681600,Control_c,0,74,106,
3,3682080,Control_c,0,74,106,
3,3682560,Control_c,0,74,105,
3,3683040,Control_c,0,74,105,
3,3683520,Control_c,0,74,105,
3,3684000,Control_c,0,74,105,
3,3684480,Control_c,0,74,105,
3,3684960,Control_c,0,74,105,
3,3685440,Control_c,0,74,104,
3,3685920,Control_c,0,74,104,
3,3686400,Note_off_c,0,61,0,
3,3686400,Note_on_c,0,63,34,
3,3686400,Control_c,0,74,104,
3,3686880,Control_c,0,74,104,
3,3687360,Control_c,0,74,104,
3,3687840,Control_c,0,74,103,
3,3688320,Control_c,0,74,103,
3,3688800,Control_c,0,74,103,
3,3689280,Control_c,0,74,103,
3,3689760,Control_c,0,74,103,
3,3690240,Control_c,0,74,103,
3,3690720,Control_c,0,74,102,
3,3691200,Control_c,0,74,102,
3,3691680,Control_c,0,74,102,
3,3692160,Control_c,0,74,102,
3,3692640,Control_c,0,74,102,
3,3693120,Control_c,0,74,101,
3,3693600,Control_c,0,74,101,
3,3694080,Note_off_c,0,63,0,
3,3694080,Note_on_c,0,66,32,
3,3694080,Control_c,0,74,101,
3,3694560,Control_c,0,74,101,
3,3695040,Control_c,0,74,101,
3,3695520,Control_c,0,74,100,
3,3696000,Control_c,0,74,100,
3,3696480,Control_c,0,74,100,
3,3696960,Control_c,0,74,100,
3,3697440,Control_c,0,74,100,
3,3697920,Control_c,0,74,100,
3,3698400,Control_c,0,74,99,
3,3698880,Control_c,0,74,99,
3,3699360,Control_c,0,74,99,
3,3699840,Control_c,0,74,99,
3,3700320,Control_c,0,74,99,
3,3700800,Control_c,0,74,98,
3,3701280,Control_c,0,74,98,
3,3701760,Note_off_c,0,47,0,
3,3701760,Note_off_c,0,66,0,
3,3701760,Note_on_c,0,47,26,
3,3701760,Note_on_c,0,59,44,
3,3701760,Control_c,0,74,98,
3,3702240,Control_c,0,74,98,
3,3702720,Control_c,0,74,98,
3,3703200,Control_c,0,74,98,
3,3703680,Control_c,0,74,97,
3,3704160,Control_c,0,74,97,
3,3704640,Control_c,0,74,97,
3,3705120,Control_c,0,74,97,
3,3705600,Control_c,0,74,97,
3,3706080,Control_c,0,74,96,
3,3706560,Control_c,0,74,96,
3,3707040,Control_c,0,74,96,
3,3707520,Control_c,0,74,96,
3,3708000,Control_c,0,74,96,
3,3708480,Control_c,0,74,96,
3,3708960,Control_c,0,74,95,
3,3709440,Note_on_c,0,61,18,
3,3709440,Control_c,0,74,95,
3,3709920,Control_c,0,74,95,
3,3710400,Control_c,0,74,95,
3,3710880,Control_c,0,74,95,
3,3711360,Control_c,0,74,94,
3,3711466,Note_off_c,0,59,0,
3,3711840,Control_c,0,74,94,
3,3712320,Control_c,0,74,94,
3,3712800,Control_c,0,74,94,
3,3713280,Control_c,0,74,94,
3,3713760,Control_c,0,74,94,
3,3714240,Control_c,0,74,93,
3,3714720,Control_c,0,74,93,
3,3715200,Control_c,0,74,93,
3,3715680,Control_c,0,74,93,
3,3716160,Control_c,0,74,93,
3,3716640,Control_c,0,74,92,
3,3717120,Note_on_c,0,63,38,
3,3717120,Control_c,0,74,92,
3,3717600,Control_c,0,74,92,
3,3718080,Control_c,0,74,92,
3,3718084,Note_off_c,0,61,0,
3,3718560,Control_c,0,74,92,
3,3719040,Control_c,0,74,92,
3,3719520,Control_c,0,74,91,
3,3720000,Control_c,0,74,91,
3,3720480,Control_c,0,74,91,
3,3720960,Control_c,0,74,91,
3,3721440,Control_c,0,74,91,
3,3721920,Control_c,0,74,90,
3,3722400,Control_c,0,74,90,
3,3722880,Control_c,0,74,90,
3,3723360,Control_c,0,74,90,
3,3723840,Control_c,0,74,90,
3,3724320,Control_c,0,74,90,
3,3724800,Note_off_c,0,63,0,
3,3724800,Note_on_c,0,66,41,
3,3724800,Control_c,0,74,89,
3,3725280,Control_c,0,74,89,
3,3725760,Control_c,0,74,89,
3,3726240,Control_c,0,74,89,
3,3726720,Control_c,0,74,89,
3,3727200,Control_c,0,74,88,
3,3727680,Control_c,0,74,88,
3,3728160,Control_c,0,74,88,
3,3728640,Control_c,0,74,88,
3,3729120,Control_c,0,74,88,
3,3729600,Control_c,0,74,88,
3,3730080,Control_c,0,74,87,
3,3730560,Control_c,0,74,87,
3,3731040,Control_c,0,74,87,
3,3731520,Control_c,0,74,87,
3,3732000,Control_c,0,74,87,
3,3732480,Note_off_c,0,66,0,
3,3732480,Note_on_c,0,59,50,
3,3732480,Control_c,0,74,86,
3,3732960,Control_c,0,74,86,
3,3733440,Control_c,0,74,86,
3,3733920,Control_c,0,74,86,
3,3734400,Control_c,0,74,86,
3,3734880,Control_c,0,74,86,
3,3735360,Control_c,0,74,85,
3,3735840,Control_c,0,74,85,
3,3736320,Control_c,0,74,85,
3,3736800,Control_c,0,74,85,
3,3737280,Control_c,0,74,85,
3,3737760,Control_c,0,74,84,
3,3738240,Control_c,0,74,84,
3,3738720,Control_c,0,74,84,
3,3739200,Control_c,0,74,84,
3,3739680,Control_c,0,74,84,
3,3740160,Note_off_c,0,59,0,
3,3740160,Note_on_c,0,61,40,
3,3740160,Control_c,0,74,84,
3,3747840,Note_off_c,0,61,0,
3,3747840,Note_on_c,0,63,34,
3,3755520,Note_off_c,0,63,0,
3,3755520,Note_on_c,0,66,32,
3,3763200,Note_off_c,0,47,0,
3,3763200,Note_off_c,0,66,0,
3,3763200,Note_on_c,0,52,66,
3,3763200,Note_on_c,0,64,50,
3,3763200,Control_c,0,71,1,
3,3763200,Control_c,0,74,84,
3,3763200,Control_c,0,74,32,
3,3765411,Control_c,0,71,1,
3,3765891,Control_c,0,71,1,
3,3766371,Control_c,0,71,2,
3,3766851,Control_c,0,71,3,
3,3767331,Control_c,0,71,3,
3,3767811,Control_c,0,71,4,
3,3768291,Control_c,0,71,5,
3,3768771,Control_c,0,71,6,
3,3769251,Control_c,0,71,6,
3,3769412,Control_c,0,71,7,
3,3770880,Note_off_c,0,64,0,
3,3770880,Note_on_c,0,66,55,
3,3778560,Note_off_c,0,66,0,
3,3778560,Note_on_c,0,68,15,
3,3782977,Control_c,0,71,7,
3,3783457,Control_c,0,71,6,
3,3783937,Control_c,0,71,6,
3,3784417,Control_c,0,71,6,
3,3784897,Control_c,0,71,6,
3,3785377,Control_c,0,71,6,
3,3785857,Control_c,0,71,6,
3,3786240,Note_off_c,0,68,0,
3,3786240,Note_on_c,0,71,43,
3,3786337,Control_c,0,71,6,
3,3786817,Control_c,0,71,6,
3,3787297,Control_c,0,71,6,
3,3787777,Control_c,0,71,6,
3,3788257,Control_c,0,71,6,
3,3788737,Control_c,0,71,6,
3,3789217,Control_c,0,71,6,
3,3789697,Control_c,0,71,6,
3,3790177,Control_c,0,71,6,
3,3790657,Control_c,0,71,6,
3,3791137,Control_c,0,71,6,
3,3791617,Control_c,0,71,6,
3,3792097,Control_c,0,71,6,
3,3792577,Control_c,0,71,6,
3,3793057,Control_c,0,71,6,
3,3793537,Control_c,0,71,6,
3,3793920,Note_off_c,0,71,0,
3,3793920,Note_on_c,0,64,52,
3,3794009,Control_c,0,74,32,
3,3794017,Control_c,0,71,6,
3,3794489,Control_c,0,74,32,
3,3794497,Control_c,0,71,6,
3,3794969,Control_c,0,74,32,
3,3794977,Control_c,0,71,6,
3,3795449,Control_c,0,74,32,
3,3795457,Control_c,0,71,6,
3,3795929,Control_c,0,74,32,
3,3795937,Control_c,0,71,6,
3,3796409,Control_c,0,74,32,
3,3796417,Control_c,0,71,6,
3,3796889,Control_c,0,74,32,
3,3796897,Control_c,0,71,6,
3,3797369,Control_c,0,74,32,
3,3797377,Control_c,0,71,6,
3,3797849,Control_c,0,74,32,
3,3797857,Control_c,0,71,6,
3,3798329,Control_c,0,74,32,
3,3798337,Control_c,0,71,6,
3,3798809,Control_c,0,74,32,
3,3798817,Control_c,0,71,6,
3,3799289,Control_c,0,74,32,
3,3799297,Control_c,0,71,6,
3,3799769,Control_c,0,74,32,
3,3799777,Control_c,0,71,6,
3,3800249,Control_c,0,74,32,
3,3800257,Control_c,0,71,6,
3,3800729,Control_c,0,74,32,
3,3800737,Control_c,0,71,6,
3,3801209,Control_c,0,74,32,
3,3801217,Control_c,0,71,6,
3,3801600,Note_off_c,0,64,0,
3,3801600,Note_on_c,0,66,56,
3,3801689,Control_c,0,74,32,
3,3801697,Control_c,0,71,6,
3,3802169,Control_c,0,74,32,
3,3802177,Control_c,0,71,6,
3,3802649,Control_c,0,74,32,
3,3802657,Control_c,0,71,6,
3,3803129,Control_c,0,74,32,
3,3803137,Control_c,0,71,6,
3,3803609,Control_c,0,74,32,
3,3803617,Control_c,0,71,6,
3,3804089,Control_c,0,74,32,
3,3804097,Control_c,0,71,6,
3,3804569,Control_c,0,74,32,
3,3804577,Control_c,0,71,6,
3,3805049,Control_c,0,74,32,
3,3805057,Control_c,0,71,6,
3,3805529,Control_c,0,74,32,
3,3805537,Control_c,0,71,6,
3,3806009,Control_c,0,74,32,
3,3806017,Control_c,0,71,6,
3,3806489,Control_c,0,74,32,
3,3806497,Control_c,0,71,6,
3,3806969,Control_c,0,74,32,
3,3806977,Control_c,0,71,6,
3,3807449,Control_c,0,74,32,
3,3807457,Control_c,0,71,6,
3,3807929,Control_c,0,74,32,
3,3807937,Control_c,0,71,6,
3,3808409,Control_c,0,74,33,
3,3808417,Control_c,0,71,6,
3,3808889,Control_c,0,74,33,
3,3808897,Control_c,0,71,6,
3,3809280,Note_off_c,0,66,0,
3,3809280,Note_on_c,0,68,16,
3,3809369,Control_c,0,74,33,
3,3809377,Control_c,0,71,6,
3,3809849,Control_c,0,74,33,
3,3809857,Control_c,0,71,6,
3,3810329,Control_c,0,74,33,
3,3810337,Control_c,0,71,6,
3,3810809,Control_c,0,74,33,
3,3810817,Control_c,0,71,6,
3,3811289,Control_c,0,74,33,
3,3811297,Control_c,0,71,6,
3,3811769,Control_c,0,74,33,
3,3811777,Control_c,0,71,6,
3,3812249,Control_c,0,74,33,
3,3812257,Control_c,0,71,6,
3,3812729,Control_c,0,74,33,
3,3812737,Control_c,0,71,6,
3,3813209,Control_c,0,74,33,
3,3813217,Control_c,0,71,5,
3,3813689,Control_c,0,74,33,
3,3813697,Control_c,0,71,5,
3,3814169,Control_c,0,74,33,
3,3814177,Control_c,0,71,5,
3,3814649,Control_c,0,74,33,
3,3814657,Control_c,0,71,5,
3,3815129,Control_c,0,74,33,
3,3815137,Control_c,0,71,5,
3,3815609,Control_c,0,74,33,
3,3815617,Control_c,0,71,5,
3,3816089,Control_c,0,74,33,
3,3816097,Control_c,0,71,5,
3,3816569,Control_c,0,74,33,
3,3816577,Control_c,0,71,5,
3,3816960,Note_off_c,0,68,0,
3,3816960,Note_on_c,0,73,54,
3,3817049,Control_c,0,74,33,
3,3817057,Control_c,0,71,5,
3,3817529,Control_c,0,74,33,
3,3817537,Control_c,0,71,5,
3,3818009,Control_c,0,74,33,
3,3818017,Control_c,0,71,5,
3,3818489,Control_c,0,74,33,
3,3818497,Control_c,0,71,5,
3,3818969,Control_c,0,74,33,
3,3818977,Control_c,0,71,5,
3,3819449,Control_c,0,74,33,
3,3819457,Control_c,0,71,5,
3,3819929,Control_c,0,74,33,
3,3819937,Control_c,0,71,5,
3,3820409,Control_c,0,74,33,
3,3820417,Control_c,0,71,5,
3,3820889,Control_c,0,74,33,
3,3820897,Control_c,0,71,5,
3,3821369,Control_c,0,74,33,
3,3821377,Control_c,0,71,5,
3,3821849,Control_c,0,74,33,
3,3821857,Control_c,0,71,5,
3,3822329,Control_c,0,74,34,
3,3822337,Control_c,0,71,5,
3,3822809,Control_c,0,74,34,
3,3822817,Control_c,0,71,5,
3,3823289,Control_c,0,74,34,
3,3823297,Control_c,0,71,5,
3,3823769,Control_c,0,74,34,
3,3823777,Control_c,0,71,5,
3,3824249,Control_c,0,74,34,
3,3824257,Control_c,0,71,5,
3,3824640,Note_off_c,0,73,0,
3,3824640,Note_on_c,0,64,47,
3,3824729,Control_c,0,74,34,
3,3824737,Control_c,0,71,5,
3,3825209,Control_c,0,74,34,
3,3825217,Control_c,0,71,5,
3,3825689,Control_c,0,74,34,
3,3825697,Control_c,0,71,5,
3,3826169,Control_c,0,74,34,
3,3826177,Control_c,0,71,5,
3,3826649,Control_c,0,74,34,
3,3826657,Control_c,0,71,5,
3,3827129,Control_c,0,74,34,
3,3827137,Control_c,0,71,5,
3,3827609,Control_c,0,74,34,
3,3827617,Control_c,0,71,5,
3,3828089,Control_c,0,74,34,
3,3828097,Control_c,0,71,5,
3,3828569,Control_c,0,74,34,
3,3828577,Control_c,0,71,5,
3,3829049,Control_c,0,74,34,
3,3829057,Control_c,0,71,5,
3,3829529,Control_c,0,74,34,
3,3829537,Control_c,0,71,5,
3,3830009,Control_c,0,74,34,
3,3830017,Control_c,0,71,5,
3,3830489,Control_c,0,74,34,
3,3830497,Control_c,0,71,5,
3,3830969,Control_c,0,74,34,
3,3830977,Control_c,0,71,5,
3,3831449,Control_c,0,74,34,
3,3831457,Control_c,0,71,5,
3,3831929,Control_c,0,74,34,
3,3831937,Control_c,0,71,5,
3,3832320,Note_off_c,0,64,0,
3,3832320,Note_on_c,0,66,48,
3,3832409,Control_c,0,74,34,
3,3832417,Control_c,0,71,5,
3,3832889,Control_c,0,74,34,
3,3832897,Control_c,0,71,5,
3,3833369,Control_c,0,74,34,
3,3833377,Control_c,0,71,5,
3,3833849,Control_c,0,74,34,
3,3833857,Control_c,0,71,5,
3,3834329,Control_c,0,74,34,
3,3834337,Control_c,0,71,5,
3,3834809,Control_c,0,74,34,
3,3834817,Control_c,0,71,5,
3,3835289,Control_c,0,74,34,
3,3835297,Control_c,0,71,5,
3,3835769,Control_c,0,74,34,
3,3835777,Control_c,0,71,5,
3,3836249,Control_c,0,74,35,
3,3836257,Control_c,0,71,5,
3,3836729,Control_c,0,74,35,
3,3836737,Control_c,0,71,5,
3,3837209,Control_c,0,74,35,
3,3837217,Control_c,0,71,5,
3,3837689,Control_c,0,74,35,
3,3837697,Control_c,0,71,5,
3,3838169,Control_c,0,74,35,
3,3838177,Control_c,0,71,5,
3,3838649,Control_c,0,74,35,
3,3838657,Control_c,0,71,5,
3,3839129,Control_c,0,74,35,
3,3839137,Control_c,0,71,5,
3,3839609,Control_c,0,74,35,
3,3839617,Control_c,0,71,5,
3,3840000,Note_off_c,0,66,0,
3,3840000,Note_on_c,0,68,30,
3,3840089,Control_c,0,74,35,
3,3840097,Control_c,0,71,5,
3,3840569,Control_c,0,74,35,
3,3840577,Control_c,0,71,5,
3,3841049,Control_c,0,74,35,
3,3841057,Control_c,0,71,5,
3,3841529,Control_c,0,74,35,
3,3841537,Control_c,0,71,5,
3,3842009,Control_c,0,74,35,
3,3842017,Control_c,0,71,5,
3,3842489,Control_c,0,74,35,
3,3842497,Control_c,0,71,5,
3,3842969,Control_c,0,74,35,
3,3842977,Control_c,0,71,5,
3,3843449,Control_c,0,74,35,
3,3843457,Control_c,0,71,4,
3,3843929,Control_c,0,74,35,
3,3843937,Control_c,0,71,4,
3,3844409,Control_c,0,74,35,
3,3844417,Control_c,0,71,4,
3,3844889,Control_c,0,74,35,
3,3844897,Control_c,0,71,4,
3,3845369,Control_c,0,74,35,
3,3845377,Control_c,0,71,4,
3,3845849,Control_c,0,74,35,
3,3845857,Control_c,0,71,4,
3,3846329,Control_c,0,74,35,
3,3846337,Control_c,0,71,4,
3,3846809,Control_c,0,74,35,
3,3846817,Control_c,0,71,4,
3,3847289,Control_c,0,74,35,
3,3847297,Control_c,0,71,4,
3,3847680,Note_off_c,0,68,0,
3,3847680,Note_on_c,0,71,38,
3,3847769,Control_c,0,74,35,
3,3847777,Control_c,0,71,4,
3,3848249,Control_c,0,74,35,
3,3848257,Control_c,0,71,4,
3,3848729,Control_c,0,74,35,
3,3848737,Control_c,0,71,4,
3,3849209,Control_c,0,74,35,
3,3849217,Control_c,0,71,4,
3,3849689,Control_c,0,74,35,
3,3849697,Control_c,0,71,4,
3,3850169,Control_c,0,74,36,
3,3850177,Control_c,0,71,4,
3,3850649,Control_c,0,74,36,
3,3850657,Control_c,0,71,4,
3,3851129,Control_c,0,74,36,
3,3851137,Control_c,0,71,4,
3,3851609,Control_c,0,74,36,
3,3851617,Control_c,0,71,4,
3,3852089,Control_c,0,74,36,
3,3852097,Control_c,0,71,4,
3,3852569,Control_c,0,74,36,
3,3852577,Control_c,0,71,4,
3,3853049,Control_c,0,74,36,
3,3853057,Control_c,0,71,4,
3,3853529,Control_c,0,74,36,
3,3853537,Control_c,0,71,4,
3,3854009,Control_c,0,74,36,
3,3854017,Control_c,0,71,4,
3,3854489,Control_c,0,74,36,
3,3854497,Control_c,0,71,4,
3,3854969,Control_c,0,74,36,
3,3854977,Control_c,0,71,4,
3,3855360,Note_off_c,0,71,0,
3,3855360,Note_on_c,0,64,58,
3,3855449,Control_c,0,74,36,
3,3855457,Control_c,0,71,4,
3,3855929,Control_c,0,74,36,
3,3855937,Control_c,0,71,4,
3,3856409,Control_c,0,74,36,
3,3856417,Control_c,0,71,4,
3,3856889,Control_c,0,74,36,
3,3856897,Control_c,0,71,4,
3,3857369,Control_c,0,74,36,
3,3857377,Control_c,0,71,4,
3,3857849,Control_c,0,74,36,
3,3857857,Control_c,0,71,4,
3,3858329,Control_c,0,74,36,
3,3858337,Control_c,0,71,4,
3,3858809,Control_c,0,74,36,
3,3858817,Control_c,0,71,4,
3,3859289,Control_c,0,74,36,
3,3859297,Control_c,0,71,4,
3,3859769,Control_c,0,74,36,
3,3859777,Control_c,0,71,4,
3,3860249,Control_c,0,74,36,
3,3860257,Control_c,0,71,4,
3,3860729,Control_c,0,74,36,
3,3860737,Control_c,0,71,4,
3,3861209,Control_c,0,74,36,
3,3861217,Control_c,0,71,4,
3,3861689,Control_c,0,74,36,
3,3861697,Control_c,0,71,4,
3,3862169,Control_c,0,74,36,
3,3862177,Control_c,0,71,4,
3,3862649,Control_c,0,74,36,
3,3862657,Control_c,0,71,4,
3,3863040,Note_off_c,0,64,0,
3,3863040,Note_on_c,0,66,62,
3,3863129,Control_c,0,74,36,
3,3863137,Control_c,0,71,4,
3,3863609,Control_c,0,74,36,
3,3863617,Control_c,0,71,4,
3,3864089,Control_c,0,74,37,
3,3864097,Control_c,0,71,4,
3,3864569,Control_c,0,74,37,
3,3864577,Control_c,0,71,4,
3,3865049,Control_c,0,74,37,
3,3865057,Control_c,0,71,4,
3,3865529,Control_c,0,74,37,
3,3865537,Control_c,0,71,4,
3,3866009,Control_c,0,74,37,
3,3866017,Control_c,0,71,4,
3,3866489,Control_c,0,74,37,
3,3866497,Control_c,0,71,4,
3,3866969,Control_c,0,74,37,
3,3866977,Control_c,0,71,4,
3,3867449,Control_c,0,74,37,
3,3867457,Control_c,0,71,4,
3,3867929,Control_c,0,74,37,
3,3867937,Control_c,0,71,4,
3,3868409,Control_c,0,74,37,
3,3868417,Control_c,0,71,4,
3,3868889,Control_c,0,74,37,
3,3868897,Control_c,0,71,4,
3,3869369,Control_c,0,74,37,
3,3869377,Control_c,0,71,4,
3,3869849,Control_c,0,74,37,
3,3869857,Control_c,0,71,4,
3,3870329,Control_c,0,74,37,
3,3870337,Control_c,0,71,4,
3,3870720,Note_off_c,0,66,0,
3,3870720,Note_on_c,0,68,43,
3,3870809,Control_c,0,74,37,
3,3870817,Control_c,0,71,4,
3,3871289,Control_c,0,74,37,
3,3871297,Control_c,0,71,4,
3,3871769,Control_c,0,74,37,
3,3871777,Control_c,0,71,4,
3,3872249,Control_c,0,74,37,
3,3872257,Control_c,0,71,4,
3,3872729,Control_c,0,74,37,
3,3872737,Control_c,0,71,4,
3,3873209,Control_c,0,74,37,
3,3873217,Control_c,0,71,4,
3,3873689,Control_c,0,74,37,
3,3873697,Control_c,0,71,3,
3,3874169,Control_c,0,74,37,
3,3874177,Control_c,0,71,3,
3,3874649,Control_c,0,74,37,
3,3874657,Control_c,0,71,3,
3,3875129,Control_c,0,74,37,
3,3875137,Control_c,0,71,3,
3,3875609,Control_c,0,74,37,
3,3875617,Control_c,0,71,3,
3,3876089,Control_c,0,74,37,
3,3876097,Control_c,0,71,3,
3,3876569,Control_c,0,74,37,
3,3876577,Control_c,0,71,3,
3,3877049,Control_c,0,74,37,
3,3877057,Control_c,0,71,3,
3,3877529,Control_c,0,74,37,
3,3877537,Control_c,0,71,3,
3,3878009,Control_c,0,74,38,
3,3878017,Control_c,0,71,3,
3,3878400,Note_off_c,0,68,0,
3,3878400,Note_on_c,0,71,36,
3,3878489,Control_c,0,74,38,
3,3878497,Control_c,0,71,3,
3,3878969,Control_c,0,74,38,
3,3878977,Control_c,0,71,3,
3,3879449,Control_c,0,74,38,
3,3879457,Control_c,0,71,3,
3,3879929,Control_c,0,74,38,
3,3879937,Control_c,0,71,3,
3,3880409,Control_c,0,74,38,
3,3880417,Control_c,0,71,3,
3,3880889,Control_c,0,74,38,
3,3880897,Control_c,0,71,3,
3,3881369,Control_c,0,74,38,
3,3881377,Control_c,0,71,3,
3,3881849,Control_c,0,74,38,
3,3881857,Control_c,0,71,3,
3,3882329,Control_c,0,74,38,
3,3882337,Control_c,0,71,3,
3,3882809,Control_c,0,74,38,
3,3882817,Control_c,0,71,3,
3,3883289,Control_c,0,74,38,
3,3883297,Control_c,0,71,3,
3,3883769,Control_c,0,74,38,
3,3883777,Control_c,0,71,3,
3,3884249,Control_c,0,74,38,
3,3884257,Control_c,0,71,3,
3,3884729,Control_c,0,74,38,
3,3884737,Control_c,0,71,3,
3,3885209,Control_c,0,74,38,
3,3885217,Control_c,0,71,3,
3,3885689,Control_c,0,74,38,
3,3885697,Control_c,0,71,3,
3,3886080,Note_off_c,0,52,0,
3,3886080,Note_off_c,0,71,0,
3,3886080,Note_on_c,0,54,64,
3,3886080,Note_on_c,0,66,45,
3,3886169,Control_c,0,74,38,
3,3886177,Control_c,0,71,3,
3,3886649,Control_c,0,74,38,
3,3886657,Control_c,0,71,3,
3,3887129,Control_c,0,74,38,
3,3887137,Control_c,0,71,3,
3,3887609,Control_c,0,74,38,
3,3887617,Control_c,0,71,3,
3,3888089,Control_c,0,74,38,
3,3888097,Control_c,0,71,3,
3,3888569,Control_c,0,74,38,
3,3888577,Control_c,0,71,3,
3,3889049,Control_c,0,74,38,
3,3889057,Control_c,0,71,3,
3,3889529,Control_c,0,74,38,
3,3889537,Control_c,0,71,3,
3,3890009,Control_c,0,74,38,
3,3890017,Control_c,0,71,3,
3,3890489,Control_c,0,74,38,
3,3890497,Control_c,0,71,3,
3,3890969,Control_c,0,74,38,
3,3890977,Control_c,0,71,3,
3,3891449,Control_c,0,74,38,
3,3891457,Control_c,0,71,3,
3,3891617,Control_c,0,74,39,
3,3891937,Control_c,0,71,3,
3,3892097,Control_c,0,74,39,
3,3892417,Control_c,0,71,3,
3,3892577,Control_c,0,74,39,
3,3892897,Control_c,0,71,3,
3,3893057,Control_c,0,74,39,
3,3893377,Control_c,0,71,3,
3,3893537,Control_c,0,74,39,
3,3893760,Note_off_c,0,66,0,
3,3893760,Note_on_c,0,68,48,
3,3893857,Control_c,0,71,3,
3,3894017,Control_c,0,74,39,
3,3894337,Control_c,0,71,3,
3,3894497,Control_c,0,74,39,
3,3894817,Control_c,0,71,3,
3,3894977,Control_c,0,74,39,
3,3895297,Control_c,0,71,3,
3,3895457,Control_c,0,74,39,
3,3895777,Control_c,0,71,3,
3,3895937,Control_c,0,74,39,
3,3896257,Control_c,0,71,3,
3,3896417,Control_c,0,74,39,
3,3896737,Control_c,0,71,3,
3,3896897,Control_c,0,74,39,
3,3897217,Control_c,0,71,3,
3,3897377,Control_c,0,74,39,
3,3897697,Control_c,0,71,3,
3,3897857,Control_c,0,74,39,
3,3898177,Control_c,0,71,3,
3,3898337,Control_c,0,74,39,
3,3898657,Control_c,0,71,3,
3,3898817,Control_c,0,74,39,
3,3899137,Control_c,0,71,3,
3,3899297,Control_c,0,74,39,
3,3899617,Control_c,0,71,3,
3,3899777,Control_c,0,74,39,
3,3900097,Control_c,0,71,3,
3,3900257,Control_c,0,74,39,
3,3900577,Control_c,0,71,3,
3,3900737,Control_c,0,74,39,
3,3901057,Control_c,0,71,3,
3,3901217,Control_c,0,74,39,
3,3901440,Note_off_c,0,68,0,
3,3901440,Note_on_c,0,69,36,
3,3901537,Control_c,0,71,3,
3,3901697,Control_c,0,74,39,
3,3902017,Control_c,0,71,3,
3,3902177,Control_c,0,74,39,
3,3902497,Control_c,0,71,3,
3,3902657,Control_c,0,74,39,
3,3902977,Control_c,0,71,3,
3,3903137,Control_c,0,74,39,
3,3903457,Control_c,0,71,3,
3,3903617,Control_c,0,74,39,
3,3903937,Control_c,0,71,2,
3,3904097,Control_c,0,74,39,
3,3904417,Control_c,0,71,2,
3,3904577,Control_c,0,74,39,
3,3904897,Control_c,0,71,2,
3,3905057,Control_c,0,74,39,
3,3905377,Control_c,0,71,2,
3,3905537,Control_c,0,74,39,
3,3905857,Control_c,0,71,2,
3,3906017,Control_c,0,74,39,
3,3906337,Control_c,0,71,2,
3,3906497,Control_c,0,74,39,
3,3906817,Control_c,0,71,2,
3,3906977,Control_c,0,74,39,
3,3907297,Control_c,0,71,2,
3,3907457,Control_c,0,74,39,
3,3907777,Control_c,0,71,2,
3,3907937,Control_c,0,74,39,
3,3908257,Control_c,0,71,2,
3,3908417,Control_c,0,74,39,
3,3908737,Control_c,0,71,2,
3,3908897,Control_c,0,74,39,
3,3909120,Note_off_c,0,69,0,
3,3909120,Note_on_c,0,71,45,
3,3909217,Control_c,0,71,2,
3,3909377,Control_c,0,74,40,
3,3909697,Control_c,0,71,2,
3,3909857,Control_c,0,74,40,
3,3910177,Control_c,0,71,2,
3,3910337,Control_c,0,74,40,
3,3910657,Control_c,0,71,2,
3,3910817,Control_c,0,74,40,
3,3911137,Control_c,0,71,2,
3,3911297,Control_c,0,74,40,
3,3911617,Control_c,0,71,2,
3,3911777,Control_c,0,74,40,
3,3912097,Control_c,0,71,2,
3,3912257,Control_c,0,74,40,
3,3912577,Control_c,0,71,2,
3,3912737,Control_c,0,74,40,
3,3913057,Control_c,0,71,2,
3,3913217,Control_c,0,74,40,
3,3913537,Control_c,0,71,2,
3,3913697,Control_c,0,74,40,
3,3914017,Control_c,0,71,2,
3,3914177,Control_c,0,74,40,
3,3914497,Control_c,0,71,2,
3,3914657,Control_c,0,74,40,
3,3914977,Control_c,0,71,2,
3,3915137,Control_c,0,74,40,
3,3915457,Control_c,0,71,2,
3,3915617,Control_c,0,74,40,
3,3915937,Control_c,0,71,2,
3,3916097,Control_c,0,74,40,
3,3916417,Control_c,0,71,2,
3,3916577,Control_c,0,74,40,
3,3916800,Note_off_c,0,71,0,
3,3916800,Note_on_c,0,66,65,
3,3916897,Control_c,0,71,2,
3,3917057,Control_c,0,74,40,
3,3917377,Control_c,0,71,2,
3,3917537,Control_c,0,74,40,
3,3917857,Control_c,0,71,2,
3,3918017,Control_c,0,74,40,
3,3918337,Control_c,0,71,2,
3,3918497,Control_c,0,74,40,
3,3918817,Control_c,0,71,2,
3,3918977,Control_c,0,74,40,
3,3919297,Control_c,0,71,2,
3,3919457,Control_c,0,74,40,
3,3919777,Control_c,0,71,2,
3,3919937,Control_c,0,74,40,
3,3920257,Control_c,0,71,2,
3,3920417,Control_c,0,74,40,
3,3920737,Control_c,0,71,2,
3,3920897,Control_c,0,74,40,
3,3921217,Control_c,0,71,2,
3,3921377,Control_c,0,74,40,
3,3921697,Control_c,0,71,2,
3,3921857,Control_c,0,74,40,
3,3922177,Control_c,0,71,2,
3,3922337,Control_c,0,74,40,
3,3922657,Control_c,0,71,2,
3,3922817,Control_c,0,74,40,
3,3923137,Control_c,0,71,2,
3,3923297,Control_c,0,74,40,
3,3923617,Control_c,0,71,2,
3,3923777,Control_c,0,74,40,
3,3924097,Control_c,0,71,2,
3,3924257,Control_c,0,74,40,
3,3924480,Note_off_c,0,66,0,
3,3924480,Note_on_c,0,68,34,
3,3924577,Control_c,0,71,2,
3,3924737,Control_c,0,74,40,
3,3925057,Control_c,0,71,2,
3,3925217,Control_c,0,74,40,
3,3925537,Control_c,0,71,2,
3,3925697,Control_c,0,74,40,
3,3926017,Control_c,0,71,2,
3,3926177,Control_c,0,74,40,
3,3926497,Control_c,0,71,2,
3,3926657,Control_c,0,74,41,
3,3926977,Control_c,0,71,2,
3,3927137,Control_c,0,74,41,
3,3927457,Control_c,0,71,2,
3,3927617,Control_c,0,74,41,
3,3927937,Control_c,0,71,2,
3,3928097,Control_c,0,74,41,
3,3928417,Control_c,0,71,2,
3,3928577,Control_c,0,74,41,
3,3928897,Control_c,0,71,2,
3,3929057,Control_c,0,74,41,
3,3929377,Control_c,0,71,2,
3,3929537,Control_c,0,74,41,
3,3929857,Control_c,0,71,2,
3,3930017,Control_c,0,74,41,
3,3930337,Control_c,0,71,2,
3,3930497,Control_c,0,74,41,
3,3930817,Control_c,0,71,2,
3,3930977,Control_c,0,74,41,
3,3931297,Control_c,0,71,2,
3,3931457,Control_c,0,74,41,
3,3931777,Control_c,0,71,2,
3,3931937,Control_c,0,74,41,
3,3932160,Note_off_c,0,68,0,
3,3932160,Note_on_c,0,69,46,
3,3932257,Control_c,0,71,2,
3,3932417,Control_c,0,74,41,
3,3932737,Control_c,0,71,2,
3,3932897,Control_c,0,74,41,
3,3933217,Control_c,0,71,2,
3,3933377,Control_c,0,74,41,
3,3933697,Control_c,0,71,2,
3,3933857,Control_c,0,74,41,
3,3934177,Control_c,0,71,1,
3,3934337,Control_c,0,74,41,
3,3934657,Control_c,0,71,1,
3,3934817,Control_c,0,74,41,
3,3935137,Control_c,0,71,1,
3,3935297,Control_c,0,74,41,
3,3935617,Control_c,0,71,1,
3,3935777,Control_c,0,74,41,
3,3936097,Control_c,0,71,1,
3,3936257,Control_c,0,74,41,
3,3936577,Control_c,0,71,1,
3,3936737,Control_c,0,74,41,
3,3937057,Control_c,0,71,1,
3,3937217,Control_c,0,74,41,
3,3937537,Control_c,0,71,1,
3,3937697,Control_c,0,74,41,
3,3938017,Control_c,0,71,1,
3,3938177,Control_c,0,74,41,
3,3938497,Control_c,0,71,1,
3,3938657,Control_c,0,74,41,
3,3938977,Control_c,0,71,1,
3,3939137,Control_c,0,74,41,
3,3939457,Control_c,0,71,1,
3,3939617,Control_c,0,74,41,
3,3939840,Note_off_c,0,69,0,
3,3939840,Note_on_c,0,73,56,
3,3939937,Control_c,0,71,1,
3,3940097,Control_c,0,74,41,
3,3940417,Control_c,0,71,1,
3,3940577,Control_c,0,74,41,
3,3940897,Control_c,0,71,1,
3,3941057,Control_c,0,74,41,
3,3941377,Control_c,0,71,1,
3,3941537,Control_c,0,74,41,
3,3941857,Control_c,0,71,1,
3,3942017,Control_c,0,74,41,
3,3942337,Control_c,0,71,1,
3,3942497,Control_c,0,74,41,
3,3942817,Control_c,0,71,1,
3,3942977,Control_c,0,74,41,
3,3943297,Control_c,0,71,1,
3,3943457,Control_c,0,74,41,
3,3943777,Control_c,0,71,1,
3,3943937,Control_c,0,74,42,
3,3944257,Control_c,0,71,1,
3,3944417,Control_c,0,74,42,
3,3944737,Control_c,0,71,1,
3,3944897,Control_c,0,74,42,
3,3945217,Control_c,0,71,1,
3,3945377,Control_c,0,74,42,
3,3945697,Control_c,0,71,1,
3,3945857,Control_c,0,74,42,
3,3946177,Control_c,0,71,1,
3,3946337,Control_c,0,74,42,
3,3946657,Control_c,0,71,1,
3,3946817,Control_c,0,74,42,
3,3947137,Control_c,0,71,1,
3,3947297,Control_c,0,74,42,
3,3947520,Note_off_c,0,73,0,
3,3947520,Note_on_c,0,66,56,
3,3947617,Control_c,0,71,1,
3,3947777,Control_c,0,74,42,
3,3948097,Control_c,0,71,1,
3,3948257,Control_c,0,74,42,
3,3948577,Control_c,0,71,1,
3,3948737,Control_c,0,74,42,
3,3949057,Control_c,0,71,1,
3,3949217,Control_c,0,74,42,
3,3949537,Control_c,0,71,1,
3,3949697,Control_c,0,74,42,
3,3950017,Control_c,0,71,1,
3,3950177,Control_c,0,74,42,
3,3950497,Control_c,0,71,1,
3,3950657,Control_c,0,74,42,
3,3950977,Control_c,0,71,1,
3,3951137,Control_c,0,74,42,
3,3951457,Control_c,0,71,1,
3,3951617,Control_c,0,74,42,
3,3951937,Control_c,0,71,1,
3,3952097,Control_c,0,74,42,
3,3952417,Control_c,0,71,1,
3,3952577,Control_c,0,74,42,
3,3952897,Control_c,0,71,1,
3,3953057,Control_c,0,74,42,
3,3953377,Control_c,0,71,1,
3,3953537,Control_c,0,74,42,
3,3953857,Control_c,0,71,1,
3,3954017,Control_c,0,74,42,
3,3954337,Control_c,0,71,1,
3,3954497,Control_c,0,74,42,
3,3954817,Control_c,0,71,1,
3,3954977,Control_c,0,74,42,
3,3955200,Note_off_c,0,66,0,
3,3955200,Note_on_c,0,68,48,
3,3955297,Control_c,0,71,1,
3,3955457,Control_c,0,74,42,
3,3955777,Control_c,0,71,1,
3,3955937,Control_c,0,74,42,
3,3956257,Control_c,0,71,1,
3,3956417,Control_c,0,74,42,
3,3956737,Control_c,0,71,1,
3,3956897,Control_c,0,74,42,
3,3957217,Control_c,0,71,1,
3,3957377,Control_c,0,74,42,
3,3957697,Control_c,0,71,1,
3,3957857,Control_c,0,74,42,
3,3958177,Control_c,0,71,1,
3,3958337,Control_c,0,74,42,
3,3958657,Control_c,0,71,1,
3,3958817,Control_c,0,74,42,
3,3959137,Control_c,0,71,1,
3,3959297,Control_c,0,74,42,
3,3959617,Control_c,0,71,1,
3,3959777,Control_c,0,74,42,
3,3960097,Control_c,0,71,1,
3,3960257,Control_c,0,74,42,
3,3960577,Control_c,0,71,1,
3,3960737,Control_c,0,74,42,
3,3961057,Control_c,0,71,1,
3,3961217,Control_c,0,74,43,
3,3961537,Control_c,0,71,1,
3,3961697,Control_c,0,74,43,
3,3962017,Control_c,0,71,1,
3,3962177,Control_c,0,74,43,
3,3962497,Control_c,0,71,1,
3,3962657,Control_c,0,74,43,
3,3962880,Note_off_c,0,68,0,
3,3962880,Note_on_c,0,69,58,
3,3962977,Control_c,0,71,1,
3,3963137,Control_c,0,74,43,
3,3963457,Control_c,0,71,1,
3,3963617,Control_c,0,74,43,
3,3963937,Control_c,0,71,1,
3,3964097,Control_c,0,74,43,
3,3964417,Control_c,0,71,0,
3,3964577,Control_c,0,74,43,
3,3964897,Control_c,0,71,0,
3,3965057,Control_c,0,74,43,
3,3965377,Control_c,0,71,0,
3,3965537,Control_c,0,74,43,
3,3965857,Control_c,0,71,0,
3,3966017,Control_c,0,74,43,
3,3966337,Control_c,0,71,0,
3,3966497,Control_c,0,74,43,
3,3966817,Control_c,0,71,0,
3,3966977,Control_c,0,74,43,
3,3967297,Control_c,0,71,0,
3,3967457,Control_c,0,74,43,
3,3967777,Control_c,0,71,0,
3,3967937,Control_c,0,74,43,
3,3968257,Control_c,0,71,0,
3,3968417,Control_c,0,74,43,
3,3968737,Control_c,0,71,0,
3,3968897,Control_c,0,74,43,
3,3969217,Control_c,0,71,0,
3,3969377,Control_c,0,74,43,
3,3969697,Control_c,0,71,0,
3,3969857,Control_c,0,74,43,
3,3970177,Control_c,0,71,0,
3,3970337,Control_c,0,74,43,
3,3970560,Note_off_c,0,69,0,
3,3970560,Note_on_c,0,71,44,
3,3970657,Control_c,0,71,0,
3,3970817,Control_c,0,74,43,
3,3971137,Control_c,0,71,0,
3,3971297,Control_c,0,74,43,
3,3971617,Control_c,0,71,0,
3,3971777,Control_c,0,74,43,
3,3972097,Control_c,0,71,0,
3,3972257,Control_c,0,74,43,
3,3972577,Control_c,0,71,0,
3,3972737,Control_c,0,74,43,
3,3973057,Control_c,0,71,0,
3,3973217,Control_c,0,74,43,
3,3973537,Control_c,0,71,0,
3,3973697,Control_c,0,74,43,
3,3974017,Control_c,0,71,0,
3,3974177,Control_c,0,74,43,
3,3974497,Control_c,0,71,0,
3,3974657,Control_c,0,74,43,
3,3974977,Control_c,0,71,0,
3,3975137,Control_c,0,74,43,
3,3975457,Control_c,0,71,0,
3,3975617,Control_c,0,74,43,
3,3975937,Control_c,0,71,0,
3,3976097,Control_c,0,74,43,
3,3976417,Control_c,0,71,0,
3,3976577,Control_c,0,74,43,
3,3976897,Control_c,0,71,0,
3,3977057,Control_c,0,74,43,
3,3977377,Control_c,0,71,0,
3,3977537,Control_c,0,74,43,
3,3977857,Control_c,0,71,0,
3,3978017,Control_c,0,74,43,
3,3978240,Note_off_c,0,71,0,
3,3978240,Note_on_c,0,66,58,
3,3978337,Control_c,0,71,0,
3,3978497,Control_c,0,74,44,
3,3978817,Control_c,0,71,0,
3,3978977,Control_c,0,74,44,
3,3979297,Control_c,0,71,0,
3,3979457,Control_c,0,74,44,
3,3979777,Control_c,0,71,0,
3,3979937,Control_c,0,74,44,
3,3980257,Control_c,0,71,0,
3,3980417,Control_c,0,74,44,
3,3980737,Control_c,0,71,0,
3,3980897,Control_c,0,74,44,
3,3981217,Control_c,0,71,0,
3,3981377,Control_c,0,74,44,
3,3981697,Control_c,0,71,0,
3,3981857,Control_c,0,74,44,
3,3982177,Control_c,0,71,0,
3,3982337,Control_c,0,74,44,
3,3982657,Control_c,0,71,0,
3,3982817,Control_c,0,74,44,
3,3983137,Control_c,0,71,0,
3,3983297,Control_c,0,74,44,
3,3983617,Control_c,0,71,0,
3,3983777,Control_c,0,74,44,
3,3984097,Control_c,0,71,0,
3,3984257,Control_c,0,74,44,
3,3984577,Control_c,0,71,0,
3,3984737,Control_c,0,74,44,
3,3985057,Control_c,0,71,0,
3,3985217,Control_c,0,74,44,
3,3985537,Control_c,0,71,0,
3,3985697,Control_c,0,74,44,
3,3985920,Note_off_c,0,66,0,
3,3985920,Note_on_c,0,68,39,
3,3986017,Control_c,0,71,0,
3,3986177,Control_c,0,74,44,
3,3986497,Control_c,0,71,0,
3,3986657,Control_c,0,74,44,
3,3986977,Control_c,0,71,0,
3,3987137,Control_c,0,74,44,
3,3987457,Control_c,0,71,0,
3,3987617,Control_c,0,74,44,
3,3987937,Control_c,0,71,0,
3,3988097,Control_c,0,74,44,
3,3988417,Control_c,0,71,0,
3,3988577,Control_c,0,74,44,
3,3988897,Control_c,0,71,0,
3,3989057,Control_c,0,74,44,
3,3989377,Control_c,0,71,0,
3,3989537,Control_c,0,74,44,
3,3989857,Control_c,0,71,0,
3,3990017,Control_c,0,74,44,
3,3990337,Control_c,0,71,0,
3,3990497,Control_c,0,74,44,
3,3990817,Control_c,0,71,0,
3,3990977,Control_c,0,74,44,
3,3991297,Control_c,0,71,0,
3,3991457,Control_c,0,74,44,
3,3991777,Control_c,0,71,0,
3,3991937,Control_c,0,74,44,
3,3992257,Control_c,0,71,0,
3,3992417,Control_c,0,74,44,
3,3992737,Control_c,0,71,0,
3,3992897,Control_c,0,74,44,
3,3993217,Control_c,0,71,0,
3,3993377,Control_c,0,74,44,
3,3993600,Note_off_c,0,68,0,
3,3993600,Note_on_c,0,69,73,
3,3993697,Control_c,0,71,0,
3,3993857,Control_c,0,74,44,
3,3994151,Control_c,0,71,0,
3,3994337,Control_c,0,74,44,
3,3994817,Control_c,0,74,44,
3,3995297,Control_c,0,74,44,
3,3995777,Control_c,0,74,45,
3,3996257,Control_c,0,74,45,
3,3996737,Control_c,0,74,45,
3,3997217,Control_c,0,74,45,
3,3997697,Control_c,0,74,45,
3,3998177,Control_c,0,74,45,
3,3998657,Control_c,0,74,45,
3,3999137,Control_c,0,74,45,
3,3999617,Control_c,0,74,45,
3,4000097,Control_c,0,74,45,
3,4000577,Control_c,0,74,45,
3,4001057,Control_c,0,74,45,
3,4001280,Note_off_c,0,69,0,
3,4001280,Note_on_c,0,73,85,
3,4001537,Control_c,0,74,45,
3,4002017,Control_c,0,74,45,
3,4002497,Control_c,0,74,45,
3,4002977,Control_c,0,74,45,
3,4003457,Control_c,0,74,45,
3,4003937,Control_c,0,74,45,
3,4004417,Control_c,0,74,45,
3,4004897,Control_c,0,74,45,
3,4005377,Control_c,0,74,45,
3,4005857,Control_c,0,74,45,
3,4006337,Control_c,0,74,45,
3,4006817,Control_c,0,74,45,
3,4007297,Control_c,0,74,45,
3,4007777,Control_c,0,74,45,
3,4008257,Control_c,0,74,45,
3,4008737,Control_c,0,74,45,
3,4008960,Note_off_c,0,54,0,
3,4008960,Note_off_c,0,73,0,
3,4008960,Note_on_c,0,49,79,
3,4008960,Note_on_c,0,61,44,
3,4009217,Control_c,0,74,45,
3,4009697,Control_c,0,74,45,
3,4010177,Control_c,0,74,45,
3,4010657,Control_c,0,74,45,
3,4011137,Control_c,0,74,45,
3,4011617,Control_c,0,74,45,
3,4012097,Control_c,0,74,45,
3,4012577,Control_c,0,74,45,
3,4013057,Control_c,0,74,46,
3,4013537,Control_c,0,74,46,
3,4014017,Control_c,0,74,46,
3,4014497,Control_c,0,74,46,
3,4014977,Control_c,0,74,46,
3,4015457,Control_c,0,74,46,
3,4015937,Control_c,0,74,46,
3,4016417,Control_c,0,74,46,
3,4016640,Note_off_c,0,61,0,
3,4016640,Note_on_c,0,63,20,
3,4016897,Control_c,0,74,46,
3,4017377,Control_c,0,74,46,
3,4017857,Control_c,0,74,46,
3,4018337,Control_c,0,74,46,
3,4018817,Control_c,0,74,46,
3,4019297,Control_c,0,74,46,
3,4019777,Control_c,0,74,46,
3,4020257,Control_c,0,74,46,
3,4020737,Control_c,0,74,46,
3,4021217,Control_c,0,74,46,
3,4021697,Control_c,0,74,46,
3,4022177,Control_c,0,74,46,
3,4022657,Control_c,0,74,46,
3,4023137,Control_c,0,74,46,
3,4023617,Control_c,0,74,46,
3,4024097,Control_c,0,74,46,
3,4024320,Note_off_c,0,63,0,
3,4024320,Note_on_c,0,64,54,
3,4024577,Control_c,0,74,46,
3,4025057,Control_c,0,74,46,
3,4025537,Control_c,0,74,46,
3,4026017,Control_c,0,74,46,
3,4026497,Control_c,0,74,46,
3,4026977,Control_c,0,74,46,
3,4027457,Control_c,0,74,46,
3,4027937,Control_c,0,74,46,
3,4028417,Control_c,0,74,46,
3,4028897,Control_c,0,74,46,
3,4029377,Control_c,0,74,46,
3,4029857,Control_c,0,74,46,
3,4030337,Control_c,0,74,47,
3,4030817,Control_c,0,74,47,
3,4031297,Control_c,0,74,47,
3,4031777,Control_c,0,74,47,
3,4032000,Note_off_c,0,64,0,
3,4032000,Note_on_c,0,66,34,
3,4032257,Control_c,0,74,47,
3,4032737,Control_c,0,74,47,
3,4033217,Control_c,0,74,47,
3,4033697,Control_c,0,74,47,
3,4034177,Control_c,0,74,47,
3,4034657,Control_c,0,74,47,
3,4035137,Control_c,0,74,47,
3,4035617,Control_c,0,74,47,
3,4036097,Control_c,0,74,47,
3,4036577,Control_c,0,74,47,
3,4037057,Control_c,0,74,47,
3,4037537,Control_c,0,74,47,
3,4038017,Control_c,0,74,47,
3,4038497,Control_c,0,74,47,
3,4038977,Control_c,0,74,47,
3,4039457,Control_c,0,74,47,
3,4039680,Note_off_c,0,66,0,
3,4039680,Note_on_c,0,61,76,
3,4039937,Control_c,0,74,47,
3,4040417,Control_c,0,74,47,
3,4040897,Control_c,0,74,47,
3,4041377,Control_c,0,74,47,
3,4041857,Control_c,0,74,47,
3,4042337,Control_c,0,74,47,
3,4042817,Control_c,0,74,47,
3,4043297,Control_c,0,74,47,
3,4043777,Control_c,0,74,47,
3,4044257,Control_c,0,74,47,
3,4044737,Control_c,0,74,47,
3,4045217,Control_c,0,74,47,
3,4045697,Control_c,0,74,47,
3,4046177,Control_c,0,74,47,
3,4046657,Control_c,0,74,47,
3,4047137,Control_c,0,74,47,
3,4047360,Note_off_c,0,61,0,
3,4047360,Note_on_c,0,63,47,
3,4047617,Control_c,0,74,47,
3,4047629,Control_c,0,74,48,
3,4048109,Control_c,0,74,48,
3,4048589,Control_c,0,74,48,
3,4049069,Control_c,0,74,48,
3,4049549,Control_c,0,74,48,
3,4050029,Control_c,0,74,48,
3,4050509,Control_c,0,74,48,
3,4050989,Control_c,0,74,48,
3,4051469,Control_c,0,74,48,
3,4051949,Control_c,0,74,48,
3,4052429,Control_c,0,74,48,
3,4052909,Control_c,0,74,48,
3,4053389,Control_c,0,74,48,
3,4053869,Control_c,0,74,48,
3,4054349,Control_c,0,74,48,
3,4054829,Control_c,0,74,48,
3,4055040,Note_off_c,0,63,0,
3,4055040,Note_on_c,0,64,50,
3,4055309,Control_c,0,74,48,
3,4055789,Control_c,0,74,49,
3,4056269,Control_c,0,74,49,
3,4056749,Control_c,0,74,49,
3,4057229,Control_c,0,74,49,
3,4057709,Control_c,0,74,49,
3,4058189,Control_c,0,74,49,
3,4058669,Control_c,0,74,49,
3,4059149,Control_c,0,74,49,
3,4059629,Control_c,0,74,49,
3,4060109,Control_c,0,74,49,
3,4060589,Control_c,0,74,49,
3,4061069,Control_c,0,74,49,
3,4061549,Control_c,0,74,49,
3,4062029,Control_c,0,74,49,
3,4062509,Control_c,0,74,49,
3,4062720,Note_off_c,0,64,0,
3,4062720,Note_on_c,0,68,54,
3,4062989,Control_c,0,74,49,
3,4063469,Control_c,0,74,49,
3,4063949,Control_c,0,74,50,
3,4064429,Control_c,0,74,50,
3,4064909,Control_c,0,74,50,
3,4065389,Control_c,0,74,50,
3,4065869,Control_c,0,74,50,
3,4066349,Control_c,0,74,50,
3,4066829,Control_c,0,74,50,
3,4067309,Control_c,0,74,50,
3,4067789,Control_c,0,74,50,
3,4068269,Control_c,0,74,50,
3,4068749,Control_c,0,74,50,
3,4069229,Control_c,0,74,50,
3,4069709,Control_c,0,74,50,
3,4070189,Control_c,0,74,50,
3,4070400,Note_off_c,0,68,0,
3,4070400,Note_on_c,0,61,85,
3,4070669,Control_c,0,74,50,
3,4071149,Control_c,0,74,50,
3,4071629,Control_c,0,74,50,
3,4072109,Control_c,0,74,51,
3,4072589,Control_c,0,74,51,
3,4073069,Control_c,0,74,51,
3,4073549,Control_c,0,74,51,
3,4074029,Control_c,0,74,51,
3,4074509,Control_c,0,74,51,
3,4074989,Control_c,0,74,51,
3,4075469,Control_c,0,74,51,
3,4075949,Control_c,0,74,51,
3,4076429,Control_c,0,74,51,
3,4076909,Control_c,0,74,51,
3,4077389,Control_c,0,74,51,
3,4077869,Control_c,0,74,51,
3,4078080,Note_off_c,0,61,0,
3,4078080,Note_on_c,0,63,50,
3,4078349,Control_c,0,74,51,
3,4078829,Control_c,0,74,51,
3,4079309,Control_c,0,74,51,
3,4079789,Control_c,0,74,51,
3,4080269,Control_c,0,74,52,
3,4080749,Control_c,0,74,52,
3,4081229,Control_c,0,74,52,
3,4081709,Control_c,0,74,52,
3,4082189,Control_c,0,74,52,
3,4082669,Control_c,0,74,52,
3,4083149,Control_c,0,74,52,
3,4083629,Control_c,0,74,52,
3,4084109,Control_c,0,74,52,
3,4084589,Control_c,0,74,52,
3,4085069,Control_c,0,74,52,
3,4085549,Control_c,0,74,52,
3,4085760,Note_off_c,0,63,0,
3,4085760,Note_on_c,0,64,45,
3,4086029,Control_c,0,74,52,
3,4086509,Control_c,0,74,52,
3,4086989,Control_c,0,74,52,
3,4087469,Control_c,0,74,52,
3,4087949,Control_c,0,74,52,
3,4088429,Control_c,0,74,53,
3,4088909,Control_c,0,74,53,
3,4089389,Control_c,0,74,53,
3,4089869,Control_c,0,74,53,
3,4090349,Control_c,0,74,53,
3,4090829,Control_c,0,74,53,
3,4091309,Control_c,0,74,53,
3,4091789,Control_c,0,74,53,
3,4092269,Control_c,0,74,53,
3,4092749,Control_c,0,74,53,
3,4093229,Control_c,0,74,53,
3,4093440,Note_off_c,0,64,0,
3,4093440,Note_on_c,0,66,61,
3,4093709,Control_c,0,74,53,
3,4094189,Control_c,0,74,53,
3,4094669,Control_c,0,74,53,
3,4095149,Control_c,0,74,53,
3,4095629,Control_c,0,74,53,
3,4096109,Control_c,0,74,53,
3,4096589,Control_c,0,74,54,
3,4097069,Control_c,0,74,54,
3,4097549,Control_c,0,74,54,
3,4098029,Control_c,0,74,54,
3,4098509,Control_c,0,74,54,
3,4098989,Control_c,0,74,54,
3,4099469,Control_c,0,74,54,
3,4099949,Control_c,0,74,54,
3,4100429,Control_c,0,74,54,
3,4100909,Control_c,0,74,54,
3,4101120,Note_off_c,0,66,0,
3,4101120,Note_on_c,0,61,48,
3,4101389,Control_c,0,74,54,
3,4101869,Control_c,0,74,54,
3,4102349,Control_c,0,74,54,
3,4102829,Control_c,0,74,54,
3,4103309,Control_c,0,74,54,
3,4103789,Control_c,0,74,54,
3,4104269,Control_c,0,74,54,
3,4104749,Control_c,0,74,55,
3,4105229,Control_c,0,74,55,
3,4105709,Control_c,0,74,55,
3,4106189,Control_c,0,74,55,
3,4106669,Control_c,0,74,55,
3,4107149,Control_c,0,74,55,
3,4107629,Control_c,0,74,55,
3,4108109,Control_c,0,74,55,
3,4108589,Control_c,0,74,55,
3,4108800,Note_off_c,0,61,0,
3,4108800,Note_on_c,0,63,44,
3,4109069,Control_c,0,74,55,
3,4109549,Control_c,0,74,55,
3,4110029,Control_c,0,74,55,
3,4110509,Control_c,0,74,55,
3,4110989,Control_c,0,74,55,
3,4111469,Control_c,0,74,55,
3,4111949,Control_c,0,74,55,
3,4112429,Control_c,0,74,55,
3,4112909,Control_c,0,74,56,
3,4113389,Control_c,0,74,56,
3,4113869,Control_c,0,74,56,
3,4114349,Control_c,0,74,56,
3,4114829,Control_c,0,74,56,
3,4115309,Control_c,0,74,56,
3,4115789,Control_c,0,74,56,
3,4116269,Control_c,0,74,56,
3,4116480,Note_off_c,0,63,0,
3,4116480,Note_on_c,0,64,58,
3,4116749,Control_c,0,74,56,
3,4117229,Control_c,0,74,56,
3,4117709,Control_c,0,74,56,
3,4118189,Control_c,0,74,56,
3,4118669,Control_c,0,74,56,
3,4119149,Control_c,0,74,56,
3,4119629,Control_c,0,74,56,
3,4120109,Control_c,0,74,56,
3,4120589,Control_c,0,74,56,
3,4121069,Control_c,0,74,57,
3,4121549,Control_c,0,74,57,
3,4122029,Control_c,0,74,57,
3,4122509,Control_c,0,74,57,
3,4122989,Control_c,0,74,57,
3,4123469,Control_c,0,74,57,
3,4123949,Control_c,0,74,57,
3,4124160,Note_off_c,0,64,0,
3,4124160,Note_on_c,0,68,69,
3,4124429,Control_c,0,74,57,
3,4124909,Control_c,0,74,57,
3,4125389,Control_c,0,74,57,
3,4125869,Control_c,0,74,57,
3,4126349,Control_c,0,74,57,
3,4126829,Control_c,0,74,57,
3,4127309,Control_c,0,74,57,
3,4127789,Control_c,0,74,57,
3,4128269,Control_c,0,74,57,
3,4128749,Control_c,0,74,57,
3,4129229,Control_c,0,74,58,
3,4129709,Control_c,0,74,58,
3,4130189,Control_c,0,74,58,
3,4130669,Control_c,0,74,58,
3,4131149,Control_c,0,74,58,
3,4131629,Control_c,0,74,58,
3,4131840,Note_off_c,0,49,0,
3,4131840,Note_off_c,0,68,0,
3,4131840,Note_on_c,0,50,55,
3,4131840,Note_on_c,0,62,61,
3,4132109,Control_c,0,74,58,
3,4132589,Control_c,0,74,58,
3,4133069,Control_c,0,74,58,
3,4133549,Control_c,0,74,58,
3,4134029,Control_c,0,74,58,
3,4134509,Control_c,0,74,58,
3,4134989,Control_c,0,74,58,
3,4135469,Control_c,0,74,58,
3,4135949,Control_c,0,74,58,
3,4136429,Control_c,0,74,58,
3,4136909,Control_c,0,74,58,
3,4137389,Control_c,0,74,59,
3,4137869,Control_c,0,74,59,
3,4138349,Control_c,0,74,59,
3,4138829,Control_c,0,74,59,
3,4139309,Control_c,0,74,59,
3,4139520,Note_off_c,0,62,0,
3,4139520,Note_on_c,0,64,38,
3,4139789,Control_c,0,74,59,
3,4140269,Control_c,0,74,59,
3,4140749,Control_c,0,74,59,
3,4141229,Control_c,0,74,59,
3,4141709,Control_c,0,74,59,
3,4142189,Control_c,0,74,59,
3,4142669,Control_c,0,74,59,
3,4143149,Control_c,0,74,59,
3,4143629,Control_c,0,74,59,
3,4144109,Control_c,0,74,59,
3,4144589,Control_c,0,74,59,
3,4145069,Control_c,0,74,59,
3,4145549,Control_c,0,74,60,
3,4146029,Control_c,0,74,60,
3,4146509,Control_c,0,74,60,
3,4146989,Control_c,0,74,60,
3,4147200,Note_off_c,0,64,0,
3,4147200,Note_on_c,0,66,47,
3,4147469,Control_c,0,74,60,
3,4147949,Control_c,0,74,60,
3,4148429,Control_c,0,74,60,
3,4148909,Control_c,0,74,60,
3,4149389,Control_c,0,74,60,
3,4149869,Control_c,0,74,60,
3,4150349,Control_c,0,74,60,
3,4150829,Control_c,0,74,60,
3,4151309,Control_c,0,74,60,
3,4151789,Control_c,0,74,60,
3,4152269,Control_c,0,74,60,
3,4152749,Control_c,0,74,60,
3,4153229,Control_c,0,74,60,
3,4153709,Control_c,0,74,61,
3,4154189,Control_c,0,74,61,
3,4154669,Control_c,0,74,61,
3,4154880,Note_off_c,0,66,0,
3,4154880,Note_on_c,0,68,49,
3,4155149,Control_c,0,74,61,
3,4155629,Control_c,0,74,61,
3,4156109,Control_c,0,74,61,
3,4156589,Control_c,0,74,61,
3,4157069,Control_c,0,74,61,
3,4157549,Control_c,0,74,61,
3,4158029,Control_c,0,74,61,
3,4158509,Control_c,0,74,61,
3,4158989,Control_c,0,74,61,
3,4159469,Control_c,0,74,61,
3,4159949,Control_c,0,74,61,
3,4160429,Control_c,0,74,61,
3,4160909,Control_c,0,74,61,
3,4161389,Control_c,0,74,61,
3,4161869,Control_c,0,74,62,
3,4162349,Control_c,0,74,62,
3,4162560,Note_off_c,0,68,0,
3,4162560,Note_on_c,0,62,60,
3,4162829,Control_c,0,74,62,
3,4163309,Control_c,0,74,62,
3,4163789,Control_c,0,74,62,
3,4164269,Control_c,0,74,62,
3,4164749,Control_c,0,74,62,
3,4165229,Control_c,0,74,62,
3,4165709,Control_c,0,74,62,
3,4166189,Control_c,0,74,62,
3,4166669,Control_c,0,74,62,
3,4167149,Control_c,0,74,62,
3,4167629,Control_c,0,74,62,
3,4168109,Control_c,0,74,62,
3,4168589,Control_c,0,74,62,
3,4169069,Control_c,0,74,62,
3,4169549,Control_c,0,74,62,
3,4170029,Control_c,0,74,63,
3,4170240,Note_off_c,0,62,0,
3,4170240,Note_on_c,0,64,36,
3,4170509,Control_c,0,74,63,
3,4170989,Control_c,0,74,63,
3,4171469,Control_c,0,74,63,
3,4171949,Control_c,0,74,63,
3,4172429,Control_c,0,74,63,
3,4172909,Control_c,0,74,63,
3,4173389,Control_c,0,74,63,
3,4173869,Control_c,0,74,63,
3,4174349,Control_c,0,74,63,
3,4174829,Control_c,0,74,63,
3,4175309,Control_c,0,74,63,
3,4175789,Control_c,0,74,63,
3,4176269,Control_c,0,74,63,
3,4176749,Control_c,0,74,63,
3,4177229,Control_c,0,74,63,
3,4177709,Control_c,0,74,63,
3,4177920,Note_off_c,0,64,0,
3,4177920,Note_on_c,0,66,47,
3,4178189,Control_c,0,74,64,
3,4178669,Control_c,0,74,64,
3,4179149,Control_c,0,74,64,
3,4179629,Control_c,0,74,64,
3,4180109,Control_c,0,74,64,
3,4180589,Control_c,0,74,64,
3,4181069,Control_c,0,74,64,
3,4181549,Control_c,0,74,64,
3,4182029,Control_c,0,74,64,
3,4182509,Control_c,0,74,64,
3,4182989,Control_c,0,74,64,
3,4183469,Control_c,0,74,64,
3,4183949,Control_c,0,74,64,
3,4184429,Control_c,0,74,64,
3,4184909,Control_c,0,74,64,
3,4185389,Control_c,0,74,64,
3,4185600,Note_off_c,0,66,0,
3,4185600,Note_on_c,0,69,75,
3,4185869,Control_c,0,74,64,
3,4186349,Control_c,0,74,65,
3,4186829,Control_c,0,74,65,
3,4187309,Control_c,0,74,65,
3,4187789,Control_c,0,74,65,
3,4188269,Control_c,0,74,65,
3,4188749,Control_c,0,74,65,
3,4189229,Control_c,0,74,65,
3,4189709,Control_c,0,74,65,
3,4190189,Control_c,0,74,65,
3,4190669,Control_c,0,74,65,
3,4191149,Control_c,0,74,65,
3,4191629,Control_c,0,74,65,
3,4192109,Control_c,0,74,65,
3,4192589,Control_c,0,74,65,
3,4193069,Control_c,0,74,65,
3,4193280,Note_off_c,0,69,0,
3,4193280,Note_on_c,0,62,79,
3,4193549,Control_c,0,74,65,
3,4194029,Control_c,0,74,65,
3,4194509,Control_c,0,74,66,
3,4194989,Control_c,0,74,66,
3,4195469,Control_c,0,74,66,
3,4195949,Control_c,0,74,66,
3,4196429,Control_c,0,74,66,
3,4196909,Control_c,0,74,66,
3,4197389,Control_c,0,74,66,
3,4197869,Control_c,0,74,66,
3,4198349,Control_c,0,74,66,
3,4198829,Control_c,0,74,66,
3,4199309,Control_c,0,74,66,
3,4199789,Control_c,0,74,66,
3,4200269,Control_c,0,74,66,
3,4200749,Control_c,0,74,66,
3,4200960,Note_off_c,0,62,0,
3,4200960,Note_on_c,0,64,51,
3,4201229,Control_c,0,74,66,
3,4201709,Control_c,0,74,66,
3,4202189,Control_c,0,74,66,
3,4202669,Control_c,0,74,67,
3,4203149,Control_c,0,74,67,
3,4203629,Control_c,0,74,67,
3,4204109,Control_c,0,74,67,
3,4204589,Control_c,0,74,67,
3,4205069,Control_c,0,74,67,
3,4205549,Control_c,0,74,67,
3,4206029,Control_c,0,74,67,
3,4206509,Control_c,0,74,67,
3,4206989,Control_c,0,74,67,
3,4207469,Control_c,0,74,67,
3,4207949,Control_c,0,74,67,
3,4208429,Control_c,0,74,67,
3,4208640,Note_off_c,0,64,0,
3,4208640,Note_on_c,0,66,56,
3,4208909,Control_c,0,74,67,
3,4209389,Control_c,0,74,67,
3,4209869,Control_c,0,74,67,
3,4210349,Control_c,0,74,67,
3,4210829,Control_c,0,74,68,
3,4211309,Control_c,0,74,68,
3,4211789,Control_c,0,74,68,
3,4212269,Control_c,0,74,68,
3,4212749,Control_c,0,74,68,
3,4213229,Control_c,0,74,68,
3,4213709,Control_c,0,74,68,
3,4214189,Control_c,0,74,68,
3,4214669,Control_c,0,74,68,
3,4215149,Control_c,0,74,68,
3,4215629,Control_c,0,74,68,
3,4216109,Control_c,0,74,68,
3,4216320,Note_off_c,0,66,0,
3,4216320,Note_on_c,0,68,57,
3,4216589,Control_c,0,74,68,
3,4217069,Control_c,0,74,68,
3,4217549,Control_c,0,74,68,
3,4218029,Control_c,0,74,68,
3,4218509,Control_c,0,74,68,
3,4218989,Control_c,0,74,69,
3,4219469,Control_c,0,74,69,
3,4219949,Control_c,0,74,69,
3,4220429,Control_c,0,74,69,
3,4220909,Control_c,0,74,69,
3,4221389,Control_c,0,74,69,
3,4221869,Control_c,0,74,69,
3,4222349,Control_c,0,74,69,
3,4222829,Control_c,0,74,69,
3,4223309,Control_c,0,74,69,
3,4223789,Control_c,0,74,69,
3,4224000,Note_off_c,0,68,0,
3,4224000,Note_on_c,0,62,77,
3,4224269,Control_c,0,74,69,
3,4224749,Control_c,0,74,69,
3,4225229,Control_c,0,74,69,
3,4225709,Control_c,0,74,69,
3,4226189,Control_c,0,74,69,
3,4226669,Control_c,0,74,69,
3,4227149,Control_c,0,74,70,
3,4227629,Control_c,0,74,70,
3,4228109,Control_c,0,74,70,
3,4228589,Control_c,0,74,70,
3,4229069,Control_c,0,74,70,
3,4229549,Control_c,0,74,70,
3,4230029,Control_c,0,74,70,
3,4230509,Control_c,0,74,70,
3,4230989,Control_c,0,74,70,
3,4231469,Control_c,0,74,70,
3,4231680,Note_off_c,0,62,0,
3,4231680,Note_on_c,0,64,51,
3,4231949,Control_c,0,74,70,
3,4232429,Control_c,0,74,70,
3,4232909,Control_c,0,74,70,
3,4233389,Control_c,0,74,70,
3,4233869,Control_c,0,74,70,
3,4234349,Control_c,0,74,70,
3,4234829,Control_c,0,74,70,
3,4235309,Control_c,0,74,71,
3,4235789,Control_c,0,74,71,
3,4236269,Control_c,0,74,71,
3,4236749,Control_c,0,74,71,
3,4237229,Control_c,0,74,71,
3,4237709,Control_c,0,74,71,
3,4238189,Control_c,0,74,71,
3,4238669,Control_c,0,74,71,
3,4239149,Control_c,0,74,71,
3,4239360,Note_off_c,0,64,0,
3,4239360,Note_on_c,0,66,50,
3,4239629,Control_c,0,74,71,
3,4240109,Control_c,0,74,71,
3,4240589,Control_c,0,74,71,
3,4241069,Control_c,0,74,71,
3,4241549,Control_c,0,74,71,
3,4242029,Control_c,0,74,71,
3,4242509,Control_c,0,74,71,
3,4242989,Control_c,0,74,71,
3,4243469,Control_c,0,74,72,
3,4243949,Control_c,0,74,72,
3,4244429,Control_c,0,74,72,
3,4244909,Control_c,0,74,72,
3,4245389,Control_c,0,74,72,
3,4245869,Control_c,0,74,72,
3,4246349,Control_c,0,74,72,
3,4246829,Control_c,0,74,72,
3,4247040,Note_off_c,0,66,0,
3,4247040,Note_on_c,0,69,50,
3,4247309,Control_c,0,74,72,
3,4247789,Control_c,0,74,72,
3,4248269,Control_c,0,74,72,
3,4248749,Control_c,0,74,72,
3,4249229,Control_c,0,74,72,
3,4249709,Control_c,0,74,72,
3,4250189,Control_c,0,74,72,
3,4250669,Control_c,0,74,72,
3,4251149,Control_c,0,74,72,
3,4251195,Control_c,0,74,73,
3,4251675,Control_c,0,74,69,
3,4252155,Control_c,0,74,66,
3,4252487,Control_c,0,74,64,
3,4252967,Control_c,0,74,58,
3,4253447,Control_c,0,74,52,
3,4253927,Control_c,0,74,46,
3,4254407,Control_c,0,74,40,
3,4254720,Note_off_c,0,50,0,
3,4254720,Note_off_c,0,69,0,
3,4254720,Note_on_c,0,52,66,
3,4254720,Note_on_c,0,64,50,
3,4254887,Control_c,0,74,34,
3,4255367,Control_c,0,74,28,
3,4255847,Control_c,0,74,22,
3,4256160,Control_c,0,74,19,
3,4256640,Control_c,0,74,16,
3,4257120,Control_c,0,74,13,
3,4257600,Control_c,0,74,11,
3,4258080,Control_c,0,74,8,
3,4258560,Control_c,0,74,5,
3,4259040,Control_c,0,74,3,
3,4259466,Control_c,0,74,1,
3,4259946,Control_c,0,74,0,
3,4260426,Control_c,0,74,0,
3,4260906,Control_c,0,74,0,
3,4261386,Control_c,0,74,0,
3,4261866,Control_c,0,74,0,
3,4262346,Control_c,0,74,0,
3,4262400,Note_off_c,0,64,0,
3,4262400,Note_on_c,0,66,55,
3,4262826,Control_c,0,74,0,
3,4263306,Control_c,0,74,0,
3,4263786,Control_c,0,74,0,
3,4264266,Control_c,0,74,0,
3,4264746,Control_c,0,74,0,
3,4265226,Control_c,0,74,0,
3,4265706,Control_c,0,74,0,
3,4266186,Control_c,0,74,0,
3,4266666,Control_c,0,74,0,
3,4267146,Control_c,0,74,0,
3,4267626,Control_c,0,74,0,
3,4268106,Control_c,0,74,0,
3,4268586,Control_c,0,74,0,
3,4269066,Control_c,0,74,0,
3,4269546,Control_c,0,74,0,
3,4270026,Control_c,0,74,0,
3,4270080,Note_off_c,0,66,0,
3,4270080,Note_on_c,0,68,15,
3,4270506,Control_c,0,74,0,
3,4270986,Control_c,0,74,0,
3,4271466,Control_c,0,74,0,
3,4271946,Control_c,0,74,0,
3,4272426,Control_c,0,74,0,
3,4272906,Control_c,0,74,0,
3,4273386,Control_c,0,74,0,
3,4273866,Control_c,0,74,0,
3,4274346,Control_c,0,74,0,
3,4274826,Control_c,0,74,0,
3,4275306,Control_c,0,74,0,
3,4275786,Control_c,0,74,0,
3,4276266,Control_c,0,74,0,
3,4276746,Control_c,0,74,0,
3,4277226,Control_c,0,74,0,
3,4277706,Control_c,0,74,0,
3,4277760,Note_off_c,0,68,0,
3,4277760,Note_on_c,0,71,43,
3,4278186,Control_c,0,74,0,
3,4278666,Control_c,0,74,0,
3,4279146,Control_c,0,74,0,
3,4279626,Control_c,0,74,0,
3,4280106,Control_c,0,74,0,
3,4280586,Control_c,0,74,0,
3,4281066,Control_c,0,74,0,
3,4281546,Control_c,0,74,0,
3,4282026,Control_c,0,74,0,
3,4282506,Control_c,0,74,0,
3,4282986,Control_c,0,74,0,
3,4283466,Control_c,0,74,0,
3,4283946,Control_c,0,74,0,
3,4284426,Control_c,0,74,0,
3,4284906,Control_c,0,74,0,
3,4285386,Control_c,0,74,0,
3,4285440,Note_off_c,0,71,0,
3,4285440,Note_on_c,0,64,52,
3,4285866,Control_c,0,74,0,
3,4286346,Control_c,0,74,0,
3,4286826,Control_c,0,74,0,
3,4287306,Control_c,0,74,0,
3,4287786,Control_c,0,74,0,
3,4288266,Control_c,0,74,0,
3,4288746,Control_c,0,74,0,
3,4289226,Control_c,0,74,0,
3,4289706,Control_c,0,74,0,
3,4290186,Control_c,0,74,0,
3,4290666,Control_c,0,74,0,
3,4291146,Control_c,0,74,0,
3,4291626,Control_c,0,74,0,
3,4292106,Control_c,0,74,0,
3,4292586,Control_c,0,74,0,
3,4293066,Control_c,0,74,0,
3,4293120,Note_off_c,0,64,0,
3,4293120,Note_on_c,0,66,56,
3,4293546,Control_c,0,74,0,
3,4294026,Control_c,0,74,0,
3,4294506,Control_c,0,74,0,
3,4294986,Control_c,0,74,0,
3,4295466,Control_c,0,74,0,
3,4295946,Control_c,0,74,0,
3,4296426,Control_c,0,74,0,
3,4296906,Control_c,0,74,0,
3,4297386,Control_c,0,74,0,
3,4297866,Control_c,0,74,0,
3,4298346,Control_c,0,74,0,
3,4298826,Control_c,0,74,0,
3,4299306,Control_c,0,74,0,
3,4299786,Control_c,0,74,0,
3,4300266,Control_c,0,74,0,
3,4300746,Control_c,0,74,0,
3,4300800,Note_off_c,0,66,0,
3,4300800,Note_on_c,0,68,16,
3,4301226,Control_c,0,74,0,
3,4301706,Control_c,0,74,0,
3,4302186,Control_c,0,74,0,
3,4302666,Control_c,0,74,0,
3,4303146,Control_c,0,74,0,
3,4303626,Control_c,0,74,0,
3,4304106,Control_c,0,74,0,
3,4304586,Control_c,0,74,0,
3,4305066,Control_c,0,74,0,
3,4305546,Control_c,0,74,0,
3,4306026,Control_c,0,74,0,
3,4306506,Control_c,0,74,0,
3,4306986,Control_c,0,74,0,
3,4307466,Control_c,0,74,0,
3,4307946,Control_c,0,74,0,
3,4308426,Control_c,0,74,0,
3,4308480,Note_off_c,0,68,0,
3,4308480,Note_on_c,0,73,54,
3,4308906,Control_c,0,74,0,
3,4309386,Control_c,0,74,0,
3,4309866,Control_c,0,74,0,
3,4310346,Control_c,0,74,0,
3,4310826,Control_c,0,74,0,
3,4311306,Control_c,0,74,0,
3,4311786,Control_c,0,74,0,
3,4312266,Control_c,0,74,0,
3,4312746,Control_c,0,74,0,
3,4313226,Control_c,0,74,0,
3,4313706,Control_c,0,74,0,
3,4314186,Control_c,0,74,0,
3,4314666,Control_c,0,74,0,
3,4315146,Control_c,0,74,0,
3,4315626,Control_c,0,74,0,
3,4316106,Control_c,0,74,0,
3,4316160,Note_off_c,0,73,0,
3,4316160,Note_on_c,0,64,47,
3,4316160,Control_c,0,74,0,
3,4316160,Control_c,0,74,32,
3,4316640,Control_c,0,74,32,
3,4317120,Control_c,0,74,32,
3,4317600,Control_c,0,74,32,
3,4318080,Control_c,0,74,32,
3,4318560,Control_c,0,74,32,
3,4319040,Control_c,0,74,32,
3,4319520,Control_c,0,74,32,
3,4320000,Control_c,0,74,32,
3,4320480,Control_c,0,74,32,
3,4320960,Control_c,0,74,32,
3,4321440,Control_c,0,74,32,
3,4321920,Control_c,0,74,32,
3,4322400,Control_c,0,74,32,
3,4322880,Control_c,0,74,32,
3,4323360,Control_c,0,74,32,
3,4323840,Note_off_c,0,64,0,
3,4323840,Note_on_c,0,66,48,
3,4323840,Control_c,0,74,32,
3,4324320,Control_c,0,74,32,
3,4324800,Control_c,0,74,32,
3,4325280,Control_c,0,74,32,
3,4325760,Control_c,0,74,32,
3,4326240,Control_c,0,74,32,
3,4326720,Control_c,0,74,32,
3,4327200,Control_c,0,74,32,
3,4327680,Control_c,0,74,32,
3,4328160,Control_c,0,74,32,
3,4328640,Control_c,0,74,32,
3,4329120,Control_c,0,74,32,
3,4329600,Control_c,0,74,32,
3,4330080,Control_c,0,74,32,
3,4330560,Control_c,0,74,32,
3,4331040,Control_c,0,74,32,
3,4331520,Note_off_c,0,66,0,
3,4331520,Note_on_c,0,68,30,
3,4331520,Control_c,0,74,32,
3,4332000,Control_c,0,74,32,
3,4332480,Control_c,0,74,32,
3,4332960,Control_c,0,74,32,
3,4333440,Control_c,0,74,32,
3,4333920,Control_c,0,74,32,
3,4334400,Control_c,0,74,32,
3,4334880,Control_c,0,74,32,
3,4335360,Control_c,0,74,32,
3,4335840,Control_c,0,74,32,
3,4336320,Control_c,0,74,32,
3,4336800,Control_c,0,74,32,
3,4337280,Control_c,0,74,32,
3,4337760,Control_c,0,74,32,
3,4338240,Control_c,0,74,32,
3,4338720,Control_c,0,74,32,
3,4339200,Note_off_c,0,68,0,
3,4339200,Note_on_c,0,71,38,
3,4339200,Control_c,0,74,32,
3,4339680,Control_c,0,74,32,
3,4340160,Control_c,0,74,32,
3,4340640,Control_c,0,74,32,
3,4341120,Control_c,0,74,32,
3,4341600,Control_c,0,74,32,
3,4342080,Control_c,0,74,32,
3,4342560,Control_c,0,74,32,
3,4343040,Control_c,0,74,32,
3,4343520,Control_c,0,74,32,
3,4344000,Control_c,0,74,32,
3,4344480,Control_c,0,74,32,
3,4344960,Control_c,0,74,32,
3,4345440,Control_c,0,74,32,
3,4345920,Control_c,0,74,32,
3,4346400,Control_c,0,74,32,
3,4346880,Note_off_c,0,71,0,
3,4346880,Note_on_c,0,64,58,
3,4346880,Control_c,0,74,32,
3,4347360,Control_c,0,74,32,
3,4347840,Control_c,0,74,32,
3,4348320,Control_c,0,74,32,
3,4348800,Control_c,0,74,32,
3,4349280,Control_c,0,74,32,
3,4349760,Control_c,0,74,32,
3,4350240,Control_c,0,74,32,
3,4350720,Control_c,0,74,32,
3,4351200,Control_c,0,74,32,
3,4351680,Control_c,0,74,32,
3,4352160,Control_c,0,74,32,
3,4352640,Control_c,0,74,32,
3,4353120,Control_c,0,74,32,
3,4353600,Control_c,0,74,32,
3,4354080,Control_c,0,74,32,
3,4354560,Note_off_c,0,64,0,
3,4354560,Note_on_c,0,66,62,
3,4354560,Control_c,0,74,32,
3,4355040,Control_c,0,74,32,
3,4355520,Control_c,0,74,32,
3,4356000,Control_c,0,74,32,
3,4356480,Control_c,0,74,32,
3,4356960,Control_c,0,74,32,
3,4357440,Control_c,0,74,32,
3,4357920,Control_c,0,74,32,
3,4358400,Control_c,0,74,32,
3,4358880,Control_c,0,74,32,
3,4359360,Control_c,0,74,32,
3,4359840,Control_c,0,74,32,
3,4360320,Control_c,0,74,32,
3,4360800,Control_c,0,74,32,
3,4361280,Control_c,0,74,32,
3,4361760,Control_c,0,74,32,
3,4362240,Note_off_c,0,66,0,
3,4362240,Note_on_c,0,68,43,
3,4362240,Control_c,0,74,32,
3,4362720,Control_c,0,74,32,
3,4363200,Control_c,0,74,32,
3,4363680,Control_c,0,74,32,
3,4364160,Control_c,0,74,32,
3,4364640,Control_c,0,74,32,
3,4365120,Control_c,0,74,32,
3,4365600,Control_c,0,74,32,
3,4366080,Control_c,0,74,32,
3,4366560,Control_c,0,74,32,
3,4367040,Control_c,0,74,32,
3,4367520,Control_c,0,74,32,
3,4368000,Control_c,0,74,32,
3,4368480,Control_c,0,74,32,
3,4368960,Control_c,0,74,32,
3,4369440,Control_c,0,74,32,
3,4369920,Note_off_c,0,68,0,
3,4369920,Note_on_c,0,71,36,
3,4369920,Control_c,0,74,32,
3,4370400,Control_c,0,74,32,
3,4370880,Control_c,0,74,32,
3,4371360,Control_c,0,74,32,
3,4371840,Control_c,0,74,32,
3,4372320,Control_c,0,74,32,
3,4372800,Control_c,0,74,32,
3,4373280,Control_c,0,74,32,
3,4373760,Control_c,0,74,32,
3,4374240,Control_c,0,74,32,
3,4374720,Control_c,0,74,32,
3,4375200,Control_c,0,74,32,
3,4375680,Control_c,0,74,32,
3,4376160,Control_c,0,74,32,
3,4376640,Control_c,0,74,32,
3,4377120,Control_c,0,74,32,
3,4377600,Note_off_c,0,52,0,
3,4377600,Note_off_c,0,71,0,
3,4377600,Note_on_c,0,54,64,
3,4377600,Note_on_c,0,66,45,
3,4377600,Control_c,0,74,32,
3,4378080,Control_c,0,74,33,
3,4378560,Control_c,0,74,33,
3,4379040,Control_c,0,74,33,
3,4379520,Control_c,0,74,33,
3,4380000,Control_c,0,74,33,
3,4380480,Control_c,0,74,33,
3,4380960,Control_c,0,74,33,
3,4381440,Control_c,0,74,33,
3,4381920,Control_c,0,74,33,
3,4382400,Control_c,0,74,33,
3,4382880,Control_c,0,74,33,
3,4383360,Control_c,0,74,33,
3,4383840,Control_c,0,74,33,
3,4384320,Control_c,0,74,33,
3,4384800,Control_c,0,74,33,
3,4385280,Note_off_c,0,66,0,
3,4385280,Note_on_c,0,68,48,
3,4385280,Control_c,0,74,33,
3,4385760,Control_c,0,74,33,
3,4386240,Control_c,0,74,33,
3,4386720,Control_c,0,74,33,
3,4387200,Control_c,0,74,33,
3,4387680,Control_c,0,74,33,
3,4388160,Control_c,0,74,33,
3,4388640,Control_c,0,74,33,
3,4389120,Control_c,0,74,33,
3,4389600,Control_c,0,74,33,
3,4390080,Control_c,0,74,33,
3,4390560,Control_c,0,74,33,
3,4391040,Control_c,0,74,33,
3,4391520,Control_c,0,74,33,
3,4392000,Control_c,0,74,33,
3,4392480,Control_c,0,74,33,
3,4392960,Note_off_c,0,68,0,
3,4392960,Note_on_c,0,69,36,
3,4392960,Control_c,0,74,33,
3,4393440,Control_c,0,74,33,
3,4393920,Control_c,0,74,33,
3,4394400,Control_c,0,74,33,
3,4394880,Control_c,0,74,33,
3,4395360,Control_c,0,74,33,
3,4395840,Control_c,0,74,33,
3,4396320,Control_c,0,74,33,
3,4396800,Control_c,0,74,33,
3,4397280,Control_c,0,74,33,
3,4397760,Control_c,0,74,33,
3,4398240,Control_c,0,74,33,
3,4398720,Control_c,0,74,33,
3,4399200,Control_c,0,74,33,
3,4399680,Control_c,0,74,33,
3,4400160,Control_c,0,74,33,
3,4400640,Note_off_c,0,69,0,
3,4400640,Note_on_c,0,71,45,
3,4400640,Control_c,0,74,33,
3,4401120,Control_c,0,74,33,
3,4401600,Control_c,0,74,33,
3,4402080,Control_c,0,74,33,
3,4402560,Control_c,0,74,33,
3,4403040,Control_c,0,74,33,
3,4403520,Control_c,0,74,33,
3,4404000,Control_c,0,74,33,
3,4404480,Control_c,0,74,33,
3,4404960,Control_c,0,74,33,
3,4405440,Control_c,0,74,33,
3,4405920,Control_c,0,74,33,
3,4406400,Control_c,0,74,33,
3,4406880,Control_c,0,74,33,
3,4407360,Control_c,0,74,33,
3,4407840,Control_c,0,74,33,
3,4408320,Note_off_c,0,71,0,
3,4408320,Note_on_c,0,66,65,
3,4408320,Control_c,0,74,33,
3,4408800,Control_c,0,74,33,
3,4409280,Control_c,0,74,33,
3,4409760,Control_c,0,74,33,
3,4410240,Control_c,0,74,33,
3,4410720,Control_c,0,74,33,
3,4411200,Control_c,0,74,33,
3,4411680,Control_c,0,74,33,
3,4412160,Control_c,0,74,33,
3,4412640,Control_c,0,74,33,
3,4413120,Control_c,0,74,33,
3,4413600,Control_c,0,74,33,
3,4414080,Control_c,0,74,33,
3,4414185,Control_c,0,71,0,
3,4414560,Control_c,0,74,33,
3,4414665,Control_c,0,71,0,
3,4415040,Control_c,0,74,33,
3,4415145,Control_c,0,71,0,
3,4415520,Control_c,0,74,33,
3,4415625,Control_c,0,71,0,
3,4416000,Note_off_c,0,66,0,
3,4416000,Note_on_c,0,68,34,
3,4416000,Control_c,0,74,33,
3,4416105,Control_c,0,71,0,
3,4416480,Control_c,0,74,33,
3,4416585,Control_c,0,71,0,
3,4416960,Control_c,0,74,33,
3,4417065,Control_c,0,71,0,
3,4417440,Control_c,0,74,33,
3,4417545,Control_c,0,71,0,
3,4417920,Control_c,0,74,33,
3,4418025,Control_c,0,71,0,
3,4418400,Control_c,0,74,33,
3,4418505,Control_c,0,71,0,
3,4418880,Control_c,0,74,33,
3,4418985,Control_c,0,71,0,
3,4419360,Control_c,0,74,33,
3,4419465,Control_c,0,71,0,
3,4419840,Control_c,0,74,33,
3,4419945,Control_c,0,71,0,
3,4420320,Control_c,0,74,33,
3,4420425,Control_c,0,71,0,
3,4420800,Control_c,0,74,33,
3,4420905,Control_c,0,71,0,
3,4421280,Control_c,0,74,33,
3,4421385,Control_c,0,71,0,
3,4421760,Control_c,0,74,33,
3,4421865,Control_c,0,71,0,
3,4422240,Control_c,0,74,33,
3,4422345,Control_c,0,71,0,
3,4422720,Control_c,0,74,33,
3,4422825,Control_c,0,71,0,
3,4423200,Control_c,0,74,33,
3,4423305,Control_c,0,71,0,
3,4423680,Note_off_c,0,68,0,
3,4423680,Note_on_c,0,69,46,
3,4423680,Control_c,0,74,33,
3,4423785,Control_c,0,71,0,
3,4424160,Control_c,0,74,33,
3,4424265,Control_c,0,71,0,
3,4424640,Control_c,0,74,33,
3,4424745,Control_c,0,71,1,
3,4425120,Control_c,0,74,33,
3,4425225,Control_c,0,71,1,
3,4425600,Control_c,0,74,33,
3,4425705,Control_c,0,71,1,
3,4426080,Control_c,0,74,33,
3,4426185,Control_c,0,71,1,
3,4426560,Control_c,0,74,33,
3,4426665,Control_c,0,71,1,
3,4427040,Control_c,0,74,33,
3,4427145,Control_c,0,71,1,
3,4427520,Control_c,0,74,33,
3,4427625,Control_c,0,71,1,
3,4428000,Control_c,0,74,33,
3,4428105,Control_c,0,71,1,
3,4428480,Control_c,0,74,33,
3,4428585,Control_c,0,71,1,
3,4428960,Control_c,0,74,33,
3,4429065,Control_c,0,71,1,
3,4429440,Control_c,0,74,33,
3,4429545,Control_c,0,71,1,
3,4429920,Control_c,0,74,33,
3,4430025,Control_c,0,71,1,
3,4430400,Control_c,0,74,33,
3,4430505,Control_c,0,71,1,
3,4430880,Control_c,0,74,33,
3,4430985,Control_c,0,71,1,
3,4431360,Note_off_c,0,69,0,
3,4431360,Note_on_c,0,73,56,
3,4431360,Control_c,0,74,33,
3,4431465,Control_c,0,71,1,
3,4431840,Control_c,0,74,33,
3,4431945,Control_c,0,71,1,
3,4432320,Control_c,0,74,33,
3,4432425,Control_c,0,71,1,
3,4432800,Control_c,0,74,33,
3,4432905,Control_c,0,71,1,
3,4433280,Control_c,0,74,33,
3,4433385,Control_c,0,71,1,
3,4433760,Control_c,0,74,33,
3,4433865,Control_c,0,71,1,
3,4434240,Control_c,0,74,33,
3,4434345,Control_c,0,71,1,
3,4434720,Control_c,0,74,33,
3,4434825,Control_c,0,71,1,
3,4435200,Control_c,0,74,33,
3,4435305,Control_c,0,71,2,
3,4435680,Control_c,0,74,33,
3,4435785,Control_c,0,71,2,
3,4436160,Control_c,0,74,33,
3,4436265,Control_c,0,71,2,
3,4436640,Control_c,0,74,33,
3,4436745,Control_c,0,71,2,
3,4437120,Control_c,0,74,33,
3,4437225,Control_c,0,71,2,
3,4437600,Control_c,0,74,33,
3,4437705,Control_c,0,71,2,
3,4438080,Control_c,0,74,33,
3,4438185,Control_c,0,71,2,
3,4438560,Control_c,0,74,33,
3,4438665,Control_c,0,71,2,
3,4439040,Note_off_c,0,73,0,
3,4439040,Note_on_c,0,66,56,
3,4439040,Control_c,0,74,33,
3,4439145,Control_c,0,71,2,
3,4439520,Control_c,0,74,33,
3,4439625,Control_c,0,71,2,
3,4440000,Control_c,0,74,34,
3,4440105,Control_c,0,71,2,
3,4440480,Control_c,0,74,34,
3,4440585,Control_c,0,71,2,
3,4440960,Control_c,0,74,34,
3,4441065,Control_c,0,71,2,
3,4441440,Control_c,0,74,34,
3,4441545,Control_c,0,71,2,
3,4441920,Control_c,0,74,34,
3,4442025,Control_c,0,71,2,
3,4442400,Control_c,0,74,34,
3,4442505,Control_c,0,71,2,
3,4442880,Control_c,0,74,34,
3,4442985,Control_c,0,71,2,
3,4443360,Control_c,0,74,34,
3,4443465,Control_c,0,71,2,
3,4443840,Control_c,0,74,34,
3,4443945,Control_c,0,71,2,
3,4444320,Control_c,0,74,34,
3,4444425,Control_c,0,71,2,
3,4444800,Control_c,0,74,34,
3,4444905,Control_c,0,71,2,
3,4445280,Control_c,0,74,34,
3,4445385,Control_c,0,71,3,
3,4445760,Control_c,0,74,34,
3,4445865,Control_c,0,71,3,
3,4446240,Control_c,0,74,34,
3,4446345,Control_c,0,71,3,
3,4446720,Note_off_c,0,66,0,
3,4446720,Note_on_c,0,68,48,
3,4446720,Control_c,0,74,34,
3,4446825,Control_c,0,71,3,
3,4447200,Control_c,0,74,34,
3,4447305,Control_c,0,71,3,
3,4447680,Control_c,0,74,34,
3,4447785,Control_c,0,71,3,
3,4448160,Control_c,0,74,34,
3,4448265,Control_c,0,71,3,
3,4448640,Control_c,0,74,34,
3,4448745,Control_c,0,71,3,
3,4449120,Control_c,0,74,34,
3,4449225,Control_c,0,71,3,
3,4449600,Control_c,0,74,34,
3,4449705,Control_c,0,71,3,
3,4450080,Control_c,0,74,34,
3,4450185,Control_c,0,71,3,
3,4450560,Control_c,0,74,34,
3,4450665,Control_c,0,71,3,
3,4451040,Control_c,0,74,34,
3,4451145,Control_c,0,71,3,
3,4451520,Control_c,0,74,34,
3,4451625,Control_c,0,71,3,
3,4452000,Control_c,0,74,34,
3,4452105,Control_c,0,71,3,
3,4452480,Control_c,0,74,34,
3,4452585,Control_c,0,71,3,
3,4452960,Control_c,0,74,34,
3,4453065,Control_c,0,71,3,
3,4453440,Control_c,0,74,34,
3,4453545,Control_c,0,71,3,
3,4453920,Control_c,0,74,34,
3,4454025,Control_c,0,71,3,
3,4454400,Note_off_c,0,68,0,
3,4454400,Note_on_c,0,69,58,
3,4454400,Control_c,0,74,34,
3,4454505,Control_c,0,71,3,
3,4454880,Control_c,0,74,34,
3,4454985,Control_c,0,71,3,
3,4455360,Control_c,0,74,34,
3,4455465,Control_c,0,71,3,
3,4455840,Control_c,0,74,34,
3,4455945,Control_c,0,71,4,
3,4456320,Control_c,0,74,34,
3,4456425,Control_c,0,71,4,
3,4456800,Control_c,0,74,34,
3,4456905,Control_c,0,71,4,
3,4457280,Control_c,0,74,34,
3,4457385,Control_c,0,71,4,
3,4457760,Control_c,0,74,34,
3,4457865,Control_c,0,71,4,
3,4458240,Control_c,0,74,34,
3,4458345,Control_c,0,71,4,
3,4458720,Control_c,0,74,34,
3,4458825,Control_c,0,71,4,
3,4459200,Control_c,0,74,34,
3,4459305,Control_c,0,71,4,
3,4459680,Control_c,0,74,34,
3,4459785,Control_c,0,71,4,
3,4460160,Control_c,0,74,34,
3,4460265,Control_c,0,71,4,
3,4460640,Control_c,0,74,34,
3,4460745,Control_c,0,71,4,
3,4461120,Control_c,0,74,34,
3,4461225,Control_c,0,71,4,
3,4461600,Control_c,0,74,34,
3,4461705,Control_c,0,71,4,
3,4462080,Note_off_c,0,69,0,
3,4462080,Note_on_c,0,71,44,
3,4462080,Control_c,0,74,34,
3,4462185,Control_c,0,71,4,
3,4462560,Control_c,0,74,34,
3,4462665,Control_c,0,71,4,
3,4463040,Control_c,0,74,34,
3,4463145,Control_c,0,71,4,
3,4463520,Control_c,0,74,34,
3,4463625,Control_c,0,71,4,
3,4464000,Control_c,0,74,34,
3,4464105,Control_c,0,71,4,
3,4464480,Control_c,0,74,34,
3,4464585,Control_c,0,71,4,
3,4464960,Control_c,0,74,34,
3,4465065,Control_c,0,71,4,
3,4465440,Control_c,0,74,34,
3,4465545,Control_c,0,71,4,
3,4465920,Control_c,0,74,34,
3,4466025,Control_c,0,71,4,
3,4466400,Control_c,0,74,34,
3,4466505,Control_c,0,71,5,
3,4466880,Control_c,0,74,34,
3,4466985,Control_c,0,71,5,
3,4467360,Control_c,0,74,34,
3,4467465,Control_c,0,71,5,
3,4467840,Control_c,0,74,34,
3,4467945,Control_c,0,71,5,
3,4468320,Control_c,0,74,34,
3,4468425,Control_c,0,71,5,
3,4468800,Control_c,0,74,34,
3,4468905,Control_c,0,71,5,
3,4469280,Control_c,0,74,34,
3,4469385,Control_c,0,71,5,
3,4469760,Note_off_c,0,71,0,
3,4469760,Note_on_c,0,66,58,
3,4469760,Control_c,0,74,34,
3,4469865,Control_c,0,71,5,
3,4470240,Control_c,0,74,34,
3,4470345,Control_c,0,71,5,
3,4470720,Control_c,0,74,34,
3,4470825,Control_c,0,71,5,
3,4471200,Control_c,0,74,34,
3,4471305,Control_c,0,71,5,
3,4471680,Control_c,0,74,34,
3,4471785,Control_c,0,71,5,
3,4472160,Control_c,0,74,34,
3,4472265,Control_c,0,71,5,
3,4472640,Control_c,0,74,34,
3,4472745,Control_c,0,71,5,
3,4473120,Control_c,0,74,34,
3,4473225,Control_c,0,71,5,
3,4473600,Control_c,0,74,34,
3,4473705,Control_c,0,71,5,
3,4474080,Control_c,0,74,34,
3,4474185,Control_c,0,71,5,
3,4474560,Control_c,0,74,34,
3,4474665,Control_c,0,71,5,
3,4475040,Control_c,0,74,34,
3,4475145,Control_c,0,71,5,
3,4475520,Control_c,0,74,34,
3,4475625,Control_c,0,71,5,
3,4476000,Control_c,0,74,34,
3,4476105,Control_c,0,71,5,
3,4476480,Control_c,0,74,34,
3,4476585,Control_c,0,71,6,
3,4476960,Control_c,0,74,34,
3,4477065,Control_c,0,71,6,
3,4477440,Note_off_c,0,66,0,
3,4477440,Note_on_c,0,68,39,
3,4477440,Control_c,0,74,34,
3,4477545,Control_c,0,71,6,
3,4477920,Control_c,0,74,34,
3,4478025,Control_c,0,71,6,
3,4478400,Control_c,0,74,34,
3,4478505,Control_c,0,71,6,
3,4478880,Control_c,0,74,34,
3,4478985,Control_c,0,71,6,
3,4479360,Control_c,0,74,34,
3,4479465,Control_c,0,71,6,
3,4479840,Control_c,0,74,34,
3,4479945,Control_c,0,71,6,
3,4480320,Control_c,0,74,34,
3,4480425,Control_c,0,71,6,
3,4480800,Control_c,0,74,34,
3,4480905,Control_c,0,71,6,
3,4481280,Control_c,0,74,34,
3,4481385,Control_c,0,71,6,
3,4481760,Control_c,0,74,34,
3,4481865,Control_c,0,71,6,
3,4482240,Control_c,0,74,34,
3,4482345,Control_c,0,71,6,
3,4482720,Control_c,0,74,34,
3,4482825,Control_c,0,71,6,
3,4483200,Control_c,0,74,34,
3,4483305,Control_c,0,71,6,
3,4483680,Control_c,0,74,34,
3,4483785,Control_c,0,71,6,
3,4484160,Control_c,0,74,34,
3,4484265,Control_c,0,71,6,
3,4484640,Control_c,0,74,34,
3,4484745,Control_c,0,71,6,
3,4485120,Note_off_c,0,68,0,
3,4485120,Note_on_c,0,69,73,
3,4485120,Control_c,0,74,34,
3,4485225,Control_c,0,71,6,
3,4485600,Control_c,0,74,34,
3,4485705,Control_c,0,71,6,
3,4486080,Control_c,0,74,34,
3,4486185,Control_c,0,71,6,
3,4486560,Control_c,0,74,34,
3,4486665,Control_c,0,71,6,
3,4487040,Control_c,0,74,34,
3,4487145,Control_c,0,71,7,
3,4487520,Control_c,0,74,34,
3,4487625,Control_c,0,71,7,
3,4488000,Control_c,0,74,34,
3,4488105,Control_c,0,71,7,
3,4488480,Control_c,0,74,34,
3,4488585,Control_c,0,71,7,
3,4488960,Control_c,0,74,34,
3,4489065,Control_c,0,71,7,
3,4489440,Control_c,0,74,34,
3,4489545,Control_c,0,71,7,
3,4489920,Control_c,0,74,34,
3,4490025,Control_c,0,71,7,
3,4490400,Control_c,0,74,34,
3,4490505,Control_c,0,71,7,
3,4490880,Control_c,0,74,34,
3,4490985,Control_c,0,71,7,
3,4491360,Control_c,0,74,34,
3,4491465,Control_c,0,71,7,
3,4491840,Control_c,0,74,34,
3,4491945,Control_c,0,71,7,
3,4492320,Control_c,0,74,34,
3,4492425,Control_c,0,71,7,
3,4492800,Note_off_c,0,69,0,
3,4492800,Note_on_c,0,73,85,
3,4492800,Control_c,0,74,34,
3,4492905,Control_c,0,71,7,
3,4493280,Control_c,0,74,34,
3,4493385,Control_c,0,71,7,
3,4493760,Control_c,0,74,34,
3,4493865,Control_c,0,71,7,
3,4494240,Control_c,0,74,34,
3,4494345,Control_c,0,71,7,
3,4494720,Control_c,0,74,34,
3,4494825,Control_c,0,71,7,
3,4495200,Control_c,0,74,34,
3,4495305,Control_c,0,71,7,
3,4495680,Control_c,0,74,34,
3,4495785,Control_c,0,71,7,
3,4496160,Control_c,0,74,34,
3,4496265,Control_c,0,71,7,
3,4496640,Control_c,0,74,34,
3,4496745,Control_c,0,71,7,
3,4497120,Control_c,0,74,34,
3,4497225,Control_c,0,71,8,
3,4497600,Control_c,0,74,34,
3,4497705,Control_c,0,71,8,
3,4498080,Control_c,0,74,34,
3,4498185,Control_c,0,71,8,
3,4498560,Control_c,0,74,34,
3,4498665,Control_c,0,71,8,
3,4499040,Control_c,0,74,34,
3,4499145,Control_c,0,71,8,
3,4499520,Control_c,0,74,34,
3,4499625,Control_c,0,71,8,
3,4500000,Control_c,0,74,34,
3,4500105,Control_c,0,71,8,
3,4500480,Note_off_c,0,54,0,
3,4500480,Note_off_c,0,73,0,
3,4500480,Note_on_c,0,49,79,
3,4500480,Note_on_c,0,61,44,
3,4500480,Control_c,0,74,34,
3,4500585,Control_c,0,71,8,
3,4500960,Control_c,0,74,34,
3,4501065,Control_c,0,71,8,
3,4501440,Control_c,0,74,34,
3,4501545,Control_c,0,71,8,
3,4501836,Control_c,0,74,35,
3,4502025,Control_c,0,71,8,
3,4502316,Control_c,0,74,35,
3,4502505,Control_c,0,71,8,
3,4502796,Control_c,0,74,35,
3,4502985,Control_c,0,71,8,
3,4503276,Control_c,0,74,35,
3,4503465,Control_c,0,71,8,
3,4503756,Control_c,0,74,35,
3,4503945,Control_c,0,71,8,
3,4504236,Control_c,0,74,35,
3,4504425,Control_c,0,71,8,
3,4504716,Control_c,0,74,35,
3,4504905,Control_c,0,71,8,
3,4505196,Control_c,0,74,35,
3,4505385,Control_c,0,71,8,
3,4505676,Control_c,0,74,35,
3,4505865,Control_c,0,71,8,
3,4506156,Control_c,0,74,35,
3,4506345,Control_c,0,71,8,
3,4506636,Control_c,0,74,35,
3,4506825,Control_c,0,71,8,
3,4507116,Control_c,0,74,35,
3,4507305,Control_c,0,71,8,
3,4507596,Control_c,0,74,35,
3,4507785,Control_c,0,71,9,
3,4508076,Control_c,0,74,35,
3,4508160,Note_off_c,0,61,0,
3,4508160,Note_on_c,0,63,20,
3,4508265,Control_c,0,71,9,
3,4508556,Control_c,0,74,35,
3,4508745,Control_c,0,71,9,
3,4509036,Control_c,0,74,35,
3,4509225,Control_c,0,71,9,
3,4509516,Control_c,0,74,35,
3,4509705,Control_c,0,71,9,
3,4509996,Control_c,0,74,35,
3,4510185,Control_c,0,71,9,
3,4510476,Control_c,0,74,35,
3,4510665,Control_c,0,71,9,
3,4510956,Control_c,0,74,35,
3,4511145,Control_c,0,71,9,
3,4511436,Control_c,0,74,35,
3,4511625,Control_c,0,71,9,
3,4511916,Control_c,0,74,35,
3,4512105,Control_c,0,71,9,
3,4512396,Control_c,0,74,35,
3,4512585,Control_c,0,71,9,
3,4512876,Control_c,0,74,35,
3,4513065,Control_c,0,71,9,
3,4513356,Control_c,0,74,35,
3,4513545,Control_c,0,71,9,
3,4513836,Control_c,0,74,36,
3,4514025,Control_c,0,71,9,
3,4514316,Control_c,0,74,36,
3,4514505,Control_c,0,71,9,
3,4514796,Control_c,0,74,36,
3,4514985,Control_c,0,71,9,
3,4515276,Control_c,0,74,36,
3,4515465,Control_c,0,71,9,
3,4515756,Control_c,0,74,36,
3,4515840,Note_off_c,0,63,0,
3,4515840,Note_on_c,0,64,54,
3,4515945,Control_c,0,71,9,
3,4516236,Control_c,0,74,36,
3,4516425,Control_c,0,71,9,
3,4516716,Control_c,0,74,36,
3,4516905,Control_c,0,71,9,
3,4517196,Control_c,0,74,36,
3,4517385,Control_c,0,71,9,
3,4517676,Control_c,0,74,36,
3,4517865,Control_c,0,71,9,
3,4518156,Control_c,0,74,36,
3,4518345,Control_c,0,71,10,
3,4518636,Control_c,0,74,36,
3,4518825,Control_c,0,71,10,
3,4519116,Control_c,0,74,36,
3,4519305,Control_c,0,71,10,
3,4519596,Control_c,0,74,36,
3,4519785,Control_c,0,71,10,
3,4520076,Control_c,0,74,36,
3,4520265,Control_c,0,71,10,
3,4520556,Control_c,0,74,36,
3,4520745,Control_c,0,71,10,
3,4521036,Control_c,0,74,36,
3,4521225,Control_c,0,71,10,
3,4521516,Control_c,0,74,36,
3,4521705,Control_c,0,71,10,
3,4521996,Control_c,0,74,36,
3,4522185,Control_c,0,71,10,
3,4522476,Control_c,0,74,36,
3,4522665,Control_c,0,71,10,
3,4522956,Control_c,0,74,36,
3,4523145,Control_c,0,71,10,
3,4523436,Control_c,0,74,36,
3,4523520,Note_off_c,0,64,0,
3,4523520,Note_on_c,0,66,34,
3,4523625,Control_c,0,71,10,
3,4523916,Control_c,0,74,36,
3,4524105,Control_c,0,71,10,
3,4524396,Control_c,0,74,36,
3,4524585,Control_c,0,71,10,
3,4524876,Control_c,0,74,36,
3,4525065,Control_c,0,71,10,
3,4525356,Control_c,0,74,37,
3,4525545,Control_c,0,71,10,
3,4525836,Control_c,0,74,37,
3,4526025,Control_c,0,71,10,
3,4526316,Control_c,0,74,37,
3,4526505,Control_c,0,71,10,
3,4526796,Control_c,0,74,37,
3,4526985,Control_c,0,71,10,
3,4527276,Control_c,0,74,37,
3,4527465,Control_c,0,71,10,
3,4527756,Control_c,0,74,37,
3,4527945,Control_c,0,71,10,
3,4528236,Control_c,0,74,37,
3,4528425,Control_c,0,71,11,
3,4528716,Control_c,0,74,37,
3,4528905,Control_c,0,71,11,
3,4529196,Control_c,0,74,37,
3,4529385,Control_c,0,71,11,
3,4529676,Control_c,0,74,37,
3,4529865,Control_c,0,71,11,
3,4530156,Control_c,0,74,37,
3,4530345,Control_c,0,71,11,
3,4530636,Control_c,0,74,37,
3,4530825,Control_c,0,71,11,
3,4531116,Control_c,0,74,37,
3,4531200,Note_off_c,0,66,0,
3,4531200,Note_on_c,0,61,76,
3,4531305,Control_c,0,71,11,
3,4531596,Control_c,0,74,37,
3,4531785,Control_c,0,71,11,
3,4532076,Control_c,0,74,37,
3,4532265,Control_c,0,71,11,
3,4532556,Control_c,0,74,37,
3,4532745,Control_c,0,71,11,
3,4533036,Control_c,0,74,37,
3,4533225,Control_c,0,71,11,
3,4533516,Control_c,0,74,37,
3,4533705,Control_c,0,71,11,
3,4533996,Control_c,0,74,37,
3,4534185,Control_c,0,71,11,
3,4534476,Control_c,0,74,37,
3,4534665,Control_c,0,71,11,
3,4534956,Control_c,0,74,37,
3,4535145,Control_c,0,71,11,
3,4535436,Control_c,0,74,37,
3,4535625,Control_c,0,71,11,
3,4535916,Control_c,0,74,37,
3,4536105,Control_c,0,71,11,
3,4536396,Control_c,0,74,37,
3,4536585,Control_c,0,71,11,
3,4536876,Control_c,0,74,38,
3,4537065,Control_c,0,71,11,
3,4537356,Control_c,0,74,38,
3,4537545,Control_c,0,71,11,
3,4537836,Control_c,0,74,38,
3,4538025,Control_c,0,71,11,
3,4538316,Control_c,0,74,38,
3,4538505,Control_c,0,71,11,
3,4538796,Control_c,0,74,38,
3,4538880,Note_off_c,0,61,0,
3,4538880,Note_on_c,0,63,47,
3,4538985,Control_c,0,71,12,
3,4539276,Control_c,0,74,38,
3,4539465,Control_c,0,71,12,
3,4539756,Control_c,0,74,38,
3,4539945,Control_c,0,71,12,
3,4540236,Control_c,0,74,38,
3,4540425,Control_c,0,71,12,
3,4540716,Control_c,0,74,38,
3,4540905,Control_c,0,71,12,
3,4541196,Control_c,0,74,38,
3,4541385,Control_c,0,71,12,
3,4541676,Control_c,0,74,38,
3,4541865,Control_c,0,71,12,
3,4542156,Control_c,0,74,38,
3,4542345,Control_c,0,71,12,
3,4542636,Control_c,0,74,38,
3,4542825,Control_c,0,71,12,
3,4543116,Control_c,0,74,38,
3,4543305,Control_c,0,71,12,
3,4543596,Control_c,0,74,38,
3,4543785,Control_c,0,71,12,
3,4544076,Control_c,0,74,38,
3,4544265,Control_c,0,71,12,
3,4544556,Control_c,0,74,38,
3,4544745,Control_c,0,71,12,
3,4545036,Control_c,0,74,38,
3,4545225,Control_c,0,71,12,
3,4545516,Control_c,0,74,38,
3,4545705,Control_c,0,71,12,
3,4545996,Control_c,0,74,38,
3,4546185,Control_c,0,71,12,
3,4546476,Control_c,0,74,38,
3,4546560,Note_off_c,0,63,0,
3,4546560,Note_on_c,0,64,50,
3,4546665,Control_c,0,71,12,
3,4546956,Control_c,0,74,38,
3,4547145,Control_c,0,71,12,
3,4547436,Control_c,0,74,38,
3,4547625,Control_c,0,71,12,
3,4547916,Control_c,0,74,38,
3,4548105,Control_c,0,71,12,
3,4548396,Control_c,0,74,39,
3,4548585,Control_c,0,71,12,
3,4548876,Control_c,0,74,39,
3,4549065,Control_c,0,71,12,
3,4549356,Control_c,0,74,39,
3,4549545,Control_c,0,71,13,
3,4549836,Control_c,0,74,39,
3,4550025,Control_c,0,71,13,
3,4550316,Control_c,0,74,39,
3,4550505,Control_c,0,71,13,
3,4550796,Control_c,0,74,39,
3,4550985,Control_c,0,71,13,
3,4551276,Control_c,0,74,39,
3,4551465,Control_c,0,71,13,
3,4551756,Control_c,0,74,39,
3,4551945,Control_c,0,71,13,
3,4552236,Control_c,0,74,39,
3,4552425,Control_c,0,71,13,
3,4552716,Control_c,0,74,39,
3,4552905,Control_c,0,71,13,
3,4553196,Control_c,0,74,39,
3,4553385,Control_c,0,71,13,
3,4553676,Control_c,0,74,39,
3,4553865,Control_c,0,71,13,
3,4554156,Control_c,0,74,39,
3,4554240,Note_off_c,0,64,0,
3,4554240,Note_on_c,0,68,54,
3,4554345,Control_c,0,71,13,
3,4554636,Control_c,0,74,39,
3,4554825,Control_c,0,71,13,
3,4555116,Control_c,0,74,39,
3,4555305,Control_c,0,71,13,
3,4555596,Control_c,0,74,39,
3,4555785,Control_c,0,71,13,
3,4556076,Control_c,0,74,39,
3,4556265,Control_c,0,71,13,
3,4556556,Control_c,0,74,39,
3,4556745,Control_c,0,71,13,
3,4557036,Control_c,0,74,39,
3,4557225,Control_c,0,71,13,
3,4557516,Control_c,0,74,39,
3,4557705,Control_c,0,71,13,
3,4557996,Control_c,0,74,39,
3,4558185,Control_c,0,71,13,
3,4558476,Control_c,0,74,39,
3,4558665,Control_c,0,71,13,
3,4558956,Control_c,0,74,39,
3,4559145,Control_c,0,71,13,
3,4559436,Control_c,0,74,39,
3,4559625,Control_c,0,71,14,
3,4559916,Control_c,0,74,39,
3,4560105,Control_c,0,71,14,
3,4560396,Control_c,0,74,40,
3,4560585,Control_c,0,71,14,
3,4560876,Control_c,0,74,40,
3,4561065,Control_c,0,71,14,
3,4561356,Control_c,0,74,40,
3,4561545,Control_c,0,71,14,
3,4561836,Control_c,0,74,40,
3,4561920,Note_off_c,0,68,0,
3,4561920,Note_on_c,0,61,85,
3,4562025,Control_c,0,71,14,
3,4562316,Control_c,0,74,40,
3,4562505,Control_c,0,71,14,
3,4562796,Control_c,0,74,40,
3,4562985,Control_c,0,71,14,
3,4563276,Control_c,0,74,40,
3,4563465,Control_c,0,71,14,
3,4563756,Control_c,0,74,40,
3,4563945,Control_c,0,71,14,
3,4564236,Control_c,0,74,40,
3,4564425,Control_c,0,71,14,
3,4564716,Control_c,0,74,40,
3,4564905,Control_c,0,71,14,
3,4565196,Control_c,0,74,40,
3,4565385,Control_c,0,71,14,
3,4565676,Control_c,0,74,40,
3,4565865,Control_c,0,71,14,
3,4566156,Control_c,0,74,40,
3,4566345,Control_c,0,71,14,
3,4566636,Control_c,0,74,40,
3,4566825,Control_c,0,71,14,
3,4567116,Control_c,0,74,40,
3,4567305,Control_c,0,71,14,
3,4567596,Control_c,0,74,40,
3,4567785,Control_c,0,71,14,
3,4568076,Control_c,0,74,40,
3,4568265,Control_c,0,71,14,
3,4568556,Control_c,0,74,40,
3,4568745,Control_c,0,71,14,
3,4569036,Control_c,0,74,40,
3,4569225,Control_c,0,71,14,
3,4569516,Control_c,0,74,40,
3,4569600,Note_off_c,0,61,0,
3,4569600,Note_on_c,0,63,50,
3,4569705,Control_c,0,71,14,
3,4569996,Control_c,0,74,40,
3,4570185,Control_c,0,71,15,
3,4570476,Control_c,0,74,40,
3,4570665,Control_c,0,71,15,
3,4570956,Control_c,0,74,40,
3,4571145,Control_c,0,71,15,
3,4571436,Control_c,0,74,40,
3,4571625,Control_c,0,71,15,
3,4571916,Control_c,0,74,41,
3,4572105,Control_c,0,71,15,
3,4572396,Control_c,0,74,41,
3,4572585,Control_c,0,71,15,
3,4572876,Control_c,0,74,41,
3,4573065,Control_c,0,71,15,
3,4573356,Control_c,0,74,41,
3,4573545,Control_c,0,71,15,
3,4573836,Control_c,0,74,41,
3,4574025,Control_c,0,71,15,
3,4574316,Control_c,0,74,41,
3,4574505,Control_c,0,71,15,
3,4574796,Control_c,0,74,41,
3,4574985,Control_c,0,71,15,
3,4575276,Control_c,0,74,41,
3,4575465,Control_c,0,71,15,
3,4575756,Control_c,0,74,41,
3,4575945,Control_c,0,71,15,
3,4576236,Control_c,0,74,41,
3,4576425,Control_c,0,71,15,
3,4576716,Control_c,0,74,41,
3,4576905,Control_c,0,71,15,
3,4577196,Control_c,0,74,41,
3,4577280,Note_off_c,0,63,0,
3,4577280,Note_on_c,0,64,45,
3,4577385,Control_c,0,71,15,
3,4577676,Control_c,0,74,41,
3,4577865,Control_c,0,71,15,
3,4578156,Control_c,0,74,41,
3,4578345,Control_c,0,71,15,
3,4578636,Control_c,0,74,41,
3,4578825,Control_c,0,71,15,
3,4579116,Control_c,0,74,41,
3,4579305,Control_c,0,71,15,
3,4579596,Control_c,0,74,41,
3,4579785,Control_c,0,71,15,
3,4580076,Control_c,0,74,41,
3,4580265,Control_c,0,71,16,
3,4580556,Control_c,0,74,41,
3,4580745,Control_c,0,71,16,
3,4581036,Control_c,0,74,41,
3,4581225,Control_c,0,71,16,
3,4581516,Control_c,0,74,41,
3,4581705,Control_c,0,71,16,
3,4581996,Control_c,0,74,41,
3,4582185,Control_c,0,71,16,
3,4582476,Control_c,0,74,41,
3,4582665,Control_c,0,71,16,
3,4582956,Control_c,0,74,41,
3,4583145,Control_c,0,71,16,
3,4583436,Control_c,0,74,42,
3,4583625,Control_c,0,71,16,
3,4583916,Control_c,0,74,42,
3,4584105,Control_c,0,71,16,
3,4584396,Control_c,0,74,42,
3,4584585,Control_c,0,71,16,
3,4584876,Control_c,0,74,42,
3,4584960,Note_off_c,0,64,0,
3,4584960,Note_on_c,0,66,61,
3,4585065,Control_c,0,71,16,
3,4585356,Control_c,0,74,42,
3,4585545,Control_c,0,71,16,
3,4585836,Control_c,0,74,42,
3,4586025,Control_c,0,71,16,
3,4586316,Control_c,0,74,42,
3,4586505,Control_c,0,71,16,
3,4586796,Control_c,0,74,42,
3,4586985,Control_c,0,71,16,
3,4587276,Control_c,0,74,42,
3,4587465,Control_c,0,71,16,
3,4587756,Control_c,0,74,42,
3,4587945,Control_c,0,71,16,
3,4588236,Control_c,0,74,42,
3,4588425,Control_c,0,71,16,
3,4588716,Control_c,0,74,42,
3,4588905,Control_c,0,71,16,
3,4589196,Control_c,0,74,42,
3,4589385,Control_c,0,71,16,
3,4589676,Control_c,0,74,42,
3,4589865,Control_c,0,71,16,
3,4590156,Control_c,0,74,42,
3,4590345,Control_c,0,71,16,
3,4590636,Control_c,0,74,42,
3,4590825,Control_c,0,71,17,
3,4591116,Control_c,0,74,42,
3,4591305,Control_c,0,71,17,
3,4591596,Control_c,0,74,42,
3,4591785,Control_c,0,71,17,
3,4592076,Control_c,0,74,42,
3,4592265,Control_c,0,71,17,
3,4592556,Control_c,0,74,42,
3,4592640,Note_off_c,0,66,0,
3,4592640,Note_on_c,0,61,48,
3,4592745,Control_c,0,71,17,
3,4593036,Control_c,0,74,42,
3,4593225,Control_c,0,71,17,
3,4593516,Control_c,0,74,42,
3,4593705,Control_c,0,71,17,
3,4593996,Control_c,0,74,42,
3,4594185,Control_c,0,71,17,
3,4594476,Control_c,0,74,42,
3,4594665,Control_c,0,71,17,
3,4594956,Control_c,0,74,43,
3,4595145,Control_c,0,71,17,
3,4595436,Control_c,0,74,43,
3,4595625,Control_c,0,71,17,
3,4595916,Control_c,0,74,43,
3,4596105,Control_c,0,71,17,
3,4596396,Control_c,0,74,43,
3,4596585,Control_c,0,71,17,
3,4596876,Control_c,0,74,43,
3,4597065,Control_c,0,71,17,
3,4597356,Control_c,0,74,43,
3,4597545,Control_c,0,71,17,
3,4597836,Control_c,0,74,43,
3,4598025,Control_c,0,71,17,
3,4598316,Control_c,0,74,43,
3,4598505,Control_c,0,71,17,
3,4598796,Control_c,0,74,43,
3,4598985,Control_c,0,71,17,
3,4599276,Control_c,0,74,43,
3,4599465,Control_c,0,71,17,
3,4599756,Control_c,0,74,43,
3,4599945,Control_c,0,71,17,
3,4600236,Control_c,0,74,43,
3,4600320,Note_off_c,0,61,0,
3,4600320,Note_on_c,0,63,44,
3,4600425,Control_c,0,71,17,
3,4600716,Control_c,0,74,43,
3,4600905,Control_c,0,71,17,
3,4601196,Control_c,0,74,43,
3,4601385,Control_c,0,71,18,
3,4601676,Control_c,0,74,43,
3,4601865,Control_c,0,71,18,
3,4602156,Control_c,0,74,43,
3,4602345,Control_c,0,71,18,
3,4602636,Control_c,0,74,43,
3,4602825,Control_c,0,71,18,
3,4603116,Control_c,0,74,43,
3,4603305,Control_c,0,71,18,
3,4603596,Control_c,0,74,43,
3,4603785,Control_c,0,71,18,
3,4604076,Control_c,0,74,43,
3,4604265,Control_c,0,71,18,
3,4604556,Control_c,0,74,43,
3,4604745,Control_c,0,71,18,
3,4605036,Control_c,0,74,43,
3,4605225,Control_c,0,71,18,
3,4605516,Control_c,0,74,43,
3,4605705,Control_c,0,71,18,
3,4605996,Control_c,0,74,43,
3,4606185,Control_c,0,71,18,
3,4606476,Control_c,0,74,43,
3,4606665,Control_c,0,71,18,
3,4606956,Control_c,0,74,44,
3,4607145,Control_c,0,71,18,
3,4607436,Control_c,0,74,44,
3,4607625,Control_c,0,71,18,
3,4607916,Control_c,0,74,44,
3,4608000,Note_off_c,0,63,0,
3,4608000,Note_on_c,0,64,58,
3,4608105,Control_c,0,71,18,
3,4608396,Control_c,0,74,44,
3,4608585,Control_c,0,71,18,
3,4608876,Control_c,0,74,44,
3,4609065,Control_c,0,71,18,
3,4609356,Control_c,0,74,44,
3,4609545,Control_c,0,71,18,
3,4609836,Control_c,0,74,44,
3,4610025,Control_c,0,71,18,
3,4610316,Control_c,0,74,44,
3,4610505,Control_c,0,71,18,
3,4610796,Control_c,0,74,44,
3,4610985,Control_c,0,71,18,
3,4611276,Control_c,0,74,44,
3,4611465,Control_c,0,71,19,
3,4611756,Control_c,0,74,44,
3,4611945,Control_c,0,71,19,
3,4612236,Control_c,0,74,44,
3,4612425,Control_c,0,71,19,
3,4612716,Control_c,0,74,44,
3,4612905,Control_c,0,71,19,
3,4613196,Control_c,0,74,44,
3,4613385,Control_c,0,71,19,
3,4613676,Control_c,0,74,44,
3,4613865,Control_c,0,71,19,
3,4614156,Control_c,0,74,44,
3,4614345,Control_c,0,71,19,
3,4614636,Control_c,0,74,44,
3,4614825,Control_c,0,71,19,
3,4615116,Control_c,0,74,44,
3,4615305,Control_c,0,71,19,
3,4615596,Control_c,0,74,44,
3,4615680,Note_off_c,0,64,0,
3,4615680,Note_on_c,0,68,69,
3,4615785,Control_c,0,71,19,
3,4616076,Control_c,0,74,44,
3,4616265,Control_c,0,71,19,
3,4616556,Control_c,0,74,44,
3,4616745,Control_c,0,71,19,
3,4617036,Control_c,0,74,44,
3,4617225,Control_c,0,71,19,
3,4617516,Control_c,0,74,44,
3,4617705,Control_c,0,71,19,
3,4617996,Control_c,0,74,44,
3,4618185,Control_c,0,71,19,
3,4618476,Control_c,0,74,45,
3,4618665,Control_c,0,71,19,
3,4618956,Control_c,0,74,45,
3,4619145,Control_c,0,71,19,
3,4619436,Control_c,0,74,45,
3,4619625,Control_c,0,71,19,
3,4619916,Control_c,0,74,45,
3,4620105,Control_c,0,71,19,
3,4620396,Control_c,0,74,45,
3,4620585,Control_c,0,71,19,
3,4620876,Control_c,0,74,45,
3,4621065,Control_c,0,71,19,
3,4621356,Control_c,0,74,45,
3,4621545,Control_c,0,71,19,
3,4621836,Control_c,0,74,45,
3,4622025,Control_c,0,71,20,
3,4622316,Control_c,0,74,45,
3,4622505,Control_c,0,71,20,
3,4622796,Control_c,0,74,45,
3,4622985,Control_c,0,71,20,
3,4623276,Control_c,0,74,45,
3,4623360,Note_off_c,0,49,0,
3,4623360,Note_off_c,0,68,0,
3,4623360,Note_on_c,0,50,55,
3,4623360,Note_on_c,0,62,61,
3,4623465,Control_c,0,71,20,
3,4623756,Control_c,0,74,45,
3,4623945,Control_c,0,71,20,
3,4624236,Control_c,0,74,45,
3,4624425,Control_c,0,71,20,
3,4624716,Control_c,0,74,45,
3,4624905,Control_c,0,71,20,
3,4625196,Control_c,0,74,45,
3,4625385,Control_c,0,71,20,
3,4625676,Control_c,0,74,45,
3,4625865,Control_c,0,71,20,
3,4626156,Control_c,0,74,45,
3,4626345,Control_c,0,71,20,
3,4626636,Control_c,0,74,45,
3,4626825,Control_c,0,71,20,
3,4627116,Control_c,0,74,45,
3,4627305,Control_c,0,71,20,
3,4627596,Control_c,0,74,45,
3,4627785,Control_c,0,71,20,
3,4628076,Control_c,0,74,45,
3,4628265,Control_c,0,71,20,
3,4628556,Control_c,0,74,45,
3,4628745,Control_c,0,71,20,
3,4629036,Control_c,0,74,45,
3,4629225,Control_c,0,71,20,
3,4629516,Control_c,0,74,45,
3,4629705,Control_c,0,71,20,
3,4629996,Control_c,0,74,46,
3,4630185,Control_c,0,71,20,
3,4630476,Control_c,0,74,46,
3,4630665,Control_c,0,71,20,
3,4630956,Control_c,0,74,46,
3,4631040,Note_off_c,0,62,0,
3,4631040,Note_on_c,0,64,38,
3,4631145,Control_c,0,71,20,
3,4631436,Control_c,0,74,46,
3,4631625,Control_c,0,71,20,
3,4631916,Control_c,0,74,46,
3,4632105,Control_c,0,71,21,
3,4632396,Control_c,0,74,46,
3,4632585,Control_c,0,71,21,
3,4632876,Control_c,0,74,46,
3,4633065,Control_c,0,71,21,
3,4633356,Control_c,0,74,46,
3,4633545,Control_c,0,71,21,
3,4633836,Control_c,0,74,46,
3,4634025,Control_c,0,71,21,
3,4634316,Control_c,0,74,46,
3,4634505,Control_c,0,71,21,
3,4634796,Control_c,0,74,46,
3,4634985,Control_c,0,71,21,
3,4635276,Control_c,0,74,46,
3,4635465,Control_c,0,71,21,
3,4635756,Control_c,0,74,46,
3,4635945,Control_c,0,71,21,
3,4636236,Control_c,0,74,46,
3,4636425,Control_c,0,71,21,
3,4636716,Control_c,0,74,46,
3,4636905,Control_c,0,71,21,
3,4637196,Control_c,0,74,46,
3,4637385,Control_c,0,71,21,
3,4637676,Control_c,0,74,46,
3,4637865,Control_c,0,71,21,
3,4638156,Control_c,0,74,46,
3,4638345,Control_c,0,71,21,
3,4638636,Control_c,0,74,46,
3,4638720,Note_off_c,0,64,0,
3,4638720,Note_on_c,0,66,47,
3,4638825,Control_c,0,71,21,
3,4639116,Control_c,0,74,46,
3,4639305,Control_c,0,71,21,
3,4639596,Control_c,0,74,46,
3,4639785,Control_c,0,71,21,
3,4640076,Control_c,0,74,46,
3,4640265,Control_c,0,71,21,
3,4640556,Control_c,0,74,46,
3,4640745,Control_c,0,71,21,
3,4641036,Control_c,0,74,46,
3,4641225,Control_c,0,71,21,
3,4641516,Control_c,0,74,47,
3,4641705,Control_c,0,71,21,
3,4641996,Control_c,0,74,47,
3,4642185,Control_c,0,71,21,
3,4642476,Control_c,0,74,47,
3,4642665,Control_c,0,71,22,
3,4642956,Control_c,0,74,47,
3,4643145,Control_c,0,71,22,
3,4643436,Control_c,0,74,47,
3,4643625,Control_c,0,71,22,
3,4643916,Control_c,0,74,47,
3,4644105,Control_c,0,71,22,
3,4644396,Control_c,0,74,47,
3,4644585,Control_c,0,71,22,
3,4644876,Control_c,0,74,47,
3,4645065,Control_c,0,71,22,
3,4645356,Control_c,0,74,47,
3,4645545,Control_c,0,71,22,
3,4645836,Control_c,0,74,47,
3,4646025,Control_c,0,71,22,
3,4646316,Control_c,0,74,47,
3,4646400,Note_off_c,0,66,0,
3,4646400,Note_on_c,0,68,49,
3,4646505,Control_c,0,71,22,
3,4646796,Control_c,0,74,47,
3,4646985,Control_c,0,71,22,
3,4647276,Control_c,0,74,47,
3,4647465,Control_c,0,71,22,
3,4647756,Control_c,0,74,47,
3,4647945,Control_c,0,71,22,
3,4648236,Control_c,0,74,47,
3,4648425,Control_c,0,71,22,
3,4648716,Control_c,0,74,47,
3,4648905,Control_c,0,71,22,
3,4649196,Control_c,0,74,47,
3,4649385,Control_c,0,71,22,
3,4649676,Control_c,0,74,47,
3,4649865,Control_c,0,71,22,
3,4650156,Control_c,0,74,47,
3,4650345,Control_c,0,71,22,
3,4650636,Control_c,0,74,47,
3,4650825,Control_c,0,71,22,
3,4651116,Control_c,0,74,47,
3,4651305,Control_c,0,71,22,
3,4651596,Control_c,0,74,47,
3,4651785,Control_c,0,71,22,
3,4652076,Control_c,0,74,47,
3,4652265,Control_c,0,71,22,
3,4652556,Control_c,0,74,47,
3,4652745,Control_c,0,71,22,
3,4653036,Control_c,0,74,47,
3,4653225,Control_c,0,71,23,
3,4653516,Control_c,0,74,48,
3,4653705,Control_c,0,71,23,
3,4653996,Control_c,0,74,48,
3,4654080,Note_off_c,0,68,0,
3,4654080,Note_on_c,0,62,60,
3,4654185,Control_c,0,71,23,
3,4654476,Control_c,0,74,48,
3,4654665,Control_c,0,71,23,
3,4654956,Control_c,0,74,48,
3,4655145,Control_c,0,71,23,
3,4655436,Control_c,0,74,48,
3,4655625,Control_c,0,71,23,
3,4655916,Control_c,0,74,48,
3,4656105,Control_c,0,71,23,
3,4656396,Control_c,0,74,48,
3,4656585,Control_c,0,71,23,
3,4656876,Control_c,0,74,48,
3,4657065,Control_c,0,71,23,
3,4657356,Control_c,0,74,48,
3,4657545,Control_c,0,71,23,
3,4657836,Control_c,0,74,48,
3,4658025,Control_c,0,71,23,
3,4658316,Control_c,0,74,48,
3,4658505,Control_c,0,71,23,
3,4658796,Control_c,0,74,48,
3,4658985,Control_c,0,71,23,
3,4659276,Control_c,0,74,48,
3,4659465,Control_c,0,71,23,
3,4659756,Control_c,0,74,48,
3,4659945,Control_c,0,71,23,
3,4660236,Control_c,0,74,48,
3,4660425,Control_c,0,71,23,
3,4660716,Control_c,0,74,48,
3,4660905,Control_c,0,71,23,
3,4661196,Control_c,0,74,48,
3,4661385,Control_c,0,71,23,
3,4661676,Control_c,0,74,48,
3,4661760,Note_off_c,0,62,0,
3,4661760,Note_on_c,0,64,36,
3,4661865,Control_c,0,71,23,
3,4662156,Control_c,0,74,48,
3,4662345,Control_c,0,71,23,
3,4662636,Control_c,0,74,48,
3,4662825,Control_c,0,71,23,
3,4663116,Control_c,0,74,48,
3,4663305,Control_c,0,71,24,
3,4663596,Control_c,0,74,48,
3,4663785,Control_c,0,71,24,
3,4664076,Control_c,0,74,48,
3,4664265,Control_c,0,71,24,
3,4664556,Control_c,0,74,48,
3,4664745,Control_c,0,71,24,
3,4665036,Control_c,0,74,49,
3,4665225,Control_c,0,71,24,
3,4665516,Control_c,0,74,49,
3,4665705,Control_c,0,71,24,
3,4665996,Control_c,0,74,49,
3,4666185,Control_c,0,71,24,
3,4666476,Control_c,0,74,49,
3,4666665,Control_c,0,71,24,
3,4666956,Control_c,0,74,49,
3,4667145,Control_c,0,71,24,
3,4667436,Control_c,0,74,49,
3,4667625,Control_c,0,71,24,
3,4667916,Control_c,0,74,49,
3,4668105,Control_c,0,71,24,
3,4668396,Control_c,0,74,49,
3,4668585,Control_c,0,71,24,
3,4668876,Control_c,0,74,49,
3,4669065,Control_c,0,71,24,
3,4669356,Control_c,0,74,49,
3,4669440,Note_off_c,0,64,0,
3,4669440,Note_on_c,0,66,47,
3,4669545,Control_c,0,71,24,
3,4669836,Control_c,0,74,49,
3,4670025,Control_c,0,71,24,
3,4670316,Control_c,0,74,49,
3,4670505,Control_c,0,71,24,
3,4670796,Control_c,0,74,49,
3,4670985,Control_c,0,71,24,
3,4671276,Control_c,0,74,49,
3,4671465,Control_c,0,71,24,
3,4671756,Control_c,0,74,49,
3,4671945,Control_c,0,71,24,
3,4672236,Control_c,0,74,49,
3,4672425,Control_c,0,71,24,
3,4672716,Control_c,0,74,49,
3,4672905,Control_c,0,71,24,
3,4673196,Control_c,0,74,49,
3,4673385,Control_c,0,71,24,
3,4673676,Control_c,0,74,49,
3,4673865,Control_c,0,71,25,
3,4674156,Control_c,0,74,49,
3,4674345,Control_c,0,71,25,
3,4674636,Control_c,0,74,49,
3,4674825,Control_c,0,71,25,
3,4675116,Control_c,0,74,49,
3,4675305,Control_c,0,71,25,
3,4675596,Control_c,0,74,49,
3,4675785,Control_c,0,71,25,
3,4676076,Control_c,0,74,49,
3,4676265,Control_c,0,71,25,
3,4676556,Control_c,0,74,50,
3,4676745,Control_c,0,71,25,
3,4677036,Control_c,0,74,50,
3,4677120,Note_off_c,0,66,0,
3,4677120,Note_on_c,0,69,75,
3,4677225,Control_c,0,71,25,
3,4677516,Control_c,0,74,50,
3,4677705,Control_c,0,71,25,
3,4677996,Control_c,0,74,50,
3,4678185,Control_c,0,71,25,
3,4678476,Control_c,0,74,50,
3,4678665,Control_c,0,71,25,
3,4678956,Control_c,0,74,50,
3,4679145,Control_c,0,71,25,
3,4679436,Control_c,0,74,50,
3,4679625,Control_c,0,71,25,
3,4679916,Control_c,0,74,50,
3,4680105,Control_c,0,71,25,
3,4680396,Control_c,0,74,50,
3,4680585,Control_c,0,71,25,
3,4680876,Control_c,0,74,50,
3,4681065,Control_c,0,71,25,
3,4681356,Control_c,0,74,50,
3,4681545,Control_c,0,71,25,
3,4681836,Control_c,0,74,50,
3,4682025,Control_c,0,71,25,
3,4682316,Control_c,0,74,50,
3,4682505,Control_c,0,71,25,
3,4682796,Control_c,0,74,50,
3,4682985,Control_c,0,71,25,
3,4683276,Control_c,0,74,50,
3,4683465,Control_c,0,71,25,
3,4683756,Control_c,0,74,50,
3,4683945,Control_c,0,71,25,
3,4684236,Control_c,0,74,50,
3,4684425,Control_c,0,71,26,
3,4684716,Control_c,0,74,50,
3,4684800,Note_off_c,0,69,0,
3,4684800,Note_on_c,0,62,79,
3,4684905,Control_c,0,71,26,
3,4685196,Control_c,0,74,50,
3,4685385,Control_c,0,71,26,
3,4685676,Control_c,0,74,50,
3,4685865,Control_c,0,71,26,
3,4686156,Control_c,0,74,50,
3,4686345,Control_c,0,71,26,
3,4686636,Control_c,0,74,50,
3,4686825,Control_c,0,71,26,
3,4687116,Control_c,0,74,50,
3,4687305,Control_c,0,71,26,
3,4687596,Control_c,0,74,50,
3,4687785,Control_c,0,71,26,
3,4688076,Control_c,0,74,51,
3,4688265,Control_c,0,71,26,
3,4688556,Control_c,0,74,51,
3,4688745,Control_c,0,71,26,
3,4689036,Control_c,0,74,51,
3,4689225,Control_c,0,71,26,
3,4689516,Control_c,0,74,51,
3,4689705,Control_c,0,71,26,
3,4689996,Control_c,0,74,51,
3,4690185,Control_c,0,71,26,
3,4690476,Control_c,0,74,51,
3,4690665,Control_c,0,71,26,
3,4690956,Control_c,0,74,51,
3,4691145,Control_c,0,71,26,
3,4691436,Control_c,0,74,51,
3,4691625,Control_c,0,71,26,
3,4691916,Control_c,0,74,51,
3,4692105,Control_c,0,71,26,
3,4692396,Control_c,0,74,51,
3,4692480,Note_off_c,0,62,0,
3,4692480,Note_on_c,0,64,51,
3,4692585,Control_c,0,71,26,
3,4692876,Control_c,0,74,51,
3,4693065,Control_c,0,71,26,
3,4693356,Control_c,0,74,51,
3,4693545,Control_c,0,71,26,
3,4693836,Control_c,0,74,51,
3,4694025,Control_c,0,71,26,
3,4694316,Control_c,0,74,51,
3,4694505,Control_c,0,71,27,
3,4694796,Control_c,0,74,51,
3,4694985,Control_c,0,71,27,
3,4695276,Control_c,0,74,51,
3,4695465,Control_c,0,71,27,
3,4695756,Control_c,0,74,51,
3,4695945,Control_c,0,71,27,
3,4696236,Control_c,0,74,51,
3,4696425,Control_c,0,71,27,
3,4696716,Control_c,0,74,51,
3,4696905,Control_c,0,71,27,
3,4697196,Control_c,0,74,51,
3,4697385,Control_c,0,71,27,
3,4697676,Control_c,0,74,51,
3,4697865,Control_c,0,71,27,
3,4698156,Control_c,0,74,51,
3,4698345,Control_c,0,71,27,
3,4698636,Control_c,0,74,51,
3,4698825,Control_c,0,71,27,
3,4699116,Control_c,0,74,51,
3,4699305,Control_c,0,71,27,
3,4699596,Control_c,0,74,51,
3,4699785,Control_c,0,71,27,
3,4700076,Control_c,0,74,52,
3,4700160,Note_off_c,0,64,0,
3,4700160,Note_on_c,0,66,56,
3,4700265,Control_c,0,71,27,
3,4700556,Control_c,0,74,52,
3,4700745,Control_c,0,71,27,
3,4701036,Control_c,0,74,52,
3,4701225,Control_c,0,71,27,
3,4701516,Control_c,0,74,52,
3,4701705,Control_c,0,71,27,
3,4701996,Control_c,0,74,52,
3,4702185,Control_c,0,71,27,
3,4702476,Control_c,0,74,52,
3,4702665,Control_c,0,71,27,
3,4702956,Control_c,0,74,52,
3,4703145,Control_c,0,71,27,
3,4703436,Control_c,0,74,52,
3,4703625,Control_c,0,71,27,
3,4703916,Control_c,0,74,52,
3,4704105,Control_c,0,71,27,
3,4704396,Control_c,0,74,52,
3,4704585,Control_c,0,71,27,
3,4704876,Control_c,0,74,52,
3,4705065,Control_c,0,71,28,
3,4705356,Control_c,0,74,52,
3,4705545,Control_c,0,71,28,
3,4705836,Control_c,0,74,52,
3,4706025,Control_c,0,71,28,
3,4706316,Control_c,0,74,52,
3,4706505,Control_c,0,71,28,
3,4706796,Control_c,0,74,52,
3,4706985,Control_c,0,71,28,
3,4707276,Control_c,0,74,52,
3,4707465,Control_c,0,71,28,
3,4707756,Control_c,0,74,52,
3,4707840,Note_off_c,0,66,0,
3,4707840,Note_on_c,0,68,57,
3,4707945,Control_c,0,71,28,
3,4708236,Control_c,0,74,52,
3,4708425,Control_c,0,71,28,
3,4708716,Control_c,0,74,52,
3,4708905,Control_c,0,71,28,
3,4709196,Control_c,0,74,52,
3,4709385,Control_c,0,71,28,
3,4709676,Control_c,0,74,52,
3,4709865,Control_c,0,71,28,
3,4710156,Control_c,0,74,52,
3,4710345,Control_c,0,71,28,
3,4710636,Control_c,0,74,52,
3,4710825,Control_c,0,71,28,
3,4711116,Control_c,0,74,52,
3,4711305,Control_c,0,71,28,
3,4711596,Control_c,0,74,53,
3,4711785,Control_c,0,71,28,
3,4712076,Control_c,0,74,53,
3,4712265,Control_c,0,71,28,
3,4712556,Control_c,0,74,53,
3,4712745,Control_c,0,71,28,
3,4713036,Control_c,0,74,53,
3,4713225,Control_c,0,71,28,
3,4713516,Control_c,0,74,53,
3,4713705,Control_c,0,71,28,
3,4713996,Control_c,0,74,53,
3,4714185,Control_c,0,71,28,
3,4714476,Control_c,0,74,53,
3,4714665,Control_c,0,71,28,
3,4714956,Control_c,0,74,53,
3,4715145,Control_c,0,71,29,
3,4715436,Control_c,0,74,53,
3,4715520,Note_off_c,0,68,0,
3,4715520,Note_on_c,0,62,77,
3,4715625,Control_c,0,71,29,
3,4715916,Control_c,0,74,53,
3,4716105,Control_c,0,71,29,
3,4716396,Control_c,0,74,53,
3,4716585,Control_c,0,71,29,
3,4716876,Control_c,0,74,53,
3,4717065,Control_c,0,71,29,
3,4717356,Control_c,0,74,53,
3,4717545,Control_c,0,71,29,
3,4717836,Control_c,0,74,53,
3,4718025,Control_c,0,71,29,
3,4718316,Control_c,0,74,53,
3,4718505,Control_c,0,71,29,
3,4718796,Control_c,0,74,53,
3,4718985,Control_c,0,71,29,
3,4719276,Control_c,0,74,53,
3,4719465,Control_c,0,71,29,
3,4719756,Control_c,0,74,53,
3,4719945,Control_c,0,71,29,
3,4720236,Control_c,0,74,53,
3,4720425,Control_c,0,71,29,
3,4720716,Control_c,0,74,53,
3,4720905,Control_c,0,71,29,
3,4721196,Control_c,0,74,53,
3,4721385,Control_c,0,71,29,
3,4721676,Control_c,0,74,53,
3,4721865,Control_c,0,71,29,
3,4722156,Control_c,0,74,53,
3,4722345,Control_c,0,71,29,
3,4722636,Control_c,0,74,53,
3,4722825,Control_c,0,71,29,
3,4723116,Control_c,0,74,54,
3,4723200,Note_off_c,0,62,0,
3,4723200,Note_on_c,0,64,51,
3,4723305,Control_c,0,71,29,
3,4723596,Control_c,0,74,54,
3,4723785,Control_c,0,71,29,
3,4724076,Control_c,0,74,54,
3,4724265,Control_c,0,71,29,
3,4724556,Control_c,0,74,54,
3,4724745,Control_c,0,71,29,
3,4725036,Control_c,0,74,54,
3,4725225,Control_c,0,71,29,
3,4725516,Control_c,0,74,54,
3,4725705,Control_c,0,71,30,
3,4725996,Control_c,0,74,54,
3,4726185,Control_c,0,71,30,
3,4726476,Control_c,0,74,54,
3,4726665,Control_c,0,71,30,
3,4726956,Control_c,0,74,54,
3,4727145,Control_c,0,71,30,
3,4727436,Control_c,0,74,54,
3,4727625,Control_c,0,71,30,
3,4727916,Control_c,0,74,54,
3,4728105,Control_c,0,71,30,
3,4728396,Control_c,0,74,54,
3,4728585,Control_c,0,71,30,
3,4728876,Control_c,0,74,54,
3,4729065,Control_c,0,71,30,
3,4729356,Control_c,0,74,54,
3,4729545,Control_c,0,71,30,
3,4729836,Control_c,0,74,54,
3,4730025,Control_c,0,71,30,
3,4730316,Control_c,0,74,54,
3,4730505,Control_c,0,71,30,
3,4730796,Control_c,0,74,54,
3,4730880,Note_off_c,0,64,0,
3,4730880,Note_on_c,0,66,50,
3,4730985,Control_c,0,71,30,
3,4731276,Control_c,0,74,54,
3,4731465,Control_c,0,71,30,
3,4731756,Control_c,0,74,54,
3,4731945,Control_c,0,71,30,
3,4732236,Control_c,0,74,54,
3,4732425,Control_c,0,71,30,
3,4732716,Control_c,0,74,54,
3,4732905,Control_c,0,71,30,
3,4733196,Control_c,0,74,54,
3,4733385,Control_c,0,71,30,
3,4733676,Control_c,0,74,54,
3,4733865,Control_c,0,71,30,
3,4734156,Control_c,0,74,54,
3,4734345,Control_c,0,71,30,
3,4734636,Control_c,0,74,55,
3,4734825,Control_c,0,71,30,
3,4735116,Control_c,0,74,55,
3,4735305,Control_c,0,71,30,
3,4735596,Control_c,0,74,55,
3,4735785,Control_c,0,71,30,
3,4736076,Control_c,0,74,55,
3,4736265,Control_c,0,71,31,
3,4736556,Control_c,0,74,55,
3,4736745,Control_c,0,71,31,
3,4737036,Control_c,0,74,55,
3,4737225,Control_c,0,71,31,
3,4737516,Control_c,0,74,55,
3,4737705,Control_c,0,71,31,
3,4737996,Control_c,0,74,55,
3,4738185,Control_c,0,71,31,
3,4738476,Control_c,0,74,55,
3,4738560,Note_off_c,0,66,0,
3,4738560,Note_on_c,0,69,50,
3,4738665,Control_c,0,71,31,
3,4738956,Control_c,0,74,55,
3,4739145,Control_c,0,71,31,
3,4739436,Control_c,0,74,55,
3,4739625,Control_c,0,71,31,
3,4739916,Control_c,0,74,55,
3,4740105,Control_c,0,71,31,
3,4740396,Control_c,0,74,55,
3,4740585,Control_c,0,71,31,
3,4740876,Control_c,0,74,55,
3,4741065,Control_c,0,71,31,
3,4741356,Control_c,0,74,55,
3,4741545,Control_c,0,71,31,
3,4741836,Control_c,0,74,55,
3,4742025,Control_c,0,71,31,
3,4742316,Control_c,0,74,55,
3,4742505,Control_c,0,71,31,
3,4742796,Control_c,0,74,55,
3,4742985,Control_c,0,71,31,
3,4743276,Control_c,0,74,55,
3,4743465,Control_c,0,71,31,
3,4743756,Control_c,0,74,55,
3,4743945,Control_c,0,71,31,
3,4744236,Control_c,0,74,55,
3,4744425,Control_c,0,71,31,
3,4744716,Control_c,0,74,55,
3,4744905,Control_c,0,71,31,
3,4745196,Control_c,0,74,55,
3,4745385,Control_c,0,71,31,
3,4745676,Control_c,0,74,55,
3,4745865,Control_c,0,71,31,
3,4746156,Control_c,0,74,55,
3,4746240,Note_off_c,0,50,0,
3,4746240,Note_off_c,0,69,0,
3,4746240,Note_on_c,0,52,86,
3,4746240,Note_on_c,0,64,50,
3,4746240,Control_c,0,71,32,
3,4746240,Control_c,0,74,56,
3,4746720,Control_c,0,71,31,
3,4746720,Control_c,0,74,56,
3,4747200,Control_c,0,71,31,
3,4747200,Control_c,0,74,56,
3,4747680,Control_c,0,71,31,
3,4747680,Control_c,0,74,56,
3,4748160,Control_c,0,71,31,
3,4748160,Control_c,0,74,56,
3,4748640,Control_c,0,71,31,
3,4748640,Control_c,0,74,56,
3,4749120,Control_c,0,71,31,
3,4749120,Control_c,0,74,56,
3,4749600,Control_c,0,71,31,
3,4749600,Control_c,0,74,56,
3,4750080,Control_c,0,71,31,
3,4750080,Control_c,0,74,56,
3,4750560,Control_c,0,71,31,
3,4750560,Control_c,0,74,56,
3,4751040,Control_c,0,71,31,
3,4751040,Control_c,0,74,56,
3,4751520,Control_c,0,71,31,
3,4751520,Control_c,0,74,56,
3,4752000,Control_c,0,71,31,
3,4752000,Control_c,0,74,56,
3,4752480,Control_c,0,71,31,
3,4752480,Control_c,0,74,56,
3,4752960,Control_c,0,71,31,
3,4752960,Control_c,0,74,56,
3,4753440,Control_c,0,71,31,
3,4753440,Control_c,0,74,56,
3,4753920,Note_off_c,0,64,0,
3,4753920,Note_on_c,0,66,55,
3,4753920,Control_c,0,71,31,
3,4753920,Control_c,0,74,56,
3,4754400,Control_c,0,71,31,
3,4754400,Control_c,0,74,56,
3,4754880,Control_c,0,71,31,
3,4754880,Control_c,0,74,56,
3,4755360,Control_c,0,71,31,
3,4755360,Control_c,0,74,56,
3,4755840,Control_c,0,71,31,
3,4755840,Control_c,0,74,56,
3,4756320,Control_c,0,71,31,
3,4756320,Control_c,0,74,56,
3,4756800,Control_c,0,71,31,
3,4756800,Control_c,0,74,56,
3,4757280,Control_c,0,71,31,
3,4757280,Control_c,0,74,56,
3,4757760,Control_c,0,71,31,
3,4757760,Control_c,0,74,57,
3,4758240,Control_c,0,71,31,
3,4758240,Control_c,0,74,57,
3,4758720,Control_c,0,71,31,
3,4758720,Control_c,0,74,57,
3,4759200,Control_c,0,71,31,
3,4759200,Control_c,0,74,57,
3,4759680,Control_c,0,71,31,
3,4759680,Control_c,0,74,57,
3,4760160,Control_c,0,71,31,
3,4760160,Control_c,0,74,57,
3,4760640,Control_c,0,71,31,
3,4760640,Control_c,0,74,57,
3,4761120,Control_c,0,71,31,
3,4761120,Control_c,0,74,57,
3,4761600,Note_off_c,0,66,0,
3,4761600,Note_on_c,0,68,15,
3,4761600,Control_c,0,71,31,
3,4761600,Control_c,0,74,57,
3,4762080,Control_c,0,71,31,
3,4762080,Control_c,0,74,57,
3,4762560,Control_c,0,71,31,
3,4762560,Control_c,0,74,57,
3,4763040,Control_c,0,71,31,
3,4763040,Control_c,0,74,57,
3,4763520,Control_c,0,71,31,
3,4763520,Control_c,0,74,57,
3,4764000,Control_c,0,71,31,
3,4764000,Control_c,0,74,57,
3,4764480,Control_c,0,71,31,
3,4764480,Control_c,0,74,57,
3,4764960,Control_c,0,71,31,
3,4764960,Control_c,0,74,57,
3,4765440,Control_c,0,71,31,
3,4765440,Control_c,0,74,57,
3,4765920,Control_c,0,71,31,
3,4765920,Control_c,0,74,57,
3,4766400,Control_c,0,71,31,
3,4766400,Control_c,0,74,57,
3,4766880,Control_c,0,71,31,
3,4766880,Control_c,0,74,57,
3,4767360,Control_c,0,71,31,
3,4767360,Control_c,0,74,57,
3,4767840,Control_c,0,71,31,
3,4767840,Control_c,0,74,57,
3,4768320,Control_c,0,71,31,
3,4768320,Control_c,0,74,57,
3,4768800,Control_c,0,71,31,
3,4768800,Control_c,0,74,57,
3,4769280,Note_off_c,0,68,0,
3,4769280,Note_on_c,0,71,43,
3,4769280,Control_c,0,71,31,
3,4769280,Control_c,0,74,58,
3,4769760,Control_c,0,71,31,
3,4769760,Control_c,0,74,58,
3,4770240,Control_c,0,71,31,
3,4770240,Control_c,0,74,58,
3,4770720,Control_c,0,71,31,
3,4770720,Control_c,0,74,58,
3,4771200,Control_c,0,71,31,
3,4771200,Control_c,0,74,58,
3,4771680,Control_c,0,71,31,
3,4771680,Control_c,0,74,58,
3,4772160,Control_c,0,71,31,
3,4772160,Control_c,0,74,58,
3,4772640,Control_c,0,71,31,
3,4772640,Control_c,0,74,58,
3,4773120,Control_c,0,71,31,
3,4773120,Control_c,0,74,58,
3,4773600,Control_c,0,71,31,
3,4773600,Control_c,0,74,58,
3,4774080,Control_c,0,71,31,
3,4774080,Control_c,0,74,58,
3,4774560,Control_c,0,71,31,
3,4774560,Control_c,0,74,58,
3,4775040,Control_c,0,71,31,
3,4775040,Control_c,0,74,58,
3,4775520,Control_c,0,71,31,
3,4775520,Control_c,0,74,58,
3,4776000,Control_c,0,71,31,
3,4776000,Control_c,0,74,58,
3,4776480,Control_c,0,71,31,
3,4776480,Control_c,0,74,58,
3,4776960,Note_off_c,0,71,0,
3,4776960,Note_on_c,0,64,52,
3,4776960,Control_c,0,71,31,
3,4776960,Control_c,0,74,58,
3,4777440,Control_c,0,71,31,
3,4777440,Control_c,0,74,58,
3,4777920,Control_c,0,71,30,
3,4777920,Control_c,0,74,58,
3,4778400,Control_c,0,71,30,
3,4778400,Control_c,0,74,58,
3,4778880,Control_c,0,71,30,
3,4778880,Control_c,0,74,58,
3,4779360,Control_c,0,71,30,
3,4779360,Control_c,0,74,58,
3,4779840,Control_c,0,71,30,
3,4779840,Control_c,0,74,58,
3,4780320,Control_c,0,71,30,
3,4780320,Control_c,0,74,58,
3,4780800,Control_c,0,71,30,
3,4780800,Control_c,0,74,59,
3,4781280,Control_c,0,71,30,
3,4781280,Control_c,0,74,59,
3,4781760,Control_c,0,71,30,
3,4781760,Control_c,0,74,59,
3,4782240,Control_c,0,71,30,
3,4782240,Control_c,0,74,59,
3,4782720,Control_c,0,71,30,
3,4782720,Control_c,0,74,59,
3,4783200,Control_c,0,71,30,
3,4783200,Control_c,0,74,59,
3,4783680,Control_c,0,71,30,
3,4783680,Control_c,0,74,59,
3,4784160,Control_c,0,71,30,
3,4784160,Control_c,0,74,59,
3,4784640,Note_off_c,0,64,0,
3,4784640,Note_on_c,0,66,56,
3,4784640,Control_c,0,71,30,
3,4784640,Control_c,0,74,59,
3,4785120,Control_c,0,71,30,
3,4785120,Control_c,0,74,59,
3,4785600,Control_c,0,71,30,
3,4785600,Control_c,0,74,59,
3,4786080,Control_c,0,71,30,
3,4786080,Control_c,0,74,59,
3,4786560,Control_c,0,71,30,
3,4786560,Control_c,0,74,59,
3,4787040,Control_c,0,71,30,
3,4787040,Control_c,0,74,59,
3,4787520,Control_c,0,71,30,
3,4787520,Control_c,0,74,59,
3,4788000,Control_c,0,71,30,
3,4788000,Control_c,0,74,59,
3,4788480,Control_c,0,71,30,
3,4788480,Control_c,0,74,59,
3,4788960,Control_c,0,71,30,
3,4788960,Control_c,0,74,59,
3,4789440,Control_c,0,71,30,
3,4789440,Control_c,0,74,59,
3,4789920,Control_c,0,71,30,
3,4789920,Control_c,0,74,59,
3,4790400,Control_c,0,71,30,
3,4790400,Control_c,0,74,59,
3,4790880,Control_c,0,71,30,
3,4790880,Control_c,0,74,59,
3,4791360,Control_c,0,71,30,
3,4791360,Control_c,0,74,59,
3,4791840,Control_c,0,71,30,
3,4791840,Control_c,0,74,59,
3,4792320,Note_off_c,0,66,0,
3,4792320,Note_on_c,0,68,16,
3,4792320,Control_c,0,71,30,
3,4792320,Control_c,0,74,60,
3,4792800,Control_c,0,71,30,
3,4792800,Control_c,0,74,60,
3,4793280,Control_c,0,71,30,
3,4793280,Control_c,0,74,60,
3,4793760,Control_c,0,71,30,
3,4793760,Control_c,0,74,60,
3,4794240,Control_c,0,71,30,
3,4794240,Control_c,0,74,60,
3,4794720,Control_c,0,71,30,
3,4794720,Control_c,0,74,60,
3,4795200,Control_c,0,71,30,
3,4795200,Control_c,0,74,60,
3,4795680,Control_c,0,71,30,
3,4795680,Control_c,0,74,60,
3,4796160,Control_c,0,71,30,
3,4796160,Control_c,0,74,60,
3,4796640,Control_c,0,71,30,
3,4796640,Control_c,0,74,60,
3,4797120,Control_c,0,71,30,
3,4797120,Control_c,0,74,60,
3,4797600,Control_c,0,71,30,
3,4797600,Control_c,0,74,60,
3,4798080,Control_c,0,71,30,
3,4798080,Control_c,0,74,60,
3,4798560,Control_c,0,71,30,
3,4798560,Control_c,0,74,60,
3,4799040,Control_c,0,71,30,
3,4799040,Control_c,0,74,60,
3,4799520,Control_c,0,71,30,
3,4799520,Control_c,0,74,60,
3,4800000,Note_off_c,0,68,0,
3,4800000,Note_on_c,0,73,54,
3,4800000,Control_c,0,71,30,
3,4800000,Control_c,0,74,60,
3,4800480,Control_c,0,71,30,
3,4800480,Control_c,0,74,60,
3,4800960,Control_c,0,71,30,
3,4800960,Control_c,0,74,60,
3,4801440,Control_c,0,71,30,
3,4801440,Control_c,0,74,60,
3,4801920,Control_c,0,71,30,
3,4801920,Control_c,0,74,60,
3,4802400,Control_c,0,71,30,
3,4802400,Control_c,0,74,60,
3,4802880,Control_c,0,71,30,
3,4802880,Control_c,0,74,60,
3,4803360,Control_c,0,71,30,
3,4803360,Control_c,0,74,60,
3,4803840,Control_c,0,71,30,
3,4803840,Control_c,0,74,61,
3,4804320,Control_c,0,71,30,
3,4804320,Control_c,0,74,61,
3,4804800,Control_c,0,71,30,
3,4804800,Control_c,0,74,61,
3,4805280,Control_c,0,71,30,
3,4805280,Control_c,0,74,61,
3,4805760,Control_c,0,71,30,
3,4805760,Control_c,0,74,61,
3,4806240,Control_c,0,71,30,
3,4806240,Control_c,0,74,61,
3,4806720,Control_c,0,71,30,
3,4806720,Control_c,0,74,61,
3,4807200,Control_c,0,71,30,
3,4807200,Control_c,0,74,61,
3,4807680,Note_off_c,0,73,0,
3,4807680,Note_on_c,0,64,47,
3,4807680,Control_c,0,71,30,
3,4807680,Control_c,0,74,61,
3,4808160,Control_c,0,71,30,
3,4808160,Control_c,0,74,61,
3,4808640,Control_c,0,71,30,
3,4808640,Control_c,0,74,61,
3,4809120,Control_c,0,71,29,
3,4809120,Control_c,0,74,61,
3,4809600,Control_c,0,71,29,
3,4809600,Control_c,0,74,61,
3,4810080,Control_c,0,71,29,
3,4810080,Control_c,0,74,61,
3,4810560,Control_c,0,71,29,
3,4810560,Control_c,0,74,61,
3,4811040,Control_c,0,71,29,
3,4811040,Control_c,0,74,61,
3,4811520,Control_c,0,71,29,
3,4811520,Control_c,0,74,61,
3,4812000,Control_c,0,71,29,
3,4812000,Control_c,0,74,61,
3,4812480,Control_c,0,71,29,
3,4812480,Control_c,0,74,61,
3,4812960,Control_c,0,71,29,
3,4812960,Control_c,0,74,61,
3,4813440,Control_c,0,71,29,
3,4813440,Control_c,0,74,61,
3,4813920,Control_c,0,71,29,
3,4813920,Control_c,0,74,61,
3,4814400,Control_c,0,71,29,
3,4814400,Control_c,0,74,61,
3,4814880,Control_c,0,71,29,
3,4814880,Control_c,0,74,61,
3,4815360,Note_off_c,0,64,0,
3,4815360,Note_on_c,0,66,48,
3,4815360,Control_c,0,71,29,
3,4815360,Control_c,0,74,62,
3,4815840,Control_c,0,71,29,
3,4815840,Control_c,0,74,62,
3,4816320,Control_c,0,71,29,
3,4816320,Control_c,0,74,62,
3,4816800,Control_c,0,71,29,
3,4816800,Control_c,0,74,62,
3,4817280,Control_c,0,71,29,
3,4817280,Control_c,0,74,62,
3,4817760,Control_c,0,71,29,
3,4817760,Control_c,0,74,62,
3,4818240,Control_c,0,71,29,
3,4818240,Control_c,0,74,62,
3,4818720,Control_c,0,71,29,
3,4818720,Control_c,0,74,62,
3,4819200,Control_c,0,71,29,
3,4819200,Control_c,0,74,62,
3,4819680,Control_c,0,71,29,
3,4819680,Control_c,0,74,62,
3,4820160,Control_c,0,71,29,
3,4820160,Control_c,0,74,62,
3,4820640,Control_c,0,71,29,
3,4820640,Control_c,0,74,62,
3,4821120,Control_c,0,71,29,
3,4821120,Control_c,0,74,62,
3,4821600,Control_c,0,71,29,
3,4821600,Control_c,0,74,62,
3,4822080,Control_c,0,71,29,
3,4822080,Control_c,0,74,62,
3,4822560,Control_c,0,71,29,
3,4822560,Control_c,0,74,62,
3,4823040,Note_off_c,0,66,0,
3,4823040,Note_on_c,0,68,30,
3,4823040,Control_c,0,71,29,
3,4823040,Control_c,0,74,62,
3,4823520,Control_c,0,71,29,
3,4823520,Control_c,0,74,62,
3,4824000,Control_c,0,71,29,
3,4824000,Control_c,0,74,62,
3,4824480,Control_c,0,71,29,
3,4824480,Control_c,0,74,62,
3,4824960,Control_c,0,71,29,
3,4824960,Control_c,0,74,62,
3,4825440,Control_c,0,71,29,
3,4825440,Control_c,0,74,62,
3,4825920,Control_c,0,71,29,
3,4825920,Control_c,0,74,62,
3,4826400,Control_c,0,71,29,
3,4826400,Control_c,0,74,62,
3,4826880,Control_c,0,71,29,
3,4826880,Control_c,0,74,63,
3,4827360,Control_c,0,71,29,
3,4827360,Control_c,0,74,63,
3,4827840,Control_c,0,71,29,
3,4827840,Control_c,0,74,63,
3,4828320,Control_c,0,71,29,
3,4828320,Control_c,0,74,63,
3,4828800,Control_c,0,71,29,
3,4828800,Control_c,0,74,63,
3,4829280,Control_c,0,71,29,
3,4829280,Control_c,0,74,63,
3,4829760,Control_c,0,71,29,
3,4829760,Control_c,0,74,63,
3,4830240,Control_c,0,71,29,
3,4830240,Control_c,0,74,63,
3,4830720,Note_off_c,0,68,0,
3,4830720,Note_on_c,0,71,38,
3,4830720,Control_c,0,71,29,
3,4830720,Control_c,0,74,63,
3,4831200,Control_c,0,71,29,
3,4831200,Control_c,0,74,63,
3,4831680,Control_c,0,71,29,
3,4831680,Control_c,0,74,63,
3,4832160,Control_c,0,71,29,
3,4832160,Control_c,0,74,63,
3,4832640,Control_c,0,71,29,
3,4832640,Control_c,0,74,63,
3,4833120,Control_c,0,71,29,
3,4833120,Control_c,0,74,63,
3,4833600,Control_c,0,71,29,
3,4833600,Control_c,0,74,63,
3,4834080,Control_c,0,71,29,
3,4834080,Control_c,0,74,63,
3,4834560,Control_c,0,71,29,
3,4834560,Control_c,0,74,63,
3,4835040,Control_c,0,71,29,
3,4835040,Control_c,0,74,63,
3,4835520,Control_c,0,71,29,
3,4835520,Control_c,0,74,63,
3,4836000,Control_c,0,71,29,
3,4836000,Control_c,0,74,63,
3,4836480,Control_c,0,71,29,
3,4836480,Control_c,0,74,63,
3,4836960,Control_c,0,71,29,
3,4836960,Control_c,0,74,63,
3,4837440,Control_c,0,71,29,
3,4837440,Control_c,0,74,63,
3,4837920,Control_c,0,71,29,
3,4837920,Control_c,0,74,63,
3,4838400,Note_off_c,0,71,0,
3,4838400,Note_on_c,0,64,58,
3,4838400,Control_c,0,71,29,
3,4838400,Control_c,0,74,64,
3,4838880,Control_c,0,71,29,
3,4838880,Control_c,0,74,64,
3,4839360,Control_c,0,71,29,
3,4839360,Control_c,0,74,64,
3,4839840,Control_c,0,71,29,
3,4839840,Control_c,0,74,64,
3,4840320,Control_c,0,71,28,
3,4840320,Control_c,0,74,64,
3,4840800,Control_c,0,71,28,
3,4840800,Control_c,0,74,64,
3,4841280,Control_c,0,71,28,
3,4841280,Control_c,0,74,64,
3,4841760,Control_c,0,71,28,
3,4841760,Control_c,0,74,64,
3,4842240,Control_c,0,71,28,
3,4842240,Control_c,0,74,64,
3,4842720,Control_c,0,71,28,
3,4842720,Control_c,0,74,64,
3,4843200,Control_c,0,71,28,
3,4843200,Control_c,0,74,64,
3,4843680,Control_c,0,71,28,
3,4843680,Control_c,0,74,64,
3,4844160,Control_c,0,71,28,
3,4844160,Control_c,0,74,64,
3,4844640,Control_c,0,71,28,
3,4844640,Control_c,0,74,64,
3,4845120,Control_c,0,71,28,
3,4845120,Control_c,0,74,64,
3,4845600,Control_c,0,71,28,
3,4845600,Control_c,0,74,64,
3,4846080,Note_off_c,0,64,0,
3,4846080,Note_on_c,0,66,62,
3,4846080,Control_c,0,71,28,
3,4846080,Control_c,0,74,64,
3,4846560,Control_c,0,71,28,
3,4846560,Control_c,0,74,64,
3,4847040,Control_c,0,71,28,
3,4847040,Control_c,0,74,64,
3,4847520,Control_c,0,71,28,
3,4847520,Control_c,0,74,64,
3,4848000,Control_c,0,71,28,
3,4848000,Control_c,0,74,64,
3,4848480,Control_c,0,71,28,
3,4848480,Control_c,0,74,64,
3,4848960,Control_c,0,71,28,
3,4848960,Control_c,0,74,64,
3,4849440,Control_c,0,71,28,
3,4849440,Control_c,0,74,64,
3,4849920,Control_c,0,71,28,
3,4849920,Control_c,0,74,65,
3,4850400,Control_c,0,71,28,
3,4850400,Control_c,0,74,65,
3,4850880,Control_c,0,71,28,
3,4850880,Control_c,0,74,65,
3,4851360,Control_c,0,71,28,
3,4851360,Control_c,0,74,65,
3,4851840,Control_c,0,71,28,
3,4851840,Control_c,0,74,65,
3,4852320,Control_c,0,71,28,
3,4852320,Control_c,0,74,65,
3,4852800,Control_c,0,71,28,
3,4852800,Control_c,0,74,65,
3,4853280,Control_c,0,71,28,
3,4853280,Control_c,0,74,65,
3,4853760,Note_off_c,0,66,0,
3,4853760,Note_on_c,0,68,43,
3,4853760,Control_c,0,71,28,
3,4853760,Control_c,0,74,65,
3,4854240,Control_c,0,71,28,
3,4854240,Control_c,0,74,65,
3,4854720,Control_c,0,71,28,
3,4854720,Control_c,0,74,65,
3,4855200,Control_c,0,71,28,
3,4855200,Control_c,0,74,65,
3,4855680,Control_c,0,71,28,
3,4855680,Control_c,0,74,65,
3,4856160,Control_c,0,71,28,
3,4856160,Control_c,0,74,65,
3,4856640,Control_c,0,71,28,
3,4856640,Control_c,0,74,65,
3,4857120,Control_c,0,71,28,
3,4857120,Control_c,0,74,65,
3,4857600,Control_c,0,71,28,
3,4857600,Control_c,0,74,65,
3,4858080,Control_c,0,71,28,
3,4858080,Control_c,0,74,65,
3,4858560,Control_c,0,71,28,
3,4858560,Control_c,0,74,65,
3,4859040,Control_c,0,71,28,
3,4859040,Control_c,0,74,65,
3,4859520,Control_c,0,71,28,
3,4859520,Control_c,0,74,65,
3,4860000,Control_c,0,71,28,
3,4860000,Control_c,0,74,65,
3,4860480,Control_c,0,71,28,
3,4860480,Control_c,0,74,65,
3,4860960,Control_c,0,71,28,
3,4860960,Control_c,0,74,65,
3,4861440,Note_off_c,0,68,0,
3,4861440,Note_on_c,0,71,36,
3,4861440,Control_c,0,71,28,
3,4861440,Control_c,0,74,66,
3,4861920,Control_c,0,71,28,
3,4861920,Control_c,0,74,66,
3,4862400,Control_c,0,71,28,
3,4862400,Control_c,0,74,66,
3,4862880,Control_c,0,71,28,
3,4862880,Control_c,0,74,66,
3,4863360,Control_c,0,71,28,
3,4863360,Control_c,0,74,66,
3,4863840,Control_c,0,71,28,
3,4863840,Control_c,0,74,66,
3,4864320,Control_c,0,71,28,
3,4864320,Control_c,0,74,66,
3,4864800,Control_c,0,71,28,
3,4864800,Control_c,0,74,66,
3,4865280,Control_c,0,71,28,
3,4865280,Control_c,0,74,66,
3,4865760,Control_c,0,71,28,
3,4865760,Control_c,0,74,66,
3,4866240,Control_c,0,71,28,
3,4866240,Control_c,0,74,66,
3,4866720,Control_c,0,71,28,
3,4866720,Control_c,0,74,66,
3,4867200,Control_c,0,71,28,
3,4867200,Control_c,0,74,66,
3,4867680,Control_c,0,71,28,
3,4867680,Control_c,0,74,66,
3,4868160,Control_c,0,71,28,
3,4868160,Control_c,0,74,66,
3,4868640,Control_c,0,71,28,
3,4868640,Control_c,0,74,66,
3,4869120,Note_off_c,0,52,0,
3,4869120,Note_off_c,0,71,0,
3,4869120,Note_on_c,0,54,84,
3,4869120,Note_on_c,0,66,45,
3,4869120,Control_c,0,71,28,
3,4869120,Control_c,0,74,66,
3,4869600,Control_c,0,71,28,
3,4869600,Control_c,0,74,66,
3,4870080,Control_c,0,71,28,
3,4870080,Control_c,0,74,66,
3,4870560,Control_c,0,71,28,
3,4870560,Control_c,0,74,66,
3,4871040,Control_c,0,71,28,
3,4871040,Control_c,0,74,66,
3,4871520,Control_c,0,71,27,
3,4871520,Control_c,0,74,66,
3,4872000,Control_c,0,71,27,
3,4872000,Control_c,0,74,66,
3,4872480,Control_c,0,71,27,
3,4872480,Control_c,0,74,66,
3,4872960,Control_c,0,71,27,
3,4872960,Control_c,0,74,67,
3,4873440,Control_c,0,71,27,
3,4873440,Control_c,0,74,67,
3,4873920,Control_c,0,71,27,
3,4873920,Control_c,0,74,67,
3,4874400,Control_c,0,71,27,
3,4874400,Control_c,0,74,67,
3,4874880,Control_c,0,71,27,
3,4874880,Control_c,0,74,67,
3,4875360,Control_c,0,71,27,
3,4875360,Control_c,0,74,67,
3,4875840,Control_c,0,71,27,
3,4875840,Control_c,0,74,67,
3,4876320,Control_c,0,71,27,
3,4876320,Control_c,0,74,67,
3,4876800,Note_off_c,0,66,0,
3,4876800,Note_on_c,0,68,48,
3,4876800,Control_c,0,71,27,
3,4876800,Control_c,0,74,67,
3,4877280,Control_c,0,71,27,
3,4877280,Control_c,0,74,67,
3,4877760,Control_c,0,71,27,
3,4877760,Control_c,0,74,67,
3,4878240,Control_c,0,71,27,
3,4878240,Control_c,0,74,67,
3,4878720,Control_c,0,71,27,
3,4878720,Control_c,0,74,67,
3,4879200,Control_c,0,71,27,
3,4879200,Control_c,0,74,67,
3,4879680,Control_c,0,71,27,
3,4879680,Control_c,0,74,67,
3,4880160,Control_c,0,71,27,
3,4880160,Control_c,0,74,67,
3,4880640,Control_c,0,71,27,
3,4880640,Control_c,0,74,67,
3,4881120,Control_c,0,71,27,
3,4881120,Control_c,0,74,67,
3,4881600,Control_c,0,71,27,
3,4881600,Control_c,0,74,67,
3,4882080,Control_c,0,71,27,
3,4882080,Control_c,0,74,67,
3,4882560,Control_c,0,71,27,
3,4882560,Control_c,0,74,67,
3,4883040,Control_c,0,71,27,
3,4883040,Control_c,0,74,67,
3,4883520,Control_c,0,71,27,
3,4883520,Control_c,0,74,67,
3,4884000,Control_c,0,71,27,
3,4884000,Control_c,0,74,67,
3,4884480,Note_off_c,0,68,0,
3,4884480,Note_on_c,0,69,36,
3,4884480,Control_c,0,71,27,
3,4884480,Control_c,0,74,68,
3,4884960,Control_c,0,71,27,
3,4884960,Control_c,0,74,68,
3,4885440,Control_c,0,71,27,
3,4885440,Control_c,0,74,68,
3,4885920,Control_c,0,71,27,
3,4885920,Control_c,0,74,68,
3,4886400,Control_c,0,71,27,
3,4886400,Control_c,0,74,68,
3,4886880,Control_c,0,71,27,
3,4886880,Control_c,0,74,68,
3,4887360,Control_c,0,71,27,
3,4887360,Control_c,0,74,68,
3,4887840,Control_c,0,71,27,
3,4887840,Control_c,0,74,68,
3,4888320,Control_c,0,71,27,
3,4888320,Control_c,0,74,68,
3,4888800,Control_c,0,71,27,
3,4888800,Control_c,0,74,68,
3,4889280,Control_c,0,71,27,
3,4889280,Control_c,0,74,68,
3,4889760,Control_c,0,71,27,
3,4889760,Control_c,0,74,68,
3,4890240,Control_c,0,71,27,
3,4890240,Control_c,0,74,68,
3,4890720,Control_c,0,71,27,
3,4890720,Control_c,0,74,68,
3,4891200,Control_c,0,71,27,
3,4891200,Control_c,0,74,68,
3,4891680,Control_c,0,71,27,
3,4891680,Control_c,0,74,68,
3,4892160,Note_off_c,0,69,0,
3,4892160,Note_on_c,0,71,45,
3,4892160,Control_c,0,71,27,
3,4892160,Control_c,0,74,68,
3,4892640,Control_c,0,71,27,
3,4892640,Control_c,0,74,68,
3,4893120,Control_c,0,71,27,
3,4893120,Control_c,0,74,68,
3,4893600,Control_c,0,71,27,
3,4893600,Control_c,0,74,68,
3,4894080,Control_c,0,71,27,
3,4894080,Control_c,0,74,68,
3,4894560,Control_c,0,71,27,
3,4894560,Control_c,0,74,68,
3,4895040,Control_c,0,71,27,
3,4895040,Control_c,0,74,68,
3,4895520,Control_c,0,71,27,
3,4895520,Control_c,0,74,68,
3,4896000,Control_c,0,71,27,
3,4896000,Control_c,0,74,69,
3,4896480,Control_c,0,71,27,
3,4896480,Control_c,0,74,69,
3,4896960,Control_c,0,71,27,
3,4896960,Control_c,0,74,69,
3,4897440,Control_c,0,71,27,
3,4897440,Control_c,0,74,69,
3,4897920,Control_c,0,71,27,
3,4897920,Control_c,0,74,69,
3,4898400,Control_c,0,71,27,
3,4898400,Control_c,0,74,69,
3,4898880,Control_c,0,71,27,
3,4898880,Control_c,0,74,69,
3,4899360,Control_c,0,71,27,
3,4899360,Control_c,0,74,69,
3,4899840,Note_off_c,0,71,0,
3,4899840,Note_on_c,0,66,65,
3,4899840,Control_c,0,71,27,
3,4899840,Control_c,0,74,69,
3,4900320,Control_c,0,71,27,
3,4900320,Control_c,0,74,69,
3,4900800,Control_c,0,71,27,
3,4900800,Control_c,0,74,69,
3,4901280,Control_c,0,71,27,
3,4901280,Control_c,0,74,69,
3,4901760,Control_c,0,71,27,
3,4901760,Control_c,0,74,69,
3,4902240,Control_c,0,71,27,
3,4902240,Control_c,0,74,69,
3,4902720,Control_c,0,71,26,
3,4902720,Control_c,0,74,69,
3,4903200,Control_c,0,71,26,
3,4903200,Control_c,0,74,69,
3,4903680,Control_c,0,71,26,
3,4903680,Control_c,0,74,69,
3,4904160,Control_c,0,71,26,
3,4904160,Control_c,0,74,69,
3,4904640,Control_c,0,71,26,
3,4904640,Control_c,0,74,69,
3,4905120,Control_c,0,71,26,
3,4905120,Control_c,0,74,69,
3,4905600,Control_c,0,71,26,
3,4905600,Control_c,0,74,69,
3,4906080,Control_c,0,71,26,
3,4906080,Control_c,0,74,69,
3,4906560,Control_c,0,71,26,
3,4906560,Control_c,0,74,69,
3,4907040,Control_c,0,71,26,
3,4907040,Control_c,0,74,69,
3,4907520,Note_off_c,0,66,0,
3,4907520,Note_on_c,0,68,34,
3,4907520,Control_c,0,71,26,
3,4907520,Control_c,0,74,70,
3,4908000,Control_c,0,71,26,
3,4908000,Control_c,0,74,70,
3,4908480,Control_c,0,71,26,
3,4908480,Control_c,0,74,70,
3,4908960,Control_c,0,71,26,
3,4908960,Control_c,0,74,70,
3,4909440,Control_c,0,71,26,
3,4909440,Control_c,0,74,70,
3,4909920,Control_c,0,71,26,
3,4909920,Control_c,0,74,70,
3,4910400,Control_c,0,71,26,
3,4910400,Control_c,0,74,70,
3,4910880,Control_c,0,71,26,
3,4910880,Control_c,0,74,70,
3,4911360,Control_c,0,71,26,
3,4911360,Control_c,0,74,70,
3,4911840,Control_c,0,71,26,
3,4911840,Control_c,0,74,70,
3,4912320,Control_c,0,71,26,
3,4912320,Control_c,0,74,70,
3,4912800,Control_c,0,71,26,
3,4912800,Control_c,0,74,70,
3,4913280,Control_c,0,71,26,
3,4913280,Control_c,0,74,70,
3,4913760,Control_c,0,71,26,
3,4913760,Control_c,0,74,70,
3,4914240,Control_c,0,71,26,
3,4914240,Control_c,0,74,70,
3,4914720,Control_c,0,71,26,
3,4914720,Control_c,0,74,70,
3,4915200,Note_off_c,0,68,0,
3,4915200,Note_on_c,0,69,46,
3,4915200,Control_c,0,71,26,
3,4915200,Control_c,0,74,70,
3,4915680,Control_c,0,71,26,
3,4915680,Control_c,0,74,70,
3,4916160,Control_c,0,71,26,
3,4916160,Control_c,0,74,70,
3,4916640,Control_c,0,71,26,
3,4916640,Control_c,0,74,70,
3,4917120,Control_c,0,71,26,
3,4917120,Control_c,0,74,70,
3,4917600,Control_c,0,71,26,
3,4917600,Control_c,0,74,70,
3,4918080,Control_c,0,71,26,
3,4918080,Control_c,0,74,70,
3,4918560,Control_c,0,71,26,
3,4918560,Control_c,0,74,70,
3,4919040,Control_c,0,71,26,
3,4919040,Control_c,0,74,71,
3,4919520,Control_c,0,71,26,
3,4919520,Control_c,0,74,71,
3,4920000,Control_c,0,71,26,
3,4920000,Control_c,0,74,71,
3,4920480,Control_c,0,71,26,
3,4920480,Control_c,0,74,71,
3,4920960,Control_c,0,71,26,
3,4920960,Control_c,0,74,71,
3,4921440,Control_c,0,71,26,
3,4921440,Control_c,0,74,71,
3,4921920,Control_c,0,71,26,
3,4921920,Control_c,0,74,71,
3,4922400,Control_c,0,71,26,
3,4922400,Control_c,0,74,71,
3,4922880,Note_off_c,0,69,0,
3,4922880,Note_on_c,0,73,56,
3,4922880,Control_c,0,71,26,
3,4922880,Control_c,0,74,71,
3,4923360,Control_c,0,71,26,
3,4923360,Control_c,0,74,71,
3,4923840,Control_c,0,71,26,
3,4923840,Control_c,0,74,71,
3,4924320,Control_c,0,71,26,
3,4924320,Control_c,0,74,71,
3,4924800,Control_c,0,71,26,
3,4924800,Control_c,0,74,71,
3,4925280,Control_c,0,71,26,
3,4925280,Control_c,0,74,71,
3,4925760,Control_c,0,71,26,
3,4925760,Control_c,0,74,71,
3,4926240,Control_c,0,71,26,
3,4926240,Control_c,0,74,71,
3,4926720,Control_c,0,71,26,
3,4926720,Control_c,0,74,71,
3,4927200,Control_c,0,71,26,
3,4927200,Control_c,0,74,71,
3,4927680,Control_c,0,71,26,
3,4927680,Control_c,0,74,71,
3,4928160,Control_c,0,71,26,
3,4928160,Control_c,0,74,71,
3,4928640,Control_c,0,71,26,
3,4928640,Control_c,0,74,71,
3,4929120,Control_c,0,71,26,
3,4929120,Control_c,0,74,71,
3,4929600,Control_c,0,71,26,
3,4929600,Control_c,0,74,71,
3,4930080,Control_c,0,71,26,
3,4930080,Control_c,0,74,71,
3,4930560,Note_off_c,0,73,0,
3,4930560,Note_on_c,0,66,56,
3,4930560,Control_c,0,71,26,
3,4930560,Control_c,0,74,72,
3,4931040,Control_c,0,71,26,
3,4931040,Control_c,0,74,72,
3,4931520,Control_c,0,71,26,
3,4931520,Control_c,0,74,72,
3,4932000,Control_c,0,71,26,
3,4932000,Control_c,0,74,72,
3,4932480,Control_c,0,71,26,
3,4932480,Control_c,0,74,72,
3,4932960,Control_c,0,71,26,
3,4932960,Control_c,0,74,72,
3,4933440,Control_c,0,71,26,
3,4933440,Control_c,0,74,72,
3,4933920,Control_c,0,71,25,
3,4933920,Control_c,0,74,72,
3,4934400,Control_c,0,71,25,
3,4934400,Control_c,0,74,72,
3,4934880,Control_c,0,71,25,
3,4934880,Control_c,0,74,72,
3,4935360,Control_c,0,71,25,
3,4935360,Control_c,0,74,72,
3,4935840,Control_c,0,71,25,
3,4935840,Control_c,0,74,72,
3,4936320,Control_c,0,71,25,
3,4936320,Control_c,0,74,72,
3,4936800,Control_c,0,71,25,
3,4936800,Control_c,0,74,72,
3,4937280,Control_c,0,71,25,
3,4937280,Control_c,0,74,72,
3,4937760,Control_c,0,71,25,
3,4937760,Control_c,0,74,72,
3,4938240,Note_off_c,0,66,0,
3,4938240,Note_on_c,0,68,48,
3,4938240,Control_c,0,71,25,
3,4938240,Control_c,0,74,72,
3,4938720,Control_c,0,71,25,
3,4938720,Control_c,0,74,72,
3,4939200,Control_c,0,71,25,
3,4939200,Control_c,0,74,72,
3,4939680,Control_c,0,71,25,
3,4939680,Control_c,0,74,72,
3,4940160,Control_c,0,71,25,
3,4940160,Control_c,0,74,72,
3,4940640,Control_c,0,71,25,
3,4940640,Control_c,0,74,72,
3,4941120,Control_c,0,71,25,
3,4941120,Control_c,0,74,72,
3,4941600,Control_c,0,71,25,
3,4941600,Control_c,0,74,73,
3,4942080,Control_c,0,71,25,
3,4942080,Control_c,0,74,73,
3,4942560,Control_c,0,71,25,
3,4942560,Control_c,0,74,73,
3,4943040,Control_c,0,71,25,
3,4943040,Control_c,0,74,73,
3,4943520,Control_c,0,71,25,
3,4943520,Control_c,0,74,73,
3,4944000,Control_c,0,71,25,
3,4944000,Control_c,0,74,73,
3,4944480,Control_c,0,71,25,
3,4944480,Control_c,0,74,73,
3,4944960,Control_c,0,71,25,
3,4944960,Control_c,0,74,73,
3,4945440,Control_c,0,71,25,
3,4945440,Control_c,0,74,73,
3,4945920,Note_off_c,0,68,0,
3,4945920,Note_on_c,0,69,58,
3,4945920,Control_c,0,71,25,
3,4945920,Control_c,0,74,73,
3,4946400,Control_c,0,71,25,
3,4946400,Control_c,0,74,73,
3,4946880,Control_c,0,71,25,
3,4946880,Control_c,0,74,73,
3,4947360,Control_c,0,71,25,
3,4947360,Control_c,0,74,73,
3,4947840,Control_c,0,71,25,
3,4947840,Control_c,0,74,73,
3,4948320,Control_c,0,71,25,
3,4948320,Control_c,0,74,73,
3,4948800,Control_c,0,71,25,
3,4948800,Control_c,0,74,73,
3,4949280,Control_c,0,71,25,
3,4949280,Control_c,0,74,73,
3,4949760,Control_c,0,71,25,
3,4949760,Control_c,0,74,73,
3,4950240,Control_c,0,71,25,
3,4950240,Control_c,0,74,73,
3,4950720,Control_c,0,71,25,
3,4950720,Control_c,0,74,73,
3,4951200,Control_c,0,71,25,
3,4951200,Control_c,0,74,73,
3,4951680,Control_c,0,71,25,
3,4951680,Control_c,0,74,73,
3,4952160,Control_c,0,71,25,
3,4952160,Control_c,0,74,74,
3,4952640,Control_c,0,71,25,
3,4952640,Control_c,0,74,74,
3,4953120,Control_c,0,71,25,
3,4953120,Control_c,0,74,74,
3,4953600,Note_off_c,0,69,0,
3,4953600,Note_on_c,0,71,44,
3,4953600,Control_c,0,71,25,
3,4953600,Control_c,0,74,74,
3,4954080,Control_c,0,71,25,
3,4954080,Control_c,0,74,74,
3,4954560,Control_c,0,71,25,
3,4954560,Control_c,0,74,74,
3,4955040,Control_c,0,71,25,
3,4955040,Control_c,0,74,74,
3,4955520,Control_c,0,71,25,
3,4955520,Control_c,0,74,74,
3,4956000,Control_c,0,71,25,
3,4956000,Control_c,0,74,74,
3,4956480,Control_c,0,71,25,
3,4956480,Control_c,0,74,74,
3,4956960,Control_c,0,71,25,
3,4956960,Control_c,0,74,74,
3,4957440,Control_c,0,71,25,
3,4957440,Control_c,0,74,74,
3,4957920,Control_c,0,71,25,
3,4957920,Control_c,0,74,74,
3,4958400,Control_c,0,71,25,
3,4958400,Control_c,0,74,74,
3,4958880,Control_c,0,71,25,
3,4958880,Control_c,0,74,74,
3,4959360,Control_c,0,71,25,
3,4959360,Control_c,0,74,74,
3,4959840,Control_c,0,71,25,
3,4959840,Control_c,0,74,74,
3,4960320,Control_c,0,71,25,
3,4960320,Control_c,0,74,74,
3,4960800,Control_c,0,71,25,
3,4960800,Control_c,0,74,74,
3,4961280,Note_off_c,0,71,0,
3,4961280,Note_on_c,0,66,58,
3,4961280,Control_c,0,71,25,
3,4961280,Control_c,0,74,74,
3,4961760,Control_c,0,71,25,
3,4961760,Control_c,0,74,74,
3,4962240,Control_c,0,71,25,
3,4962240,Control_c,0,74,74,
3,4962720,Control_c,0,71,25,
3,4962720,Control_c,0,74,75,
3,4963200,Control_c,0,71,25,
3,4963200,Control_c,0,74,75,
3,4963680,Control_c,0,71,25,
3,4963680,Control_c,0,74,75,
3,4964160,Control_c,0,71,25,
3,4964160,Control_c,0,74,75,
3,4964640,Control_c,0,71,25,
3,4964640,Control_c,0,74,75,
3,4965120,Control_c,0,71,24,
3,4965120,Control_c,0,74,75,
3,4965600,Control_c,0,71,24,
3,4965600,Control_c,0,74,75,
3,4966080,Control_c,0,71,24,
3,4966080,Control_c,0,74,75,
3,4966560,Control_c,0,71,24,
3,4966560,Control_c,0,74,75,
3,4967040,Control_c,0,71,24,
3,4967040,Control_c,0,74,75,
3,4967520,Control_c,0,71,24,
3,4967520,Control_c,0,74,75,
3,4968000,Control_c,0,71,24,
3,4968000,Control_c,0,74,75,
3,4968480,Control_c,0,71,24,
3,4968480,Control_c,0,74,75,
3,4968960,Note_off_c,0,66,0,
3,4968960,Note_on_c,0,68,39,
3,4968960,Control_c,0,71,24,
3,4968960,Control_c,0,74,75,
3,4969440,Control_c,0,71,24,
3,4969440,Control_c,0,74,75,
3,4969920,Control_c,0,71,24,
3,4969920,Control_c,0,74,75,
3,4970400,Control_c,0,71,24,
3,4970400,Control_c,0,74,75,
3,4970880,Control_c,0,71,24,
3,4970880,Control_c,0,74,75,
3,4971360,Control_c,0,71,24,
3,4971360,Control_c,0,74,75,
3,4971840,Control_c,0,71,24,
3,4971840,Control_c,0,74,75,
3,4972320,Control_c,0,71,24,
3,4972320,Control_c,0,74,75,
3,4972800,Control_c,0,71,24,
3,4972800,Control_c,0,74,75,
3,4973280,Control_c,0,71,24,
3,4973280,Control_c,0,74,75,
3,4973760,Control_c,0,71,24,
3,4973760,Control_c,0,74,76,
3,4974240,Control_c,0,71,24,
3,4974240,Control_c,0,74,76,
3,4974720,Control_c,0,71,24,
3,4974720,Control_c,0,74,76,
3,4975200,Control_c,0,71,24,
3,4975200,Control_c,0,74,76,
3,4975680,Control_c,0,71,24,
3,4975680,Control_c,0,74,76,
3,4976160,Control_c,0,71,24,
3,4976160,Control_c,0,74,76,
3,4976640,Note_off_c,0,68,0,
3,4976640,Note_on_c,0,69,73,
3,4976640,Control_c,0,71,24,
3,4976640,Control_c,0,74,76,
3,4977120,Control_c,0,71,24,
3,4977120,Control_c,0,74,76,
3,4977600,Control_c,0,71,24,
3,4977600,Control_c,0,74,76,
3,4978080,Control_c,0,71,24,
3,4978080,Control_c,0,74,76,
3,4978560,Control_c,0,71,24,
3,4978560,Control_c,0,74,76,
3,4979040,Control_c,0,71,24,
3,4979040,Control_c,0,74,76,
3,4979520,Control_c,0,71,24,
3,4979520,Control_c,0,74,76,
3,4980000,Control_c,0,71,24,
3,4980000,Control_c,0,74,76,
3,4980480,Control_c,0,71,24,
3,4980480,Control_c,0,74,76,
3,4980960,Control_c,0,71,24,
3,4980960,Control_c,0,74,76,
3,4981440,Control_c,0,71,24,
3,4981440,Control_c,0,74,76,
3,4981920,Control_c,0,71,24,
3,4981920,Control_c,0,74,76,
3,4982400,Control_c,0,71,24,
3,4982400,Control_c,0,74,76,
3,4982880,Control_c,0,71,24,
3,4982880,Control_c,0,74,76,
3,4983360,Control_c,0,71,24,
3,4983360,Control_c,0,74,76,
3,4983840,Control_c,0,71,24,
3,4983840,Control_c,0,74,76,
3,4984320,Note_off_c,0,69,0,
3,4984320,Note_on_c,0,73,85,
3,4984320,Control_c,0,71,24,
3,4984320,Control_c,0,74,77,
3,4984800,Control_c,0,71,24,
3,4984800,Control_c,0,74,77,
3,4985280,Control_c,0,71,24,
3,4985280,Control_c,0,74,77,
3,4985760,Control_c,0,71,24,
3,4985760,Control_c,0,74,77,
3,4986240,Control_c,0,71,24,
3,4986240,Control_c,0,74,77,
3,4986720,Control_c,0,71,24,
3,4986720,Control_c,0,74,77,
3,4987200,Control_c,0,71,24,
3,4987200,Control_c,0,74,77,
3,4987680,Control_c,0,71,24,
3,4987680,Control_c,0,74,77,
3,4988160,Control_c,0,71,24,
3,4988160,Control_c,0,74,77,
3,4988640,Control_c,0,71,24,
3,4988640,Control_c,0,74,77,
3,4989120,Control_c,0,71,24,
3,4989120,Control_c,0,74,77,
3,4989600,Control_c,0,71,24,
3,4989600,Control_c,0,74,77,
3,4990080,Control_c,0,71,24,
3,4990080,Control_c,0,74,77,
3,4990560,Control_c,0,71,24,
3,4990560,Control_c,0,74,77,
3,4991040,Control_c,0,71,24,
3,4991040,Control_c,0,74,77,
3,4991520,Control_c,0,71,24,
3,4991520,Control_c,0,74,77,
3,4992000,Note_off_c,0,54,0,
3,4992000,Note_off_c,0,73,0,
3,4992000,Note_on_c,0,49,99,
3,4992000,Note_on_c,0,61,44,
3,4992000,Control_c,0,71,24,
3,4992000,Control_c,0,74,77,
3,4992480,Control_c,0,71,24,
3,4992480,Control_c,0,74,77,
3,4992960,Control_c,0,71,24,
3,4992960,Control_c,0,74,77,
3,4993440,Control_c,0,71,24,
3,4993440,Control_c,0,74,77,
3,4993920,Control_c,0,71,24,
3,4993920,Control_c,0,74,77,
3,4994400,Control_c,0,71,24,
3,4994400,Control_c,0,74,77,
3,4994880,Control_c,0,71,24,
3,4994880,Control_c,0,74,78,
3,4995360,Control_c,0,71,24,
3,4995360,Control_c,0,74,78,
3,4995840,Control_c,0,71,24,
3,4995840,Control_c,0,74,78,
3,4996320,Control_c,0,71,23,
3,4996320,Control_c,0,74,78,
3,4996800,Control_c,0,71,23,
3,4996800,Control_c,0,74,78,
3,4997280,Control_c,0,71,23,
3,4997280,Control_c,0,74,78,
3,4997760,Control_c,0,71,23,
3,4997760,Control_c,0,74,78,
3,4998240,Control_c,0,71,23,
3,4998240,Control_c,0,74,78,
3,4998720,Control_c,0,71,23,
3,4998720,Control_c,0,74,78,
3,4999200,Control_c,0,71,23,
3,4999200,Control_c,0,74,78,
3,4999680,Note_off_c,0,61,0,
3,4999680,Note_on_c,0,63,20,
3,4999680,Control_c,0,71,23,
3,4999680,Control_c,0,74,78,
3,5000160,Control_c,0,71,23,
3,5000160,Control_c,0,74,78,
3,5000640,Control_c,0,71,23,
3,5000640,Control_c,0,74,78,
3,5001120,Control_c,0,71,23,
3,5001120,Control_c,0,74,78,
3,5001600,Control_c,0,71,23,
3,5001600,Control_c,0,74,78,
3,5002080,Control_c,0,71,23,
3,5002080,Control_c,0,74,78,
3,5002560,Control_c,0,71,23,
3,5002560,Control_c,0,74,78,
3,5003040,Control_c,0,71,23,
3,5003040,Control_c,0,74,78,
3,5003520,Control_c,0,71,23,
3,5003520,Control_c,0,74,78,
3,5004000,Control_c,0,71,23,
3,5004000,Control_c,0,74,78,
3,5004480,Control_c,0,71,23,
3,5004480,Control_c,0,74,78,
3,5004960,Control_c,0,71,23,
3,5004960,Control_c,0,74,78,
3,5005440,Control_c,0,71,23,
3,5005440,Control_c,0,74,79,
3,5005920,Control_c,0,71,23,
3,5005920,Control_c,0,74,79,
3,5006400,Control_c,0,71,23,
3,5006400,Control_c,0,74,79,
3,5006880,Control_c,0,71,23,
3,5006880,Control_c,0,74,79,
3,5007360,Note_off_c,0,63,0,
3,5007360,Note_on_c,0,64,54,
3,5007360,Control_c,0,71,23,
3,5007360,Control_c,0,74,79,
3,5007840,Control_c,0,71,23,
3,5007840,Control_c,0,74,79,
3,5008320,Control_c,0,71,23,
3,5008320,Control_c,0,74,79,
3,5008800,Control_c,0,71,23,
3,5008800,Control_c,0,74,79,
3,5009280,Control_c,0,71,23,
3,5009280,Control_c,0,74,79,
3,5009760,Control_c,0,71,23,
3,5009760,Control_c,0,74,79,
3,5010240,Control_c,0,71,23,
3,5010240,Control_c,0,74,79,
3,5010720,Control_c,0,71,23,
3,5010720,Control_c,0,74,79,
3,5011200,Control_c,0,71,23,
3,5011200,Control_c,0,74,79,
3,5011680,Control_c,0,71,23,
3,5011680,Control_c,0,74,79,
3,5012160,Control_c,0,71,23,
3,5012160,Control_c,0,74,79,
3,5012640,Control_c,0,71,23,
3,5012640,Control_c,0,74,79,
3,5013120,Control_c,0,71,23,
3,5013120,Control_c,0,74,79,
3,5013600,Control_c,0,71,23,
3,5013600,Control_c,0,74,79,
3,5014080,Control_c,0,71,23,
3,5014080,Control_c,0,74,79,
3,5014560,Control_c,0,71,23,
3,5014560,Control_c,0,74,79,
3,5015040,Note_off_c,0,64,0,
3,5015040,Note_on_c,0,66,34,
3,5015040,Control_c,0,71,23,
3,5015040,Control_c,0,74,79,
3,5015520,Control_c,0,71,23,
3,5015520,Control_c,0,74,79,
3,5016000,Control_c,0,71,23,
3,5016000,Control_c,0,74,79,
3,5016480,Control_c,0,71,23,
3,5016480,Control_c,0,74,80,
3,5016960,Control_c,0,71,23,
3,5016960,Control_c,0,74,80,
3,5017440,Control_c,0,71,23,
3,5017440,Control_c,0,74,80,
3,5017920,Control_c,0,71,23,
3,5017920,Control_c,0,74,80,
3,5018400,Control_c,0,71,23,
3,5018400,Control_c,0,74,80,
3,5018880,Control_c,0,71,23,
3,5018880,Control_c,0,74,80,
3,5019360,Control_c,0,71,23,
3,5019360,Control_c,0,74,80,
3,5019840,Control_c,0,71,23,
3,5019840,Control_c,0,74,80,
3,5020320,Control_c,0,71,23,
3,5020320,Control_c,0,74,80,
3,5020800,Control_c,0,71,23,
3,5020800,Control_c,0,74,80,
3,5021280,Control_c,0,71,23,
3,5021280,Control_c,0,74,80,
3,5021760,Control_c,0,71,23,
3,5021760,Control_c,0,74,80,
3,5022240,Control_c,0,71,23,
3,5022240,Control_c,0,74,80,
3,5022720,Note_off_c,0,66,0,
3,5022720,Note_on_c,0,61,76,
3,5022720,Control_c,0,71,23,
3,5022720,Control_c,0,74,80,
3,5023200,Control_c,0,71,23,
3,5023200,Control_c,0,74,80,
3,5023680,Control_c,0,71,23,
3,5023680,Control_c,0,74,80,
3,5024160,Control_c,0,71,23,
3,5024160,Control_c,0,74,80,
3,5024640,Control_c,0,71,23,
3,5024640,Control_c,0,74,80,
3,5025120,Control_c,0,71,23,
3,5025120,Control_c,0,74,80,
3,5025600,Control_c,0,71,23,
3,5025600,Control_c,0,74,80,
3,5026080,Control_c,0,71,23,
3,5026080,Control_c,0,74,80,
3,5026560,Control_c,0,71,23,
3,5026560,Control_c,0,74,80,
3,5027040,Control_c,0,71,23,
3,5027040,Control_c,0,74,81,
3,5027520,Control_c,0,71,22,
3,5027520,Control_c,0,74,81,
3,5028000,Control_c,0,71,22,
3,5028000,Control_c,0,74,81,
3,5028480,Control_c,0,71,22,
3,5028480,Control_c,0,74,81,
3,5028960,Control_c,0,71,22,
3,5028960,Control_c,0,74,81,
3,5029440,Control_c,0,71,22,
3,5029440,Control_c,0,74,81,
3,5029920,Control_c,0,71,22,
3,5029920,Control_c,0,74,81,
3,5030400,Note_off_c,0,61,0,
3,5030400,Note_on_c,0,63,47,
3,5030400,Control_c,0,71,22,
3,5030400,Control_c,0,74,81,
3,5030880,Control_c,0,71,22,
3,5030880,Control_c,0,74,81,
3,5031360,Control_c,0,71,22,
3,5031360,Control_c,0,74,81,
3,5031840,Control_c,0,71,22,
3,5031840,Control_c,0,74,81,
3,5032320,Control_c,0,71,22,
3,5032320,Control_c,0,74,81,
3,5032800,Control_c,0,71,22,
3,5032800,Control_c,0,74,81,
3,5033280,Control_c,0,71,22,
3,5033280,Control_c,0,74,81,
3,5033760,Control_c,0,71,22,
3,5033760,Control_c,0,74,81,
3,5034240,Control_c,0,71,22,
3,5034240,Control_c,0,74,81,
3,5034720,Control_c,0,71,22,
3,5034720,Control_c,0,74,81,
3,5035200,Control_c,0,71,22,
3,5035200,Control_c,0,74,81,
3,5035680,Control_c,0,71,22,
3,5035680,Control_c,0,74,81,
3,5036160,Control_c,0,71,22,
3,5036160,Control_c,0,74,81,
3,5036640,Control_c,0,71,22,
3,5036640,Control_c,0,74,81,
3,5037120,Control_c,0,71,22,
3,5037120,Control_c,0,74,81,
3,5037600,Control_c,0,71,22,
3,5037600,Control_c,0,74,82,
3,5038080,Note_off_c,0,63,0,
3,5038080,Note_on_c,0,64,50,
3,5038080,Control_c,0,71,22,
3,5038080,Control_c,0,74,82,
3,5038560,Control_c,0,71,22,
3,5038560,Control_c,0,74,82,
3,5039040,Control_c,0,71,22,
3,5039040,Control_c,0,74,82,
3,5039520,Control_c,0,71,22,
3,5039520,Control_c,0,74,82,
3,5040000,Control_c,0,71,22,
3,5040000,Control_c,0,74,82,
3,5040480,Control_c,0,71,22,
3,5040480,Control_c,0,74,82,
3,5040960,Control_c,0,71,22,
3,5040960,Control_c,0,74,82,
3,5041440,Control_c,0,71,22,
3,5041440,Control_c,0,74,82,
3,5041920,Control_c,0,71,22,
3,5041920,Control_c,0,74,82,
3,5042400,Control_c,0,71,22,
3,5042400,Control_c,0,74,82,
3,5042880,Control_c,0,71,22,
3,5042880,Control_c,0,74,82,
3,5043360,Control_c,0,71,22,
3,5043360,Control_c,0,74,82,
3,5043840,Control_c,0,71,22,
3,5043840,Control_c,0,74,82,
3,5044320,Control_c,0,71,22,
3,5044320,Control_c,0,74,82,
3,5044800,Control_c,0,71,22,
3,5044800,Control_c,0,74,82,
3,5045280,Control_c,0,71,22,
3,5045280,Control_c,0,74,82,
3,5045760,Note_off_c,0,64,0,
3,5045760,Note_on_c,0,68,54,
3,5045760,Control_c,0,71,22,
3,5045760,Control_c,0,74,82,
3,5046240,Control_c,0,71,22,
3,5046240,Control_c,0,74,82,
3,5046720,Control_c,0,71,22,
3,5046720,Control_c,0,74,82,
3,5047200,Control_c,0,71,22,
3,5047200,Control_c,0,74,82,
3,5047680,Control_c,0,71,22,
3,5047680,Control_c,0,74,82,
3,5048160,Control_c,0,71,22,
3,5048160,Control_c,0,74,83,
3,5048640,Control_c,0,71,22,
3,5048640,Control_c,0,74,83,
3,5049120,Control_c,0,71,22,
3,5049120,Control_c,0,74,83,
3,5049600,Control_c,0,71,22,
3,5049600,Control_c,0,74,83,
3,5050080,Control_c,0,71,22,
3,5050080,Control_c,0,74,83,
3,5050560,Control_c,0,71,22,
3,5050560,Control_c,0,74,83,
3,5051040,Control_c,0,71,22,
3,5051040,Control_c,0,74,83,
3,5051520,Control_c,0,71,22,
3,5051520,Control_c,0,74,83,
3,5052000,Control_c,0,71,22,
3,5052000,Control_c,0,74,83,
3,5052480,Control_c,0,71,22,
3,5052480,Control_c,0,74,83,
3,5052960,Control_c,0,71,22,
3,5052960,Control_c,0,74,83,
3,5053440,Note_off_c,0,68,0,
3,5053440,Note_on_c,0,61,85,
3,5053440,Control_c,0,71,22,
3,5053440,Control_c,0,74,83,
3,5053920,Control_c,0,71,22,
3,5053920,Control_c,0,74,83,
3,5054400,Control_c,0,71,22,
3,5054400,Control_c,0,74,83,
3,5054880,Control_c,0,71,22,
3,5054880,Control_c,0,74,83,
3,5055360,Control_c,0,71,22,
3,5055360,Control_c,0,74,83,
3,5055840,Control_c,0,71,22,
3,5055840,Control_c,0,74,83,
3,5056320,Control_c,0,71,22,
3,5056320,Control_c,0,74,83,
3,5056800,Control_c,0,71,22,
3,5056800,Control_c,0,74,83,
3,5057280,Control_c,0,71,22,
3,5057280,Control_c,0,74,83,
3,5057760,Control_c,0,71,22,
3,5057760,Control_c,0,74,83,
3,5058240,Control_c,0,71,22,
3,5058240,Control_c,0,74,83,
3,5058720,Control_c,0,71,21,
3,5058720,Control_c,0,74,83,
3,5059200,Control_c,0,71,21,
3,5059200,Control_c,0,74,84,
3,5059680,Control_c,0,71,21,
3,5059680,Control_c,0,74,84,
3,5060160,Control_c,0,71,21,
3,5060160,Control_c,0,74,84,
3,5060640,Control_c,0,71,21,
3,5060640,Control_c,0,74,84,
3,5061120,Note_off_c,0,61,0,
3,5061120,Note_on_c,0,63,50,
3,5061120,Control_c,0,71,21,
3,5061120,Control_c,0,74,84,
3,5061600,Control_c,0,71,21,
3,5061600,Control_c,0,74,84,
3,5062080,Control_c,0,71,21,
3,5062080,Control_c,0,74,84,
3,5062560,Control_c,0,71,21,
3,5062560,Control_c,0,74,84,
3,5063040,Control_c,0,71,21,
3,5063040,Control_c,0,74,84,
3,5063520,Control_c,0,71,21,
3,5063520,Control_c,0,74,84,
3,5064000,Control_c,0,71,21,
3,5064000,Control_c,0,74,84,
3,5064480,Control_c,0,71,21,
3,5064480,Control_c,0,74,84,
3,5064960,Control_c,0,71,21,
3,5064960,Control_c,0,74,84,
3,5065440,Control_c,0,71,21,
3,5065440,Control_c,0,74,84,
3,5065920,Control_c,0,71,21,
3,5065920,Control_c,0,74,84,
3,5066400,Control_c,0,71,21,
3,5066400,Control_c,0,74,84,
3,5066880,Control_c,0,71,21,
3,5066880,Control_c,0,74,84,
3,5067360,Control_c,0,71,21,
3,5067360,Control_c,0,74,84,
3,5067840,Control_c,0,71,21,
3,5067840,Control_c,0,74,84,
3,5068320,Control_c,0,71,21,
3,5068320,Control_c,0,74,84,
3,5068800,Note_off_c,0,63,0,
3,5068800,Note_on_c,0,64,45,
3,5068800,Control_c,0,71,21,
3,5068800,Control_c,0,74,84,
3,5069280,Control_c,0,71,21,
3,5069280,Control_c,0,74,84,
3,5069760,Control_c,0,71,21,
3,5069760,Control_c,0,74,85,
3,5070240,Control_c,0,71,21,
3,5070240,Control_c,0,74,85,
3,5070720,Control_c,0,71,21,
3,5070720,Control_c,0,74,85,
3,5071200,Control_c,0,71,21,
3,5071200,Control_c,0,74,85,
3,5071680,Control_c,0,71,21,
3,5071680,Control_c,0,74,85,
3,5072160,Control_c,0,71,21,
3,5072160,Control_c,0,74,85,
3,5072640,Control_c,0,71,21,
3,5072640,Control_c,0,74,85,
3,5073120,Control_c,0,71,21,
3,5073120,Control_c,0,74,85,
3,5073600,Control_c,0,71,21,
3,5073600,Control_c,0,74,85,
3,5074080,Control_c,0,71,21,
3,5074080,Control_c,0,74,85,
3,5074560,Control_c,0,71,21,
3,5074560,Control_c,0,74,85,
3,5075040,Control_c,0,71,21,
3,5075040,Control_c,0,74,85,
3,5075520,Control_c,0,71,21,
3,5075520,Control_c,0,74,85,
3,5076000,Control_c,0,71,21,
3,5076000,Control_c,0,74,85,
3,5076480,Note_off_c,0,64,0,
3,5076480,Note_on_c,0,66,61,
3,5076480,Control_c,0,71,21,
3,5076480,Control_c,0,74,85,
3,5076960,Control_c,0,71,21,
3,5076960,Control_c,0,74,85,
3,5077440,Control_c,0,71,21,
3,5077440,Control_c,0,74,85,
3,5077920,Control_c,0,71,21,
3,5077920,Control_c,0,74,85,
3,5078400,Control_c,0,71,21,
3,5078400,Control_c,0,74,85,
3,5078880,Control_c,0,71,21,
3,5078880,Control_c,0,74,85,
3,5079360,Control_c,0,71,21,
3,5079360,Control_c,0,74,85,
3,5079840,Control_c,0,71,21,
3,5079840,Control_c,0,74,85,
3,5080320,Control_c,0,71,21,
3,5080320,Control_c,0,74,86,
3,5080800,Control_c,0,71,21,
3,5080800,Control_c,0,74,86,
3,5081280,Control_c,0,71,21,
3,5081280,Control_c,0,74,86,
3,5081760,Control_c,0,71,21,
3,5081760,Control_c,0,74,86,
3,5082240,Control_c,0,71,21,
3,5082240,Control_c,0,74,86,
3,5082720,Control_c,0,71,21,
3,5082720,Control_c,0,74,86,
3,5083200,Control_c,0,71,21,
3,5083200,Control_c,0,74,86,
3,5083680,Control_c,0,71,21,
3,5083680,Control_c,0,74,86,
3,5084160,Note_off_c,0,66,0,
3,5084160,Note_on_c,0,61,48,
3,5084160,Control_c,0,71,21,
3,5084160,Control_c,0,74,86,
3,5084640,Control_c,0,71,21,
3,5084640,Control_c,0,74,86,
3,5085120,Control_c,0,71,21,
3,5085120,Control_c,0,74,86,
3,5085600,Control_c,0,71,21,
3,5085600,Control_c,0,74,86,
3,5086080,Control_c,0,71,21,
3,5086080,Control_c,0,74,86,
3,5086560,Control_c,0,71,21,
3,5086560,Control_c,0,74,86,
3,5087040,Control_c,0,71,21,
3,5087040,Control_c,0,74,86,
3,5087520,Control_c,0,71,21,
3,5087520,Control_c,0,74,86,
3,5088000,Control_c,0,71,21,
3,5088000,Control_c,0,74,86,
3,5088480,Control_c,0,71,21,
3,5088480,Control_c,0,74,86,
3,5088960,Control_c,0,71,21,
3,5088960,Control_c,0,74,86,
3,5089440,Control_c,0,71,21,
3,5089440,Control_c,0,74,86,
3,5089920,Control_c,0,71,20,
3,5089920,Control_c,0,74,86,
3,5090400,Control_c,0,71,20,
3,5090400,Control_c,0,74,86,
3,5090880,Control_c,0,71,20,
3,5090880,Control_c,0,74,87,
3,5091360,Control_c,0,71,20,
3,5091360,Control_c,0,74,87,
3,5091840,Note_off_c,0,61,0,
3,5091840,Note_on_c,0,63,44,
3,5091840,Control_c,0,71,20,
3,5091840,Control_c,0,74,87,
3,5092320,Control_c,0,71,20,
3,5092320,Control_c,0,74,87,
3,5092800,Control_c,0,71,20,
3,5092800,Control_c,0,74,87,
3,5093280,Control_c,0,71,20,
3,5093280,Control_c,0,74,87,
3,5093760,Control_c,0,71,20,
3,5093760,Control_c,0,74,87,
3,5094240,Control_c,0,71,20,
3,5094240,Control_c,0,74,87,
3,5094720,Control_c,0,71,20,
3,5094720,Control_c,0,74,87,
3,5095200,Control_c,0,71,20,
3,5095200,Control_c,0,74,87,
3,5095680,Control_c,0,71,20,
3,5095680,Control_c,0,74,87,
3,5096160,Control_c,0,71,20,
3,5096160,Control_c,0,74,87,
3,5096640,Control_c,0,71,20,
3,5096640,Control_c,0,74,87,
3,5097120,Control_c,0,71,20,
3,5097120,Control_c,0,74,87,
3,5097600,Control_c,0,71,20,
3,5097600,Control_c,0,74,87,
3,5098080,Control_c,0,71,20,
3,5098080,Control_c,0,74,87,
3,5098560,Control_c,0,71,20,
3,5098560,Control_c,0,74,87,
3,5099040,Control_c,0,71,20,
3,5099040,Control_c,0,74,87,
3,5099520,Note_off_c,0,63,0,
3,5099520,Note_on_c,0,64,58,
3,5099520,Control_c,0,71,20,
3,5099520,Control_c,0,74,87,
3,5100000,Control_c,0,71,20,
3,5100000,Control_c,0,74,87,
3,5100480,Control_c,0,71,20,
3,5100480,Control_c,0,74,87,
3,5100960,Control_c,0,71,20,
3,5100960,Control_c,0,74,87,
3,5101440,Control_c,0,71,20,
3,5101440,Control_c,0,74,87,
3,5101920,Control_c,0,71,20,
3,5101920,Control_c,0,74,88,
3,5102400,Control_c,0,71,20,
3,5102400,Control_c,0,74,88,
3,5102880,Control_c,0,71,20,
3,5102880,Control_c,0,74,88,
3,5103360,Control_c,0,71,20,
3,5103360,Control_c,0,74,88,
3,5103840,Control_c,0,71,20,
3,5103840,Control_c,0,74,88,
3,5104320,Control_c,0,71,20,
3,5104320,Control_c,0,74,88,
3,5104800,Control_c,0,71,20,
3,5104800,Control_c,0,74,88,
3,5105280,Control_c,0,71,20,
3,5105280,Control_c,0,74,88,
3,5105760,Control_c,0,71,20,
3,5105760,Control_c,0,74,88,
3,5106240,Control_c,0,71,20,
3,5106240,Control_c,0,74,88,
3,5106720,Control_c,0,71,20,
3,5106720,Control_c,0,74,88,
3,5107200,Note_off_c,0,64,0,
3,5107200,Note_on_c,0,68,69,
3,5107200,Control_c,0,71,20,
3,5107200,Control_c,0,74,88,
3,5107680,Control_c,0,71,20,
3,5107680,Control_c,0,74,88,
3,5108160,Control_c,0,71,20,
3,5108160,Control_c,0,74,88,
3,5108640,Control_c,0,71,20,
3,5108640,Control_c,0,74,88,
3,5109120,Control_c,0,71,20,
3,5109120,Control_c,0,74,88,
3,5109600,Control_c,0,71,20,
3,5109600,Control_c,0,74,88,
3,5110080,Control_c,0,71,20,
3,5110080,Control_c,0,74,88,
3,5110560,Control_c,0,71,20,
3,5110560,Control_c,0,74,88,
3,5111040,Control_c,0,71,20,
3,5111040,Control_c,0,74,88,
3,5111520,Control_c,0,71,20,
3,5111520,Control_c,0,74,88,
3,5112000,Control_c,0,71,20,
3,5112000,Control_c,0,74,88,
3,5112480,Control_c,0,71,20,
3,5112480,Control_c,0,74,89,
3,5112960,Control_c,0,71,20,
3,5112960,Control_c,0,74,89,
3,5113440,Control_c,0,71,20,
3,5113440,Control_c,0,74,89,
3,5113920,Control_c,0,71,20,
3,5113920,Control_c,0,74,89,
3,5114400,Control_c,0,71,20,
3,5114400,Control_c,0,74,89,
3,5114880,Note_off_c,0,49,0,
3,5114880,Note_off_c,0,68,0,
3,5114880,Note_on_c,0,50,75,
3,5114880,Note_on_c,0,62,61,
3,5114880,Control_c,0,71,20,
3,5114880,Control_c,0,74,89,
3,5115360,Control_c,0,71,20,
3,5115360,Control_c,0,74,89,
3,5115840,Control_c,0,71,20,
3,5115840,Control_c,0,74,89,
3,5116320,Control_c,0,71,20,
3,5116320,Control_c,0,74,89,
3,5116800,Control_c,0,71,20,
3,5116800,Control_c,0,74,89,
3,5117280,Control_c,0,71,20,
3,5117280,Control_c,0,74,89,
3,5117760,Control_c,0,71,20,
3,5117760,Control_c,0,74,89,
3,5118240,Control_c,0,71,20,
3,5118240,Control_c,0,74,89,
3,5118720,Control_c,0,71,20,
3,5118720,Control_c,0,74,89,
3,5119200,Control_c,0,71,20,
3,5119200,Control_c,0,74,89,
3,5119680,Control_c,0,71,20,
3,5119680,Control_c,0,74,89,
3,5120160,Control_c,0,71,20,
3,5120160,Control_c,0,74,89,
3,5120640,Control_c,0,71,20,
3,5120640,Control_c,0,74,89,
3,5121120,Control_c,0,71,19,
3,5121120,Control_c,0,74,89,
3,5121600,Control_c,0,71,19,
3,5121600,Control_c,0,74,89,
3,5122080,Control_c,0,71,19,
3,5122080,Control_c,0,74,89,
3,5122560,Note_off_c,0,62,0,
3,5122560,Note_on_c,0,64,38,
3,5122560,Control_c,0,71,19,
3,5122560,Control_c,0,74,89,
3,5123040,Control_c,0,71,19,
3,5123040,Control_c,0,74,90,
3,5123520,Control_c,0,71,19,
3,5123520,Control_c,0,74,90,
3,5124000,Control_c,0,71,19,
3,5124000,Control_c,0,74,90,
3,5124480,Control_c,0,71,19,
3,5124480,Control_c,0,74,90,
3,5124960,Control_c,0,71,19,
3,5124960,Control_c,0,74,90,
3,5125440,Control_c,0,71,19,
3,5125440,Control_c,0,74,90,
3,5125920,Control_c,0,71,19,
3,5125920,Control_c,0,74,90,
3,5126400,Control_c,0,71,19,
3,5126400,Control_c,0,74,90,
3,5126880,Control_c,0,71,19,
3,5126880,Control_c,0,74,90,
3,5127360,Control_c,0,71,19,
3,5127360,Control_c,0,74,90,
3,5127840,Control_c,0,71,19,
3,5127840,Control_c,0,74,90,
3,5128320,Control_c,0,71,19,
3,5128320,Control_c,0,74,90,
3,5128800,Control_c,0,71,19,
3,5128800,Control_c,0,74,90,
3,5129280,Control_c,0,71,19,
3,5129280,Control_c,0,74,90,
3,5129760,Control_c,0,71,19,
3,5129760,Control_c,0,74,90,
3,5130240,Note_off_c,0,64,0,
3,5130240,Note_on_c,0,66,47,
3,5130240,Control_c,0,71,19,
3,5130240,Control_c,0,74,90,
3,5130720,Control_c,0,71,19,
3,5130720,Control_c,0,74,90,
3,5131200,Control_c,0,71,19,
3,5131200,Control_c,0,74,90,
3,5131680,Control_c,0,71,19,
3,5131680,Control_c,0,74,90,
3,5132160,Control_c,0,71,19,
3,5132160,Control_c,0,74,90,
3,5132640,Control_c,0,71,19,
3,5132640,Control_c,0,74,90,
3,5133120,Control_c,0,71,19,
3,5133120,Control_c,0,74,90,
3,5133600,Control_c,0,71,19,
3,5133600,Control_c,0,74,91,
3,5134080,Control_c,0,71,19,
3,5134080,Control_c,0,74,91,
3,5134560,Control_c,0,71,19,
3,5134560,Control_c,0,74,91,
3,5135040,Control_c,0,71,19,
3,5135040,Control_c,0,74,91,
3,5135520,Control_c,0,71,19,
3,5135520,Control_c,0,74,91,
3,5136000,Control_c,0,71,19,
3,5136000,Control_c,0,74,91,
3,5136480,Control_c,0,71,19,
3,5136480,Control_c,0,74,91,
3,5136960,Control_c,0,71,19,
3,5136960,Control_c,0,74,91,
3,5137440,Control_c,0,71,19,
3,5137440,Control_c,0,74,91,
3,5137920,Note_off_c,0,66,0,
3,5137920,Note_on_c,0,68,49,
3,5137920,Control_c,0,71,19,
3,5137920,Control_c,0,74,91,
3,5138400,Control_c,0,71,19,
3,5138400,Control_c,0,74,91,
3,5138880,Control_c,0,71,19,
3,5138880,Control_c,0,74,91,
3,5139360,Control_c,0,71,19,
3,5139360,Control_c,0,74,91,
3,5139840,Control_c,0,71,19,
3,5139840,Control_c,0,74,91,
3,5140320,Control_c,0,71,19,
3,5140320,Control_c,0,74,91,
3,5140800,Control_c,0,71,19,
3,5140800,Control_c,0,74,91,
3,5141280,Control_c,0,71,19,
3,5141280,Control_c,0,74,91,
3,5141760,Control_c,0,71,19,
3,5141760,Control_c,0,74,91,
3,5142240,Control_c,0,71,19,
3,5142240,Control_c,0,74,91,
3,5142720,Control_c,0,71,19,
3,5142720,Control_c,0,74,91,
3,5143200,Control_c,0,71,19,
3,5143200,Control_c,0,74,91,
3,5143680,Control_c,0,71,19,
3,5143680,Control_c,0,74,91,
3,5144160,Control_c,0,71,19,
3,5144160,Control_c,0,74,91,
3,5144640,Control_c,0,71,19,
3,5144640,Control_c,0,74,92,
3,5145120,Control_c,0,71,19,
3,5145120,Control_c,0,74,92,
3,5145600,Note_off_c,0,68,0,
3,5145600,Note_on_c,0,62,60,
3,5145600,Control_c,0,71,19,
3,5145600,Control_c,0,74,92,
3,5146080,Control_c,0,71,19,
3,5146080,Control_c,0,74,92,
3,5146560,Control_c,0,71,19,
3,5146560,Control_c,0,74,92,
3,5147040,Control_c,0,71,19,
3,5147040,Control_c,0,74,92,
3,5147520,Control_c,0,71,19,
3,5147520,Control_c,0,74,92,
3,5148000,Control_c,0,71,19,
3,5148000,Control_c,0,74,92,
3,5148480,Control_c,0,71,19,
3,5148480,Control_c,0,74,92,
3,5148960,Control_c,0,71,19,
3,5148960,Control_c,0,74,92,
3,5149440,Control_c,0,71,19,
3,5149440,Control_c,0,74,92,
3,5149920,Control_c,0,71,19,
3,5149920,Control_c,0,74,92,
3,5150400,Control_c,0,71,19,
3,5150400,Control_c,0,74,92,
3,5150880,Control_c,0,71,19,
3,5150880,Control_c,0,74,92,
3,5151360,Control_c,0,71,19,
3,5151360,Control_c,0,74,92,
3,5151840,Control_c,0,71,19,
3,5151840,Control_c,0,74,92,
3,5152001,Control_c,0,71,19,
3,5152320,Control_c,0,74,92,
3,5152481,Control_c,0,71,19,
3,5152800,Control_c,0,74,92,
3,5152961,Control_c,0,71,19,
3,5153280,Note_off_c,0,62,0,
3,5153280,Note_on_c,0,64,36,
3,5153280,Control_c,0,74,92,
3,5153441,Control_c,0,71,19,
3,5153760,Control_c,0,74,92,
3,5153921,Control_c,0,71,19,
3,5154240,Control_c,0,74,92,
3,5154401,Control_c,0,71,19,
3,5154720,Control_c,0,74,92,
3,5154881,Control_c,0,71,19,
3,5155200,Control_c,0,74,93,
3,5155361,Control_c,0,71,19,
3,5155680,Control_c,0,74,93,
3,5155841,Control_c,0,71,19,
3,5156160,Control_c,0,74,93,
3,5156321,Control_c,0,71,20,
3,5156640,Control_c,0,74,93,
3,5156801,Control_c,0,71,20,
3,5157120,Control_c,0,74,93,
3,5157281,Control_c,0,71,20,
3,5157600,Control_c,0,74,93,
3,5157761,Control_c,0,71,20,
3,5158080,Control_c,0,74,93,
3,5158241,Control_c,0,71,20,
3,5158560,Control_c,0,74,93,
3,5158721,Control_c,0,71,20,
3,5159040,Control_c,0,74,93,
3,5159201,Control_c,0,71,20,
3,5159520,Control_c,0,74,93,
3,5159681,Control_c,0,71,20,
3,5160000,Control_c,0,74,93,
3,5160161,Control_c,0,71,20,
3,5160480,Control_c,0,74,93,
3,5160641,Control_c,0,71,21,
3,5160960,Note_off_c,0,64,0,
3,5160960,Note_on_c,0,66,47,
3,5160960,Control_c,0,74,93,
3,5161121,Control_c,0,71,21,
3,5161440,Control_c,0,74,93,
3,5161601,Control_c,0,71,21,
3,5161920,Control_c,0,74,93,
3,5162081,Control_c,0,71,21,
3,5162400,Control_c,0,74,93,
3,5162561,Control_c,0,71,21,
3,5162880,Control_c,0,74,93,
3,5163041,Control_c,0,71,21,
3,5163360,Control_c,0,74,93,
3,5163521,Control_c,0,71,21,
3,5163840,Control_c,0,74,93,
3,5164001,Control_c,0,71,21,
3,5164320,Control_c,0,74,93,
3,5164481,Control_c,0,71,21,
3,5164800,Control_c,0,74,93,
3,5164961,Control_c,0,71,22,
3,5165280,Control_c,0,74,93,
3,5165441,Control_c,0,71,22,
3,5165760,Control_c,0,74,94,
3,5165921,Control_c,0,71,22,
3,5166240,Control_c,0,74,94,
3,5166401,Control_c,0,71,22,
3,5166720,Control_c,0,74,94,
3,5166881,Control_c,0,71,22,
3,5167200,Control_c,0,74,94,
3,5167361,Control_c,0,71,22,
3,5167680,Control_c,0,74,94,
3,5167841,Control_c,0,71,22,
3,5168160,Control_c,0,74,94,
3,5168321,Control_c,0,71,22,
3,5168640,Note_off_c,0,66,0,
3,5168640,Note_on_c,0,69,75,
3,5168640,Control_c,0,74,94,
3,5168801,Control_c,0,71,22,
3,5169120,Control_c,0,74,94,
3,5169281,Control_c,0,71,23,
3,5169600,Control_c,0,74,94,
3,5169761,Control_c,0,71,23,
3,5170080,Control_c,0,74,94,
3,5170241,Control_c,0,71,23,
3,5170560,Control_c,0,74,94,
3,5170721,Control_c,0,71,23,
3,5171040,Control_c,0,74,94,
3,5171201,Control_c,0,71,23,
3,5171520,Control_c,0,74,94,
3,5171681,Control_c,0,71,23,
3,5172000,Control_c,0,74,94,
3,5172161,Control_c,0,71,23,
3,5172480,Control_c,0,74,94,
3,5172641,Control_c,0,71,23,
3,5172960,Control_c,0,74,94,
3,5173121,Control_c,0,71,23,
3,5173440,Control_c,0,74,94,
3,5173601,Control_c,0,71,24,
3,5173920,Control_c,0,74,94,
3,5174081,Control_c,0,71,24,
3,5174400,Control_c,0,74,94,
3,5174561,Control_c,0,71,24,
3,5174880,Control_c,0,74,94,
3,5175041,Control_c,0,71,24,
3,5175360,Control_c,0,74,94,
3,5175521,Control_c,0,71,24,
3,5175840,Control_c,0,74,94,
3,5176001,Control_c,0,71,24,
3,5176320,Note_off_c,0,69,0,
3,5176320,Note_on_c,0,62,79,
3,5176320,Control_c,0,74,95,
3,5176481,Control_c,0,71,24,
3,5176800,Control_c,0,74,94,
3,5176961,Control_c,0,71,24,
3,5177280,Control_c,0,74,94,
3,5177441,Control_c,0,71,25,
3,5177760,Control_c,0,74,94,
3,5177921,Control_c,0,71,25,
3,5178240,Control_c,0,74,94,
3,5178401,Control_c,0,71,25,
3,5178720,Control_c,0,74,94,
3,5178881,Control_c,0,71,25,
3,5179200,Control_c,0,74,94,
3,5179361,Control_c,0,71,25,
3,5179680,Control_c,0,74,94,
3,5179841,Control_c,0,71,25,
3,5180160,Control_c,0,74,94,
3,5180321,Control_c,0,71,25,
3,5180640,Control_c,0,74,94,
3,5180801,Control_c,0,71,25,
3,5181120,Control_c,0,74,94,
3,5181281,Control_c,0,71,25,
3,5181600,Control_c,0,74,94,
3,5181761,Control_c,0,71,26,
3,5182080,Control_c,0,74,94,
3,5182241,Control_c,0,71,26,
3,5182560,Control_c,0,74,94,
3,5182721,Control_c,0,71,26,
3,5183040,Control_c,0,74,94,
3,5183201,Control_c,0,71,26,
3,5183520,Control_c,0,74,94,
3,5183681,Control_c,0,71,26,
3,5184000,Note_off_c,0,62,0,
3,5184000,Note_on_c,0,64,51,
3,5184000,Control_c,0,74,94,
3,5184161,Control_c,0,71,26,
3,5184480,Control_c,0,74,94,
3,5184641,Control_c,0,71,26,
3,5184960,Control_c,0,74,94,
3,5185121,Control_c,0,71,26,
3,5185440,Control_c,0,74,94,
3,5185601,Control_c,0,71,26,
3,5185920,Control_c,0,74,94,
3,5186081,Control_c,0,71,27,
3,5186400,Control_c,0,74,94,
3,5186561,Control_c,0,71,27,
3,5186880,Control_c,0,74,93,
3,5187041,Control_c,0,71,27,
3,5187360,Control_c,0,74,93,
3,5187521,Control_c,0,71,27,
3,5187840,Control_c,0,74,93,
3,5188001,Control_c,0,71,27,
3,5188320,Control_c,0,74,93,
3,5188481,Control_c,0,71,27,
3,5188800,Control_c,0,74,93,
3,5188961,Control_c,0,71,27,
3,5189280,Control_c,0,74,93,
3,5189441,Control_c,0,71,27,
3,5189760,Control_c,0,74,93,
3,5189921,Control_c,0,71,27,
3,5190240,Control_c,0,74,93,
3,5190401,Control_c,0,71,28,
3,5190720,Control_c,0,74,93,
3,5190881,Control_c,0,71,28,
3,5191200,Control_c,0,74,93,
3,5191361,Control_c,0,71,28,
3,5191680,Note_off_c,0,64,0,
3,5191680,Note_on_c,0,66,56,
3,5191680,Control_c,0,74,93,
3,5191841,Control_c,0,71,28,
3,5192160,Control_c,0,74,93,
3,5192321,Control_c,0,71,28,
3,5192640,Control_c,0,74,93,
3,5192801,Control_c,0,71,28,
3,5193120,Control_c,0,74,93,
3,5193281,Control_c,0,71,28,
3,5193600,Control_c,0,74,93,
3,5193761,Control_c,0,71,28,
3,5194080,Control_c,0,74,93,
3,5194241,Control_c,0,71,28,
3,5194560,Control_c,0,74,93,
3,5194721,Control_c,0,71,29,
3,5195040,Control_c,0,74,93,
3,5195201,Control_c,0,71,29,
3,5195520,Control_c,0,74,93,
3,5195681,Control_c,0,71,29,
3,5196000,Control_c,0,74,93,
3,5196161,Control_c,0,71,29,
3,5196480,Control_c,0,74,93,
3,5196641,Control_c,0,71,29,
3,5196960,Control_c,0,74,92,
3,5197121,Control_c,0,71,29,
3,5197440,Control_c,0,74,92,
3,5197601,Control_c,0,71,29,
3,5197920,Control_c,0,74,92,
3,5198081,Control_c,0,71,29,
3,5198400,Control_c,0,74,92,
3,5198561,Control_c,0,71,29,
3,5198880,Control_c,0,74,92,
3,5199041,Control_c,0,71,30,
3,5199360,Note_off_c,0,66,0,
3,5199360,Note_on_c,0,68,57,
3,5199360,Control_c,0,74,92,
3,5199521,Control_c,0,71,30,
3,5199840,Control_c,0,74,92,
3,5200001,Control_c,0,71,30,
3,5200320,Control_c,0,74,92,
3,5200481,Control_c,0,71,30,
3,5200800,Control_c,0,74,92,
3,5200961,Control_c,0,71,30,
3,5201280,Control_c,0,74,92,
3,5201441,Control_c,0,71,30,
3,5201760,Control_c,0,74,92,
3,5201921,Control_c,0,71,30,
3,5202240,Control_c,0,74,92,
3,5202401,Control_c,0,71,30,
3,5202720,Control_c,0,74,92,
3,5202881,Control_c,0,71,31,
3,5203200,Control_c,0,74,92,
3,5203361,Control_c,0,71,31,
3,5203680,Control_c,0,74,92,
3,5203841,Control_c,0,71,31,
3,5204160,Control_c,0,74,92,
3,5204321,Control_c,0,71,31,
3,5204640,Control_c,0,74,92,
3,5204801,Control_c,0,71,31,
3,5205120,Control_c,0,74,92,
3,5205281,Control_c,0,71,31,
3,5205600,Control_c,0,74,92,
3,5205761,Control_c,0,71,31,
3,5206080,Control_c,0,74,92,
3,5206241,Control_c,0,71,31,
3,5206560,Control_c,0,74,92,
3,5206721,Control_c,0,71,31,
3,5207040,Note_off_c,0,68,0,
3,5207040,Note_on_c,0,62,77,
3,5207040,Control_c,0,74,91,
3,5207201,Control_c,0,71,32,
3,5207520,Control_c,0,74,91,
3,5207681,Control_c,0,71,32,
3,5208000,Control_c,0,74,91,
3,5208161,Control_c,0,71,32,
3,5208480,Control_c,0,74,91,
3,5208641,Control_c,0,71,32,
3,5208960,Control_c,0,74,91,
3,5209121,Control_c,0,71,32,
3,5209440,Control_c,0,74,91,
3,5209601,Control_c,0,71,32,
3,5209920,Control_c,0,74,91,
3,5210081,Control_c,0,71,32,
3,5210400,Control_c,0,74,91,
3,5210561,Control_c,0,71,32,
3,5210880,Control_c,0,74,91,
3,5211041,Control_c,0,71,32,
3,5211360,Control_c,0,74,91,
3,5211521,Control_c,0,71,33,
3,5211840,Control_c,0,74,91,
3,5212001,Control_c,0,71,33,
3,5212320,Control_c,0,74,91,
3,5212481,Control_c,0,71,33,
3,5212800,Control_c,0,74,91,
3,5212961,Control_c,0,71,33,
3,5213280,Control_c,0,74,91,
3,5213441,Control_c,0,71,33,
3,5213760,Control_c,0,74,91,
3,5213921,Control_c,0,71,33,
3,5214240,Control_c,0,74,91,
3,5214401,Control_c,0,71,33,
3,5214720,Note_off_c,0,62,0,
3,5214720,Note_on_c,0,64,51,
3,5214720,Control_c,0,74,91,
3,5214881,Control_c,0,71,33,
3,5215200,Control_c,0,74,91,
3,5215361,Control_c,0,71,33,
3,5215680,Control_c,0,74,91,
3,5215841,Control_c,0,71,34,
3,5216160,Control_c,0,74,91,
3,5216321,Control_c,0,71,34,
3,5216640,Control_c,0,74,91,
3,5216801,Control_c,0,71,34,
3,5217120,Control_c,0,74,90,
3,5217281,Control_c,0,71,34,
3,5217600,Control_c,0,74,90,
3,5217761,Control_c,0,71,34,
3,5218080,Control_c,0,74,90,
3,5218241,Control_c,0,71,34,
3,5218560,Control_c,0,74,90,
3,5218721,Control_c,0,71,34,
3,5219040,Control_c,0,74,90,
3,5219201,Control_c,0,71,34,
3,5219520,Control_c,0,74,90,
3,5219681,Control_c,0,71,34,
3,5220000,Control_c,0,74,90,
3,5220161,Control_c,0,71,35,
3,5220480,Control_c,0,74,90,
3,5220641,Control_c,0,71,35,
3,5220960,Control_c,0,74,90,
3,5221121,Control_c,0,71,35,
3,5221440,Control_c,0,74,90,
3,5221601,Control_c,0,71,35,
3,5221920,Control_c,0,74,90,
3,5222081,Control_c,0,71,35,
3,5222400,Note_off_c,0,64,0,
3,5222400,Note_on_c,0,66,50,
3,5222400,Control_c,0,74,90,
3,5222561,Control_c,0,71,35,
3,5222880,Control_c,0,74,90,
3,5223041,Control_c,0,71,35,
3,5223360,Control_c,0,74,90,
3,5223521,Control_c,0,71,35,
3,5223840,Control_c,0,74,90,
3,5224001,Control_c,0,71,35,
3,5224320,Control_c,0,74,90,
3,5224481,Control_c,0,71,36,
3,5224800,Control_c,0,74,90,
3,5224961,Control_c,0,71,36,
3,5225280,Control_c,0,74,90,
3,5225441,Control_c,0,71,36,
3,5225760,Control_c,0,74,90,
3,5225921,Control_c,0,71,36,
3,5226240,Control_c,0,74,90,
3,5226401,Control_c,0,71,36,
3,5226720,Control_c,0,74,90,
3,5226730,Control_c,0,74,90,
3,5226881,Control_c,0,71,36,
3,5227210,Control_c,0,74,89,
3,5227361,Control_c,0,71,36,
3,5227690,Control_c,0,74,89,
3,5227841,Control_c,0,71,36,
3,5228170,Control_c,0,74,89,
3,5228318,Control_c,0,71,37,
3,5228650,Control_c,0,74,88,
3,5229130,Control_c,0,74,88,
3,5229610,Control_c,0,74,88,
3,5230080,Note_off_c,0,66,0,
3,5230080,Note_on_c,0,69,50,
3,5230090,Control_c,0,74,88,
3,5230570,Control_c,0,74,87,
3,5231050,Control_c,0,74,87,
3,5231530,Control_c,0,74,87,
3,5231991,Control_c,0,74,87,
3,5232471,Control_c,0,74,84,
3,5232951,Control_c,0,74,81,
3,5233431,Control_c,0,74,78,
3,5233676,Control_c,0,74,77,
3,5234156,Control_c,0,74,72,
3,5234636,Control_c,0,74,67,
3,5235116,Control_c,0,74,62,
3,5235596,Control_c,0,74,57,
3,5236076,Control_c,0,74,52,
3,5236556,Control_c,0,74,47,
3,5236970,Control_c,0,71,37,
3,5237036,Control_c,0,74,42,
3,5237350,Control_c,0,74,39,
3,5237450,Control_c,0,71,34,
3,5237760,Note_off_c,0,50,0,
3,5237760,Note_off_c,0,69,0,
3,5237760,Note_on_c,0,52,86,
3,5237760,Note_on_c,0,64,50,
3,5237830,Control_c,0,74,36,
3,5237930,Control_c,0,71,32,
3,5238310,Control_c,0,74,34,
3,5238410,Control_c,0,71,30,
3,5238790,Control_c,0,74,31,
3,5238890,Control_c,0,71,28,
3,5239270,Control_c,0,74,29,
3,5239370,Control_c,0,71,26,
3,5239665,Control_c,0,74,27,
3,5239850,Control_c,0,71,24,
3,5240145,Control_c,0,74,26,
3,5240330,Control_c,0,71,22,
3,5240625,Control_c,0,74,26,
3,5240810,Control_c,0,71,20,
3,5241105,Control_c,0,74,26,
3,5241290,Control_c,0,71,18,
3,5241585,Control_c,0,74,26,
3,5241633,Control_c,0,71,17,
3,5242065,Control_c,0,74,26,
3,5242545,Control_c,0,74,26,
3,5243025,Control_c,0,74,26,
3,5243505,Control_c,0,74,25,
3,5243985,Control_c,0,74,25,
3,5244465,Control_c,0,74,25,
3,5244945,Control_c,0,74,25,
3,5245425,Control_c,0,74,25,
3,5245440,Note_off_c,0,64,0,
3,5245440,Note_on_c,0,66,55,
3,5245905,Control_c,0,74,25,
3,5246385,Control_c,0,74,25,
3,5246865,Control_c,0,74,25,
3,5247307,Control_c,0,74,25,
3,5247787,Control_c,0,74,24,
3,5248267,Control_c,0,74,24,
3,5248747,Control_c,0,74,24,
3,5249227,Control_c,0,74,24,
3,5249707,Control_c,0,74,24,
3,5250187,Control_c,0,74,24,
3,5250667,Control_c,0,74,24,
3,5251147,Control_c,0,74,24,
3,5251627,Control_c,0,74,24,
3,5252107,Control_c,0,74,24,
3,5252587,Control_c,0,74,24,
3,5253067,Control_c,0,74,24,
3,5253120,Note_off_c,0,66,0,
3,5253120,Note_on_c,0,68,15,
3,5253547,Control_c,0,74,24,
3,5254027,Control_c,0,74,24,
3,5254507,Control_c,0,74,24,
3,5254987,Control_c,0,74,24,
3,5255467,Control_c,0,74,24,
3,5255947,Control_c,0,74,24,
3,5256427,Control_c,0,74,24,
3,5256907,Control_c,0,74,24,
3,5257387,Control_c,0,74,24,
3,5257867,Control_c,0,74,24,
3,5258347,Control_c,0,74,24,
3,5258827,Control_c,0,74,24,
3,5259307,Control_c,0,74,24,
3,5259787,Control_c,0,74,24,
3,5260267,Control_c,0,74,24,
3,5260747,Control_c,0,74,24,
3,5260800,Note_off_c,0,68,0,
3,5260800,Note_on_c,0,71,43,
3,5261227,Control_c,0,74,24,
3,5261707,Control_c,0,74,24,
3,5262187,Control_c,0,74,24,
3,5262667,Control_c,0,74,24,
3,5263147,Control_c,0,74,24,
3,5263627,Control_c,0,74,24,
3,5264107,Control_c,0,74,24,
3,5264587,Control_c,0,74,24,
3,5265067,Control_c,0,74,24,
3,5265547,Control_c,0,74,24,
3,5265883,Control_c,0,71,17,
3,5266027,Control_c,0,74,24,
3,5266363,Control_c,0,71,17,
3,5266507,Control_c,0,74,24,
3,5266843,Control_c,0,71,17,
3,5266987,Control_c,0,74,24,
3,5267323,Control_c,0,71,17,
3,5267467,Control_c,0,74,24,
3,5267803,Control_c,0,71,17,
3,5267947,Control_c,0,74,24,
3,5268283,Control_c,0,71,17,
3,5268427,Control_c,0,74,24,
3,5268480,Note_off_c,0,71,0,
3,5268480,Note_on_c,0,64,52,
3,5268763,Control_c,0,71,17,
3,5268907,Control_c,0,74,24,
3,5269243,Control_c,0,71,17,
3,5269387,Control_c,0,74,24,
3,5269723,Control_c,0,71,17,
3,5269867,Control_c,0,74,24,
3,5270203,Control_c,0,71,17,
3,5270347,Control_c,0,74,24,
3,5270683,Control_c,0,71,17,
3,5270827,Control_c,0,74,24,
3,5271163,Control_c,0,71,17,
3,5271307,Control_c,0,74,24,
3,5271643,Control_c,0,71,17,
3,5271787,Control_c,0,74,24,
3,5272123,Control_c,0,71,17,
3,5272267,Control_c,0,74,24,
3,5272603,Control_c,0,71,17,
3,5272747,Control_c,0,74,24,
3,5273083,Control_c,0,71,17,
3,5273227,Control_c,0,74,24,
3,5273563,Control_c,0,71,17,
3,5273707,Control_c,0,74,24,
3,5274043,Control_c,0,71,17,
3,5274187,Control_c,0,74,24,
3,5274523,Control_c,0,71,17,
3,5274667,Control_c,0,74,24,
3,5275003,Control_c,0,71,17,
3,5275147,Control_c,0,74,24,
3,5275483,Control_c,0,71,17,
3,5275627,Control_c,0,74,24,
3,5275963,Control_c,0,71,17,
3,5276107,Control_c,0,74,24,
3,5276160,Note_off_c,0,64,0,
3,5276160,Note_on_c,0,66,56,
3,5276443,Control_c,0,71,17,
3,5276587,Control_c,0,74,24,
3,5276923,Control_c,0,71,17,
3,5277067,Control_c,0,74,24,
3,5277403,Control_c,0,71,17,
3,5277547,Control_c,0,74,24,
3,5277883,Control_c,0,71,17,
3,5278027,Control_c,0,74,24,
3,5278363,Control_c,0,71,17,
3,5278507,Control_c,0,74,24,
3,5278843,Control_c,0,71,17,
3,5278987,Control_c,0,74,24,
3,5279323,Control_c,0,71,17,
3,5279467,Control_c,0,74,24,
3,5279803,Control_c,0,71,17,
3,5279947,Control_c,0,74,24,
3,5280283,Control_c,0,71,17,
3,5280427,Control_c,0,74,24,
3,5280763,Control_c,0,71,17,
3,5280907,Control_c,0,74,24,
3,5281243,Control_c,0,71,17,
3,5281387,Control_c,0,74,24,
3,5281723,Control_c,0,71,17,
3,5281867,Control_c,0,74,24,
3,5282203,Control_c,0,71,17,
3,5282347,Control_c,0,74,24,
3,5282683,Control_c,0,71,17,
3,5282827,Control_c,0,74,24,
3,5283163,Control_c,0,71,17,
3,5283307,Control_c,0,74,24,
3,5283643,Control_c,0,71,17,
3,5283787,Control_c,0,74,24,
3,5283840,Note_off_c,0,66,0,
3,5283840,Note_on_c,0,68,16,
3,5284123,Control_c,0,71,18,
3,5284267,Control_c,0,74,24,
3,5284603,Control_c,0,71,18,
3,5284747,Control_c,0,74,24,
3,5285083,Control_c,0,71,18,
3,5285227,Control_c,0,74,24,
3,5285563,Control_c,0,71,18,
3,5285707,Control_c,0,74,24,
3,5286043,Control_c,0,71,18,
3,5286187,Control_c,0,74,24,
3,5286523,Control_c,0,71,18,
3,5286667,Control_c,0,74,24,
3,5287003,Control_c,0,71,18,
3,5287147,Control_c,0,74,24,
3,5287483,Control_c,0,71,18,
3,5287627,Control_c,0,74,24,
3,5287680,Control_c,0,74,24,
3,5287963,Control_c,0,71,18,
3,5288160,Control_c,0,74,24,
3,5288443,Control_c,0,71,18,
3,5288640,Control_c,0,74,25,
3,5288923,Control_c,0,71,18,
3,5289120,Control_c,0,74,26,
3,5289403,Control_c,0,71,18,
3,5289600,Control_c,0,74,27,
3,5289883,Control_c,0,71,18,
3,5290080,Control_c,0,74,28,
3,5290363,Control_c,0,71,18,
3,5290560,Control_c,0,74,28,
3,5290843,Control_c,0,71,18,
3,5291040,Control_c,0,74,29,
3,5291323,Control_c,0,71,18,
3,5291520,Note_off_c,0,68,0,
3,5291520,Note_on_c,0,73,54,
3,5291520,Control_c,0,74,30,
3,5291803,Control_c,0,71,18,
3,5292000,Control_c,0,74,31,
3,5292283,Control_c,0,71,18,
3,5292480,Control_c,0,74,32,
3,5292763,Control_c,0,71,18,
3,5292960,Control_c,0,74,32,
3,5293243,Control_c,0,71,18,
3,5293440,Control_c,0,74,33,
3,5293723,Control_c,0,71,18,
3,5293920,Control_c,0,74,34,
3,5294203,Control_c,0,71,18,
3,5294400,Control_c,0,74,35,
3,5294683,Control_c,0,71,18,
3,5294880,Control_c,0,74,36,
3,5295163,Control_c,0,71,18,
3,5295360,Control_c,0,74,36,
3,5295643,Control_c,0,71,18,
3,5295840,Control_c,0,74,37,
3,5296123,Control_c,0,71,18,
3,5296320,Control_c,0,74,38,
3,5296603,Control_c,0,71,18,
3,5296800,Control_c,0,74,39,
3,5297083,Control_c,0,71,18,
3,5297280,Control_c,0,74,40,
3,5297563,Control_c,0,71,18,
3,5297760,Control_c,0,74,41,
3,5298043,Control_c,0,71,18,
3,5298240,Control_c,0,74,41,
3,5298523,Control_c,0,71,18,
3,5298720,Control_c,0,74,42,
3,5299003,Control_c,0,71,18,
3,5299200,Note_off_c,0,73,0,
3,5299200,Note_on_c,0,64,47,
3,5299200,Control_c,0,74,43,
3,5299483,Control_c,0,71,18,
3,5299680,Control_c,0,74,44,
3,5299963,Control_c,0,71,18,
3,5300122,Control_c,0,74,45,
3,5300443,Control_c,0,71,18,
3,5300602,Control_c,0,74,45,
3,5300923,Control_c,0,71,18,
3,5301082,Control_c,0,74,45,
3,5301403,Control_c,0,71,18,
3,5301562,Control_c,0,74,45,
3,5301883,Control_c,0,71,18,
3,5302042,Control_c,0,74,45,
3,5302363,Control_c,0,71,19,
3,5302522,Control_c,0,74,45,
3,5302843,Control_c,0,71,19,
3,5303002,Control_c,0,74,45,
3,5303323,Control_c,0,71,19,
3,5303482,Control_c,0,74,45,
3,5303803,Control_c,0,71,19,
3,5303962,Control_c,0,74,45,
3,5304283,Control_c,0,71,19,
3,5304442,Control_c,0,74,45,
3,5304763,Control_c,0,71,19,
3,5304922,Control_c,0,74,45,
3,5305243,Control_c,0,71,19,
3,5305402,Control_c,0,74,45,
3,5305723,Control_c,0,71,19,
3,5305882,Control_c,0,74,45,
3,5306203,Control_c,0,71,19,
3,5306362,Control_c,0,74,45,
3,5306683,Control_c,0,71,19,
3,5306842,Control_c,0,74,45,
3,5306880,Note_off_c,0,64,0,
3,5306880,Note_on_c,0,66,48,
3,5307163,Control_c,0,71,19,
3,5307322,Control_c,0,74,45,
3,5307643,Control_c,0,71,19,
3,5307802,Control_c,0,74,45,
3,5308123,Control_c,0,71,19,
3,5308282,Control_c,0,74,45,
3,5308603,Control_c,0,71,19,
3,5308762,Control_c,0,74,45,
3,5309083,Control_c,0,71,19,
3,5309242,Control_c,0,74,45,
3,5309563,Control_c,0,71,19,
3,5309722,Control_c,0,74,45,
3,5310043,Control_c,0,71,19,
3,5310202,Control_c,0,74,45,
3,5310523,Control_c,0,71,19,
3,5310682,Control_c,0,74,45,
3,5311003,Control_c,0,71,19,
3,5311162,Control_c,0,74,45,
3,5311483,Control_c,0,71,19,
3,5311642,Control_c,0,74,46,
3,5311963,Control_c,0,71,19,
3,5312122,Control_c,0,74,46,
3,5312443,Control_c,0,71,19,
3,5312602,Control_c,0,74,46,
3,5312923,Control_c,0,71,19,
3,5313082,Control_c,0,74,46,
3,5313403,Control_c,0,71,19,
3,5313562,Control_c,0,74,46,
3,5313883,Control_c,0,71,19,
3,5314042,Control_c,0,74,46,
3,5314363,Control_c,0,71,19,
3,5314522,Control_c,0,74,46,
3,5314560,Note_off_c,0,66,0,
3,5314560,Note_on_c,0,68,30,
3,5314843,Control_c,0,71,19,
3,5315002,Control_c,0,74,46,
3,5315323,Control_c,0,71,19,
3,5315482,Control_c,0,74,46,
3,5315803,Control_c,0,71,19,
3,5315962,Control_c,0,74,46,
3,5316283,Control_c,0,71,19,
3,5316442,Control_c,0,74,46,
3,5316763,Control_c,0,71,19,
3,5316922,Control_c,0,74,46,
3,5317243,Control_c,0,71,19,
3,5317402,Control_c,0,74,46,
3,5317723,Control_c,0,71,19,
3,5317882,Control_c,0,74,46,
3,5318203,Control_c,0,71,19,
3,5318362,Control_c,0,74,46,
3,5318683,Control_c,0,71,19,
3,5318842,Control_c,0,74,46,
3,5319163,Control_c,0,71,19,
3,5319322,Control_c,0,74,46,
3,5319643,Control_c,0,71,19,
3,5319802,Control_c,0,74,46,
3,5320123,Control_c,0,71,19,
3,5320282,Control_c,0,74,46,
3,5320603,Control_c,0,71,20,
3,5320762,Control_c,0,74,46,
3,5321083,Control_c,0,71,20,
3,5321242,Control_c,0,74,46,
3,5321563,Control_c,0,71,20,
3,5321722,Control_c,0,74,46,
3,5322043,Control_c,0,71,20,
3,5322202,Control_c,0,74,46,
3,5322240,Note_off_c,0,68,0,
3,5322240,Note_on_c,0,71,38,
3,5322523,Control_c,0,71,20,
3,5322682,Control_c,0,74,46,
3,5323003,Control_c,0,71,20,
3,5323162,Control_c,0,74,47,
3,5323483,Control_c,0,71,20,
3,5323642,Control_c,0,74,47,
3,5323963,Control_c,0,71,20,
3,5324122,Control_c,0,74,47,
3,5324443,Control_c,0,71,20,
3,5324602,Control_c,0,74,47,
3,5324923,Control_c,0,71,20,
3,5325082,Control_c,0,74,47,
3,5325403,Control_c,0,71,20,
3,5325562,Control_c,0,74,47,
3,5325883,Control_c,0,71,20,
3,5326042,Control_c,0,74,47,
3,5326363,Control_c,0,71,20,
3,5326522,Control_c,0,74,47,
3,5326843,Control_c,0,71,20,
3,5327002,Control_c,0,74,47,
3,5327323,Control_c,0,71,20,
3,5327482,Control_c,0,74,47,
3,5327803,Control_c,0,71,20,
3,5327962,Control_c,0,74,47,
3,5328283,Control_c,0,71,20,
3,5328442,Control_c,0,74,47,
3,5328763,Control_c,0,71,20,
3,5328922,Control_c,0,74,47,
3,5329243,Control_c,0,71,20,
3,5329402,Control_c,0,74,47,
3,5329723,Control_c,0,71,20,
3,5329882,Control_c,0,74,47,
3,5329920,Note_off_c,0,71,0,
3,5329920,Note_on_c,0,64,58,
3,5330203,Control_c,0,71,20,
3,5330362,Control_c,0,74,47,
3,5330683,Control_c,0,71,20,
3,5330842,Control_c,0,74,47,
3,5331163,Control_c,0,71,20,
3,5331322,Control_c,0,74,47,
3,5331643,Control_c,0,71,20,
3,5331802,Control_c,0,74,47,
3,5332123,Control_c,0,71,20,
3,5332282,Control_c,0,74,47,
3,5332603,Control_c,0,71,20,
3,5332762,Control_c,0,74,47,
3,5333083,Control_c,0,71,20,
3,5333242,Control_c,0,74,47,
3,5333563,Control_c,0,71,20,
3,5333722,Control_c,0,74,47,
3,5334043,Control_c,0,71,20,
3,5334202,Control_c,0,74,47,
3,5334523,Control_c,0,71,20,
3,5334682,Control_c,0,74,48,
3,5335003,Control_c,0,71,20,
3,5335162,Control_c,0,74,48,
3,5335483,Control_c,0,71,20,
3,5335642,Control_c,0,74,48,
3,5335963,Control_c,0,71,20,
3,5336122,Control_c,0,74,48,
3,5336443,Control_c,0,71,20,
3,5336602,Control_c,0,74,48,
3,5336923,Control_c,0,71,20,
3,5337082,Control_c,0,74,48,
3,5337403,Control_c,0,71,20,
3,5337562,Control_c,0,74,48,
3,5337600,Note_off_c,0,64,0,
3,5337600,Note_on_c,0,66,62,
3,5337883,Control_c,0,71,20,
3,5338042,Control_c,0,74,48,
3,5338363,Control_c,0,71,20,
3,5338522,Control_c,0,74,48,
3,5338843,Control_c,0,71,21,
3,5339002,Control_c,0,74,48,
3,5339323,Control_c,0,71,21,
3,5339482,Control_c,0,74,48,
3,5339803,Control_c,0,71,21,
3,5339962,Control_c,0,74,48,
3,5340283,Control_c,0,71,21,
3,5340442,Control_c,0,74,48,
3,5340763,Control_c,0,71,21,
3,5340922,Control_c,0,74,48,
3,5341243,Control_c,0,71,21,
3,5341402,Control_c,0,74,48,
3,5341723,Control_c,0,71,21,
3,5341882,Control_c,0,74,48,
3,5342203,Control_c,0,71,21,
3,5342362,Control_c,0,74,48,
3,5342683,Control_c,0,71,21,
3,5342842,Control_c,0,74,48,
3,5343163,Control_c,0,71,21,
3,5343322,Control_c,0,74,48,
3,5343643,Control_c,0,71,21,
3,5343802,Control_c,0,74,48,
3,5344123,Control_c,0,71,21,
3,5344282,Control_c,0,74,48,
3,5344603,Control_c,0,71,21,
3,5344762,Control_c,0,74,48,
3,5345083,Control_c,0,71,21,
3,5345242,Control_c,0,74,48,
3,5345280,Note_off_c,0,66,0,
3,5345280,Note_on_c,0,68,43,
3,5345563,Control_c,0,71,21,
3,5345722,Control_c,0,74,48,
3,5346043,Control_c,0,71,21,
3,5346202,Control_c,0,74,49,
3,5346523,Control_c,0,71,21,
3,5346682,Control_c,0,74,49,
3,5347003,Control_c,0,71,21,
3,5347162,Control_c,0,74,49,
3,5347483,Control_c,0,71,21,
3,5347642,Control_c,0,74,49,
3,5347963,Control_c,0,71,21,
3,5348122,Control_c,0,74,49,
3,5348443,Control_c,0,71,21,
3,5348602,Control_c,0,74,49,
3,5348923,Control_c,0,71,21,
3,5349082,Control_c,0,74,49,
3,5349403,Control_c,0,71,21,
3,5349562,Control_c,0,74,49,
3,5349883,Control_c,0,71,21,
3,5350042,Control_c,0,74,49,
3,5350363,Control_c,0,71,21,
3,5350522,Control_c,0,74,49,
3,5350843,Control_c,0,71,21,
3,5351002,Control_c,0,74,49,
3,5351323,Control_c,0,71,21,
3,5351482,Control_c,0,74,49,
3,5351803,Control_c,0,71,21,
3,5351962,Control_c,0,74,49,
3,5352283,Control_c,0,71,21,
3,5352442,Control_c,0,74,49,
3,5352763,Control_c,0,71,21,
3,5352922,Control_c,0,74,49,
3,5352960,Note_off_c,0,68,0,
3,5352960,Note_on_c,0,71,36,
3,5353243,Control_c,0,71,21,
3,5353402,Control_c,0,74,49,
3,5353723,Control_c,0,71,21,
3,5353882,Control_c,0,74,49,
3,5354203,Control_c,0,71,21,
3,5354362,Control_c,0,74,49,
3,5354683,Control_c,0,71,21,
3,5354842,Control_c,0,74,49,
3,5355163,Control_c,0,71,21,
3,5355322,Control_c,0,74,49,
3,5355643,Control_c,0,71,21,
3,5355802,Control_c,0,74,49,
3,5356123,Control_c,0,71,21,
3,5356282,Control_c,0,74,49,
3,5356603,Control_c,0,71,21,
3,5356762,Control_c,0,74,49,
3,5357083,Control_c,0,71,22,
3,5357242,Control_c,0,74,49,
3,5357563,Control_c,0,71,22,
3,5357722,Control_c,0,74,50,
3,5358043,Control_c,0,71,22,
3,5358202,Control_c,0,74,50,
3,5358523,Control_c,0,71,22,
3,5358682,Control_c,0,74,50,
3,5359003,Control_c,0,71,22,
3,5359162,Control_c,0,74,50,
3,5359483,Control_c,0,71,22,
3,5359642,Control_c,0,74,50,
3,5359963,Control_c,0,71,22,
3,5360122,Control_c,0,74,50,
3,5360443,Control_c,0,71,22,
3,5360602,Control_c,0,74,50,
3,5360640,Note_off_c,0,52,0,
3,5360640,Note_off_c,0,71,0,
3,5360640,Note_on_c,0,54,84,
3,5360640,Note_on_c,0,66,45,
3,5360923,Control_c,0,71,22,
3,5361082,Control_c,0,74,50,
3,5361403,Control_c,0,71,22,
3,5361562,Control_c,0,74,50,
3,5361883,Control_c,0,71,22,
3,5362042,Control_c,0,74,50,
3,5362363,Control_c,0,71,22,
3,5362522,Control_c,0,74,50,
3,5362843,Control_c,0,71,22,
3,5363002,Control_c,0,74,50,
3,5363323,Control_c,0,71,22,
3,5363482,Control_c,0,74,50,
3,5363803,Control_c,0,71,22,
3,5363962,Control_c,0,74,50,
3,5364283,Control_c,0,71,22,
3,5364442,Control_c,0,74,50,
3,5364763,Control_c,0,71,22,
3,5364922,Control_c,0,74,50,
3,5365243,Control_c,0,71,22,
3,5365402,Control_c,0,74,50,
3,5365723,Control_c,0,71,22,
3,5365882,Control_c,0,74,50,
3,5366203,Control_c,0,71,22,
3,5366362,Control_c,0,74,50,
3,5366683,Control_c,0,71,22,
3,5366842,Control_c,0,74,50,
3,5367163,Control_c,0,71,22,
3,5367322,Control_c,0,74,50,
3,5367643,Control_c,0,71,22,
3,5367802,Control_c,0,74,50,
3,5368123,Control_c,0,71,22,
3,5368282,Control_c,0,74,50,
3,5368320,Note_off_c,0,66,0,
3,5368320,Note_on_c,0,68,48,
3,5368603,Control_c,0,71,22,
3,5368762,Control_c,0,74,50,
3,5369083,Control_c,0,71,22,
3,5369242,Control_c,0,74,51,
3,5369563,Control_c,0,71,22,
3,5369722,Control_c,0,74,51,
3,5370043,Control_c,0,71,22,
3,5370202,Control_c,0,74,51,
3,5370523,Control_c,0,71,22,
3,5370682,Control_c,0,74,51,
3,5371003,Control_c,0,71,22,
3,5371162,Control_c,0,74,51,
3,5371483,Control_c,0,71,22,
3,5371642,Control_c,0,74,51,
3,5371963,Control_c,0,71,22,
3,5372122,Control_c,0,74,51,
3,5372443,Control_c,0,71,22,
3,5372602,Control_c,0,74,51,
3,5372923,Control_c,0,71,22,
3,5373082,Control_c,0,74,51,
3,5373403,Control_c,0,71,22,
3,5373562,Control_c,0,74,51,
3,5373883,Control_c,0,71,22,
3,5374042,Control_c,0,74,51,
3,5374363,Control_c,0,71,22,
3,5374522,Control_c,0,74,51,
3,5374843,Control_c,0,71,22,
3,5375002,Control_c,0,74,51,
3,5375323,Control_c,0,71,23,
3,5375482,Control_c,0,74,51,
3,5375803,Control_c,0,71,23,
3,5375962,Control_c,0,74,51,
3,5376000,Note_off_c,0,68,0,
3,5376000,Note_on_c,0,69,36,
3,5376283,Control_c,0,71,23,
3,5376442,Control_c,0,74,51,
3,5376763,Control_c,0,71,23,
3,5376922,Control_c,0,74,51,
3,5377243,Control_c,0,71,23,
3,5377402,Control_c,0,74,51,
3,5377723,Control_c,0,71,23,
3,5377882,Control_c,0,74,51,
3,5378203,Control_c,0,71,23,
3,5378362,Control_c,0,74,51,
3,5378683,Control_c,0,71,23,
3,5378842,Control_c,0,74,51,
3,5379163,Control_c,0,71,23,
3,5379322,Control_c,0,74,51,
3,5379643,Control_c,0,71,23,
3,5379802,Control_c,0,74,51,
3,5380123,Control_c,0,71,23,
3,5380282,Control_c,0,74,51,
3,5380603,Control_c,0,71,23,
3,5380762,Control_c,0,74,52,
3,5381083,Control_c,0,71,23,
3,5381242,Control_c,0,74,52,
3,5381563,Control_c,0,71,23,
3,5381722,Control_c,0,74,52,
3,5382043,Control_c,0,71,23,
3,5382202,Control_c,0,74,52,
3,5382523,Control_c,0,71,23,
3,5382682,Control_c,0,74,52,
3,5383003,Control_c,0,71,23,
3,5383162,Control_c,0,74,52,
3,5383483,Control_c,0,71,23,
3,5383642,Control_c,0,74,52,
3,5383680,Note_off_c,0,69,0,
3,5383680,Note_on_c,0,71,45,
3,5383963,Control_c,0,71,23,
3,5384122,Control_c,0,74,52,
3,5384443,Control_c,0,71,23,
3,5384602,Control_c,0,74,52,
3,5384923,Control_c,0,71,23,
3,5385082,Control_c,0,74,52,
3,5385403,Control_c,0,71,23,
3,5385562,Control_c,0,74,52,
3,5385883,Control_c,0,71,23,
3,5386042,Control_c,0,74,52,
3,5386363,Control_c,0,71,23,
3,5386522,Control_c,0,74,52,
3,5386843,Control_c,0,71,23,
3,5387002,Control_c,0,74,52,
3,5387323,Control_c,0,71,23,
3,5387482,Control_c,0,74,52,
3,5387803,Control_c,0,71,23,
3,5387962,Control_c,0,74,52,
3,5388283,Control_c,0,71,23,
3,5388442,Control_c,0,74,52,
3,5388763,Control_c,0,71,23,
3,5388922,Control_c,0,74,52,
3,5389243,Control_c,0,71,23,
3,5389402,Control_c,0,74,52,
3,5389723,Control_c,0,71,23,
3,5389882,Control_c,0,74,52,
3,5390203,Control_c,0,71,23,
3,5390362,Control_c,0,74,52,
3,5390683,Control_c,0,71,23,
3,5390842,Control_c,0,74,52,
3,5391163,Control_c,0,71,23,
3,5391322,Control_c,0,74,52,
3,5391360,Note_off_c,0,71,0,
3,5391360,Note_on_c,0,66,65,
3,5391643,Control_c,0,71,23,
3,5391802,Control_c,0,74,52,
3,5392123,Control_c,0,71,23,
3,5392282,Control_c,0,74,53,
3,5392603,Control_c,0,71,23,
3,5392762,Control_c,0,74,53,
3,5393083,Control_c,0,71,23,
3,5393242,Control_c,0,74,53,
3,5393563,Control_c,0,71,24,
3,5393722,Control_c,0,74,53,
3,5394043,Control_c,0,71,24,
3,5394202,Control_c,0,74,53,
3,5394523,Control_c,0,71,24,
3,5394682,Control_c,0,74,53,
3,5395003,Control_c,0,71,24,
3,5395162,Control_c,0,74,53,
3,5395483,Control_c,0,71,24,
3,5395642,Control_c,0,74,53,
3,5395963,Control_c,0,71,24,
3,5396122,Control_c,0,74,53,
3,5396443,Control_c,0,71,24,
3,5396602,Control_c,0,74,53,
3,5396923,Control_c,0,71,24,
3,5397082,Control_c,0,74,53,
3,5397403,Control_c,0,71,24,
3,5397562,Control_c,0,74,53,
3,5397883,Control_c,0,71,24,
3,5398042,Control_c,0,74,53,
3,5398363,Control_c,0,71,24,
3,5398522,Control_c,0,74,53,
3,5398843,Control_c,0,71,24,
3,5399002,Control_c,0,74,53,
3,5399040,Note_off_c,0,66,0,
3,5399040,Note_on_c,0,68,34,
3,5399323,Control_c,0,71,24,
3,5399482,Control_c,0,74,53,
3,5399803,Control_c,0,71,24,
3,5399962,Control_c,0,74,53,
3,5400283,Control_c,0,71,24,
3,5400442,Control_c,0,74,53,
3,5400763,Control_c,0,71,24,
3,5400922,Control_c,0,74,53,
3,5401243,Control_c,0,71,24,
3,5401402,Control_c,0,74,53,
3,5401723,Control_c,0,71,24,
3,5401882,Control_c,0,74,53,
3,5402203,Control_c,0,71,24,
3,5402362,Control_c,0,74,53,
3,5402683,Control_c,0,71,24,
3,5402842,Control_c,0,74,53,
3,5403163,Control_c,0,71,24,
3,5403322,Control_c,0,74,53,
3,5403643,Control_c,0,71,24,
3,5403802,Control_c,0,74,54,
3,5404123,Control_c,0,71,24,
3,5404282,Control_c,0,74,54,
3,5404603,Control_c,0,71,24,
3,5404762,Control_c,0,74,54,
3,5405083,Control_c,0,71,24,
3,5405242,Control_c,0,74,54,
3,5405563,Control_c,0,71,24,
3,5405722,Control_c,0,74,54,
3,5406043,Control_c,0,71,24,
3,5406202,Control_c,0,74,54,
3,5406523,Control_c,0,71,24,
3,5406682,Control_c,0,74,54,
3,5406720,Note_off_c,0,68,0,
3,5406720,Note_on_c,0,69,46,
3,5407003,Control_c,0,71,24,
3,5407162,Control_c,0,74,54,
3,5407483,Control_c,0,71,24,
3,5407642,Control_c,0,74,54,
3,5407963,Control_c,0,71,24,
3,5408122,Control_c,0,74,54,
3,5408443,Control_c,0,71,24,
3,5408602,Control_c,0,74,54,
3,5408923,Control_c,0,71,24,
3,5409082,Control_c,0,74,54,
3,5409403,Control_c,0,71,24,
3,5409562,Control_c,0,74,54,
3,5409883,Control_c,0,71,24,
3,5410042,Control_c,0,74,54,
3,5410363,Control_c,0,71,24,
3,5410522,Control_c,0,74,54,
3,5410843,Control_c,0,71,24,
3,5411002,Control_c,0,74,54,
3,5411323,Control_c,0,71,25,
3,5411482,Control_c,0,74,54,
3,5411803,Control_c,0,71,25,
3,5411962,Control_c,0,74,54,
3,5412283,Control_c,0,71,25,
3,5412442,Control_c,0,74,54,
3,5412763,Control_c,0,71,25,
3,5412922,Control_c,0,74,54,
3,5413243,Control_c,0,71,25,
3,5413402,Control_c,0,74,54,
3,5413723,Control_c,0,71,25,
3,5413882,Control_c,0,74,54,
3,5414203,Control_c,0,71,25,
3,5414362,Control_c,0,74,54,
3,5414400,Note_off_c,0,69,0,
3,5414400,Note_on_c,0,73,56,
3,5414683,Control_c,0,71,25,
3,5414842,Control_c,0,74,54,
3,5415163,Control_c,0,71,25,
3,5415322,Control_c,0,74,55,
3,5415643,Control_c,0,71,25,
3,5415802,Control_c,0,74,55,
3,5416123,Control_c,0,71,25,
3,5416282,Control_c,0,74,55,
3,5416603,Control_c,0,71,25,
3,5416762,Control_c,0,74,55,
3,5417083,Control_c,0,71,25,
3,5417242,Control_c,0,74,55,
3,5417563,Control_c,0,71,25,
3,5417722,Control_c,0,74,55,
3,5418043,Control_c,0,71,25,
3,5418202,Control_c,0,74,55,
3,5418523,Control_c,0,71,25,
3,5418682,Control_c,0,74,55,
3,5419003,Control_c,0,71,25,
3,5419162,Control_c,0,74,55,
3,5419483,Control_c,0,71,25,
3,5419642,Control_c,0,74,55,
3,5419963,Control_c,0,71,25,
3,5420122,Control_c,0,74,55,
3,5420443,Control_c,0,71,25,
3,5420602,Control_c,0,74,55,
3,5420923,Control_c,0,71,25,
3,5421082,Control_c,0,74,55,
3,5421403,Control_c,0,71,25,
3,5421562,Control_c,0,74,55,
3,5421883,Control_c,0,71,25,
3,5422042,Control_c,0,74,55,
3,5422080,Note_off_c,0,73,0,
3,5422080,Note_on_c,0,66,56,
3,5422363,Control_c,0,71,25,
3,5422522,Control_c,0,74,55,
3,5422843,Control_c,0,71,25,
3,5423002,Control_c,0,74,55,
3,5423323,Control_c,0,71,25,
3,5423482,Control_c,0,74,55,
3,5423803,Control_c,0,71,25,
3,5423962,Control_c,0,74,55,
3,5424283,Control_c,0,71,25,
3,5424442,Control_c,0,74,55,
3,5424763,Control_c,0,71,25,
3,5424922,Control_c,0,74,55,
3,5425243,Control_c,0,71,25,
3,5425402,Control_c,0,74,55,
3,5425723,Control_c,0,71,25,
3,5425882,Control_c,0,74,55,
3,5426203,Control_c,0,71,25,
3,5426362,Control_c,0,74,55,
3,5426683,Control_c,0,71,25,
3,5426842,Control_c,0,74,56,
3,5427163,Control_c,0,71,25,
3,5427322,Control_c,0,74,56,
3,5427643,Control_c,0,71,25,
3,5427802,Control_c,0,74,56,
3,5428123,Control_c,0,71,25,
3,5428282,Control_c,0,74,56,
3,5428603,Control_c,0,71,25,
3,5428762,Control_c,0,74,56,
3,5429083,Control_c,0,71,25,
3,5429242,Control_c,0,74,56,
3,5429563,Control_c,0,71,26,
3,5429722,Control_c,0,74,56,
3,5429760,Note_off_c,0,66,0,
3,5429760,Note_on_c,0,68,48,
3,5430043,Control_c,0,71,26,
3,5430202,Control_c,0,74,56,
3,5430523,Control_c,0,71,26,
3,5430682,Control_c,0,74,56,
3,5431003,Control_c,0,71,26,
3,5431162,Control_c,0,74,56,
3,5431483,Control_c,0,71,26,
3,5431642,Control_c,0,74,56,
3,5431963,Control_c,0,71,26,
3,5432122,Control_c,0,74,56,
3,5432443,Control_c,0,71,26,
3,5432602,Control_c,0,74,56,
3,5432923,Control_c,0,71,26,
3,5433082,Control_c,0,74,56,
3,5433403,Control_c,0,71,26,
3,5433562,Control_c,0,74,56,
3,5433883,Control_c,0,71,26,
3,5434042,Control_c,0,74,56,
3,5434363,Control_c,0,71,26,
3,5434522,Control_c,0,74,56,
3,5434843,Control_c,0,71,26,
3,5435002,Control_c,0,74,56,
3,5435323,Control_c,0,71,26,
3,5435482,Control_c,0,74,56,
3,5435803,Control_c,0,71,26,
3,5435962,Control_c,0,74,56,
3,5436283,Control_c,0,71,26,
3,5436442,Control_c,0,74,56,
3,5436763,Control_c,0,71,26,
3,5436922,Control_c,0,74,56,
3,5437243,Control_c,0,71,26,
3,5437402,Control_c,0,74,56,
3,5437440,Note_off_c,0,68,0,
3,5437440,Note_on_c,0,69,58,
3,5437723,Control_c,0,71,26,
3,5437882,Control_c,0,74,56,
3,5438203,Control_c,0,71,26,
3,5438362,Control_c,0,74,57,
3,5438683,Control_c,0,71,26,
3,5438842,Control_c,0,74,57,
3,5439163,Control_c,0,71,26,
3,5439322,Control_c,0,74,57,
3,5439643,Control_c,0,71,26,
3,5439802,Control_c,0,74,57,
3,5440123,Control_c,0,71,26,
3,5440282,Control_c,0,74,57,
3,5440603,Control_c,0,71,26,
3,5440762,Control_c,0,74,57,
3,5441083,Control_c,0,71,26,
3,5441242,Control_c,0,74,57,
3,5441563,Control_c,0,71,26,
3,5441722,Control_c,0,74,57,
3,5442043,Control_c,0,71,26,
3,5442202,Control_c,0,74,57,
3,5442523,Control_c,0,71,26,
3,5442682,Control_c,0,74,57,
3,5443003,Control_c,0,71,26,
3,5443162,Control_c,0,74,57,
3,5443483,Control_c,0,71,26,
3,5443642,Control_c,0,74,57,
3,5443963,Control_c,0,71,26,
3,5444122,Control_c,0,74,57,
3,5444443,Control_c,0,71,26,
3,5444602,Control_c,0,74,57,
3,5444923,Control_c,0,71,26,
3,5445082,Control_c,0,74,57,
3,5445120,Note_off_c,0,69,0,
3,5445120,Note_on_c,0,71,44,
3,5445403,Control_c,0,71,26,
3,5445562,Control_c,0,74,57,
3,5445883,Control_c,0,71,26,
3,5446042,Control_c,0,74,57,
3,5446363,Control_c,0,71,26,
3,5446522,Control_c,0,74,57,
3,5446843,Control_c,0,71,26,
3,5447002,Control_c,0,74,57,
3,5447323,Control_c,0,71,26,
3,5447482,Control_c,0,74,57,
3,5447803,Control_c,0,71,27,
3,5447962,Control_c,0,74,57,
3,5448283,Control_c,0,71,27,
3,5448442,Control_c,0,74,57,
3,5448763,Control_c,0,71,27,
3,5448922,Control_c,0,74,57,
3,5449243,Control_c,0,71,27,
3,5449402,Control_c,0,74,57,
3,5449723,Control_c,0,71,27,
3,5449882,Control_c,0,74,58,
3,5450203,Control_c,0,71,27,
3,5450362,Control_c,0,74,58,
3,5450683,Control_c,0,71,27,
3,5450842,Control_c,0,74,58,
3,5451163,Control_c,0,71,27,
3,5451322,Control_c,0,74,58,
3,5451643,Control_c,0,71,27,
3,5451802,Control_c,0,74,58,
3,5452123,Control_c,0,71,27,
3,5452282,Control_c,0,74,58,
3,5452603,Control_c,0,71,27,
3,5452762,Control_c,0,74,58,
3,5452800,Note_off_c,0,71,0,
3,5452800,Note_on_c,0,66,58,
3,5453083,Control_c,0,71,27,
3,5453242,Control_c,0,74,58,
3,5453563,Control_c,0,71,27,
3,5453722,Control_c,0,74,58,
3,5454043,Control_c,0,71,27,
3,5454202,Control_c,0,74,58,
3,5454523,Control_c,0,71,27,
3,5454682,Control_c,0,74,58,
3,5455003,Control_c,0,71,27,
3,5455162,Control_c,0,74,58,
3,5455483,Control_c,0,71,27,
3,5455642,Control_c,0,74,58,
3,5455963,Control_c,0,71,27,
3,5456122,Control_c,0,74,58,
3,5456443,Control_c,0,71,27,
3,5456602,Control_c,0,74,58,
3,5456923,Control_c,0,71,27,
3,5457082,Control_c,0,74,58,
3,5457403,Control_c,0,71,27,
3,5457562,Control_c,0,74,58,
3,5457883,Control_c,0,71,27,
3,5458042,Control_c,0,74,58,
3,5458363,Control_c,0,71,27,
3,5458522,Control_c,0,74,58,
3,5458843,Control_c,0,71,27,
3,5459002,Control_c,0,74,58,
3,5459323,Control_c,0,71,27,
3,5459482,Control_c,0,74,58,
3,5459803,Control_c,0,71,27,
3,5459962,Control_c,0,74,58,
3,5460283,Control_c,0,71,27,
3,5460442,Control_c,0,74,58,
3,5460480,Note_off_c,0,66,0,
3,5460480,Note_on_c,0,68,39,
3,5460763,Control_c,0,71,27,
3,5460922,Control_c,0,74,58,
3,5461243,Control_c,0,71,27,
3,5461402,Control_c,0,74,59,
3,5461723,Control_c,0,71,27,
3,5461882,Control_c,0,74,59,
3,5462203,Control_c,0,71,27,
3,5462362,Control_c,0,74,59,
3,5462683,Control_c,0,71,27,
3,5462842,Control_c,0,74,59,
3,5463163,Control_c,0,71,27,
3,5463322,Control_c,0,74,59,
3,5463643,Control_c,0,71,27,
3,5463802,Control_c,0,74,59,
3,5464123,Control_c,0,71,27,
3,5464282,Control_c,0,74,59,
3,5464603,Control_c,0,71,27,
3,5464762,Control_c,0,74,59,
3,5465083,Control_c,0,71,27,
3,5465242,Control_c,0,74,59,
3,5465563,Control_c,0,71,27,
3,5465722,Control_c,0,74,59,
3,5466043,Control_c,0,71,28,
3,5466202,Control_c,0,74,59,
3,5466523,Control_c,0,71,28,
3,5466682,Control_c,0,74,59,
3,5467003,Control_c,0,71,28,
3,5467162,Control_c,0,74,59,
3,5467483,Control_c,0,71,28,
3,5467642,Control_c,0,74,59,
3,5467963,Control_c,0,71,28,
3,5468122,Control_c,0,74,59,
3,5468160,Note_off_c,0,68,0,
3,5468160,Note_on_c,0,69,73,
3,5468443,Control_c,0,71,28,
3,5468602,Control_c,0,74,59,
3,5468923,Control_c,0,71,28,
3,5469082,Control_c,0,74,59,
3,5469403,Control_c,0,71,28,
3,5469562,Control_c,0,74,59,
3,5469883,Control_c,0,71,28,
3,5470042,Control_c,0,74,59,
3,5470363,Control_c,0,71,28,
3,5470522,Control_c,0,74,59,
3,5470843,Control_c,0,71,28,
3,5471002,Control_c,0,74,59,
3,5471323,Control_c,0,71,28,
3,5471482,Control_c,0,74,59,
3,5471803,Control_c,0,71,28,
3,5471962,Control_c,0,74,59,
3,5472283,Control_c,0,71,28,
3,5472442,Control_c,0,74,59,
3,5472763,Control_c,0,71,28,
3,5472922,Control_c,0,74,60,
3,5473243,Control_c,0,71,28,
3,5473402,Control_c,0,74,60,
3,5473723,Control_c,0,71,28,
3,5473882,Control_c,0,74,60,
3,5474203,Control_c,0,71,28,
3,5474362,Control_c,0,74,60,
3,5474683,Control_c,0,71,28,
3,5474842,Control_c,0,74,60,
3,5475163,Control_c,0,71,28,
3,5475322,Control_c,0,74,60,
3,5475643,Control_c,0,71,28,
3,5475802,Control_c,0,74,60,
3,5475840,Note_off_c,0,69,0,
3,5475840,Note_on_c,0,73,85,
3,5476123,Control_c,0,71,28,
3,5476282,Control_c,0,74,60,
3,5476603,Control_c,0,71,28,
3,5476762,Control_c,0,74,60,
3,5477083,Control_c,0,71,28,
3,5477242,Control_c,0,74,60,
3,5477563,Control_c,0,71,28,
3,5477722,Control_c,0,74,60,
3,5478043,Control_c,0,71,28,
3,5478202,Control_c,0,74,60,
3,5478523,Control_c,0,71,28,
3,5478682,Control_c,0,74,60,
3,5479003,Control_c,0,71,28,
3,5479162,Control_c,0,74,60,
3,5479483,Control_c,0,71,28,
3,5479642,Control_c,0,74,60,
3,5479963,Control_c,0,71,28,
3,5480122,Control_c,0,74,60,
3,5480443,Control_c,0,71,28,
3,5480602,Control_c,0,74,60,
3,5480923,Control_c,0,71,28,
3,5481082,Control_c,0,74,60,
3,5481403,Control_c,0,71,28,
3,5481562,Control_c,0,74,60,
3,5481883,Control_c,0,71,28,
3,5482042,Control_c,0,74,60,
3,5482363,Control_c,0,71,28,
3,5482522,Control_c,0,74,60,
3,5482843,Control_c,0,71,28,
3,5483002,Control_c,0,74,60,
3,5483323,Control_c,0,71,28,
3,5483482,Control_c,0,74,60,
3,5483520,Note_off_c,0,54,0,
3,5483520,Note_off_c,0,73,0,
3,5483520,Note_on_c,0,49,99,
3,5483520,Note_on_c,0,61,44,
3,5483803,Control_c,0,71,28,
3,5483962,Control_c,0,74,60,
3,5484283,Control_c,0,71,29,
3,5484442,Control_c,0,74,61,
3,5484763,Control_c,0,71,29,
3,5484922,Control_c,0,74,61,
3,5485243,Control_c,0,71,29,
3,5485402,Control_c,0,74,61,
3,5485723,Control_c,0,71,29,
3,5485882,Control_c,0,74,61,
3,5486203,Control_c,0,71,29,
3,5486362,Control_c,0,74,61,
3,5486683,Control_c,0,71,29,
3,5486842,Control_c,0,74,61,
3,5487163,Control_c,0,71,29,
3,5487322,Control_c,0,74,61,
3,5487643,Control_c,0,71,29,
3,5487802,Control_c,0,74,61,
3,5488123,Control_c,0,71,29,
3,5488282,Control_c,0,74,61,
3,5488603,Control_c,0,71,29,
3,5488762,Control_c,0,74,61,
3,5489083,Control_c,0,71,29,
3,5489242,Control_c,0,74,61,
3,5489563,Control_c,0,71,29,
3,5489722,Control_c,0,74,61,
3,5490043,Control_c,0,71,29,
3,5490202,Control_c,0,74,61,
3,5490523,Control_c,0,71,29,
3,5490682,Control_c,0,74,61,
3,5491003,Control_c,0,71,29,
3,5491162,Control_c,0,74,61,
3,5491200,Note_off_c,0,61,0,
3,5491200,Note_on_c,0,63,20,
3,5491483,Control_c,0,71,29,
3,5491642,Control_c,0,74,61,
3,5491963,Control_c,0,71,29,
3,5492122,Control_c,0,74,61,
3,5492443,Control_c,0,71,29,
3,5492602,Control_c,0,74,61,
3,5492923,Control_c,0,71,29,
3,5493082,Control_c,0,74,61,
3,5493403,Control_c,0,71,29,
3,5493562,Control_c,0,74,61,
3,5493883,Control_c,0,71,29,
3,5494042,Control_c,0,74,61,
3,5494363,Control_c,0,71,29,
3,5494522,Control_c,0,74,61,
3,5494843,Control_c,0,71,29,
3,5495002,Control_c,0,74,61,
3,5495323,Control_c,0,71,29,
3,5495482,Control_c,0,74,61,
3,5495803,Control_c,0,71,29,
3,5495962,Control_c,0,74,62,
3,5496283,Control_c,0,71,29,
3,5496442,Control_c,0,74,62,
3,5496763,Control_c,0,71,29,
3,5496922,Control_c,0,74,62,
3,5497243,Control_c,0,71,29,
3,5497402,Control_c,0,74,62,
3,5497723,Control_c,0,71,29,
3,5497882,Control_c,0,74,62,
3,5498203,Control_c,0,71,29,
3,5498362,Control_c,0,74,62,
3,5498683,Control_c,0,71,29,
3,5498842,Control_c,0,74,62,
3,5498880,Note_off_c,0,63,0,
3,5498880,Note_on_c,0,64,54,
3,5499163,Control_c,0,71,29,
3,5499322,Control_c,0,74,62,
3,5499643,Control_c,0,71,29,
3,5499802,Control_c,0,74,62,
3,5500123,Control_c,0,71,29,
3,5500282,Control_c,0,74,62,
3,5500603,Control_c,0,71,29,
3,5500762,Control_c,0,74,62,
3,5501083,Control_c,0,71,29,
3,5501242,Control_c,0,74,62,
3,5501563,Control_c,0,71,29,
3,5501722,Control_c,0,74,62,
3,5502043,Control_c,0,71,29,
3,5502202,Control_c,0,74,62,
3,5502523,Control_c,0,71,30,
3,5502682,Control_c,0,74,62,
3,5503003,Control_c,0,71,30,
3,5503162,Control_c,0,74,62,
3,5503483,Control_c,0,71,30,
3,5503642,Control_c,0,74,62,
3,5503963,Control_c,0,71,30,
3,5504122,Control_c,0,74,62,
3,5504443,Control_c,0,71,30,
3,5504602,Control_c,0,74,62,
3,5504923,Control_c,0,71,30,
3,5505082,Control_c,0,74,62,
3,5505403,Control_c,0,71,30,
3,5505562,Control_c,0,74,62,
3,5505883,Control_c,0,71,30,
3,5506042,Control_c,0,74,62,
3,5506363,Control_c,0,71,30,
3,5506522,Control_c,0,74,62,
3,5506560,Note_off_c,0,64,0,
3,5506560,Note_on_c,0,66,34,
3,5506843,Control_c,0,71,30,
3,5507002,Control_c,0,74,62,
3,5507323,Control_c,0,71,30,
3,5507482,Control_c,0,74,63,
3,5507803,Control_c,0,71,30,
3,5507962,Control_c,0,74,63,
3,5508283,Control_c,0,71,30,
3,5508442,Control_c,0,74,63,
3,5508763,Control_c,0,71,30,
3,5508922,Control_c,0,74,63,
3,5509243,Control_c,0,71,30,
3,5509402,Control_c,0,74,63,
3,5509723,Control_c,0,71,30,
3,5509882,Control_c,0,74,63,
3,5510203,Control_c,0,71,30,
3,5510362,Control_c,0,74,63,
3,5510683,Control_c,0,71,30,
3,5510842,Control_c,0,74,63,
3,5511163,Control_c,0,71,30,
3,5511322,Control_c,0,74,63,
3,5511643,Control_c,0,71,30,
3,5511802,Control_c,0,74,63,
3,5512123,Control_c,0,71,30,
3,5512282,Control_c,0,74,63,
3,5512603,Control_c,0,71,30,
3,5512762,Control_c,0,74,63,
3,5513083,Control_c,0,71,30,
3,5513242,Control_c,0,74,63,
3,5513563,Control_c,0,71,30,
3,5513722,Control_c,0,74,63,
3,5514043,Control_c,0,71,30,
3,5514202,Control_c,0,74,63,
3,5514240,Note_off_c,0,66,0,
3,5514240,Note_on_c,0,61,76,
3,5514523,Control_c,0,71,30,
3,5514682,Control_c,0,74,63,
3,5515003,Control_c,0,71,30,
3,5515162,Control_c,0,74,63,
3,5515483,Control_c,0,71,30,
3,5515642,Control_c,0,74,63,
3,5515963,Control_c,0,71,30,
3,5516122,Control_c,0,74,63,
3,5516443,Control_c,0,71,30,
3,5516602,Control_c,0,74,63,
3,5516923,Control_c,0,71,30,
3,5517082,Control_c,0,74,63,
3,5517403,Control_c,0,71,30,
3,5517562,Control_c,0,74,63,
3,5517883,Control_c,0,71,30,
3,5518042,Control_c,0,74,63,
3,5518363,Control_c,0,71,30,
3,5518522,Control_c,0,74,63,
3,5518843,Control_c,0,71,30,
3,5519002,Control_c,0,74,64,
3,5519323,Control_c,0,71,30,
3,5519482,Control_c,0,74,64,
3,5519803,Control_c,0,71,30,
3,5519962,Control_c,0,74,64,
3,5520283,Control_c,0,71,30,
3,5520442,Control_c,0,74,64,
3,5520763,Control_c,0,71,31,
3,5520922,Control_c,0,74,64,
3,5521243,Control_c,0,71,31,
3,5521402,Control_c,0,74,64,
3,5521723,Control_c,0,71,31,
3,5521882,Control_c,0,74,64,
3,5521920,Note_off_c,0,61,0,
3,5521920,Note_on_c,0,63,47,
3,5522203,Control_c,0,71,31,
3,5522362,Control_c,0,74,64,
3,5522683,Control_c,0,71,31,
3,5522842,Control_c,0,74,64,
3,5523163,Control_c,0,71,31,
3,5523322,Control_c,0,74,64,
3,5523643,Control_c,0,71,31,
3,5523802,Control_c,0,74,64,
3,5524123,Control_c,0,71,31,
3,5524282,Control_c,0,74,64,
3,5524603,Control_c,0,71,31,
3,5524762,Control_c,0,74,64,
3,5525083,Control_c,0,71,31,
3,5525242,Control_c,0,74,64,
3,5525563,Control_c,0,71,31,
3,5525722,Control_c,0,74,64,
3,5526043,Control_c,0,71,31,
3,5526202,Control_c,0,74,64,
3,5526523,Control_c,0,71,31,
3,5526682,Control_c,0,74,64,
3,5527003,Control_c,0,71,31,
3,5527162,Control_c,0,74,64,
3,5527483,Control_c,0,71,31,
3,5527642,Control_c,0,74,64,
3,5527963,Control_c,0,71,31,
3,5528122,Control_c,0,74,64,
3,5528443,Control_c,0,71,31,
3,5528602,Control_c,0,74,64,
3,5528923,Control_c,0,71,31,
3,5529082,Control_c,0,74,64,
3,5529403,Control_c,0,71,31,
3,5529562,Control_c,0,74,64,
3,5529600,Note_off_c,0,63,0,
3,5529600,Note_on_c,0,64,50,
3,5529883,Control_c,0,71,31,
3,5530042,Control_c,0,74,64,
3,5530363,Control_c,0,71,31,
3,5530522,Control_c,0,74,65,
3,5530843,Control_c,0,71,31,
3,5531002,Control_c,0,74,65,
3,5531323,Control_c,0,71,31,
3,5531482,Control_c,0,74,65,
3,5531803,Control_c,0,71,31,
3,5531962,Control_c,0,74,65,
3,5532283,Control_c,0,71,31,
3,5532442,Control_c,0,74,65,
3,5532763,Control_c,0,71,31,
3,5532922,Control_c,0,74,65,
3,5533243,Control_c,0,71,31,
3,5533402,Control_c,0,74,65,
3,5533723,Control_c,0,71,31,
3,5533882,Control_c,0,74,65,
3,5534203,Control_c,0,71,31,
3,5534362,Control_c,0,74,65,
3,5534683,Control_c,0,71,31,
3,5534842,Control_c,0,74,65,
3,5535163,Control_c,0,71,31,
3,5535322,Control_c,0,74,65,
3,5535643,Control_c,0,71,31,
3,5535802,Control_c,0,74,65,
3,5536123,Control_c,0,71,31,
3,5536282,Control_c,0,74,65,
3,5536603,Control_c,0,71,31,
3,5536762,Control_c,0,74,65,
3,5537083,Control_c,0,71,31,
3,5537242,Control_c,0,74,65,
3,5537280,Note_off_c,0,64,0,
3,5537280,Note_on_c,0,68,54,
3,5537563,Control_c,0,71,31,
3,5537722,Control_c,0,74,65,
3,5538043,Control_c,0,71,31,
3,5538202,Control_c,0,74,65,
3,5538523,Control_c,0,71,31,
3,5538682,Control_c,0,74,65,
3,5539003,Control_c,0,71,32,
3,5539162,Control_c,0,74,65,
3,5539483,Control_c,0,71,32,
3,5539642,Control_c,0,74,65,
3,5539963,Control_c,0,71,32,
3,5540122,Control_c,0,74,65,
3,5540443,Control_c,0,71,32,
3,5540602,Control_c,0,74,65,
3,5540923,Control_c,0,71,32,
3,5541082,Control_c,0,74,65,
3,5541403,Control_c,0,71,32,
3,5541562,Control_c,0,74,65,
3,5541883,Control_c,0,71,32,
3,5542042,Control_c,0,74,66,
3,5542363,Control_c,0,71,32,
3,5542522,Control_c,0,74,66,
3,5542843,Control_c,0,71,32,
3,5543002,Control_c,0,74,66,
3,5543323,Control_c,0,71,32,
3,5543482,Control_c,0,74,66,
3,5543803,Control_c,0,71,32,
3,5543962,Control_c,0,74,66,
3,5544283,Control_c,0,71,32,
3,5544442,Control_c,0,74,66,
3,5544763,Control_c,0,71,32,
3,5544922,Control_c,0,74,66,
3,5544960,Note_off_c,0,68,0,
3,5544960,Note_on_c,0,61,85,
3,5545243,Control_c,0,71,32,
3,5545402,Control_c,0,74,66,
3,5545723,Control_c,0,71,32,
3,5545882,Control_c,0,74,66,
3,5546203,Control_c,0,71,32,
3,5546362,Control_c,0,74,66,
3,5546683,Control_c,0,71,32,
3,5546842,Control_c,0,74,66,
3,5547163,Control_c,0,71,32,
3,5547322,Control_c,0,74,66,
3,5547643,Control_c,0,71,32,
3,5547802,Control_c,0,74,66,
3,5548123,Control_c,0,71,32,
3,5548282,Control_c,0,74,66,
3,5548603,Control_c,0,71,32,
3,5548762,Control_c,0,74,66,
3,5549083,Control_c,0,71,32,
3,5549242,Control_c,0,74,66,
3,5549563,Control_c,0,71,32,
3,5549722,Control_c,0,74,66,
3,5550043,Control_c,0,71,32,
3,5550202,Control_c,0,74,66,
3,5550523,Control_c,0,71,32,
3,5550682,Control_c,0,74,66,
3,5551003,Control_c,0,71,32,
3,5551162,Control_c,0,74,66,
3,5551483,Control_c,0,71,32,
3,5551642,Control_c,0,74,66,
3,5551963,Control_c,0,71,32,
3,5552122,Control_c,0,74,66,
3,5552443,Control_c,0,71,32,
3,5552602,Control_c,0,74,66,
3,5552640,Note_off_c,0,61,0,
3,5552640,Note_on_c,0,63,50,
3,5552923,Control_c,0,71,32,
3,5553082,Control_c,0,74,66,
3,5553403,Control_c,0,71,32,
3,5553562,Control_c,0,74,67,
3,5553883,Control_c,0,71,32,
3,5554042,Control_c,0,74,67,
3,5554363,Control_c,0,71,32,
3,5554522,Control_c,0,74,67,
3,5554843,Control_c,0,71,32,
3,5555002,Control_c,0,74,67,
3,5555323,Control_c,0,71,32,
3,5555482,Control_c,0,74,67,
3,5555803,Control_c,0,71,32,
3,5555962,Control_c,0,74,67,
3,5556283,Control_c,0,71,32,
3,5556442,Control_c,0,74,67,
3,5556719,Control_c,0,71,33,
3,5556922,Control_c,0,74,67,
3,5557199,Control_c,0,71,33,
3,5557402,Control_c,0,74,67,
3,5557679,Control_c,0,71,33,
3,5557882,Control_c,0,74,67,
3,5558159,Control_c,0,71,33,
3,5558362,Control_c,0,74,67,
3,5558639,Control_c,0,71,33,
3,5558842,Control_c,0,74,67,
3,5559119,Control_c,0,71,33,
3,5559322,Control_c,0,74,67,
3,5559599,Control_c,0,71,33,
3,5559802,Control_c,0,74,67,
3,5560079,Control_c,0,71,33,
3,5560282,Control_c,0,74,67,
3,5560320,Note_off_c,0,63,0,
3,5560320,Note_on_c,0,64,45,
3,5560559,Control_c,0,71,33,
3,5560762,Control_c,0,74,67,
3,5561039,Control_c,0,71,33,
3,5561242,Control_c,0,74,67,
3,5561519,Control_c,0,71,33,
3,5561722,Control_c,0,74,67,
3,5561999,Control_c,0,71,33,
3,5562202,Control_c,0,74,67,
3,5562479,Control_c,0,71,33,
3,5562682,Control_c,0,74,67,
3,5562959,Control_c,0,71,33,
3,5563162,Control_c,0,74,67,
3,5563439,Control_c,0,71,33,
3,5563642,Control_c,0,74,67,
3,5563919,Control_c,0,71,33,
3,5564122,Control_c,0,74,67,
3,5564399,Control_c,0,71,33,
3,5564602,Control_c,0,74,67,
3,5564688,Control_c,0,74,68,
3,5564879,Control_c,0,71,33,
3,5565168,Control_c,0,74,68,
3,5565359,Control_c,0,71,33,
3,5565648,Control_c,0,74,68,
3,5565839,Control_c,0,71,34,
3,5566128,Control_c,0,74,68,
3,5566319,Control_c,0,71,34,
3,5566608,Control_c,0,74,68,
3,5566799,Control_c,0,71,34,
3,5567088,Control_c,0,74,68,
3,5567279,Control_c,0,71,34,
3,5567568,Control_c,0,74,68,
3,5567759,Control_c,0,71,34,
3,5568000,Note_off_c,0,64,0,
3,5568000,Note_on_c,0,66,61,
3,5568048,Control_c,0,74,68,
3,5568239,Control_c,0,71,34,
3,5568528,Control_c,0,74,68,
3,5568719,Control_c,0,71,34,
3,5569008,Control_c,0,74,68,
3,5569199,Control_c,0,71,34,
3,5569488,Control_c,0,74,68,
3,5569679,Control_c,0,71,34,
3,5569968,Control_c,0,74,68,
3,5570159,Control_c,0,71,34,
3,5570448,Control_c,0,74,68,
3,5570639,Control_c,0,71,34,
3,5570928,Control_c,0,74,68,
3,5571119,Control_c,0,71,34,
3,5571408,Control_c,0,74,68,
3,5571599,Control_c,0,71,34,
3,5571888,Control_c,0,74,68,
3,5572079,Control_c,0,71,34,
3,5572368,Control_c,0,74,68,
3,5572559,Control_c,0,71,34,
3,5572848,Control_c,0,74,68,
3,5573039,Control_c,0,71,34,
3,5573328,Control_c,0,74,68,
3,5573519,Control_c,0,71,34,
3,5573808,Control_c,0,74,68,
3,5573999,Control_c,0,71,34,
3,5574288,Control_c,0,74,68,
3,5574479,Control_c,0,71,35,
3,5574768,Control_c,0,74,68,
3,5574959,Control_c,0,71,35,
3,5575248,Control_c,0,74,68,
3,5575439,Control_c,0,71,35,
3,5575680,Note_off_c,0,66,0,
3,5575680,Note_on_c,0,61,48,
3,5575728,Control_c,0,74,68,
3,5575919,Control_c,0,71,35,
3,5576208,Control_c,0,74,68,
3,5576399,Control_c,0,71,35,
3,5576688,Control_c,0,74,68,
3,5576879,Control_c,0,71,35,
3,5577168,Control_c,0,74,68,
3,5577359,Control_c,0,71,35,
3,5577648,Control_c,0,74,68,
3,5577839,Control_c,0,71,35,
3,5578128,Control_c,0,74,68,
3,5578319,Control_c,0,71,35,
3,5578608,Control_c,0,74,68,
3,5578799,Control_c,0,71,35,
3,5579088,Control_c,0,74,69,
3,5579279,Control_c,0,71,35,
3,5579568,Control_c,0,74,69,
3,5579759,Control_c,0,71,35,
3,5580048,Control_c,0,74,69,
3,5580239,Control_c,0,71,35,
3,5580528,Control_c,0,74,69,
3,5580719,Control_c,0,71,35,
3,5581008,Control_c,0,74,69,
3,5581199,Control_c,0,71,35,
3,5581488,Control_c,0,74,69,
3,5581679,Control_c,0,71,35,
3,5581968,Control_c,0,74,69,
3,5582159,Control_c,0,71,35,
3,5582448,Control_c,0,74,69,
3,5582639,Control_c,0,71,35,
3,5582928,Control_c,0,74,69,
3,5583119,Control_c,0,71,36,
3,5583360,Note_off_c,0,61,0,
3,5583360,Note_on_c,0,63,44,
3,5583408,Control_c,0,74,69,
3,5583599,Control_c,0,71,36,
3,5583888,Control_c,0,74,69,
3,5584079,Control_c,0,71,36,
3,5584368,Control_c,0,74,69,
3,5584559,Control_c,0,71,36,
3,5584848,Control_c,0,74,69,
3,5585039,Control_c,0,71,36,
3,5585328,Control_c,0,74,69,
3,5585519,Control_c,0,71,36,
3,5585808,Control_c,0,74,69,
3,5585999,Control_c,0,71,36,
3,5586288,Control_c,0,74,69,
3,5586479,Control_c,0,71,36,
3,5586768,Control_c,0,74,69,
3,5586959,Control_c,0,71,36,
3,5587248,Control_c,0,74,69,
3,5587439,Control_c,0,71,36,
3,5587728,Control_c,0,74,69,
3,5587919,Control_c,0,71,36,
3,5588208,Control_c,0,74,69,
3,5588399,Control_c,0,71,36,
3,5588688,Control_c,0,74,69,
3,5588879,Control_c,0,71,36,
3,5589168,Control_c,0,74,69,
3,5589359,Control_c,0,71,36,
3,5589648,Control_c,0,74,69,
3,5589839,Control_c,0,71,36,
3,5590128,Control_c,0,74,69,
3,5590319,Control_c,0,71,36,
3,5590608,Control_c,0,74,69,
3,5590799,Control_c,0,71,36,
3,5591040,Note_off_c,0,63,0,
3,5591040,Note_on_c,0,64,58,
3,5591088,Control_c,0,74,69,
3,5591279,Control_c,0,71,36,
3,5591568,Control_c,0,74,69,
3,5591759,Control_c,0,71,36,
3,5592048,Control_c,0,74,69,
3,5592239,Control_c,0,71,37,
3,5592528,Control_c,0,74,69,
3,5592719,Control_c,0,71,37,
3,5593008,Control_c,0,74,70,
3,5593199,Control_c,0,71,37,
3,5593488,Control_c,0,74,70,
3,5593679,Control_c,0,71,37,
3,5593968,Control_c,0,74,70,
3,5594159,Control_c,0,71,37,
3,5594448,Control_c,0,74,70,
3,5594639,Control_c,0,71,37,
3,5594928,Control_c,0,74,70,
3,5595119,Control_c,0,71,37,
3,5595408,Control_c,0,74,70,
3,5595599,Control_c,0,71,37,
3,5595888,Control_c,0,74,70,
3,5596079,Control_c,0,71,37,
3,5596368,Control_c,0,74,70,
3,5596559,Control_c,0,71,37,
3,5596848,Control_c,0,74,70,
3,5597039,Control_c,0,71,37,
3,5597328,Control_c,0,74,70,
3,5597519,Control_c,0,71,37,
3,5597808,Control_c,0,74,70,
3,5597999,Control_c,0,71,37,
3,5598288,Control_c,0,74,70,
3,5598479,Control_c,0,71,37,
3,5598720,Note_off_c,0,64,0,
3,5598720,Note_on_c,0,68,69,
3,5598768,Control_c,0,74,70,
3,5598959,Control_c,0,71,37,
3,5599248,Control_c,0,74,70,
3,5599439,Control_c,0,71,37,
3,5599728,Control_c,0,74,70,
3,5599919,Control_c,0,71,37,
3,5600208,Control_c,0,74,70,
3,5600399,Control_c,0,71,37,
3,5600688,Control_c,0,74,70,
3,5600879,Control_c,0,71,38,
3,5601168,Control_c,0,74,70,
3,5601359,Control_c,0,71,38,
3,5601648,Control_c,0,74,70,
3,5601839,Control_c,0,71,38,
3,5602128,Control_c,0,74,70,
3,5602319,Control_c,0,71,38,
3,5602608,Control_c,0,74,70,
3,5602799,Control_c,0,71,38,
3,5603088,Control_c,0,74,70,
3,5603279,Control_c,0,71,38,
3,5603568,Control_c,0,74,70,
3,5603759,Control_c,0,71,38,
3,5604048,Control_c,0,74,70,
3,5604239,Control_c,0,71,38,
3,5604528,Control_c,0,74,70,
3,5604719,Control_c,0,71,38,
3,5605008,Control_c,0,74,70,
3,5605199,Control_c,0,71,38,
3,5605488,Control_c,0,74,70,
3,5605679,Control_c,0,71,38,
3,5605968,Control_c,0,74,70,
3,5606159,Control_c,0,71,38,
3,5606400,Note_off_c,0,49,0,
3,5606400,Note_off_c,0,68,0,
3,5606400,Note_on_c,0,50,75,
3,5606400,Note_on_c,0,62,61,
3,5606448,Control_c,0,74,70,
3,5606639,Control_c,0,71,38,
3,5606928,Control_c,0,74,70,
3,5607119,Control_c,0,71,38,
3,5607408,Control_c,0,74,71,
3,5607599,Control_c,0,71,38,
3,5607888,Control_c,0,74,71,
3,5608079,Control_c,0,71,38,
3,5608368,Control_c,0,74,71,
3,5608559,Control_c,0,71,38,
3,5608848,Control_c,0,74,71,
3,5609039,Control_c,0,71,38,
3,5609328,Control_c,0,74,71,
3,5609519,Control_c,0,71,39,
3,5609808,Control_c,0,74,71,
3,5609999,Control_c,0,71,39,
3,5610288,Control_c,0,74,71,
3,5610479,Control_c,0,71,39,
3,5610768,Control_c,0,74,71,
3,5610959,Control_c,0,71,39,
3,5611248,Control_c,0,74,71,
3,5611439,Control_c,0,71,39,
3,5611728,Control_c,0,74,71,
3,5611919,Control_c,0,71,39,
3,5612208,Control_c,0,74,71,
3,5612399,Control_c,0,71,39,
3,5612688,Control_c,0,74,71,
3,5612879,Control_c,0,71,39,
3,5613168,Control_c,0,74,71,
3,5613359,Control_c,0,71,39,
3,5613648,Control_c,0,74,71,
3,5613839,Control_c,0,71,39,
3,5614080,Note_off_c,0,62,0,
3,5614080,Note_on_c,0,64,38,
3,5614128,Control_c,0,74,71,
3,5614319,Control_c,0,71,39,
3,5614608,Control_c,0,74,71,
3,5614799,Control_c,0,71,39,
3,5615088,Control_c,0,74,71,
3,5615279,Control_c,0,71,39,
3,5615568,Control_c,0,74,71,
3,5615759,Control_c,0,71,39,
3,5616048,Control_c,0,74,71,
3,5616239,Control_c,0,71,39,
3,5616528,Control_c,0,74,71,
3,5616719,Control_c,0,71,39,
3,5617008,Control_c,0,74,71,
3,5617199,Control_c,0,71,39,
3,5617488,Control_c,0,74,71,
3,5617679,Control_c,0,71,39,
3,5617968,Control_c,0,74,71,
3,5618159,Control_c,0,71,39,
3,5618448,Control_c,0,74,71,
3,5618639,Control_c,0,71,40,
3,5618928,Control_c,0,74,71,
3,5619119,Control_c,0,71,40,
3,5619408,Control_c,0,74,71,
3,5619599,Control_c,0,71,40,
3,5619888,Control_c,0,74,71,
3,5620079,Control_c,0,71,40,
3,5620368,Control_c,0,74,71,
3,5620559,Control_c,0,71,40,
3,5620848,Control_c,0,74,71,
3,5621039,Control_c,0,71,40,
3,5621328,Control_c,0,74,72,
3,5621519,Control_c,0,71,40,
3,5621760,Note_off_c,0,64,0,
3,5621760,Note_on_c,0,66,47,
3,5621808,Control_c,0,74,72,
3,5621999,Control_c,0,71,40,
3,5622288,Control_c,0,74,72,
3,5622479,Control_c,0,71,40,
3,5622768,Control_c,0,74,72,
3,5622959,Control_c,0,71,40,
3,5623248,Control_c,0,74,72,
3,5623439,Control_c,0,71,40,
3,5623728,Control_c,0,74,72,
3,5623919,Control_c,0,71,40,
3,5624208,Control_c,0,74,72,
3,5624399,Control_c,0,71,40,
3,5624688,Control_c,0,74,72,
3,5624879,Control_c,0,71,40,
3,5625168,Control_c,0,74,72,
3,5625359,Control_c,0,71,40,
3,5625648,Control_c,0,74,72,
3,5625839,Control_c,0,71,40,
3,5626128,Control_c,0,74,72,
3,5626319,Control_c,0,71,40,
3,5626608,Control_c,0,74,72,
3,5626799,Control_c,0,71,40,
3,5627088,Control_c,0,74,72,
3,5627279,Control_c,0,71,41,
3,5627568,Control_c,0,74,72,
3,5627759,Control_c,0,71,41,
3,5628048,Control_c,0,74,72,
3,5628239,Control_c,0,71,41,
3,5628528,Control_c,0,74,72,
3,5628719,Control_c,0,71,41,
3,5629008,Control_c,0,74,72,
3,5629199,Control_c,0,71,41,
3,5629440,Note_off_c,0,66,0,
3,5629440,Note_on_c,0,68,49,
3,5629488,Control_c,0,74,72,
3,5629679,Control_c,0,71,41,
3,5629968,Control_c,0,74,72,
3,5630159,Control_c,0,71,41,
3,5630448,Control_c,0,74,72,
3,5630639,Control_c,0,71,41,
3,5630928,Control_c,0,74,72,
3,5631119,Control_c,0,71,41,
3,5631408,Control_c,0,74,72,
3,5631599,Control_c,0,71,41,
3,5631888,Control_c,0,74,72,
3,5632079,Control_c,0,71,41,
3,5632368,Control_c,0,74,72,
3,5632559,Control_c,0,71,41,
3,5632848,Control_c,0,74,72,
3,5633039,Control_c,0,71,41,
3,5633328,Control_c,0,74,72,
3,5633519,Control_c,0,71,41,
3,5633808,Control_c,0,74,72,
3,5633999,Control_c,0,71,41,
3,5634288,Control_c,0,74,72,
3,5634479,Control_c,0,71,41,
3,5634768,Control_c,0,74,72,
3,5634959,Control_c,0,71,41,
3,5635248,Control_c,0,74,72,
3,5635439,Control_c,0,71,41,
3,5635728,Control_c,0,74,73,
3,5635919,Control_c,0,71,42,
3,5636208,Control_c,0,74,73,
3,5636399,Control_c,0,71,42,
3,5636688,Control_c,0,74,73,
3,5636879,Control_c,0,71,42,
3,5637120,Note_off_c,0,68,0,
3,5637120,Note_on_c,0,62,60,
3,5637168,Control_c,0,74,73,
3,5637359,Control_c,0,71,42,
3,5637648,Control_c,0,74,73,
3,5637839,Control_c,0,71,42,
3,5638128,Control_c,0,74,73,
3,5638319,Control_c,0,71,42,
3,5638608,Control_c,0,74,73,
3,5638799,Control_c,0,71,42,
3,5639088,Control_c,0,74,73,
3,5639279,Control_c,0,71,42,
3,5639568,Control_c,0,74,73,
3,5639759,Control_c,0,71,42,
3,5640048,Control_c,0,74,73,
3,5640239,Control_c,0,71,42,
3,5640528,Control_c,0,74,73,
3,5640719,Control_c,0,71,42,
3,5641008,Control_c,0,74,73,
3,5641199,Control_c,0,71,42,
3,5641488,Control_c,0,74,73,
3,5641679,Control_c,0,71,42,
3,5641968,Control_c,0,74,73,
3,5642159,Control_c,0,71,42,
3,5642448,Control_c,0,74,73,
3,5642639,Control_c,0,71,42,
3,5642928,Control_c,0,74,73,
3,5643119,Control_c,0,71,42,
3,5643408,Control_c,0,74,73,
3,5643599,Control_c,0,71,42,
3,5643888,Control_c,0,74,73,
3,5644079,Control_c,0,71,42,
3,5644368,Control_c,0,74,73,
3,5644559,Control_c,0,71,43,
3,5644800,Note_off_c,0,62,0,
3,5644800,Note_on_c,0,64,36,
3,5644848,Control_c,0,74,73,
3,5645039,Control_c,0,71,43,
3,5645328,Control_c,0,74,73,
3,5645519,Control_c,0,71,43,
3,5645808,Control_c,0,74,73,
3,5645999,Control_c,0,71,43,
3,5646288,Control_c,0,74,73,
3,5646479,Control_c,0,71,43,
3,5646768,Control_c,0,74,73,
3,5646959,Control_c,0,71,43,
3,5647248,Control_c,0,74,73,
3,5647439,Control_c,0,71,43,
3,5647728,Control_c,0,74,73,
3,5647919,Control_c,0,71,43,
3,5648208,Control_c,0,74,73,
3,5648399,Control_c,0,71,43,
3,5648688,Control_c,0,74,73,
3,5648879,Control_c,0,71,43,
3,5649168,Control_c,0,74,73,
3,5649359,Control_c,0,71,43,
3,5649648,Control_c,0,74,74,
3,5649839,Control_c,0,71,43,
3,5650128,Control_c,0,74,74,
3,5650319,Control_c,0,71,43,
3,5650608,Control_c,0,74,74,
3,5650799,Control_c,0,71,43,
3,5651088,Control_c,0,74,74,
3,5651279,Control_c,0,71,43,
3,5651568,Control_c,0,74,74,
3,5651759,Control_c,0,71,43,
3,5652048,Control_c,0,74,74,
3,5652239,Control_c,0,71,43,
3,5652480,Note_off_c,0,64,0,
3,5652480,Note_on_c,0,66,47,
3,5652528,Control_c,0,74,74,
3,5652719,Control_c,0,71,43,
3,5653008,Control_c,0,74,74,
3,5653199,Control_c,0,71,43,
3,5653488,Control_c,0,74,74,
3,5653679,Control_c,0,71,44,
3,5653968,Control_c,0,74,74,
3,5654159,Control_c,0,71,44,
3,5654448,Control_c,0,74,74,
3,5654639,Control_c,0,71,44,
3,5654928,Control_c,0,74,74,
3,5655119,Control_c,0,71,44,
3,5655408,Control_c,0,74,74,
3,5655599,Control_c,0,71,44,
3,5655888,Control_c,0,74,74,
3,5656079,Control_c,0,71,44,
3,5656368,Control_c,0,74,74,
3,5656559,Control_c,0,71,44,
3,5656848,Control_c,0,74,74,
3,5657039,Control_c,0,71,44,
3,5657328,Control_c,0,74,74,
3,5657519,Control_c,0,71,44,
3,5657808,Control_c,0,74,74,
3,5657999,Control_c,0,71,44,
3,5658288,Control_c,0,74,74,
3,5658479,Control_c,0,71,44,
3,5658768,Control_c,0,74,74,
3,5658959,Control_c,0,71,44,
3,5659248,Control_c,0,74,74,
3,5659439,Control_c,0,71,44,
3,5659728,Control_c,0,74,74,
3,5659919,Control_c,0,71,44,
3,5660160,Note_off_c,0,66,0,
3,5660160,Note_on_c,0,69,75,
3,5660208,Control_c,0,74,74,
3,5660399,Control_c,0,71,44,
3,5660688,Control_c,0,74,74,
3,5660879,Control_c,0,71,44,
3,5661168,Control_c,0,74,74,
3,5661359,Control_c,0,71,44,
3,5661648,Control_c,0,74,74,
3,5661839,Control_c,0,71,44,
3,5662128,Control_c,0,74,74,
3,5662319,Control_c,0,71,45,
3,5662608,Control_c,0,74,74,
3,5662799,Control_c,0,71,45,
3,5663088,Control_c,0,74,74,
3,5663279,Control_c,0,71,45,
3,5663568,Control_c,0,74,74,
3,5663759,Control_c,0,71,45,
3,5664048,Control_c,0,74,75,
3,5664239,Control_c,0,71,45,
3,5664528,Control_c,0,74,75,
3,5664719,Control_c,0,71,45,
3,5665008,Control_c,0,74,75,
3,5665199,Control_c,0,71,45,
3,5665488,Control_c,0,74,75,
3,5665679,Control_c,0,71,45,
3,5665968,Control_c,0,74,75,
3,5666159,Control_c,0,71,45,
3,5666448,Control_c,0,74,75,
3,5666639,Control_c,0,71,45,
3,5666928,Control_c,0,74,75,
3,5667119,Control_c,0,71,45,
3,5667408,Control_c,0,74,75,
3,5667599,Control_c,0,71,45,
3,5667840,Note_off_c,0,69,0,
3,5667840,Note_on_c,0,62,79,
3,5667888,Control_c,0,74,75,
3,5668079,Control_c,0,71,45,
3,5668368,Control_c,0,74,75,
3,5668559,Control_c,0,71,45,
3,5668848,Control_c,0,74,75,
3,5669039,Control_c,0,71,45,
3,5669328,Control_c,0,74,75,
3,5669519,Control_c,0,71,45,
3,5669808,Control_c,0,74,75,
3,5669999,Control_c,0,71,45,
3,5670288,Control_c,0,74,75,
3,5670479,Control_c,0,71,45,
3,5670768,Control_c,0,74,75,
3,5670959,Control_c,0,71,46,
3,5671248,Control_c,0,74,75,
3,5671439,Control_c,0,71,46,
3,5671728,Control_c,0,74,75,
3,5671919,Control_c,0,71,46,
3,5672208,Control_c,0,74,75,
3,5672399,Control_c,0,71,46,
3,5672688,Control_c,0,74,75,
3,5672879,Control_c,0,71,46,
3,5673168,Control_c,0,74,75,
3,5673359,Control_c,0,71,46,
3,5673648,Control_c,0,74,75,
3,5673839,Control_c,0,71,46,
3,5674128,Control_c,0,74,75,
3,5674319,Control_c,0,71,46,
3,5674608,Control_c,0,74,75,
3,5674799,Control_c,0,71,46,
3,5675088,Control_c,0,74,75,
3,5675279,Control_c,0,71,46,
3,5675520,Note_off_c,0,62,0,
3,5675520,Note_on_c,0,64,51,
3,5675568,Control_c,0,74,75,
3,5675759,Control_c,0,71,46,
3,5676048,Control_c,0,74,75,
3,5676239,Control_c,0,71,46,
3,5676528,Control_c,0,74,75,
3,5676719,Control_c,0,71,46,
3,5677008,Control_c,0,74,75,
3,5677199,Control_c,0,71,46,
3,5677488,Control_c,0,74,75,
3,5677679,Control_c,0,71,46,
3,5677968,Control_c,0,74,76,
3,5678159,Control_c,0,71,46,
3,5678448,Control_c,0,74,76,
3,5678639,Control_c,0,71,46,
3,5678928,Control_c,0,74,76,
3,5679119,Control_c,0,71,46,
3,5679408,Control_c,0,74,76,
3,5679599,Control_c,0,71,46,
3,5679888,Control_c,0,74,76,
3,5680079,Control_c,0,71,47,
3,5680368,Control_c,0,74,76,
3,5680559,Control_c,0,71,47,
3,5680848,Control_c,0,74,76,
3,5681039,Control_c,0,71,47,
3,5681328,Control_c,0,74,76,
3,5681519,Control_c,0,71,47,
3,5681808,Control_c,0,74,76,
3,5681999,Control_c,0,71,47,
3,5682288,Control_c,0,74,76,
3,5682479,Control_c,0,71,47,
3,5682768,Control_c,0,74,76,
3,5682959,Control_c,0,71,47,
3,5683200,Note_off_c,0,64,0,
3,5683200,Note_on_c,0,66,56,
3,5683248,Control_c,0,74,76,
3,5683439,Control_c,0,71,47,
3,5683728,Control_c,0,74,76,
3,5683919,Control_c,0,71,47,
3,5684208,Control_c,0,74,76,
3,5684399,Control_c,0,71,47,
3,5684688,Control_c,0,74,76,
3,5684879,Control_c,0,71,47,
3,5685168,Control_c,0,74,76,
3,5685359,Control_c,0,71,47,
3,5685648,Control_c,0,74,76,
3,5685839,Control_c,0,71,47,
3,5686128,Control_c,0,74,76,
3,5686319,Control_c,0,71,47,
3,5686608,Control_c,0,74,76,
3,5686799,Control_c,0,71,47,
3,5687088,Control_c,0,74,76,
3,5687279,Control_c,0,71,47,
3,5687568,Control_c,0,74,76,
3,5687759,Control_c,0,71,47,
3,5688048,Control_c,0,74,76,
3,5688239,Control_c,0,71,47,
3,5688528,Control_c,0,74,76,
3,5688719,Control_c,0,71,48,
3,5689008,Control_c,0,74,76,
3,5689199,Control_c,0,71,48,
3,5689488,Control_c,0,74,76,
3,5689679,Control_c,0,71,48,
3,5689968,Control_c,0,74,76,
3,5690159,Control_c,0,71,48,
3,5690448,Control_c,0,74,76,
3,5690639,Control_c,0,71,48,
3,5690880,Note_off_c,0,66,0,
3,5690880,Note_on_c,0,68,57,
3,5690928,Control_c,0,74,76,
3,5691119,Control_c,0,71,48,
3,5691408,Control_c,0,74,76,
3,5691599,Control_c,0,71,48,
3,5691888,Control_c,0,74,76,
3,5692079,Control_c,0,71,48,
3,5692368,Control_c,0,74,77,
3,5692559,Control_c,0,71,48,
3,5692848,Control_c,0,74,77,
3,5693039,Control_c,0,71,48,
3,5693328,Control_c,0,74,77,
3,5693519,Control_c,0,71,48,
3,5693808,Control_c,0,74,77,
3,5693999,Control_c,0,71,48,
3,5694288,Control_c,0,74,77,
3,5694479,Control_c,0,71,48,
3,5694768,Control_c,0,74,77,
3,5694959,Control_c,0,71,48,
3,5695248,Control_c,0,74,77,
3,5695439,Control_c,0,71,48,
3,5695728,Control_c,0,74,77,
3,5695919,Control_c,0,71,48,
3,5696208,Control_c,0,74,77,
3,5696399,Control_c,0,71,48,
3,5696688,Control_c,0,74,77,
3,5696879,Control_c,0,71,48,
3,5697168,Control_c,0,74,77,
3,5697359,Control_c,0,71,49,
3,5697648,Control_c,0,74,77,
3,5697839,Control_c,0,71,49,
3,5698128,Control_c,0,74,77,
3,5698319,Control_c,0,71,49,
3,5698560,Note_off_c,0,68,0,
3,5698560,Note_on_c,0,62,77,
3,5698608,Control_c,0,74,77,
3,5698799,Control_c,0,71,49,
3,5699088,Control_c,0,74,77,
3,5699279,Control_c,0,71,49,
3,5699568,Control_c,0,74,77,
3,5699759,Control_c,0,71,49,
3,5700048,Control_c,0,74,77,
3,5700239,Control_c,0,71,49,
3,5700528,Control_c,0,74,77,
3,5700719,Control_c,0,71,49,
3,5701008,Control_c,0,74,77,
3,5701199,Control_c,0,71,49,
3,5701488,Control_c,0,74,77,
3,5701679,Control_c,0,71,49,
3,5701968,Control_c,0,74,77,
3,5702159,Control_c,0,71,49,
3,5702448,Control_c,0,74,77,
3,5702639,Control_c,0,71,49,
3,5702928,Control_c,0,74,77,
3,5703119,Control_c,0,71,49,
3,5703408,Control_c,0,74,77,
3,5703599,Control_c,0,71,49,
3,5703888,Control_c,0,74,77,
3,5704079,Control_c,0,71,49,
3,5704368,Control_c,0,74,77,
3,5704559,Control_c,0,71,49,
3,5704848,Control_c,0,74,77,
3,5705039,Control_c,0,71,49,
3,5705328,Control_c,0,74,77,
3,5705519,Control_c,0,71,49,
3,5705808,Control_c,0,74,77,
3,5705999,Control_c,0,71,50,
3,5706240,Note_off_c,0,62,0,
3,5706240,Note_on_c,0,64,51,
3,5706288,Control_c,0,74,78,
3,5706479,Control_c,0,71,50,
3,5706768,Control_c,0,74,78,
3,5706959,Control_c,0,71,50,
3,5707248,Control_c,0,74,78,
3,5707439,Control_c,0,71,50,
3,5707728,Control_c,0,74,78,
3,5707919,Control_c,0,71,50,
3,5708208,Control_c,0,74,78,
3,5708399,Control_c,0,71,50,
3,5708688,Control_c,0,74,78,
3,5708879,Control_c,0,71,50,
3,5709168,Control_c,0,74,78,
3,5709359,Control_c,0,71,50,
3,5709648,Control_c,0,74,78,
3,5709839,Control_c,0,71,50,
3,5710128,Control_c,0,74,78,
3,5710319,Control_c,0,71,50,
3,5710608,Control_c,0,74,78,
3,5710799,Control_c,0,71,50,
3,5711088,Control_c,0,74,78,
3,5711279,Control_c,0,71,50,
3,5711568,Control_c,0,74,78,
3,5711759,Control_c,0,71,50,
3,5712048,Control_c,0,74,78,
3,5712239,Control_c,0,71,50,
3,5712528,Control_c,0,74,78,
3,5712719,Control_c,0,71,50,
3,5713008,Control_c,0,74,78,
3,5713199,Control_c,0,71,50,
3,5713488,Control_c,0,74,78,
3,5713679,Control_c,0,71,50,
3,5713920,Note_off_c,0,64,0,
3,5713920,Note_on_c,0,66,50,
3,5713968,Control_c,0,74,78,
3,5714159,Control_c,0,71,50,
3,5714448,Control_c,0,74,78,
3,5714639,Control_c,0,71,50,
3,5714928,Control_c,0,74,78,
3,5715119,Control_c,0,71,51,
3,5715408,Control_c,0,74,78,
3,5715599,Control_c,0,71,51,
3,5715888,Control_c,0,74,78,
3,5716079,Control_c,0,71,51,
3,5716368,Control_c,0,74,78,
3,5716559,Control_c,0,71,51,
3,5716848,Control_c,0,74,78,
3,5717039,Control_c,0,71,51,
3,5717328,Control_c,0,74,78,
3,5717519,Control_c,0,71,51,
3,5717808,Control_c,0,74,78,
3,5717999,Control_c,0,71,51,
3,5718288,Control_c,0,74,78,
3,5718479,Control_c,0,71,51,
3,5718768,Control_c,0,74,78,
3,5718959,Control_c,0,71,51,
3,5719248,Control_c,0,74,78,
3,5719439,Control_c,0,71,51,
3,5719728,Control_c,0,74,78,
3,5719919,Control_c,0,71,51,
3,5720208,Control_c,0,74,78,
3,5720399,Control_c,0,71,51,
3,5720688,Control_c,0,74,79,
3,5720879,Control_c,0,71,51,
3,5721168,Control_c,0,74,79,
3,5721359,Control_c,0,71,51,
3,5721600,Note_off_c,0,66,0,
3,5721600,Note_on_c,0,69,50,
3,5721648,Control_c,0,74,79,
3,5721839,Control_c,0,71,51,
3,5722128,Control_c,0,74,79,
3,5722319,Control_c,0,71,51,
3,5722608,Control_c,0,74,79,
3,5722799,Control_c,0,71,51,
3,5723088,Control_c,0,74,79,
3,5723279,Control_c,0,71,51,
3,5723568,Control_c,0,74,79,
3,5723759,Control_c,0,71,52,
3,5724048,Control_c,0,74,79,
3,5724239,Control_c,0,71,52,
3,5724528,Control_c,0,74,79,
3,5724719,Control_c,0,71,52,
3,5725008,Control_c,0,74,79,
3,5725199,Control_c,0,71,52,
3,5725488,Control_c,0,74,79,
3,5725679,Control_c,0,71,52,
3,5725968,Control_c,0,74,79,
3,5726159,Control_c,0,71,52,
3,5726448,Control_c,0,74,79,
3,5726639,Control_c,0,71,52,
3,5726928,Control_c,0,74,79,
3,5727119,Control_c,0,71,52,
3,5727408,Control_c,0,74,79,
3,5727599,Control_c,0,71,52,
3,5727888,Control_c,0,74,79,
3,5728079,Control_c,0,71,52,
3,5728368,Control_c,0,74,79,
3,5728559,Control_c,0,71,52,
3,5728848,Control_c,0,74,79,
3,5729039,Control_c,0,71,52,
3,5729280,Note_off_c,0,50,0,
3,5729280,Note_off_c,0,69,0,
3,5729280,Note_on_c,0,52,86,
3,5729280,Note_on_c,0,64,50,
3,5729328,Control_c,0,74,79,
3,5729519,Control_c,0,71,52,
3,5729808,Control_c,0,74,79,
3,5729999,Control_c,0,71,52,
3,5730288,Control_c,0,74,79,
3,5730479,Control_c,0,71,52,
3,5730768,Control_c,0,74,79,
3,5730959,Control_c,0,71,52,
3,5731248,Control_c,0,74,79,
3,5731439,Control_c,0,71,52,
3,5731728,Control_c,0,74,79,
3,5731919,Control_c,0,71,52,
3,5732208,Control_c,0,74,79,
3,5732330,Control_c,0,71,53,
3,5732688,Control_c,0,74,79,
3,5732810,Control_c,0,71,53,
3,5733168,Control_c,0,74,79,
3,5733290,Control_c,0,71,53,
3,5733648,Control_c,0,74,79,
3,5733770,Control_c,0,71,53,
3,5734128,Control_c,0,74,79,
3,5734250,Control_c,0,71,53,
3,5734608,Control_c,0,74,80,
3,5734730,Control_c,0,71,53,
3,5735088,Control_c,0,74,80,
3,5735210,Control_c,0,71,53,
3,5735568,Control_c,0,74,80,
3,5735690,Control_c,0,71,53,
3,5736048,Control_c,0,74,80,
3,5736170,Control_c,0,71,53,
3,5736528,Control_c,0,74,80,
3,5736650,Control_c,0,71,53,
3,5736960,Note_off_c,0,64,0,
3,5736960,Note_on_c,0,66,55,
3,5737008,Control_c,0,74,80,
3,5737130,Control_c,0,71,53,
3,5737488,Control_c,0,74,80,
3,5737610,Control_c,0,71,53,
3,5737968,Control_c,0,74,80,
3,5738090,Control_c,0,71,53,
3,5738448,Control_c,0,74,80,
3,5738570,Control_c,0,71,53,
3,5738928,Control_c,0,74,80,
3,5739050,Control_c,0,71,53,
3,5739408,Control_c,0,74,80,
3,5739530,Control_c,0,71,53,
3,5739888,Control_c,0,74,80,
3,5740010,Control_c,0,71,53,
3,5740368,Control_c,0,74,80,
3,5740490,Control_c,0,71,53,
3,5740848,Control_c,0,74,80,
3,5740970,Control_c,0,71,53,
3,5741328,Control_c,0,74,80,
3,5741450,Control_c,0,71,53,
3,5741808,Control_c,0,74,80,
3,5741930,Control_c,0,71,53,
3,5742288,Control_c,0,74,80,
3,5742410,Control_c,0,71,53,
3,5742768,Control_c,0,74,80,
3,5742890,Control_c,0,71,53,
3,5743248,Control_c,0,74,80,
3,5743370,Control_c,0,71,53,
3,5743728,Control_c,0,74,80,
3,5743850,Control_c,0,71,53,
3,5744208,Control_c,0,74,80,
3,5744330,Control_c,0,71,53,
3,5744640,Note_off_c,0,66,0,
3,5744640,Note_on_c,0,68,15,
3,5744688,Control_c,0,74,80,
3,5744810,Control_c,0,71,53,
3,5745168,Control_c,0,74,80,
3,5745290,Control_c,0,71,53,
3,5745648,Control_c,0,74,80,
3,5745770,Control_c,0,71,53,
3,5746128,Control_c,0,74,80,
3,5746250,Control_c,0,71,53,
3,5746608,Control_c,0,74,80,
3,5746730,Control_c,0,71,53,
3,5747088,Control_c,0,74,80,
3,5747210,Control_c,0,71,53,
3,5747568,Control_c,0,74,80,
3,5747690,Control_c,0,71,53,
3,5748048,Control_c,0,74,80,
3,5748170,Control_c,0,71,53,
3,5748528,Control_c,0,74,80,
3,5748650,Control_c,0,71,53,
3,5749008,Control_c,0,74,81,
3,5749130,Control_c,0,71,53,
3,5749488,Control_c,0,74,81,
3,5749610,Control_c,0,71,53,
3,5749968,Control_c,0,74,81,
3,5750090,Control_c,0,71,54,
3,5750448,Control_c,0,74,81,
3,5750570,Control_c,0,71,54,
3,5750928,Control_c,0,74,81,
3,5751050,Control_c,0,71,54,
3,5751408,Control_c,0,74,81,
3,5751530,Control_c,0,71,54,
3,5751888,Control_c,0,74,81,
3,5752010,Control_c,0,71,54,
3,5752320,Note_off_c,0,68,0,
3,5752320,Note_on_c,0,71,43,
3,5752368,Control_c,0,74,81,
3,5752490,Control_c,0,71,54,
3,5752848,Control_c,0,74,81,
3,5752970,Control_c,0,71,54,
3,5753328,Control_c,0,74,81,
3,5753450,Control_c,0,71,54,
3,5753808,Control_c,0,74,81,
3,5753930,Control_c,0,71,54,
3,5754288,Control_c,0,74,81,
3,5754410,Control_c,0,71,54,
3,5754768,Control_c,0,74,81,
3,5754890,Control_c,0,71,54,
3,5755248,Control_c,0,74,81,
3,5755370,Control_c,0,71,54,
3,5755728,Control_c,0,74,81,
3,5755850,Control_c,0,71,54,
3,5756208,Control_c,0,74,81,
3,5756330,Control_c,0,71,54,
3,5756688,Control_c,0,74,81,
3,5756810,Control_c,0,71,54,
3,5757168,Control_c,0,74,81,
3,5757290,Control_c,0,71,54,
3,5757648,Control_c,0,74,81,
3,5757770,Control_c,0,71,54,
3,5758128,Control_c,0,74,81,
3,5758250,Control_c,0,71,54,
3,5758608,Control_c,0,74,81,
3,5758730,Control_c,0,71,54,
3,5759088,Control_c,0,74,81,
3,5759210,Control_c,0,71,54,
3,5759568,Control_c,0,74,81,
3,5759690,Control_c,0,71,54,
3,5760000,Note_off_c,0,71,0,
3,5760000,Note_on_c,0,64,52,
3,5760048,Control_c,0,74,81,
3,5760170,Control_c,0,71,54,
3,5760528,Control_c,0,74,81,
3,5760650,Control_c,0,71,54,
3,5761008,Control_c,0,74,81,
3,5761130,Control_c,0,71,54,
3,5761488,Control_c,0,74,81,
3,5761610,Control_c,0,71,54,
3,5761968,Control_c,0,74,81,
3,5762090,Control_c,0,71,54,
3,5762448,Control_c,0,74,81,
3,5762570,Control_c,0,71,54,
3,5762928,Control_c,0,74,82,
3,5763050,Control_c,0,71,54,
3,5763408,Control_c,0,74,82,
3,5763530,Control_c,0,71,54,
3,5763888,Control_c,0,74,82,
3,5764010,Control_c,0,71,54,
3,5764368,Control_c,0,74,82,
3,5764490,Control_c,0,71,54,
3,5764848,Control_c,0,74,82,
3,5764970,Control_c,0,71,54,
3,5765328,Control_c,0,74,82,
3,5765450,Control_c,0,71,54,
3,5765808,Control_c,0,74,82,
3,5765930,Control_c,0,71,54,
3,5766288,Control_c,0,74,82,
3,5766410,Control_c,0,71,54,
3,5766768,Control_c,0,74,82,
3,5766890,Control_c,0,71,54,
3,5767248,Control_c,0,74,82,
3,5767370,Control_c,0,71,55,
3,5767680,Note_off_c,0,64,0,
3,5767680,Note_on_c,0,66,56,
3,5767728,Control_c,0,74,82,
3,5767850,Control_c,0,71,55,
3,5768208,Control_c,0,74,82,
3,5768330,Control_c,0,71,55,
3,5768688,Control_c,0,74,82,
3,5768810,Control_c,0,71,55,
3,5769168,Control_c,0,74,82,
3,5769290,Control_c,0,71,55,
3,5769648,Control_c,0,74,82,
3,5769770,Control_c,0,71,55,
3,5770128,Control_c,0,74,82,
3,5770250,Control_c,0,71,55,
3,5770608,Control_c,0,74,82,
3,5770730,Control_c,0,71,55,
3,5771088,Control_c,0,74,82,
3,5771210,Control_c,0,71,55,
3,5771568,Control_c,0,74,82,
3,5771690,Control_c,0,71,55,
3,5772048,Control_c,0,74,82,
3,5772170,Control_c,0,71,55,
3,5772528,Control_c,0,74,82,
3,5772650,Control_c,0,71,55,
3,5773008,Control_c,0,74,82,
3,5773130,Control_c,0,71,55,
3,5773488,Control_c,0,74,82,
3,5773610,Control_c,0,71,55,
3,5773968,Control_c,0,74,82,
3,5774090,Control_c,0,71,55,
3,5774448,Control_c,0,74,82,
3,5774570,Control_c,0,71,55,
3,5774928,Control_c,0,74,82,
3,5775050,Control_c,0,71,55,
3,5775360,Note_off_c,0,66,0,
3,5775360,Note_on_c,0,68,16,
3,5775408,Control_c,0,74,82,
3,5775530,Control_c,0,71,55,
3,5775888,Control_c,0,74,82,
3,5776010,Control_c,0,71,55,
3,5776368,Control_c,0,74,82,
3,5776490,Control_c,0,71,55,
3,5776848,Control_c,0,74,82,
3,5776970,Control_c,0,71,55,
3,5777328,Control_c,0,74,83,
3,5777450,Control_c,0,71,55,
3,5777808,Control_c,0,74,83,
3,5777930,Control_c,0,71,55,
3,5778288,Control_c,0,74,83,
3,5778410,Control_c,0,71,55,
3,5778768,Control_c,0,74,83,
3,5778890,Control_c,0,71,55,
3,5779248,Control_c,0,74,83,
3,5779370,Control_c,0,71,55,
3,5779728,Control_c,0,74,83,
3,5779850,Control_c,0,71,55,
3,5780208,Control_c,0,74,83,
3,5780330,Control_c,0,71,55,
3,5780688,Control_c,0,74,83,
3,5780810,Control_c,0,71,55,
3,5781168,Control_c,0,74,83,
3,5781290,Control_c,0,71,55,
3,5781648,Control_c,0,74,83,
3,5781770,Control_c,0,71,55,
3,5782128,Control_c,0,74,83,
3,5782250,Control_c,0,71,55,
3,5782608,Control_c,0,74,83,
3,5782730,Control_c,0,71,55,
3,5783040,Note_off_c,0,68,0,
3,5783040,Note_on_c,0,73,54,
3,5783088,Control_c,0,74,83,
3,5783210,Control_c,0,71,55,
3,5783568,Control_c,0,74,83,
3,5783690,Control_c,0,71,55,
3,5784048,Control_c,0,74,83,
3,5784170,Control_c,0,71,55,
3,5784528,Control_c,0,74,83,
3,5784650,Control_c,0,71,55,
3,5785008,Control_c,0,74,83,
3,5785130,Control_c,0,71,56,
3,5785488,Control_c,0,74,83,
3,5785610,Control_c,0,71,56,
3,5785968,Control_c,0,74,83,
3,5786090,Control_c,0,71,56,
3,5786448,Control_c,0,74,83,
3,5786570,Control_c,0,71,56,
3,5786928,Control_c,0,74,83,
3,5787050,Control_c,0,71,56,
3,5787408,Control_c,0,74,83,
3,5787530,Control_c,0,71,56,
3,5787888,Control_c,0,74,83,
3,5788010,Control_c,0,71,56,
3,5788368,Control_c,0,74,83,
3,5788490,Control_c,0,71,56,
3,5788848,Control_c,0,74,83,
3,5788970,Control_c,0,71,56,
3,5789328,Control_c,0,74,83,
3,5789450,Control_c,0,71,56,
3,5789808,Control_c,0,74,83,
3,5789930,Control_c,0,71,56,
3,5790288,Control_c,0,74,83,
3,5790410,Control_c,0,71,56,
3,5790720,Note_off_c,0,73,0,
3,5790720,Note_on_c,0,64,47,
3,5790768,Control_c,0,74,83,
3,5790890,Control_c,0,71,56,
3,5791248,Control_c,0,74,84,
3,5791370,Control_c,0,71,56,
3,5791728,Control_c,0,74,84,
3,5791850,Control_c,0,71,56,
3,5792208,Control_c,0,74,84,
3,5792330,Control_c,0,71,56,
3,5792688,Control_c,0,74,84,
3,5792810,Control_c,0,71,56,
3,5793168,Control_c,0,74,84,
3,5793290,Control_c,0,71,56,
3,5793648,Control_c,0,74,84,
3,5793770,Control_c,0,71,56,
3,5794128,Control_c,0,74,84,
3,5794250,Control_c,0,71,56,
3,5794608,Control_c,0,74,84,
3,5794730,Control_c,0,71,56,
3,5795088,Control_c,0,74,84,
3,5795210,Control_c,0,71,56,
3,5795568,Control_c,0,74,84,
3,5795690,Control_c,0,71,56,
3,5796048,Control_c,0,74,84,
3,5796170,Control_c,0,71,56,
3,5796528,Control_c,0,74,84,
3,5796650,Control_c,0,71,56,
3,5797008,Control_c,0,74,84,
3,5797130,Control_c,0,71,56,
3,5797488,Control_c,0,74,84,
3,5797610,Control_c,0,71,56,
3,5797968,Control_c,0,74,84,
3,5798090,Control_c,0,71,56,
3,5798400,Note_off_c,0,64,0,
3,5798400,Note_on_c,0,66,48,
3,5798448,Control_c,0,74,84,
3,5798570,Control_c,0,71,56,
3,5798928,Control_c,0,74,84,
3,5799050,Control_c,0,71,56,
3,5799408,Control_c,0,74,84,
3,5799530,Control_c,0,71,56,
3,5799888,Control_c,0,74,84,
3,5800010,Control_c,0,71,56,
3,5800368,Control_c,0,74,84,
3,5800490,Control_c,0,71,56,
3,5800848,Control_c,0,74,84,
3,5800970,Control_c,0,71,56,
3,5801328,Control_c,0,74,84,
3,5801450,Control_c,0,71,56,
3,5801808,Control_c,0,74,84,
3,5801930,Control_c,0,71,56,
3,5802288,Control_c,0,74,84,
3,5802410,Control_c,0,71,57,
3,5802768,Control_c,0,74,84,
3,5802890,Control_c,0,71,57,
3,5803248,Control_c,0,74,84,
3,5803370,Control_c,0,71,57,
3,5803728,Control_c,0,74,84,
3,5803850,Control_c,0,71,57,
3,5804208,Control_c,0,74,84,
3,5804330,Control_c,0,71,57,
3,5804688,Control_c,0,74,84,
3,5804810,Control_c,0,71,57,
3,5805168,Control_c,0,74,84,
3,5805290,Control_c,0,71,57,
3,5805648,Control_c,0,74,85,
3,5805770,Control_c,0,71,57,
3,5806080,Note_off_c,0,66,0,
3,5806080,Note_on_c,0,68,30,
3,5806128,Control_c,0,74,85,
3,5806250,Control_c,0,71,57,
3,5806608,Control_c,0,74,85,
3,5806730,Control_c,0,71,57,
3,5807088,Control_c,0,74,85,
3,5807210,Control_c,0,71,57,
3,5807568,Control_c,0,74,85,
3,5807690,Control_c,0,71,57,
3,5808048,Control_c,0,74,85,
3,5808170,Control_c,0,71,57,
3,5808528,Control_c,0,74,85,
3,5808650,Control_c,0,71,57,
3,5809008,Control_c,0,74,85,
3,5809130,Control_c,0,71,57,
3,5809488,Control_c,0,74,85,
3,5809610,Control_c,0,71,57,
3,5809968,Control_c,0,74,85,
3,5810090,Control_c,0,71,57,
3,5810448,Control_c,0,74,85,
3,5810570,Control_c,0,71,57,
3,5810928,Control_c,0,74,85,
3,5811050,Control_c,0,71,57,
3,5811408,Control_c,0,74,85,
3,5811530,Control_c,0,71,57,
3,5811888,Control_c,0,74,85,
3,5812010,Control_c,0,71,57,
3,5812368,Control_c,0,74,85,
3,5812490,Control_c,0,71,57,
3,5812848,Control_c,0,74,85,
3,5812970,Control_c,0,71,57,
3,5813328,Control_c,0,74,85,
3,5813450,Control_c,0,71,57,
3,5813760,Note_off_c,0,68,0,
3,5813760,Note_on_c,0,71,38,
3,5813808,Control_c,0,74,85,
3,5813930,Control_c,0,71,57,
3,5814288,Control_c,0,74,85,
3,5814410,Control_c,0,71,57,
3,5814768,Control_c,0,74,85,
3,5814890,Control_c,0,71,57,
3,5815248,Control_c,0,74,85,
3,5815370,Control_c,0,71,57,
3,5815728,Control_c,0,74,85,
3,5815850,Control_c,0,71,57,
3,5816208,Control_c,0,74,85,
3,5816330,Control_c,0,71,57,
3,5816688,Control_c,0,74,85,
3,5816810,Control_c,0,71,57,
3,5817168,Control_c,0,74,85,
3,5817290,Control_c,0,71,57,
3,5817648,Control_c,0,74,85,
3,5817770,Control_c,0,71,57,
3,5818128,Control_c,0,74,85,
3,5818250,Control_c,0,71,57,
3,5818608,Control_c,0,74,85,
3,5818730,Control_c,0,71,57,
3,5819088,Control_c,0,74,85,
3,5819210,Control_c,0,71,57,
3,5819568,Control_c,0,74,86,
3,5819690,Control_c,0,71,58,
3,5820048,Control_c,0,74,86,
3,5820170,Control_c,0,71,58,
3,5820528,Control_c,0,74,86,
3,5820650,Control_c,0,71,58,
3,5821008,Control_c,0,74,86,
3,5821130,Control_c,0,71,58,
3,5821440,Note_off_c,0,71,0,
3,5821440,Note_on_c,0,64,58,
3,5821488,Control_c,0,74,86,
3,5821610,Control_c,0,71,58,
3,5821968,Control_c,0,74,86,
3,5822090,Control_c,0,71,58,
3,5822448,Control_c,0,74,86,
3,5822570,Control_c,0,71,58,
3,5822928,Control_c,0,74,86,
3,5823050,Control_c,0,71,58,
3,5823408,Control_c,0,74,86,
3,5823530,Control_c,0,71,58,
3,5823888,Control_c,0,74,86,
3,5824010,Control_c,0,71,58,
3,5824368,Control_c,0,74,86,
3,5824490,Control_c,0,71,58,
3,5824848,Control_c,0,74,86,
3,5824970,Control_c,0,71,58,
3,5825328,Control_c,0,74,86,
3,5825450,Control_c,0,71,58,
3,5825808,Control_c,0,74,86,
3,5825930,Control_c,0,71,58,
3,5826288,Control_c,0,74,86,
3,5826410,Control_c,0,71,58,
3,5826768,Control_c,0,74,86,
3,5826890,Control_c,0,71,58,
3,5827248,Control_c,0,74,86,
3,5827370,Control_c,0,71,58,
3,5827728,Control_c,0,74,86,
3,5827850,Control_c,0,71,58,
3,5828208,Control_c,0,74,86,
3,5828330,Control_c,0,71,58,
3,5828688,Control_c,0,74,86,
3,5828810,Control_c,0,71,58,
3,5829120,Note_off_c,0,64,0,
3,5829120,Note_on_c,0,66,62,
3,5829168,Control_c,0,74,86,
3,5829290,Control_c,0,71,58,
3,5829648,Control_c,0,74,86,
3,5829770,Control_c,0,71,58,
3,5830128,Control_c,0,74,86,
3,5830250,Control_c,0,71,58,
3,5830608,Control_c,0,74,86,
3,5830730,Control_c,0,71,58,
3,5831088,Control_c,0,74,86,
3,5831210,Control_c,0,71,58,
3,5831568,Control_c,0,74,86,
3,5831690,Control_c,0,71,58,
3,5832048,Control_c,0,74,86,
3,5832170,Control_c,0,71,58,
3,5832528,Control_c,0,74,86,
3,5832650,Control_c,0,71,58,
3,5833008,Control_c,0,74,86,
3,5833130,Control_c,0,71,58,
3,5833488,Control_c,0,74,86,
3,5833610,Control_c,0,71,58,
3,5833968,Control_c,0,74,87,
3,5834090,Control_c,0,71,58,
3,5834448,Control_c,0,74,87,
3,5834570,Control_c,0,71,58,
3,5834928,Control_c,0,74,87,
3,5835050,Control_c,0,71,58,
3,5835408,Control_c,0,74,87,
3,5835530,Control_c,0,71,58,
3,5835888,Control_c,0,74,87,
3,5836010,Control_c,0,71,58,
3,5836368,Control_c,0,74,87,
3,5836490,Control_c,0,71,58,
3,5836800,Note_off_c,0,66,0,
3,5836800,Note_on_c,0,68,43,
3,5836848,Control_c,0,74,87,
3,5836970,Control_c,0,71,58,
3,5837328,Control_c,0,74,87,
3,5837450,Control_c,0,71,59,
3,5837808,Control_c,0,74,87,
3,5837930,Control_c,0,71,59,
3,5838288,Control_c,0,74,87,
3,5838410,Control_c,0,71,59,
3,5838768,Control_c,0,74,87,
3,5838890,Control_c,0,71,59,
3,5839248,Control_c,0,74,87,
3,5839370,Control_c,0,71,59,
3,5839728,Control_c,0,74,87,
3,5839850,Control_c,0,71,59,
3,5840208,Control_c,0,74,87,
3,5840330,Control_c,0,71,59,
3,5840688,Control_c,0,74,87,
3,5840810,Control_c,0,71,59,
3,5841168,Control_c,0,74,87,
3,5841290,Control_c,0,71,59,
3,5841648,Control_c,0,74,87,
3,5841770,Control_c,0,71,59,
3,5842128,Control_c,0,74,87,
3,5842250,Control_c,0,71,59,
3,5842608,Control_c,0,74,87,
3,5842730,Control_c,0,71,59,
3,5843088,Control_c,0,74,87,
3,5843210,Control_c,0,71,59,
3,5843568,Control_c,0,74,87,
3,5843690,Control_c,0,71,59,
3,5844048,Control_c,0,74,87,
3,5844170,Control_c,0,71,59,
3,5844480,Note_off_c,0,68,0,
3,5844480,Note_on_c,0,71,36,
3,5844528,Control_c,0,74,87,
3,5844650,Control_c,0,71,59,
3,5845008,Control_c,0,74,87,
3,5845130,Control_c,0,71,59,
3,5845488,Control_c,0,74,87,
3,5845610,Control_c,0,71,59,
3,5845968,Control_c,0,74,87,
3,5846090,Control_c,0,71,59,
3,5846448,Control_c,0,74,87,
3,5846570,Control_c,0,71,59,
3,5846928,Control_c,0,74,87,
3,5847050,Control_c,0,71,59,
3,5847408,Control_c,0,74,87,
3,5847530,Control_c,0,71,59,
3,5847888,Control_c,0,74,88,
3,5848010,Control_c,0,71,59,
3,5848368,Control_c,0,74,88,
3,5848490,Control_c,0,71,59,
3,5848848,Control_c,0,74,88,
3,5848970,Control_c,0,71,59,
3,5849328,Control_c,0,74,88,
3,5849450,Control_c,0,71,59,
3,5849808,Control_c,0,74,88,
3,5849930,Control_c,0,71,59,
3,5850288,Control_c,0,74,88,
3,5850410,Control_c,0,71,59,
3,5850768,Control_c,0,74,88,
3,5850890,Control_c,0,71,59,
3,5851248,Control_c,0,74,88,
3,5851370,Control_c,0,71,59,
3,5851728,Control_c,0,74,88,
3,5851850,Control_c,0,71,59,
3,5852160,Note_off_c,0,52,0,
3,5852160,Note_off_c,0,71,0,
3,5852160,Note_on_c,0,54,84,
3,5852160,Note_on_c,0,66,45,
3,5852208,Control_c,0,74,88,
3,5852330,Control_c,0,71,59,
3,5852688,Control_c,0,74,88,
3,5852810,Control_c,0,71,59,
3,5853168,Control_c,0,74,88,
3,5853290,Control_c,0,71,59,
3,5853648,Control_c,0,74,88,
3,5853770,Control_c,0,71,59,
3,5854128,Control_c,0,74,88,
3,5854250,Control_c,0,71,59,
3,5854608,Control_c,0,74,88,
3,5854730,Control_c,0,71,60,
3,5855088,Control_c,0,74,88,
3,5855210,Control_c,0,71,60,
3,5855568,Control_c,0,74,88,
3,5855690,Control_c,0,71,60,
3,5856048,Control_c,0,74,88,
3,5856170,Control_c,0,71,60,
3,5856528,Control_c,0,74,88,
3,5856650,Control_c,0,71,60,
3,5857008,Control_c,0,74,88,
3,5857130,Control_c,0,71,60,
3,5857488,Control_c,0,74,88,
3,5857610,Control_c,0,71,60,
3,5857968,Control_c,0,74,88,
3,5858090,Control_c,0,71,60,
3,5858448,Control_c,0,74,88,
3,5858570,Control_c,0,71,60,
3,5858928,Control_c,0,74,88,
3,5859050,Control_c,0,71,60,
3,5859408,Control_c,0,74,88,
3,5859530,Control_c,0,71,60,
3,5859840,Note_off_c,0,66,0,
3,5859840,Note_on_c,0,68,48,
3,5859888,Control_c,0,74,88,
3,5860010,Control_c,0,71,60,
3,5860368,Control_c,0,74,88,
3,5860490,Control_c,0,71,60,
3,5860848,Control_c,0,74,88,
3,5860970,Control_c,0,71,60,
3,5861328,Control_c,0,74,88,
3,5861450,Control_c,0,71,60,
3,5861808,Control_c,0,74,88,
3,5861930,Control_c,0,71,60,
3,5862288,Control_c,0,74,89,
3,5862410,Control_c,0,71,60,
3,5862768,Control_c,0,74,89,
3,5862890,Control_c,0,71,60,
3,5863248,Control_c,0,74,89,
3,5863370,Control_c,0,71,60,
3,5863728,Control_c,0,74,89,
3,5863850,Control_c,0,71,60,
3,5864208,Control_c,0,74,89,
3,5864330,Control_c,0,71,60,
3,5864688,Control_c,0,74,89,
3,5864810,Control_c,0,71,60,
3,5865168,Control_c,0,74,89,
3,5865290,Control_c,0,71,60,
3,5865648,Control_c,0,74,89,
3,5865770,Control_c,0,71,60,
3,5866128,Control_c,0,74,89,
3,5866250,Control_c,0,71,60,
3,5866608,Control_c,0,74,89,
3,5866730,Control_c,0,71,60,
3,5867088,Control_c,0,74,89,
3,5867210,Control_c,0,71,60,
3,5867520,Note_off_c,0,68,0,
3,5867520,Note_on_c,0,69,36,
3,5867568,Control_c,0,74,89,
3,5867690,Control_c,0,71,60,
3,5868048,Control_c,0,74,89,
3,5868170,Control_c,0,71,60,
3,5868528,Control_c,0,74,89,
3,5868650,Control_c,0,71,60,
3,5869008,Control_c,0,74,89,
3,5869130,Control_c,0,71,60,
3,5869488,Control_c,0,74,89,
3,5869610,Control_c,0,71,60,
3,5869968,Control_c,0,74,89,
3,5870090,Control_c,0,71,60,
3,5870448,Control_c,0,74,89,
3,5870570,Control_c,0,71,60,
3,5870928,Control_c,0,74,89,
3,5871050,Control_c,0,71,60,
3,5871408,Control_c,0,74,89,
3,5871530,Control_c,0,71,60,
3,5871888,Control_c,0,74,89,
3,5872010,Control_c,0,71,60,
3,5872368,Control_c,0,74,89,
3,5872490,Control_c,0,71,61,
3,5872848,Control_c,0,74,89,
3,5872970,Control_c,0,71,61,
3,5873328,Control_c,0,74,89,
3,5873450,Control_c,0,71,61,
3,5873808,Control_c,0,74,89,
3,5873930,Control_c,0,71,61,
3,5874288,Control_c,0,74,89,
3,5874410,Control_c,0,71,61,
3,5874768,Control_c,0,74,89,
3,5874890,Control_c,0,71,61,
3,5875200,Note_off_c,0,69,0,
3,5875200,Note_on_c,0,71,45,
3,5875248,Control_c,0,74,89,
3,5875370,Control_c,0,71,61,
3,5875728,Control_c,0,74,89,
3,5875850,Control_c,0,71,61,
3,5876208,Control_c,0,74,90,
3,5876330,Control_c,0,71,61,
3,5876688,Control_c,0,74,90,
3,5876810,Control_c,0,71,61,
3,5877168,Control_c,0,74,90,
3,5877290,Control_c,0,71,61,
3,5877648,Control_c,0,74,90,
3,5877770,Control_c,0,71,61,
3,5878128,Control_c,0,74,90,
3,5878250,Control_c,0,71,61,
3,5878608,Control_c,0,74,90,
3,5878730,Control_c,0,71,61,
3,5879088,Control_c,0,74,90,
3,5879210,Control_c,0,71,61,
3,5879568,Control_c,0,74,90,
3,5879690,Control_c,0,71,61,
3,5880048,Control_c,0,74,90,
3,5880170,Control_c,0,71,61,
3,5880528,Control_c,0,74,90,
3,5880650,Control_c,0,71,61,
3,5881008,Control_c,0,74,90,
3,5881130,Control_c,0,71,61,
3,5881488,Control_c,0,74,90,
3,5881610,Control_c,0,71,61,
3,5881968,Control_c,0,74,90,
3,5882090,Control_c,0,71,61,
3,5882448,Control_c,0,74,90,
3,5882570,Control_c,0,71,61,
3,5882880,Note_off_c,0,71,0,
3,5882880,Note_on_c,0,66,65,
3,5882928,Control_c,0,74,90,
3,5883050,Control_c,0,71,61,
3,5883408,Control_c,0,74,90,
3,5883530,Control_c,0,71,61,
3,5883888,Control_c,0,74,90,
3,5884010,Control_c,0,71,61,
3,5884368,Control_c,0,74,90,
3,5884490,Control_c,0,71,61,
3,5884848,Control_c,0,74,90,
3,5884970,Control_c,0,71,61,
3,5885328,Control_c,0,74,90,
3,5885450,Control_c,0,71,61,
3,5885808,Control_c,0,74,90,
3,5885930,Control_c,0,71,61,
3,5886288,Control_c,0,74,90,
3,5886410,Control_c,0,71,61,
3,5886768,Control_c,0,74,90,
3,5886890,Control_c,0,71,61,
3,5887248,Control_c,0,74,90,
3,5887370,Control_c,0,71,61,
3,5887728,Control_c,0,74,90,
3,5887850,Control_c,0,71,61,
3,5888208,Control_c,0,74,90,
3,5888330,Control_c,0,71,61,
3,5888688,Control_c,0,74,90,
3,5888810,Control_c,0,71,61,
3,5889168,Control_c,0,74,90,
3,5889290,Control_c,0,71,61,
3,5889648,Control_c,0,74,90,
3,5889770,Control_c,0,71,62,
3,5890128,Control_c,0,74,90,
3,5890250,Control_c,0,71,62,
3,5890560,Note_off_c,0,66,0,
3,5890560,Note_on_c,0,68,34,
3,5890608,Control_c,0,74,91,
3,5890730,Control_c,0,71,62,
3,5891088,Control_c,0,74,91,
3,5891210,Control_c,0,71,62,
3,5891568,Control_c,0,74,91,
3,5891690,Control_c,0,71,62,
3,5892048,Control_c,0,74,91,
3,5892170,Control_c,0,71,62,
3,5892528,Control_c,0,74,91,
3,5892650,Control_c,0,71,62,
3,5893008,Control_c,0,74,91,
3,5893130,Control_c,0,71,62,
3,5893488,Control_c,0,74,91,
3,5893610,Control_c,0,71,62,
3,5893968,Control_c,0,74,91,
3,5894090,Control_c,0,71,62,
3,5894448,Control_c,0,74,91,
3,5894570,Control_c,0,71,62,
3,5894928,Control_c,0,74,91,
3,5895050,Control_c,0,71,62,
3,5895408,Control_c,0,74,91,
3,5895530,Control_c,0,71,62,
3,5895888,Control_c,0,74,91,
3,5896010,Control_c,0,71,62,
3,5896368,Control_c,0,74,91,
3,5896490,Control_c,0,71,62,
3,5896848,Control_c,0,74,91,
3,5896970,Control_c,0,71,62,
3,5897328,Control_c,0,74,91,
3,5897450,Control_c,0,71,62,
3,5897808,Control_c,0,74,91,
3,5897930,Control_c,0,71,62,
3,5898240,Note_off_c,0,68,0,
3,5898240,Note_on_c,0,69,46,
3,5898288,Control_c,0,74,91,
3,5898410,Control_c,0,71,62,
3,5898768,Control_c,0,74,91,
3,5898890,Control_c,0,71,62,
3,5899248,Control_c,0,74,91,
3,5899370,Control_c,0,71,62,
3,5899728,Control_c,0,74,91,
3,5899850,Control_c,0,71,62,
3,5900208,Control_c,0,74,91,
3,5900330,Control_c,0,71,62,
3,5900688,Control_c,0,74,91,
3,5900810,Control_c,0,71,62,
3,5901168,Control_c,0,74,91,
3,5901290,Control_c,0,71,62,
3,5901648,Control_c,0,74,91,
3,5901770,Control_c,0,71,62,
3,5902128,Control_c,0,74,91,
3,5902250,Control_c,0,71,62,
3,5902608,Control_c,0,74,91,
3,5902730,Control_c,0,71,62,
3,5903088,Control_c,0,74,91,
3,5903210,Control_c,0,71,62,
3,5903568,Control_c,0,74,91,
3,5903690,Control_c,0,71,62,
3,5904048,Control_c,0,74,91,
3,5904170,Control_c,0,71,62,
3,5904528,Control_c,0,74,92,
3,5904650,Control_c,0,71,62,
3,5905008,Control_c,0,74,92,
3,5905130,Control_c,0,71,62,
3,5905488,Control_c,0,74,92,
3,5905610,Control_c,0,71,62,
3,5905920,Note_off_c,0,69,0,
3,5905920,Note_on_c,0,73,56,
3,5905968,Control_c,0,74,92,
3,5906090,Control_c,0,71,62,
3,5906448,Control_c,0,74,92,
3,5906570,Control_c,0,71,62,
3,5906928,Control_c,0,74,92,
3,5907050,Control_c,0,71,63,
3,5907408,Control_c,0,74,92,
3,5907530,Control_c,0,71,63,
3,5907888,Control_c,0,74,92,
3,5908010,Control_c,0,71,63,
3,5908368,Control_c,0,74,92,
3,5908490,Control_c,0,71,63,
3,5908848,Control_c,0,74,92,
3,5908970,Control_c,0,71,63,
3,5909328,Control_c,0,74,92,
3,5909450,Control_c,0,71,63,
3,5909808,Control_c,0,74,92,
3,5909930,Control_c,0,71,63,
3,5910288,Control_c,0,74,92,
3,5910410,Control_c,0,71,63,
3,5910768,Control_c,0,74,92,
3,5910890,Control_c,0,71,63,
3,5911248,Control_c,0,74,92,
3,5911370,Control_c,0,71,63,
3,5911728,Control_c,0,74,92,
3,5911850,Control_c,0,71,63,
3,5912208,Control_c,0,74,92,
3,5912330,Control_c,0,71,63,
3,5912688,Control_c,0,74,92,
3,5912810,Control_c,0,71,63,
3,5913168,Control_c,0,74,92,
3,5913290,Control_c,0,71,63,
3,5913600,Note_off_c,0,73,0,
3,5913600,Note_on_c,0,66,56,
3,5913648,Control_c,0,74,92,
3,5913770,Control_c,0,71,63,
3,5914128,Control_c,0,74,92,
3,5914250,Control_c,0,71,63,
3,5914608,Control_c,0,74,92,
3,5914730,Control_c,0,71,63,
3,5915088,Control_c,0,74,92,
3,5915210,Control_c,0,71,63,
3,5915568,Control_c,0,74,92,
3,5915690,Control_c,0,71,63,
3,5916048,Control_c,0,74,92,
3,5916170,Control_c,0,71,63,
3,5916528,Control_c,0,74,92,
3,5916650,Control_c,0,71,63,
3,5917008,Control_c,0,74,92,
3,5917130,Control_c,0,71,63,
3,5917488,Control_c,0,74,92,
3,5917610,Control_c,0,71,63,
3,5917968,Control_c,0,74,92,
3,5918090,Control_c,0,71,63,
3,5918448,Control_c,0,74,93,
3,5918570,Control_c,0,71,63,
3,5918928,Control_c,0,74,93,
3,5919050,Control_c,0,71,63,
3,5919408,Control_c,0,74,93,
3,5919530,Control_c,0,71,63,
3,5919888,Control_c,0,74,93,
3,5920010,Control_c,0,71,63,
3,5920368,Control_c,0,74,93,
3,5920490,Control_c,0,71,63,
3,5920848,Control_c,0,74,93,
3,5920970,Control_c,0,71,63,
3,5921280,Note_off_c,0,66,0,
3,5921280,Note_on_c,0,68,48,
3,5921328,Control_c,0,74,93,
3,5921450,Control_c,0,71,63,
3,5921808,Control_c,0,74,93,
3,5921930,Control_c,0,71,63,
3,5922288,Control_c,0,74,93,
3,5922410,Control_c,0,71,63,
3,5922768,Control_c,0,74,93,
3,5922890,Control_c,0,71,63,
3,5923248,Control_c,0,74,93,
3,5923370,Control_c,0,71,63,
3,5923728,Control_c,0,74,93,
3,5923850,Control_c,0,71,63,
3,5924208,Control_c,0,74,93,
3,5924330,Control_c,0,71,63,
3,5924688,Control_c,0,74,93,
3,5924810,Control_c,0,71,64,
3,5925168,Control_c,0,74,93,
3,5925290,Control_c,0,71,64,
3,5925648,Control_c,0,74,93,
3,5925770,Control_c,0,71,64,
3,5926128,Control_c,0,74,93,
3,5926250,Control_c,0,71,64,
3,5926608,Control_c,0,74,93,
3,5926730,Control_c,0,71,64,
3,5927088,Control_c,0,74,93,
3,5927210,Control_c,0,71,64,
3,5927568,Control_c,0,74,93,
3,5927690,Control_c,0,71,64,
3,5928048,Control_c,0,74,93,
3,5928170,Control_c,0,71,64,
3,5928528,Control_c,0,74,93,
3,5928650,Control_c,0,71,64,
3,5928960,Note_off_c,0,68,0,
3,5928960,Note_on_c,0,69,58,
3,5929008,Control_c,0,74,93,
3,5929130,Control_c,0,71,64,
3,5929488,Control_c,0,74,93,
3,5929610,Control_c,0,71,64,
3,5929968,Control_c,0,74,93,
3,5930090,Control_c,0,71,64,
3,5930448,Control_c,0,74,93,
3,5930570,Control_c,0,71,64,
3,5930928,Control_c,0,74,93,
3,5931050,Control_c,0,71,64,
3,5931408,Control_c,0,74,93,
3,5931530,Control_c,0,71,64,
3,5931888,Control_c,0,74,93,
3,5932010,Control_c,0,71,64,
3,5932368,Control_c,0,74,93,
3,5932490,Control_c,0,71,64,
3,5932848,Control_c,0,74,94,
3,5932970,Control_c,0,71,64,
3,5933328,Control_c,0,74,94,
3,5933450,Control_c,0,71,64,
3,5933808,Control_c,0,74,94,
3,5933930,Control_c,0,71,64,
3,5934288,Control_c,0,74,94,
3,5934410,Control_c,0,71,64,
3,5934768,Control_c,0,74,94,
3,5934890,Control_c,0,71,64,
3,5935248,Control_c,0,74,94,
3,5935370,Control_c,0,71,64,
3,5935728,Control_c,0,74,94,
3,5935850,Control_c,0,71,64,
3,5936208,Control_c,0,74,94,
3,5936330,Control_c,0,71,64,
3,5936640,Note_off_c,0,69,0,
3,5936640,Note_on_c,0,71,44,
3,5936688,Control_c,0,74,94,
3,5936810,Control_c,0,71,64,
3,5937168,Control_c,0,74,94,
3,5937290,Control_c,0,71,64,
3,5937648,Control_c,0,74,94,
3,5937770,Control_c,0,71,64,
3,5938128,Control_c,0,74,94,
3,5938250,Control_c,0,71,64,
3,5938608,Control_c,0,74,94,
3,5938730,Control_c,0,71,64,
3,5939088,Control_c,0,74,94,
3,5939210,Control_c,0,71,64,
3,5939568,Control_c,0,74,94,
3,5939690,Control_c,0,71,64,
3,5940048,Control_c,0,74,94,
3,5940170,Control_c,0,71,64,
3,5940528,Control_c,0,74,94,
3,5940650,Control_c,0,71,64,
3,5941008,Control_c,0,74,94,
3,5941130,Control_c,0,71,64,
3,5941488,Control_c,0,74,94,
3,5941610,Control_c,0,71,64,
3,5941968,Control_c,0,74,94,
3,5942090,Control_c,0,71,65,
3,5942448,Control_c,0,74,94,
3,5942570,Control_c,0,71,65,
3,5942928,Control_c,0,74,94,
3,5943050,Control_c,0,71,65,
3,5943408,Control_c,0,74,94,
3,5943530,Control_c,0,71,65,
3,5943888,Control_c,0,74,94,
3,5944010,Control_c,0,71,65,
3,5944320,Note_off_c,0,71,0,
3,5944320,Note_on_c,0,66,58,
3,5944368,Control_c,0,74,94,
3,5944490,Control_c,0,71,65,
3,5944848,Control_c,0,74,94,
3,5944970,Control_c,0,71,65,
3,5945328,Control_c,0,74,94,
3,5945450,Control_c,0,71,65,
3,5945808,Control_c,0,74,94,
3,5945930,Control_c,0,71,65,
3,5946288,Control_c,0,74,94,
3,5946410,Control_c,0,71,65,
3,5946768,Control_c,0,74,95,
3,5946890,Control_c,0,71,65,
3,5947248,Control_c,0,74,95,
3,5947370,Control_c,0,71,65,
3,5947728,Control_c,0,74,95,
3,5947850,Control_c,0,71,65,
3,5948208,Control_c,0,74,95,
3,5948330,Control_c,0,71,65,
3,5948688,Control_c,0,74,95,
3,5948810,Control_c,0,71,65,
3,5949168,Control_c,0,74,95,
3,5949290,Control_c,0,71,65,
3,5949648,Control_c,0,74,95,
3,5949770,Control_c,0,71,65,
3,5950128,Control_c,0,74,95,
3,5950250,Control_c,0,71,65,
3,5950608,Control_c,0,74,95,
3,5950730,Control_c,0,71,65,
3,5951088,Control_c,0,74,95,
3,5951210,Control_c,0,71,65,
3,5951568,Control_c,0,74,95,
3,5951690,Control_c,0,71,65,
3,5952000,Note_off_c,0,66,0,
3,5952000,Note_on_c,0,68,39,
3,5952048,Control_c,0,74,95,
3,5952170,Control_c,0,71,65,
3,5952528,Control_c,0,74,95,
3,5952650,Control_c,0,71,65,
3,5953008,Control_c,0,74,95,
3,5953130,Control_c,0,71,65,
3,5953488,Control_c,0,74,95,
3,5953610,Control_c,0,71,65,
3,5953968,Control_c,0,74,95,
3,5954090,Control_c,0,71,65,
3,5954448,Control_c,0,74,95,
3,5954570,Control_c,0,71,65,
3,5954928,Control_c,0,74,95,
3,5955050,Control_c,0,71,65,
3,5955408,Control_c,0,74,95,
3,5955530,Control_c,0,71,65,
3,5955888,Control_c,0,74,95,
3,5956010,Control_c,0,71,65,
3,5956368,Control_c,0,74,95,
3,5956490,Control_c,0,71,65,
3,5956848,Control_c,0,74,95,
3,5956970,Control_c,0,71,65,
3,5957328,Control_c,0,74,95,
3,5957450,Control_c,0,71,65,
3,5957808,Control_c,0,74,95,
3,5957930,Control_c,0,71,65,
3,5958288,Control_c,0,74,95,
3,5958410,Control_c,0,71,65,
3,5958768,Control_c,0,74,95,
3,5958890,Control_c,0,71,65,
3,5959248,Control_c,0,74,95,
3,5959370,Control_c,0,71,65,
3,5959680,Note_off_c,0,68,0,
3,5959680,Note_on_c,0,69,73,
3,5959728,Control_c,0,74,95,
3,5959850,Control_c,0,71,66,
3,5960208,Control_c,0,74,95,
3,5960330,Control_c,0,71,66,
3,5960688,Control_c,0,74,95,
3,5960810,Control_c,0,71,66,
3,5961168,Control_c,0,74,96,
3,5961290,Control_c,0,71,66,
3,5961648,Control_c,0,74,96,
3,5961770,Control_c,0,71,66,
3,5962128,Control_c,0,74,96,
3,5962250,Control_c,0,71,66,
3,5962608,Control_c,0,74,96,
3,5962730,Control_c,0,71,66,
3,5963088,Control_c,0,74,96,
3,5963210,Control_c,0,71,66,
3,5963568,Control_c,0,74,96,
3,5963690,Control_c,0,71,66,
3,5964048,Control_c,0,74,96,
3,5964170,Control_c,0,71,66,
3,5964528,Control_c,0,74,96,
3,5964650,Control_c,0,71,66,
3,5965008,Control_c,0,74,96,
3,5965130,Control_c,0,71,66,
3,5965488,Control_c,0,74,96,
3,5965610,Control_c,0,71,66,
3,5965968,Control_c,0,74,96,
3,5966090,Control_c,0,71,66,
3,5966448,Control_c,0,74,96,
3,5966570,Control_c,0,71,66,
3,5966928,Control_c,0,74,96,
3,5967050,Control_c,0,71,66,
3,5967360,Note_off_c,0,69,0,
3,5967360,Note_on_c,0,73,85,
3,5967408,Control_c,0,74,96,
3,5967530,Control_c,0,71,66,
3,5967888,Control_c,0,74,96,
3,5968010,Control_c,0,71,66,
3,5968368,Control_c,0,74,96,
3,5968490,Control_c,0,71,66,
3,5968848,Control_c,0,74,96,
3,5968970,Control_c,0,71,66,
3,5969328,Control_c,0,74,96,
3,5969450,Control_c,0,71,66,
3,5969808,Control_c,0,74,96,
3,5969930,Control_c,0,71,66,
3,5970288,Control_c,0,74,96,
3,5970410,Control_c,0,71,66,
3,5970768,Control_c,0,74,96,
3,5970890,Control_c,0,71,66,
3,5971248,Control_c,0,74,96,
3,5971370,Control_c,0,71,66,
3,5971728,Control_c,0,74,96,
3,5971850,Control_c,0,71,66,
3,5972208,Control_c,0,74,96,
3,5972330,Control_c,0,71,66,
3,5972688,Control_c,0,74,96,
3,5972810,Control_c,0,71,66,
3,5973168,Control_c,0,74,96,
3,5973290,Control_c,0,71,66,
3,5973648,Control_c,0,74,96,
3,5973770,Control_c,0,71,66,
3,5974128,Control_c,0,74,96,
3,5974250,Control_c,0,71,66,
3,5974608,Control_c,0,74,96,
3,5974730,Control_c,0,71,66,
3,5975040,Note_off_c,0,54,0,
3,5975040,Note_off_c,0,73,0,
3,5975040,Note_on_c,0,49,99,
3,5975040,Note_on_c,0,61,44,
3,5975040,Control_c,0,74,97,
3,5975210,Control_c,0,71,66,
3,5975520,Control_c,0,74,97,
3,5975690,Control_c,0,71,66,
3,5976000,Control_c,0,74,97,
3,5976170,Control_c,0,71,66,
3,5976480,Control_c,0,74,97,
3,5976650,Control_c,0,71,66,
3,5976960,Control_c,0,74,97,
3,5977130,Control_c,0,71,67,
3,5977440,Control_c,0,74,97,
3,5977610,Control_c,0,71,67,
3,5977920,Control_c,0,74,97,
3,5978090,Control_c,0,71,67,
3,5978400,Control_c,0,74,97,
3,5978570,Control_c,0,71,67,
3,5978880,Control_c,0,74,97,
3,5979050,Control_c,0,71,67,
3,5979360,Control_c,0,74,97,
3,5979530,Control_c,0,71,67,
3,5979840,Control_c,0,74,97,
3,5980010,Control_c,0,71,67,
3,5980320,Control_c,0,74,97,
3,5980490,Control_c,0,71,67,
3,5980800,Control_c,0,74,97,
3,5980970,Control_c,0,71,67,
3,5981280,Control_c,0,74,97,
3,5981450,Control_c,0,71,67,
3,5981760,Control_c,0,74,97,
3,5981930,Control_c,0,71,67,
3,5982240,Control_c,0,74,97,
3,5982410,Control_c,0,71,67,
3,5982720,Note_off_c,0,61,0,
3,5982720,Note_on_c,0,63,20,
3,5982720,Control_c,0,74,97,
3,5982890,Control_c,0,71,67,
3,5983200,Control_c,0,74,97,
3,5983370,Control_c,0,71,67,
3,5983680,Control_c,0,74,97,
3,5983850,Control_c,0,71,67,
3,5984160,Control_c,0,74,97,
3,5984330,Control_c,0,71,67,
3,5984640,Control_c,0,74,97,
3,5984810,Control_c,0,71,67,
3,5985120,Control_c,0,74,97,
3,5985290,Control_c,0,71,67,
3,5985600,Control_c,0,74,97,
3,5985770,Control_c,0,71,67,
3,5986080,Control_c,0,74,97,
3,5986250,Control_c,0,71,67,
3,5986560,Control_c,0,74,97,
3,5986730,Control_c,0,71,67,
3,5987040,Control_c,0,74,97,
3,5987210,Control_c,0,71,67,
3,5987520,Control_c,0,74,97,
3,5987690,Control_c,0,71,67,
3,5988000,Control_c,0,74,97,
3,5988170,Control_c,0,71,67,
3,5988480,Control_c,0,74,97,
3,5988650,Control_c,0,71,67,
3,5988960,Control_c,0,74,97,
3,5989130,Control_c,0,71,67,
3,5989440,Control_c,0,74,97,
3,5989610,Control_c,0,71,67,
3,5989920,Control_c,0,74,97,
3,5990090,Control_c,0,71,67,
3,5990400,Note_off_c,0,63,0,
3,5990400,Note_on_c,0,64,54,
3,5990400,Control_c,0,74,97,
3,5990570,Control_c,0,71,67,
3,5990880,Control_c,0,74,97,
3,5991050,Control_c,0,71,67,
3,5991360,Control_c,0,74,97,
3,5991530,Control_c,0,71,67,
3,5991840,Control_c,0,74,97,
3,5992010,Control_c,0,71,67,
3,5992320,Control_c,0,74,97,
3,5992490,Control_c,0,71,67,
3,5992800,Control_c,0,74,97,
3,5992970,Control_c,0,71,67,
3,5993280,Control_c,0,74,97,
3,5993450,Control_c,0,71,67,
3,5993760,Control_c,0,74,97,
3,5993930,Control_c,0,71,67,
3,5994240,Control_c,0,74,97,
3,5994410,Control_c,0,71,68,
3,5994720,Control_c,0,74,97,
3,5994890,Control_c,0,71,68,
3,5995200,Control_c,0,74,97,
3,5995370,Control_c,0,71,68,
3,5995680,Control_c,0,74,97,
3,5995850,Control_c,0,71,68,
3,5996160,Control_c,0,74,97,
3,5996330,Control_c,0,71,68,
3,5996640,Control_c,0,74,97,
3,5996810,Control_c,0,71,68,
3,5997120,Control_c,0,74,97,
3,5997290,Control_c,0,71,68,
3,5997600,Control_c,0,74,97,
3,5997770,Control_c,0,71,68,
3,5998080,Note_off_c,0,64,0,
3,5998080,Note_on_c,0,66,34,
3,5998080,Control_c,0,74,97,
3,5998250,Control_c,0,71,68,
3,5998560,Control_c,0,74,97,
3,5998730,Control_c,0,71,68,
3,5999040,Control_c,0,74,97,
3,5999210,Control_c,0,71,68,
3,5999520,Control_c,0,74,97,
3,5999690,Control_c,0,71,68,
3,6000000,Control_c,0,74,97,
3,6000170,Control_c,0,71,68,
3,6000480,Control_c,0,74,97,
3,6000650,Control_c,0,71,68,
3,6000960,Control_c,0,74,97,
3,6001130,Control_c,0,71,68,
3,6001440,Control_c,0,74,98,
3,6001610,Control_c,0,71,68,
3,6001920,Control_c,0,74,98,
3,6002090,Control_c,0,71,68,
3,6002400,Control_c,0,74,98,
3,6002570,Control_c,0,71,68,
3,6002880,Control_c,0,74,98,
3,6003050,Control_c,0,71,68,
3,6003360,Control_c,0,74,98,
3,6003530,Control_c,0,71,68,
3,6003840,Control_c,0,74,98,
3,6004010,Control_c,0,71,68,
3,6004320,Control_c,0,74,98,
3,6004490,Control_c,0,71,68,
3,6004800,Control_c,0,74,98,
3,6004970,Control_c,0,71,68,
3,6005280,Control_c,0,74,98,
3,6005450,Control_c,0,71,68,
3,6005760,Note_off_c,0,66,0,
3,6005760,Note_on_c,0,61,76,
3,6005760,Control_c,0,74,98,
3,6005930,Control_c,0,71,68,
3,6006240,Control_c,0,74,98,
3,6006410,Control_c,0,71,68,
3,6006720,Control_c,0,74,98,
3,6006890,Control_c,0,71,68,
3,6007200,Control_c,0,74,98,
3,6007370,Control_c,0,71,68,
3,6007680,Control_c,0,74,98,
3,6007850,Control_c,0,71,68,
3,6008160,Control_c,0,74,98,
3,6008330,Control_c,0,71,68,
3,6008640,Control_c,0,74,98,
3,6008810,Control_c,0,71,68,
3,6009120,Control_c,0,74,98,
3,6009290,Control_c,0,71,68,
3,6009600,Control_c,0,74,98,
3,6009770,Control_c,0,71,68,
3,6010080,Control_c,0,74,98,
3,6010250,Control_c,0,71,68,
3,6010560,Control_c,0,74,98,
3,6010730,Control_c,0,71,68,
3,6011040,Control_c,0,74,98,
3,6011210,Control_c,0,71,68,
3,6011520,Control_c,0,74,98,
3,6011690,Control_c,0,71,68,
3,6012000,Control_c,0,74,98,
3,6012170,Control_c,0,71,69,
3,6012480,Control_c,0,74,98,
3,6012650,Control_c,0,71,69,
3,6012960,Control_c,0,74,98,
3,6013130,Control_c,0,71,69,
3,6013440,Note_off_c,0,61,0,
3,6013440,Note_on_c,0,63,47,
3,6013440,Control_c,0,74,98,
3,6013610,Control_c,0,71,69,
3,6013920,Control_c,0,74,98,
3,6014090,Control_c,0,71,69,
3,6014400,Control_c,0,74,98,
3,6014570,Control_c,0,71,69,
3,6014880,Control_c,0,74,98,
3,6015050,Control_c,0,71,69,
3,6015360,Control_c,0,74,98,
3,6015530,Control_c,0,71,69,
3,6015840,Control_c,0,74,98,
3,6016010,Control_c,0,71,69,
3,6016320,Control_c,0,74,98,
3,6016490,Control_c,0,71,69,
3,6016800,Control_c,0,74,98,
3,6016970,Control_c,0,71,69,
3,6017280,Control_c,0,74,98,
3,6017450,Control_c,0,71,69,
3,6017760,Control_c,0,74,98,
3,6017930,Control_c,0,71,69,
3,6018240,Control_c,0,74,98,
3,6018410,Control_c,0,71,69,
3,6018720,Control_c,0,74,98,
3,6018890,Control_c,0,71,69,
3,6019200,Control_c,0,74,98,
3,6019370,Control_c,0,71,69,
3,6019680,Control_c,0,74,98,
3,6019850,Control_c,0,71,69,
3,6020160,Control_c,0,74,98,
3,6020330,Control_c,0,71,69,
3,6020640,Control_c,0,74,98,
3,6020810,Control_c,0,71,69,
3,6021120,Note_off_c,0,63,0,
3,6021120,Note_on_c,0,64,50,
3,6021120,Control_c,0,74,98,
3,6021290,Control_c,0,71,69,
3,6021600,Control_c,0,74,98,
3,6021770,Control_c,0,71,69,
3,6022080,Control_c,0,74,98,
3,6022250,Control_c,0,71,69,
3,6022560,Control_c,0,74,98,
3,6022730,Control_c,0,71,69,
3,6023040,Control_c,0,74,98,
3,6023210,Control_c,0,71,69,
3,6023520,Control_c,0,74,98,
3,6023690,Control_c,0,71,69,
3,6024000,Control_c,0,74,98,
3,6024170,Control_c,0,71,69,
3,6024480,Control_c,0,74,98,
3,6024650,Control_c,0,71,69,
3,6024960,Control_c,0,74,98,
3,6025130,Control_c,0,71,69,
3,6025440,Control_c,0,74,98,
3,6025610,Control_c,0,71,69,
3,6025920,Control_c,0,74,98,
3,6026090,Control_c,0,71,69,
3,6026400,Control_c,0,74,98,
3,6026570,Control_c,0,71,69,
3,6026880,Control_c,0,74,98,
3,6027050,Control_c,0,71,69,
3,6027360,Control_c,0,74,98,
3,6027530,Control_c,0,71,69,
3,6027840,Control_c,0,74,99,
3,6028010,Control_c,0,71,69,
3,6028320,Control_c,0,74,99,
3,6028490,Control_c,0,71,69,
3,6028800,Note_off_c,0,64,0,
3,6028800,Note_on_c,0,68,54,
3,6028800,Control_c,0,74,99,
3,6028970,Control_c,0,71,69,
3,6029280,Control_c,0,74,99,
3,6029450,Control_c,0,71,70,
3,6029760,Control_c,0,74,99,
3,6029930,Control_c,0,71,70,
3,6030240,Control_c,0,74,99,
3,6030410,Control_c,0,71,70,
3,6030720,Control_c,0,74,99,
3,6030890,Control_c,0,71,70,
3,6031200,Control_c,0,74,99,
3,6031370,Control_c,0,71,70,
3,6031680,Control_c,0,74,99,
3,6031850,Control_c,0,71,70,
3,6032160,Control_c,0,74,99,
3,6032330,Control_c,0,71,70,
3,6032640,Control_c,0,74,99,
3,6032810,Control_c,0,71,70,
3,6033120,Control_c,0,74,99,
3,6033290,Control_c,0,71,70,
3,6033600,Control_c,0,74,99,
3,6033770,Control_c,0,71,70,
3,6034080,Control_c,0,74,99,
3,6034250,Control_c,0,71,70,
3,6034560,Control_c,0,74,99,
3,6034730,Control_c,0,71,70,
3,6035040,Control_c,0,74,99,
3,6035210,Control_c,0,71,70,
3,6035520,Control_c,0,74,99,
3,6035690,Control_c,0,71,70,
3,6036000,Control_c,0,74,99,
3,6036170,Control_c,0,71,70,
3,6036480,Note_off_c,0,68,0,
3,6036480,Note_on_c,0,61,85,
3,6036480,Control_c,0,74,99,
3,6036650,Control_c,0,71,70,
3,6036960,Control_c,0,74,99,
3,6037130,Control_c,0,71,70,
3,6037440,Control_c,0,74,99,
3,6037610,Control_c,0,71,70,
3,6037920,Control_c,0,74,99,
3,6038090,Control_c,0,71,70,
3,6038400,Control_c,0,74,99,
3,6038570,Control_c,0,71,70,
3,6038880,Control_c,0,74,99,
3,6039050,Control_c,0,71,70,
3,6039360,Control_c,0,74,99,
3,6039530,Control_c,0,71,70,
3,6039840,Control_c,0,74,99,
3,6040010,Control_c,0,71,70,
3,6040320,Control_c,0,74,99,
3,6040490,Control_c,0,71,70,
3,6040800,Control_c,0,74,99,
3,6040970,Control_c,0,71,70,
3,6041280,Control_c,0,74,99,
3,6041450,Control_c,0,71,70,
3,6041760,Control_c,0,74,99,
3,6041930,Control_c,0,71,70,
3,6042240,Control_c,0,74,99,
3,6042410,Control_c,0,71,70,
3,6042720,Control_c,0,74,99,
3,6042890,Control_c,0,71,70,
3,6043200,Control_c,0,74,99,
3,6043370,Control_c,0,71,70,
3,6043680,Control_c,0,74,99,
3,6043850,Control_c,0,71,70,
3,6044160,Note_off_c,0,61,0,
3,6044160,Note_on_c,0,63,50,
3,6044160,Control_c,0,74,99,
3,6044330,Control_c,0,71,70,
3,6044640,Control_c,0,74,99,
3,6044810,Control_c,0,71,70,
3,6045120,Control_c,0,74,99,
3,6045290,Control_c,0,71,70,
3,6045600,Control_c,0,74,99,
3,6045770,Control_c,0,71,70,
3,6046080,Control_c,0,74,99,
3,6046250,Control_c,0,71,70,
3,6046560,Control_c,0,74,99,
3,6046730,Control_c,0,71,70,
3,6047040,Control_c,0,74,99,
3,6047210,Control_c,0,71,71,
3,6047520,Control_c,0,74,99,
3,6047690,Control_c,0,71,71,
3,6048000,Control_c,0,74,99,
3,6048170,Control_c,0,71,71,
3,6048480,Control_c,0,74,99,
3,6048650,Control_c,0,71,71,
3,6048960,Control_c,0,74,99,
3,6049130,Control_c,0,71,71,
3,6049440,Control_c,0,74,99,
3,6049610,Control_c,0,71,71,
3,6049920,Control_c,0,74,99,
3,6050090,Control_c,0,71,71,
3,6050400,Control_c,0,74,99,
3,6050570,Control_c,0,71,71,
3,6050880,Control_c,0,74,99,
3,6051050,Control_c,0,71,71,
3,6051360,Control_c,0,74,99,
3,6051530,Control_c,0,71,71,
3,6051840,Note_off_c,0,63,0,
3,6051840,Note_on_c,0,64,45,
3,6051840,Control_c,0,74,99,
3,6052010,Control_c,0,71,71,
3,6052320,Control_c,0,74,99,
3,6052490,Control_c,0,71,71,
3,6052800,Control_c,0,74,99,
3,6052970,Control_c,0,71,71,
3,6053280,Control_c,0,74,99,
3,6053450,Control_c,0,71,71,
3,6053760,Control_c,0,74,99,
3,6053930,Control_c,0,71,71,
3,6054240,Control_c,0,74,100,
3,6054410,Control_c,0,71,71,
3,6054720,Control_c,0,74,100,
3,6054890,Control_c,0,71,71,
3,6055200,Control_c,0,74,100,
3,6055370,Control_c,0,71,71,
3,6055680,Control_c,0,74,100,
3,6055850,Control_c,0,71,71,
3,6056160,Control_c,0,74,100,
3,6056330,Control_c,0,71,71,
3,6056640,Control_c,0,74,100,
3,6056810,Control_c,0,71,71,
3,6057120,Control_c,0,74,100,
3,6057290,Control_c,0,71,71,
3,6057600,Control_c,0,74,100,
3,6057770,Control_c,0,71,71,
3,6058080,Control_c,0,74,100,
3,6058250,Control_c,0,71,71,
3,6058560,Control_c,0,74,100,
3,6058730,Control_c,0,71,71,
3,6059040,Control_c,0,74,100,
3,6059210,Control_c,0,71,71,
3,6059520,Note_off_c,0,64,0,
3,6059520,Note_on_c,0,66,61,
3,6059520,Control_c,0,74,100,
3,6059690,Control_c,0,71,71,
3,6060000,Control_c,0,74,100,
3,6060170,Control_c,0,71,71,
3,6060480,Control_c,0,74,100,
3,6060650,Control_c,0,71,71,
3,6060960,Control_c,0,74,100,
3,6061130,Control_c,0,71,71,
3,6061440,Control_c,0,74,100,
3,6061610,Control_c,0,71,71,
3,6061920,Control_c,0,74,100,
3,6062090,Control_c,0,71,71,
3,6062400,Control_c,0,74,100,
3,6062570,Control_c,0,71,71,
3,6062880,Control_c,0,74,100,
3,6063050,Control_c,0,71,71,
3,6063360,Control_c,0,74,100,
3,6063530,Control_c,0,71,71,
3,6063840,Control_c,0,74,100,
3,6064010,Control_c,0,71,71,
3,6064320,Control_c,0,74,100,
3,6064490,Control_c,0,71,72,
3,6064800,Control_c,0,74,100,
3,6064970,Control_c,0,71,72,
3,6065280,Control_c,0,74,100,
3,6065450,Control_c,0,71,72,
3,6065760,Control_c,0,74,100,
3,6065930,Control_c,0,71,72,
3,6066240,Control_c,0,74,100,
3,6066410,Control_c,0,71,72,
3,6066720,Control_c,0,74,100,
3,6066890,Control_c,0,71,72,
3,6067200,Note_off_c,0,66,0,
3,6067200,Note_on_c,0,61,48,
3,6067200,Control_c,0,74,100,
3,6067370,Control_c,0,71,72,
3,6067680,Control_c,0,74,100,
3,6067850,Control_c,0,71,72,
3,6068160,Control_c,0,74,100,
3,6068330,Control_c,0,71,72,
3,6068640,Control_c,0,74,100,
3,6068810,Control_c,0,71,72,
3,6069120,Control_c,0,74,100,
3,6069290,Control_c,0,71,72,
3,6069600,Control_c,0,74,100,
3,6069770,Control_c,0,71,72,
3,6070080,Control_c,0,74,100,
3,6070250,Control_c,0,71,72,
3,6070560,Control_c,0,74,100,
3,6070730,Control_c,0,71,72,
3,6071040,Control_c,0,74,100,
3,6071210,Control_c,0,71,72,
3,6071520,Control_c,0,74,100,
3,6071690,Control_c,0,71,72,
3,6072000,Control_c,0,74,100,
3,6072170,Control_c,0,71,72,
3,6072480,Control_c,0,74,100,
3,6072650,Control_c,0,71,72,
3,6072960,Control_c,0,74,100,
3,6073130,Control_c,0,71,72,
3,6073440,Control_c,0,74,100,
3,6073610,Control_c,0,71,72,
3,6073920,Control_c,0,74,100,
3,6074090,Control_c,0,71,72,
3,6074400,Control_c,0,74,100,
3,6074570,Control_c,0,71,72,
3,6074880,Note_off_c,0,61,0,
3,6074880,Note_on_c,0,63,44,
3,6074880,Control_c,0,74,100,
3,6075050,Control_c,0,71,72,
3,6075360,Control_c,0,74,100,
3,6075530,Control_c,0,71,72,
3,6075840,Control_c,0,74,100,
3,6076010,Control_c,0,71,72,
3,6076320,Control_c,0,74,100,
3,6076490,Control_c,0,71,72,
3,6076800,Control_c,0,74,100,
3,6076970,Control_c,0,71,72,
3,6077280,Control_c,0,74,100,
3,6077450,Control_c,0,71,72,
3,6077760,Control_c,0,74,100,
3,6077930,Control_c,0,71,72,
3,6078240,Control_c,0,74,100,
3,6078410,Control_c,0,71,72,
3,6078720,Control_c,0,74,100,
3,6078890,Control_c,0,71,72,
3,6079200,Control_c,0,74,100,
3,6079370,Control_c,0,71,72,
3,6079680,Control_c,0,74,100,
3,6079850,Control_c,0,71,72,
3,6080160,Control_c,0,74,100,
3,6080330,Control_c,0,71,72,
3,6080640,Control_c,0,74,101,
3,6080810,Control_c,0,71,72,
3,6081120,Control_c,0,74,101,
3,6081290,Control_c,0,71,72,
3,6081600,Control_c,0,74,101,
3,6081668,Control_c,0,71,73,
3,6082080,Control_c,0,74,101,
3,6082148,Control_c,0,71,73,
3,6082560,Note_off_c,0,63,0,
3,6082560,Note_on_c,0,64,58,
3,6082560,Control_c,0,74,101,
3,6082628,Control_c,0,71,73,
3,6083040,Control_c,0,74,101,
3,6083108,Control_c,0,71,73,
3,6083520,Control_c,0,74,101,
3,6083588,Control_c,0,71,73,
3,6084000,Control_c,0,74,101,
3,6084068,Control_c,0,71,73,
3,6084480,Control_c,0,74,101,
3,6084548,Control_c,0,71,73,
3,6084960,Control_c,0,74,101,
3,6085028,Control_c,0,71,73,
3,6085440,Control_c,0,74,101,
3,6085508,Control_c,0,71,73,
3,6085920,Control_c,0,74,101,
3,6085988,Control_c,0,71,73,
3,6086400,Control_c,0,74,101,
3,6086468,Control_c,0,71,73,
3,6086880,Control_c,0,74,101,
3,6086948,Control_c,0,71,73,
3,6087360,Control_c,0,74,101,
3,6087428,Control_c,0,71,73,
3,6087840,Control_c,0,74,101,
3,6087908,Control_c,0,71,73,
3,6088320,Control_c,0,74,101,
3,6088388,Control_c,0,71,73,
3,6088800,Control_c,0,74,101,
3,6088868,Control_c,0,71,73,
3,6089280,Control_c,0,74,101,
3,6089348,Control_c,0,71,73,
3,6089760,Control_c,0,74,101,
3,6089828,Control_c,0,71,73,
3,6090240,Note_off_c,0,64,0,
3,6090240,Note_on_c,0,68,69,
3,6090240,Control_c,0,74,101,
3,6090308,Control_c,0,71,73,
3,6090720,Control_c,0,74,101,
3,6090788,Control_c,0,71,73,
3,6091200,Control_c,0,74,101,
3,6091268,Control_c,0,71,74,
3,6091680,Control_c,0,74,101,
3,6091748,Control_c,0,71,74,
3,6092160,Control_c,0,74,101,
3,6092228,Control_c,0,71,74,
3,6092640,Control_c,0,74,101,
3,6092708,Control_c,0,71,74,
3,6093120,Control_c,0,74,101,
3,6093188,Control_c,0,71,74,
3,6093600,Control_c,0,74,101,
3,6093668,Control_c,0,71,74,
3,6094080,Control_c,0,74,101,
3,6094148,Control_c,0,71,74,
3,6094560,Control_c,0,74,101,
3,6094628,Control_c,0,71,74,
3,6095040,Control_c,0,74,101,
3,6095108,Control_c,0,71,74,
3,6095520,Control_c,0,74,101,
3,6095588,Control_c,0,71,74,
3,6096000,Control_c,0,74,101,
3,6096068,Control_c,0,71,74,
3,6096480,Control_c,0,74,101,
3,6096548,Control_c,0,71,74,
3,6096960,Control_c,0,74,101,
3,6097028,Control_c,0,71,74,
3,6097440,Control_c,0,74,101,
3,6097508,Control_c,0,71,74,
3,6097920,Note_off_c,0,49,0,
3,6097920,Note_off_c,0,68,0,
3,6097920,Note_on_c,0,50,75,
3,6097920,Note_on_c,0,62,61,
3,6097920,Control_c,0,74,101,
3,6097988,Control_c,0,71,74,
3,6098400,Control_c,0,74,101,
3,6098468,Control_c,0,71,74,
3,6098880,Control_c,0,74,101,
3,6098948,Control_c,0,71,74,
3,6099360,Control_c,0,74,101,
3,6099428,Control_c,0,71,74,
3,6099840,Control_c,0,74,101,
3,6099908,Control_c,0,71,74,
3,6100320,Control_c,0,74,101,
3,6100388,Control_c,0,71,74,
3,6100800,Control_c,0,74,101,
3,6100868,Control_c,0,71,75,
3,6101280,Control_c,0,74,101,
3,6101348,Control_c,0,71,75,
3,6101760,Control_c,0,74,101,
3,6101828,Control_c,0,71,75,
3,6102240,Control_c,0,74,101,
3,6102308,Control_c,0,71,75,
3,6102720,Control_c,0,74,101,
3,6102788,Control_c,0,71,75,
3,6103200,Control_c,0,74,101,
3,6103268,Control_c,0,71,75,
3,6103680,Control_c,0,74,101,
3,6103748,Control_c,0,71,75,
3,6104160,Control_c,0,74,101,
3,6104228,Control_c,0,71,75,
3,6104640,Control_c,0,74,101,
3,6104708,Control_c,0,71,75,
3,6105120,Control_c,0,74,101,
3,6105188,Control_c,0,71,75,
3,6105600,Note_off_c,0,62,0,
3,6105600,Note_on_c,0,64,38,
3,6105600,Control_c,0,74,101,
3,6105668,Control_c,0,71,75,
3,6106080,Control_c,0,74,101,
3,6106148,Control_c,0,71,75,
3,6106560,Control_c,0,74,101,
3,6106628,Control_c,0,71,75,
3,6107040,Control_c,0,74,102,
3,6107108,Control_c,0,71,75,
3,6107520,Control_c,0,74,102,
3,6107588,Control_c,0,71,75,
3,6108000,Control_c,0,74,102,
3,6108068,Control_c,0,71,75,
3,6108480,Control_c,0,74,102,
3,6108548,Control_c,0,71,75,
3,6108960,Control_c,0,74,102,
3,6109028,Control_c,0,71,75,
3,6109440,Control_c,0,74,102,
3,6109508,Control_c,0,71,75,
3,6109920,Control_c,0,74,102,
3,6109988,Control_c,0,71,75,
3,6110400,Control_c,0,74,102,
3,6110468,Control_c,0,71,76,
3,6110880,Control_c,0,74,102,
3,6110948,Control_c,0,71,76,
3,6111360,Control_c,0,74,102,
3,6111428,Control_c,0,71,76,
3,6111840,Control_c,0,74,102,
3,6111908,Control_c,0,71,76,
3,6112320,Control_c,0,74,102,
3,6112388,Control_c,0,71,76,
3,6112800,Control_c,0,74,102,
3,6112868,Control_c,0,71,76,
3,6113280,Note_off_c,0,64,0,
3,6113280,Note_on_c,0,66,47,
3,6113280,Control_c,0,74,102,
3,6113348,Control_c,0,71,76,
3,6113760,Control_c,0,74,102,
3,6113828,Control_c,0,71,76,
3,6114240,Control_c,0,74,102,
3,6114308,Control_c,0,71,76,
3,6114720,Control_c,0,74,102,
3,6114788,Control_c,0,71,76,
3,6115200,Control_c,0,74,102,
3,6115268,Control_c,0,71,76,
3,6115680,Control_c,0,74,102,
3,6115748,Control_c,0,71,76,
3,6116160,Control_c,0,74,102,
3,6116228,Control_c,0,71,76,
3,6116640,Control_c,0,74,102,
3,6116708,Control_c,0,71,76,
3,6117120,Control_c,0,74,102,
3,6117188,Control_c,0,71,76,
3,6117600,Control_c,0,74,102,
3,6117668,Control_c,0,71,76,
3,6118080,Control_c,0,74,102,
3,6118148,Control_c,0,71,76,
3,6118560,Control_c,0,74,102,
3,6118628,Control_c,0,71,76,
3,6119040,Control_c,0,74,102,
3,6119108,Control_c,0,71,76,
3,6119520,Control_c,0,74,102,
3,6119588,Control_c,0,71,76,
3,6120000,Control_c,0,74,102,
3,6120068,Control_c,0,71,77,
3,6120480,Control_c,0,74,102,
3,6120548,Control_c,0,71,77,
3,6120960,Note_off_c,0,66,0,
3,6120960,Note_on_c,0,68,49,
3,6120960,Control_c,0,74,102,
3,6121028,Control_c,0,71,77,
3,6121440,Control_c,0,74,102,
3,6121508,Control_c,0,71,77,
3,6121920,Control_c,0,74,102,
3,6121988,Control_c,0,71,77,
3,6122400,Control_c,0,74,102,
3,6122468,Control_c,0,71,77,
3,6122880,Control_c,0,74,102,
3,6122948,Control_c,0,71,77,
3,6123360,Control_c,0,74,102,
3,6123428,Control_c,0,71,77,
3,6123840,Control_c,0,74,102,
3,6123908,Control_c,0,71,77,
3,6124320,Control_c,0,74,102,
3,6124388,Control_c,0,71,77,
3,6124800,Control_c,0,74,102,
3,6124868,Control_c,0,71,77,
3,6125280,Control_c,0,74,102,
3,6125348,Control_c,0,71,77,
3,6125760,Control_c,0,74,102,
3,6125828,Control_c,0,71,77,
3,6126240,Control_c,0,74,102,
3,6126308,Control_c,0,71,77,
3,6126720,Control_c,0,74,102,
3,6126788,Control_c,0,71,77,
3,6127200,Control_c,0,74,102,
3,6127268,Control_c,0,71,77,
3,6127680,Control_c,0,74,102,
3,6127748,Control_c,0,71,77,
3,6128160,Control_c,0,74,102,
3,6128228,Control_c,0,71,77,
3,6128640,Note_off_c,0,68,0,
3,6128640,Note_on_c,0,62,60,
3,6128640,Control_c,0,74,102,
3,6128708,Control_c,0,71,77,
3,6129120,Control_c,0,74,102,
3,6129188,Control_c,0,71,77,
3,6129600,Control_c,0,74,102,
3,6129668,Control_c,0,71,78,
3,6130080,Control_c,0,74,102,
3,6130148,Control_c,0,71,78,
3,6130560,Control_c,0,74,102,
3,6130628,Control_c,0,71,78,
3,6131040,Control_c,0,74,102,
3,6131108,Control_c,0,71,78,
3,6131520,Control_c,0,74,102,
3,6131588,Control_c,0,71,78,
3,6132000,Control_c,0,74,102,
3,6132068,Control_c,0,71,78,
3,6132480,Control_c,0,74,102,
3,6132548,Control_c,0,71,78,
3,6132960,Control_c,0,74,102,
3,6133028,Control_c,0,71,78,
3,6133440,Control_c,0,74,103,
3,6133508,Control_c,0,71,78,
3,6133920,Control_c,0,74,103,
3,6133988,Control_c,0,71,78,
3,6134400,Control_c,0,74,103,
3,6134468,Control_c,0,71,78,
3,6134880,Control_c,0,74,103,
3,6134948,Control_c,0,71,78,
3,6135360,Control_c,0,74,103,
3,6135428,Control_c,0,71,78,
3,6135840,Control_c,0,74,103,
3,6135908,Control_c,0,71,78,
3,6136320,Note_off_c,0,62,0,
3,6136320,Note_on_c,0,64,36,
3,6136320,Control_c,0,74,103,
3,6136388,Control_c,0,71,78,
3,6136800,Control_c,0,74,103,
3,6136868,Control_c,0,71,78,
3,6137280,Control_c,0,74,103,
3,6137348,Control_c,0,71,78,
3,6137760,Control_c,0,74,103,
3,6137828,Control_c,0,71,78,
3,6138240,Control_c,0,74,103,
3,6138308,Control_c,0,71,78,
3,6138720,Control_c,0,74,103,
3,6138788,Control_c,0,71,78,
3,6139200,Control_c,0,74,103,
3,6139268,Control_c,0,71,79,
3,6139680,Control_c,0,74,103,
3,6139748,Control_c,0,71,79,
3,6140160,Control_c,0,74,103,
3,6140228,Control_c,0,71,79,
3,6140640,Control_c,0,74,103,
3,6140708,Control_c,0,71,79,
3,6141120,Control_c,0,74,103,
3,6141188,Control_c,0,71,79,
3,6141600,Control_c,0,74,103,
3,6141668,Control_c,0,71,79,
3,6142080,Control_c,0,74,103,
3,6142148,Control_c,0,71,79,
3,6142560,Control_c,0,74,103,
3,6142628,Control_c,0,71,79,
3,6143040,Control_c,0,74,103,
3,6143108,Control_c,0,71,79,
3,6143520,Control_c,0,74,103,
3,6143588,Control_c,0,71,79,
3,6144000,Note_off_c,0,64,0,
3,6144000,Note_on_c,0,66,47,
3,6144000,Control_c,0,74,103,
3,6144068,Control_c,0,71,79,
3,6144480,Control_c,0,74,103,
3,6144548,Control_c,0,71,79,
3,6144960,Control_c,0,74,103,
3,6145028,Control_c,0,71,79,
3,6145440,Control_c,0,74,103,
3,6145508,Control_c,0,71,79,
3,6145920,Control_c,0,74,103,
3,6145988,Control_c,0,71,79,
3,6146400,Control_c,0,74,103,
3,6146468,Control_c,0,71,79,
3,6146880,Control_c,0,74,103,
3,6146948,Control_c,0,71,79,
3,6147360,Control_c,0,74,103,
3,6147428,Control_c,0,71,79,
3,6147840,Control_c,0,74,103,
3,6147908,Control_c,0,71,79,
3,6148320,Control_c,0,74,103,
3,6148388,Control_c,0,71,79,
3,6148800,Control_c,0,74,103,
3,6148868,Control_c,0,71,80,
3,6149280,Control_c,0,74,103,
3,6149348,Control_c,0,71,80,
3,6149760,Control_c,0,74,103,
3,6149828,Control_c,0,71,80,
3,6150240,Control_c,0,74,103,
3,6150308,Control_c,0,71,80,
3,6150720,Control_c,0,74,103,
3,6150788,Control_c,0,71,80,
3,6151200,Control_c,0,74,103,
3,6151268,Control_c,0,71,80,
3,6151680,Note_off_c,0,66,0,
3,6151680,Note_on_c,0,69,75,
3,6151680,Control_c,0,74,103,
3,6151748,Control_c,0,71,80,
3,6152160,Control_c,0,74,103,
3,6152228,Control_c,0,71,80,
3,6152640,Control_c,0,74,103,
3,6152708,Control_c,0,71,80,
3,6153120,Control_c,0,74,103,
3,6153188,Control_c,0,71,80,
3,6153600,Control_c,0,74,103,
3,6153668,Control_c,0,71,80,
3,6154080,Control_c,0,74,103,
3,6154148,Control_c,0,71,80,
3,6154560,Control_c,0,74,103,
3,6154628,Control_c,0,71,80,
3,6155040,Control_c,0,74,103,
3,6155108,Control_c,0,71,80,
3,6155520,Control_c,0,74,103,
3,6155588,Control_c,0,71,80,
3,6156000,Control_c,0,74,103,
3,6156068,Control_c,0,71,80,
3,6156480,Control_c,0,74,103,
3,6156548,Control_c,0,71,80,
3,6156960,Control_c,0,74,103,
3,6157028,Control_c,0,71,80,
3,6157440,Control_c,0,74,103,
3,6157508,Control_c,0,71,80,
3,6157920,Control_c,0,74,103,
3,6157988,Control_c,0,71,80,
3,6158400,Control_c,0,74,103,
3,6158468,Control_c,0,71,81,
3,6158880,Control_c,0,74,103,
3,6158948,Control_c,0,71,81,
3,6159360,Note_off_c,0,69,0,
3,6159360,Note_on_c,0,62,79,
3,6159360,Control_c,0,74,104,
3,6159428,Control_c,0,71,81,
3,6159840,Control_c,0,74,103,
3,6159908,Control_c,0,71,81,
3,6160320,Control_c,0,74,103,
3,6160388,Control_c,0,71,81,
3,6160800,Control_c,0,74,103,
3,6160868,Control_c,0,71,81,
3,6161280,Control_c,0,74,103,
3,6161348,Control_c,0,71,81,
3,6161760,Control_c,0,74,103,
3,6161828,Control_c,0,71,81,
3,6162240,Control_c,0,74,103,
3,6162308,Control_c,0,71,81,
3,6162720,Control_c,0,74,103,
3,6162788,Control_c,0,71,81,
3,6163200,Control_c,0,74,103,
3,6163268,Control_c,0,71,81,
3,6163680,Control_c,0,74,103,
3,6163748,Control_c,0,71,81,
3,6164160,Control_c,0,74,103,
3,6164228,Control_c,0,71,81,
3,6164640,Control_c,0,74,103,
3,6164708,Control_c,0,71,81,
3,6165120,Control_c,0,74,103,
3,6165188,Control_c,0,71,81,
3,6165600,Control_c,0,74,103,
3,6165668,Control_c,0,71,81,
3,6166080,Control_c,0,74,103,
3,6166148,Control_c,0,71,81,
3,6166560,Control_c,0,74,103,
3,6166628,Control_c,0,71,81,
3,6167040,Note_off_c,0,62,0,
3,6167040,Note_on_c,0,64,51,
3,6167040,Control_c,0,74,103,
3,6167108,Control_c,0,71,81,
3,6167520,Control_c,0,74,103,
3,6167588,Control_c,0,71,81,
3,6168000,Control_c,0,74,102,
3,6168068,Control_c,0,71,82,
3,6168480,Control_c,0,74,102,
3,6168548,Control_c,0,71,82,
3,6168960,Control_c,0,74,102,
3,6169028,Control_c,0,71,82,
3,6169440,Control_c,0,74,102,
3,6169508,Control_c,0,71,82,
3,6169920,Control_c,0,74,102,
3,6169988,Control_c,0,71,82,
3,6170400,Control_c,0,74,102,
3,6170468,Control_c,0,71,82,
3,6170880,Control_c,0,74,102,
3,6170948,Control_c,0,71,82,
3,6171360,Control_c,0,74,102,
3,6171428,Control_c,0,71,82,
3,6171840,Control_c,0,74,102,
3,6171908,Control_c,0,71,82,
3,6172320,Control_c,0,74,102,
3,6172388,Control_c,0,71,82,
3,6172800,Control_c,0,74,102,
3,6172868,Control_c,0,71,82,
3,6173280,Control_c,0,74,102,
3,6173348,Control_c,0,71,82,
3,6173760,Control_c,0,74,102,
3,6173828,Control_c,0,71,82,
3,6174240,Control_c,0,74,102,
3,6174308,Control_c,0,71,82,
3,6174720,Note_off_c,0,64,0,
3,6174720,Note_on_c,0,66,56,
3,6174720,Control_c,0,74,102,
3,6174788,Control_c,0,71,82,
3,6175200,Control_c,0,74,102,
3,6175268,Control_c,0,71,82,
3,6175680,Control_c,0,74,102,
3,6175748,Control_c,0,71,82,
3,6176160,Control_c,0,74,101,
3,6176228,Control_c,0,71,82,
3,6176640,Control_c,0,74,101,
3,6176708,Control_c,0,71,82,
3,6177120,Control_c,0,74,101,
3,6177188,Control_c,0,71,82,
3,6177600,Control_c,0,74,101,
3,6177668,Control_c,0,71,83,
3,6178080,Control_c,0,74,101,
3,6178148,Control_c,0,71,83,
3,6178560,Control_c,0,74,101,
3,6178628,Control_c,0,71,83,
3,6179040,Control_c,0,74,101,
3,6179108,Control_c,0,71,83,
3,6179520,Control_c,0,74,101,
3,6179588,Control_c,0,71,83,
3,6180000,Control_c,0,74,101,
3,6180068,Control_c,0,71,83,
3,6180480,Control_c,0,74,101,
3,6180548,Control_c,0,71,83,
3,6180960,Control_c,0,74,101,
3,6181028,Control_c,0,71,83,
3,6181440,Control_c,0,74,101,
3,6181508,Control_c,0,71,83,
3,6181920,Control_c,0,74,101,
3,6181988,Control_c,0,71,83,
3,6182400,Note_off_c,0,66,0,
3,6182400,Note_on_c,0,68,57,
3,6182400,Control_c,0,74,101,
3,6182468,Control_c,0,71,83,
3,6182880,Control_c,0,74,101,
3,6182948,Control_c,0,71,83,
3,6183360,Control_c,0,74,101,
3,6183428,Control_c,0,71,83,
3,6183840,Control_c,0,74,101,
3,6183908,Control_c,0,71,83,
3,6184320,Control_c,0,74,100,
3,6184388,Control_c,0,71,83,
3,6184800,Control_c,0,74,100,
3,6184868,Control_c,0,71,83,
3,6185280,Control_c,0,74,100,
3,6185348,Control_c,0,71,83,
3,6185760,Control_c,0,74,100,
3,6185828,Control_c,0,71,83,
3,6186240,Control_c,0,74,100,
3,6186308,Control_c,0,71,83,
3,6186720,Control_c,0,74,100,
3,6186788,Control_c,0,71,83,
3,6187200,Control_c,0,74,100,
3,6187268,Control_c,0,71,84,
3,6187680,Control_c,0,74,100,
3,6187748,Control_c,0,71,84,
3,6188160,Control_c,0,74,100,
3,6188228,Control_c,0,71,84,
3,6188640,Control_c,0,74,100,
3,6188708,Control_c,0,71,84,
3,6189120,Control_c,0,74,100,
3,6189188,Control_c,0,71,84,
3,6189600,Control_c,0,74,100,
3,6189668,Control_c,0,71,84,
3,6190080,Note_off_c,0,68,0,
3,6190080,Note_on_c,0,62,77,
3,6190080,Control_c,0,74,100,
3,6190148,Control_c,0,71,84,
3,6190560,Control_c,0,74,100,
3,6190628,Control_c,0,71,84,
3,6191040,Control_c,0,74,100,
3,6191108,Control_c,0,71,84,
3,6191520,Control_c,0,74,100,
3,6191588,Control_c,0,71,84,
3,6192000,Control_c,0,74,100,
3,6192068,Control_c,0,71,84,
3,6192480,Control_c,0,74,99,
3,6192548,Control_c,0,71,84,
3,6192960,Control_c,0,74,99,
3,6193028,Control_c,0,71,84,
3,6193440,Control_c,0,74,99,
3,6193508,Control_c,0,71,84,
3,6193920,Control_c,0,74,99,
3,6193988,Control_c,0,71,84,
3,6194400,Control_c,0,74,99,
3,6194468,Control_c,0,71,84,
3,6194880,Control_c,0,74,99,
3,6194948,Control_c,0,71,84,
3,6195360,Control_c,0,74,99,
3,6195428,Control_c,0,71,84,
3,6195840,Control_c,0,74,99,
3,6195908,Control_c,0,71,84,
3,6196320,Control_c,0,74,99,
3,6196388,Control_c,0,71,84,
3,6196800,Control_c,0,74,99,
3,6196868,Control_c,0,71,85,
3,6197280,Control_c,0,74,99,
3,6197348,Control_c,0,71,85,
3,6197760,Note_off_c,0,62,0,
3,6197760,Note_on_c,0,64,51,
3,6197760,Control_c,0,74,99,
3,6197828,Control_c,0,71,85,
3,6198240,Control_c,0,74,99,
3,6198308,Control_c,0,71,85,
3,6198720,Control_c,0,74,99,
3,6198788,Control_c,0,71,85,
3,6199200,Control_c,0,74,99,
3,6199268,Control_c,0,71,85,
3,6199680,Control_c,0,74,99,
3,6199748,Control_c,0,71,85,
3,6200160,Control_c,0,74,99,
3,6200228,Control_c,0,71,85,
3,6200640,Control_c,0,74,98,
3,6200708,Control_c,0,71,85,
3,6201120,Control_c,0,74,98,
3,6201188,Control_c,0,71,85,
3,6201600,Control_c,0,74,98,
3,6201668,Control_c,0,71,85,
3,6202080,Control_c,0,74,98,
3,6202148,Control_c,0,71,85,
3,6202560,Control_c,0,74,98,
3,6202628,Control_c,0,71,85,
3,6203040,Control_c,0,74,98,
3,6203108,Control_c,0,71,85,
3,6203520,Control_c,0,74,98,
3,6203588,Control_c,0,71,85,
3,6204000,Control_c,0,74,98,
3,6204068,Control_c,0,71,85,
3,6204480,Control_c,0,74,98,
3,6204548,Control_c,0,71,85,
3,6204960,Control_c,0,74,98,
3,6205028,Control_c,0,71,85,
3,6205440,Note_off_c,0,64,0,
3,6205440,Note_on_c,0,66,50,
3,6205440,Control_c,0,74,98,
3,6205508,Control_c,0,71,85,
3,6205920,Control_c,0,74,98,
3,6205988,Control_c,0,71,85,
3,6206400,Control_c,0,74,98,
3,6206468,Control_c,0,71,86,
3,6206880,Control_c,0,74,98,
3,6206948,Control_c,0,71,86,
3,6207360,Control_c,0,74,98,
3,6207428,Control_c,0,71,86,
3,6207840,Control_c,0,74,98,
3,6207908,Control_c,0,71,86,
3,6208320,Control_c,0,74,98,
3,6208388,Control_c,0,71,86,
3,6208800,Control_c,0,74,97,
3,6208868,Control_c,0,71,86,
3,6209280,Control_c,0,74,97,
3,6209348,Control_c,0,71,86,
3,6209760,Control_c,0,74,97,
3,6209828,Control_c,0,71,86,
3,6210240,Control_c,0,74,97,
3,6210308,Control_c,0,71,86,
3,6210720,Control_c,0,74,97,
3,6210788,Control_c,0,71,86,
3,6211200,Control_c,0,74,97,
3,6211268,Control_c,0,71,86,
3,6211680,Control_c,0,74,97,
3,6211748,Control_c,0,71,86,
3,6212160,Control_c,0,74,97,
3,6212228,Control_c,0,71,86,
3,6212640,Control_c,0,74,97,
3,6212708,Control_c,0,71,86,
3,6213120,Note_off_c,0,66,0,
3,6213120,Note_on_c,0,69,50,
3,6213120,Control_c,0,74,97,
3,6213188,Control_c,0,71,86,
3,6213600,Control_c,0,74,97,
3,6213668,Control_c,0,71,86,
3,6214080,Control_c,0,74,97,
3,6214148,Control_c,0,71,86,
3,6214560,Control_c,0,74,97,
3,6214628,Control_c,0,71,86,
3,6215040,Control_c,0,74,97,
3,6215108,Control_c,0,71,86,
3,6215520,Control_c,0,74,97,
3,6215588,Control_c,0,71,86,
3,6215831,Control_c,0,71,87,
3,6216000,Control_c,0,74,97,
3,6216311,Control_c,0,71,78,
3,6216480,Control_c,0,74,97,
3,6216791,Control_c,0,71,70,
3,6216840,Control_c,0,74,97,
3,6217271,Control_c,0,71,61,
3,6217320,Control_c,0,74,93,
3,6217751,Control_c,0,71,53,
3,6217800,Control_c,0,74,89,
3,6218231,Control_c,0,71,44,
3,6218280,Control_c,0,74,86,
3,6218711,Control_c,0,71,36,
3,6218760,Control_c,0,74,82,
3,6219123,Control_c,0,74,80,
3,6219191,Control_c,0,71,28,
3,6219603,Control_c,0,74,79,
3,6219671,Control_c,0,71,19,
3,6220083,Control_c,0,74,79,
3,6220151,Control_c,0,71,11,
3,6220563,Control_c,0,74,79,
3,6220631,Control_c,0,71,2,
3,6220800,Note_off_c,0,50,0,
3,6220800,Note_off_c,0,69,0,
3,6220800,Note_on_c,0,88,100,
3,6220800,Control_c,0,71,0,
3,6221043,Control_c,0,74,79,
3,6221523,Control_c,0,74,79,
3,6222003,Control_c,0,74,78,
3,6222483,Control_c,0,74,78,
3,6222963,Control_c,0,74,78,
3,6223443,Control_c,0,74,78,
3,6223923,Control_c,0,74,78,
3,6224403,Control_c,0,74,77,
3,6224883,Control_c,0,74,77,
3,6225363,Control_c,0,74,77,
3,6225843,Control_c,0,74,77,
3,6226323,Control_c,0,74,77,
3,6226803,Control_c,0,74,77,
3,6227283,Control_c,0,74,76,
3,6227763,Control_c,0,74,76,
3,6228243,Control_c,0,74,76,
3,6228723,Control_c,0,74,76,
3,6229203,Control_c,0,74,76,
3,6229683,Control_c,0,74,75,
3,6230163,Control_c,0,74,75,
3,6230643,Control_c,0,74,75,
3,6231123,Control_c,0,74,75,
3,6231603,Control_c,0,74,75,
3,6232083,Control_c,0,74,75,
3,6232320,Control_c,0,74,75,
3,6232800,Control_c,0,74,74,
3,6233280,Control_c,0,74,74,
3,6233760,Control_c,0,74,74,
3,6234240,Control_c,0,74,74,
3,6234720,Control_c,0,74,74,
3,6235200,Control_c,0,74,73,
3,6235680,Control_c,0,74,73,
3,6236160,Control_c,0,74,73,
3,6236640,Control_c,0,74,73,
3,6237120,Control_c,0,74,73,
3,6237600,Control_c,0,74,72,
3,6238080,Control_c,0,74,72,
3,6238560,Control_c,0,74,72,
3,6239040,Control_c,0,74,72,
3,6239520,Control_c,0,74,72,
3,6240000,Control_c,0,74,71,
3,6240480,Control_c,0,74,71,
3,6240960,Control_c,0,74,71,
3,6241440,Control_c,0,74,71,
3,6241920,Control_c,0,74,71,
3,6242400,Control_c,0,74,71,
3,6242880,Control_c,0,74,70,
3,6243360,Control_c,0,74,70,
3,6243840,Control_c,0,74,70,
3,6244320,Control_c,0,74,70,
3,6244800,Control_c,0,74,70,
3,6245280,Control_c,0,74,69,
3,6245760,Control_c,0,74,69,
3,6246240,Control_c,0,74,69,
3,6246720,Control_c,0,74,69,
3,6247200,Control_c,0,74,69,
3,6247680,Control_c,0,74,68,
3,6248160,Control_c,0,74,68,
3,6248640,Control_c,0,74,68,
3,6249120,Control_c,0,74,68,
3,6249600,Control_c,0,74,68,
3,6250080,Control_c,0,74,67,
3,6250560,Control_c,0,74,67,
3,6251040,Control_c,0,74,67,
3,6251520,Control_c,0,74,67,
3,6252000,Control_c,0,74,67,
3,6252480,Control_c,0,74,67,
3,6252960,Control_c,0,74,66,
3,6253440,Control_c,0,74,66,
3,6253920,Control_c,0,74,66,
3,6254400,Control_c,0,74,66,
3,6254880,Control_c,0,74,66,
3,6255360,Control_c,0,74,65,
3,6255840,Control_c,0,74,65,
3,6256320,Control_c,0,74,65,
3,6256800,Control_c,0,74,65,
3,6257280,Control_c,0,74,65,
3,6257760,Control_c,0,74,64,
3,6258240,Control_c,0,74,64,
3,6258720,Control_c,0,74,64,
3,6259200,Control_c,0,74,64,
3,6259680,Control_c,0,74,64,
3,6260160,Control_c,0,74,64,
3,6260640,Control_c,0,74,63,
3,6261120,Control_c,0,74,63,
3,6261600,Control_c,0,74,63,
3,6262080,Control_c,0,74,63,
3,6262560,Control_c,0,74,63,
3,6263040,Control_c,0,74,62,
3,6263520,Control_c,0,74,62,
3,6264000,Control_c,0,74,62,
3,6264480,Control_c,0,74,62,
3,6264960,Control_c,0,74,62,
3,6265440,Control_c,0,74,61,
3,6265920,Control_c,0,74,61,
3,6266400,Control_c,0,74,61,
3,6266880,Control_c,0,74,61,
3,6267360,Control_c,0,74,61,
3,6267840,Control_c,0,74,60,
3,6268320,Control_c,0,74,60,
3,6268800,Control_c,0,74,60,
3,6269280,Control_c,0,74,60,
3,6269760,Control_c,0,74,60,
3,6270240,Control_c,0,74,60,
3,6270720,Control_c,0,74,59,
3,6271200,Control_c,0,74,59,
3,6271680,Control_c,0,74,59,
3,6272160,Control_c,0,74,59,
3,6272640,Control_c,0,74,59,
3,6273120,Control_c,0,74,58,
3,6273600,Control_c,0,74,58,
3,6274080,Control_c,0,74,58,
3,6274560,Control_c,0,74,58,
3,6275040,Control_c,0,74,58,
3,6275520,Control_c,0,74,57,
3,6276000,Control_c,0,74,57,
3,6276480,Control_c,0,74,57,
3,6276960,Control_c,0,74,57,
3,6277440,Control_c,0,74,57,
3,6277920,Control_c,0,74,56,
3,6278400,Control_c,0,74,56,
3,6278880,Control_c,0,74,56,
3,6279360,Control_c,0,74,56,
3,6279840,Control_c,0,74,56,
3,6280320,Control_c,0,74,56,
3,6280800,Control_c,0,74,55,
3,6281280,Control_c,0,74,55,
3,6281760,Control_c,0,74,55,
3,6282240,Note_off_c,0,88,0,
3,6282240,Note_on_c,0,87,100,
3,6282240,Control_c,0,74,55,
3,6282720,Control_c,0,74,55,
3,6283200,Control_c,0,74,54,
3,6283680,Control_c,0,74,54,
3,6284160,Control_c,0,74,54,
3,6284640,Control_c,0,74,54,
3,6285120,Control_c,0,74,54,
3,6285600,Control_c,0,74,53,
3,6286080,Control_c,0,74,53,
3,6286560,Control_c,0,74,53,
3,6287040,Control_c,0,74,53,
3,6287520,Control_c,0,74,53,
3,6288000,Control_c,0,74,53,
3,6288480,Control_c,0,74,52,
3,6288960,Control_c,0,74,52,
3,6289440,Control_c,0,74,52,
3,6289920,Control_c,0,74,52,
3,6290400,Control_c,0,74,52,
3,6290880,Control_c,0,74,51,
3,6291360,Control_c,0,74,51,
3,6291840,Control_c,0,74,51,
3,6292320,Control_c,0,74,51,
3,6292800,Control_c,0,74,51,
3,6293280,Control_c,0,74,50,
3,6293760,Control_c,0,74,50,
3,6294240,Control_c,0,74,50,
3,6294720,Control_c,0,74,50,
3,6295200,Control_c,0,74,50,
3,6295680,Control_c,0,74,49,
3,6296160,Control_c,0,74,49,
3,6296640,Control_c,0,74,49,
3,6297120,Control_c,0,74,49,
3,6297600,Control_c,0,74,49,
3,6298080,Control_c,0,74,49,
3,6298560,Control_c,0,74,48,
3,6299040,Control_c,0,74,48,
3,6299520,Control_c,0,74,48,
3,6300000,Control_c,0,74,48,
3,6300480,Control_c,0,74,48,
3,6300960,Control_c,0,74,47,
3,6301440,Control_c,0,74,47,
3,6301920,Control_c,0,74,47,
3,6302400,Control_c,0,74,47,
3,6302880,Control_c,0,74,47,
3,6303360,Control_c,0,74,46,
3,6303840,Control_c,0,74,46,
3,6304320,Control_c,0,74,46,
3,6304800,Control_c,0,74,46,
3,6305280,Note_off_c,0,87,0,
3,6305280,Note_on_c,0,83,100,
3,6305280,Control_c,0,74,46,
3,6305760,Control_c,0,74,45,
3,6306240,Control_c,0,74,45,
3,6306720,Control_c,0,74,45,
3,6307200,Control_c,0,74,45,
3,6307680,Control_c,0,74,45,
3,6308160,Control_c,0,74,45,
3,6308640,Control_c,0,74,44,
3,6309120,Control_c,0,74,44,
3,6309600,Control_c,0,74,44,
3,6310080,Control_c,0,74,44,
3,6310560,Control_c,0,74,44,
3,6311040,Control_c,0,74,43,
3,6311520,Control_c,0,74,43,
3,6312000,Control_c,0,74,43,
3,6312480,Control_c,0,74,43,
3,6312960,Control_c,0,74,43,
3,6313440,Control_c,0,74,42,
3,6313920,Control_c,0,74,42,
3,6314400,Control_c,0,74,42,
3,6314880,Control_c,0,74,42,
3,6315360,Control_c,0,74,42,
3,6315840,Control_c,0,74,42,
3,6316320,Control_c,0,74,41,
3,6316800,Control_c,0,74,41,
3,6317280,Control_c,0,74,41,
3,6317760,Control_c,0,74,41,
3,6318240,Control_c,0,74,41,
3,6318720,Control_c,0,74,40,
3,6319200,Control_c,0,74,40,
3,6319680,Control_c,0,74,40,
3,6320160,Control_c,0,74,40,
3,6320640,Control_c,0,74,40,
3,6321120,Control_c,0,74,39,
3,6321600,Control_c,0,74,39,
3,6322080,Control_c,0,74,39,
3,6322560,Control_c,0,74,39,
3,6323040,Control_c,0,74,39,
3,6323520,Control_c,0,74,38,
3,6324000,Control_c,0,74,38,
3,6324480,Control_c,0,74,38,
3,6324960,Control_c,0,74,38,
3,6325440,Control_c,0,74,38,
3,6325920,Control_c,0,74,38,
3,6326400,Control_c,0,74,37,
3,6326880,Control_c,0,74,37,
3,6327360,Control_c,0,74,37,
3,6327840,Control_c,0,74,37,
3,6328320,Control_c,0,74,37,
3,6328800,Control_c,0,74,36,
3,6329280,Control_c,0,74,36,
3,6329760,Control_c,0,74,36,
3,6330240,Control_c,0,74,36,
3,6330720,Control_c,0,74,36,
3,6331200,Control_c,0,74,35,
3,6331680,Control_c,0,74,35,
3,6332160,Control_c,0,74,35,
3,6332640,Control_c,0,74,35,
3,6333120,Control_c,0,74,35,
3,6333600,Control_c,0,74,34,
3,6334080,Control_c,0,74,34,
3,6334560,Control_c,0,74,34,
3,6335040,Control_c,0,74,34,
3,6335520,Control_c,0,74,34,
3,6336000,Note_off_c,0,83,0,
3,6336000,Note_on_c,0,76,100,
3,6336000,Control_c,0,74,34,
3,6336480,Control_c,0,74,33,
3,6336960,Control_c,0,74,33,
3,6337440,Control_c,0,74,33,
3,6337920,Control_c,0,74,33,
3,6338400,Control_c,0,74,33,
3,6338880,Control_c,0,74,32,
3,6339360,Control_c,0,74,32,
3,6339840,Control_c,0,74,32,
3,6340320,Control_c,0,74,32,
3,6340800,Control_c,0,74,32,
3,6341280,Control_c,0,74,31,
3,6341760,Control_c,0,74,31,
3,6342240,Control_c,0,74,31,
3,6342720,Control_c,0,74,31,
3,6343200,Control_c,0,74,31,
3,6343680,Control_c,0,71,0,
3,6343680,Control_c,0,74,51,
3,6366720,Note_off_c,0,76,0,
3,6405120,Pitch_bend_c,0,8192,,
3,6451200,End_track,,,,
4,0,Start_track,,,,
4,0,Title_t,2 against 4 Delays,,,
4,0,Instrument_name_t,2 against 4 Delays,,,
4,0,MIDI_port,7,,,
4,0,Control_c,0,9,1,
4,1735680,Control_c,0,9,2,
4,2718720,Control_c,0,9,1,
4,6451200,End_track,,,,
0,0,End_of_file,,,,
